<svg width="44" height="44" viewBox="0 0 44 44" fill="none" xmlns="http://www.w3.org/2000/svg">
<path d="M9.48997 20.7059L9.05859 10.7843C10.4965 10.2091 13.4586 8.97253 13.8037 8.62744C14.1488 8.28234 18.8364 8.48365 21.137 8.62744L28.9017 9.05881L31.49 11.2157V15.098C31.3462 16.8235 31.0586 20.3608 31.0586 20.7059C31.0586 21.1372 29.3331 24.5882 28.9017 25.0196C28.4704 25.451 27.1762 27.6078 26.7449 27.6078C26.3135 27.6078 23.7253 28.9019 23.2939 29.3333C22.8625 29.7647 19.4115 29.7647 18.9802 29.7647C18.5488 29.7647 15.5292 28.9019 14.6664 28.9019C13.9762 28.9019 12.3658 27.1765 11.6468 26.3137L9.48997 20.7059Z" fill="url(#paint0_linear_1114_69)"/>
<path d="M28.3569 9.31531C29.571 9.52877 30.2907 9.76338 30.9127 10.4692C31.6916 11.353 31.6504 12.3083 31.5681 14.2189C31.2721 21.0876 29.6014 29.7474 20.1705 29.7474C10.7395 29.7474 9.06882 21.0876 8.77285 14.2189C8.69053 12.3083 8.64936 11.353 9.42827 10.4692C10.2072 9.58529 11.1394 9.44037 13.0039 9.15053C14.8444 8.86442 17.2502 8.62744 20.1705 8.62744C21.3465 8.62744 22.4391 8.66587 23.4449 8.73047" stroke="#F2A100" stroke-width="2.5" stroke-linecap="round"/>
<path d="M31.7835 13.7349L33.6816 14.3526C35.2305 14.8173 36.0049 15.0496 36.4479 15.6028C36.8909 16.1559 36.8908 16.8906 36.8908 18.36L36.8908 18.4621C36.8908 19.674 36.8907 20.28 36.5666 20.7758C36.2425 21.2716 35.6539 21.5658 34.4768 22.1544L29.1953 24.5192" stroke="#F2A100" stroke-width="2.5"/>
<path d="M9.3178 13.9075L7.46269 14.3527C5.52656 14.8174 4.55849 15.0497 4.00479 15.6028C3.45109 16.1559 3.45112 16.8906 3.45117 18.36L3.45118 18.4622C3.45122 19.6741 3.45125 20.2801 3.85642 20.7758C4.26159 21.2716 4.99731 21.5659 6.46872 22.1545L10.6463 23.6565" stroke="#F2A100" stroke-width="2.5"/>
<path d="M20.1538 30.1271V36.7874" stroke="#F2A100" stroke-width="2.5" stroke-linecap="round"/>
<path d="M25.4335 40.3074H14.8735L15.3853 37.9193C15.5263 37.2611 16.1454 36.7874 16.8646 36.7874H23.4425C24.1616 36.7874 24.7808 37.2612 24.9218 37.9193L25.4335 40.3074Z" stroke="#F2A100" stroke-width="2.5" stroke-linecap="round" stroke-linejoin="round"/>
<path d="M30.7133 40.3074H9.59326" stroke="#F2A100" stroke-width="2.5" stroke-linecap="round"/>
<defs>
<linearGradient id="paint0_linear_1114_69" x1="15.5292" y1="28.0392" x2="24.588" y2="11.2157" gradientUnits="userSpaceOnUse">
<stop stop-color="#F2BD00"/>
<stop offset="1" stop-color="#F2A100" stop-opacity="0"/>
</linearGradient>
</defs>
</svg>
