<svg width="178" height="49" viewBox="0 0 178 49" fill="none" xmlns="http://www.w3.org/2000/svg">
<path fill-rule="evenodd" clip-rule="evenodd" d="M109.679 12.7095H113.696L113.295 14.5519C114.864 13.0848 116.51 12.3486 118.237 12.3486C119.425 12.3486 120.344 12.5874 120.989 13.0651C121.634 13.5427 122.045 14.1961 122.223 15.0342C122.767 14.2738 123.554 13.6356 124.575 13.1235C125.596 12.6069 126.657 12.3486 127.759 12.3486C129.018 12.3486 129.998 12.6751 130.704 13.3234C131.41 13.9668 131.761 14.8246 131.761 15.8921C131.761 16.4138 131.623 17.3204 131.344 18.6072L129.318 27.8735H125.052L127.074 18.6072C127.322 17.4423 127.444 16.7892 127.444 16.6332C127.444 16.214 127.312 15.8874 127.053 15.6435C126.789 15.3998 126.393 15.2779 125.87 15.2779C124.809 15.2779 123.859 15.8143 123.026 16.8915C122.422 17.6616 121.904 19.0315 121.482 20.9909L119.979 27.8735H115.708L117.699 18.7047C117.927 17.6468 118.044 16.9644 118.044 16.6478C118.044 16.2481 117.902 15.9216 117.618 15.663C117.338 15.4047 116.947 15.2779 116.449 15.2779C115.982 15.2779 115.505 15.4098 115.007 15.6778C114.509 15.9459 114.078 16.3115 113.707 16.7794C113.331 17.2425 113.016 17.842 112.747 18.578C112.625 18.9194 112.432 19.6944 112.168 20.9032L110.65 27.8737H106.379L109.679 12.7095ZM89.1181 19.0605C89.141 18.8802 89.1507 18.7439 89.1578 18.6465C89.2389 17.5254 89.0493 16.6819 88.579 16.1214C88.1132 15.5609 87.4506 15.2782 86.5957 15.2782C85.7407 15.2782 84.956 15.595 84.232 16.2337C83.5077 16.8723 82.9825 17.8179 82.6517 19.0608L89.1181 19.0605ZM92.4205 21.5612H82.0532C82.0318 21.7221 82.0176 21.8488 82.0115 21.9319C81.9387 22.9411 82.1685 23.756 82.7046 24.3741C83.2432 24.9943 84.7335 25.801 86.4426 25.8519C87.611 25.8873 89.799 25.4574 91.0738 24.2983L90.0071 27.3846C86.7524 29.3158 81.5755 28.6053 79.6519 26.2943C78.5302 24.9466 77.9423 23.3013 78.0961 21.1761C78.2465 19.0998 78.9598 17.2522 80.2364 15.634C81.9772 13.4452 84.3163 12.3486 87.2544 12.3486C89.1266 12.3486 90.5737 12.9237 91.5915 14.0694C92.6136 15.2197 93.0483 16.823 92.8985 18.8899C92.8273 19.8796 92.6694 20.7716 92.4205 21.5612ZM64.6585 27.8735H60.8111L64.9237 6.93799H68.7713L67.2981 14.3911C68.1631 13.6697 68.9726 13.1479 69.723 12.8311C70.4734 12.5094 71.2784 12.3486 72.1387 12.3486C73.287 12.3486 74.2017 12.7046 74.8699 13.4062C75.5425 14.113 75.8764 15.0342 75.8764 16.1799C75.8764 16.7892 75.7531 17.7296 75.5011 19.0071L73.7581 27.8735H69.9102L71.6946 18.8314C71.882 17.8517 71.9734 17.2227 71.9734 16.95C71.9734 16.4429 71.827 16.0383 71.5343 15.7363C71.2369 15.4293 70.8343 15.2779 70.3264 15.2779C69.6816 15.2779 69.0682 15.5168 68.4782 15.9896C67.7098 16.6186 67.1241 17.3933 66.7215 18.305C66.4976 18.8119 66.2044 19.9964 65.8383 21.8632L64.6585 27.8735ZM49.4316 16.0117L50.0867 13.3192H52.169L52.8314 9.71114L57.0107 9.79571L56.44 13.3192H60.4236L59.7685 16.0117H55.7698L54.3882 22.3633C54.1394 23.5184 54.0175 24.1716 54.0175 24.3375C54.0175 24.6492 54.1191 24.8932 54.3273 25.0735C54.5354 25.2492 54.9114 25.3367 55.4598 25.3367C55.6477 25.3367 56.876 25.1934 57.6275 25.1254L56.9574 28.1672C56.2262 28.3134 54.7133 28.4903 53.9415 28.4903C52.4332 28.4903 51.3362 28.2125 50.6504 27.6568C49.97 27.1014 49.6247 26.3262 49.6247 25.3365C49.6247 24.8686 49.8074 23.7914 50.1781 22.1098L51.4985 16.012L49.4316 16.0117ZM97.6578 12.7095H101.645L101.343 14.7727C102.462 13.3945 103.947 12.545 105.684 12.545C106.298 12.545 107.114 12.4997 107.82 12.7923L106.18 16.1506C105.794 16.0142 105.383 15.951 104.946 15.951C100.584 15.951 99.994 19.4522 99.3974 23.1161L98.6229 27.8735H94.3517L97.6578 12.7095Z" fill="black"/>
<path fill-rule="evenodd" clip-rule="evenodd" d="M119.354 34.2706C119.354 34.2706 121.534 33.1903 122.953 31.4117C124.373 29.6326 124.746 28.9492 124.746 28.9492C124.746 28.9492 124.889 31.9922 125.036 32.329C125.182 32.6656 130.855 34.8477 134.771 37.2517C138.687 39.6558 139.617 40.8578 139.617 40.8578L119.354 34.2706ZM156.089 16.5891C156.089 16.5891 158.096 17.7431 158.243 18.4642C158.389 19.1853 158.145 20.0027 157.802 20.3873C157.459 20.7721 160.396 19.1851 160.983 19.0893C161.571 18.993 161.62 18.6806 161.277 18.4403C160.935 18.2 160.151 18.0796 159.172 17.5988C158.193 17.1182 157.117 16.6851 156.089 16.5891ZM37.2888 2.29171C37.2888 2.29171 121.281 7.28018 125.584 6.80056C129.886 6.32094 135.655 4.21043 135.655 4.21043L148.953 8.91131L149.735 6.609C149.735 6.609 151.3 9.77477 153.548 10.926C155.797 12.0773 159.122 13.3241 160.589 14.7632C162.055 16.2023 163.326 17.929 163.326 17.929C163.326 17.929 167.628 19.9437 168.02 23.4931C168.411 27.0427 164.793 27.2345 164.793 27.2345C164.793 27.2345 163.815 28.6736 162.935 28.6736C162.935 28.6736 163.724 26.8309 163.577 26.2058C163.43 25.581 160.102 24.7155 158.928 25.4367C157.753 26.1578 158.096 29.5239 158.096 29.5239L158.414 29.7403C158.414 29.7403 158.536 32.2164 159.197 32.1204C159.858 32.0241 160.739 31.904 160.739 31.904C160.739 31.904 160.396 33.0102 160.078 33.2985C160.078 33.2985 160.543 33.9955 160.274 34.2601C160.005 34.5246 158.145 35.4623 157.631 36.0628C157.117 36.6641 155.918 38.924 155.918 39.4048C155.918 39.4048 155.086 37.6016 154.278 37.2409C153.471 36.8805 151.439 35.1974 151.513 33.1781C151.586 31.1587 152.711 29.8122 152.711 28.9951C152.711 28.9951 151.732 31.1587 150.851 31.6393C149.971 32.1204 149.53 33.7554 149.53 35.2457C149.53 35.2457 146.789 31.303 145.37 30.4856C143.951 29.6682 141.21 27.7448 139.692 27.8891C138.175 28.0334 138.419 30.5818 138.762 31.207C139.105 31.8318 152.473 38.4592 157.167 43.3517C161.86 48.2441 160.69 46.8335 160.69 46.8335C160.69 46.8335 165.291 48.6131 165.731 48.3245C166.172 48.0355 174.662 16.5255 175.151 14.2229C175.639 11.9206 178.038 4.17631 177.794 3.5512C178.995 -0.551631 174.639 0.0281505 172.681 0.0281505C170.724 0.0279068 37.2888 2.29171 37.2888 2.29171ZM31.9772 21.8712C32.1797 19.1841 33.1343 17.038 34.8352 15.4427C36.536 13.8425 38.6777 13.0402 41.25 13.0402C43.4819 13.0402 45.1784 13.6327 46.3435 14.813C47.509 15.9932 48.0168 17.5793 47.8662 19.576C47.6888 21.9268 46.7527 23.9564 45.0531 25.6687C43.3579 27.3851 41.1928 28.2391 38.5622 28.2391C37.1372 28.2391 35.8982 27.9686 34.8361 27.418C33.7782 26.8724 33.0149 26.0979 32.546 25.0948C32.0815 24.096 31.8904 23.0189 31.9772 21.8712ZM43.6796 19.2126C43.7992 18.1262 43.6128 17.2583 43.1166 16.5979C42.6248 15.9425 41.9317 15.6152 41.0417 15.6152C40.1565 15.6152 39.3403 15.9208 38.5866 16.5377C37.8384 17.1489 37.2055 18.0389 36.6973 19.207C36.1894 20.3751 35.8812 21.4506 35.7734 22.4279C35.6391 23.6449 35.8295 24.6112 36.3391 25.3265C36.8492 26.0362 37.5486 26.3964 38.4435 26.3964C39.5619 26.3964 40.5647 25.8561 41.4418 24.7806C42.6891 23.2574 43.4385 21.4016 43.6796 19.2126ZM4.75718 13.2615H8.63263L8.30679 14.7813C9.13345 14.1096 9.90649 13.6332 10.6264 13.3424C11.351 13.0565 12.1242 12.9089 12.9509 12.9089C14.536 12.9089 15.8101 13.4472 16.773 14.5144C17.7405 15.5865 18.2218 17.1823 18.2218 19.3023C18.2218 21.975 17.3925 24.2306 15.7275 26.0723C14.3049 27.6461 12.4152 28.8013 10.4702 28.8013C8.46691 28.8013 6.86989 28.8237 5.84875 27.2326L4.08967 34.6981H0L4.75718 13.2615ZM6.35177 22.5556C6.23089 23.8136 6.43877 24.7911 6.97615 25.4876C7.5184 26.1841 8.19664 26.5273 9.01574 26.5273C9.72201 26.5273 10.4329 26.2675 11.1431 25.7477C11.854 25.2227 12.4849 24.3544 13.0362 23.1431C13.5882 21.9265 13.9111 20.8035 14.0105 19.769C14.127 18.5578 13.9343 17.6324 13.423 16.9876C12.9165 16.343 12.2259 16.0208 11.3456 16.0208C10.5216 16.0208 9.74565 16.3171 9.01842 16.9098C8.28535 17.5076 7.67949 18.3811 7.19548 19.5297C6.71587 20.6841 6.43463 21.6926 6.35177 22.5556ZM22.7428 13.1772H26.7294L26.4275 15.2404C27.5471 13.8622 29.1877 12.8165 30.9244 12.8165C31.539 12.8165 32.1992 12.9676 32.9052 13.26L31.2648 16.6186C30.879 16.4821 30.4677 16.419 30.0307 16.419C25.6688 16.419 25.0785 19.9203 24.4822 23.5843L23.7079 28.3417H19.4369L22.7428 13.1772Z" fill="#ED1C24"/>
</svg>
