<svg width="137" height="19" viewBox="0 0 137 19" fill="none" xmlns="http://www.w3.org/2000/svg">
<path fill-rule="evenodd" clip-rule="evenodd" d="M10.1206 12.2575C10.2378 12.9749 11.042 13.1097 10.8881 13.8509L10.1423 15.4425C8.76853 17.2264 5.98608 18.4337 3.73286 18.0515C2.02527 17.762 1.0259 17.3252 0 17.1254C0.0202624 17.1439 0.0523444 17.1434 0.0627168 17.1784C0.0730892 17.2134 0.111684 17.2197 0.125916 17.2302C0.850295 17.7555 2.60733 18.4365 3.4241 18.6807C5.09863 19.1813 6.11465 18.9383 7.56751 18.3267C8.69737 17.851 9.83448 17.247 10.7665 16.5838C11.9234 15.7608 11.2369 16.4847 12.5344 16.3456C14.168 16.1705 13.495 16.7102 14.3634 16.9472C14.7679 16.7023 14.8181 16.3921 14.9637 15.9316C15.3311 16.1522 15.4322 16.6202 15.6401 16.9023C15.9059 17.2626 16.1182 17.479 16.4791 17.7438C17.9088 18.7927 18.994 18.597 20.6823 18.5891C21.5599 18.5867 22.4374 18.5759 23.315 18.5687C26.156 18.5452 26.1339 18.9021 25.9127 13.0402C25.8451 11.2565 26.1191 9.55988 26.1095 7.80403C26.1051 7.00574 25.8931 5.92464 25.9966 5.21126C26.0854 4.60031 26.6846 3.62907 26.5562 3.13278C25.2507 3.03228 24.7177 3.8783 22.9158 3.1726C18.0979 1.28578 19.6559 3.11335 16.1006 1.35822C15.2067 0.916856 14.2309 0.220751 13.0989 0.0523622C11.3457 -0.208137 11.2335 0.574081 10.9229 2.08862C10.6814 3.26687 10.5116 4.5449 10.3362 5.77976C10.1411 7.15589 9.84702 8.21876 10.2354 9.60617C10.6276 11.007 11.9531 11.6264 10.1206 12.2575Z" fill="#013D7A"/>
<path fill-rule="evenodd" clip-rule="evenodd" d="M95.4471 11.4483L95.4369 2.82329L91.4026 2.82929L91.4004 18.6305L95.4731 18.6346L100.625 10.0386L100.647 18.6363L104.681 18.6281C104.685 14.3807 104.802 6.6689 104.657 2.81706L100.702 2.8125C100.233 3.57049 95.8427 11.0062 95.4471 11.4483Z" fill="#013D7A"/>
<path fill-rule="evenodd" clip-rule="evenodd" d="M137 18.6214V2.82088L132.726 2.8132L132.684 8.32519L128.024 8.34054L128.007 2.84199L123.751 2.81152L123.707 18.6236L128.009 18.6346L128.007 12.2828L132.659 12.2346L132.69 18.6037L137 18.6214Z" fill="#013D7A"/>
<path fill-rule="evenodd" clip-rule="evenodd" d="M35.8378 15.2018L35.8177 12.1428C37.5695 12.0104 40.0892 11.7856 40.0316 13.6679C39.9751 15.5142 37.5596 15.3865 35.8378 15.2018ZM31.5537 18.6394C34.1082 18.5965 36.7281 18.7152 39.2698 18.6286C46.0577 18.3974 44.8516 11.6542 42.532 10.0067C40.7089 8.71214 38.3693 8.91603 35.8295 8.90475L35.8257 5.9992L43.2161 5.99488L43.2328 2.83794L31.6024 2.81348L31.5537 18.6394Z" fill="#013D7A"/>
<path fill-rule="evenodd" clip-rule="evenodd" d="M117.033 11.7833C116.924 12.9088 116.711 13.8587 116.059 14.5224C114.743 15.8609 110.726 16.0914 111.355 9.60697C111.456 8.5597 111.731 7.55536 112.36 6.97175C113.032 6.35001 113.997 5.95326 115.144 6.39391C116.928 7.08018 117.256 9.48536 117.033 11.7833ZM112.617 2.66248C108.416 3.40488 106.489 7.38745 107.086 12.3309C107.626 16.8122 110.589 19.5451 115.727 18.8036C120.074 18.1764 121.85 14.0323 121.301 9.06127C120.81 4.61526 117.691 1.7656 112.617 2.66248Z" fill="#013D7A"/>
<path fill-rule="evenodd" clip-rule="evenodd" d="M74.8207 12.6782C69.4616 12.6816 70.8669 12.3256 70.1722 13.82C69.6128 15.0234 68.2753 15.5946 66.9271 15.1733C66.2015 14.9467 65.6026 14.3012 65.3201 13.6252C64.9952 12.8473 64.9078 11.8063 64.9062 10.8406C64.8972 5.94816 67.7593 5.60658 69.32 6.72246C70.2397 7.38043 70.0666 7.7954 70.5473 8.73162L74.8492 8.76544C74.3783 4.69387 71.455 2.12726 66.8569 2.53935C62.7258 2.90971 60.6296 6.26311 60.6038 10.6312C60.5469 20.2816 69.3212 20.0336 72.4078 17.5099C73.55 16.5759 74.6229 14.8608 74.8207 12.6782Z" fill="#013D7A"/>
<path fill-rule="evenodd" clip-rule="evenodd" d="M51.2271 12.6126C51.3323 11.7865 51.73 10.543 51.9517 9.737C52.1756 8.92216 52.3606 7.64029 52.7472 7.04757L54.2107 12.6121L51.2271 12.6126ZM45.2441 18.6295L49.6165 18.6269L50.2328 16.0454L55.0661 16.0281C55.3034 16.4133 55.7415 18.2347 55.8008 18.6093L60.2853 18.6362L55.0685 2.80762L50.4525 2.81337L45.2441 18.6295Z" fill="#013D7A"/>
<path fill-rule="evenodd" clip-rule="evenodd" d="M76.4062 6.68095L80.7803 6.71477L80.7832 18.5975L85.092 18.6347L85.0889 6.73971L89.4422 6.70853L89.462 2.8411L76.4174 2.81543L76.4062 6.68095Z" fill="#013D7A"/>
<path fill-rule="evenodd" clip-rule="evenodd" d="M117.033 11.783C117.256 9.48507 116.928 7.07988 115.143 6.39361C113.997 5.95297 113.031 6.34972 112.36 6.97146C111.73 7.55507 111.456 8.55941 111.354 9.60668C110.726 16.0911 114.743 15.8606 116.059 14.5221C116.711 13.8584 116.923 12.9085 117.033 11.783Z" fill="#FCFCFC"/>
<path fill-rule="evenodd" clip-rule="evenodd" d="M35.8374 15.2015C37.5592 15.3862 39.9748 15.5139 40.0312 13.6676C40.0889 11.7853 37.5691 12.0101 35.8174 12.1425L35.8374 15.2015Z" fill="#FCFCFC"/>
<path fill-rule="evenodd" clip-rule="evenodd" d="M51.2266 12.6124L54.2102 12.6119L52.7467 7.04736C52.36 7.64008 52.175 8.92195 51.9512 9.73679C51.7295 10.5428 51.3317 11.7863 51.2266 12.6124Z" fill="#FCFCFC"/>
<path fill-rule="evenodd" clip-rule="evenodd" d="M21.2531 4.98862C20.8681 5.12366 21.2418 5.85167 20.4576 5.18651C19.9776 4.77921 20.7741 3.3407 21.5995 4.45466C22.0036 4.99965 21.381 4.94352 21.2531 4.98862Z" fill="#FEFEFE"/>
<path fill-rule="evenodd" clip-rule="evenodd" d="M23.5303 7.3724C23.1454 7.50769 23.5193 8.2357 22.735 7.57053C22.2548 7.16299 23.0513 5.72449 23.877 6.83845C24.2808 7.38367 23.6584 7.32755 23.5303 7.3724Z" fill="#FEFEFE"/>
</svg>
