<svg width="195" height="27" viewBox="0 0 195 27" fill="none" xmlns="http://www.w3.org/2000/svg">
<path fill-rule="evenodd" clip-rule="evenodd" d="M118.085 13.5604C119.931 13.0209 122.317 13.3222 123.01 14.8429C125.179 19.6038 117.754 20.4372 116.484 17.7523C115.6 15.8864 116.435 14.0424 118.085 13.5604ZM128.831 17.4492C129.924 12.6743 125.236 11.2751 120.984 11.0992C116.635 10.9198 111.527 11.4769 110.636 15.1372C109.462 19.9621 114.305 21.2868 118.489 21.4412C122.793 21.5995 127.968 21.2188 128.831 17.4492Z" fill="#033967"/>
<path fill-rule="evenodd" clip-rule="evenodd" d="M81.1008 18.8651L81.0657 13.6941L82.3448 13.6073L82.9193 13.6226C85.3844 13.6239 87.8002 14.1078 86.9778 17.1321C86.4613 19.0322 83.4112 19.1778 81.1008 18.8651ZM75.9491 21.1714C79.2507 21.246 83.3347 21.3232 86.5536 21.0806C89.947 20.8253 92.5514 19.9428 92.5809 16.3061C92.6108 12.5616 89.9905 11.6975 86.5114 11.44C83.267 11.1997 79.1716 11.3076 75.8604 11.3698L75.9491 21.1714Z" fill="#033967"/>
<path fill-rule="evenodd" clip-rule="evenodd" d="M25.5166 13.433C26.9167 13.4321 29.4424 13.0965 29.9088 14.2685C30.7206 16.3117 28.6964 16.3274 27.2802 16.4529C27.7786 17.581 29.5699 20.0545 30.409 21.1782L35.9659 21.1826C35.551 20.0154 33.6468 18.3078 32.9584 17.067L33.3703 16.8788C33.413 16.8608 33.4661 16.8415 33.5105 16.8235C33.7193 16.738 33.8376 16.7104 34.0565 16.602C35.8912 15.6976 36.7259 11.8741 31.9712 11.4219C28.7813 11.1188 23.6916 11.2894 20.3799 11.3789C20.2507 12.7189 20.1971 20.1369 20.441 21.1839L25.4802 21.1576L25.5166 13.433Z" fill="#033967"/>
<path fill-rule="evenodd" clip-rule="evenodd" d="M16.8104 11.7228C16.6069 11.618 16.8333 11.686 16.3572 11.5509L13.4592 11.257C8.6495 10.9311 0.259124 10.5653 0.00681493 16.106C-0.210329 20.8612 4.80333 21.4108 9.08687 21.4108C11.079 21.4108 15.3537 21.5524 16.8258 20.6936L16.7999 16.2573L11.6376 16.3473L11.5379 18.9759C10.0649 19.2654 7.99631 19.1834 6.80158 18.5781C5.59805 17.9689 4.92508 15.981 6.11982 14.6748C7.88158 12.7492 12.6385 13.6909 15.4662 13.93L16.8104 11.7228Z" fill="#033967"/>
<path fill-rule="evenodd" clip-rule="evenodd" d="M146.591 11.3586C143.087 10.9704 134.608 10.4678 132.156 12.3679C129.909 14.1092 131.978 15.9479 134.205 16.4725C135.267 16.7226 136.536 16.9063 137.646 17.0463C138.867 17.2002 139.908 17.141 140.407 18.0218C139.973 20.2386 134.176 18.8095 132.293 18.8205C131.907 19.6236 131.149 20.3193 131.082 21.2194C134.86 21.4321 143.209 22.3072 145.937 20.2114C148.079 18.5661 146.702 16.4418 144.292 15.7488C142.666 15.2821 138.83 15.2093 137.802 14.3009C137.986 13.0008 139.085 13.1171 141.256 13.1241C142.76 13.1289 144.028 13.3517 145.422 13.414L146.591 11.3586Z" fill="#033967"/>
<path fill-rule="evenodd" clip-rule="evenodd" d="M60.2575 16.3883C60.7362 16.4751 64.5077 19.1007 65.2729 19.6008C67.8431 21.2811 67.4206 21.468 72.0198 21.1324L71.9938 11.366L68.931 11.3454L68.9327 16.1953C68.0303 15.9637 64.8162 13.5253 63.8065 12.8534C63.1991 12.4494 61.9705 11.4335 61.1182 11.3616C60.2017 11.284 58.0716 11.3164 57.1349 11.4147L57.127 21.1526L60.2452 21.1592L60.2575 16.3883Z" fill="#033967"/>
<path fill-rule="evenodd" clip-rule="evenodd" d="M38.4215 11.4171C38.3212 18.8128 37.4522 21.4608 46.003 21.4551C54.469 21.4494 53.8826 18.7404 53.5736 11.3667L48.4009 11.4448C48.1762 16.1846 49.3758 19.2199 46.0022 19.1992C42.8562 19.1799 43.643 16.1977 43.6413 11.3671L38.4215 11.4171Z" fill="#033967"/>
<path fill-rule="evenodd" clip-rule="evenodd" d="M107.976 13.7296C108.488 13.1572 109.168 12.1387 109.409 11.3623L95.7256 11.386L95.8232 21.1818L101.012 21.1428L101.034 18.3408L106.636 18.3268C107.091 17.9088 107.93 16.5429 108.131 15.971L101.029 15.9481L101.032 13.744L107.976 13.7296Z" fill="#033967"/>
<path fill-rule="evenodd" clip-rule="evenodd" d="M81.1006 18.8652C83.4109 19.178 86.4611 19.0323 86.9776 17.1322C87.8 14.1079 85.3841 13.6241 82.9191 13.6228L82.3446 13.6074L81.0654 13.6943L81.1006 18.8652Z" fill="white"/>
<path fill-rule="evenodd" clip-rule="evenodd" d="M183.039 11.0477C180.889 9.08921 172.497 1.92118 167.371 2.72475C163.379 3.35023 165.395 8.73875 166.489 11.0192C167.839 13.8347 169.592 16.2024 171.371 18.3372C172.034 18.1675 172.51 17.5486 172.843 17.0319C172.129 15.6848 170.544 14.3387 169.143 11.2389C167.317 7.19786 169.839 6.89126 173.004 8.34267C175.09 9.29931 177.255 10.942 178.847 12.2434C181.171 14.1413 182.952 16.1577 183.995 16.9814C184.893 16.5112 191.755 9.36204 193.627 7.5606C194.425 6.79256 194.398 6.85748 194.398 5.38896L194.399 0C193.541 0.405729 189.436 4.71786 188.679 5.48107C187.717 6.45131 186.878 7.27154 185.905 8.24837C185.095 9.06202 183.854 10.4674 183.039 11.0477Z" fill="#033967"/>
<path fill-rule="evenodd" clip-rule="evenodd" d="M172.709 26.4813C174.896 26.4808 174.465 26.7085 175.646 25.4961C176.805 24.3079 180.708 20.7011 181.011 19.8944C180.423 19.0391 178.535 17.1149 177.683 16.6587C177.317 16.8359 168.392 25.3948 167.91 26.4659L172.709 26.4813Z" fill="#033967"/>
<path fill-rule="evenodd" clip-rule="evenodd" d="M186.083 19.513C186.418 20.0486 186.939 20.5455 187.359 21.1136C187.814 21.7268 188.158 22.1777 188.545 22.7944C189.35 24.0747 189.831 25.0072 190.595 26.4854L194.267 26.4942C194.35 24.5278 189.548 17.8616 188.527 16.9624L186.083 19.513Z" fill="#033967"/>
</svg>
