<svg width="68" height="21" viewBox="0 0 68 21" fill="none" xmlns="http://www.w3.org/2000/svg">
<path fill-rule="evenodd" clip-rule="evenodd" d="M28.5971 4.92687C28.764 5.16681 30.6785 10.3333 31.0029 11.1738C31.1053 11.4398 31.2807 11.825 31.3395 12.1065L26.2598 12.0991L28.5971 4.92687ZM23.2683 0.0371187C24.2132 0.591013 24.3318 1.34801 24.0791 2.47912C23.9746 2.94684 23.8134 3.35508 23.6722 3.79035C22.1274 8.55067 20.5127 13.3759 18.994 18.1304C18.8395 18.6144 18.2177 20.4072 18.1572 20.7323L25.1892 20.7164C24.7425 20.2737 24.1497 19.5988 24.2105 18.5657C24.2362 18.1294 24.7634 16.6279 24.9364 16.1487L32.9177 16.1474L34.6446 20.733C35.3533 20.7282 44.2332 20.7904 44.6414 20.7083C44.1781 20.2818 43.5617 19.4859 43.8726 18.5272C44.0747 17.905 44.7823 17.1862 45.1926 16.7229C45.5671 16.3001 47.9148 13.4678 48.0942 13.3796C48.4714 13.9744 48.8137 14.606 49.1594 15.2106C49.5207 15.8429 49.8627 16.4133 50.2219 17.0531L52.3652 20.733L59.4012 20.7211L57.4219 17.8699C56.1333 16.0227 54.6994 14.0453 53.4527 12.1961C53.2604 11.9105 51.5859 9.58005 51.4926 9.36444L53.4889 7.00862C53.819 6.63958 54.1593 6.21377 54.4831 5.84507L56.4736 3.52101C56.8038 3.11446 57.1214 2.76536 57.4705 2.3605L58.968 0.599462C59.1248 0.421364 59.3147 0.225355 59.4394 0.0415121C59.0575 -0.027429 53.3554 0.0215732 52.4534 0.0219112C51.9188 0.0222491 50.6275 -0.0422987 50.1804 0.0486089C50.8113 0.27233 51.3267 0.795471 51.274 1.66061C51.2223 2.50751 50.6954 2.96238 50.3264 3.40746L48.4413 5.61763C48.3088 5.77106 47.9141 6.17288 47.8583 6.29859C47.5346 5.85521 47.2186 5.22156 46.9293 4.71869L44.2193 0.0215732L37.1812 0.0306978C37.2789 0.243604 37.4793 0.489629 37.6165 0.68699C37.7855 0.92896 37.9018 1.10706 38.068 1.33483C38.3884 1.77383 38.651 2.16382 38.9774 2.62951C39.606 3.52675 40.1552 4.32667 40.7713 5.19452L44.3626 10.3333C44.2714 10.5317 41.7162 13.4762 41.5012 13.7365C41.0619 14.2691 40.5458 14.826 40.0585 15.4191L38.6202 17.0973C38.5077 16.9628 37.1488 13.3188 36.9623 12.8308C36.4283 11.4334 35.8802 9.99539 35.3371 8.56182C34.796 7.13433 34.2631 5.70076 33.7085 4.28984L32.0661 0.0205594L23.2683 0.0371187Z" fill="#274F91"/>
<path fill-rule="evenodd" clip-rule="evenodd" d="M7.18204 12.1274L8.90523 12.1223C9.9968 12.123 11.3215 12.0024 12.0515 12.6904C12.8957 13.4859 13.0059 15.5508 11.8913 16.3571C11.2888 16.7928 10.4973 16.6964 9.65378 16.6968L7.18238 16.6846L7.18001 12.535L7.18204 12.1274ZM7.18407 4.07279C7.765 4.03967 8.40608 4.06468 8.99343 4.06501C10.5544 4.06569 12.3553 3.74599 12.3259 6.10756C12.3131 7.15722 11.7349 7.98418 10.7541 8.06968C10.2168 8.11665 9.50508 8.07847 8.9495 8.07813C8.36485 8.07813 7.77953 8.07948 7.1817 8.07779L7.18407 4.07279ZM0 0.0312848C0.324091 0.257371 0.525845 0.22628 0.848922 0.556792C1.6235 1.35063 1.81545 2.44862 1.8195 3.64055L1.81883 20.7275C5.22364 20.7626 8.70652 20.7339 12.1198 20.7325C15.2549 20.7315 17.5769 18.8921 18.0436 16.2547C18.311 14.7431 18.0163 13.1673 17.3248 12.0868C16.9967 11.5742 16.5773 11.1683 16.0629 10.7939C15.3945 10.3069 15.0096 10.2606 14.3756 9.95035C15.5405 9.59618 16.2028 9.28358 16.7905 8.48569C17.3617 7.71112 17.6219 6.66653 17.6246 5.44586C17.6324 1.51048 15.2184 0.030271 11.3273 0.0214844L0 0.0312848Z" fill="#274F91"/>
<path fill-rule="evenodd" clip-rule="evenodd" d="M60.084 0.0410853C60.474 0.234391 60.619 0.256357 60.9265 0.583827C61.7129 1.42058 61.794 2.79062 61.7953 3.94876C61.8008 9.49277 61.7193 15.2335 61.7974 20.7322L67.6901 20.7292L67.6847 0.0214844L60.084 0.0410853Z" fill="#274F91"/>
</svg>
