<svg width="121" height="16" viewBox="0 0 121 16" fill="none" xmlns="http://www.w3.org/2000/svg">
<path fill-rule="evenodd" clip-rule="evenodd" d="M0.13686 14.5627H7.03257V7.15282C7.03257 6.59777 7.07522 6.20444 7.07522 5.65354C7.28847 5.89819 8.34584 7.54733 8.60529 7.89268C8.88074 8.25995 9.09518 8.63491 9.37003 9.01225C10.0667 9.96951 10.9558 11.4475 11.6518 12.3846C11.9267 12.7548 12.1429 13.1227 12.4118 13.5089C12.4953 13.6285 12.5273 13.6706 12.6032 13.7891C12.7033 13.9455 13.1203 14.6053 13.2429 14.6053H20.1386V6.5101C20.1386 4.39359 20.1819 2.41568 20.1819 0.29976C20.0474 0.288505 20.0296 0.25711 19.8821 0.25711H13.1576V8.4803C13.1576 8.76523 13.1144 8.85112 13.1144 9.12302L12.9343 8.87482C11.2994 6.39874 9.49443 3.86461 7.83759 1.37905C7.5811 0.99401 7.32993 0.636815 7.07522 0.25711C6.09959 0.25711 5.2691 0.213867 4.2917 0.213867H0.17951C0.0142404 0.213867 0.0462281 0.350703 0.0474128 0.510049L0.0515594 11.0506C0.0533364 11.3971 0.0065397 11.5606 0.00831679 11.9065L0.00594733 14.2221C0.00298551 14.4039 -0.0367029 14.5627 0.13686 14.5627Z" fill="#093479"/>
<path fill-rule="evenodd" clip-rule="evenodd" d="M94.4932 3.29768V14.8192L101.475 14.8624L101.517 5.95325C101.633 6.03795 101.793 6.33414 101.897 6.47393L107.6 14.8624C108.746 14.8624 109.749 14.905 110.897 14.905H114.581L114.624 0.55681H107.6V9.42272L107.196 8.88308C106.451 7.80675 105.23 5.89105 104.528 4.9563L101.86 1.02774C101.788 0.91756 101.554 0.51416 101.432 0.51416H94.5364C94.5364 1.48978 94.4932 2.32028 94.4932 3.29768Z" fill="#093479"/>
<path fill-rule="evenodd" clip-rule="evenodd" d="M31.4887 12.1642C30.5776 12.1642 30.0605 12.2228 29.3088 11.6026C28.5257 10.9558 28.2946 9.67982 29.5007 8.89079C29.8982 8.63074 30.5527 8.39498 31.1889 8.39498H35.3432V10.0222C35.3432 10.3563 35.0126 10.8326 34.8171 10.9955C34.0009 11.6737 32.6189 12.1642 31.4887 12.1642ZM23.522 0.985101V4.19749L26.7728 3.42209C28.6708 3.04179 32.0236 2.81965 34.008 3.30598C34.3409 3.38773 34.6691 3.50265 34.9255 3.75855C35.4468 4.27983 35.3432 4.95512 35.3432 5.65352C33.0614 5.65352 29.3413 5.47048 27.2296 5.80635C25.7907 6.035 24.1125 6.59301 23.2157 7.70251C22.3805 8.73618 22.4083 9.53469 22.4083 10.7502C22.4083 11.8396 23.0238 12.7743 23.7654 13.3768C24.5521 14.0153 25.5733 14.4092 26.5626 14.6486C28.9231 15.2196 32.5389 14.9915 34.8568 14.2043C35.0369 14.1427 35.2585 14.0201 35.4291 14.0058C35.4907 14.2689 35.483 14.4258 35.6003 14.648C36.7228 14.648 37.699 14.6912 38.8126 14.6912C39.8979 14.6912 40.9831 14.6912 42.0677 14.6912C42.012 14.4809 41.6554 14.2849 41.486 13.4313C41.4415 13.2068 41.3871 12.8608 41.3811 12.6363C41.3717 12.2868 41.3373 12.0582 41.3391 11.7359C41.3497 9.84212 41.515 5.87921 41.2425 4.08079C40.8302 1.3654 38.1936 0.510618 35.807 0.221544C33.9624 -0.0011846 32.8126 1.31271e-07 30.9745 1.31271e-07C29.1488 1.31271e-07 27.0453 0.27308 25.2896 0.610727C24.9987 0.666409 24.7138 0.718537 24.3969 0.789029C24.1404 0.845896 23.7482 0.966145 23.522 0.985101Z" fill="#093479"/>
<path fill-rule="evenodd" clip-rule="evenodd" d="M84.9417 6.51012H79.5026C79.5026 5.96811 79.4516 5.56293 79.4576 5.05232C79.4753 3.62235 80.6482 2.998 81.9864 2.998C83.2623 2.998 85.0323 2.84813 86.0423 3.35401C87.522 4.09506 86.9812 5.8834 85.7935 6.3336C85.5731 6.41712 85.2337 6.51012 84.9417 6.51012ZM91.7094 14.0485V10.9647C91.3327 11.1454 89.6071 11.5434 89.164 11.6323C88.8311 11.6986 88.5675 11.7454 88.2216 11.8029C86.0346 12.1684 83.0313 12.3579 80.7833 11.9113C79.0601 11.5689 79.2028 11.2307 79.2028 9.16569H87.2122C89.3631 9.16569 92.3515 8.52771 92.3515 5.82476C92.3515 3.93275 92.579 2.68523 90.8612 1.53308C88.8039 0.152875 84.8587 0.0859375 82.2008 0.0859375C79.4516 0.0859375 75.3258 0.35724 73.8052 2.65502C72.9451 3.95467 73.0778 5.31947 73.0778 7.40992C73.0778 9.40501 72.8616 10.8912 73.6524 12.2318C74.7566 14.1025 77.1136 14.632 79.2378 14.8702C80.5955 15.0224 81.1766 15.0153 82.5023 15.0319C82.7535 15.0348 82.8542 15.0787 83.1427 15.0769C84.7302 15.068 86.7667 14.9566 88.3181 14.7689C89.0461 14.6806 91.12 14.3311 91.7094 14.0485Z" fill="#093479"/>
<path fill-rule="evenodd" clip-rule="evenodd" d="M48.1927 14.6911C50.8003 14.6911 53.2829 14.7338 55.9023 14.7338L56.3247 13.7001C57.263 11.4094 58.4323 8.57081 59.4133 6.3376C60.072 4.83773 60.7271 3.12047 61.3858 1.62831L61.8378 0.572122C61.8894 0.444172 61.9267 0.415738 61.7732 0.387305L58.3861 0.385528C58.3678 0.606479 55.4741 7.77527 55.2963 8.21717L54.1892 10.836C54.1347 10.6026 54.0198 10.3858 53.9381 10.1874L52.0354 5.62262C51.6847 4.73585 51.3121 3.90535 50.9579 3.01681L49.9058 0.385528C49.1932 0.385528 48.6305 0.342285 47.9356 0.342285H41.8965L42.2809 1.24327C42.4124 1.54419 42.5481 1.82912 42.6737 2.13537C42.9171 2.72951 43.2003 3.30588 43.4568 3.92194L43.8525 4.81108C43.9982 5.12266 44.103 5.39159 44.2399 5.70851C44.5064 6.32516 44.7813 6.89442 45.0413 7.51996C45.2984 8.13661 45.5603 8.69225 45.8244 9.30653C45.9554 9.60982 46.0922 9.90541 46.2219 10.1945C46.8273 11.5421 47.4766 13.1368 48.0926 14.4482C48.1388 14.5466 48.1524 14.607 48.1927 14.6911Z" fill="#093479"/>
<path fill-rule="evenodd" clip-rule="evenodd" d="M63.4834 14.6053V14.7338L70.5503 14.7765V7.9234C70.5503 5.3792 70.593 2.97183 70.593 0.428223H63.5261C63.5261 5.19853 63.4834 9.83496 63.4834 14.6053Z" fill="#093479"/>
<path fill-rule="evenodd" clip-rule="evenodd" d="M118.949 4.02632C118.389 4.02632 118.005 4.00381 117.566 3.56724C116.954 2.95888 116.937 1.88196 117.547 1.16817C118.376 0.197873 120.362 0.683019 120.362 2.35585C120.362 3.24381 119.651 4.02632 118.949 4.02632ZM116.508 2.26996C116.508 4.5085 119.045 5.14826 120.288 3.90903C120.518 3.68038 120.602 3.55184 120.749 3.25566C121.004 2.74089 121.032 2.05079 120.778 1.51233C120.448 0.814524 119.801 0.213867 118.906 0.213867C118.147 0.213867 117.678 0.302722 117.139 0.845919C116.769 1.21852 116.508 1.68174 116.508 2.26996Z" fill="#093479"/>
<path fill-rule="evenodd" clip-rule="evenodd" d="M118.778 2.22766H118.436V1.67084C118.541 1.66195 118.695 1.57132 118.965 1.69809C119.247 1.83019 119.133 2.22766 118.778 2.22766ZM117.879 1.28521V3.46985H118.392V2.65594C118.879 2.65594 118.965 2.60144 119.054 2.97996C119.098 3.16597 119.139 3.32827 119.206 3.46985H119.763C119.675 3.09074 119.583 2.5197 119.292 2.4415C119.488 2.17435 119.677 2.35739 119.677 1.79938C119.677 1.02161 118.254 1.28521 117.879 1.28521Z" fill="#093479"/>
</svg>
