<svg width="81" height="22" viewBox="0 0 81 22" fill="none" xmlns="http://www.w3.org/2000/svg">
<path fill-rule="evenodd" clip-rule="evenodd" d="M6.66839 21.1629L12.1886 21.1274L15.7247 10.3124C15.7694 10.3734 15.8518 10.3917 15.8772 10.5227C15.9026 10.6507 16.0074 10.6842 16.0399 10.738C16.2535 11.0915 16.2545 11.06 16.4101 11.4144C17.239 13.2975 18.9536 19.6587 19.754 21.0847L25.384 21.1568C26.0145 20.2458 31.7219 2.54858 31.9802 0.704102L25.7318 0.768089L22.6575 11.1087L19.1336 0.789419L13.0724 0.741682L9.8302 11.2215L6.59415 0.766058L0 0.73965C0.306113 3.2108 5.4958 17.5867 6.66839 21.1629Z" fill="#11927A"/>
<path fill-rule="evenodd" clip-rule="evenodd" d="M67.5979 5.97429C74.546 3.87996 77.1474 14.053 70.7913 15.9655C65.5823 17.5327 62.0869 12.1638 64.5287 8.11839C65.3382 6.7777 66.046 6.44252 67.5979 5.97429ZM66.9928 0.213358C51.3678 2.90186 55.3951 24.3723 71.5123 21.7478C77.2929 20.8063 82.1815 15.6974 80.7476 8.58154C79.5994 2.8846 73.8595 -0.967877 66.9928 0.213358Z" fill="#11927A"/>
<path fill-rule="evenodd" clip-rule="evenodd" d="M41.4893 21.0034L55.4708 21.1243L57.1376 15.9626L49.8692 15.855L54.6369 0.772129L47.9746 0.768066L41.4893 21.0034Z" fill="#11927A"/>
<path fill-rule="evenodd" clip-rule="evenodd" d="M30.4992 21.1598L37.0456 21.1273L43.6621 0.834007L36.8575 0.77002C36.0795 2.4205 30.4586 20.01 30.4992 21.1598Z" fill="#11927A"/>
<path fill-rule="evenodd" clip-rule="evenodd" d="M67.5983 5.97443C66.0464 6.44266 65.3385 6.77783 64.529 8.11853C62.0872 12.164 65.5826 17.5329 70.7916 15.9657C77.1478 14.0531 74.5463 3.8801 67.5983 5.97443Z" fill="#FAFCFC"/>
</svg>
