<svg width="98" height="57" viewBox="0 0 98 57" fill="none" xmlns="http://www.w3.org/2000/svg">
<path fill-rule="evenodd" clip-rule="evenodd" d="M56.1072 49.0758C69.829 45.6729 80 33.2745 80 18.5005C80 3.01283 66.8414 3.21282 51.6784 3.44326C49.8091 3.47167 47.9093 3.50055 46 3.50055C44.0392 3.50055 42.1521 3.4701 40.3468 3.44097C26.1349 3.21166 17 3.06427 17 18.5005C17 33.7144 27.7856 46.4091 42.1277 49.3556L48.9775 56.2054L56.1072 49.0758Z" fill="#354953"/>
<rect width="98" height="49" rx="13" fill="#354953"/>
<g clip-path="url(#clip0_208_3633)">
<path fill-rule="evenodd" clip-rule="evenodd" d="M10.4504 20.1973C15.4268 18.4043 20.4032 16.6112 25.3738 14.8182C26.7458 14.325 26.3737 14.3075 27.6759 14.9574C32.0245 17.1451 32.9954 17.6209 37.3439 19.8027C37.902 20.087 38.1404 20.1044 37.7683 21.0387C37.5009 21.6944 37.0125 21.9497 36.28 21.5609C32.1291 19.646 31.6699 19.3153 27.5132 17.3946C26.1586 16.7737 26.5016 16.6983 25.118 17.2031L12.3456 21.8395C11.7584 22.0542 11.0608 22.3559 10.8864 22.9826C10.2818 25.176 9.67715 26.325 9.08417 28.53C8.91557 29.1567 9.28183 29.6673 9.90969 29.6673C13.6594 29.6673 9.62483 29.6673 13.3804 29.6673C14.2117 29.7544 13.8338 30.1257 13.6478 30.9033C13.456 31.7273 13.0374 31.8085 12.4095 31.8085H6.88664C6.26459 31.8085 5.89252 31.2979 6.06111 30.6712C7.09012 26.9458 7.9854 25.0716 8.99696 21.3346C9.16556 20.7079 9.86318 20.412 10.4504 20.1973Z" fill="white"/>
<path d="M21.4089 31.3153L23.5774 23.2205C23.6181 23.0696 23.6937 22.9478 23.8216 22.8491C23.9436 22.7505 24.0773 22.7041 24.2227 22.7041H26.0888C26.2342 22.7041 26.3446 22.7505 26.4144 22.8491C26.4842 22.9478 26.5016 23.0696 26.4609 23.2205L26.3214 23.7427C27.4899 22.942 28.6177 22.5358 29.6991 22.5358C30.7804 22.5358 31.571 22.8665 32.071 23.5222C32.5768 24.178 32.6465 25.1876 32.2803 26.5397L31.0013 31.3153C30.9606 31.4603 30.8792 31.5822 30.7571 31.6809C30.635 31.7737 30.5013 31.8259 30.3502 31.8259H28.4898C28.3445 31.8259 28.2399 31.7737 28.1643 31.6809C28.0945 31.5822 28.0829 31.4603 28.1178 31.3153L29.3968 26.5397C29.7514 25.2166 29.3968 24.5493 28.3387 24.5493C27.6411 24.5493 26.7923 24.9497 25.7865 25.7389L24.2924 31.3153C24.2518 31.4603 24.1704 31.5822 24.0483 31.6809C23.9262 31.7737 23.7925 31.8259 23.6471 31.8259H21.781C21.6357 31.8259 21.5252 31.7737 21.4554 31.6809C21.3857 31.5822 21.3682 31.4603 21.4089 31.3153Z" fill="white"/>
<path d="M34.1697 25.2282C34.6522 23.4352 36.3381 22.5358 39.2333 22.5358C42.2796 22.5358 43.5877 23.3366 43.1633 24.9265C43.1226 25.0716 43.0412 25.1934 42.9249 25.2863C42.8028 25.3849 42.6691 25.4313 42.518 25.4313H41.2739C40.8785 25.4313 40.5879 25.2631 40.4018 24.9323C40.2158 24.5957 39.7275 24.4275 38.9252 24.4275C37.8264 24.4275 37.2044 24.6944 37.059 25.2282C36.9951 25.4778 37.1579 25.6809 37.5416 25.8491C37.9311 26.0174 38.4136 26.1625 39.0008 26.2843C39.5879 26.412 40.1635 26.5687 40.7274 26.766C41.2913 26.9574 41.7331 27.2708 42.0471 27.6886C42.3668 28.118 42.4366 28.6518 42.2622 29.3017C41.7855 31.0948 40.0181 31.9942 36.9602 31.9942C33.9023 31.9942 32.5884 31.1992 33.0128 29.6093C33.0535 29.4584 33.1349 29.3366 33.257 29.2379C33.379 29.1451 33.5186 29.0928 33.6639 29.0928H34.908C35.3091 29.0928 35.5998 29.2611 35.78 29.5977C35.9661 29.9342 36.4544 30.1025 37.2567 30.1025C38.5299 30.1025 39.2391 29.8356 39.3845 29.3017C39.4484 29.0522 39.2856 28.8433 38.9019 28.6809C38.5124 28.5126 38.0299 28.3675 37.4369 28.234C36.8556 28.1006 36.2742 27.9439 35.7161 27.7524C35.1522 27.5609 34.7104 27.2534 34.3906 26.824C34.0709 26.3946 34.0011 25.8607 34.1697 25.2282Z" fill="white"/>
<path d="M47.9711 30.0155L49.1338 29.9168H49.4419C49.5931 29.9168 49.7093 29.9691 49.7791 30.0619C49.8489 30.1547 49.8663 30.2766 49.8256 30.4275L49.5873 31.3153C49.5524 31.4371 49.4768 31.5474 49.3547 31.646C49.2326 31.7447 49.0931 31.8027 48.9361 31.8259C48.3373 31.9362 47.5816 31.9942 46.6747 31.9942C44.2795 31.9942 43.4191 30.7408 44.0876 28.2456L46.1921 20.4062C46.227 20.2553 46.3142 20.1335 46.4363 20.0348C46.5584 19.942 46.6921 19.8897 46.8374 19.8897H48.7036C48.8489 19.8897 48.9594 19.942 49.0292 20.0348C49.0989 20.1335 49.1164 20.2553 49.0757 20.4062L48.3315 23.1857H50.6569C50.8023 23.1857 50.9127 23.2321 50.9825 23.3308C51.0523 23.4236 51.0697 23.5455 51.029 23.6963L50.7616 24.6828C50.7209 24.8337 50.6453 24.9555 50.5232 25.0484C50.4012 25.1412 50.2616 25.1934 50.1163 25.1934H47.7909L46.977 28.2456C46.8258 28.8085 46.8433 29.2495 47.0235 29.5571C47.2095 29.8646 47.5234 30.0155 47.9711 30.0155Z" fill="white"/>
<path d="M51.4825 31.2224C50.8837 30.7118 50.7093 29.9923 50.9593 29.058C51.2093 28.1296 51.7673 27.4159 52.6394 26.911C53.5114 26.4178 54.523 26.1683 55.6857 26.1683H58.4471C58.6215 25.5184 58.6041 25.0658 58.4006 24.8104C58.1971 24.5551 57.7553 24.4275 57.0751 24.4275C56.3949 24.4275 55.8717 24.5957 55.5055 24.9323C55.1392 25.2631 54.7555 25.4313 54.3544 25.4313H53.1161C52.9649 25.4313 52.8545 25.3849 52.7789 25.2863C52.7091 25.1934 52.6975 25.0716 52.7324 24.9265C53.1626 23.3366 54.8892 22.5358 57.9181 22.5358C59.2436 22.5358 60.2261 22.8317 60.8656 23.4236C61.5051 24.0155 61.662 24.9265 61.3307 26.1683L59.9528 31.3153C59.9121 31.4662 59.8308 31.588 59.7087 31.6809C59.5924 31.7737 59.4587 31.8259 59.3075 31.8259H57.6972C57.546 31.8259 57.4356 31.7737 57.3716 31.6809C57.3019 31.5822 57.2844 31.4604 57.3251 31.3153L57.3949 31.06C56.3484 31.6867 55.2497 32 54.1044 31.9942C52.9591 31.9942 52.0871 31.7389 51.4825 31.2224ZM55.3834 28.0542C54.9939 28.0542 54.6567 28.147 54.3835 28.3385C54.1102 28.5242 53.93 28.7679 53.8486 29.0696C53.7672 29.3714 53.8195 29.6151 53.9998 29.8124C54.18 30.0039 54.4881 30.1025 54.9125 30.1025C55.7729 30.1025 56.6624 29.853 57.5925 29.354L57.9414 28.0542H55.3834Z" fill="white"/>
<path d="M61.9992 31.3153L64.9234 20.4062C64.9641 20.2553 65.0455 20.1335 65.1676 20.0348C65.2955 19.942 65.4234 19.8897 65.5687 19.8897H67.4349C67.5802 19.8897 67.6907 19.942 67.7605 20.0348C67.836 20.1335 67.8477 20.2553 67.807 20.4062L64.8886 31.3153C64.8479 31.4603 64.7665 31.5822 64.6444 31.6808C64.5223 31.7737 64.3886 31.8259 64.2433 31.8259H62.3713C62.2318 31.8259 62.1213 31.7737 62.0515 31.6808C61.976 31.5822 61.9643 31.4603 61.9992 31.3153Z" fill="white"/>
<path d="M66.9349 31.3153L69.8592 20.4062C69.8999 20.2553 69.9812 20.1335 70.1033 20.0348C70.2254 19.942 70.3591 19.8897 70.5045 19.8897H72.3706C72.516 19.8897 72.6264 19.942 72.6962 20.0348C72.7659 20.1335 72.7834 20.2553 72.7427 20.4062L69.8185 31.3153C69.7836 31.4603 69.7022 31.5822 69.5801 31.6808C69.458 31.7737 69.3185 31.8259 69.1732 31.8259H67.307C67.1617 31.8259 67.057 31.7737 66.9873 31.6808C66.9117 31.5822 66.8942 31.4603 66.9349 31.3153Z" fill="white"/>
<path d="M72.7834 30.7756C72.1439 29.9691 72.0276 28.7969 72.4346 27.2766C72.8473 25.7563 73.5856 24.5841 74.667 23.766C75.7483 22.9478 77.0563 22.5358 78.5853 22.5358C80.1143 22.5358 81.1956 22.9362 81.8409 23.7311C82.4804 24.5261 82.6083 25.6692 82.2072 27.1547L82.0793 27.6306C82.0386 27.7814 81.9572 27.9033 81.8351 28.0019C81.713 28.0948 81.5735 28.147 81.4223 28.147H75.1495C75.0158 28.8259 75.0797 29.325 75.3355 29.6325C75.5913 29.9458 76.0855 30.1025 76.8238 30.1025C77.5621 30.1025 78.1144 29.9342 78.4749 29.6035C78.8353 29.2727 79.219 29.0986 79.6201 29.0928H80.8642C81.0096 29.0928 81.1258 29.1451 81.1956 29.2379C81.2654 29.3366 81.277 29.4584 81.2421 29.6093C80.8119 31.205 79.0795 32 76.0448 31.9942C74.51 31.9942 73.4229 31.588 72.7834 30.7756ZM75.5971 26.3888H79.4748C79.7713 25.0832 79.3062 24.4275 78.0737 24.4275C76.8412 24.4275 76.0157 25.0832 75.5971 26.3888Z" fill="white"/>
<path d="M90.6833 24.8162L89.416 24.7698C88.666 24.7698 87.8347 25.176 86.9336 26L85.5093 31.3153C85.4686 31.4662 85.3872 31.588 85.2651 31.6809C85.143 31.7737 85.0093 31.8259 84.864 31.8259H82.9978C82.8467 31.8259 82.7362 31.7737 82.6664 31.6809C82.5967 31.588 82.5851 31.4662 82.6257 31.3153L84.7942 23.2205C84.8349 23.0696 84.9163 22.9478 85.0384 22.8491C85.1605 22.7505 85.2942 22.7041 85.4395 22.7041H87.3057C87.4568 22.7041 87.5673 22.7505 87.637 22.8491C87.701 22.9478 87.7184 23.0696 87.6777 23.2205L87.5382 23.7427C88.2126 23.3366 88.8404 23.029 89.4218 22.8317C89.9974 22.6344 90.7124 22.5358 91.5612 22.5358C91.7123 22.5358 91.8228 22.588 91.8926 22.6867C91.9623 22.7795 91.9798 22.9014 91.9449 23.0464L91.6019 24.3056C91.5612 24.4565 91.4856 24.5783 91.3635 24.677C91.2356 24.7698 91.1019 24.8162 90.9508 24.8162H90.6833Z" fill="white"/>
<path d="M15.9732 31.3849L18.7928 21.1257C18.8335 20.9749 18.9149 20.853 19.0312 20.7602C19.1591 20.6673 19.2986 20.6499 19.4381 20.5977L21.5019 19.8781C21.6415 19.8317 21.7635 19.9304 21.8275 20.029C21.8973 20.1219 21.9147 20.2437 21.874 20.3888L18.8568 31.3849C18.8161 31.53 18.7347 31.6576 18.6126 31.7505C18.4905 31.8433 18.3568 31.8898 18.2115 31.8898H16.3453C16.1942 31.8898 16.0837 31.8433 16.0139 31.7505C15.95 31.6576 15.9325 31.5358 15.9732 31.3849Z" fill="#6BA229"/>
<path d="M20.4322 14.6731L21.3624 11.5106C21.4089 11.3598 21.4845 11.2321 21.6066 11.1393C21.7287 11.0464 21.8624 11 22.0077 11H23.8797C24.025 11 24.1355 11.0522 24.2052 11.1451C24.2692 11.2437 24.2925 11.3656 24.2518 11.5106L23.5192 13.9188C23.4786 14.0696 23.3972 14.1915 23.2751 14.2843C23.153 14.3772 23.0309 14.412 22.8914 14.4584L20.8101 15.1838C20.6648 15.2302 20.5485 15.1315 20.4788 15.0387C20.409 14.9458 20.3916 14.824 20.4322 14.6731Z" fill="#6BA229"/>
</g>
<defs>
<clipPath id="clip0_208_3633">
<rect width="86" height="21" fill="white" transform="translate(6 11)"/>
</clipPath>
</defs>
</svg>
