<?xml version="1.0" encoding="UTF-8"?>
<!DOCTYPE svg PUBLIC "-//W3C//DTD SVG 1.1//EN" "http://www.w3.org/Graphics/SVG/1.1/DTD/svg11.dtd">
<!-- Creator: CorelDRAW X8 -->
<svg xmlns="http://www.w3.org/2000/svg" xml:space="preserve" width="1431px" height="1600px" version="1.1" style="shape-rendering:geometricPrecision; text-rendering:geometricPrecision; image-rendering:optimizeQuality; fill-rule:evenodd; clip-rule:evenodd"
viewBox="0 0 1431 1600"
 xmlns:xlink="http://www.w3.org/1999/xlink"
 enable-background="new 0 0 512.019 512.019">
 <defs>
  <style type="text/css">
   <![CDATA[
    .fil0 {fill:#4B5761}
    .fil1 {fill:#A79879;fill-rule:nonzero}
   ]]>
  </style>
 </defs>
 <g id="Слой_x0020_1">
  <metadata id="CorelCorpID_0Corel-Layer"/>
  <g id="_2083210667312">
   <path class="fil0" d="M1430 278c-4,-40 -37,-71 -78,-71l-202 0 0 -30 4 0c29,0 52,-23 52,-52l0 -73c0,-29 -23,-52 -52,-52l-595 0c-13,0 -24,10 -24,23 0,13 11,24 24,24l595 0c3,0 5,2 5,5l0 73c0,3 -2,5 -5,5l-877 0c-3,0 -5,-2 -5,-5l0 -73c0,-3 2,-5 5,-5l172 0c13,0 23,-11 23,-24 0,-13 -10,-23 -23,-23l-172 0c-29,0 -52,23 -52,52l0 73c0,29 23,52 52,52l4 0 0 30 -202 0c-41,0 -74,31 -78,71 0,6 -11,132 41,272 47,128 156,291 405,356 40,31 86,56 135,72l12 20c22,36 34,80 34,125 0,28 -4,55 -13,81l-17 48 -54 0c-56,0 -102,46 -102,102l0 49 -85 0c-24,0 -43,20 -43,44l0 110c0,24 19,43 43,43l717 0c24,0 43,-19 43,-43l0 -110c0,-24 -19,-44 -43,-44l-85 0 0 -49c0,-56 -46,-102 -102,-102l-54 0 -17 -48c-9,-26 -13,-53 -13,-81 0,-45 12,-89 34,-125l12 -20c49,-16 95,-41 135,-72 249,-65 358,-228 405,-356 52,-140 41,-266 41,-272zm-1140 373c-44,-41 -77,-91 -100,-152 -16,-42 -27,-88 -31,-136l122 0 0 202c0,29 3,58 9,86zm-204 -117c-48,-131 -39,-247 -38,-252 1,-16 15,-28 31,-28l202 0 0 62 -124 0c-13,0 -25,6 -33,15 -9,10 -13,22 -12,35 5,53 16,103 34,150 35,92 91,163 168,214 15,37 35,71 59,102 -170,-71 -249,-197 -287,-298l0 0zm985 916l0 104 -711 0 0 -104 711 0zm-184 -151c30,0 55,25 55,55l0 49 -453 0 0 -49c0,-30 25,-55 55,-55l343 0zm-115 -80l11 33 -135 0 11 -33c11,-30 16,-63 16,-96 0,-46 -10,-90 -30,-130 23,4 46,6 70,6 24,0 48,-2 71,-6 -20,40 -30,84 -30,130 0,33 5,66 16,96zm-56 -267c-214,0 -388,-174 -388,-387l0 -388 775 0 0 388c0,213 -174,387 -387,387zm629 -418c-38,101 -117,227 -287,298 24,-31 44,-65 59,-102 66,-44 117,-103 152,-177 6,-12 1,-26 -11,-31 -12,-6 -26,-1 -31,11 -22,46 -51,85 -86,118 6,-28 9,-57 9,-86l0 -202 122 0c-2,24 -6,48 -11,72 -3,12 5,25 17,28 13,3 25,-5 28,-18 6,-26 11,-52 13,-79 1,-13 -3,-25 -12,-35 -8,-9 -20,-15 -33,-15l-124 0 0 -62 202 0c16,0 30,12 31,28 1,5 10,121 -38,252z"/>
   <path class="fil1" d="M636 595l0 79 178 0c5,0 8,2 11,7 4,5 5,11 5,19 0,8 -2,15 -5,19 -4,5 -7,7 -11,7l-178 0 0 127c0,4 -2,7 -6,10 -5,2 -13,3 -25,3 -11,0 -19,-1 -23,-3 -3,-3 -5,-6 -5,-10l0 -127 -43 0c-3,0 -7,-2 -11,-7 -3,-4 -5,-11 -5,-19 0,-8 2,-14 5,-19 4,-5 7,-7 11,-7l43 0 0 -79 -43 0c-3,0 -7,-3 -11,-7 -3,-5 -5,-11 -5,-20 0,-7 2,-13 5,-18 4,-5 7,-7 11,-7l43 0 0 -291c0,-12 3,-20 9,-25 7,-4 13,-7 19,-7l130 0c30,0 58,4 84,11 25,7 48,19 66,34 19,14 34,33 44,56 11,22 16,48 16,78 0,30 -5,56 -14,80 -9,24 -23,45 -42,62 -19,17 -42,30 -70,40 -28,9 -61,14 -99,14l-84 0zm0 -323l0 271 90 0c27,0 51,-4 71,-10 20,-7 37,-17 50,-29 13,-12 22,-26 29,-43 6,-17 9,-36 9,-56 0,-29 -5,-52 -15,-70 -10,-17 -23,-31 -39,-40 -15,-9 -32,-15 -50,-18 -17,-3 -34,-5 -50,-5l-95 0z"/>
  </g>
 </g>
</svg>
