<?xml version="1.0" encoding="UTF-8"?>
<!DOCTYPE svg PUBLIC "-//W3C//DTD SVG 1.1//EN" "http://www.w3.org/Graphics/SVG/1.1/DTD/svg11.dtd">
<!-- Creator: CorelDRAW X8 -->
<svg xmlns="http://www.w3.org/2000/svg" xml:space="preserve" width="1594px" height="1600px" version="1.1" style="shape-rendering:geometricPrecision; text-rendering:geometricPrecision; image-rendering:optimizeQuality; fill-rule:evenodd; clip-rule:evenodd"
viewBox="0 0 1594 1600"
 xmlns:xlink="http://www.w3.org/1999/xlink"
 enable-background="new 0 0 512 512">
 <defs>
  <style type="text/css">
   <![CDATA[
    .fil0 {fill:#4B5761}
    .fil1 {fill:#A79879}
   ]]>
  </style>
 </defs>
 <g id="Слой_x0020_1">
  <metadata id="CorelCorpID_0Corel-Layer"/>
  <path class="fil0" d="M855 1538c-44,10 -90,15 -136,15 -1,0 -2,0 -4,0 -169,0 -330,-63 -454,-178 -110,-103 -182,-235 -205,-382 -2,-13 -14,-22 -27,-20 -13,2 -22,14 -20,27 26,158 102,299 220,409 133,123 305,191 486,191 2,0 3,0 5,0 48,0 97,-6 145,-16 12,-2 20,-15 18,-27 -3,-13 -15,-21 -28,-19z"/>
  <path class="fil1" d="M739 525c-3,-9 -12,-15 -22,-15 -9,0 -18,6 -22,15l-227 580 -56 0c-13,0 -23,10 -23,23 0,13 10,24 23,24l156 0c13,0 24,-11 24,-24 0,-13 -11,-23 -24,-23l-50 0 93 -237 212 0 93 237 -50 0c-13,0 -23,10 -23,23 0,13 10,24 23,24l156 0c13,0 24,-11 24,-24 0,-13 -11,-23 -24,-23l-55 0 -228 -580zm-109 296l87 -223 88 223 -175 0z"/>
  <path class="fil0" d="M1525 168c0,-1 0,-1 0,-2 0,-23 -9,-45 -25,-62 -17,-16 -39,-25 -62,-25 -24,0 -46,9 -62,25 -8,8 -17,20 -26,34l-15 0c-64,0 -115,-51 -115,-114 0,-13 -11,-24 -24,-24 -13,0 -23,11 -23,24 0,86 67,156 152,161 -13,31 -17,55 -13,74l-106 105c-74,-70 -163,-124 -259,-157l0 -22c1,0 3,0 4,0l38 0c28,0 51,-23 51,-51l0 -79c0,-29 -23,-52 -51,-52l-38 0c-7,0 -14,2 -21,5 -6,-5 -14,-8 -23,-8l-99 0c-21,0 -39,18 -39,39l0 37 -76 0 0 -37c0,-21 -17,-39 -39,-39l-99 0c-21,0 -39,18 -39,39l0 158c-115,33 -221,96 -306,182 -67,66 -119,144 -155,231 -36,87 -55,179 -55,273 0,13 10,24 23,24l1 0c13,0 23,-11 23,-24 0,-178 70,-345 196,-471 83,-83 186,-143 298,-173 13,-3 22,-15 22,-29l0 -163 83 0 0 229c0,4 -3,7 -6,8 -302,38 -530,296 -530,601 0,161 63,314 178,428 114,114 266,177 427,177 1,0 1,0 2,0 330,-1 601,-270 604,-600 0,-30 -2,-60 -6,-89 4,0 63,-1 63,-1 0,0 6,60 6,90 -2,176 -71,342 -196,467 -67,67 -145,118 -232,151 -12,5 -18,19 -13,31 4,12 18,18 30,13 93,-36 177,-90 248,-162 134,-133 208,-311 210,-500 0,-32 -2,-64 -6,-95 97,-23 169,-110 169,-214l0 -281c0,-54 -26,-102 -69,-132l0 0zm-168 79c-2,-10 7,-37 20,-62l55 0c13,0 25,2 37,6 -1,2 -2,3 -3,4 0,0 0,0 0,0 -24,24 -91,56 -109,52l0 0zm81 -121c11,0 21,4 28,12 2,1 4,3 5,5 -13,-3 -26,-5 -39,-5l-23 0c0,0 8,-12 29,-12l0 0zm-487 -76l38 0c2,0 4,2 4,5l0 79c0,2 -2,4 -4,4l-38 0c-2,0 -4,-2 -4,-4l0 -79c0,-3 2,-5 4,-5zm-135 -3l83 0 0 8 0 79 0 86c0,13 9,24 21,28 95,30 180,81 253,150l-44 44c-86,-80 -192,-133 -306,-154 -4,0 -7,-3 -7,-7l0 -234 0 0zm491 706c-16,-72 -45,-140 -87,-203 -7,-11 -22,-14 -33,-6 -10,7 -13,21 -6,32 37,56 63,117 78,180 -58,13 -102,65 -102,127 0,45 -37,82 -82,82l-65 0c-13,0 -23,11 -23,24 0,13 10,23 23,23l65 0c71,0 129,-58 129,-129 0,-39 27,-72 64,-80 4,28 6,57 6,86 -3,305 -253,553 -557,554 -1,0 -1,0 -2,0 -148,0 -288,-58 -394,-163 -106,-106 -164,-246 -164,-395 0,-281 210,-520 488,-555 28,-3 48,-26 48,-54l0 -153 76 0 0 158c0,26 19,49 45,54 106,19 202,67 281,140l-116 116c-9,10 -9,24 0,34 5,4 11,7 17,7 6,0 12,-3 17,-7l193 -194c83,90 140,203 164,322l-63 0zm240 -172c0,80 -55,148 -130,167 -25,-130 -87,-252 -178,-350l106 -106c5,1 10,2 15,2 17,0 37,-6 61,-16 31,-14 63,-34 79,-50 4,-4 7,-8 10,-12 23,21 37,51 37,84l0 281z"/>
 </g>
</svg>
