<?xml version="1.0" encoding="UTF-8"?>
<!DOCTYPE svg PUBLIC "-//W3C//DTD SVG 1.1//EN" "http://www.w3.org/Graphics/SVG/1.1/DTD/svg11.dtd">
<!-- Creator: CorelDRAW X8 -->
<svg xmlns="http://www.w3.org/2000/svg" xml:space="preserve" width="1600px" height="1361px" version="1.1" style="shape-rendering:geometricPrecision; text-rendering:geometricPrecision; image-rendering:optimizeQuality; fill-rule:evenodd; clip-rule:evenodd"
viewBox="0 0 1600 1361"
 xmlns:xlink="http://www.w3.org/1999/xlink"
 enable-background="new 0 0 512.019 512.019">
 <defs>
  <style type="text/css">
   <![CDATA[
    .fil2 {fill:black}
    .fil0 {fill:#4B5761}
    .fil1 {fill:#A79879}
   ]]>
  </style>
 </defs>
 <g id="Слой_x0020_1">
  <metadata id="CorelCorpID_0Corel-Layer"/>
  <path class="fil0" d="M644 754l33 33 -605 517c-17,15 -41,14 -57,-2 -15,-16 -16,-40 -2,-57l465 -543c8,-10 23,-11 33,-2 9,8 11,23 2,32l-425 497 556 -475z"/>
  <g>
   <path class="fil1" d="M932 151c22,13 43,29 61,47l78 78 -4 4 5 0c2,0 4,0 5,1l5 0c1,-1 2,-1 3,-1 1,-1 2,-1 2,-1 0,0 1,-1 1,-1 1,-2 4,-4 5,-4l3 -3c1,-2 3,-4 5,-6 1,-1 3,-3 4,-4 1,-1 2,-2 2,-2 1,-1 1,-2 1,-2l0 -4c0,-1 0,-2 0,-3 -1,-1 -1,-2 -1,-3 -1,-1 -1,-3 -2,-4 0,0 0,-1 0,-1l-1 1 -30 -29c-16,-18 -37,-40 -56,-57 -18,-16 -37,-31 -57,-43 -30,-17 -32,-17 -43,-22 -42,-18 -87,-27 -134,-27l-2 0c-190,0 -343,154 -343,343 0,91 35,178 100,242 117,117 234,234 351,351 -39,39 -126,133 -126,201 0,87 72,159 159,159 88,0 159,-72 159,-159 0,-68 -87,-162 -126,-201l26 -25c31,-32 48,-73 48,-118 0,-44 -17,-85 -48,-117l-30 -29c-9,-9 -24,-9 -33,0 -9,9 -9,24 0,33l30 29c22,23 35,53 35,84 0,32 -13,62 -35,85l-26 25c-112,-111 -223,-223 -335,-334 -63,-66 -103,-120 -103,-226 0,-164 133,-296 297,-296l2 0c54,0 100,13 148,39zm268 249c32,31 79,51 124,51 46,0 89,-18 122,-51l144 -144c9,-10 9,-24 0,-33l0 0c-9,-10 -24,-10 -33,0l-144 144c-24,24 -56,37 -89,37 -31,0 -66,-13 -89,-33 -10,10 -34,28 -35,29zm-529 382l2 3 -2 -3zm252 532c-62,0 -112,-50 -112,-112 0,-42 63,-120 112,-168 49,48 112,126 112,168 0,62 -50,112 -112,112z"/>
  </g>
  <path class="fil0" d="M783 299c-34,62 -73,120 -117,172l-110 130 32 34 114 -134c46,-54 87,-115 122,-180 41,-77 87,-147 140,-211 5,-5 9,-9 12,-13 66,-66 172,-67 236,-3 32,31 48,73 48,118 0,44 -18,86 -50,118 -34,35 -128,101 -224,153 -66,35 -126,76 -180,122l-73 62c-9,9 -11,23 -2,33 8,10 23,11 33,3l72 -62c52,-44 109,-84 172,-117 75,-40 145,-87 192,-124 13,-10 26,-21 36,-30 3,-2 5,-5 7,-7 40,-40 63,-94 64,-151 0,-57 -22,-111 -62,-151 -82,-82 -218,-81 -302,3 -7,7 -16,17 -25,29 -44,50 -111,161 -135,206zm281 -96l19 -19c11,-11 28,-11 39,0 11,11 11,29 0,40 -24,25 -48,49 -73,73 -12,12 -31,11 -42,-2 -8,-10 -22,-12 -32,-4 -14,10 -11,29 2,39 14,15 33,22 52,22 20,0 39,-7 53,-22l73 -73c29,-29 29,-76 0,-106 -29,-29 -76,-29 -105,0l-18 19c16,17 20,21 32,33z"/>
  <g>
   <g id="_2083152424048">
    <g>
     <g>
      <path class="fil2" d="M3576 815c-3,-40 -37,-71 -78,-71l-202 0 0 -30 4 0c29,0 53,-23 53,-52l0 -73c0,-28 -24,-52 -53,-52l-595 0c-13,0 -23,11 -23,24 0,12 10,23 23,23l595 0c3,0 6,2 6,5l0 73c0,3 -3,5 -6,5l-876 0c-3,0 -6,-2 -6,-5l0 -73c0,-3 3,-5 6,-5l171 0c13,0 24,-11 24,-23 0,-13 -11,-24 -24,-24l-171 0c-29,0 -52,24 -52,52l0 73c0,29 23,52 52,52l4 0 0 30 -202 0c-41,0 -74,31 -78,71 -1,6 -11,132 41,272 47,128 156,291 404,355 40,32 86,57 136,73l12 19c22,37 34,81 34,126 0,28 -5,55 -14,81l-16 48 -54 0c-56,0 -102,46 -102,102l0 49 -85 0c-24,0 -44,19 -44,43l0 110c0,24 20,44 44,44l716 0c24,0 44,-20 44,-44l0 -110c0,-24 -20,-43 -44,-43l-85 0 0 -49c0,-56 -45,-102 -101,-102l-55 0 -16 -48c-9,-26 -13,-53 -13,-81 0,-45 11,-89 34,-126l11 -19c50,-16 96,-41 136,-73 249,-64 357,-227 404,-355 52,-140 42,-266 41,-272zm-1139 373c-44,-41 -78,-92 -100,-152 -16,-42 -27,-88 -31,-136l122 0 0 202c0,29 3,58 9,86zm-204 -117c-48,-131 -39,-247 -38,-252 1,-16 14,-28 31,-28l202 0 0 62 -124 0c-13,0 -25,6 -34,15 -8,10 -12,22 -11,35 5,53 16,103 34,150 34,91 91,163 168,214 15,37 35,71 59,102 -170,-71 -250,-197 -287,-298l0 0zm984 916l0 103 -710 0 0 -103 710 0zm-183 -151c30,0 54,24 54,55l0 49 -452 0 0 -49c0,-31 25,-55 55,-55l343 0zm-116 -80l12 33 -135 0 11 -33c10,-31 16,-63 16,-96 0,-46 -11,-90 -30,-130 23,4 46,6 70,6 24,0 48,-2 71,-6 -20,40 -30,84 -30,130 0,33 5,65 15,96zm-56 -267c-213,0 -387,-174 -387,-387l0 -388 774 0 0 388c0,213 -173,387 -387,387zm630 -418c-38,101 -118,227 -288,298 24,-31 44,-65 59,-102 67,-44 118,-103 153,-177 5,-12 0,-26 -11,-31 -12,-6 -26,-1 -32,11 -21,46 -50,85 -85,118 5,-28 8,-57 8,-86l0 -202 123 0c-3,24 -7,48 -12,71 -3,13 5,26 18,29 12,2 25,-5 28,-18 6,-26 10,-52 12,-79 2,-13 -3,-25 -11,-35 -9,-9 -21,-15 -33,-15l-125 0 0 -62 202 0c17,0 30,12 32,28 0,5 10,121 -38,252z"/>
      <path class="fil2" d="M3016 992l-67 -10c-3,0 -5,-2 -7,-4l-30 -61c-9,-20 -28,-31 -50,-31 -21,0 -41,11 -50,31l-30 61c-1,2 -4,4 -7,4l-67 10c-21,3 -38,18 -45,38 -7,21 -1,43 14,58l49 47c2,2 3,5 2,8l-11 67c-4,21 5,42 22,54 17,13 40,15 59,5l60 -32c3,-1 6,-1 8,0l60 32c9,4 18,6 26,6 12,0 23,-3 33,-11 18,-12 26,-33 22,-54l-11 -67c-1,-3 0,-6 3,-8l48 -47c16,-15 21,-37 14,-58 -6,-20 -24,-35 -45,-38l0 0zm-2 62l-48 47c-13,13 -19,32 -16,50l11 67c1,5 -2,7 -3,9 -2,1 -6,2 -10,0l-60 -31c-8,-5 -17,-7 -26,-7 -9,0 -18,2 -26,7l-60 31c-4,2 -8,1 -9,0 -2,-2 -5,-4 -4,-9l11 -67c4,-18 -2,-37 -16,-50l-48 -47c-4,-3 -3,-7 -3,-9 1,-2 3,-6 8,-6l67 -10c18,-3 34,-14 42,-31l30 -61c2,-4 6,-5 8,-5 2,0 6,1 8,5l30 61c8,17 24,28 42,31l67 10c5,0 7,4 8,6 0,2 1,6 -3,9l0 0z"/>
     </g>
    </g>
   </g>
  </g>
 </g>
</svg>
