<svg width="41" height="36" viewBox="0 0 41 36" fill="none" xmlns="http://www.w3.org/2000/svg">
<path d="M39.4276 3.23869C39.4276 3.62984 39.099 3.9897 38.5201 4.31826C36.9868 5.19443 33.6542 5.80462 29.8054 5.80462C25.9408 5.80462 22.6082 5.19443 21.0906 4.31826C20.5117 3.9897 20.1831 3.62984 20.1831 3.23869C20.1831 2.84754 20.5117 2.48769 21.0906 2.15912C22.6239 1.28295 25.9565 0.67276 29.8054 0.67276C33.6699 0.67276 37.0025 1.28295 38.5201 2.15912C39.099 2.48769 39.4276 2.84754 39.4276 3.23869Z" fill="#AFE5E3"/>
<path d="M39.4276 3.2387C39.4276 3.62985 39.099 3.9897 38.5201 4.31827C36.9868 5.19444 33.6542 5.80463 29.8054 5.80463C25.9408 5.80463 22.6082 5.19444 21.0906 4.31827C20.5117 3.9897 20.1831 3.62985 20.1831 3.2387C20.1831 3.14482 20.1988 3.05095 20.2457 2.95707C20.3552 3.19176 20.5899 3.39516 20.9341 3.59856C22.2171 4.33391 25.0177 4.85023 28.272 4.85023C31.5108 4.85023 34.3114 4.33391 35.61 3.59856C36.095 3.31693 36.361 3.01966 36.361 2.69109C36.361 2.36253 36.095 2.06525 35.61 1.78363C34.7964 1.31425 33.357 0.938749 31.6046 0.735352C34.6869 0.891811 37.2372 1.43942 38.5358 2.17478C39.099 2.48769 39.4276 2.84755 39.4276 3.2387Z" fill="black" fill-opacity="0.1"/>
<path d="M38.5201 19.8547V10.8896C36.9868 11.7657 33.6542 12.3759 29.8054 12.3759C25.9408 12.3759 22.6082 11.7657 21.0906 10.8896V19.8547C20.5117 20.1832 20.1831 20.5431 20.1831 20.9342C20.1831 21.3254 20.5117 21.6852 21.0906 22.0138C22.6239 22.89 25.9565 23.5002 29.8054 23.5002C33.6699 23.5002 37.0025 22.89 38.5201 22.0138C39.099 21.6852 39.4276 21.3254 39.4276 20.9342C39.4276 20.5587 39.099 20.1832 38.5201 19.8547Z" fill="#AFE5E3"/>
<path d="M39.4276 27.5994C39.4276 27.9906 39.099 28.3504 38.5201 28.679C36.9868 29.5552 33.6542 30.1497 29.8054 30.1497C25.9408 30.1497 22.6082 29.5395 21.0906 28.679C20.5117 28.3504 20.1831 27.9906 20.1831 27.5994C20.1831 27.2083 20.5117 26.8484 21.0906 26.5199V22.0138C22.6239 22.89 25.9565 23.5002 29.8054 23.5002C33.6699 23.5002 37.0025 22.89 38.5201 22.0138V26.5199C39.099 26.8484 39.4276 27.2239 39.4276 27.5994Z" fill="#AFE5E3"/>
<path d="M38.5204 12.3759C36.9871 13.2521 33.6545 13.8623 29.8056 13.8623C25.9411 13.8623 22.6085 13.2521 21.0908 12.3759V10.8896C22.6241 11.7657 25.9567 12.3759 29.8056 12.3759C33.6701 12.3759 37.0027 11.7657 38.5204 10.8896V12.3759ZM38.5204 22.0295V23.5158C36.9871 24.392 33.6545 25.0022 29.8056 25.0022C25.9411 25.0022 22.6085 24.392 21.0908 23.5158V22.0295C22.6241 22.9056 25.9567 23.5158 29.8056 23.5158C33.6701 23.5002 37.0027 22.9056 38.5204 22.0295Z" fill="black" fill-opacity="0.1"/>
<path d="M39.4276 9.81002C39.4276 10.2012 39.099 10.561 38.5201 10.8896C36.9868 11.7658 33.6542 12.3759 29.8054 12.3759C25.9408 12.3759 22.6082 11.7658 21.0906 10.8896C20.5117 10.561 20.1831 10.2012 20.1831 9.81002C20.1831 9.41887 20.5117 9.05901 21.0906 8.73045V4.3183C22.6239 5.19447 25.9565 5.80466 29.8054 5.80466C33.6699 5.80466 37.0025 5.19447 38.5201 4.3183V8.73045C39.099 9.05901 39.4276 9.41887 39.4276 9.81002Z" fill="#AFE5E3"/>
<path d="M38.5204 4.3183V5.80466C36.9871 6.68083 33.6545 7.29102 29.8056 7.29102C25.9411 7.29102 22.6085 6.68083 21.0908 5.80466V4.3183C22.6241 5.19447 25.9567 5.80466 29.8056 5.80466C33.6701 5.80466 37.0027 5.19447 38.5204 4.3183Z" fill="black" fill-opacity="0.1"/>
<path d="M29.8052 6.43044C25.925 6.43044 22.4673 5.8359 20.7775 4.86585C19.9639 4.41212 19.5571 3.86451 19.5571 3.23867C19.5571 2.61284 19.9639 2.06523 20.7775 1.6115C22.4673 0.641451 25.925 0.0469055 29.8052 0.0469055C33.6854 0.0469055 37.1432 0.641451 38.8329 1.6115C39.6465 2.06523 40.0533 2.61284 40.0533 3.23867C40.0533 3.86451 39.6465 4.41212 38.8329 4.86585C37.1432 5.8359 33.6854 6.43044 29.8052 6.43044ZM29.8052 1.31423C26.1754 1.31423 22.8741 1.86183 21.3877 2.70671C20.9027 2.97269 20.8088 3.19174 20.8088 3.23867C20.8088 3.28561 20.9183 3.50466 21.3877 3.77064C22.8741 4.61552 26.1754 5.16312 29.8052 5.16312C33.4351 5.16312 36.7364 4.61552 38.2227 3.77064C38.7077 3.50466 38.8016 3.28561 38.8016 3.23867C38.8016 3.19174 38.6921 2.97269 38.2227 2.70671C36.7364 1.86183 33.4351 1.31423 29.8052 1.31423ZM29.8052 24.126C25.925 24.126 22.4673 23.5314 20.7775 22.5614C19.9639 22.1077 19.5571 21.5601 19.5571 20.9342C19.5571 20.4023 19.8544 19.9172 20.4646 19.5104V10.8895C20.4646 10.6705 20.5898 10.4671 20.7775 10.3419C20.9653 10.2324 21.2156 10.2324 21.4033 10.3419C22.8897 11.1868 26.191 11.7344 29.8209 11.7344C33.4507 11.7344 36.752 11.1868 38.2384 10.3419C38.4261 10.2324 38.6764 10.2324 38.8642 10.3419C39.052 10.4514 39.1771 10.6548 39.1771 10.8895V19.5104C39.7717 19.9329 40.0846 20.4023 40.0846 20.9342C40.0846 21.5601 39.6778 22.1077 38.8642 22.5614C37.1431 23.5314 33.6854 24.126 29.8052 24.126ZM21.7163 11.8596V19.8546C21.7163 20.0737 21.5911 20.2927 21.4033 20.4023C20.9183 20.6682 20.8245 20.8873 20.8245 20.9342C20.8245 20.9968 20.934 21.2002 21.4033 21.4662C22.8897 22.3111 26.191 22.8587 29.8209 22.8587C33.4351 22.8587 36.7364 22.3111 38.2384 21.4662C38.7234 21.2002 38.8173 20.9812 38.8173 20.9342C38.8173 20.8716 38.7077 20.6682 38.2384 20.4023C38.0506 20.2927 37.9254 20.0893 37.9254 19.8546V11.8596C36.0636 12.5636 33.0909 12.9861 29.8365 12.9861C26.5352 13.0017 23.5781 12.5793 21.7163 11.8596Z" fill="#254F4D"/>
<path d="M29.8052 30.7912C25.925 30.7912 22.4673 30.1967 20.7775 29.2266C19.9639 28.7729 19.5571 28.2253 19.5571 27.5994C19.5571 27.0675 19.8544 26.5824 20.4646 26.1756V22.0138C20.4646 21.7948 20.5898 21.5914 20.7775 21.4662C20.9653 21.3567 21.2156 21.3567 21.4033 21.4662C22.8897 22.3111 26.191 22.8587 29.8209 22.8587C33.4507 22.8587 36.752 22.3111 38.2384 21.4662C38.4261 21.3567 38.6765 21.3567 38.8642 21.4662C39.052 21.5757 39.1771 21.7791 39.1771 22.0138V26.1756C39.7717 26.5981 40.0846 27.0675 40.0846 27.5994C40.0846 28.2253 39.6778 28.7729 38.8642 29.2266C37.1588 30.1967 33.6854 30.7912 29.8052 30.7912ZM21.7163 22.9995V26.5199C21.7163 26.7389 21.5911 26.9579 21.4033 27.0675C20.9183 27.3334 20.8245 27.5525 20.8245 27.5994C20.8245 27.662 20.934 27.8654 21.4033 28.1314C22.8897 28.9763 26.191 29.5239 29.8209 29.5239C33.4507 29.5239 36.752 28.9763 38.2384 28.1314C38.7234 27.8654 38.8173 27.6464 38.8173 27.5994C38.8173 27.5368 38.7077 27.3334 38.2384 27.0675C38.035 26.9579 37.9254 26.7545 37.9254 26.5199V22.9995C36.0636 23.7036 33.0909 24.126 29.8365 24.126C26.5352 24.126 23.5781 23.7036 21.7163 22.9995ZM29.8052 13.0018C25.925 13.0018 22.4673 12.4072 20.7775 11.4372C19.9639 10.9835 19.5571 10.4358 19.5571 9.81001C19.5571 9.27805 19.8544 8.79302 20.4646 8.38623V4.31829C20.4646 4.09924 20.5898 3.89585 20.7775 3.77068C20.9653 3.66116 21.2156 3.66116 21.4033 3.77068C22.8897 4.61556 26.191 5.16317 29.8209 5.16317C33.4507 5.16317 36.752 4.61556 38.2384 3.77068C38.4261 3.66116 38.6765 3.66116 38.8642 3.77068C39.052 3.8802 39.1771 4.0836 39.1771 4.31829V8.37058C39.7717 8.79302 40.0846 9.2624 40.0846 9.79436C40.0846 10.4202 39.6778 10.9678 38.8642 11.4215C37.1432 12.3916 33.6854 13.0018 29.8052 13.0018ZM21.7163 5.30398V8.73044C21.7163 8.94948 21.5911 9.16852 21.4033 9.27805C20.9183 9.54403 20.8245 9.76307 20.8245 9.81001C20.8245 9.85694 20.934 10.076 21.4033 10.342C22.8897 11.1868 26.191 11.7345 29.8209 11.7345C33.4507 11.7345 36.752 11.1868 38.2384 10.342C38.7234 10.076 38.8173 9.85694 38.8173 9.81001C38.8173 9.76307 38.7077 9.54403 38.2384 9.27805C38.035 9.16852 37.9254 8.96513 37.9254 8.73044V5.30398C36.0636 6.00805 33.0909 6.43049 29.8365 6.43049C26.5352 6.43049 23.5781 6.00805 21.7163 5.30398Z" fill="#254F4D"/>
<path d="M19.87 3.19176C19.87 3.5829 19.5414 3.94276 18.9625 4.27132C17.4292 5.1475 14.0966 5.75769 10.2477 5.75769C6.38319 5.75769 3.05061 5.1475 1.53295 4.27132C0.954053 3.94276 0.625488 3.5829 0.625488 3.19176C0.625488 2.80061 0.954053 2.44075 1.53295 2.11219C3.06625 1.23602 6.39884 0.625824 10.2477 0.625824C14.1123 0.625824 17.4449 1.23602 18.9625 2.11219C19.5414 2.44075 19.87 2.81625 19.87 3.19176Z" fill="#AFE5E3"/>
<path d="M19.87 3.19179C19.87 3.58294 19.5414 3.9428 18.9625 4.27136C17.4292 5.14753 14.0966 5.75773 10.2477 5.75773C6.38319 5.75773 3.05061 5.14753 1.53295 4.27136C0.954053 3.9428 0.625488 3.58294 0.625488 3.19179C0.625488 3.09792 0.641134 3.00404 0.688072 2.91017C0.797593 3.14486 1.03228 3.34825 1.37649 3.55165C2.65946 4.28701 5.46008 4.80332 8.71443 4.80332C11.9531 4.80332 14.7538 4.28701 16.0524 3.55165C16.5374 3.27002 16.8034 2.97275 16.8034 2.64419C16.8034 2.31562 16.5374 2.01835 16.0524 1.73672C15.2388 1.26735 13.7994 0.891843 12.047 0.688446C15.1293 0.844905 17.6796 1.39251 18.9782 2.12787C19.5414 2.44079 19.87 2.81629 19.87 3.19179Z" fill="black" fill-opacity="0.1"/>
<path d="M18.9625 19.8234V10.8426C17.4292 11.7188 14.0966 12.329 10.2477 12.329C6.38319 12.329 3.05061 11.7188 1.53295 10.8426V19.8077C0.954053 20.1363 0.625488 20.4962 0.625488 20.8873C0.625488 21.2785 0.954053 21.6383 1.53295 21.9669C3.06625 22.843 6.39883 23.4532 10.2477 23.4532C14.1123 23.4532 17.4449 22.843 18.9625 21.9669C19.5414 21.6383 19.87 21.2785 19.87 20.8873C19.87 20.5118 19.5414 20.1519 18.9625 19.8234Z" fill="#AFE5E3"/>
<path d="M19.87 27.5681C19.87 27.9593 19.5414 28.3191 18.9625 28.6477C17.4292 29.5239 14.0966 30.1184 10.2477 30.1184C6.38319 30.1184 3.05061 29.5082 1.53295 28.6477C0.954053 28.3191 0.625488 27.9436 0.625488 27.5681C0.625488 27.177 0.954053 26.8171 1.53295 26.4886V21.9825C3.06625 22.8587 6.39884 23.4689 10.2477 23.4689C14.1123 23.4689 17.4449 22.8587 18.9625 21.9825V26.4886C19.5414 26.8015 19.87 27.177 19.87 27.5681Z" fill="#AFE5E3"/>
<path d="M18.9628 12.329C17.4295 13.2052 14.0969 13.8153 10.248 13.8153C6.38344 13.8153 3.05086 13.2052 1.5332 12.329V10.8426C3.0665 11.7188 6.39909 12.329 10.248 12.329C14.1125 12.329 17.4451 11.7188 18.9628 10.8426V12.329ZM18.9628 21.9825V23.4689C17.4295 24.3451 14.0969 24.9552 10.248 24.9552C6.38344 24.9552 3.05086 24.3451 1.5332 23.4689V21.9825C3.0665 22.8587 6.39909 23.4689 10.248 23.4689C14.1125 23.4532 17.4295 22.8587 18.9628 21.9825Z" fill="black" fill-opacity="0.1"/>
<path d="M19.87 9.76305C19.87 10.1542 19.5414 10.5141 18.9625 10.8426C17.4292 11.7188 14.0966 12.329 10.2477 12.329C6.38319 12.329 3.05061 11.7188 1.53295 10.8426C0.954053 10.5141 0.625488 10.1542 0.625488 9.76305C0.625488 9.3719 0.954053 9.01205 1.53295 8.68348V4.27133C3.06625 5.1475 6.39884 5.75769 10.2477 5.75769C14.1123 5.75769 17.4449 5.1475 18.9625 4.27133V8.68348C19.5414 9.01205 19.87 9.3719 19.87 9.76305Z" fill="#AFE5E3"/>
<path d="M18.9628 4.27133V5.75769C17.4295 6.63387 14.0969 7.24406 10.248 7.24406C6.38344 7.24406 3.05086 6.63387 1.5332 5.75769V4.27133C3.0665 5.1475 6.39909 5.75769 10.248 5.75769C14.1125 5.75769 17.4295 5.1475 18.9628 4.27133Z" fill="black" fill-opacity="0.1"/>
<path d="M10.2481 6.38354C6.36789 6.38354 2.91014 5.78899 1.22038 4.81895C0.406794 4.36521 0 3.81761 0 3.19177C0 2.56593 0.406794 2.01832 1.22038 1.56459C2.91014 0.594545 6.36789 0 10.2481 0C14.1283 0 17.586 0.594545 19.2758 1.56459C20.0894 2.01832 20.4962 2.56593 20.4962 3.19177C20.4962 3.81761 20.0894 4.36521 19.2758 4.81895C17.586 5.78899 14.1283 6.38354 10.2481 6.38354ZM10.2481 1.26732C6.61823 1.26732 3.31694 1.81493 1.83057 2.65981C1.3612 2.92579 1.25167 3.14483 1.25167 3.19177C1.25167 3.23871 1.3612 3.45775 1.83057 3.72373C3.31694 4.56861 6.61823 5.11622 10.2481 5.11622C13.8779 5.11622 17.1792 4.56861 18.6656 3.72373C19.1506 3.45775 19.2445 3.23871 19.2445 3.19177C19.2445 3.14483 19.135 2.92579 18.6656 2.65981C17.1636 1.81493 13.8623 1.26732 10.2481 1.26732ZM10.2481 24.0791C6.36789 24.0791 2.91014 23.4845 1.22038 22.5145C0.406794 22.0608 0 21.5131 0 20.903C0 20.371 0.297273 19.886 0.907464 19.4792V10.8426C0.907464 10.6236 1.03263 10.4202 1.22038 10.295C1.40813 10.1855 1.65847 10.1855 1.84622 10.295C3.33258 11.1399 6.63387 11.6875 10.2637 11.6875C13.8936 11.6875 17.1949 11.1399 18.6812 10.295C18.869 10.1855 19.1193 10.1855 19.3071 10.295C19.4948 10.4045 19.62 10.6079 19.62 10.8426V19.4635C20.2145 19.886 20.5275 20.3554 20.5275 20.8873C20.5275 21.5131 20.1207 22.0608 19.3071 22.5145C17.586 23.4845 14.1283 24.0791 10.2481 24.0791ZM2.15914 11.8283V19.8234C2.15914 20.0424 2.03397 20.2615 1.84622 20.371C1.3612 20.637 1.26732 20.856 1.26732 20.903C1.26732 20.9655 1.37684 21.1689 1.84622 21.4349C3.33258 22.2798 6.63387 22.8274 10.2637 22.8274C13.8936 22.8274 17.1949 22.2798 18.6812 21.4349C19.1663 21.1689 19.2601 20.9499 19.2601 20.903C19.2601 20.8404 19.1506 20.637 18.6812 20.371C18.4935 20.2615 18.3683 20.0581 18.3683 19.8234V11.8283C16.5065 12.5324 13.5337 12.9548 10.2794 12.9548C6.97808 12.9548 4.021 12.5324 2.15914 11.8283Z" fill="#254F4D"/>
<path d="M10.2481 30.7443C6.36789 30.7443 2.91014 30.1497 1.22038 29.1797C0.406794 28.7259 0 28.1783 0 27.5525C0 27.0205 0.297273 26.5355 0.907464 26.1287V21.9669C0.907464 21.7479 1.03263 21.5445 1.22038 21.4193C1.40813 21.3098 1.65847 21.3098 1.84622 21.4193C3.33258 22.2642 6.63387 22.8118 10.2637 22.8118C13.8936 22.8118 17.1949 22.2642 18.6812 21.4193C18.869 21.3098 19.1193 21.3098 19.3071 21.4193C19.4948 21.5288 19.62 21.7322 19.62 21.9669V26.1287C20.2145 26.5512 20.5275 27.0205 20.5275 27.5525C20.5275 28.1783 20.1207 28.7259 19.3071 29.1797C17.586 30.1497 14.1283 30.7443 10.2481 30.7443ZM2.15914 22.9526V26.4729C2.15914 26.692 2.03397 26.911 1.84622 27.0205C1.3612 27.2865 1.26732 27.5056 1.26732 27.5525C1.26732 27.6151 1.37684 27.8185 1.84622 28.0845C3.33258 28.9293 6.63387 29.4769 10.2637 29.4769C13.8936 29.4769 17.1949 28.9293 18.6812 28.0845C19.1663 27.8185 19.2601 27.5994 19.2601 27.5525C19.2601 27.4899 19.1506 27.2865 18.6812 27.0205C18.4778 26.911 18.3683 26.7076 18.3683 26.4729V22.9526C16.5065 23.6567 13.5337 24.0791 10.2794 24.0791C6.97808 24.0791 4.021 23.6567 2.15914 22.9526ZM10.2481 12.9548C6.36789 12.9548 2.91014 12.3603 1.22038 11.3902C0.406794 10.9365 0 10.3889 0 9.76307C0 9.23111 0.297273 8.74609 0.907464 8.33929V4.27135C0.907464 4.05231 1.03263 3.84891 1.22038 3.72374C1.40813 3.61422 1.65847 3.61422 1.84622 3.72374C3.33258 4.56862 6.63387 5.11623 10.2637 5.11623C13.8936 5.11623 17.1949 4.56862 18.6812 3.72374C18.869 3.61422 19.1193 3.61422 19.3071 3.72374C19.4948 3.83326 19.62 4.03666 19.62 4.27135V8.32364C20.2145 8.74608 20.5275 9.21546 20.5275 9.74743C20.5275 10.3733 20.1207 10.9209 19.3071 11.3746C17.586 12.3446 14.1283 12.9548 10.2481 12.9548ZM2.15914 5.25704V8.6835C2.15914 8.90254 2.03397 9.12159 1.84622 9.23111C1.3612 9.49709 1.25167 9.70049 1.25167 9.76307C1.25167 9.82565 1.3612 10.0291 1.83057 10.295C3.31694 11.1399 6.61823 11.6875 10.2481 11.6875C13.8779 11.6875 17.1792 11.1399 18.6656 10.295C19.1506 10.0291 19.2445 9.81001 19.2445 9.76307C19.2445 9.71613 19.135 9.49709 18.6656 9.23111C18.4778 9.12159 18.3527 8.91819 18.3527 8.6835V5.25704C16.4908 5.96111 13.5181 6.38355 10.2637 6.38355C6.97808 6.38355 4.021 5.96111 2.15914 5.25704Z" fill="#254F4D"/>
<path d="M29.7272 16.0684V25.0335C30.3061 25.362 30.6346 25.7375 30.6346 26.113C30.6346 26.5042 30.3061 26.8641 29.7272 27.1926V30.6817H12.2976V27.1926C11.7187 26.8641 11.3901 26.5042 11.3901 26.113C11.3901 25.7219 11.7187 25.362 12.2976 25.0335V16.0684C11.7187 15.7398 11.3901 15.3799 11.3901 14.9888C11.3901 14.5976 11.7187 14.2378 12.2976 13.9092V9.51272C11.7187 9.18415 11.3901 8.8243 11.3901 8.43315C11.3901 8.042 11.7187 7.68215 12.2976 7.35358C13.5962 6.61822 16.1778 6.07061 19.2913 5.91416C19.8546 5.88286 20.4335 5.86722 21.0124 5.86722C24.8769 5.86722 28.1939 6.47741 29.7272 7.35358C30.3061 7.68215 30.6346 8.042 30.6346 8.43315C30.6346 8.8243 30.3061 9.18415 29.7272 9.51272V13.9249C30.3061 14.2534 30.6346 14.6133 30.6346 15.0044C30.6346 15.3799 30.3061 15.7398 29.7272 16.0684Z" fill="black" fill-opacity="0.1"/>
<path d="M28.9603 8.4175C28.9603 8.80865 28.6317 9.16851 28.0528 9.49707C26.5195 10.3732 23.187 10.9834 19.3381 10.9834C15.4735 10.9834 12.1409 10.3732 10.6233 9.49707C10.0444 9.16851 9.71582 8.80865 9.71582 8.4175C9.71582 8.32363 9.73147 8.22975 9.7784 8.13588C9.88793 8.37056 10.1226 8.57396 10.4668 8.77736C11.7498 9.51272 14.5504 10.029 17.8048 10.029C21.0435 10.029 23.8441 9.51272 25.1427 8.77736C25.6277 8.49573 25.8937 8.19846 25.8937 7.86989C25.8937 7.54133 25.6277 7.24406 25.1427 6.96243C24.3291 6.49305 22.8897 6.11755 21.1373 5.91415C24.2196 6.07061 26.7699 6.61822 28.0685 7.35358C28.6317 7.6665 28.9603 8.042 28.9603 8.4175Z" fill="black" fill-opacity="0.1"/>
<path d="M28.0531 17.5547C26.5198 18.4309 23.1872 19.0411 19.3383 19.0411C15.4738 19.0411 12.1412 18.4309 10.6235 17.5547V16.0684C12.1568 16.9445 15.4894 17.5547 19.3383 17.5547C23.2029 17.5547 26.5354 16.9445 28.0531 16.0684V17.5547ZM28.0531 27.2083V28.6946C26.5198 29.5708 23.1872 30.181 19.3383 30.181C15.4738 30.181 12.1412 29.5708 10.6235 28.6946V27.2083C12.1568 28.0844 15.4894 28.6946 19.3383 28.6946C23.1872 28.679 26.5198 28.0844 28.0531 27.2083Z" fill="black" fill-opacity="0.1"/>
<path d="M28.0531 9.51276V10.9991C26.5198 11.8753 23.1872 12.4855 19.3383 12.4855C15.4738 12.4855 12.1412 11.8753 10.6235 10.9991V9.51276C12.1568 10.3889 15.4894 10.9991 19.3383 10.9991C23.1872 10.9835 26.5198 10.3733 28.0531 9.51276Z" fill="black" fill-opacity="0.1"/>
<path d="M26.2853 16.0684V25.0335C26.8642 25.3621 27.1928 25.7376 27.1928 26.1131C27.1928 26.5042 26.8642 26.8641 26.2853 27.1926V30.6817H8.84008V27.1926C8.26118 26.8641 7.93262 26.5042 7.93262 26.1131C7.93262 25.7219 8.26118 25.3621 8.84008 25.0335V16.0684C8.26118 15.7398 7.93262 15.38 7.93262 14.9888C7.93262 14.5977 8.26118 14.2378 8.84008 13.9093V9.51275C8.26118 9.18419 7.93262 8.82433 7.93262 8.43318C7.93262 8.04203 8.26118 7.68218 8.84008 7.35361C10.3734 6.47744 13.706 5.86725 17.5549 5.86725C18.1494 5.86725 18.7283 5.88289 19.2759 5.91419C22.3895 6.055 24.971 6.60261 26.2696 7.35361C26.8485 7.68218 27.1771 8.04203 27.1771 8.43318C27.1771 8.82433 26.8485 9.18419 26.2696 9.51275V13.9249C26.8485 14.2535 27.1771 14.6133 27.1771 15.0045C27.1771 15.38 26.8642 15.7398 26.2853 16.0684Z" fill="black" fill-opacity="0.1"/>
<path d="M28.9603 8.41753C28.9603 8.80867 28.6317 9.16853 28.0528 9.49709C26.5195 10.3733 23.187 10.9835 19.3381 10.9835C15.4735 10.9835 12.1409 10.3733 10.6233 9.49709C10.0444 9.16853 9.71582 8.80867 9.71582 8.41753C9.71582 8.02638 10.0444 7.66652 10.6233 7.33796C12.1566 6.46178 15.4892 5.85159 19.3381 5.85159C23.2026 5.85159 26.5352 6.46178 28.0528 7.33796C28.6317 7.66652 28.9603 8.04202 28.9603 8.41753Z" fill="#7ABBBC"/>
<path d="M28.0528 25.0492V16.084C26.5195 16.9602 23.187 17.5704 19.3381 17.5704C15.4735 17.5704 12.1409 16.9602 10.6233 16.084V25.0492C10.0444 25.3777 9.71582 25.7376 9.71582 26.1287C9.71582 26.5199 10.0444 26.8797 10.6233 27.2083C12.1566 28.0845 15.4892 28.6947 19.3381 28.6947C23.2026 28.6947 26.5352 28.0845 28.0528 27.2083C28.6317 26.8797 28.9603 26.5199 28.9603 26.1287C28.9603 25.7376 28.6317 25.3777 28.0528 25.0492Z" fill="#7ABBBC"/>
<path d="M28.9603 32.7939C28.9603 33.1851 28.6317 33.5449 28.0528 33.8735C26.5195 34.7496 23.187 35.3442 19.3381 35.3442C15.4735 35.3442 12.1409 34.734 10.6233 33.8735C10.0444 33.5449 9.71582 33.1851 9.71582 32.7939C9.71582 32.4028 10.0444 32.0429 10.6233 31.7143V27.2083C12.1566 28.0845 15.4892 28.6947 19.3381 28.6947C23.2026 28.6947 26.5352 28.0845 28.0528 27.2083V31.7143C28.6317 32.0429 28.9603 32.4028 28.9603 32.7939Z" fill="#7ABBBC"/>
<path d="M28.9603 14.9888C28.9603 15.38 28.6317 15.7398 28.0528 16.0684C26.5195 16.9446 23.187 17.5548 19.3381 17.5548C15.4735 17.5548 12.1409 16.9446 10.6233 16.0684C10.0444 15.7398 9.71582 15.38 9.71582 14.9888C9.71582 14.5977 10.0444 14.2378 10.6233 13.9093V9.51276C12.1566 10.3889 15.4892 10.9991 19.3381 10.9991C23.2026 10.9991 26.5352 10.3889 28.0528 9.51276V13.9249C28.6317 14.2378 28.9603 14.5977 28.9603 14.9888Z" fill="#7ABBBC"/>
<path d="M19.3384 11.6093C15.4582 11.6093 12.0005 11.0147 10.3107 10.0447C9.49713 9.59095 9.09033 9.04334 9.09033 8.41751C9.09033 7.79167 9.49713 7.24406 10.3107 6.79033C12.0005 5.82028 15.4582 5.22574 19.3384 5.22574C23.2186 5.22574 26.6764 5.82028 28.3661 6.79033C29.1797 7.24406 29.5865 7.79167 29.5865 8.41751C29.5865 9.04334 29.1797 9.59095 28.3661 10.0447C26.6764 11.0147 23.2186 11.6093 19.3384 11.6093ZM19.3384 6.49306C15.7086 6.49306 12.4073 7.04067 10.9209 7.88555C10.4359 8.15153 10.342 8.37057 10.342 8.41751C10.342 8.48009 10.4515 8.68349 10.9209 8.94947C12.4073 9.79435 15.7086 10.342 19.3384 10.342C22.9683 10.342 26.2696 9.79435 27.7559 8.94947C28.2409 8.68349 28.3348 8.46445 28.3348 8.41751C28.3348 8.35492 28.2253 8.15153 27.7559 7.88555C26.2539 7.04067 22.9526 6.49306 19.3384 6.49306ZM19.3384 29.3205C15.4582 29.3205 12.0005 28.7259 10.3107 27.7559C9.51277 27.3021 9.09033 26.7545 9.09033 26.1287C9.09033 25.5967 9.38761 25.1117 9.9978 24.7049V16.084C9.9978 15.865 10.123 15.6616 10.3107 15.5364C10.4985 15.4269 10.7488 15.4269 10.9366 15.5364C12.4229 16.3813 15.7242 16.9289 19.3541 16.9289C22.9839 16.9289 26.2852 16.3813 27.7716 15.5364C27.9593 15.4269 28.2097 15.4269 28.3974 15.5364C28.5852 15.6459 28.7103 15.8493 28.7103 16.084V24.7049C29.3049 25.1274 29.6178 25.5967 29.6178 26.1287C29.6178 26.7545 29.211 27.3021 28.3974 27.7559C26.6764 28.7103 23.2186 29.3205 19.3384 29.3205ZM11.2338 17.0541V25.0491C11.2338 25.2682 11.1087 25.4872 10.9209 25.5967C10.4359 25.8627 10.342 26.0818 10.342 26.1287C10.342 26.1913 10.4515 26.3947 10.9209 26.6607C12.4073 27.5055 15.7086 28.0531 19.3384 28.0531C22.9683 28.0531 26.2696 27.5055 27.7559 26.6607C28.2409 26.3947 28.3348 26.1756 28.3348 26.1287C28.3348 26.0661 28.2253 25.8627 27.7559 25.5967C27.5682 25.4872 27.443 25.2838 27.443 25.0491V17.0541C25.5811 17.7581 22.6084 18.1806 19.3541 18.1806C16.0684 18.1806 13.0957 17.7581 11.2338 17.0541Z" fill="#254F4D"/>
<path d="M19.3384 35.97C15.4582 35.97 12.0005 35.3755 10.3107 34.4054C9.49713 33.9517 9.09033 33.4041 9.09033 32.7782C9.09033 32.2463 9.38761 31.7612 9.9978 31.3545V27.1926C9.9978 26.9736 10.123 26.7702 10.3107 26.645C10.4985 26.5355 10.7488 26.5355 10.9366 26.645C12.4229 27.4899 15.7242 28.0375 19.3541 28.0375C22.9839 28.0375 26.2852 27.4899 27.7716 26.645C27.9593 26.5355 28.2097 26.5355 28.3974 26.645C28.5852 26.7546 28.7103 26.958 28.7103 27.1926V31.3545C29.3049 31.7769 29.6178 32.2463 29.6178 32.7782C29.6178 33.4041 29.211 33.9517 28.3974 34.4054C26.6764 35.3755 23.2186 35.97 19.3384 35.97ZM11.2338 28.1783V31.6987C11.2338 31.9177 11.1087 32.1368 10.9209 32.2463C10.4359 32.5123 10.342 32.7313 10.342 32.7782C10.342 32.8408 10.4515 33.0442 10.9209 33.3102C12.4073 34.1551 15.7086 34.7027 19.3384 34.7027C22.9683 34.7027 26.2696 34.1551 27.7559 33.3102C28.2409 33.0442 28.3348 32.8252 28.3348 32.7782C28.3348 32.7157 28.2253 32.5123 27.7559 32.2463C27.5682 32.1368 27.443 31.9334 27.443 31.6987V28.1783C25.5811 28.8824 22.6084 29.3048 19.3541 29.3048C16.0997 29.3048 13.0957 28.8824 11.2338 28.1783ZM19.3384 18.1806C15.4582 18.1806 12.0005 17.586 10.3107 16.616C9.49713 16.1623 9.09033 15.6147 9.09033 14.9888C9.09033 14.4569 9.38761 13.9718 9.9978 13.565V9.51274C9.9978 9.2937 10.123 9.0903 10.3107 8.96514C10.4985 8.85562 10.7488 8.85562 10.9366 8.96514C12.4229 9.81002 15.7242 10.3576 19.3541 10.3576C22.9839 10.3576 26.2852 9.81002 27.7716 8.96514C27.9593 8.85562 28.2097 8.85562 28.3974 8.96514C28.5852 9.07466 28.7103 9.27806 28.7103 9.51274V13.565C29.3049 13.9875 29.6178 14.4569 29.6178 14.9888C29.6178 15.6147 29.211 16.1623 28.3974 16.616C26.6764 17.586 23.2186 18.1806 19.3384 18.1806ZM11.2338 10.4828V13.9092C11.2338 14.1283 11.1087 14.3473 10.9209 14.4569C10.4359 14.7228 10.342 14.9419 10.342 14.9888C10.342 15.0514 10.4515 15.2548 10.9209 15.5208C12.4073 16.3657 15.7086 16.9133 19.3384 16.9133C22.9683 16.9133 26.2696 16.3657 27.7559 15.5208C28.2409 15.2548 28.3348 15.0358 28.3348 14.9888C28.3348 14.9262 28.2253 14.7228 27.7559 14.4569C27.5525 14.3473 27.443 14.1439 27.443 13.9092V10.4828C25.5811 11.1869 22.6084 11.6093 19.3541 11.6093C16.0997 11.6093 13.0957 11.1869 11.2338 10.4828Z" fill="#254F4D"/>
</svg>
