<svg width="34" height="43" viewBox="0 0 34 43" fill="none" xmlns="http://www.w3.org/2000/svg">
<path d="M32.9902 5.78992L32.9902 5.78995C33.1387 5.83941 33.2678 5.93434 33.3593 6.06128L33.7649 5.76893L33.3593 6.06129C33.4508 6.18823 33.5 6.34074 33.5 6.49722V6.4973V25.5933C33.5 27.7994 32.5718 29.9081 31.1173 31.8565C29.6632 33.8045 27.7059 35.5609 25.7082 37.0498C21.713 40.0277 17.6289 41.883 17.3048 42.0281L17.3046 42.0281C17.2088 42.0711 17.105 42.0933 17 42.0933C16.895 42.0933 16.7912 42.0711 16.6954 42.0281L16.6951 42.028C16.3711 41.883 12.287 40.0277 8.29176 37.0499C6.29412 35.5609 4.33681 33.8045 2.88269 31.8566C1.42824 29.9081 0.5 27.7994 0.5 25.5933V6.49731C0.5 6.4973 0.5 6.4973 0.5 6.4973C0.500005 6.3408 0.549247 6.18828 0.640749 6.06132C0.732253 5.93437 0.861379 5.83942 1.00984 5.78992C1.00984 5.78992 1.00985 5.78992 1.00985 5.78992L16.764 0.538338L16.7642 0.538295C16.9172 0.487235 17.0827 0.487235 17.2357 0.538295L17.2358 0.538339L32.9902 5.78992ZM17 42.5933C17.1755 42.5933 17.349 42.5562 17.5091 42.4844H16.4909C16.651 42.5562 16.8245 42.5933 17 42.5933ZM16.6059 0.0640146L16.6059 0.064031L16.6059 0.0640146Z" fill="#AFE5E3" stroke="#215C6A"/>
<path d="M32.9902 5.78993L32.9903 5.78996C33.1388 5.8394 33.2679 5.93432 33.3593 6.06125C33.4508 6.18817 33.5 6.34067 33.4999 6.49712V6.4973V25.5934C33.4999 27.7995 32.5717 29.9083 31.1172 31.8567C29.6631 33.8046 27.7058 35.561 25.7082 37.0499C22.0302 39.7913 18.277 41.5813 17.4512 41.9616V0.610097L32.9902 5.78993Z" fill="#40AAA9" stroke="#215C6A"/>
<path d="M27.8335 10.6336L27.8336 10.6337C27.9821 10.6831 28.1113 10.7781 28.2028 10.905C28.2943 11.032 28.3435 11.1845 28.3435 11.341V24.187C28.3435 26.7927 26.5512 29.5233 22.7362 32.2849C20.0546 34.226 17.4053 35.4205 17.3049 35.4655L17.3045 35.4656C17.2087 35.5086 17.1049 35.5308 16.9999 35.5308C16.8949 35.5308 16.7911 35.5086 16.6953 35.4656L16.6952 35.4656C16.5943 35.4204 13.9451 34.2259 11.2636 32.285C7.44875 29.5233 5.65625 26.7927 5.65625 24.187V11.341V11.341C5.65625 11.1845 5.70549 11.032 5.79701 10.905C5.88852 10.7781 6.01767 10.6831 6.16615 10.6337L6.16623 10.6336L16.7641 7.10099L16.7642 7.10093C16.9171 7.04989 17.0825 7.04989 17.2354 7.10093L17.2356 7.10099L27.8335 10.6336Z" fill="#96F1F0" stroke="#215C6A"/>
<path d="M27.8337 10.6337L27.8338 10.6337C27.9823 10.6831 28.1114 10.7781 28.2029 10.905C28.2944 11.0319 28.3436 11.1844 28.3436 11.3409V11.341V24.187C28.3436 26.7927 26.5512 29.5233 22.7362 32.2849C20.3822 33.9889 18.053 35.1176 17.4512 35.3983V7.1728L27.8337 10.6337Z" fill="#18948F" stroke="#215C6A"/>
</svg>
