<svg width="28" height="32" viewBox="0 0 28 32" fill="none" xmlns="http://www.w3.org/2000/svg">
<path fill-rule="evenodd" clip-rule="evenodd" d="M27.9991 8.2116C27.9992 8.15032 27.9859 8.08976 27.96 8.03412L27.9583 8.03052L27.9563 8.02625L27.9522 8.01812L27.9519 8.01758C27.934 7.9827 27.9112 7.95047 27.8844 7.92185L27.8831 7.92045L27.878 7.91525L27.8725 7.90978L27.8714 7.90865L27.8671 7.90445L27.866 7.90345C27.8401 7.87899 27.8112 7.85789 27.78 7.84064L21.0001 3.95016L20.9996 3.95089L20.9984 3.95016L14.2185 0.0598031C14.1534 0.0212479 14.0792 0.000610938 14.0034 1.33573e-05C13.9277 -0.000584224 13.8531 0.0188792 13.7874 0.056403L7.02348 3.93749C7.0155 3.94149 7.00758 3.94569 6.99973 3.95016L0.241497 7.82831C0.169098 7.86322 0.108051 7.91769 0.0653439 7.98547C0.0226345 8.05325 -9.53674e-06 8.13162 1.90735e-06 8.2116V23.7865H0.00100899C0.000993729 23.861 0.0206966 23.9342 0.0581398 23.9988C0.095583 24.0633 0.149446 24.1169 0.214329 24.1542L7.00007 28.0478L7.00054 28.047L13.7518 31.9213C13.8243 31.9725 13.9111 32 14 32C14.0889 32 14.1757 31.9725 14.2482 31.9213L20.9765 28.0606C20.9845 28.0566 20.9925 28.0524 21.0003 28.048L27.7585 24.1698C27.8309 24.1349 27.892 24.0805 27.9347 24.0127C27.9774 23.9449 28 23.8665 28 23.7865V8.2116H27.9991Z" fill="#215C6A"/>
<path fill-rule="evenodd" clip-rule="evenodd" d="M0.856715 9.07191L13.5713 16.3677V30.9624L7.42786 27.4372L7.42826 27.4365L0.856715 23.6657V9.07191Z" fill="#8ED1CF"/>
<path fill-rule="evenodd" clip-rule="evenodd" d="M22.1836 11.9171V16.8834L21.1889 16.5663C21.1096 16.5368 21.0233 16.5314 20.9409 16.5508C20.8585 16.5701 20.7837 16.6134 20.726 16.675L19.6099 17.8617V13.3938L22.1836 11.9171Z" fill="#18948F"/>
<path fill-rule="evenodd" clip-rule="evenodd" d="M8.92512 3.94955L21.6426 11.247L19.0671 12.7248L6.35051 5.42784L7.42845 4.80934C7.43596 4.805 7.44321 4.80047 7.45039 4.796L8.92512 3.94955Z" fill="#60CDCC"/>
<path fill-rule="evenodd" clip-rule="evenodd" d="M22.4977 10.7564L9.78029 3.45901L14.0002 1.03754L20.5722 4.80862L20.5718 4.80935L26.7168 8.33541L22.4977 10.7564Z" fill="#AFE5E3"/>
<path fill-rule="evenodd" clip-rule="evenodd" d="M18.7546 13.8856V18.9392C18.7546 19.027 18.7819 19.1127 18.8328 19.1845C18.8837 19.2563 18.9558 19.3107 19.039 19.3402C19.1222 19.3697 19.2126 19.3729 19.2977 19.3494C19.3829 19.3259 19.4586 19.2768 19.5146 19.2088L21.1682 17.451L22.483 17.8701C22.547 17.8905 22.615 17.8956 22.6815 17.8849C22.7479 17.8743 22.8108 17.8482 22.8652 17.8088C22.9195 17.7694 22.9638 17.7178 22.9943 17.6582C23.0248 17.5986 23.0407 17.5327 23.0408 17.4659H23.042V11.4255L27.1436 9.07205V23.6657L20.572 27.4365C20.5646 27.4408 20.5572 27.4454 20.5501 27.4498L14.429 30.9622V16.3677L18.7546 13.8856ZM25.9504 22.701C25.9996 22.6733 26.0427 22.6362 26.0774 22.5919C26.112 22.5475 26.1375 22.4968 26.1523 22.4426C26.1671 22.3884 26.171 22.3319 26.1637 22.2762C26.1563 22.2205 26.138 22.1669 26.1097 22.1183C26.0814 22.0697 26.0437 22.0272 25.9987 21.9932C25.9538 21.9592 25.9025 21.9343 25.8478 21.9202C25.7932 21.906 25.7362 21.9027 25.6803 21.9105C25.6244 21.9183 25.5705 21.937 25.5219 21.9656L22.129 23.9124C22.0321 23.9695 21.9617 24.0623 21.9333 24.1706C21.9048 24.2789 21.9205 24.3941 21.9769 24.491C22.0334 24.5879 22.1261 24.6587 22.2348 24.6881C22.3435 24.7174 22.4595 24.7029 22.5576 24.6477L25.9504 22.701ZM25.9204 20.6052C25.969 20.5772 26.0116 20.54 26.0457 20.4956C26.0798 20.4513 26.1048 20.4007 26.1192 20.3468C26.1336 20.2929 26.1372 20.2367 26.1298 20.1813C26.1224 20.126 26.1041 20.0727 26.0759 20.0244C26.0478 19.9762 26.0103 19.9339 25.9657 19.9C25.9211 19.8661 25.8702 19.8413 25.816 19.8269C25.7617 19.8126 25.7051 19.809 25.6495 19.8164C25.5938 19.8237 25.5402 19.8419 25.4916 19.8699L22.0987 21.8167C22.0018 21.8738 21.9314 21.9665 21.9029 22.0749C21.8744 22.1832 21.8901 22.2984 21.9466 22.3953C22.0031 22.4922 22.0958 22.563 22.2045 22.5923C22.3132 22.6217 22.4292 22.6072 22.5272 22.552L25.9204 20.6052Z" fill="#51CDC8"/>
<path fill-rule="evenodd" clip-rule="evenodd" d="M5.49533 5.91847L18.2119 13.2153L13.9998 15.6324L1.28319 8.33541L5.49533 5.91847Z" fill="#AFE5E3"/>
</svg>
