<svg width="27" height="27" viewBox="0 0 27 27" fill="none" xmlns="http://www.w3.org/2000/svg">
<path d="M7.63259 12.8766H6.88259H7.63259ZM7.63259 14.0186L7.07111 14.5158C7.2064 14.6686 7.39809 14.7596 7.60198 14.768C7.80587 14.7763 8.00435 14.7012 8.15164 14.56L7.63259 14.0186ZM10.1526 12.6415C10.4516 12.3548 10.4616 11.88 10.175 11.581C9.8883 11.282 9.41353 11.272 9.11454 11.5587L10.1526 12.6415ZM6.49507 11.6028C6.22046 11.2928 5.74646 11.264 5.43636 11.5386C5.12626 11.8132 5.0975 12.2872 5.37211 12.5973L6.49507 11.6028ZM17.0778 9.52605C17.3591 9.83011 17.8336 9.84858 18.1376 9.5673C18.4417 9.28602 18.4602 8.81151 18.1789 8.50745L17.0778 9.52605ZM13.3875 6.41675C9.8005 6.41675 6.88259 9.30339 6.88259 12.8766H8.38259C8.38259 10.1429 10.6178 7.91675 13.3875 7.91675V6.41675ZM6.88259 12.8766L6.88259 14.0186L8.38259 14.0186L8.38259 12.8766L6.88259 12.8766ZM8.15164 14.56L10.1526 12.6415L9.11454 11.5587L7.11354 13.4772L8.15164 14.56ZM8.19407 13.5214L6.49507 11.6028L5.37211 12.5973L7.07111 14.5158L8.19407 13.5214ZM18.1789 8.50745C16.9902 7.22251 15.2825 6.41675 13.3875 6.41675V7.91675C14.8492 7.91675 16.1625 8.53665 17.0778 9.52605L18.1789 8.50745Z" fill="#FCEB0D"/>
<path d="M19.0307 12.6482L19.5914 12.1501C19.456 11.9976 19.2642 11.9069 19.0604 11.8988C18.8566 11.8907 18.6583 11.966 18.5112 12.1073L19.0307 12.6482ZM16.5147 14.0247C16.216 14.3116 16.2064 14.7864 16.4933 15.0852C16.7802 15.3839 17.255 15.3935 17.5538 15.1066L16.5147 14.0247ZM20.1736 15.0638C20.4487 15.3734 20.9227 15.4014 21.2324 15.1263C21.542 14.8512 21.57 14.3772 21.2949 14.0675L20.1736 15.0638ZM9.56446 17.1591C9.281 16.8571 8.80637 16.842 8.50433 17.1255C8.2023 17.4089 8.18724 17.8835 8.4707 18.1856L9.56446 17.1591ZM13.2538 20.25C16.8503 20.25 19.7807 17.3661 19.7807 13.7902H18.2807C18.2807 16.5212 16.0384 18.75 13.2538 18.75V20.25ZM19.7807 13.7902V12.6482H18.2807V13.7902H19.7807ZM18.5112 12.1073L16.5147 14.0247L17.5538 15.1066L19.5503 13.1891L18.5112 12.1073ZM18.4701 13.1463L20.1736 15.0638L21.2949 14.0675L19.5914 12.1501L18.4701 13.1463ZM8.4707 18.1856C9.66261 19.4556 11.3659 20.25 13.2538 20.25V18.75C11.7943 18.75 10.4826 18.1374 9.56446 17.1591L8.4707 18.1856Z" fill="#FCEB0D"/>
<path d="M7.16667 2.64998C8.98074 1.6006 11.0869 1 13.3333 1C20.1448 1 25.6667 6.52182 25.6667 13.3333C25.6667 20.1448 20.1448 25.6667 13.3333 25.6667C6.52182 25.6667 1 20.1448 1 13.3333C1 11.0869 1.6006 8.98074 2.64998 7.16667" stroke="#004B5D" stroke-width="1.5" stroke-linecap="round"/>
</svg>
