<svg width="48" height="18" viewBox="0 0 48 18" fill="none" xmlns="http://www.w3.org/2000/svg">
<path d="M13.4797 13.5082C13.4797 15.5834 11.7975 17.2657 9.72223 17.2657C7.64714 17.2657 5.96484 15.5834 5.96484 13.5082C5.96484 11.433 7.64714 9.75073 9.72223 9.75073C11.7975 9.75073 13.4797 11.433 13.4797 13.5082Z" stroke="#0C2D35" stroke-miterlimit="10" stroke-linecap="round" stroke-linejoin="round"/>
<path d="M13.4805 15.0112H35.2737" stroke="#0C2D35" stroke-miterlimit="10" stroke-linecap="round" stroke-linejoin="round"/>
<path d="M10.2541 12.9768L9.19141 14.0396" stroke="#0C2D35" stroke-miterlimit="10" stroke-linecap="round" stroke-linejoin="round"/>
<path d="M42.7883 13.5082C42.7883 15.5834 41.1061 17.2657 39.0308 17.2657C36.9557 17.2657 35.2734 15.5834 35.2734 13.5082C35.2734 11.433 36.9557 9.75073 39.0308 9.75073C41.1061 9.75073 42.7883 11.433 42.7883 13.5082Z" stroke="#0C2D35" stroke-miterlimit="10" stroke-linecap="round" stroke-linejoin="round"/>
<path d="M38.5 12.9768L39.5627 14.0396" stroke="#0C2D35" stroke-miterlimit="10" stroke-linecap="round" stroke-linejoin="round"/>
<path d="M5.96551 14.2597L2.34021 13.2239C1.86915 13.0893 1.45475 12.8049 1.15972 12.4138C0.864688 12.0227 0.705091 11.5461 0.705078 11.0562V6.56858C0.705078 5.81064 1.26953 5.17128 2.02166 5.07725L4.80108 4.72983C6.06913 4.57133 7.301 4.19834 8.44399 3.6268L12.0104 1.84363C13.4713 1.11318 15.0822 0.732905 16.7155 0.732919H23.4108C25.2689 0.732919 27.0882 1.26278 28.6558 2.26025L34.5221 5.99335C34.5221 5.99335 41.3342 5.99335 45.5841 7.96691C46.6365 8.45571 47.2974 9.52358 47.2974 10.6841V13.1789C47.2974 14.3422 46.6245 15.0112 45.7944 15.0112" stroke="#0C2D35" stroke-miterlimit="10" stroke-linecap="round" stroke-linejoin="round"/>
<path d="M14.9831 5.99326H13.5336C12.537 5.99324 11.5813 5.59735 10.8766 4.89267L9.72266 3.73883" stroke="#0C2D35" stroke-miterlimit="10" stroke-linecap="round" stroke-linejoin="round"/>
<path d="M34.521 5.99326H17.9883" stroke="#0C2D35" stroke-miterlimit="10" stroke-linecap="round" stroke-linejoin="round"/>
<path d="M16.4863 12.0053H32.2675" stroke="#0C2D35" stroke-miterlimit="10" stroke-linecap="round" stroke-linejoin="round"/>
<path d="M0.705078 8.24778H2.20803" stroke="#0C2D35" stroke-miterlimit="10" stroke-linecap="round" stroke-linejoin="round"/>
<path d="M45.043 9.75073H46.859" stroke="#0C2D35" stroke-miterlimit="10" stroke-linecap="round" stroke-linejoin="round"/>
<path d="M20.9961 5.99326V0.732826" stroke="#0C2D35" stroke-miterlimit="10" stroke-linecap="round" stroke-linejoin="round"/>
<path d="M12.3535 5.68802L13.3319 1.36647" stroke="#0C2D35" stroke-miterlimit="10" stroke-linecap="round" stroke-linejoin="round"/>
</svg>
