<svg width="22" height="22" viewBox="0 0 22 22" fill="none" xmlns="http://www.w3.org/2000/svg">
<g clip-path="url(#clip0_170_466)">
<path d="M4 7.51464C4 3.9167 7.13401 1 11 1C14.866 1 18 3.9167 18 7.51464C18 11.0844 15.7658 15.2499 12.2801 16.7396C11.4675 17.0868 10.5325 17.0868 9.71993 16.7396C6.23416 15.2499 4 11.0844 4 7.51464Z" stroke="#1E4D58" stroke-width="1.5"/>
<path d="M13 8C13 9.10457 12.1046 10 11 10C9.89543 10 9 9.10457 9 8C9 6.89543 9.89543 6 11 6C12.1046 6 13 6.89543 13 8Z" stroke="#1E4D58" stroke-width="1.5"/>
<path d="M19.9605 14.5C20.6259 15.1025 21 15.7816 21 16.5C21 18.9853 16.5228 21 11 21C5.47715 21 1 18.9853 1 16.5C1 15.7816 1.37412 15.1025 2.03947 14.5" stroke="#1E4D58" stroke-width="1.5" stroke-linecap="round"/>
</g>
<defs>
<clipPath id="clip0_170_466">
<rect width="22" height="22" fill="white"/>
</clipPath>
</defs>
</svg>
