<svg width="43" height="43" viewBox="0 0 43 43" fill="none" xmlns="http://www.w3.org/2000/svg">
<path d="M38.4309 3.15859V39.8414C38.4309 40.3445 38.231 40.827 37.8752 41.1828C37.5195 41.5386 37.0369 41.7384 36.5338 41.7384H6.46542C5.96229 41.7384 5.47976 41.5386 5.124 41.1828C4.76823 40.827 4.56836 40.3445 4.56836 39.8414V8.87507H10.2912C10.7943 8.87507 11.2768 8.6752 11.6326 8.31943C11.9883 7.96366 12.1882 7.48114 12.1882 6.97801V1.26154H36.5338C37.0369 1.26154 37.5195 1.4614 37.8752 1.81717C38.231 2.17294 38.4309 2.65546 38.4309 3.15859Z" fill="#E9EDF4"/>
<path d="M4.56836 8.87507H10.2912C10.7943 8.87507 11.2768 8.6752 11.6326 8.31943C11.9883 7.96366 12.1882 7.48114 12.1882 6.97801V1.26154L4.56836 8.87507Z" fill="#D2DBEA"/>
<path d="M40.4705 24.7806V33.583C40.4705 34.0861 40.2706 34.5686 39.9148 34.9244C39.5591 35.2802 39.0765 35.48 38.5734 35.48H4.42636C3.92322 35.48 3.4407 35.2802 3.08493 34.9244C2.72917 34.5686 2.5293 34.0861 2.5293 33.583V24.7806C2.5293 24.2775 2.72917 23.795 3.08493 23.4392C3.4407 23.0834 3.92322 22.8836 4.42636 22.8836H38.5734C39.0765 22.8836 39.5591 23.0834 39.9148 23.4392C40.2706 23.795 40.4705 24.2775 40.4705 24.7806Z" fill="#F14F4A"/>
<path d="M33.22 14.226C33.22 14.6801 32.8583 15.0418 32.4043 15.0418H10.597C10.3806 15.0418 10.1732 14.9558 10.0202 14.8029C9.86719 14.6499 9.78125 14.4424 9.78125 14.226C9.78125 14.0097 9.86719 13.8022 10.0202 13.6492C10.1732 13.4963 10.3806 13.4103 10.597 13.4103H32.4043C32.8583 13.4103 33.22 13.772 33.22 14.226ZM33.22 18.4059C33.22 18.8599 32.8583 19.2216 32.4043 19.2216H10.597C10.3806 19.2216 10.1732 19.1357 10.0202 18.9827C9.86719 18.8297 9.78125 18.6222 9.78125 18.4059C9.78125 18.1895 9.86719 17.9821 10.0202 17.8291C10.1732 17.6761 10.3806 17.5902 10.597 17.5902H32.4043C32.8583 17.5902 33.22 17.9525 33.22 18.4059Z" fill="#D2DBEA"/>
<path d="M13.4551 32.1912C13.4174 32.1542 13.3878 32.1098 13.368 32.0609C13.3482 32.0119 13.3387 31.9594 13.34 31.9066V26.469C13.34 26.3571 13.3779 26.2604 13.4551 26.1807C13.4914 26.1418 13.5355 26.1109 13.5845 26.0902C13.6335 26.0695 13.6864 26.0594 13.7396 26.0605H15.765C16.3278 26.0605 16.7869 26.1554 17.1417 26.3451C17.4977 26.5348 17.7519 26.7776 17.9068 27.0736C18.0598 27.3695 18.1376 27.6895 18.1376 28.0328C18.1376 28.3762 18.0598 28.6968 17.9062 28.9928C17.7519 29.2887 17.4977 29.5315 17.1417 29.7212C16.7869 29.9109 16.3272 30.0058 15.765 30.0058H14.1481V31.9066C14.1492 31.9598 14.139 32.0127 14.1183 32.0617C14.0976 32.1107 14.0668 32.1548 14.028 32.1912C13.9483 32.2677 13.8515 32.3063 13.739 32.3063C13.6264 32.3063 13.5316 32.2683 13.4551 32.1912ZM15.6854 29.2413C16.2893 29.2413 16.7142 29.1256 16.9596 28.8947C17.2055 28.6639 17.3282 28.3762 17.3282 28.0328C17.3282 27.6895 17.2055 27.4018 16.9596 27.171C16.7142 26.9401 16.2893 26.8244 15.6854 26.8244H14.1481V29.2413H15.6854Z" fill="white"/>
<path d="M13.7388 32.4651C13.6654 32.4659 13.5926 32.4519 13.5247 32.424C13.4568 32.3961 13.3952 32.3548 13.3436 32.3025C13.2911 32.2511 13.2496 32.1894 13.2218 32.1213C13.1939 32.0533 13.1803 31.9802 13.1817 31.9067V26.4691C13.1817 26.3148 13.2355 26.1807 13.3417 26.0707C13.3927 26.0168 13.4544 25.974 13.5227 25.9451C13.591 25.9161 13.6646 25.9016 13.7388 25.9025H15.7649C16.3511 25.9025 16.8393 26.0043 17.2162 26.2054C17.5981 26.409 17.877 26.6765 18.0464 27.0003C18.2108 27.3183 18.2956 27.6655 18.2956 28.0329C18.2956 28.4003 18.2115 28.7475 18.0464 29.0655C17.8776 29.3893 17.5981 29.6568 17.2162 29.861C16.8399 30.0615 16.3517 30.1633 15.7649 30.1633H14.3061V31.9067C14.307 31.9811 14.2925 32.0549 14.2635 32.1234C14.2346 32.192 14.1918 32.2538 14.1379 32.3051C14.0852 32.3565 14.0229 32.3971 13.9545 32.4244C13.8862 32.4518 13.8131 32.4654 13.7395 32.4644L13.7388 32.4651ZM13.7388 26.2187C13.7071 26.2177 13.6755 26.2235 13.6463 26.2359C13.617 26.2482 13.5908 26.2667 13.5694 26.2901C13.5459 26.3136 13.5275 26.3415 13.5152 26.3723C13.503 26.403 13.4971 26.436 13.4979 26.4691V31.9067C13.4979 31.9775 13.5194 32.0325 13.5668 32.0787C13.6617 32.1735 13.8179 32.1742 13.9191 32.0768C13.9424 32.0551 13.9608 32.0286 13.973 31.9991C13.9853 31.9697 13.991 31.9379 13.9899 31.9061V29.8471H15.7649C16.2992 29.8471 16.7375 29.758 17.0676 29.5815C17.3926 29.4083 17.6272 29.1857 17.7663 28.9195C17.9073 28.6475 17.9794 28.3491 17.9794 28.0329C17.9794 27.7167 17.9073 27.4189 17.7663 27.1463C17.6272 26.8808 17.3919 26.6575 17.0676 26.4843C16.7368 26.3078 16.2986 26.2187 15.7649 26.2187H13.7388ZM15.6852 29.3994H13.9899V26.6664H15.6846C16.3359 26.6664 16.7893 26.7935 17.0676 27.0559C17.3458 27.3171 17.4862 27.6459 17.4862 28.0329C17.4862 28.4199 17.3458 28.7487 17.0676 29.0099C16.7893 29.2723 16.3366 29.3994 15.6852 29.3994ZM14.3061 29.0832H15.6846C16.2442 29.0832 16.6369 28.9808 16.8513 28.7797C17.0663 28.5774 17.17 28.3339 17.17 28.0329C17.17 27.7319 17.0657 27.4878 16.8513 27.2867C16.6369 27.0844 16.2442 26.9832 15.6852 26.9832H14.3061V29.0832ZM19.4256 32.1464C19.3878 32.1094 19.3581 32.065 19.3382 32.0161C19.3183 31.9671 19.3086 31.9146 19.3099 31.8618V26.4691C19.3099 26.3572 19.3478 26.2604 19.4256 26.1807C19.4618 26.1419 19.5058 26.1111 19.5548 26.0904C19.6037 26.0697 19.6564 26.0596 19.7095 26.0606H21.4953C22.17 26.0606 22.7436 26.2105 23.2147 26.5096C23.6688 26.7905 24.0363 27.1917 24.2764 27.6687C24.5129 28.1429 24.6311 28.64 24.6311 29.161C24.6311 29.6821 24.5129 30.1797 24.2764 30.654C24.0361 31.1311 23.6684 31.5322 23.214 31.8131C22.7436 32.1128 22.1706 32.2621 21.4953 32.2621H19.7102C19.6573 32.2633 19.6048 32.2537 19.5559 32.2338C19.5069 32.2139 19.4626 32.1841 19.4256 32.1464ZM21.3979 31.507C21.8829 31.507 22.3091 31.4078 22.6765 31.2092C23.0339 31.0207 23.3299 30.7339 23.5296 30.3827C23.7307 30.0305 23.8318 29.6239 23.8318 29.1616C23.8318 28.6994 23.7307 28.2922 23.5296 27.9399C23.3297 27.5888 23.0338 27.3021 22.6765 27.1135C22.3098 26.9149 21.8829 26.8163 21.3979 26.8163H20.118V31.507H21.3979Z" fill="white"/>
<path d="M21.4953 32.4201H19.7102C19.6367 32.4211 19.5638 32.4073 19.4958 32.3795C19.4278 32.3516 19.3661 32.3104 19.3143 32.2582C19.2618 32.2068 19.2203 32.1451 19.1925 32.077C19.1646 32.009 19.151 31.9359 19.1524 31.8624V26.469C19.1524 26.3147 19.2062 26.1807 19.3124 26.0707C19.3635 26.0167 19.4252 25.9739 19.4937 25.9449C19.5621 25.916 19.6359 25.9015 19.7102 25.9024H21.4959C22.1985 25.9024 22.8049 26.0618 23.3 26.3761C23.7779 26.6728 24.1648 27.0955 24.418 27.5978C24.6623 28.0828 24.7895 28.6183 24.7895 29.1613C24.7895 29.7043 24.6623 30.2398 24.418 30.7248C24.1648 31.227 23.7779 31.6498 23.3 31.9465C22.8049 32.2608 22.1979 32.4201 21.4953 32.4201ZM19.7095 26.2186C19.6777 26.2175 19.646 26.2233 19.6166 26.2357C19.5873 26.248 19.5609 26.2666 19.5394 26.2901C19.516 26.3135 19.4976 26.3414 19.4853 26.3722C19.473 26.403 19.4671 26.4359 19.468 26.469V31.8624C19.468 31.9326 19.4895 31.9876 19.5375 32.0344C19.5598 32.0572 19.5866 32.0758 19.6163 32.0877C19.6459 32.0995 19.6777 32.1051 19.7095 32.1039H21.4953C22.1372 32.1039 22.6867 31.961 23.1299 31.6803C23.5594 31.4139 23.9071 31.0343 24.1348 30.5831C24.3573 30.1422 24.4733 29.6552 24.4733 29.1613C24.4733 28.6674 24.3573 28.1804 24.1348 27.7394C23.907 27.2885 23.5593 26.9091 23.1299 26.6429C22.6867 26.3615 22.1372 26.2193 21.4953 26.2193H19.7102L19.7095 26.2186ZM21.3979 31.6651H19.96V26.6575H21.3979C21.9063 26.6575 22.3623 26.7643 22.7518 26.9737C23.1439 27.1861 23.4518 27.4846 23.6668 27.8608C23.8818 28.2371 23.9899 28.6747 23.9899 29.1616C23.9899 29.6485 23.8818 30.0861 23.6668 30.4611C23.4522 30.8377 23.1348 31.1454 22.7518 31.3483C22.3629 31.5582 21.907 31.6651 21.3979 31.6651ZM20.2761 31.3489H21.3979C21.8539 31.3489 22.2592 31.2547 22.6013 31.0707C22.9402 30.8873 23.2065 30.6293 23.3924 30.3043C23.5789 29.9773 23.6738 29.5929 23.6738 29.1616C23.6738 28.7303 23.5789 28.3459 23.3924 28.0183C23.2065 27.6935 22.9325 27.428 22.6019 27.2525C22.2586 27.0679 21.8539 26.9743 21.3979 26.9743H20.2761V31.3489ZM26.0976 32.1912C26.0599 32.1542 26.0303 32.1098 26.0105 32.0609C25.9907 32.0119 25.9812 31.9594 25.9825 31.9066V26.469C25.9825 26.3571 26.0204 26.2604 26.0976 26.1807C26.1339 26.1418 26.178 26.1109 26.227 26.0902C26.2761 26.0695 26.3289 26.0594 26.3821 26.0605H29.8379C29.9442 26.0605 30.0346 26.0978 30.1086 26.1718C30.1826 26.2458 30.2199 26.3362 30.2199 26.4425C30.2199 26.5487 30.1826 26.6385 30.1086 26.7093C30.0346 26.7802 29.9442 26.8156 29.8379 26.8156H26.7906V28.779H29.5268C29.6343 28.779 29.7241 28.817 29.7981 28.8903C29.8721 28.9643 29.9094 29.0547 29.9094 29.1616C29.9094 29.2678 29.8721 29.357 29.7981 29.4278C29.7241 29.4986 29.6337 29.5341 29.5268 29.5341H26.7906V31.9066C26.7917 31.9598 26.7815 32.0127 26.7608 32.0617C26.7401 32.1107 26.7094 32.1548 26.6705 32.1912C26.5908 32.2677 26.4941 32.3063 26.3821 32.3063C26.2702 32.3063 26.1747 32.2683 26.0976 32.1912Z" fill="white"/>
<path d="M26.3814 32.465C26.308 32.4658 26.2352 32.4519 26.1673 32.4239C26.0994 32.396 26.0378 32.3547 25.9862 32.3025C25.9337 32.251 25.8922 32.1894 25.8644 32.1213C25.8365 32.0532 25.8229 31.9802 25.8243 31.9066V26.469C25.8243 26.3147 25.8781 26.1807 25.9843 26.0706C26.0354 26.0167 26.0971 25.9738 26.1656 25.9449C26.234 25.9159 26.3077 25.9015 26.3821 25.9024H29.8379C29.9089 25.9013 29.9795 25.9146 30.0452 25.9416C30.111 25.9685 30.1706 26.0086 30.2204 26.0593C30.271 26.1093 30.311 26.1691 30.3381 26.2349C30.3651 26.3007 30.3787 26.3713 30.3779 26.4425C30.3777 26.5129 30.3636 26.5827 30.3363 26.6476C30.309 26.7126 30.2691 26.7714 30.2188 26.8208C30.1686 26.8703 30.1091 26.9092 30.0437 26.9354C29.9783 26.9617 29.9083 26.9746 29.8379 26.9736H26.9486V28.6209H29.5267C29.598 28.6198 29.6687 28.6332 29.7345 28.6602C29.8004 28.6873 29.8601 28.7275 29.91 28.7784C29.9608 28.8282 30.001 28.8879 30.0281 28.9538C30.0552 29.0197 30.0685 29.0904 30.0674 29.1616C30.0684 29.2326 30.0547 29.3031 30.0272 29.3686C29.9996 29.4341 29.9589 29.4932 29.9074 29.5423C29.857 29.5911 29.7974 29.6295 29.7321 29.6552C29.6667 29.6809 29.5969 29.6935 29.5267 29.6921H26.9486V31.9066C26.9496 31.981 26.9352 32.0547 26.9064 32.1233C26.8776 32.1918 26.8349 32.2537 26.7811 32.305C26.7283 32.3566 26.6659 32.3972 26.5975 32.4245C26.529 32.4519 26.4558 32.4654 26.3821 32.4644L26.3814 32.465ZM26.3814 26.2186C26.3497 26.2176 26.3181 26.2235 26.2889 26.2358C26.2596 26.2481 26.2334 26.2666 26.212 26.2901C26.1885 26.3135 26.1701 26.3414 26.1578 26.3722C26.1455 26.403 26.1396 26.4359 26.1405 26.469V31.9066C26.1405 31.9775 26.162 32.0325 26.2101 32.0786C26.3049 32.1735 26.4605 32.1741 26.5616 32.0767C26.585 32.055 26.6034 32.0285 26.6156 31.9991C26.6278 31.9696 26.6336 31.9379 26.6325 31.906V29.3766H29.5267C29.5566 29.3777 29.5864 29.3726 29.6142 29.3617C29.6421 29.3509 29.6674 29.3344 29.6886 29.3134C29.7093 29.294 29.7257 29.2705 29.7365 29.2443C29.7473 29.2181 29.7523 29.1899 29.7512 29.1616C29.7512 29.0971 29.731 29.0465 29.6861 29.0022C29.6412 28.958 29.5912 28.9371 29.5267 28.9371H26.6325V26.6575H29.8385C29.8681 26.6585 29.8976 26.6535 29.9253 26.6427C29.9529 26.6319 29.978 26.6157 29.9991 26.5949C30.0198 26.5755 30.0361 26.552 30.0469 26.5258C30.0578 26.4996 30.0628 26.4714 30.0617 26.4431C30.0627 26.4134 30.0575 26.3837 30.0463 26.3561C30.035 26.3286 30.0181 26.3037 29.9966 26.2831C29.9761 26.262 29.9515 26.2454 29.9243 26.2343C29.8971 26.2232 29.8679 26.2178 29.8385 26.2186H26.3814Z" fill="white"/>
</svg>
