<svg width="27" height="27" viewBox="0 0 27 27" fill="none" xmlns="http://www.w3.org/2000/svg">
<path d="M26.1315 19.4346C26.0838 19.395 20.6937 15.5376 19.2312 15.7905C18.5283 15.9147 18.126 16.3935 17.3205 17.3538C17.0978 17.6209 16.8701 17.8837 16.6374 18.1422C16.1283 17.9763 15.6317 17.7742 15.1515 17.5374C12.6725 16.3305 10.6695 14.3275 9.4626 11.8485C9.22578 11.3683 9.02366 10.8717 8.8578 10.3626C9.1224 10.1205 9.4932 9.8082 9.6516 9.675C10.6065 8.874 11.0853 8.4717 11.2095 7.7679C11.4642 6.3108 7.605 0.9162 7.5654 0.8676C7.38965 0.618351 7.16075 0.411232 6.89523 0.261195C6.62971 0.111158 6.33419 0.0219466 6.03 0C4.4658 0 0 5.7924 0 6.7689C0 6.8256 0.0819001 12.5892 7.1892 19.8189C14.4108 26.9181 20.1744 27 20.2311 27C21.2076 27 27 22.5342 27 20.97C26.9781 20.6657 26.8888 20.3701 26.7386 20.1045C26.5884 19.839 26.381 19.6102 26.1315 19.4346ZM20.1321 25.1946C19.3455 25.1298 14.5089 24.4917 8.4618 18.5508C2.4903 12.4713 1.8684 7.6212 1.8063 6.8697C2.986 5.01808 4.41071 3.33452 6.0417 1.8648C6.0777 1.9008 6.1254 1.9548 6.1866 2.025C7.43744 3.73251 8.51497 5.56044 9.4032 7.4817C9.11435 7.77229 8.80905 8.04604 8.4888 8.3016C7.99217 8.68001 7.53613 9.1089 7.128 9.5814L6.9093 9.8874L6.9741 10.2573C7.16457 11.0824 7.45628 11.8807 7.8426 12.6342C9.2267 15.4764 11.5234 17.7728 14.3658 19.1565C15.1191 19.5434 15.9175 19.8354 16.7427 20.0259L17.1126 20.0907L17.4186 19.872C17.8929 19.4621 18.3236 19.0042 18.7038 18.5058C18.9855 18.1692 19.3626 17.7201 19.5048 17.5932C21.4315 18.4806 23.2641 19.5594 24.975 20.8134C25.0497 20.8764 25.1019 20.925 25.137 20.9565C23.6675 22.588 21.9839 24.013 20.1321 25.1928V25.1946Z" fill="#215C6A"/>
<g clip-path="url(#clip0_797_2734)">
<path d="M14.5027 0.829549C14.5899 0.291002 15.0991 -0.0743277 15.6377 0.0128608C15.671 0.0192419 15.7783 0.0392886 15.8345 0.0518045C15.9469 0.0768335 16.1037 0.115369 16.2992 0.172302C16.6901 0.286156 17.2362 0.473716 17.8917 0.774194C19.2041 1.37578 20.9505 2.42815 22.7628 4.24022C24.5751 6.05228 25.6276 7.7985 26.2292 9.1107C26.5298 9.76611 26.7173 10.3122 26.8312 10.7031C26.8882 10.8985 26.9267 11.0553 26.9517 11.1677C26.9642 11.2239 26.9734 11.269 26.9798 11.3023L26.9873 11.3434C27.0745 11.882 26.7125 12.4121 26.1739 12.4993C25.6368 12.5863 25.1309 12.2227 25.0415 11.6867C25.0388 11.6723 25.0312 11.6336 25.0231 11.5972C25.0068 11.5242 24.9787 11.4085 24.9342 11.2556C24.845 10.9495 24.6902 10.4947 24.4331 9.93405C23.9196 8.81412 22.9962 7.2676 21.3656 5.63721C19.7351 4.00682 18.1883 3.08354 17.0683 2.5701C16.5075 2.31306 16.0527 2.15826 15.7466 2.06913C15.5936 2.02457 15.4013 1.98043 15.3283 1.96418C14.7922 1.87485 14.4157 1.36656 14.5027 0.829549Z" fill="#26AAAB"/>
<path fill-rule="evenodd" clip-rule="evenodd" d="M14.8 5.37285C14.9499 4.84828 15.4967 4.54453 16.0213 4.69441L15.7499 5.64422C16.0213 4.69441 16.0208 4.69427 16.0213 4.69441L16.0232 4.69495L16.0252 4.69554L16.0296 4.69682L16.0398 4.69987L16.0659 4.70798C16.0858 4.71433 16.1106 4.72261 16.1401 4.7331C16.1993 4.75409 16.2775 4.78394 16.3734 4.82504C16.5653 4.90727 16.8275 5.03427 17.1496 5.22487C17.7943 5.60641 18.6745 6.24017 19.7085 7.27405C20.7425 8.30794 21.3764 9.188 21.758 9.83268C21.9486 10.1547 22.0756 10.4169 22.1578 10.6088C22.1989 10.7047 22.2288 10.7829 22.2498 10.842C22.2603 10.8716 22.2686 10.8964 22.2749 10.9162L22.283 10.9423L22.2861 10.9525L22.2874 10.9569L22.2879 10.9589C22.2881 10.9594 22.2885 10.9608 21.3386 11.2322L22.2885 10.9608C22.4384 11.4854 22.1346 12.0321 21.61 12.182C21.0898 12.3306 20.5478 12.0333 20.3925 11.5169L20.3877 11.5027C20.3806 11.4829 20.3661 11.4439 20.3417 11.387C20.293 11.2733 20.2046 11.0873 20.0576 10.8389C19.7639 10.3427 19.2334 9.59295 18.3114 8.67104C17.3893 7.74914 16.6395 7.21874 16.1432 6.92506C15.8948 6.77805 15.7088 6.68968 15.595 6.64095C15.5381 6.61656 15.4992 6.60203 15.4794 6.595L15.4652 6.59014C14.9487 6.43488 14.6513 5.89296 14.8 5.37285Z" fill="#26AAAB"/>
</g>
<defs>
<clipPath id="clip0_797_2734">
<rect width="27" height="27" fill="white"/>
</clipPath>
</defs>
</svg>
