<svg width="113" height="161" viewBox="0 0 113 161" fill="none" xmlns="http://www.w3.org/2000/svg">
<path d="M93.5847 59.2741C92.0092 63.3617 82.7534 65.5971 79.9942 65.6057C67.7847 76.6195 52.7902 98.1813 39.6771 114.603C26.9072 129.785 21.6345 146.402 25.1601 154.114C25.1601 154.114 35.1479 145.069 55.6667 150.369C69.8606 117.156 112.025 89.337 93.5847 59.2741Z" fill="url(#paint0_linear_1005_444)"/>
<path d="M29.4662 124.285C66.0975 101.929 79.9797 58.3767 73.0257 19.2007C73.0257 19.2007 64.9538 29.7772 55.4693 26.1841C39.92 48.6091 -5.57819 98.6988 4.6612 125.58C4.6612 125.58 15.6983 116.699 29.4662 124.285Z" fill="url(#paint1_linear_1005_444)"/>
<path d="M11.0694 69.7277C-1.7806 87.2361 -2.78137 108.24 4.66441 125.58C10.5633 65.6486 70.6099 73.1979 62.252 0C45.9851 36.1144 28.1284 46.4851 11.0694 69.7277Z" fill="url(#paint2_linear_1005_444)"/>
<path d="M102.984 73.238L93.5566 58.8568C94.869 78.5662 92.2213 96.8264 79.9174 112.3C63.9421 132.386 49.4166 131.077 41.6562 159.331C46.054 160.414 50.7004 161 55.5585 161C100.648 161 127.7 110.936 102.984 73.238Z" fill="url(#paint3_linear_1005_444)"/>
<path d="M45.1916 42.9833C38.1204 53.6227 29.2678 62.9415 21.4103 73.012C13.5527 83.0825 6.54728 94.2536 4.06821 106.782C2.91017 112.642 3.11319 119.5 4.66296 125.58C11.7542 63.8648 70.557 73.072 62.2506 0.0056076C59.6571 15.2643 53.744 30.1229 45.1916 42.9833Z" fill="url(#paint4_linear_1005_444)"/>
<path d="M102.984 73.238L93.5566 58.8568C93.5652 58.9969 93.5737 59.1341 93.5823 59.2741C99.9187 69.8764 102.629 83.5715 101.014 95.6058C97.2652 123.525 74.8821 145.993 49.8512 156.809C47.2349 157.939 44.4727 158.759 41.6562 159.331C46.054 160.417 50.7004 161 55.5585 161H55.5613C100.648 161 127.7 110.936 102.984 73.238Z" fill="url(#paint5_linear_1005_444)"/>
<path d="M74.3315 21.6162L73.0276 19.2007C70.9918 32.3413 68.893 54.5177 41.6032 81.9708C29.8684 94.9827 5.18636 126.515 25.159 154.114C34.492 111.082 115.423 111.791 74.3315 21.6162Z" fill="url(#paint6_linear_1005_444)"/>
<path d="M74.3347 21.6162L73.0308 19.2007C85.3404 107.863 15.143 100.797 25.1622 154.114C34.3551 111.362 114.898 111.596 74.3347 21.6162Z" fill="url(#paint7_linear_1005_444)"/>
<path d="M21.4095 73.0122C13.552 83.0798 6.54938 94.2509 4.07031 106.78V106.783C10.4496 81.4162 32.1607 64.6825 45.1937 42.9864C38.1225 53.6229 29.267 62.9416 21.4095 73.0122Z" fill="url(#paint8_linear_1005_444)"/>
<path d="M26.6875 130.045C37.23 105.436 59.9877 102.455 70.919 65.437C61.8806 95.4056 34.688 107.08 26.6875 130.045Z" fill="url(#paint9_linear_1005_444)"/>
<path d="M69.6715 145.29C69.6544 145.307 69.6372 145.321 69.6172 145.335C86.416 134.324 99.5576 116.001 101.019 95.6058C98.3052 115.804 85.8384 133.147 69.6715 145.29Z" fill="url(#paint10_linear_1005_444)"/>
<defs>
<linearGradient id="paint0_linear_1005_444" x1="24.0883" y1="106.693" x2="98.1734" y2="106.693" gradientUnits="userSpaceOnUse">
<stop stop-color="#0C2D35"/>
<stop offset="1" stop-color="#18948F"/>
</linearGradient>
<linearGradient id="paint1_linear_1005_444" x1="3.17433" y1="72.3891" x2="74.7585" y2="72.3891" gradientUnits="userSpaceOnUse">
<stop stop-color="#0C2D35"/>
<stop offset="1" stop-color="#18948F"/>
</linearGradient>
<linearGradient id="paint2_linear_1005_444" x1="0" y1="62.7918" x2="63.0484" y2="62.7918" gradientUnits="userSpaceOnUse">
<stop stop-color="#EB6320"/>
<stop offset="0.501961" stop-color="#FAB909"/>
<stop offset="1" stop-color="#FCEB0D"/>
</linearGradient>
<linearGradient id="paint3_linear_1005_444" x1="41.6563" y1="109.93" x2="112.357" y2="109.93" gradientUnits="userSpaceOnUse">
<stop stop-color="#EB6320"/>
<stop offset="0.501961" stop-color="#FAB909"/>
<stop offset="1" stop-color="#FCEB0D"/>
</linearGradient>
<linearGradient id="paint4_linear_1005_444" x1="6.08978" y1="61.3464" x2="60.4948" y2="64.2238" gradientUnits="userSpaceOnUse">
<stop stop-color="#FCEB0D"/>
<stop offset="0.560784" stop-color="#ED6E24"/>
<stop offset="1" stop-color="#FECD14"/>
</linearGradient>
<linearGradient id="paint5_linear_1005_444" x1="41.6563" y1="109.93" x2="112.357" y2="109.93" gradientUnits="userSpaceOnUse">
<stop stop-color="#FCEB0D"/>
<stop offset="0.301961" stop-color="#F8B034"/>
<stop offset="0.501961" stop-color="#F7A826"/>
<stop offset="0.690196" stop-color="#FBBF28"/>
<stop offset="1" stop-color="#FECD14"/>
</linearGradient>
<linearGradient id="paint6_linear_1005_444" x1="17.6133" y1="86.6592" x2="85.8928" y2="86.6592" gradientUnits="userSpaceOnUse">
<stop stop-color="#EB6320"/>
<stop offset="0.501961" stop-color="#FAB909"/>
<stop offset="1" stop-color="#FCEB0D"/>
</linearGradient>
<linearGradient id="paint7_linear_1005_444" x1="50.5276" y1="156.301" x2="62.427" y2="18.2854" gradientUnits="userSpaceOnUse">
<stop stop-color="#FCEB0D"/>
<stop offset="0.501961" stop-color="#F8B027"/>
<stop offset="1" stop-color="#FECD14"/>
</linearGradient>
<linearGradient id="paint8_linear_1005_444" x1="4.07031" y1="74.8863" x2="45.1937" y2="74.8863" gradientUnits="userSpaceOnUse">
<stop stop-color="#FEFEFE"/>
<stop offset="0.490196" stop-color="#FEFEFE"/>
<stop offset="1" stop-color="#FEFEFE"/>
</linearGradient>
<linearGradient id="paint9_linear_1005_444" x1="26.6875" y1="97.7429" x2="70.919" y2="97.7429" gradientUnits="userSpaceOnUse">
<stop stop-color="#FEFEFE"/>
<stop offset="0.490196" stop-color="#FEFEFE"/>
<stop offset="1" stop-color="#FEFEFE"/>
</linearGradient>
<linearGradient id="paint10_linear_1005_444" x1="69.6172" y1="120.472" x2="101.019" y2="120.472" gradientUnits="userSpaceOnUse">
<stop stop-color="#FEFEFE"/>
<stop offset="0.490196" stop-color="#FEFEFE"/>
<stop offset="1" stop-color="#FEFEFE"/>
</linearGradient>
</defs>
</svg>
