<svg width="41" height="30" viewBox="0 0 41 30" fill="none" xmlns="http://www.w3.org/2000/svg">
<mask id="mask0_797_2767" style="mask-type:alpha" maskUnits="userSpaceOnUse" x="0" y="0" width="41" height="30">
<path d="M32.4583 11.5571V3.29014C32.4583 1.47561 30.926 0 29.0416 0H3.41661C1.53229 0 0 1.47554 0 3.29014V19.7408C0 21.5553 1.53229 23.0309 3.41669 23.0309H22.5726C23.6918 26.8227 27.3125 29.6111 31.6042 29.6111C33.2558 29.6111 34.8799 29.1926 36.3029 28.3998C36.7109 28.1725 36.851 27.6697 36.614 27.2761C36.378 26.8825 35.855 26.7467 35.4471 26.9765C34.2842 27.6239 32.9554 27.9661 31.6041 27.9661C27.3649 27.9661 23.9166 24.6454 23.9166 20.5633C23.9166 16.4812 27.365 13.1605 31.6041 13.1605C35.8432 13.1605 39.2916 16.4812 39.2916 20.5633V21.3859C39.2916 22.2927 38.525 23.0309 37.5833 23.0309C36.6416 23.0309 35.875 22.2927 35.875 21.3859V18.0957C35.875 17.6411 35.4929 17.2732 35.0208 17.2732C34.7911 17.2732 34.5846 17.3627 34.4313 17.5045C33.6763 16.8567 32.6925 16.4506 31.6041 16.4506C29.2493 16.4506 27.3333 18.2957 27.3333 20.5632C27.3333 22.8308 29.2493 24.6759 31.6042 24.6759C32.8771 24.6759 34.0089 24.1261 34.7921 23.2723C35.4109 24.1188 36.4289 24.6759 37.5834 24.6759C39.4677 24.6759 41 23.2004 41 21.3858V20.5632C41 15.8519 37.2399 11.9746 32.4583 11.5571ZM3.41669 1.64504H29.0417C29.0772 1.64504 29.107 1.66253 29.1421 1.66462L16.9316 11.3162C16.497 11.5797 15.8672 11.5251 15.5844 11.358L3.31732 1.66446C3.35199 1.66246 3.38146 1.64504 3.41669 1.64504ZM30.75 11.5571C25.9685 11.9746 22.2083 15.8519 22.2083 20.5633C22.2083 20.8409 22.226 21.1145 22.2515 21.3859H3.41669C2.47497 21.3859 1.70839 20.6477 1.70839 19.7408V3.29014C1.70839 3.05719 1.7618 2.83719 1.85293 2.63623L14.576 12.6834C15.0731 12.9959 15.6445 13.1606 16.2293 13.1606C16.7915 13.1606 17.3412 13.008 17.825 12.7188C17.8734 12.6939 17.9192 12.6642 17.9626 12.6297L30.6054 2.63609C30.6966 2.83719 30.7501 3.05719 30.7501 3.29023L30.75 11.5571ZM31.6042 23.0309C30.1911 23.0309 29.0417 21.924 29.0417 20.5633C29.0417 19.2026 30.1911 18.0957 31.6042 18.0957C33.0173 18.0957 34.1667 19.2026 34.1667 20.5633C34.1667 21.924 33.0173 23.0309 31.6042 23.0309Z" fill="black"/>
</mask>
<g mask="url(#mask0_797_2767)">
<path d="M44.7955 -2.2597H-2.6582V37.2851H44.7955V-2.2597Z" fill="#215C6A"/>
<path d="M42.1376 21.0695C42.1376 26.4159 37.8035 30.75 32.457 30.75C27.1106 30.75 22.207 27.9028 22.207 20.5C22.207 14.2361 27.1106 11.3889 32.457 11.3889C37.8035 11.3889 42.1376 15.723 42.1376 21.0695Z" fill="#26AAAB"/>
</g>
</svg>
