<svg width="27" height="27" viewBox="0 0 27 27" fill="none" xmlns="http://www.w3.org/2000/svg">
<g clip-path="url(#clip0_170_283)">
<path d="M7.79909 13.0431H7.04909H7.79909ZM7.79909 14.1851L7.23761 14.6823C7.3729 14.8351 7.56459 14.9262 7.76848 14.9345C7.97237 14.9428 8.17085 14.8677 8.31815 14.7265L7.79909 14.1851ZM10.3192 12.808C10.6181 12.5213 10.6281 12.0465 10.3415 11.7475C10.0548 11.4485 9.58003 11.4385 9.28104 11.7252L10.3192 12.808ZM6.66158 11.7694C6.38696 11.4593 5.91296 11.4305 5.60286 11.7051C5.29277 11.9797 5.264 12.4537 5.53862 12.7638L6.66158 11.7694ZM17.2443 9.69255C17.5256 9.99662 18.0001 10.0151 18.3042 9.73381C18.6082 9.45253 18.6267 8.97801 18.3454 8.67395L17.2443 9.69255ZM13.554 6.58325C9.96701 6.58325 7.04909 9.46989 7.04909 13.0431H8.54909C8.54909 10.3094 10.7843 8.08325 13.554 8.08325V6.58325ZM7.04909 13.0431L7.04909 14.1851L8.54909 14.1851L8.54909 13.0431L7.04909 13.0431ZM8.31815 14.7265L10.3192 12.808L9.28104 11.7252L7.28004 13.6437L8.31815 14.7265ZM8.36057 13.6879L6.66158 11.7694L5.53862 12.7638L7.23761 14.6823L8.36057 13.6879ZM18.3454 8.67395C17.1567 7.38902 15.449 6.58325 13.554 6.58325V8.08325C15.0157 8.08325 16.329 8.70315 17.2443 9.69255L18.3454 8.67395Z" fill="#38827F"/>
<path d="M19.1968 12.8147L19.7574 12.3166C19.622 12.1641 19.4303 12.0734 19.2264 12.0653C19.0226 12.0572 18.8243 12.1325 18.6772 12.2738L19.1968 12.8147ZM16.6807 14.1912C16.382 14.4781 16.3724 14.9529 16.6593 15.2517C16.9462 15.5504 17.421 15.56 17.7198 15.2731L16.6807 14.1912ZM20.3396 15.2303C20.6147 15.5399 21.0887 15.5679 21.3984 15.2928C21.708 15.0177 21.7361 14.5437 21.4609 14.234L20.3396 15.2303ZM9.73047 17.3256C9.44702 17.0236 8.97238 17.0085 8.67035 17.292C8.36831 17.5754 8.35326 18.0501 8.63671 18.3521L9.73047 17.3256ZM13.4198 20.4165C17.0163 20.4165 19.9468 17.5326 19.9468 13.9567H18.4468C18.4468 16.6877 16.2044 18.9165 13.4198 18.9165V20.4165ZM19.9468 13.9567V12.8147H18.4468V13.9567H19.9468ZM18.6772 12.2738L16.6807 14.1912L17.7198 15.2731L19.7163 13.3556L18.6772 12.2738ZM18.6361 13.3128L20.3396 15.2303L21.4609 14.234L19.7574 12.3166L18.6361 13.3128ZM8.63671 18.3521C9.82862 19.6221 11.5319 20.4165 13.4198 20.4165V18.9165C11.9604 18.9165 10.6487 18.3039 9.73047 17.3256L8.63671 18.3521Z" fill="#38827F"/>
<path d="M7.33317 2.81673C9.14724 1.76735 11.2534 1.16675 13.4998 1.16675C20.3113 1.16675 25.8332 6.68857 25.8332 13.5001C25.8332 20.3116 20.3113 25.8334 13.4998 25.8334C6.68832 25.8334 1.1665 20.3116 1.1665 13.5001C1.1665 11.2536 1.7671 9.14748 2.81648 7.33341" stroke="#91A2AB" stroke-width="1.5" stroke-linecap="round"/>
</g>
<defs>
<clipPath id="clip0_170_283">
<rect width="27" height="27" fill="white"/>
</clipPath>
</defs>
</svg>
