<svg width="324" height="64" viewBox="0 0 324 64" fill="none" xmlns="http://www.w3.org/2000/svg">
<path d="M312.067 47.9852C311.529 47.9852 311.075 48.1723 310.701 48.5415C310.327 48.9108 310.138 49.3883 310.138 49.9742V61.568C310.138 62.1489 310.327 62.6265 310.701 62.9957C311.075 63.3649 311.534 63.552 312.067 63.552H321.877C322.415 63.552 322.869 63.3649 323.242 62.9957C323.621 62.6265 323.806 62.1489 323.806 61.568V49.9692C323.806 49.3883 323.616 48.9108 323.242 48.5366C322.869 48.1674 322.415 47.9803 321.877 47.9803H312.067V47.9852ZM0.139648 32.8172V33.3686V61.1643C0.139648 61.7945 0.378912 62.3557 0.862418 62.8332C1.34593 63.3108 1.90919 63.5471 2.5522 63.5471L51.551 63.5422L51.7105 63.5471H63.195C63.8879 63.5471 64.4811 63.3256 64.9646 62.8726C65.4481 62.4246 65.6873 61.8486 65.6873 61.1643V50.6043C65.6873 49.92 65.4481 49.3342 64.9646 48.8566C64.4811 48.3791 63.8929 48.1428 63.195 48.1428H54.7511L54.7212 48.2166L24.7836 48.2117C23.2882 48.2117 22.396 47.2616 22.4009 45.5434L22.4109 32.8911C22.4109 27.3329 24.0857 23.0449 27.4354 20.0222C30.7851 17.0043 35.4656 15.4929 41.4671 15.4929C43.2915 15.4929 45.1009 15.6259 46.8953 15.8917C48.6898 16.1575 50.4992 16.5268 52.3236 17.0043C56.0222 17.9594 59.0528 18.8603 61.4105 19.7022C62.2679 20.0222 63.0455 19.9286 63.7433 19.4215C64.4412 18.9194 64.7353 18.1908 64.6306 17.2357L63.7433 5.56309C63.6885 5.1397 63.5041 4.71632 63.1801 4.29293C62.8561 3.86955 62.4822 3.6037 62.0536 3.50032C59.1575 2.54524 55.6732 1.74278 51.6008 1.07816C47.5284 0.418472 42.8877 0.0837007 37.6888 0.0837007C31.7371 0.0837007 26.4335 0.812317 21.7679 2.26955C17.1023 3.72678 13.1644 5.85847 9.94937 8.66463C6.73429 11.4708 4.29183 14.9366 2.63196 19.0671C1.02691 23.0646 0.199464 27.6431 0.139648 32.8172ZM233.43 47.9852H228.948C228.41 47.9852 227.956 48.1723 227.583 48.5415C227.204 48.9108 227.019 49.3883 227.019 49.9692V61.5631C227.019 62.144 227.209 62.6216 227.583 62.9908C227.956 63.36 228.41 63.5471 228.948 63.5471H233.016H233.853V62.4837V47.9803H238.763C239.301 47.9803 239.755 48.1674 240.129 48.5366C240.503 48.9059 240.692 49.3834 240.692 49.9643V61.5582C240.692 62.1391 240.503 62.6166 240.129 62.9859C239.775 63.3354 239.346 63.5225 238.848 63.5422L304.037 63.5323C304.545 63.5323 304.934 63.0696 305.283 62.6166C305.632 62.1686 305.806 61.7059 305.806 61.2283V30.2622C305.806 29.5729 305.567 29.0019 305.083 28.5539C304.6 28.1009 304.012 27.8794 303.314 27.8794H277.583C276.885 27.8794 276.297 28.1009 275.814 28.5539C275.33 29.0068 275.091 29.5729 275.091 30.2622V40.8222C275.091 41.5114 275.335 42.0923 275.814 42.5699C276.297 43.0474 276.885 43.2837 277.583 43.2837H286.027L286.087 49.4572L258.083 49.4474C256.578 49.4474 255.696 48.4972 255.701 46.7791L255.711 32.7976C255.716 27.6086 257.53 23.3846 261.259 20.2486C265.082 17.0339 270.211 15.4831 276.537 15.4831C278.575 15.4831 280.599 15.5914 282.608 15.8031C284.617 16.0148 286.615 16.3052 288.599 16.6745C292.672 17.472 296.156 18.2892 299.052 19.136C299.964 19.4019 300.742 19.2542 301.385 18.6979C302.028 18.1415 302.297 17.4129 302.187 16.512L300.822 5.47447C300.767 5.05109 300.567 4.64247 300.218 4.2437C299.87 3.84493 299.481 3.59386 299.052 3.49047C296.266 2.6437 292.592 1.86093 288.036 1.14709C283.48 0.433241 278.361 0.0738525 272.678 0.0738525C260.99 0.0738525 251.529 3.03755 244.291 8.96986C237.053 15.0055 233.435 23.1877 233.435 33.5114C233.435 34.1071 233.445 34.6979 233.469 35.2788C233.45 35.2689 233.435 35.2689 233.435 35.2837V47.9852H233.43ZM209.748 38.1834C217.25 35.1311 222.977 29.4006 222.977 18.7569C222.977 13.4105 220.724 9.09293 216.223 5.80924C212.041 2.79139 206.493 1.28493 199.579 1.28493H159.209C158.566 1.28493 158.002 1.52124 157.519 1.99878C157.035 2.47632 156.796 3.03262 156.796 3.6677V47.9852H161.701C162.239 47.9852 162.693 48.1723 163.072 48.5415C163.446 48.9108 163.635 49.3883 163.635 49.9692V61.5631C163.635 62.144 163.451 62.6216 163.072 62.9908C162.713 63.3452 162.284 63.5274 161.781 63.5471H177.064C177.761 63.5471 178.35 63.3108 178.833 62.8332C179.317 62.3557 179.556 61.7994 179.556 61.1643V41.5508H187.342C188.055 42.0135 188.683 42.7323 189.077 43.456L199.29 62.1982C199.494 62.5723 199.813 62.8874 200.217 63.1483C200.616 63.4142 201.035 63.5471 201.463 63.5471H221.89C222.907 63.5471 223.645 63.1631 224.098 62.3951C224.552 61.6271 224.512 60.7951 223.979 59.8942C220.001 53.2726 215.281 43.6431 209.947 38.3705L209.748 38.1834ZM191.614 15.4979C194.565 15.4979 196.813 15.9459 198.368 16.8468C199.923 17.7477 200.701 19.1754 200.701 21.1348C200.701 23.4634 199.679 25.0782 197.645 25.9791C195.606 26.88 192.636 27.328 188.718 27.328H179.067V15.4929H191.614V15.4979ZM156.791 47.9852H156.572H151.886C151.348 47.9852 150.894 48.1723 150.521 48.5415C150.147 48.9108 149.957 49.3883 149.957 49.9692V61.5631C149.957 62.144 150.147 62.6216 150.521 62.9908C150.894 63.36 151.353 63.5471 151.886 63.5471H155.954H156.791V47.9852ZM114.547 20.5834C112.244 17.5655 109.976 14.5625 107.753 11.5692C105.529 8.57601 103.236 5.49416 100.879 2.31878C100.769 2.05294 100.49 1.81662 100.031 1.60493C99.5777 1.39324 99.1889 1.28986 98.8649 1.28986H81.015C80.372 1.28986 79.8088 1.52617 79.3252 2.00371C78.8417 2.48125 78.6025 3.03755 78.6025 3.67263V47.9902H78.3832H73.6976C73.1593 47.9902 72.7057 48.1772 72.3318 48.5465C71.958 48.9157 71.7686 49.3932 71.7686 49.9742V61.568C71.7686 62.1489 71.958 62.6265 72.3318 62.9957C72.7057 63.3649 73.1643 63.552 73.6976 63.552H77.7651H78.6025V47.9852H83.5073C84.0457 47.9852 84.4993 48.1723 84.8731 48.5415C85.247 48.9108 85.4364 49.3883 85.4364 49.9692V61.5631C85.4364 62.144 85.247 62.6216 84.8731 62.9908C84.5142 63.3452 84.0855 63.5274 83.5821 63.5471H96.6966C97.3945 63.5471 97.9827 63.3108 98.4662 62.8332C98.9497 62.3557 99.1889 61.7994 99.1889 61.1643V32.4135L121.864 62.592C122.078 62.8579 122.402 63.0794 122.831 63.2665C123.26 63.4535 123.609 63.5422 123.878 63.5422H141.892C142.59 63.5422 143.178 63.3059 143.662 62.8283C144.145 62.3508 144.384 61.7945 144.384 61.1594V3.65785C144.384 3.02277 144.145 2.46647 143.662 1.98893C143.178 1.51139 142.59 1.27509 141.892 1.27509H126.211C125.513 1.27509 124.924 1.51139 124.441 1.98893C123.957 2.46647 123.718 3.02277 123.718 3.65785V32.8862C122.163 30.7692 120.638 28.6917 119.132 26.6535C117.632 24.6203 116.102 22.5969 114.547 20.5834Z" fill="white"/>
</svg>
