<svg width="180" height="65" viewBox="0 0 180 65" fill="none" xmlns="http://www.w3.org/2000/svg">
<path d="M80.8939 16.3567C80.4592 17.4847 77.905 18.1016 77.1436 18.1039C73.7744 21.1432 69.6367 27.0932 66.0181 31.6249C62.4942 35.8142 61.0392 40.3996 62.0121 42.5278C62.0121 42.5278 64.7683 40.032 70.4304 41.4944C74.3473 32.3293 85.9825 24.6526 80.8939 16.3567Z" fill="url(#paint0_linear_170_426)"/>
<path d="M63.2011 34.2966C73.3096 28.1274 77.1404 16.1091 75.2214 5.29846C75.2214 5.29846 72.994 8.21705 70.3767 7.22552C66.0859 13.4137 53.5306 27.236 56.3562 34.654C56.3562 34.654 59.4019 32.2031 63.2011 34.2966Z" fill="url(#paint1_linear_170_426)"/>
<path d="M58.1239 19.2414C54.578 24.0728 54.3018 29.869 56.3565 34.6539C57.9843 18.1158 74.5542 20.199 72.2478 0C67.7589 9.9658 62.8314 12.8276 58.1239 19.2414Z" fill="url(#paint2_linear_170_426)"/>
<path d="M83.4878 20.2101L80.8864 16.2416C81.2485 21.6804 80.5179 26.7193 77.1226 30.9892C72.7143 36.5321 68.7059 36.1708 66.5645 43.9674C67.778 44.2664 69.0602 44.4281 70.4008 44.4281C82.8432 44.4281 90.3083 30.6129 83.4878 20.2101Z" fill="url(#paint3_linear_170_426)"/>
<path d="M67.54 11.8613C65.5887 14.7972 63.1459 17.3687 60.9776 20.1477C58.8093 22.9267 56.8761 26.0093 56.192 29.4667C55.8725 31.0837 55.9285 32.9761 56.3561 34.6539C58.313 17.6235 74.5396 20.1643 72.2475 0.0015564C71.5318 4.21221 69.9001 8.31244 67.54 11.8613Z" fill="url(#paint4_linear_170_426)"/>
<path d="M83.4879 20.2101L80.8864 16.2416C80.8887 16.2803 80.8911 16.3181 80.8935 16.3568C82.642 19.2825 83.39 23.0616 82.9442 26.3825C81.9098 34.0868 75.7331 40.2868 68.8258 43.2717C68.1039 43.5833 67.3417 43.8097 66.5645 43.9674C67.778 44.2672 69.0602 44.4281 70.4008 44.4281H70.4016C82.8432 44.4281 90.3083 30.6129 83.4879 20.2101Z" fill="url(#paint5_linear_170_426)"/>
<path d="M75.5811 5.965L75.2213 5.29846C74.6595 8.92461 74.0804 15.0442 66.5497 22.6199C63.3115 26.2106 56.5005 34.9119 62.0119 42.5278C64.5874 30.6531 86.9205 30.8487 75.5811 5.965Z" fill="url(#paint6_linear_170_426)"/>
<path d="M75.581 5.965L75.2212 5.29846C78.6181 29.7649 59.247 27.815 62.0119 42.5278C64.5486 30.7304 86.7744 30.7951 75.581 5.965Z" fill="url(#paint7_linear_170_426)"/>
<path d="M60.9771 20.1478C58.8089 22.9259 56.8765 26.0086 56.1924 29.4659V29.4667C57.9527 22.4669 63.9439 17.8492 67.5404 11.8621C65.5891 14.7973 63.1454 17.3688 60.9771 20.1478Z" fill="url(#paint8_linear_170_426)"/>
<path d="M62.4331 35.886C65.3423 29.0952 71.6223 28.2724 74.6388 18.0574C72.1447 26.3272 64.6408 29.5487 62.4331 35.886Z" fill="url(#paint9_linear_170_426)"/>
<path d="M74.2943 40.0928C74.2896 40.0975 74.2848 40.1015 74.2793 40.1054C78.9149 37.0669 82.5414 32.0107 82.9446 26.3825C82.1958 31.9562 78.7555 36.7419 74.2943 40.0928Z" fill="url(#paint10_linear_170_426)"/>
<path d="M138.508 22.1509C138.499 22.173 138.494 22.2037 138.494 22.2416C138.494 22.3678 138.527 22.4838 138.593 22.5887C138.662 22.6991 138.768 22.8009 138.911 22.8916C139.06 22.987 139.219 23.0596 139.388 23.1069C139.557 23.155 139.735 23.1795 139.924 23.1795L140.822 23.1968C141.156 23.1968 141.439 23.1708 141.668 23.1203C141.889 23.0722 142.061 23.0012 142.185 22.9081C142.306 22.8166 142.397 22.7054 142.457 22.5761C142.517 22.4443 142.548 22.2897 142.548 22.1138C142.548 21.9915 142.525 21.8795 142.48 21.7786C142.434 21.6776 142.364 21.5853 142.271 21.5033C142.172 21.4149 142.059 21.3384 141.936 21.2745C141.813 21.209 141.676 21.157 141.529 21.1175C141.371 21.075 141.215 21.0355 141.062 21.0008C140.905 20.9645 140.75 20.9322 140.596 20.903C140.438 20.8722 140.289 20.8383 140.151 20.802C140.015 20.7665 139.888 20.7279 139.772 20.6869C139.643 20.6403 139.542 20.5843 139.472 20.5196C139.383 20.4368 139.338 20.3421 139.338 20.2357C139.338 20.0669 139.405 19.9375 139.54 19.8499C139.652 19.7766 139.811 19.7387 140.016 19.7387L140.908 19.7576C141.092 19.7569 141.247 19.7868 141.373 19.8452C141.511 19.9091 141.612 20.0077 141.674 20.1378C141.708 20.2112 141.749 20.2648 141.796 20.298C141.835 20.3264 141.883 20.3406 141.939 20.3406H142.292C142.304 20.3406 142.319 20.3382 142.333 20.3327C142.353 20.324 142.375 20.3122 142.397 20.2956L142.398 20.294C142.41 20.2861 142.42 20.2735 142.425 20.2585C142.434 20.2364 142.439 20.2065 142.439 20.1678C142.439 20.0408 142.406 19.9249 142.341 19.82C142.272 19.7103 142.166 19.6093 142.023 19.5178C141.724 19.3262 141.387 19.2299 141.011 19.2299L140.258 19.211C139.924 19.2118 139.641 19.237 139.411 19.2875C139.189 19.3372 139.017 19.4082 138.895 19.5013C138.774 19.5928 138.684 19.704 138.624 19.8326C138.564 19.9643 138.533 20.1189 138.533 20.2948C138.533 20.3879 138.545 20.4731 138.57 20.5504C138.594 20.6277 138.63 20.6995 138.678 20.765C138.729 20.8336 138.788 20.8951 138.855 20.9495C138.922 21.004 138.998 21.0513 139.081 21.0915C139.171 21.1341 139.267 21.1751 139.367 21.213C139.469 21.2524 139.574 21.2879 139.682 21.3195C139.794 21.3526 139.906 21.3834 140.015 21.4102C140.126 21.437 140.238 21.4615 140.351 21.4836L140.682 21.5514L140.985 21.6192C141.49 21.7368 141.743 21.9213 141.743 22.1761C141.743 22.3457 141.676 22.4743 141.541 22.5619C141.428 22.6352 141.269 22.6723 141.065 22.6723L140.028 22.6518C139.843 22.6518 139.688 22.6226 139.563 22.565C139.425 22.5011 139.324 22.4033 139.262 22.2739C139.227 22.2006 139.187 22.1477 139.141 22.1154C139.101 22.0862 139.052 22.072 138.996 22.072H138.643C138.628 22.072 138.613 22.0752 138.598 22.0807C138.579 22.0878 138.556 22.0996 138.533 22.117C138.523 22.1249 138.514 22.1359 138.508 22.1509ZM143.464 19.3617V23.0556C143.464 23.0738 143.467 23.0896 143.471 23.1014C143.478 23.114 143.486 23.1266 143.497 23.1361L143.498 23.1377C143.512 23.1503 143.526 23.1598 143.54 23.1653C143.553 23.17 143.571 23.1732 143.59 23.1732H144.141C144.16 23.1732 144.177 23.17 144.189 23.1653C144.204 23.159 144.219 23.1487 144.234 23.1353C144.247 23.1219 144.257 23.1093 144.262 23.0967C144.267 23.0848 144.27 23.0691 144.27 23.0509V19.3617C144.27 19.3427 144.267 19.3254 144.261 19.312C144.257 19.2993 144.247 19.2859 144.234 19.2733L144.233 19.2717C144.222 19.2599 144.208 19.2504 144.195 19.2449C144.18 19.2394 144.162 19.2362 144.141 19.2362H143.59C143.572 19.2362 143.555 19.2386 143.542 19.2441C143.529 19.2496 143.516 19.2599 143.501 19.2733C143.488 19.2867 143.479 19.3001 143.473 19.3128C143.467 19.327 143.464 19.3435 143.464 19.3617ZM145.431 19.3617V23.0509C145.431 23.0691 145.435 23.0848 145.44 23.0967C145.446 23.1109 145.454 23.1235 145.467 23.1353C145.481 23.1487 145.495 23.159 145.51 23.1653C145.522 23.17 145.539 23.1732 145.558 23.1732H146.079C146.097 23.1732 146.114 23.17 146.127 23.1653C146.14 23.1598 146.153 23.1503 146.167 23.1369C146.179 23.1251 146.188 23.1117 146.194 23.0975C146.199 23.0848 146.202 23.0691 146.202 23.0509V19.9801C146.773 20.8651 147.698 22.1083 148.128 22.9689C148.146 22.9973 148.167 23.0241 148.191 23.0485C148.214 23.0722 148.244 23.0959 148.276 23.1172C148.307 23.1385 148.335 23.1535 148.36 23.1621C148.382 23.1692 148.404 23.1732 148.427 23.1732H149.411C149.429 23.1732 149.444 23.17 149.458 23.1653C149.471 23.1598 149.484 23.1503 149.497 23.1369C149.51 23.1251 149.519 23.1117 149.525 23.0975C149.53 23.0848 149.533 23.0691 149.533 23.0509V19.3617C149.533 19.3404 149.53 19.3222 149.525 19.3088C149.519 19.2954 149.51 19.2828 149.499 19.2709C149.486 19.2583 149.473 19.2496 149.459 19.2441C149.446 19.2386 149.429 19.2362 149.411 19.2362H148.901C148.882 19.2362 148.865 19.2386 148.851 19.2441C148.838 19.2496 148.824 19.2591 148.812 19.2717C148.8 19.2836 148.791 19.2962 148.786 19.3088C148.781 19.3214 148.778 19.3372 148.778 19.3554V22.6384L146.702 19.4461C146.682 19.4161 146.659 19.3869 146.634 19.3601C146.609 19.3348 146.582 19.3104 146.553 19.2899C146.525 19.2694 146.498 19.2552 146.475 19.2465C146.457 19.2394 146.44 19.2362 146.423 19.2362H145.551C145.533 19.2362 145.517 19.2386 145.506 19.2433C145.493 19.2497 145.48 19.2583 145.467 19.2717C145.455 19.2844 145.446 19.2978 145.44 19.3112C145.435 19.3254 145.431 19.3419 145.431 19.3617ZM155.653 19.3554V23.0446C155.653 23.0651 155.656 23.0833 155.661 23.0975C155.667 23.1109 155.676 23.1235 155.687 23.1353C155.702 23.1487 155.717 23.159 155.731 23.1653C155.743 23.17 155.76 23.1732 155.778 23.1732H159.181C159.2 23.1732 159.216 23.17 159.229 23.1653C159.243 23.1598 159.257 23.1495 159.27 23.1361C159.284 23.1235 159.293 23.1109 159.298 23.0982C159.304 23.0848 159.307 23.0691 159.307 23.0509V22.7654C159.307 22.7472 159.304 22.7314 159.299 22.7188C159.293 22.7054 159.284 22.692 159.273 22.6802C159.259 22.6676 159.247 22.6581 159.235 22.6534C159.223 22.6486 159.207 22.6463 159.189 22.6463H156.458V21.4615H158.837C158.871 21.4615 158.9 21.4488 158.924 21.4252C158.937 21.4126 158.946 21.3984 158.952 21.3857C158.957 21.3723 158.96 21.3558 158.96 21.3376V21.0592C158.96 21.041 158.957 21.0253 158.952 21.0126C158.946 20.9984 158.937 20.985 158.925 20.9724C158.911 20.959 158.897 20.9495 158.885 20.944C158.871 20.9385 158.855 20.9361 158.837 20.9361H156.458V19.7632H159.195C159.229 19.7632 159.259 19.7513 159.282 19.7269C159.307 19.7032 159.319 19.674 159.319 19.6409V19.3617C159.319 19.3427 159.316 19.3262 159.311 19.3128C159.305 19.3001 159.296 19.2867 159.282 19.2733L159.281 19.2717C159.269 19.2591 159.255 19.2496 159.243 19.2441C159.229 19.2386 159.214 19.2362 159.195 19.2362H155.778C155.759 19.2362 155.742 19.2386 155.729 19.2441C155.715 19.2496 155.701 19.2591 155.687 19.2717C155.675 19.2844 155.666 19.297 155.661 19.3104C155.656 19.3214 155.653 19.3372 155.653 19.3554ZM162.058 22.6179V23.0509C162.058 23.0683 162.06 23.0833 162.066 23.0959C162.072 23.1085 162.081 23.1211 162.094 23.133L162.095 23.1353C162.109 23.1487 162.124 23.159 162.139 23.1645C162.154 23.17 162.171 23.1732 162.19 23.1732H165.479C165.498 23.1732 165.515 23.17 165.528 23.1653C165.543 23.159 165.558 23.1487 165.572 23.1353C165.585 23.1227 165.595 23.1093 165.6 23.0967C165.605 23.084 165.608 23.0683 165.608 23.0509V22.7717C165.608 22.7527 165.605 22.7362 165.6 22.7236C165.594 22.7094 165.584 22.6952 165.571 22.6818C165.559 22.6691 165.547 22.6605 165.533 22.6549C165.518 22.6486 165.501 22.6463 165.479 22.6463H162.864V22.4909C162.864 22.356 162.932 22.2392 163.067 22.1422C163.175 22.0641 163.33 21.9971 163.532 21.9403C163.712 21.8914 163.894 21.8472 164.075 21.8014C164.17 21.7786 164.266 21.7517 164.364 21.7218C164.461 21.691 164.558 21.6579 164.653 21.6224C164.746 21.5877 164.835 21.5482 164.92 21.5064C165.008 21.4623 165.09 21.4157 165.164 21.3692C165.234 21.3234 165.298 21.2706 165.356 21.2106C165.414 21.1483 165.466 21.0789 165.511 21.0024C165.554 20.9267 165.588 20.843 165.61 20.7523C165.632 20.6593 165.644 20.5551 165.644 20.4407C165.644 20.324 165.633 20.2159 165.613 20.1181C165.593 20.0203 165.563 19.9296 165.523 19.8452C165.423 19.6401 165.255 19.4847 165.015 19.3798C164.761 19.2678 164.428 19.2118 164.016 19.2118H163.615C163.484 19.2118 163.355 19.2228 163.231 19.2433C163.106 19.2646 162.983 19.297 162.864 19.3388C162.746 19.3806 162.638 19.4327 162.541 19.4942C162.445 19.5549 162.358 19.6259 162.28 19.7072C162.206 19.7845 162.151 19.8649 162.116 19.9485C162.082 20.0298 162.064 20.1165 162.064 20.2088C162.064 20.2325 162.068 20.2546 162.075 20.2743C162.083 20.2964 162.095 20.3185 162.111 20.3398C162.122 20.354 162.135 20.3642 162.149 20.3705C162.165 20.3784 162.188 20.3824 162.213 20.3824H162.566C162.623 20.3824 162.671 20.3682 162.711 20.3406C162.755 20.3098 162.794 20.2601 162.825 20.1939L162.827 20.1907C162.903 20.0377 163.021 19.9225 163.178 19.846C163.325 19.775 163.505 19.7387 163.719 19.7387H163.93C164.075 19.7387 164.202 19.7505 164.31 19.7734C164.428 19.7979 164.525 19.8373 164.6 19.8902C164.682 19.9485 164.745 20.0306 164.784 20.1363C164.82 20.2301 164.838 20.3414 164.838 20.4699C164.838 20.619 164.773 20.7484 164.645 20.858C164.537 20.9503 164.379 21.0284 164.176 21.0899L163.904 21.1641L163.625 21.2327C163.525 21.2564 163.429 21.2824 163.338 21.31C163.243 21.3392 163.147 21.3723 163.051 21.4086C162.956 21.4449 162.866 21.4843 162.782 21.5261C162.699 21.568 162.618 21.6145 162.541 21.6642C162.472 21.7084 162.408 21.762 162.35 21.8243C162.292 21.8874 162.24 21.96 162.194 22.0412C162.149 22.1193 162.115 22.2069 162.093 22.3023C162.07 22.3994 162.058 22.5051 162.058 22.6179ZM166.358 20.6758C166.333 20.8352 166.32 21.0118 166.32 21.2043C166.32 21.5837 166.369 21.9056 166.467 22.169C166.562 22.423 166.704 22.625 166.892 22.7748C167.069 22.9145 167.272 23.0202 167.503 23.0896C167.736 23.1606 168 23.1968 168.295 23.1968H168.502C168.797 23.1968 169.061 23.1613 169.294 23.0896C169.525 23.0202 169.729 22.9145 169.906 22.7748C170.287 22.4719 170.478 21.9489 170.478 21.2043C170.478 20.8265 170.428 20.507 170.33 20.2443C170.236 19.9896 170.094 19.7876 169.906 19.637C169.729 19.4958 169.524 19.3901 169.294 19.3191C169.06 19.2473 168.796 19.2118 168.502 19.2118H168.295C168.001 19.2118 167.737 19.2481 167.504 19.3191C167.273 19.3901 167.069 19.4958 166.892 19.637C166.803 19.7072 166.724 19.7923 166.654 19.891C166.584 19.9919 166.523 20.1079 166.473 20.2388C166.422 20.3698 166.384 20.5157 166.358 20.6758ZM167.443 20.1221C167.66 19.8665 167.979 19.7387 168.399 19.7387C168.818 19.7387 169.137 19.8673 169.354 20.1221C169.565 20.3705 169.672 20.7318 169.672 21.2059C169.672 21.6808 169.565 22.042 169.354 22.2897C169.137 22.5445 168.818 22.6723 168.399 22.6723C167.978 22.6723 167.66 22.5445 167.443 22.2897C167.231 22.0412 167.125 21.68 167.125 21.2059C167.125 20.7318 167.231 20.3705 167.443 20.1221ZM171.188 20.6758C171.163 20.8352 171.15 21.0118 171.15 21.2043C171.15 21.5837 171.199 21.9056 171.297 22.169C171.393 22.423 171.535 22.625 171.722 22.7748C171.899 22.9145 172.103 23.0202 172.333 23.0896C172.567 23.1606 172.831 23.1968 173.124 23.1968H173.332C173.626 23.1968 173.891 23.1613 174.125 23.0896C174.355 23.0202 174.559 22.9145 174.736 22.7748C175.117 22.4719 175.308 21.9489 175.308 21.2043C175.308 20.8265 175.259 20.507 175.161 20.2443C175.066 19.9896 174.924 19.7876 174.736 19.637C174.559 19.4958 174.355 19.3901 174.123 19.3191C173.89 19.2473 173.626 19.2118 173.332 19.2118H173.124C172.831 19.2118 172.567 19.2481 172.335 19.3191C172.103 19.3901 171.899 19.4958 171.722 19.637C171.634 19.7072 171.554 19.7923 171.485 19.891C171.415 19.9919 171.353 20.1079 171.303 20.2388C171.252 20.3698 171.214 20.5157 171.188 20.6758ZM172.273 20.1221C172.49 19.8665 172.809 19.7387 173.229 19.7387C173.648 19.7387 173.967 19.8673 174.184 20.1221C174.396 20.3705 174.501 20.7318 174.501 21.2059C174.501 21.6808 174.396 22.042 174.184 22.2897C173.967 22.5445 173.648 22.6723 173.229 22.6723C172.809 22.6723 172.49 22.5445 172.272 22.2897C172.062 22.0412 171.956 21.68 171.956 21.2059C171.956 20.7318 172.062 20.3705 172.273 20.1221ZM178.192 19.2118H177.543C177.272 19.2118 177.037 19.2355 176.836 19.2836C176.643 19.3301 176.481 19.3995 176.351 19.491C176.229 19.5754 176.138 19.6898 176.076 19.8334C176.012 19.9832 175.98 20.167 175.98 20.3847C175.98 20.6032 176.012 20.7878 176.076 20.9377C176.138 21.0813 176.229 21.1956 176.351 21.2808C176.614 21.4654 177.012 21.5585 177.543 21.5585H178.949V21.8243C178.949 21.9718 178.933 22.0988 178.902 22.2045C178.866 22.3236 178.81 22.4183 178.732 22.4861C178.66 22.5508 178.567 22.5989 178.456 22.6297C178.353 22.6581 178.235 22.6723 178.101 22.6723H177.556C177.381 22.6723 177.232 22.6463 177.109 22.5942C176.974 22.5374 176.872 22.4506 176.802 22.3355C176.762 22.2668 176.719 22.2171 176.674 22.1872C176.635 22.1619 176.593 22.1485 176.548 22.1485H176.195C176.181 22.1485 176.168 22.1517 176.154 22.1564C176.134 22.1643 176.113 22.1777 176.09 22.1943C176.078 22.2029 176.068 22.2156 176.062 22.2313C176.053 22.2526 176.048 22.2834 176.048 22.3213C176.048 22.4404 176.078 22.55 176.137 22.6478C176.199 22.7504 176.295 22.845 176.423 22.9294C176.558 23.0178 176.71 23.0848 176.88 23.129C177.051 23.174 177.242 23.1968 177.452 23.1968H178.204C178.475 23.1968 178.71 23.17 178.909 23.1172C179.101 23.0659 179.26 22.9894 179.386 22.8892C179.506 22.793 179.598 22.6597 179.659 22.4901C179.723 22.3102 179.756 22.0878 179.756 21.8243V20.5149C179.756 20.2656 179.723 20.0558 179.659 19.8854C179.597 19.7245 179.506 19.5983 179.386 19.5076C179.127 19.3104 178.728 19.2118 178.192 19.2118ZM178.794 21.0339H177.646C177.515 21.0339 177.4 21.0237 177.3 21.0047C177.193 20.9834 177.103 20.9495 177.03 20.9046C176.946 20.8509 176.883 20.7776 176.842 20.6845C176.805 20.6001 176.786 20.5007 176.786 20.3871C176.786 20.2735 176.805 20.1733 176.842 20.0889C176.883 19.9959 176.946 19.9225 177.031 19.8697C177.104 19.8247 177.195 19.79 177.302 19.7687C177.403 19.7498 177.518 19.7387 177.646 19.7387H178.088C178.225 19.7387 178.345 19.7513 178.447 19.775C178.559 19.801 178.652 19.8428 178.724 19.8988C178.804 19.9612 178.862 20.0487 178.899 20.1607C178.933 20.2593 178.949 20.3776 178.949 20.5149V21.0339H178.794ZM150.581 22.1107C150.664 22.3568 150.788 22.5587 150.953 22.7157C151.118 22.8742 151.328 22.9933 151.58 23.073C151.839 23.155 152.145 23.1968 152.496 23.1968H153.218C153.429 23.1968 153.626 23.17 153.809 23.1164C153.991 23.0635 154.161 22.9831 154.32 22.8758C154.471 22.774 154.583 22.6549 154.657 22.5185C154.73 22.382 154.767 22.2258 154.767 22.0483C154.767 22.0255 154.763 22.0042 154.756 21.9852C154.748 21.9632 154.736 21.9419 154.719 21.9206L154.718 21.919C154.707 21.904 154.693 21.8929 154.68 21.8866C154.664 21.8795 154.643 21.8756 154.62 21.8756H154.267C154.21 21.8756 154.161 21.8922 154.118 21.9253C154.067 21.9639 154.022 22.027 153.982 22.113C153.897 22.2968 153.781 22.4364 153.635 22.5303C153.488 22.625 153.315 22.6723 153.115 22.6723H152.525C152.295 22.6723 152.096 22.6463 151.934 22.5942C151.758 22.539 151.621 22.4522 151.525 22.3347C151.432 22.2227 151.363 22.0681 151.32 21.8732C151.278 21.6879 151.258 21.4654 151.258 21.2043C151.258 20.9432 151.278 20.72 151.32 20.5362C151.363 20.3406 151.432 20.186 151.525 20.0747C151.621 19.958 151.758 19.8712 151.934 19.816C152.097 19.7647 152.295 19.7387 152.525 19.7387H153.052C153.252 19.7387 153.426 19.7868 153.574 19.8807C153.72 19.9754 153.836 20.1142 153.922 20.2972C153.963 20.384 154.008 20.4463 154.058 20.4849C154.1 20.5173 154.149 20.5338 154.206 20.5338H154.558C154.573 20.5338 154.587 20.5307 154.602 20.5252C154.622 20.5181 154.644 20.5054 154.669 20.4881C154.679 20.4802 154.688 20.4684 154.694 20.4542C154.703 20.4321 154.707 20.4013 154.707 20.3627C154.707 20.1868 154.67 20.0298 154.597 19.8941C154.523 19.7569 154.41 19.637 154.259 19.5344C154.099 19.4271 153.927 19.3459 153.746 19.2922C153.563 19.2386 153.366 19.2118 153.156 19.2118H152.496C152.144 19.2118 151.838 19.2528 151.58 19.3348C151.329 19.4161 151.119 19.5352 150.953 19.6937C150.789 19.8523 150.664 20.0542 150.581 20.3003C150.495 20.5543 150.452 20.8565 150.452 21.2059C150.452 21.5553 150.495 21.8574 150.581 22.1107Z" fill="#B3E2ED"/>
<path d="M143.872 52.0487V49.1088C143.872 48.6616 144.015 48.29 144.303 48.0021C144.591 47.715 144.962 47.5714 145.402 47.5714H151.305L154.693 33.9385C155.936 28.9335 160.092 26.4369 167.122 26.4369H178.36C178.808 26.4369 179.174 26.5789 179.459 26.8676C179.748 27.161 179.898 27.5271 179.898 27.9743V52.0487C179.898 52.4794 179.746 52.843 179.459 53.1302C179.172 53.4165 178.808 53.5609 178.36 53.5609H145.402C144.962 53.5609 144.591 53.4173 144.303 53.1302C144.015 52.8423 143.872 52.4794 143.872 52.0487ZM90.0859 52.1442V28.0698C90.0859 27.6225 90.2303 27.2589 90.5254 26.9631C90.8126 26.6767 91.1677 26.5324 91.5985 26.5324H106.403C109.554 26.5324 112.107 27.1405 114.067 28.3656C116.019 29.5819 116.999 31.4238 116.999 33.873C116.999 36.323 115.985 38.1728 113.957 39.4231C116.838 40.876 118.283 43.0295 118.283 45.885C118.283 48.7405 117.354 50.7503 115.486 51.9075C113.627 53.0734 110.948 53.6563 107.468 53.6563H91.5985C91.1677 53.6563 90.8126 53.5127 90.5254 53.2256C90.2303 52.9385 90.0859 52.5749 90.0859 52.1442ZM98.6542 48.141H106.876C107.78 48.141 108.482 47.8783 108.963 47.3719C109.453 46.8568 109.698 46.1808 109.698 45.3446C109.698 44.4998 109.453 43.8238 108.963 43.3087C108.482 42.8015 107.78 42.5483 106.876 42.5483H98.6542V48.141ZM98.6542 37.1253H105.904C106.648 37.1253 107.256 36.8886 107.729 36.4161C108.194 35.9515 108.43 35.3433 108.43 34.5995C108.43 33.8564 108.194 33.2483 107.729 32.7837C107.256 32.3104 106.648 32.0737 105.904 32.0737H98.6542V37.1253ZM120.343 52.0519V27.9775C120.343 27.5294 120.486 27.1666 120.781 26.8708C121.069 26.5836 121.424 26.4401 121.855 26.4401H127.026C127.474 26.4401 127.846 26.5836 128.133 26.8708C128.42 27.1666 128.564 27.5294 128.564 27.9775V44.2379L137.275 28.222C137.546 27.7069 137.943 27.2849 138.492 26.9473C139.033 26.6089 139.565 26.4401 140.073 26.4401H147.01C147.449 26.4401 147.821 26.5836 148.108 26.8708C148.395 27.1666 148.539 27.5294 148.539 27.9775V52.0519C148.539 52.4991 148.395 52.8628 148.108 53.1412C147.821 53.4205 147.449 53.564 147.01 53.564H141.83C141.39 53.564 141.027 53.4205 140.74 53.1333C140.461 52.8454 140.326 52.4826 140.326 52.0519V35.8166L131.605 51.7813C131.344 52.2633 130.938 52.6766 130.397 53.0316C129.848 53.3865 129.324 53.564 128.809 53.564H121.855C121.407 53.564 121.043 53.4205 120.765 53.1412C120.486 52.8628 120.343 52.4991 120.343 52.0519ZM159.399 47.5714H171.331V32.4255H166.852C164.452 32.4255 162.91 33.6348 162.298 36.0667L159.399 47.5714Z" fill="url(#paint11_linear_170_426)"/>
<path d="M0.234375 30.9552V28.0161C0.234375 27.568 0.37877 27.2052 0.665982 26.9094C0.953194 26.6222 1.32483 26.4787 1.76433 26.4787C11.8089 26.4787 21.8526 26.5118 31.8947 26.5118C32.3421 26.5118 32.7059 26.6554 32.9844 26.9425C33.2629 27.2383 33.4073 27.6011 33.4073 28.0492V37.2483C36.2802 37.2483 38.2402 36.1416 39.296 33.9116L41.6797 28.8601C42.0087 28.1509 42.49 27.5846 43.1331 27.1539C43.7833 26.7232 44.476 26.5118 45.2193 26.5118H49.892C50.7205 26.5118 51.1348 26.8328 51.1348 27.4749C51.1348 27.8378 50.9991 28.3024 50.7371 28.8601L47.5431 35.5926C46.9939 36.7158 46.2593 37.679 45.3124 38.4898C44.3743 39.3007 43.3611 39.8158 42.2707 40.0525C44.2985 40.6606 46.0565 42.1475 47.5431 44.5045L51.751 51.3127C52.0303 51.786 52.1818 52.1993 52.1992 52.5456C52.1992 53.2721 51.7684 53.6357 50.906 53.6357H46.2332C44.6449 53.6357 43.3864 52.8588 42.4395 51.3127L39.296 46.1855C37.9443 43.9886 35.9844 42.8906 33.4073 42.8906V52.1236C33.4073 52.5709 33.2629 52.9345 32.9765 53.2129C32.6885 53.4922 32.3256 53.6357 31.8947 53.6357H26.3517C25.9035 53.6357 25.5406 53.4922 25.2613 53.2129C24.9827 52.9345 24.8391 52.5709 24.8391 52.1236V32.4673H18.2498V52.0905C18.2498 52.5212 18.1062 52.884 17.819 53.1719C17.531 53.4591 17.168 53.6026 16.7199 53.6026H11.1942C10.7547 53.6026 10.3831 53.4591 10.0958 53.1719C9.80863 52.884 9.66423 52.5212 9.66423 52.0905V32.4673H1.76433C1.32483 32.4673 0.953194 32.3237 0.665982 32.0366C0.37877 31.7495 0.234375 31.3858 0.234375 30.9552Z" fill="url(#paint12_linear_170_426)"/>
<path d="M2.07813 63.1449C1.61732 63.1449 1.24884 63.1023 0.970309 63.0179C0.692566 62.9327 0.492149 62.7875 0.36748 62.5832C0.242811 62.3789 0.179688 62.0981 0.179688 61.7408V60.9196C0.179688 60.5647 0.242811 60.2839 0.36748 60.0796C0.492149 59.8753 0.692566 59.7309 0.970309 59.6465C1.24884 59.5613 1.61732 59.5187 2.07813 59.5187H3.17411C3.37689 59.5187 3.5418 59.5534 3.66647 59.6244C3.79114 59.6954 3.88109 59.798 3.9379 59.9321C3.99471 60.0654 4.02233 60.2263 4.02233 60.414C4.02233 60.5481 3.99945 60.6483 3.9521 60.7161C3.90397 60.784 3.83217 60.8187 3.73748 60.8187C3.64201 60.8187 3.571 60.784 3.52523 60.7161C3.47868 60.6483 3.4558 60.5615 3.4558 60.4566C3.45264 60.3257 3.43134 60.2302 3.38873 60.1719C3.34612 60.1143 3.2538 60.0859 3.11177 60.0859H2.07813C1.70806 60.0859 1.42717 60.1056 1.23543 60.1442C1.04369 60.1829 0.914287 60.2626 0.847218 60.3848C0.78015 60.5063 0.74701 60.6917 0.74701 60.9386V61.7258C0.74701 61.9672 0.78015 62.1486 0.847218 62.2709C0.914287 62.3924 1.04369 62.4752 1.23543 62.5162C1.42717 62.5572 1.70806 62.5777 2.07813 62.5777H3.11177C3.25617 62.5777 3.34849 62.5493 3.38952 62.4941C3.43134 62.4389 3.45264 62.345 3.4558 62.2117C3.4558 62.0981 3.48026 62.0082 3.52918 61.9427C3.57731 61.8773 3.64596 61.8449 3.73354 61.8449C3.82349 61.8449 3.89371 61.8773 3.94579 61.9427C3.99708 62.0082 4.02233 62.1115 4.02233 62.2504C4.02233 62.4428 3.99471 62.6061 3.93632 62.7402C3.87872 62.8735 3.7864 62.9737 3.66016 63.0423C3.53391 63.1102 3.369 63.1449 3.16622 63.1449H2.07813ZM10.2818 63.1985C10.094 63.1985 10.0001 63.0873 10.0001 62.8633V59.8082C10.0001 59.5795 10.0885 59.4651 10.266 59.4651C10.3797 59.4651 10.4799 59.5258 10.5674 59.6465L11.9988 61.6911L13.438 59.6465C13.52 59.5258 13.6163 59.4651 13.7268 59.4651C13.9122 59.4651 14.0045 59.5795 14.0045 59.8082V62.8633C14.0045 63.0873 13.9098 63.1985 13.7197 63.1985C13.5319 63.1985 13.438 63.081 13.438 62.8443V60.4677L12.211 62.2504C12.1668 62.3119 12.1006 62.3427 12.0098 62.3427C11.9688 62.3427 11.9293 62.3348 11.8891 62.3206C11.8496 62.3064 11.8157 62.2835 11.7905 62.2504L10.5674 60.4677V62.8443C10.5674 63.081 10.472 63.1985 10.2818 63.1985ZM23.2269 63.1985C23.1598 63.1985 23.1085 63.178 23.073 63.137C23.0367 63.096 23.0122 63.0147 22.998 62.894C22.9838 62.7733 22.9759 62.5943 22.9759 62.3576L23.0533 62.5391C22.8962 62.7607 22.6998 62.9161 22.4631 63.0076C22.2263 63.0983 21.9462 63.1449 21.6219 63.1449H20.9047C20.6372 63.1449 20.4194 63.0534 20.2514 62.8719C20.0825 62.6913 19.9973 62.416 19.9973 62.0453C19.9973 61.7936 20.0391 61.5854 20.1212 61.4221C20.2032 61.2588 20.3271 61.1303 20.4905 61.0348C20.6538 60.9402 20.8526 60.8715 21.0885 60.8321C21.3237 60.7919 21.5927 60.7729 21.8957 60.7729H23.204L22.9491 61.008V60.418C22.9491 60.2894 22.9278 60.2018 22.882 60.1553C22.8371 60.1095 22.7448 60.0859 22.6059 60.0859H21.5178C21.2708 60.0859 21.0791 60.0953 20.9426 60.1143C20.8069 60.134 20.7098 60.1671 20.6538 60.2145C20.597 60.2626 20.567 60.3265 20.5646 60.4061C20.5567 60.5245 20.5362 60.612 20.5015 60.6688C20.4668 60.7248 20.3926 60.7532 20.279 60.7532C20.0912 60.7532 19.9973 60.6286 19.9973 60.3793C19.9973 60.0835 20.1212 59.8666 20.3666 59.7278C20.6128 59.5881 20.9781 59.5187 21.4641 59.5187H22.6595C22.9791 59.5187 23.2016 59.5952 23.3271 59.7467C23.4533 59.8981 23.5164 60.1648 23.5164 60.545V62.8633C23.5164 63.0873 23.4202 63.1985 23.2269 63.1985ZM20.9236 62.6014H21.6219C22.1033 62.6014 22.4449 62.4902 22.6485 62.2693C22.8513 62.0484 22.9515 61.7085 22.9491 61.2509L23.0185 61.3164H21.8957C21.5746 61.3164 21.3158 61.333 21.1201 61.3677C20.9252 61.4024 20.7832 61.471 20.6956 61.5712C20.6088 61.6714 20.5646 61.8205 20.5646 62.0185C20.5646 62.2086 20.5986 62.3529 20.6648 62.4515C20.7319 62.5509 20.8179 62.6014 20.9236 62.6014ZM30.3314 63.1449C30.0118 63.1449 29.7909 63.0636 29.6662 62.9035C29.5416 62.7426 29.4784 62.4633 29.4784 62.065C29.4784 61.8307 29.5723 61.714 29.7601 61.714C29.9503 61.714 30.0458 61.8307 30.0458 62.065V62.2038C30.0458 62.3529 30.0687 62.4515 30.1136 62.502C30.1586 62.5525 30.2486 62.5777 30.3851 62.5777H31.7974C32.435 62.5777 32.7538 62.4515 32.7538 62.1999C32.7538 61.9711 32.6835 61.8063 32.5415 61.7061C32.4003 61.6059 32.1628 61.5554 31.8282 61.5554H31.1646C30.9248 61.5554 30.8056 61.4671 30.8056 61.2896C30.8056 61.0892 30.9248 60.9891 31.1646 60.9891H31.8282C32.0673 60.9891 32.2551 60.9733 32.39 60.9441C32.5249 60.9141 32.6204 60.8613 32.6764 60.784C32.7332 60.7075 32.7617 60.5994 32.7617 60.4606C32.7617 60.2105 32.4405 60.0859 31.7974 60.0859H30.3851C30.2486 60.0859 30.1586 60.1103 30.1136 60.1608C30.0687 60.2105 30.0458 60.3099 30.0458 60.4566V60.5954C30.0458 60.8321 29.9503 60.9504 29.7601 60.9504C29.5723 60.9504 29.4784 60.8321 29.4784 60.5954C29.4784 60.1971 29.5416 59.9179 29.6662 59.7585C29.7909 59.5992 30.0118 59.5187 30.3314 59.5187H31.8511C32.3222 59.5187 32.6843 59.6039 32.9392 59.7735C33.194 59.9431 33.3211 60.2003 33.3211 60.545C33.3211 60.7303 33.2879 60.8834 33.2209 61.0041C33.1538 61.1247 33.0575 61.2218 32.9313 61.2935C33.1917 61.4836 33.3211 61.755 33.3211 62.1076C33.3211 62.4594 33.194 62.7205 32.9392 62.8901C32.6843 63.0605 32.3222 63.1449 31.8511 63.1449H30.3314ZM41.1271 63.1449C40.6671 63.1449 40.2978 63.1023 40.0201 63.0179C39.7423 62.9327 39.5419 62.7875 39.4164 62.5832C39.2918 62.3789 39.2287 62.0981 39.2287 61.7408V60.9196C39.2287 60.5647 39.2918 60.2839 39.4164 60.0796C39.5419 59.8753 39.7423 59.7309 40.0201 59.6465C40.2978 59.5613 40.6671 59.5187 41.1271 59.5187H41.3512C41.8112 59.5187 42.1805 59.5613 42.4582 59.6473C42.736 59.7341 42.9372 59.8792 43.0602 60.0835C43.1841 60.2878 43.2457 60.5671 43.2457 60.9196V61.7408C43.2457 62.0958 43.1841 62.375 43.0602 62.5793C42.9372 62.7836 42.736 62.9287 42.4582 63.0147C42.1805 63.1015 41.8112 63.1449 41.3512 63.1449H41.1271ZM41.1271 62.5777H41.3512C41.7212 62.5777 42.0021 62.5572 42.1923 62.5162C42.3825 62.4752 42.5111 62.3924 42.5781 62.2709C42.6452 62.1486 42.6784 61.9672 42.6784 61.7258V60.9386C42.6784 60.6917 42.6436 60.5063 42.5742 60.3848C42.5048 60.2626 42.3746 60.1829 42.1844 60.1442C41.9943 60.1056 41.7165 60.0859 41.3512 60.0859H41.1271C40.757 60.0859 40.4769 60.1056 40.2852 60.1442C40.0934 60.1829 39.9633 60.2626 39.8962 60.3848C39.8299 60.5063 39.796 60.6917 39.796 60.9386V61.7258C39.796 61.9672 39.8299 62.1486 39.8962 62.2709C39.9633 62.3924 40.0934 62.4752 40.2852 62.5162C40.4769 62.5572 40.757 62.5777 41.1271 62.5777ZM52.6148 63.1985C52.4215 63.1985 52.3252 63.0857 52.3252 62.8593V61.8102C52.0167 62.0729 51.6064 62.2038 51.0943 62.2038H50.8355C50.4086 62.2038 50.0638 62.1589 49.8018 62.0697C49.5391 61.9814 49.3489 61.8331 49.229 61.6248C49.1098 61.4166 49.0491 61.1366 49.0491 60.784V59.8011C49.0491 59.5771 49.143 59.4651 49.3308 59.4651C49.5209 59.4651 49.6164 59.5771 49.6164 59.8011V60.769C49.6164 61.0127 49.6496 61.1973 49.7158 61.3204C49.7813 61.4442 49.902 61.5278 50.078 61.5712C50.254 61.6146 50.5065 61.6367 50.8355 61.6367H51.0943C51.503 61.6367 51.8107 61.5302 52.0167 61.318C52.2218 61.1058 52.3252 60.7895 52.3252 60.3675V59.8011C52.3252 59.5771 52.4191 59.4651 52.6069 59.4651C52.797 59.4651 52.8925 59.5771 52.8925 59.8011V62.8554C52.8925 63.0841 52.7994 63.1985 52.6148 63.1985ZM59.2743 63.1985C59.0865 63.1985 58.9926 63.0873 58.9926 62.8633V59.8082C58.9926 59.5795 59.0818 59.4651 59.2593 59.4651C59.4597 59.4651 59.5599 59.5795 59.5599 59.8082V60.9425H62.1914V59.8082C62.1914 59.5795 62.2853 59.4651 62.4731 59.4651C62.6632 59.4651 62.7587 59.5795 62.7587 59.8082V62.8633C62.7587 63.0873 62.6632 63.1985 62.4731 63.1985C62.2853 63.1985 62.1914 63.0873 62.1914 62.8633V61.5097H59.5599V62.8633C59.5599 63.0873 59.4653 63.1985 59.2743 63.1985ZM68.8667 63.1449V59.8082C68.8667 59.5795 68.9606 59.4651 69.1484 59.4651C69.3393 59.4651 69.434 59.5795 69.434 59.8082V60.9891H71.0855C71.3609 60.9891 71.5976 61.0285 71.7956 61.1098C71.9937 61.1902 72.1468 61.3117 72.2549 61.471C72.363 61.6304 72.4166 61.8284 72.4166 62.065C72.4166 62.3016 72.3637 62.4996 72.2572 62.659C72.1507 62.8183 71.9976 62.9382 71.798 63.0179C71.5992 63.0975 71.3609 63.1394 71.0855 63.1449H68.8667ZM69.434 62.5777H71.02C71.2543 62.5777 71.4508 62.543 71.6102 62.4752C71.7696 62.4066 71.8493 62.2796 71.8493 62.0918C71.8493 61.9372 71.8161 61.822 71.7483 61.7447C71.6796 61.6674 71.5834 61.6162 71.4587 61.5917C71.334 61.5673 71.1873 61.5554 71.02 61.5554H69.434V62.5777ZM72.976 63.2837C72.7914 63.2837 72.6983 63.1748 72.6983 62.9556V59.7159C72.6983 59.6102 72.7243 59.5266 72.774 59.4667C72.8245 59.4059 72.8924 59.3767 72.98 59.3767C73.0699 59.3767 73.141 59.4059 73.1907 59.4667C73.2412 59.5266 73.2656 59.6102 73.2656 59.7159V62.9556C73.2656 63.1748 73.1694 63.2837 72.976 63.2837ZM81.1568 63.1449C80.696 63.1449 80.3268 63.1023 80.049 63.0179C79.7713 62.9327 79.5709 62.7875 79.4462 62.5832C79.3215 62.3789 79.2584 62.0981 79.2584 61.7408V60.9196C79.2584 60.5647 79.3215 60.2839 79.4462 60.0796C79.5709 59.8753 79.7713 59.7309 80.049 59.6465C80.3268 59.5613 80.696 59.5187 81.1568 59.5187H81.3801C81.8409 59.5187 82.2102 59.5613 82.488 59.6473C82.7657 59.7341 82.9661 59.8792 83.09 60.0835C83.2131 60.2878 83.2746 60.5671 83.2746 60.9196V61.3014H79.8257V61.7258C79.8257 61.9672 79.8589 62.1486 79.9259 62.2709C79.993 62.3924 80.1224 62.4752 80.3141 62.5162C80.5059 62.5572 80.786 62.5777 81.1568 62.5777H82.3065C82.4398 62.5777 82.5314 62.5509 82.5787 62.4981C82.6268 62.4452 82.6497 62.3505 82.6497 62.2117C82.6497 62.0958 82.6758 62.0058 82.727 61.9412C82.7783 61.8773 82.8478 61.8449 82.9353 61.8449C83.0253 61.8473 83.0947 61.8812 83.1436 61.9467C83.1926 62.0121 83.217 62.106 83.217 62.2267C83.217 62.4247 83.1886 62.5919 83.1318 62.73C83.0758 62.8672 82.9843 62.9713 82.858 63.0408C82.7318 63.1102 82.5661 63.1449 82.3601 63.1449H81.1568ZM79.8257 60.7343H82.7042C82.6829 60.4771 82.5961 60.3075 82.4414 60.2247C82.3491 60.1734 82.2142 60.1372 82.035 60.1166C81.8559 60.0961 81.6374 60.0859 81.3801 60.0859H81.1568C80.8862 60.0859 80.6629 60.0961 80.4854 60.1166C80.3078 60.1372 80.1737 60.1719 80.0837 60.2208C79.9267 60.3036 79.8407 60.4748 79.8257 60.7343ZM98.5663 63.1985C98.3785 63.1985 98.2846 63.0873 98.2846 62.8633V59.8082C98.2846 59.5795 98.3738 59.4651 98.5505 59.4651C98.6641 59.4651 98.7644 59.5258 98.8519 59.6465L100.283 61.6911L101.722 59.6465C101.805 59.5258 101.902 59.4651 102.012 59.4651C102.197 59.4651 102.29 59.5795 102.29 59.8082V62.8633C102.29 63.0873 102.194 63.1985 102.004 63.1985C101.816 63.1985 101.722 63.081 101.722 62.8443V60.4677L100.496 62.2504C100.452 62.3119 100.385 62.3427 100.295 62.3427C100.254 62.3427 100.214 62.3348 100.174 62.3206C100.134 62.3064 100.101 62.2835 100.075 62.2504L98.8519 60.4677V62.8443C98.8519 63.081 98.7565 63.1985 98.5663 63.1985ZM111.512 63.1985C111.445 63.1985 111.394 63.178 111.357 63.137C111.321 63.096 111.297 63.0147 111.283 62.894C111.269 62.7733 111.261 62.5943 111.261 62.3576L111.339 62.5391C111.182 62.7607 110.984 62.9161 110.748 63.0076C110.511 63.0983 110.231 63.1449 109.906 63.1449H109.189C108.922 63.1449 108.704 63.0534 108.536 62.8719C108.367 62.6913 108.283 62.416 108.283 62.0453C108.283 61.7936 108.324 61.5854 108.406 61.4221C108.489 61.2588 108.612 61.1303 108.775 61.0348C108.938 60.9402 109.138 60.8715 109.373 60.8321C109.608 60.7919 109.877 60.7729 110.181 60.7729H111.488L111.234 61.008V60.418C111.234 60.2894 111.212 60.2018 111.167 60.1553C111.122 60.1095 111.029 60.0859 110.89 60.0859H109.802C109.555 60.0859 109.364 60.0953 109.228 60.1143C109.091 60.134 108.995 60.1671 108.938 60.2145C108.881 60.2626 108.852 60.3265 108.85 60.4061C108.842 60.5245 108.821 60.612 108.787 60.6688C108.752 60.7248 108.677 60.7532 108.564 60.7532C108.376 60.7532 108.283 60.6286 108.283 60.3793C108.283 60.0835 108.406 59.8666 108.652 59.7278C108.897 59.5881 109.263 59.5187 109.749 59.5187H110.945C111.264 59.5187 111.486 59.5952 111.612 59.7467C111.738 59.8981 111.801 60.1648 111.801 60.545V62.8633C111.801 63.0873 111.705 63.1985 111.512 63.1985ZM109.208 62.6014H109.906C110.388 62.6014 110.73 62.4902 110.933 62.2693C111.137 62.0484 111.237 61.7085 111.234 61.2509L111.304 61.3164H110.181C109.859 61.3164 109.6 61.333 109.405 61.3677C109.21 61.4024 109.068 61.471 108.981 61.5712C108.893 61.6714 108.85 61.8205 108.85 62.0185C108.85 62.2086 108.883 62.3529 108.95 62.4515C109.016 62.5509 109.103 62.6014 109.208 62.6014ZM119.214 63.1985C119.008 63.1985 118.905 63.0944 118.905 62.8861V60.0859H117.775C117.548 60.0859 117.435 59.9912 117.435 59.8011C117.435 59.6126 117.548 59.5187 117.775 59.5187H120.657C120.88 59.5187 120.992 59.6126 120.992 59.8011C120.992 59.9912 120.88 60.0859 120.657 60.0859H119.53V62.8861C119.53 62.9816 119.502 63.0573 119.445 63.1141C119.388 63.1709 119.312 63.1985 119.214 63.1985ZM128.447 63.1449C127.987 63.1449 127.618 63.1023 127.34 63.0179C127.063 62.9327 126.861 62.7875 126.737 62.5832C126.612 62.3789 126.549 62.0981 126.549 61.7408V60.9196C126.549 60.5647 126.612 60.2839 126.737 60.0796C126.861 59.8753 127.063 59.7309 127.34 59.6465C127.618 59.5613 127.987 59.5187 128.447 59.5187H128.671C129.131 59.5187 129.501 59.5613 129.778 59.6473C130.056 59.7341 130.257 59.8792 130.381 60.0835C130.504 60.2878 130.566 60.5671 130.566 60.9196V61.3014H127.116V61.7258C127.116 61.9672 127.149 62.1486 127.216 62.2709C127.284 62.3924 127.414 62.4752 127.605 62.5162C127.796 62.5572 128.077 62.5777 128.447 62.5777H129.597C129.731 62.5777 129.823 62.5509 129.87 62.4981C129.917 62.4452 129.94 62.3505 129.94 62.2117C129.94 62.0958 129.966 62.0058 130.018 61.9412C130.069 61.8773 130.138 61.8449 130.226 61.8449C130.316 61.8473 130.386 61.8812 130.434 61.9467C130.483 62.0121 130.508 62.106 130.508 62.2267C130.508 62.4247 130.479 62.5919 130.423 62.73C130.366 62.8672 130.275 62.9713 130.149 63.0408C130.023 63.1102 129.857 63.1449 129.651 63.1449H128.447ZM127.116 60.7343H129.995C129.974 60.4771 129.887 60.3075 129.732 60.2247C129.64 60.1734 129.505 60.1372 129.326 60.1166C129.147 60.0961 128.929 60.0859 128.671 60.0859H128.447C128.178 60.0859 127.953 60.0961 127.776 60.1166C127.598 60.1372 127.465 60.1719 127.375 60.2208C127.218 60.3036 127.132 60.4748 127.116 60.7343ZM136.809 64.549C136.624 64.549 136.531 64.4306 136.531 64.194V59.8011C136.531 59.5771 136.628 59.4651 136.821 59.4651C136.921 59.4651 136.992 59.4958 137.033 59.559C137.074 59.6221 137.094 59.7301 137.094 59.8816V60.1861L136.994 60.0512C137.151 59.8666 137.351 59.7309 137.592 59.6465C137.834 59.5613 138.115 59.5187 138.434 59.5187H138.658C139.118 59.5187 139.487 59.5613 139.763 59.6473C140.04 59.7341 140.24 59.8792 140.363 60.0835C140.487 60.2878 140.548 60.5671 140.548 60.9196V61.7408C140.548 62.0958 140.487 62.375 140.363 62.5793C140.24 62.7836 140.041 62.9287 139.767 63.0147C139.493 63.1015 139.128 63.1449 138.673 63.1449H137.098V64.194C137.098 64.4306 137.002 64.549 136.809 64.549ZM137.098 62.5777H138.673C139.038 62.5777 139.315 62.5572 139.503 62.5162C139.69 62.4752 139.817 62.3924 139.883 62.2709C139.948 62.1486 139.981 61.9672 139.981 61.7258V60.9386C139.981 60.6917 139.948 60.5063 139.879 60.3848C139.811 60.2626 139.681 60.1829 139.491 60.1442C139.301 60.1056 139.023 60.0859 138.658 60.0859H138.434C137.981 60.0859 137.645 60.1876 137.427 60.3919C137.208 60.5962 137.098 60.9062 137.098 61.3204V62.5777ZM150.036 63.1985C149.849 63.1985 149.755 63.0778 149.755 62.8364V60.3178L147.104 63.1449H146.556V59.8082C146.556 59.5795 146.65 59.4651 146.838 59.4651C147.028 59.4651 147.123 59.585 147.123 59.824V62.3734L149.793 59.5187H150.322V62.8554C150.322 63.0841 150.227 63.1985 150.036 63.1985ZM159.551 63.1985C159.484 63.1985 159.433 63.178 159.398 63.137C159.361 63.096 159.337 63.0147 159.323 62.894C159.308 62.7733 159.301 62.5943 159.301 62.3576L159.378 62.5391C159.221 62.7607 159.024 62.9161 158.788 63.0076C158.551 63.0983 158.271 63.1449 157.947 63.1449H157.229C156.961 63.1449 156.744 63.0534 156.576 62.8719C156.407 62.6913 156.322 62.416 156.322 62.0453C156.322 61.7936 156.364 61.5854 156.446 61.4221C156.528 61.2588 156.652 61.1303 156.815 61.0348C156.978 60.9402 157.177 60.8715 157.413 60.8321C157.648 60.7919 157.917 60.7729 158.22 60.7729H159.529L159.274 61.008V60.418C159.274 60.2894 159.252 60.2018 159.207 60.1553C159.162 60.1095 159.069 60.0859 158.93 60.0859H157.842C157.595 60.0859 157.404 60.0953 157.267 60.1143C157.131 60.134 157.034 60.1671 156.978 60.2145C156.922 60.2626 156.892 60.3265 156.889 60.4061C156.881 60.5245 156.861 60.612 156.826 60.6688C156.791 60.7248 156.717 60.7532 156.604 60.7532C156.416 60.7532 156.322 60.6286 156.322 60.3793C156.322 60.0835 156.446 59.8666 156.691 59.7278C156.937 59.5881 157.302 59.5187 157.789 59.5187H158.984C159.304 59.5187 159.526 59.5952 159.652 59.7467C159.778 59.8981 159.841 60.1648 159.841 60.545V62.8633C159.841 63.0873 159.745 63.1985 159.551 63.1985ZM157.248 62.6014H157.947C158.428 62.6014 158.77 62.4902 158.973 62.2693C159.176 62.0484 159.276 61.7085 159.274 61.2509L159.343 61.3164H158.22C157.899 61.3164 157.64 61.333 157.445 61.3677C157.25 61.4024 157.108 61.471 157.02 61.5712C156.933 61.6714 156.889 61.8205 156.889 62.0185C156.889 62.2086 156.923 62.3529 156.989 62.4515C157.057 62.5509 157.143 62.6014 157.248 62.6014ZM169.129 63.1985C168.941 63.1985 168.847 63.0841 168.847 62.8554V60.0859H167.288C167.116 60.0859 167.002 60.1103 166.944 60.1608C166.886 60.2105 166.856 60.3075 166.856 60.4487V62.1186C166.856 62.3711 166.824 62.5714 166.759 62.7221C166.695 62.8719 166.595 62.9816 166.459 63.0486C166.322 63.1157 166.148 63.1488 165.934 63.1488C165.813 63.1488 165.717 63.1267 165.644 63.0841C165.57 63.0423 165.532 62.9674 165.532 62.8593C165.532 62.6716 165.656 62.5777 165.903 62.5777C166.047 62.5777 166.148 62.5525 166.204 62.5004C166.261 62.4491 166.289 62.3569 166.289 62.2228V60.545C166.289 60.2799 166.318 60.0733 166.373 59.9242C166.428 59.7751 166.524 59.6694 166.662 59.6094C166.8 59.5487 166.989 59.5187 167.23 59.5187H169.415V62.8475C169.415 63.0818 169.319 63.1985 169.129 63.1985ZM175.53 63.1449V59.8082C175.53 59.5795 175.624 59.4651 175.812 59.4651C176.002 59.4651 176.098 59.5795 176.098 59.8082V60.9891H177.749C178.025 60.9891 178.261 61.0285 178.459 61.1098C178.657 61.1902 178.81 61.3117 178.918 61.471C179.026 61.6304 179.08 61.8284 179.08 62.065C179.08 62.3016 179.027 62.4996 178.921 62.659C178.814 62.8183 178.661 62.9382 178.462 63.0179C178.262 63.0975 178.025 63.1394 177.749 63.1449H175.53ZM176.098 62.5777H177.684C177.917 62.5777 178.115 62.543 178.274 62.4752C178.433 62.4066 178.513 62.2796 178.513 62.0918C178.513 61.9372 178.48 61.822 178.411 61.7447C178.343 61.6674 178.247 61.6162 178.122 61.5917C177.997 61.5673 177.851 61.5554 177.684 61.5554H176.098V62.5777ZM179.64 63.2837C179.454 63.2837 179.362 63.1748 179.362 62.9556V59.7159C179.362 59.6102 179.387 59.5266 179.438 59.4667C179.488 59.4059 179.556 59.3767 179.644 59.3767C179.734 59.3767 179.805 59.4059 179.854 59.4667C179.905 59.5266 179.929 59.6102 179.929 59.7159V62.9556C179.929 63.1748 179.832 63.2837 179.64 63.2837Z" fill="#B3E2ED"/>
<defs>
<linearGradient id="paint0_linear_170_426" x1="61.7164" y1="29.4419" x2="82.1602" y2="29.4419" gradientUnits="userSpaceOnUse">
<stop stop-color="#0C2D35"/>
<stop offset="1" stop-color="#18948F"/>
</linearGradient>
<linearGradient id="paint1_linear_170_426" x1="55.9459" y1="19.9758" x2="75.6996" y2="19.9758" gradientUnits="userSpaceOnUse">
<stop stop-color="#0C2D35"/>
<stop offset="1" stop-color="#18948F"/>
</linearGradient>
<linearGradient id="paint2_linear_170_426" x1="55.0693" y1="17.3274" x2="72.4676" y2="17.3274" gradientUnits="userSpaceOnUse">
<stop stop-color="#EB6320"/>
<stop offset="0.501961" stop-color="#FAB909"/>
<stop offset="1" stop-color="#FCEB0D"/>
</linearGradient>
<linearGradient id="paint3_linear_170_426" x1="66.5645" y1="30.3352" x2="86.0743" y2="30.3352" gradientUnits="userSpaceOnUse">
<stop stop-color="#EB6320"/>
<stop offset="0.501961" stop-color="#FAB909"/>
<stop offset="1" stop-color="#FCEB0D"/>
</linearGradient>
<linearGradient id="paint4_linear_170_426" x1="56.7499" y1="16.9286" x2="71.763" y2="17.7226" gradientUnits="userSpaceOnUse">
<stop stop-color="#FCEB0D"/>
<stop offset="0.560784" stop-color="#ED6E24"/>
<stop offset="1" stop-color="#FECD14"/>
</linearGradient>
<linearGradient id="paint5_linear_170_426" x1="66.5645" y1="30.3352" x2="86.0743" y2="30.3352" gradientUnits="userSpaceOnUse">
<stop stop-color="#FCEB0D"/>
<stop offset="0.301961" stop-color="#F8B034"/>
<stop offset="0.501961" stop-color="#F7A826"/>
<stop offset="0.690196" stop-color="#FBBF28"/>
<stop offset="1" stop-color="#FECD14"/>
</linearGradient>
<linearGradient id="paint6_linear_170_426" x1="59.9297" y1="23.9137" x2="78.7715" y2="23.9137" gradientUnits="userSpaceOnUse">
<stop stop-color="#EB6320"/>
<stop offset="0.501961" stop-color="#FAB909"/>
<stop offset="1" stop-color="#FCEB0D"/>
</linearGradient>
<linearGradient id="paint7_linear_170_426" x1="69.0115" y1="43.1313" x2="72.2951" y2="5.04588" gradientUnits="userSpaceOnUse">
<stop stop-color="#FCEB0D"/>
<stop offset="0.501961" stop-color="#F8B027"/>
<stop offset="1" stop-color="#FECD14"/>
</linearGradient>
<linearGradient id="paint8_linear_170_426" x1="56.1924" y1="20.6649" x2="67.5404" y2="20.6649" gradientUnits="userSpaceOnUse">
<stop stop-color="#FEFEFE"/>
<stop offset="0.490196" stop-color="#FEFEFE"/>
<stop offset="1" stop-color="#FEFEFE"/>
</linearGradient>
<linearGradient id="paint9_linear_170_426" x1="62.4331" y1="26.9722" x2="74.6388" y2="26.9722" gradientUnits="userSpaceOnUse">
<stop stop-color="#FEFEFE"/>
<stop offset="0.490196" stop-color="#FEFEFE"/>
<stop offset="1" stop-color="#FEFEFE"/>
</linearGradient>
<linearGradient id="paint10_linear_170_426" x1="74.2793" y1="33.2443" x2="82.9446" y2="33.2443" gradientUnits="userSpaceOnUse">
<stop stop-color="#FEFEFE"/>
<stop offset="0.490196" stop-color="#FEFEFE"/>
<stop offset="1" stop-color="#FEFEFE"/>
</linearGradient>
<linearGradient id="paint11_linear_170_426" x1="136.25" y1="54.1225" x2="133.737" y2="25.9706" gradientUnits="userSpaceOnUse">
<stop stop-color="#215C6A"/>
<stop offset="1" stop-color="#26AAAB"/>
</linearGradient>
<linearGradient id="paint12_linear_170_426" x1="26.9445" y1="54.1009" x2="22.6872" y2="26.4449" gradientUnits="userSpaceOnUse">
<stop stop-color="#215C6A"/>
<stop offset="1" stop-color="#26AAAB"/>
</linearGradient>
</defs>
</svg>
