<svg width="182" height="37" viewBox="0 0 182 37" fill="none" xmlns="http://www.w3.org/2000/svg">
<g clip-path="url(#clip0_998_2)">
<path d="M175.297 27.5406C174.995 27.5406 174.74 27.6459 174.53 27.8536C174.32 28.0613 174.213 28.3299 174.213 28.6594V35.181C174.213 35.5077 174.32 35.7763 174.53 35.984C174.74 36.1917 174.997 36.2969 175.297 36.2969H180.807C181.11 36.2969 181.365 36.1917 181.575 35.984C181.787 35.7763 181.891 35.5077 181.891 35.181V28.6566C181.891 28.3299 181.785 28.0613 181.575 27.8508C181.365 27.6431 181.11 27.5379 180.807 27.5379H175.297V27.5406ZM0.0786133 19.0086V19.3188V34.9539C0.0786133 35.3083 0.213014 35.624 0.484614 35.8926C0.756213 36.1613 1.07261 36.2942 1.43381 36.2942L28.9578 36.2914L29.0474 36.2942H35.4986C35.8878 36.2942 36.221 36.1696 36.4926 35.9148C36.7642 35.6628 36.8986 35.3388 36.8986 34.9539V29.0139C36.8986 28.629 36.7642 28.2994 36.4926 28.0308C36.221 27.7622 35.8906 27.6293 35.4986 27.6293H30.7554L30.7386 27.6708L13.9218 27.668C13.0818 27.668 12.5806 27.1336 12.5834 26.1671L12.589 19.0502C12.589 15.9237 13.5298 13.5117 15.4114 11.8114C17.293 10.1139 19.9222 9.26372 23.2934 9.26372C24.3182 9.26372 25.3346 9.33849 26.3426 9.48802C27.3506 9.63756 28.367 9.84526 29.3918 10.1139C31.4694 10.6511 33.1718 11.1579 34.4962 11.6314C34.9778 11.8114 35.4146 11.7588 35.8066 11.4736C36.1986 11.1911 36.3638 10.7813 36.305 10.244L35.8066 3.67818C35.7758 3.44002 35.6722 3.20187 35.4902 2.96372C35.3082 2.72556 35.0982 2.57602 34.8574 2.51787C33.2306 1.98064 31.2734 1.52926 28.9858 1.15541C26.6982 0.784333 24.0914 0.596024 21.171 0.596024C17.8278 0.596024 14.8486 1.00587 12.2278 1.82556C9.60701 2.64526 7.39501 3.84433 5.58901 5.42279C3.78301 7.00126 2.41101 8.95079 1.47861 11.2742C0.577014 13.5228 0.112213 16.0982 0.0786133 19.0086ZM131.124 27.5406H128.607C128.305 27.5406 128.05 27.6459 127.84 27.8536C127.627 28.0613 127.523 28.3299 127.523 28.6566V35.1782C127.523 35.505 127.63 35.7736 127.84 35.9813C128.05 36.1889 128.305 36.2942 128.607 36.2942H130.892H131.362V35.696V27.5379H134.12C134.423 27.5379 134.677 27.6431 134.887 27.8508C135.097 28.0585 135.204 28.3271 135.204 28.6539V35.1754C135.204 35.5022 135.097 35.7708 134.887 35.9785C134.689 36.1751 134.448 36.2803 134.168 36.2914L170.786 36.2859C171.072 36.2859 171.29 36.0256 171.486 35.7708C171.682 35.5188 171.78 35.2585 171.78 34.9899V17.5714C171.78 17.1837 171.646 16.8625 171.374 16.6105C171.103 16.3557 170.772 16.2311 170.38 16.2311H155.927C155.535 16.2311 155.204 16.3557 154.933 16.6105C154.661 16.8653 154.527 17.1837 154.527 17.5714V23.5114C154.527 23.8991 154.664 24.2259 154.933 24.4945C155.204 24.7631 155.535 24.896 155.927 24.896H160.67L160.703 28.3686L144.973 28.3631C144.127 28.3631 143.632 27.8286 143.635 26.8622L143.64 18.9976C143.643 16.0788 144.662 13.7028 146.757 11.9388C148.904 10.1305 151.785 9.25818 155.339 9.25818C156.484 9.25818 157.621 9.3191 158.749 9.43818C159.877 9.55726 161 9.72064 162.115 9.92833C164.402 10.3769 166.359 10.8366 167.986 11.3129C168.499 11.4625 168.935 11.3794 169.297 11.0665C169.658 10.7536 169.809 10.3437 169.747 9.83695L168.98 3.62833C168.949 3.39018 168.837 3.16033 168.641 2.93602C168.445 2.71172 168.227 2.57049 167.986 2.51233C166.421 2.03602 164.357 1.59572 161.798 1.19418C159.239 0.792641 156.363 0.590485 153.171 0.590485C146.605 0.590485 141.291 2.25756 137.225 5.59449C133.16 8.98956 131.127 13.592 131.127 19.3991C131.127 19.7342 131.133 20.0665 131.147 20.3933C131.135 20.3877 131.127 20.3877 131.127 20.396V27.5406H131.124ZM117.821 22.0271C122.035 20.3102 125.253 17.0868 125.253 11.0997C125.253 8.09233 123.987 5.66372 121.459 3.81664C119.109 2.1191 115.993 1.27172 112.109 1.27172H89.4322C89.071 1.27172 88.7546 1.40464 88.483 1.67326C88.2114 1.94187 88.077 2.25479 88.077 2.61202V27.5406H90.8322C91.1346 27.5406 91.3894 27.6459 91.6022 27.8536C91.8122 28.0613 91.9186 28.3299 91.9186 28.6566V35.1782C91.9186 35.505 91.815 35.7736 91.6022 35.9813C91.4006 36.1806 91.1598 36.2831 90.877 36.2942H99.4618C99.8538 36.2942 100.184 36.1613 100.456 35.8926C100.727 35.624 100.862 35.3111 100.862 34.9539V23.9213H105.235C105.636 24.1816 105.989 24.5859 106.21 24.9929L111.947 35.5354C112.062 35.7459 112.241 35.9231 112.468 36.0699C112.692 36.2194 112.927 36.2942 113.168 36.2942H124.642C125.213 36.2942 125.628 36.0782 125.883 35.6462C126.137 35.2142 126.115 34.7462 125.815 34.2394C123.581 30.5148 120.929 25.0982 117.933 22.1323L117.821 22.0271ZM107.635 9.26649C109.293 9.26649 110.555 9.51849 111.429 10.0253C112.303 10.532 112.739 11.3351 112.739 12.4373C112.739 13.7471 112.165 14.6554 111.023 15.1622C109.878 15.6689 108.209 15.9209 106.008 15.9209H100.587V9.26372H107.635V9.26649ZM88.0742 27.5406H87.951H85.319C85.0166 27.5406 84.7618 27.6459 84.5518 27.8536C84.3418 28.0613 84.2354 28.3299 84.2354 28.6566V35.1782C84.2354 35.505 84.3418 35.7736 84.5518 35.9813C84.7618 36.1889 85.0194 36.2942 85.319 36.2942H87.6038H88.0742V27.5406ZM64.3442 12.1271C63.0506 10.4296 61.7766 8.74033 60.5278 7.05664C59.279 5.37295 57.991 3.63941 56.6666 1.85326C56.605 1.70372 56.4482 1.57079 56.1906 1.45171C55.9358 1.33264 55.7174 1.27449 55.5354 1.27449H45.5086C45.1474 1.27449 44.831 1.40741 44.5594 1.67603C44.2878 1.94464 44.1534 2.25757 44.1534 2.6148V27.5434H44.0302H41.3982C41.0958 27.5434 40.841 27.6486 40.631 27.8563C40.421 28.064 40.3146 28.3326 40.3146 28.6594V35.181C40.3146 35.5077 40.421 35.7763 40.631 35.984C40.841 36.1917 41.0986 36.2969 41.3982 36.2969H43.683H44.1534V27.5406H46.9086C47.211 27.5406 47.4658 27.6459 47.6758 27.8536C47.8858 28.0613 47.9922 28.3299 47.9922 28.6566V35.1782C47.9922 35.505 47.8858 35.7736 47.6758 35.9813C47.4742 36.1806 47.2334 36.2831 46.9506 36.2942H54.3174C54.7094 36.2942 55.0398 36.1613 55.3114 35.8926C55.583 35.624 55.7174 35.3111 55.7174 34.9539V18.7816L68.4546 35.757C68.575 35.9065 68.757 36.0311 68.9978 36.1363C69.2386 36.2416 69.4346 36.2914 69.5858 36.2914H79.705C80.097 36.2914 80.4274 36.1585 80.699 35.8899C80.9706 35.6213 81.105 35.3083 81.105 34.9511V2.60648C81.105 2.24925 80.9706 1.93633 80.699 1.66771C80.4274 1.3991 80.097 1.26618 79.705 1.26618H70.8962C70.5042 1.26618 70.1738 1.3991 69.9022 1.66771C69.6306 1.93633 69.4962 2.24925 69.4962 2.60648V19.0474C68.6226 17.8566 67.7658 16.688 66.9202 15.5416C66.0774 14.3979 65.2178 13.2597 64.3442 12.1271Z" fill="white"/>
</g>
<defs>
<clipPath id="clip0_998_2">
<rect width="182" height="36" fill="white" transform="translate(0 0.54895)"/>
</clipPath>
</defs>
</svg>
