<svg width="110" height="79" viewBox="0 0 110 79" fill="none" xmlns="http://www.w3.org/2000/svg">
<path fill-rule="evenodd" clip-rule="evenodd" d="M78.0556 11.4301C77.8759 11.2956 72.9782 8.78549 64.8453 7.26147L64.5307 5.91676C63.7219 2.42049 60.6665 0 57.0718 0H49.7477C46.153 0 43.0976 2.42049 42.2888 5.91676L41.9742 7.26147C33.8413 8.78549 28.9436 11.2956 28.7639 11.4301C28.2696 11.6542 28 12.1473 28 12.6403V29.1804C28 35.8143 33.392 41.1932 40.0421 41.1932C40.806 41.1932 41.435 40.5656 41.435 39.8036C41.435 39.0416 40.806 38.4141 40.0421 38.4141C34.9647 38.4141 30.8308 34.2903 30.8308 29.1804V13.5368C32.4933 12.7748 36.9417 10.937 43.3672 9.86126C43.9064 9.77161 44.3557 9.32337 44.4905 8.78549L45.0297 6.54429C45.524 4.34792 47.4561 2.82391 49.7477 2.82391H57.0718C59.3185 2.82391 61.2955 4.34792 61.7898 6.54429L62.329 8.78549C62.4638 9.32337 62.9131 9.77161 63.4523 9.86126C69.8328 10.937 74.3262 12.7748 75.9887 13.5368V29.1804C75.9887 34.2455 71.8548 38.4141 66.7774 38.4141C66.0135 38.4141 65.3845 39.0416 65.3845 39.8036C65.3845 40.5656 66.0135 41.1932 66.7774 41.1932C73.4275 41.1932 78.8195 35.8143 78.8195 29.1804V12.6403C78.8195 12.1473 78.5499 11.6542 78.0556 11.4301Z" fill="#E4ECF0"/>
<path fill-rule="evenodd" clip-rule="evenodd" d="M32.6279 8.56138C32.7627 8.56138 32.8975 8.51656 33.0323 8.47174C34.5151 7.97867 36.0877 7.57526 37.6604 7.17184C38.4243 6.99255 38.8736 6.23054 38.6939 5.51336C38.5141 4.75135 37.7503 4.30311 37.0313 4.43758C35.3688 4.841 33.7063 5.33406 32.1785 5.82712C31.4147 6.05124 31.0103 6.85807 31.2799 7.57526C31.4596 8.20279 32.0437 8.56138 32.6279 8.56138Z" fill="#E4ECF0"/>
<path fill-rule="evenodd" clip-rule="evenodd" d="M53.4318 9.68198C44.4901 9.68198 37.2109 16.9434 37.2109 25.8634C37.2109 34.7385 44.4901 42 53.4318 42C62.3286 42 69.6078 34.7834 69.6078 25.8634C69.6078 16.9434 62.3286 9.68198 53.4318 9.68198ZM53.4318 39.2209C46.0179 39.2209 40.0417 33.2145 40.0417 25.8634C40.0417 18.5123 46.0179 12.5059 53.4318 12.5059C60.8009 12.5059 66.777 18.5123 66.777 25.8634C66.777 33.2145 60.8009 39.2209 53.4318 39.2209Z" fill="#E4ECF0"/>
<path d="M5.24678 66.59C4.95278 66.59 4.80578 66.401 4.80578 66.023V63.258C4.55378 63.5333 4.29011 63.734 4.01478 63.86C3.73945 63.9813 3.40811 64.042 3.02078 64.042C1.40611 64.042 0.598781 63.111 0.598781 61.249V60.297C0.598781 58.435 1.40611 57.504 3.02078 57.504C3.40811 57.504 3.73945 57.5647 4.01478 57.686C4.29011 57.8073 4.55378 58.0057 4.80578 58.281V55.523C4.80578 55.145 4.95278 54.956 5.24678 54.956C5.54078 54.956 5.68778 55.145 5.68778 55.523V58.281C5.93978 58.0057 6.20345 57.8073 6.47878 57.686C6.75878 57.5647 7.09012 57.504 7.47278 57.504C9.08745 57.504 9.89478 58.435 9.89478 60.297V61.249C9.89478 62.1637 9.70111 62.859 9.31378 63.335C8.92645 63.8063 8.31278 64.042 7.47278 64.042C7.09012 64.042 6.75878 63.9813 6.47878 63.86C6.20345 63.734 5.93978 63.5333 5.68778 63.258V66.023C5.68778 66.401 5.54078 66.59 5.24678 66.59ZM3.07678 63.153C3.49678 63.153 3.83278 63.041 4.08478 62.817C4.34145 62.593 4.52578 62.299 4.63778 61.935C4.74978 61.571 4.80578 61.1813 4.80578 60.766C4.80578 60.3133 4.74511 59.9073 4.62378 59.548C4.50711 59.1887 4.31578 58.9063 4.04978 58.701C3.78845 58.491 3.44311 58.386 3.01378 58.386C2.65911 58.386 2.37678 58.4397 2.16678 58.547C1.96145 58.6497 1.80978 58.792 1.71178 58.974C1.61378 59.156 1.55078 59.3613 1.52278 59.59C1.49478 59.814 1.48078 60.0497 1.48078 60.297V61.249C1.48078 61.921 1.59278 62.4063 1.81678 62.705C2.04545 62.999 2.46545 63.1483 3.07678 63.153ZM7.49378 63.16C7.90912 63.16 8.22645 63.0877 8.44578 62.943C8.66511 62.7983 8.81445 62.586 8.89378 62.306C8.97312 62.0213 9.01278 61.669 9.01278 61.249V60.297C9.01278 59.625 8.90078 59.1373 8.67678 58.834C8.45745 58.5307 8.04212 58.379 7.43078 58.379C7.02478 58.379 6.69345 58.4863 6.43678 58.701C6.18012 58.9157 5.99111 59.205 5.86978 59.569C5.74845 59.9283 5.68778 60.3273 5.68778 60.766C5.68778 61.2233 5.75078 61.634 5.87678 61.998C6.00278 62.3573 6.19878 62.642 6.46478 62.852C6.73078 63.0573 7.07378 63.16 7.49378 63.16ZM14.7853 64.042C14.0106 64.042 13.3829 63.9673 12.9023 63.818C12.4216 63.6687 12.0693 63.412 11.8453 63.048C11.6259 62.684 11.5163 62.1777 11.5163 61.529V60.017C11.5163 59.3683 11.6259 58.862 11.8453 58.498C12.0693 58.1293 12.4216 57.8727 12.9023 57.728C13.3829 57.5787 14.0106 57.504 14.7853 57.504H15.1913C15.9659 57.504 16.5913 57.5787 17.0673 57.728C17.5479 57.8773 17.8979 58.134 18.1173 58.498C18.3366 58.862 18.4463 59.3683 18.4463 60.017V61.529C18.4463 62.173 18.3366 62.6793 18.1173 63.048C17.8979 63.412 17.5479 63.6687 17.0673 63.818C16.5913 63.9673 15.9659 64.042 15.1913 64.042H14.7853ZM14.7853 63.16H15.1913C15.8353 63.16 16.3276 63.1203 16.6683 63.041C17.0089 62.957 17.2423 62.796 17.3683 62.558C17.4989 62.32 17.5643 61.97 17.5643 61.508V60.038C17.5643 59.5527 17.4966 59.1933 17.3613 58.96C17.2306 58.7267 16.9926 58.5727 16.6473 58.498C16.3066 58.4233 15.8213 58.386 15.1913 58.386H14.7853C14.1506 58.386 13.6606 58.4233 13.3153 58.498C12.9699 58.5727 12.7296 58.729 12.5943 58.967C12.4636 59.2003 12.3983 59.5573 12.3983 60.038V61.508C12.3983 61.9747 12.4636 62.327 12.5943 62.565C12.7249 62.7983 12.9606 62.957 13.3013 63.041C13.6466 63.1203 14.1413 63.16 14.7853 63.16ZM22.5665 64.14C22.2539 64.14 22.0975 63.972 22.0975 63.636V58.386H20.0045C19.6452 58.386 19.4655 58.239 19.4655 57.945C19.4655 57.651 19.6452 57.504 20.0045 57.504H25.1285C25.4879 57.504 25.6675 57.651 25.6675 57.945C25.6675 58.239 25.4879 58.386 25.1285 58.386H23.0495V63.636C23.0495 63.7947 23.0075 63.9183 22.9235 64.007C22.8395 64.0957 22.7205 64.14 22.5665 64.14ZM29.9474 64.042C29.1727 64.042 28.545 63.9673 28.0644 63.818C27.5837 63.6687 27.2314 63.412 27.0074 63.048C26.788 62.684 26.6784 62.1777 26.6784 61.529V60.017C26.6784 59.3683 26.788 58.862 27.0074 58.498C27.2314 58.1293 27.5837 57.8727 28.0644 57.728C28.545 57.5787 29.1727 57.504 29.9474 57.504H30.3534C31.128 57.504 31.7534 57.5787 32.2294 57.728C32.71 57.8773 33.06 58.134 33.2794 58.498C33.4987 58.862 33.6084 59.3683 33.6084 60.017V61.529C33.6084 62.173 33.4987 62.6793 33.2794 63.048C33.06 63.412 32.71 63.6687 32.2294 63.818C31.7534 63.9673 31.128 64.042 30.3534 64.042H29.9474ZM29.9474 63.16H30.3534C30.9974 63.16 31.4897 63.1203 31.8304 63.041C32.171 62.957 32.4044 62.796 32.5304 62.558C32.661 62.32 32.7264 61.97 32.7264 61.508V60.038C32.7264 59.5527 32.6587 59.1933 32.5234 58.96C32.3927 58.7267 32.1547 58.5727 31.8094 58.498C31.4687 58.4233 30.9834 58.386 30.3534 58.386H29.9474C29.3127 58.386 28.8227 58.4233 28.4774 58.498C28.132 58.5727 27.8917 58.729 27.7564 58.967C27.6257 59.2003 27.5604 59.5573 27.5604 60.038V61.508C27.5604 61.9747 27.6257 62.327 27.7564 62.565C27.887 62.7983 28.1227 62.957 28.4634 63.041C28.8087 63.1203 29.3034 63.16 29.9474 63.16ZM39.2611 64.042V57.504H43.6641C44.3501 57.504 44.9078 57.658 45.3371 57.966C45.7664 58.274 45.9811 58.729 45.9811 59.331C45.9811 59.695 45.9134 59.982 45.7781 60.192C45.6428 60.3973 45.4538 60.563 45.2111 60.689C45.7244 61.039 45.9811 61.5313 45.9811 62.166C45.9811 62.5813 45.8831 62.929 45.6871 63.209C45.4911 63.4843 45.2181 63.692 44.8681 63.832C44.5228 63.972 44.1214 64.042 43.6641 64.042H39.2611ZM40.1431 63.16H43.5661C44.5881 63.16 45.0991 62.887 45.0991 62.341C45.0991 61.9117 44.9801 61.599 44.7421 61.403C44.5088 61.207 44.1354 61.109 43.6221 61.109H40.1431V63.16ZM40.1431 60.227H43.6221C44.1728 60.227 44.5578 60.1593 44.7771 60.024C45.0011 59.884 45.1131 59.611 45.1131 59.205C45.1131 58.659 44.5974 58.386 43.5661 58.386H40.1431V60.227ZM48.267 66.59C47.9824 66.59 47.84 66.401 47.84 66.023V57.952C47.84 57.588 47.9894 57.406 48.288 57.406C48.442 57.406 48.5517 57.4573 48.617 57.56C48.6824 57.658 48.715 57.8213 48.715 58.05V58.736L48.561 58.533C48.841 58.1783 49.1934 57.9193 49.618 57.756C50.0474 57.588 50.5444 57.504 51.109 57.504H51.515C52.2897 57.504 52.915 57.5787 53.391 57.728C53.8717 57.8773 54.2217 58.134 54.441 58.498C54.6604 58.862 54.77 59.3683 54.77 60.017V61.529C54.77 62.173 54.6604 62.6793 54.441 63.048C54.2217 63.412 53.874 63.6687 53.398 63.818C52.9267 63.9673 52.306 64.042 51.536 64.042H48.722V66.023C48.722 66.401 48.5704 66.59 48.267 66.59ZM48.722 63.16H51.536C52.1754 63.16 52.663 63.1203 52.999 63.041C53.3397 62.957 53.573 62.796 53.699 62.558C53.825 62.32 53.888 61.97 53.888 61.508V60.038C53.888 59.5527 53.8204 59.1933 53.685 58.96C53.5544 58.7267 53.3164 58.5727 52.971 58.498C52.6304 58.4233 52.145 58.386 51.515 58.386H51.109C50.3157 58.386 49.7184 58.5843 49.317 58.981C48.9204 59.3777 48.722 59.968 48.722 60.752V63.16ZM59.6837 64.042C58.909 64.042 58.2814 63.9673 57.8007 63.818C57.32 63.6687 56.9677 63.412 56.7437 63.048C56.5244 62.684 56.4147 62.1777 56.4147 61.529V60.017C56.4147 59.3683 56.5244 58.862 56.7437 58.498C56.9677 58.1293 57.32 57.8727 57.8007 57.728C58.2814 57.5787 58.909 57.504 59.6837 57.504H60.0897C60.8644 57.504 61.4897 57.5787 61.9657 57.728C62.4464 57.8773 62.7964 58.134 63.0157 58.498C63.235 58.862 63.3447 59.3683 63.3447 60.017V60.647H57.2967V61.508C57.2967 61.9747 57.362 62.327 57.4927 62.565C57.6234 62.7983 57.859 62.957 58.1997 63.041C58.545 63.1203 59.0397 63.16 59.6837 63.16H61.6997C61.9704 63.16 62.1524 63.1063 62.2457 62.999C62.3437 62.887 62.3927 62.6957 62.3927 62.425C62.3927 62.229 62.4347 62.082 62.5187 61.984C62.6027 61.8813 62.71 61.83 62.8407 61.83C62.976 61.83 63.081 61.8813 63.1557 61.984C63.235 62.0867 63.2747 62.2313 63.2747 62.418C63.2747 62.754 63.2304 63.0433 63.1417 63.286C63.0577 63.5287 62.9084 63.7153 62.6937 63.846C62.479 63.9767 62.1804 64.042 61.7977 64.042H59.6837ZM57.3037 59.765H62.4627C62.4347 59.233 62.283 58.876 62.0077 58.694C61.8397 58.5773 61.5947 58.498 61.2727 58.456C60.9507 58.4093 60.5564 58.386 60.0897 58.386H59.6837C59.2077 58.386 58.811 58.407 58.4937 58.449C58.1764 58.4863 57.9337 58.561 57.7657 58.673C57.4717 58.8503 57.3177 59.2143 57.3037 59.765ZM65.5553 64.14C65.2613 64.14 65.1143 63.958 65.1143 63.594V57.966C65.1143 57.5927 65.2519 57.406 65.5273 57.406C65.7139 57.406 65.8749 57.504 66.0103 57.7L68.6143 61.501L71.2323 57.7C71.3676 57.504 71.5239 57.406 71.7013 57.406C71.9859 57.406 72.1283 57.5927 72.1283 57.966V63.594C72.1283 63.958 71.9813 64.14 71.6873 64.14C71.3933 64.14 71.2463 63.951 71.2463 63.573V59.023L68.9363 62.446C68.8709 62.5393 68.7706 62.586 68.6353 62.586C68.5746 62.586 68.5139 62.5767 68.4533 62.558C68.3926 62.5347 68.3459 62.4973 68.3133 62.446L65.9963 59.023V63.573C65.9963 63.951 65.8493 64.14 65.5553 64.14ZM77.211 64.042C76.4364 64.042 75.8087 63.9673 75.328 63.818C74.8474 63.6687 74.495 63.412 74.271 63.048C74.0517 62.684 73.942 62.1777 73.942 61.529V60.017C73.942 59.3683 74.0517 58.862 74.271 58.498C74.495 58.1293 74.8474 57.8727 75.328 57.728C75.8087 57.5787 76.4364 57.504 77.211 57.504H77.617C78.3917 57.504 79.017 57.5787 79.493 57.728C79.9737 57.8773 80.3237 58.134 80.543 58.498C80.7624 58.862 80.872 59.3683 80.872 60.017V60.647H74.824V61.508C74.824 61.9747 74.8894 62.327 75.02 62.565C75.1507 62.7983 75.3864 62.957 75.727 63.041C76.0724 63.1203 76.567 63.16 77.211 63.16H79.227C79.4977 63.16 79.6797 63.1063 79.773 62.999C79.871 62.887 79.92 62.6957 79.92 62.425C79.92 62.229 79.962 62.082 80.046 61.984C80.13 61.8813 80.2374 61.83 80.368 61.83C80.5034 61.83 80.6084 61.8813 80.683 61.984C80.7624 62.0867 80.802 62.2313 80.802 62.418C80.802 62.754 80.7577 63.0433 80.669 63.286C80.585 63.5287 80.4357 63.7153 80.221 63.846C80.0064 63.9767 79.7077 64.042 79.325 64.042H77.211ZM74.831 59.765H79.99C79.962 59.233 79.8104 58.876 79.535 58.694C79.367 58.5773 79.122 58.498 78.8 58.456C78.478 58.4093 78.0837 58.386 77.617 58.386H77.211C76.735 58.386 76.3384 58.407 76.021 58.449C75.7037 58.4863 75.461 58.561 75.293 58.673C74.999 58.8503 74.845 59.2143 74.831 59.765ZM83.0826 64.14C82.7886 64.14 82.6416 63.958 82.6416 63.594V57.966C82.6416 57.5927 82.7793 57.406 83.0546 57.406C83.3673 57.406 83.5236 57.5927 83.5236 57.966V60.143H88.3396V57.966C88.3396 57.5927 88.4866 57.406 88.7806 57.406C89.0746 57.406 89.2216 57.5927 89.2216 57.966V63.594C89.2216 63.958 89.0746 64.14 88.7806 64.14C88.4866 64.14 88.3396 63.958 88.3396 63.594V61.025H83.5236V63.594C83.5236 63.958 83.3766 64.14 83.0826 64.14ZM91.6686 64.14C91.3746 64.14 91.2276 63.958 91.2276 63.594V57.966C91.2276 57.5927 91.3652 57.406 91.6406 57.406C91.9532 57.406 92.1096 57.5927 92.1096 57.966V60.143H96.9256V57.966C96.9256 57.5927 97.0726 57.406 97.3666 57.406C97.6606 57.406 97.8076 57.5927 97.8076 57.966V63.594C97.8076 63.958 97.6606 64.14 97.3666 64.14C97.0726 64.14 96.9256 63.958 96.9256 63.594V61.025H92.1096V63.594C92.1096 63.958 91.9626 64.14 91.6686 64.14ZM102.901 64.042C102.126 64.042 101.498 63.9673 101.018 63.818C100.537 63.6687 100.185 63.412 99.9605 63.048C99.7412 62.684 99.6315 62.1777 99.6315 61.529V60.017C99.6315 59.3683 99.7412 58.862 99.9605 58.498C100.185 58.1293 100.537 57.8727 101.018 57.728C101.498 57.5787 102.126 57.504 102.901 57.504H103.307C104.081 57.504 104.707 57.5787 105.183 57.728C105.663 57.8773 106.013 58.134 106.233 58.498C106.452 58.862 106.561 59.3683 106.561 60.017V61.529C106.561 62.173 106.452 62.6793 106.233 63.048C106.013 63.412 105.663 63.6687 105.183 63.818C104.707 63.9673 104.081 64.042 103.307 64.042H102.901ZM102.901 63.16H103.307C103.951 63.16 104.443 63.1203 104.784 63.041C105.124 62.957 105.358 62.796 105.484 62.558C105.614 62.32 105.68 61.97 105.68 61.508V60.038C105.68 59.5527 105.612 59.1933 105.477 58.96C105.346 58.7267 105.108 58.5727 104.763 58.498C104.422 58.4233 103.937 58.386 103.307 58.386H102.901C102.266 58.386 101.776 58.4233 101.431 58.498C101.085 58.5727 100.845 58.729 100.71 58.967C100.579 59.2003 100.514 59.5573 100.514 60.038V61.508C100.514 61.9747 100.579 62.327 100.71 62.565C100.84 62.7983 101.076 62.957 101.417 63.041C101.762 63.1203 102.257 63.16 102.901 63.16ZM16.3849 76.042C15.6102 76.042 14.9825 75.9673 14.5019 75.818C14.0212 75.6687 13.6689 75.412 13.4449 75.048C13.2255 74.684 13.1159 74.1777 13.1159 73.529V72.017C13.1159 71.3683 13.2255 70.862 13.4449 70.498C13.6689 70.1293 14.0212 69.8727 14.5019 69.728C14.9825 69.5787 15.6102 69.504 16.3849 69.504H16.7909C17.5655 69.504 18.1909 69.5787 18.6669 69.728C19.1475 69.8773 19.4975 70.134 19.7169 70.498C19.9362 70.862 20.0459 71.3683 20.0459 72.017V73.529C20.0459 74.173 19.9362 74.6793 19.7169 75.048C19.4975 75.412 19.1475 75.6687 18.6669 75.818C18.1909 75.9673 17.5655 76.042 16.7909 76.042H16.3849ZM16.3849 75.16H16.7909C17.4349 75.16 17.9272 75.1203 18.2679 75.041C18.6085 74.957 18.8419 74.796 18.9679 74.558C19.0985 74.32 19.1639 73.97 19.1639 73.508V72.038C19.1639 71.5527 19.0962 71.1933 18.9609 70.96C18.8302 70.7267 18.5922 70.5727 18.2469 70.498C17.9062 70.4233 17.4209 70.386 16.7909 70.386H16.3849C15.7502 70.386 15.2602 70.4233 14.9149 70.498C14.5695 70.5727 14.3292 70.729 14.1939 70.967C14.0632 71.2003 13.9979 71.5573 13.9979 72.038V73.508C13.9979 73.9747 14.0632 74.327 14.1939 74.565C14.3245 74.7983 14.5602 74.957 14.9009 75.041C15.2462 75.1203 15.7409 75.16 16.3849 75.16ZM24.1661 76.14C23.8535 76.14 23.6971 75.972 23.6971 75.636V70.386H21.6041C21.2448 70.386 21.0651 70.239 21.0651 69.945C21.0651 69.651 21.2448 69.504 21.6041 69.504H26.7281C27.0875 69.504 27.2671 69.651 27.2671 69.945C27.2671 70.239 27.0875 70.386 26.7281 70.386H24.6491V75.636C24.6491 75.7947 24.6071 75.9183 24.5231 76.007C24.4391 76.0957 24.3201 76.14 24.1661 76.14ZM31.547 76.042C30.7723 76.042 30.1447 75.9673 29.664 75.818C29.1833 75.6687 28.831 75.412 28.607 75.048C28.3877 74.684 28.278 74.1777 28.278 73.529V72.017C28.278 71.3683 28.3877 70.862 28.607 70.498C28.831 70.1293 29.1833 69.8727 29.664 69.728C30.1447 69.5787 30.7723 69.504 31.547 69.504H33.549C33.9177 69.504 34.207 69.5717 34.417 69.707C34.6317 69.8377 34.781 70.0197 34.865 70.253C34.9537 70.4817 34.998 70.743 34.998 71.037C34.998 71.2657 34.9607 71.436 34.886 71.548C34.816 71.66 34.7063 71.716 34.557 71.716C34.3983 71.716 34.284 71.6577 34.214 71.541C34.1487 71.4197 34.116 71.282 34.116 71.128C34.116 70.8853 34.074 70.701 33.99 70.575C33.906 70.449 33.717 70.386 33.423 70.386H31.547C30.9123 70.386 30.4223 70.4233 30.077 70.498C29.7317 70.5727 29.4913 70.729 29.356 70.967C29.2253 71.2003 29.16 71.5573 29.16 72.038V73.508C29.16 73.9747 29.2253 74.327 29.356 74.565C29.4867 74.7983 29.7223 74.957 30.063 75.041C30.4083 75.1203 30.903 75.16 31.547 75.16H33.423C33.7217 75.16 33.9083 75.0993 33.983 74.978C34.0623 74.8567 34.1067 74.6723 34.116 74.425C34.1253 74.2243 34.1673 74.075 34.242 73.977C34.3167 73.879 34.4217 73.83 34.557 73.83C34.697 73.83 34.8043 73.8837 34.879 73.991C34.9583 74.0983 34.998 74.271 34.998 74.509C34.998 74.8217 34.9513 75.0923 34.858 75.321C34.7647 75.5497 34.6107 75.727 34.396 75.853C34.1813 75.979 33.8897 76.042 33.521 76.042H31.547ZM38.1585 78.912C37.7898 78.912 37.5005 78.8443 37.2905 78.709C37.0805 78.5783 36.9312 78.3963 36.8425 78.163C36.7538 77.9297 36.7095 77.6683 36.7095 77.379C36.7095 77.1457 36.7468 76.973 36.8215 76.861C36.8962 76.7537 37.0058 76.7 37.1505 76.7C37.3185 76.7 37.4328 76.756 37.4935 76.868C37.5588 76.98 37.5915 77.113 37.5915 77.267C37.5962 77.519 37.6382 77.708 37.7175 77.834C37.8015 77.9647 37.9905 78.03 38.2845 78.03H42.1905C42.4285 78.03 42.5825 77.9903 42.6525 77.911C42.7225 77.8317 42.7575 77.6637 42.7575 77.407V75.23C42.2162 75.7713 41.4228 76.042 40.3775 76.042H39.9715C39.1968 76.042 38.5692 75.9673 38.0885 75.818C37.6125 75.6687 37.2625 75.412 37.0385 75.048C36.8192 74.6793 36.7095 74.173 36.7095 73.529V69.966C36.7095 69.5927 36.8565 69.406 37.1505 69.406C37.4445 69.406 37.5915 69.5927 37.5915 69.966V73.508C37.5915 73.9747 37.6568 74.327 37.7875 74.565C37.9182 74.7983 38.1538 74.957 38.4945 75.041C38.8398 75.1203 39.3322 75.16 39.9715 75.16H40.3775C41.1568 75.16 41.7472 74.9593 42.1485 74.558C42.5545 74.152 42.7575 73.5593 42.7575 72.78V69.966C42.7575 69.5927 42.9045 69.406 43.1985 69.406C43.4925 69.406 43.6395 69.5927 43.6395 69.966V77.183C43.6395 77.8177 43.5415 78.2633 43.3455 78.52C43.1542 78.7813 42.8018 78.912 42.2885 78.912H38.1585ZM47.9415 76.14C47.6289 76.14 47.4725 75.972 47.4725 75.636V70.386H45.3795C45.0202 70.386 44.8405 70.239 44.8405 69.945C44.8405 69.651 45.0202 69.504 45.3795 69.504H50.5035C50.8629 69.504 51.0425 69.651 51.0425 69.945C51.0425 70.239 50.8629 70.386 50.5035 70.386H48.4245V75.636C48.4245 75.7947 48.3825 75.9183 48.2985 76.007C48.2145 76.0957 48.0955 76.14 47.9415 76.14ZM55.3224 76.042C54.5477 76.042 53.92 75.9673 53.4394 75.818C52.9587 75.6687 52.6064 75.412 52.3824 75.048C52.163 74.684 52.0534 74.1777 52.0534 73.529V72.017C52.0534 71.3683 52.163 70.862 52.3824 70.498C52.6064 70.1293 52.9587 69.8727 53.4394 69.728C53.92 69.5787 54.5477 69.504 55.3224 69.504H57.3244C57.693 69.504 57.9824 69.5717 58.1924 69.707C58.407 69.8377 58.5564 70.0197 58.6404 70.253C58.729 70.4817 58.7734 70.743 58.7734 71.037C58.7734 71.2657 58.736 71.436 58.6614 71.548C58.5914 71.66 58.4817 71.716 58.3324 71.716C58.1737 71.716 58.0594 71.6577 57.9894 71.541C57.924 71.4197 57.8914 71.282 57.8914 71.128C57.8914 70.8853 57.8494 70.701 57.7654 70.575C57.6814 70.449 57.4924 70.386 57.1984 70.386H55.3224C54.6877 70.386 54.1977 70.4233 53.8524 70.498C53.507 70.5727 53.2667 70.729 53.1314 70.967C53.0007 71.2003 52.9354 71.5573 52.9354 72.038V73.508C52.9354 73.9747 53.0007 74.327 53.1314 74.565C53.262 74.7983 53.4977 74.957 53.8384 75.041C54.1837 75.1203 54.6784 75.16 55.3224 75.16H57.1984C57.497 75.16 57.6837 75.0993 57.7584 74.978C57.8377 74.8567 57.882 74.6723 57.8914 74.425C57.9007 74.2243 57.9427 74.075 58.0174 73.977C58.092 73.879 58.197 73.83 58.3324 73.83C58.4724 73.83 58.5797 73.8837 58.6544 73.991C58.7337 74.0983 58.7734 74.271 58.7734 74.509C58.7734 74.8217 58.7267 75.0923 58.6334 75.321C58.54 75.5497 58.386 75.727 58.1714 75.853C57.9567 75.979 57.665 76.042 57.2964 76.042H55.3224ZM62.8439 76.14C62.5312 76.14 62.3749 75.972 62.3749 75.636V70.386H60.2819C59.9225 70.386 59.7429 70.239 59.7429 69.945C59.7429 69.651 59.9225 69.504 60.2819 69.504H65.4059C65.7652 69.504 65.9449 69.651 65.9449 69.945C65.9449 70.239 65.7652 70.386 65.4059 70.386H63.3269V75.636C63.3269 75.7947 63.2849 75.9183 63.2009 76.007C63.1169 76.0957 62.9979 76.14 62.8439 76.14ZM67.1517 76.042V69.504H71.5547C72.2407 69.504 72.7984 69.658 73.2277 69.966C73.6571 70.274 73.8717 70.729 73.8717 71.331C73.8717 71.695 73.8041 71.982 73.6687 72.192C73.5334 72.3973 73.3444 72.563 73.1017 72.689C73.6151 73.039 73.8717 73.5313 73.8717 74.166C73.8717 74.5813 73.7737 74.929 73.5777 75.209C73.3817 75.4843 73.1087 75.692 72.7587 75.832C72.4134 75.972 72.0121 76.042 71.5547 76.042H67.1517ZM68.0337 75.16H71.4567C72.4787 75.16 72.9897 74.887 72.9897 74.341C72.9897 73.9117 72.8707 73.599 72.6327 73.403C72.3994 73.207 72.0261 73.109 71.5127 73.109H68.0337V75.16ZM68.0337 72.227H71.5127C72.0634 72.227 72.4484 72.1593 72.6677 72.024C72.8917 71.884 73.0037 71.611 73.0037 71.205C73.0037 70.659 72.4881 70.386 71.4567 70.386H68.0337V72.227ZM77.1097 78.912C76.741 78.912 76.4517 78.8443 76.2417 78.709C76.0317 78.5783 75.8823 78.3963 75.7937 78.163C75.705 77.9297 75.6607 77.6683 75.6607 77.379C75.6607 77.1457 75.698 76.973 75.7727 76.861C75.8473 76.7537 75.957 76.7 76.1017 76.7C76.2697 76.7 76.384 76.756 76.4447 76.868C76.51 76.98 76.5427 77.113 76.5427 77.267C76.5473 77.519 76.5893 77.708 76.6687 77.834C76.7527 77.9647 76.9417 78.03 77.2357 78.03H81.1417C81.3797 78.03 81.5337 77.9903 81.6037 77.911C81.6737 77.8317 81.7087 77.6637 81.7087 77.407V75.23C81.1673 75.7713 80.374 76.042 79.3287 76.042H78.9227C78.148 76.042 77.5203 75.9673 77.0397 75.818C76.5637 75.6687 76.2137 75.412 75.9897 75.048C75.7703 74.6793 75.6607 74.173 75.6607 73.529V69.966C75.6607 69.5927 75.8077 69.406 76.1017 69.406C76.3957 69.406 76.5427 69.5927 76.5427 69.966V73.508C76.5427 73.9747 76.608 74.327 76.7387 74.565C76.8693 74.7983 77.105 74.957 77.4457 75.041C77.791 75.1203 78.2833 75.16 78.9227 75.16H79.3287C80.108 75.16 80.6983 74.9593 81.0997 74.558C81.5057 74.152 81.7087 73.5593 81.7087 72.78V69.966C81.7087 69.5927 81.8557 69.406 82.1497 69.406C82.4437 69.406 82.5907 69.5927 82.5907 69.966V77.183C82.5907 77.8177 82.4927 78.2633 82.2967 78.52C82.1053 78.7813 81.753 78.912 81.2397 78.912H77.1097ZM87.6837 76.042C86.909 76.042 86.2814 75.9673 85.8007 75.818C85.32 75.6687 84.9677 75.412 84.7437 75.048C84.5244 74.684 84.4147 74.1777 84.4147 73.529V72.017C84.4147 71.3683 84.5244 70.862 84.7437 70.498C84.9677 70.1293 85.32 69.8727 85.8007 69.728C86.2814 69.5787 86.909 69.504 87.6837 69.504H88.0897C88.8644 69.504 89.4897 69.5787 89.9657 69.728C90.4464 69.8773 90.7964 70.134 91.0157 70.498C91.235 70.862 91.3447 71.3683 91.3447 72.017V72.647H85.2967V73.508C85.2967 73.9747 85.362 74.327 85.4927 74.565C85.6234 74.7983 85.859 74.957 86.1997 75.041C86.545 75.1203 87.0397 75.16 87.6837 75.16H89.6997C89.9704 75.16 90.1524 75.1063 90.2457 74.999C90.3437 74.887 90.3927 74.6957 90.3927 74.425C90.3927 74.229 90.4347 74.082 90.5187 73.984C90.6027 73.8813 90.71 73.83 90.8407 73.83C90.976 73.83 91.081 73.8813 91.1557 73.984C91.235 74.0867 91.2747 74.2313 91.2747 74.418C91.2747 74.754 91.2304 75.0433 91.1417 75.286C91.0577 75.5287 90.9084 75.7153 90.6937 75.846C90.479 75.9767 90.1804 76.042 89.7977 76.042H87.6837ZM85.3037 71.765H90.4627C90.4347 71.233 90.283 70.876 90.0077 70.694C89.8397 70.5773 89.5947 70.498 89.2727 70.456C88.9507 70.4093 88.5564 70.386 88.0897 70.386H87.6837C87.2077 70.386 86.811 70.407 86.4937 70.449C86.1764 70.4863 85.9337 70.561 85.7657 70.673C85.4717 70.8503 85.3177 71.2143 85.3037 71.765ZM95.4103 76.14C95.0976 76.14 94.9413 75.972 94.9413 75.636V70.386H92.8483C92.4889 70.386 92.3093 70.239 92.3093 69.945C92.3093 69.651 92.4889 69.504 92.8483 69.504H97.9723C98.3316 69.504 98.5113 69.651 98.5113 69.945C98.5113 70.239 98.3316 70.386 97.9723 70.386H95.8933V75.636C95.8933 75.7947 95.8513 75.9183 95.7673 76.007C95.6833 76.0957 95.5643 76.14 95.4103 76.14Z" fill="#C8D5DC"/>
</svg>
