<svg width="48" height="53" viewBox="0 0 48 53" fill="none" xmlns="http://www.w3.org/2000/svg">
<path d="M24.8799 50.3496L40.9215 51.9907C41.9027 52.0911 42.7788 51.3692 42.8783 50.3783L46.9908 9.39206C47.0901 8.40146 46.3755 7.51692 45.3943 7.41663L42.5 7M3.83936 37.7777L1.00922 9.5722C0.909872 8.5816 1.62453 7.69707 2.60569 7.59678L7.82823 7.06253" stroke="#004B5D" stroke-width="2" stroke-miterlimit="10" stroke-linecap="round" stroke-linejoin="round"/>
<path d="M38.4509 41.9632L38.9906 47.0988C39.092 48.0641 38.3627 48.926 37.3614 49.0237L6.98647 51.9909C5.98528 52.0887 5.09132 51.3855 4.98993 50.4201L4 41" stroke="#004B5D" stroke-width="2" stroke-miterlimit="10" stroke-linecap="round" stroke-linejoin="round"/>
<path d="M35.2033 1H9.81279C8.81164 1 8 1.81071 8 2.81087V44.1891C8 45.1893 8.81164 46 9.81279 46H34.3105L42 38.3189V2.81087C42 1.81071 41.1884 1 40.1872 1H38.2972" stroke="#004B5D" stroke-width="2" stroke-miterlimit="10" stroke-linecap="round" stroke-linejoin="round"/>
<path d="M28.9269 35.1257C28.9269 35.1257 28.2504 34.506 27.2076 34.818C26.5723 35.0081 26.1366 35.7714 26.3388 36.4115C26.5808 37.1773 27.6913 37.475 28.3563 37.7085C30.0521 38.3037 29.4684 40.6238 27.7003 40.6898C26.9762 40.7169 26.5815 40.5351 26.1211 40.2678M27.7003 40.8198V41.5566M27.7003 33.9285V34.7301M13.1007 17.6982H29.4549M32.6485 17.6982H36.6058M13.1007 21.7029H29.4549M32.6485 21.7029H36.6058M13.1007 25.7077H29.4549M32.6485 25.7077H36.6058M13.1007 29.7124H29.4549M32.6485 29.7124H36.6058M13.1007 35.8104H22.6212M13.1007 39.6746H22.6212M34.3105 46V40.1558C34.3105 39.1601 35.1222 38.353 36.1233 38.353H41.9999L34.3105 46ZM8 6H42V12.4638H8V6Z" stroke="#004B5D" stroke-width="2" stroke-miterlimit="10" stroke-linecap="round" stroke-linejoin="round"/>
</svg>
