<svg width="54" height="54" viewBox="0 0 54 54" fill="none" xmlns="http://www.w3.org/2000/svg">
<path d="M10.0999 36.3543H10.0914C9.65453 36.3543 9.30469 36.7085 9.30469 37.1453C9.30469 37.5822 9.66307 37.9363 10.0999 37.9363C10.3097 37.9363 10.5109 37.853 10.6593 37.7047C10.8076 37.5563 10.8909 37.3551 10.8909 37.1453C10.8909 36.9355 10.8076 36.7343 10.6593 36.586C10.5109 36.4376 10.3097 36.3543 10.0999 36.3543ZM16.8635 36.3543H16.8551C16.4182 36.3543 16.0683 36.7085 16.0683 37.1453C16.0683 37.5822 16.4267 37.9363 16.8635 37.9363C17.0733 37.9363 17.2745 37.853 17.4229 37.7047C17.5712 37.5563 17.6545 37.3551 17.6545 37.1453C17.6545 36.9355 17.5712 36.7343 17.4229 36.586C17.2745 36.4376 17.0733 36.3543 16.8635 36.3543ZM44.7634 36.3543H44.755C44.3181 36.3543 43.9682 36.7085 43.9682 37.1453C43.9682 37.5822 44.3265 37.9363 44.7634 37.9363C44.9732 37.9363 45.1744 37.853 45.3227 37.7047C45.4711 37.5563 45.5544 37.3551 45.5544 37.1453C45.5544 36.9355 45.4711 36.7343 45.3227 36.586C45.1744 36.4376 44.9732 36.3543 44.7634 36.3543Z" fill="#004B5D"/>
<path d="M53.273 26.7908L52.2095 25.7272L50.0669 19.2993C50.2467 19.2421 50.4002 19.1225 50.4996 18.962C50.5989 18.8015 50.6376 18.6108 50.6087 18.4243C50.5798 18.2378 50.4851 18.0678 50.3418 17.9449C50.1985 17.8221 50.016 17.7546 49.8272 17.7545H42.1638V14.3186C42.1638 13.4162 41.4297 12.6821 40.5273 12.6821H1.63645C0.734062 12.6821 0 13.4163 0 14.3186V32.9184C0 33.8208 0.734062 34.5549 1.63645 34.5549H2.53631V36.2997C2.53631 37.2021 3.27037 37.9362 4.17277 37.9362H5.99432C6.36514 39.86 8.06055 41.318 10.0909 41.318C11.4812 41.318 12.714 40.6339 13.4727 39.5853C14.2314 40.6339 15.4642 41.318 16.8545 41.318C18.8849 41.318 20.5804 39.86 20.9512 37.9362H40.6578C41.0286 39.86 42.724 41.318 44.7544 41.318C47.0553 41.318 48.9272 39.446 48.9272 37.1452C48.9272 37.127 48.926 37.1092 48.9258 37.0912H52.3634C53.2658 37.0912 53.9999 36.3571 53.9999 35.4547V28.5457C54.0008 28.2196 53.937 27.8966 53.8123 27.5954C53.6875 27.2942 53.5042 27.0207 53.273 26.7908ZM5.99432 36.3543H4.17277C4.16562 36.3543 4.15854 36.3529 4.15194 36.3501C4.14534 36.3474 4.13934 36.3434 4.13428 36.3383C4.12923 36.3333 4.12522 36.3273 4.12249 36.3207C4.11975 36.3141 4.11834 36.307 4.11834 36.2999V34.555H6.82309C6.40586 35.0792 6.12152 35.6965 5.99432 36.3543ZM10.0909 39.7361C8.66236 39.7361 7.5002 38.5739 7.5002 37.1454C7.5002 35.7223 8.65371 34.5638 10.0748 34.555H10.1073C11.5284 34.5637 12.6819 35.7222 12.6819 37.1454C12.6818 38.5739 11.5195 39.7361 10.0909 39.7361ZM16.8546 39.7361C15.4261 39.7361 14.2638 38.5739 14.2638 37.1454C14.2638 35.7223 15.4173 34.5638 16.8384 34.555H16.8709C18.292 34.5637 19.4455 35.7222 19.4455 37.1454C19.4454 38.5739 18.2832 39.7361 16.8546 39.7361ZM40.6579 36.3543H20.9513C20.8241 35.6964 20.5397 35.0791 20.1224 34.5549H35.4545C35.6643 34.5549 35.8655 34.4715 36.0138 34.3232C36.1622 34.1748 36.2455 33.9736 36.2455 33.7639C36.2455 33.5541 36.1622 33.3529 36.0138 33.2045C35.8655 33.0562 35.6643 32.9728 35.4545 32.9728H1.63645C1.62202 32.9728 1.60818 32.9671 1.59797 32.9569C1.58776 32.9467 1.58203 32.9329 1.58203 32.9184V14.3186C1.58203 14.2885 1.60639 14.2642 1.63645 14.2642H40.5272C40.5573 14.2642 40.5816 14.2885 40.5816 14.3186V32.9729H38.8367C38.6269 32.9729 38.4257 33.0563 38.2773 33.2046C38.129 33.353 38.0456 33.5542 38.0456 33.764C38.0456 33.9738 38.129 34.1749 38.2773 34.3233C38.4257 34.4716 38.6269 34.555 38.8367 34.555H41.4867C41.0694 35.0792 40.785 35.6965 40.6579 36.3543ZM50.7024 26.2089H45.5999C45.5855 26.2089 45.5717 26.2032 45.5615 26.193C45.5513 26.1828 45.5455 26.1689 45.5455 26.1545V22.7182H49.5389L50.7024 26.2089ZM44.7545 39.7361C43.3259 39.7361 42.1638 38.5739 42.1638 37.1454C42.1638 35.7223 43.3173 34.5638 44.7384 34.555H44.7546L44.7601 34.5547C46.1861 34.5576 47.3454 35.7186 47.3454 37.1453C47.3452 38.5739 46.1831 39.7361 44.7545 39.7361ZM52.418 35.4549C52.418 35.4694 52.4122 35.4832 52.402 35.4934C52.3918 35.5036 52.378 35.5094 52.3635 35.5094H48.5928C47.9553 34.0194 46.475 32.9726 44.7545 32.9726C44.749 32.9726 44.7437 32.9731 44.7383 32.9731H42.1638V19.3909C42.1638 19.3608 42.1881 19.3365 42.2182 19.3365H48.4116L49.0115 21.1362H44.7545C44.5447 21.1362 44.3435 21.2195 44.1952 21.3679C44.0468 21.5162 43.9635 21.7174 43.9635 21.9272V26.1545C43.9635 27.0569 44.6975 27.7909 45.5999 27.7909H52.0359L52.1544 27.9095C52.2382 27.9929 52.3047 28.092 52.3499 28.2013C52.3951 28.3105 52.4183 28.4276 52.418 28.5458V30.4366H51.5181C51.3083 30.4366 51.1071 30.52 50.9588 30.6683C50.8104 30.8167 50.7271 31.0179 50.7271 31.2276C50.7271 31.4374 50.8104 31.6386 50.9588 31.787C51.1071 31.9353 51.3083 32.0187 51.5181 32.0187H52.418V35.4549Z" fill="#004B5D"/>
<path d="M37.9899 29.5911H4.17187C3.96208 29.5911 3.76089 29.6745 3.61254 29.8228C3.4642 29.9712 3.38086 30.1724 3.38086 30.3821C3.38086 30.5919 3.4642 30.7931 3.61254 30.9415C3.76089 31.0898 3.96208 31.1732 4.17187 31.1732H37.9899C38.1997 31.1732 38.4009 31.0898 38.5492 30.9415C38.6976 30.7931 38.7809 30.5919 38.7809 30.3821C38.7809 30.1724 38.6976 29.9712 38.5492 29.8228C38.4009 29.6745 38.1997 29.5911 37.9899 29.5911Z" fill="#004B5D"/>
<path d="M29.7215 23.0526V22.3578C29.7215 22.2521 29.7545 22.1643 29.8207 22.0963C29.8867 22.0284 29.9721 21.9945 30.0731 21.9945H31.4295L32.2081 18.7728C32.4938 17.59 33.4488 17 35.0641 17H37.6466C37.7496 17 37.8336 17.0336 37.899 17.1018C37.9656 17.1712 38 17.2576 38 17.3633V23.0526C38 23.1543 37.965 23.2403 37.899 23.3081C37.8332 23.3758 37.7494 23.4099 37.6466 23.4099H30.0731C29.9721 23.4099 29.8867 23.376 29.8207 23.3081C29.7545 23.2401 29.7215 23.1543 29.7215 23.0526ZM17.362 23.0751V17.3859C17.362 17.2802 17.3952 17.1943 17.463 17.1244C17.529 17.0567 17.6106 17.0226 17.7096 17.0226H21.1114C21.8356 17.0226 22.4221 17.1663 22.8725 17.4558C23.3211 17.7432 23.5463 18.1785 23.5463 18.7573C23.5463 19.3363 23.3133 19.7734 22.8473 20.0689C23.5095 20.4123 23.8415 20.9212 23.8415 21.596C23.8415 22.2708 23.6279 22.7457 23.1987 23.0192C22.7715 23.2947 22.1559 23.4325 21.3562 23.4325H17.7096C17.6106 23.4325 17.529 23.3985 17.463 23.3307C17.3952 23.2628 17.362 23.1769 17.362 23.0751ZM19.3309 22.1291H21.2202C21.428 22.1291 21.5892 22.067 21.6998 21.9473C21.8124 21.8256 21.8687 21.6659 21.8687 21.4683C21.8687 21.2686 21.8124 21.1089 21.6998 20.9871C21.5892 20.8673 21.428 20.8074 21.2202 20.8074H19.3309V22.1291ZM19.3309 19.5259H20.9968C21.1678 19.5259 21.3076 19.47 21.4162 19.3583C21.523 19.2485 21.5774 19.1048 21.5774 18.929C21.5774 18.7534 21.523 18.6097 21.4162 18.4999C21.3076 18.388 21.1678 18.3321 20.9968 18.3321H19.3309V19.5259ZM24.3147 23.0533V17.3641C24.3147 17.2582 24.3477 17.1725 24.4155 17.1026C24.4817 17.0347 24.5631 17.0008 24.6623 17.0008H25.8504C25.9534 17.0008 26.0388 17.0347 26.1048 17.1026C26.1708 17.1725 26.2038 17.2582 26.2038 17.3641V21.2067L28.2057 17.4219C28.2679 17.3001 28.3591 17.2004 28.4853 17.1206C28.6097 17.0407 28.7319 17.0008 28.8485 17.0008H30.4426C30.5434 17.0008 30.629 17.0347 30.695 17.1026C30.761 17.1725 30.794 17.2582 30.794 17.3641V23.0533C30.794 23.159 30.761 23.2449 30.695 23.3107C30.629 23.3767 30.5434 23.4107 30.4426 23.4107H29.2523C29.1513 23.4107 29.0679 23.3767 29.0019 23.3089C28.9377 23.2408 28.9067 23.1551 28.9067 23.0533V19.2166L26.9028 22.9894C26.8428 23.1033 26.7494 23.2009 26.6252 23.2848C26.499 23.3687 26.3786 23.4107 26.2602 23.4107H24.6623C24.5593 23.4107 24.4757 23.3767 24.4117 23.3107C24.3477 23.2449 24.3147 23.159 24.3147 23.0533ZM33.2896 21.9945H36.0313V18.4153H35.0021C34.4508 18.4153 34.0963 18.701 33.9556 19.2757L33.2896 21.9945Z" fill="#004B5D"/>
<path d="M4 18.0678V17.3732C4 17.2673 4.03318 17.1816 4.09918 17.1117C4.16518 17.0438 4.25058 17.0099 4.35157 17.0099C6.65971 17.0099 8.96768 17.0177 11.2753 17.0177C11.3781 17.0177 11.4617 17.0517 11.5257 17.1195C11.5897 17.1894 11.6229 17.2752 11.6229 17.3811V19.555C12.283 19.555 12.7334 19.2934 12.976 18.7665L13.5238 17.5727C13.5994 17.4051 13.71 17.2713 13.8577 17.1695C14.0072 17.0677 14.1663 17.0177 14.3371 17.0177H15.4109C15.6013 17.0177 15.6965 17.0936 15.6965 17.2454C15.6965 17.3311 15.6653 17.4409 15.6051 17.5727L14.8711 19.1637C14.7449 19.4291 14.5761 19.6567 14.3585 19.8484C14.143 20.04 13.9101 20.1617 13.6596 20.2177C14.1255 20.3614 14.5295 20.7128 14.8711 21.2697L15.8381 22.8786C15.9023 22.9905 15.9371 23.0882 15.9411 23.17C15.9411 23.3417 15.8421 23.4276 15.6439 23.4276H14.5701C14.2051 23.4276 13.9159 23.244 13.6984 22.8786L12.976 21.667C12.6654 21.1478 12.215 20.8884 11.6229 20.8884V23.0703C11.6229 23.176 11.5897 23.2619 11.5239 23.3277C11.4577 23.3937 11.3743 23.4276 11.2753 23.4276H10.0015C9.89855 23.4276 9.81514 23.3937 9.75096 23.3277C9.68695 23.2619 9.65395 23.176 9.65395 23.0703V18.4251H8.13979V23.0624C8.13979 23.1642 8.10679 23.25 8.04079 23.318C7.97461 23.3859 7.89121 23.4198 7.78822 23.4198H6.51847C6.41748 23.4198 6.33208 23.3859 6.26608 23.318C6.20008 23.25 6.1669 23.1642 6.1669 23.0624V18.4251H4.35157C4.25058 18.4251 4.16518 18.3912 4.09918 18.3234C4.03318 18.2555 4 18.1696 4 18.0678Z" fill="#004B5D"/>
</svg>
