<svg width="54" height="54" viewBox="0 0 54 54" fill="none" xmlns="http://www.w3.org/2000/svg">
<path d="M10.0999 36.3543H10.0914C9.65453 36.3543 9.30469 36.7085 9.30469 37.1453C9.30469 37.5822 9.66307 37.9363 10.0999 37.9363C10.3097 37.9363 10.5109 37.853 10.6593 37.7047C10.8076 37.5563 10.8909 37.3551 10.8909 37.1453C10.8909 36.9355 10.8076 36.7343 10.6593 36.586C10.5109 36.4376 10.3097 36.3543 10.0999 36.3543ZM16.8635 36.3543H16.8551C16.4182 36.3543 16.0683 36.7085 16.0683 37.1453C16.0683 37.5822 16.4267 37.9363 16.8635 37.9363C17.0733 37.9363 17.2745 37.853 17.4229 37.7047C17.5712 37.5563 17.6545 37.3551 17.6545 37.1453C17.6545 36.9355 17.5712 36.7343 17.4229 36.586C17.2745 36.4376 17.0733 36.3543 16.8635 36.3543ZM44.7634 36.3543H44.755C44.3181 36.3543 43.9682 36.7085 43.9682 37.1453C43.9682 37.5822 44.3265 37.9363 44.7634 37.9363C44.9732 37.9363 45.1744 37.853 45.3227 37.7047C45.4711 37.5563 45.5544 37.3551 45.5544 37.1453C45.5544 36.9355 45.4711 36.7343 45.3227 36.586C45.1744 36.4376 44.9732 36.3543 44.7634 36.3543Z" fill="#004B5D"/>
<path d="M53.273 26.7908L52.2095 25.7272L50.0669 19.2993C50.2467 19.2421 50.4002 19.1225 50.4996 18.962C50.5989 18.8015 50.6376 18.6108 50.6087 18.4243C50.5798 18.2378 50.4851 18.0678 50.3418 17.9449C50.1985 17.8221 50.016 17.7546 49.8272 17.7545H42.1638V14.3186C42.1638 13.4162 41.4297 12.6821 40.5273 12.6821H1.63645C0.734062 12.6821 0 13.4163 0 14.3186V32.9184C0 33.8208 0.734062 34.5549 1.63645 34.5549H2.53631V36.2997C2.53631 37.2021 3.27037 37.9362 4.17277 37.9362H5.99432C6.36514 39.8599 8.06055 41.3179 10.0909 41.3179C11.4812 41.3179 12.714 40.6339 13.4727 39.5853C14.2314 40.6339 15.4642 41.3179 16.8545 41.3179C18.8849 41.3179 20.5804 39.8599 20.9512 37.9362H40.6578C41.0286 39.8599 42.724 41.3179 44.7544 41.3179C47.0553 41.3179 48.9272 39.446 48.9272 37.1452C48.9272 37.127 48.926 37.1092 48.9258 37.0912H52.3634C53.2658 37.0912 53.9999 36.3571 53.9999 35.4547V28.5457C54.0008 28.2196 53.937 27.8966 53.8123 27.5954C53.6875 27.2942 53.5042 27.0207 53.273 26.7908ZM5.99432 36.3543H4.17277C4.16562 36.3543 4.15854 36.3528 4.15194 36.3501C4.14534 36.3474 4.13934 36.3434 4.13428 36.3383C4.12923 36.3333 4.12522 36.3273 4.12249 36.3207C4.11975 36.3141 4.11834 36.307 4.11834 36.2998V34.555H6.82309C6.40586 35.0792 6.12152 35.6965 5.99432 36.3543ZM10.0909 39.7361C8.66236 39.7361 7.5002 38.5738 7.5002 37.1454C7.5002 35.7223 8.65371 34.5638 10.0748 34.555H10.1073C11.5284 34.5637 12.6819 35.7222 12.6819 37.1454C12.6818 38.5738 11.5195 39.7361 10.0909 39.7361ZM16.8546 39.7361C15.4261 39.7361 14.2638 38.5738 14.2638 37.1454C14.2638 35.7223 15.4173 34.5638 16.8384 34.555H16.8709C18.292 34.5637 19.4455 35.7222 19.4455 37.1454C19.4454 38.5738 18.2832 39.7361 16.8546 39.7361ZM40.6579 36.3543H20.9513C20.8241 35.6964 20.5397 35.0791 20.1224 34.5549H35.4545C35.6643 34.5549 35.8655 34.4715 36.0138 34.3232C36.1622 34.1748 36.2455 33.9736 36.2455 33.7638C36.2455 33.5541 36.1622 33.3529 36.0138 33.2045C35.8655 33.0562 35.6643 32.9728 35.4545 32.9728H1.63645C1.62202 32.9728 1.60818 32.9671 1.59797 32.9569C1.58776 32.9467 1.58203 32.9328 1.58203 32.9184V14.3186C1.58203 14.2885 1.60639 14.2641 1.63645 14.2641H40.5272C40.5573 14.2641 40.5816 14.2885 40.5816 14.3186V32.9729H38.8367C38.6269 32.9729 38.4257 33.0563 38.2773 33.2046C38.129 33.353 38.0456 33.5542 38.0456 33.7639C38.0456 33.9737 38.129 34.1749 38.2773 34.3233C38.4257 34.4716 38.6269 34.555 38.8367 34.555H41.4867C41.0694 35.0791 40.785 35.6964 40.6579 36.3543ZM50.7024 26.2089H45.5999C45.5855 26.2089 45.5717 26.2032 45.5615 26.193C45.5513 26.1828 45.5455 26.1689 45.5455 26.1545V22.7182H49.5389L50.7024 26.2089ZM44.7545 39.7361C43.3259 39.7361 42.1638 38.5738 42.1638 37.1454C42.1638 35.7223 43.3173 34.5638 44.7384 34.555H44.7546L44.7601 34.5546C46.1861 34.5576 47.3454 35.7186 47.3454 37.1453C47.3452 38.5738 46.1831 39.7361 44.7545 39.7361ZM52.418 35.4549C52.418 35.4694 52.4122 35.4832 52.402 35.4934C52.3918 35.5036 52.378 35.5093 52.3635 35.5093H48.5928C47.9553 34.0194 46.475 32.9726 44.7545 32.9726C44.749 32.9726 44.7437 32.973 44.7383 32.973H42.1638V19.3909C42.1638 19.3608 42.1881 19.3365 42.2182 19.3365H48.4116L49.0115 21.1362H44.7545C44.5447 21.1362 44.3435 21.2195 44.1952 21.3679C44.0468 21.5162 43.9635 21.7174 43.9635 21.9272V26.1545C43.9635 27.0569 44.6975 27.7909 45.5999 27.7909H52.0359L52.1544 27.9095C52.2382 27.9929 52.3047 28.092 52.3499 28.2012C52.3951 28.3105 52.4183 28.4276 52.418 28.5458V30.4366H51.5181C51.3083 30.4366 51.1071 30.52 50.9588 30.6683C50.8104 30.8166 50.7271 31.0178 50.7271 31.2276C50.7271 31.4374 50.8104 31.6386 50.9588 31.787C51.1071 31.9353 51.3083 32.0187 51.5181 32.0187H52.418V35.4549Z" fill="#004B5D"/>
<path d="M37.9899 29.5911H4.17187C3.96208 29.5911 3.76089 29.6745 3.61254 29.8228C3.4642 29.9711 3.38086 30.1723 3.38086 30.3821C3.38086 30.5919 3.4642 30.7931 3.61254 30.9415C3.76089 31.0898 3.96208 31.1731 4.17187 31.1731H37.9899C38.1997 31.1731 38.4009 31.0898 38.5492 30.9415C38.6976 30.7931 38.7809 30.5919 38.7809 30.3821C38.7809 30.1723 38.6976 29.9711 38.5492 29.8228C38.4009 29.6745 38.1997 29.5911 37.9899 29.5911Z" fill="#004B5D"/>
</svg>
