<svg width="46" height="46" viewBox="0 0 46 46" fill="none" xmlns="http://www.w3.org/2000/svg">
<g clip-path="url(#clip0_847_1445)">
<path fill-rule="evenodd" clip-rule="evenodd" d="M36.1635 14.7405C35.9209 14.7405 35.7323 14.6327 35.5976 14.4441C35.4089 14.1476 35.4898 13.7434 35.7862 13.5548C36.8641 12.8811 37.457 12.1535 37.4839 11.5606C37.5378 11.1564 37.2414 10.86 37.2414 10.86C36.9719 10.6444 36.945 10.1863 37.1875 9.91681C37.43 9.67428 37.8612 9.62038 38.1307 9.88986C38.2115 9.97071 38.9122 10.5905 38.8044 11.6684C38.7235 12.7194 37.942 13.7434 36.4868 14.6596C36.3791 14.7135 36.2713 14.7405 36.1635 14.7405Z" fill="#004B5D"/>
<path fill-rule="evenodd" clip-rule="evenodd" d="M30.8819 19.0252H30.7741C30.3968 19.0252 30.1543 18.7288 30.1543 18.3515C30.1543 18.0012 30.4507 17.6778 30.801 17.7317C33.9809 17.8125 35.5169 13.8781 35.5169 13.8512C35.6247 13.5009 36.0289 13.3122 36.3793 13.4739C36.7026 13.5817 36.8913 13.9859 36.7565 14.3363C36.6757 14.5249 34.9241 19.0252 30.8819 19.0252Z" fill="#004B5D"/>
<path fill-rule="evenodd" clip-rule="evenodd" d="M30.29 19.0791C28.8348 19.0791 27.5952 18.594 26.6251 17.6239C23.9842 15.01 24.0651 9.72818 24.1729 8.1652V8.05741C24.1998 7.92267 24.2537 7.78793 24.2806 7.73403C25.0352 5.14704 27.2988 0.862329 31.1793 0.970121C31.6644 0.916225 34.7095 0.673694 36.7575 2.74868C38.3474 4.3925 38.9133 7.00644 38.3474 10.4827C38.2935 10.86 37.9702 11.0756 37.6198 11.0486C37.2426 10.9678 37 10.6714 37.0539 10.2941C37.539 7.19508 37.1348 4.98535 35.8143 3.66491C34.0897 1.9133 31.341 2.23667 31.2871 2.23667H31.1793C28.5115 2.12888 26.3826 5.17399 25.5202 8.08436C25.4663 8.1652 25.4663 8.24604 25.4394 8.32689C25.2777 11.2373 25.7358 14.9291 27.5413 16.6807C28.3498 17.5161 29.4007 17.8395 30.6942 17.7317C31.0715 17.6778 31.3679 17.9473 31.4218 18.3245C31.4488 18.7018 31.1793 18.9982 30.802 19.0252C30.6673 19.0252 30.4787 19.0791 30.29 19.0791Z" fill="#004B5D"/>
<path fill-rule="evenodd" clip-rule="evenodd" d="M37.6725 11.0217L33.6843 10.9408C33.307 10.9408 33.0645 10.6444 33.0645 10.2671C33.0645 9.88986 33.3609 9.62038 33.7381 9.62038L37.7264 9.70123C38.1037 9.70123 38.3462 9.99765 38.3462 10.3749C38.3462 10.6983 38.0498 11.0217 37.6725 11.0217Z" fill="#004B5D"/>
<path fill-rule="evenodd" clip-rule="evenodd" d="M34.251 10.9408C33.9815 10.9408 33.766 10.7791 33.6582 10.5636C33.5504 10.3749 31.179 5.65905 25.1696 8.46163C24.8462 8.62332 24.4689 8.46163 24.3073 8.13826C24.1725 7.78793 24.3073 7.43761 24.6576 7.27592C31.8527 3.90744 34.8439 9.91682 34.8708 9.97071C35.0325 10.2941 34.8708 10.6714 34.5744 10.833C34.4397 10.9408 34.3588 10.9408 34.251 10.9408Z" fill="#004B5D"/>
<path fill-rule="evenodd" clip-rule="evenodd" d="M33.685 10.9408H29.3464C29.1847 10.9408 29.023 10.86 28.9152 10.7522C28.2685 10.1054 26.3013 8.54247 24.7922 8.8389C24.1454 9.00058 23.6065 9.51259 23.2023 10.4558C23.0406 10.7791 22.6633 10.9408 22.3399 10.7791C22.0166 10.6444 21.8549 10.2671 22.0166 9.91681C22.5555 8.54247 23.4178 7.76098 24.5497 7.5454C26.6246 7.11423 28.9152 9.00058 29.6159 9.62039H33.685C34.0623 9.62039 34.3587 9.91681 34.3587 10.2941C34.3587 10.6714 34.0623 10.9408 33.685 10.9408ZM43.0089 39.4517C40.395 39.4517 34.9515 35.7868 34.3317 35.3556C34.0353 35.167 33.9545 34.7627 34.1431 34.4394C34.3317 34.1429 34.7359 34.089 35.0324 34.2777C36.5684 35.3017 40.8531 37.9695 42.7934 38.1043C43.0628 37.7001 43.8174 36.0293 44.4641 28.9689C44.7067 26.7323 44.7067 26.7323 42.8473 25.4657C42.6047 25.304 42.3622 25.1154 42.0388 24.9268C39.0746 22.9596 34.7359 20.669 34.709 20.6421C34.3587 20.4804 34.2509 20.0762 34.4395 19.7528C34.5743 19.4025 35.0054 19.2947 35.3288 19.4833C35.3557 19.5103 39.7752 21.8008 42.8742 23.8758C43.1706 24.0644 43.4401 24.2531 43.6557 24.4148C45.8654 25.8969 46.1618 26.1933 45.8924 29.1037C45.03 38.3738 43.9791 39.0474 43.5479 39.3439C43.4401 39.4247 43.3323 39.4517 43.1976 39.4517H43.0089Z" fill="#004B5D"/>
<path fill-rule="evenodd" clip-rule="evenodd" d="M32.5811 45.0568C31.9613 45.0568 31.3415 44.949 30.7756 44.6796C27.1915 43.5208 21.4786 41.7961 20.0234 41.7961H19.9425C16.062 42.1734 13.4481 41.6883 12.1546 40.3948C11.2923 39.5325 11.3731 38.5893 11.3731 38.5085C11.4001 38.1851 11.6695 37.9156 11.9929 37.9156H19.2149C19.5653 37.9156 19.8886 38.2121 19.8886 38.5893C19.8886 38.9666 19.5653 39.263 19.2149 39.263H12.8552C12.9361 39.3439 13.0169 39.4517 13.0708 39.5595C13.6906 40.1254 15.3344 40.9877 19.8078 40.5835H19.8347C21.775 40.4757 30.2097 43.1974 31.1798 43.5208C31.2337 43.5208 31.2337 43.5208 31.2606 43.5477C32.3385 44.0328 33.6051 43.8981 34.3866 43.1435C34.4405 43.1166 39.6953 38.1582 40.369 37.727C40.6654 37.5384 41.0697 37.6731 41.2583 37.9695C41.4469 38.266 41.3391 38.6702 41.0427 38.8588C40.6385 39.1283 37.3508 42.1734 35.3028 44.0867C34.5752 44.7065 33.6051 45.0568 32.5811 45.0568ZM28.7545 29.5349H28.7006C28.4311 29.481 28.2155 29.2923 28.1347 29.0498L26.7873 24.0644V23.9566L26.437 20.9385C26.437 20.8307 26.437 20.7229 26.4909 20.6421L27.5957 17.6778C27.7035 17.3544 28.1347 17.1658 28.4581 17.3275C28.8084 17.4353 28.997 17.8395 28.8353 18.1629L27.7574 20.9654L28.0808 23.768L29.024 27.1634L30.7486 24.1453V24.1183C30.7756 24.0644 30.7756 24.0375 30.8025 24.0105L34.3596 20.0762L33.5512 17.2466C33.4165 16.8963 33.659 16.546 33.9824 16.4112C34.3327 16.3035 34.71 16.546 34.8177 16.8694L35.734 20.0492C35.8148 20.2648 35.734 20.4804 35.5992 20.669L32.3924 24.2261L35.0064 25.5735L37.6203 21.4235C37.809 21.1271 38.2132 21.0193 38.5096 21.2349C38.806 21.4235 38.9138 21.8278 38.6982 22.1242L35.707 26.7592C35.5184 27.0557 35.1411 27.1365 34.8447 26.9748L31.5301 25.2771L29.3204 29.1576C29.2126 29.3732 28.997 29.5349 28.7545 29.5349Z" fill="#004B5D"/>
<path fill-rule="evenodd" clip-rule="evenodd" d="M24.6856 26.9479C24.6317 26.9479 24.5509 26.9479 24.47 26.9209C24.2544 26.8401 24.0928 26.6514 24.0119 26.4359L23.2304 22.205C23.1496 21.9086 23.3382 21.5852 23.6346 21.4505L26.8684 20.2648C27.1918 20.157 27.569 20.2917 27.7038 20.6421C27.8655 20.9654 27.6768 21.3427 27.3534 21.5044L24.6587 22.5015L25.1707 25.0346L27.057 23.3907C27.2995 23.1752 27.7038 23.1752 27.9732 23.4716C28.2158 23.7411 28.2158 24.1453 27.8924 24.4148L25.1707 26.7862C24.982 26.867 24.8473 26.9479 24.6856 26.9479ZM19.2691 39.2361H16.7899C15.7659 39.2361 14.9844 38.4007 14.9844 37.4306C14.9844 36.4605 15.8198 35.652 16.7899 35.652L20.2123 35.7868H20.2931L31.6651 37.7001C32.1232 37.7809 33.4706 37.1881 35.9229 29.8313L36.0846 29.3732C36.1923 29.0498 36.5696 28.8612 36.893 28.969C37.2433 29.0767 37.4319 29.454 37.3242 29.7774L37.1625 30.2355C35.5456 35.0053 33.767 39.3708 31.4495 38.9936L20.1314 37.1072L16.7899 36.9455C16.5204 36.9455 16.3048 37.1881 16.3048 37.4306C16.3048 37.727 16.5204 37.9156 16.7899 37.9156H19.2691C19.6464 37.9156 19.9428 38.2121 19.9428 38.5893C19.9428 38.9666 19.6464 39.2361 19.2691 39.2361Z" fill="#004B5D"/>
<path fill-rule="evenodd" clip-rule="evenodd" d="M12.0461 39.2361H1.8059C0.808832 39.2361 0.0273438 38.4546 0.0273438 37.4306V23.768C0.0273438 22.7979 0.83578 21.9895 1.8059 21.9895H18.4597C19.4568 21.9895 20.2382 22.7709 20.2382 23.768V36.4066C20.2382 36.7569 19.9418 37.0533 19.5915 37.0533C19.2142 37.0533 18.9178 36.7569 18.9178 36.4066V23.768C18.9178 23.5255 18.6753 23.283 18.4327 23.283H1.77895C1.50948 23.283 1.29389 23.5255 1.29389 23.768V37.4306C1.29389 37.7001 1.50948 37.9156 1.77895 37.9156H11.9922C12.3695 37.9156 12.6659 38.2121 12.6659 38.5893C12.6659 38.9666 12.4234 39.2361 12.0461 39.2361Z" fill="#004B5D"/>
<path fill-rule="evenodd" clip-rule="evenodd" d="M12.0468 39.2361C11.6695 39.2361 11.3731 38.9397 11.3731 38.5624V22.6631C11.3731 22.2859 11.6695 21.9895 12.0468 21.9895C12.424 21.9895 12.7205 22.2859 12.7205 22.6631V38.5893C12.6666 38.9666 12.424 39.2361 12.0468 39.2361ZM8.19323 39.2361C7.81596 39.2361 7.51953 38.9397 7.51953 38.5624V22.6631C7.51953 22.2859 7.81596 21.9895 8.19323 21.9895C8.5705 21.9895 8.86692 22.2859 8.86692 22.6631V38.5893C8.86692 38.9666 8.5705 39.2361 8.19323 39.2361ZM19.5922 25.3849C19.3496 25.3849 19.161 25.2771 19.0263 25.0885C18.8376 24.792 18.9185 24.3609 19.2149 24.1992C21.1821 22.8518 23.4996 21.5313 23.5266 21.5313C23.823 21.3427 24.2542 21.4505 24.4428 21.8008C24.6314 22.0972 24.4967 22.5015 24.1733 22.6901C24.1464 22.6901 21.8827 24.0105 19.9425 25.304C19.8347 25.331 19.7269 25.3849 19.5922 25.3849ZM28.3233 32.1488C27.946 32.1488 27.6496 31.7985 27.6765 31.4751L27.7035 30.8014C27.7035 30.4241 28.0538 30.1547 28.3772 30.1547C28.7544 30.1547 29.0239 30.505 29.0239 30.8284L28.997 31.502C28.9431 31.8793 28.7005 32.1488 28.3233 32.1488ZM28.0269 34.8975H27.973C27.5957 34.8705 27.3532 34.5741 27.3801 34.1968L27.4071 33.5231C27.4609 33.1459 27.7574 32.8764 28.1346 32.9303C28.5119 32.9572 28.7544 33.2537 28.7275 33.6309L28.7005 34.3046C28.6197 34.628 28.3502 34.8975 28.0269 34.8975Z" fill="#004B5D"/>
</g>
<defs>
<clipPath id="clip0_847_1445">
<rect width="46" height="46" fill="white"/>
</clipPath>
</defs>
</svg>
