<svg width="57" height="43" viewBox="0 0 57 43" fill="none" xmlns="http://www.w3.org/2000/svg">
<path d="M49.8512 30.6596V38.5106C49.8512 40.4377 48.2889 42 46.3619 42H4.48934C2.56225 42 1 40.4377 1 38.5106V14.085C1 12.158 2.56225 10.5957 4.48934 10.5957H46.3619C48.2889 10.5957 49.8512 12.158 49.8512 14.085V27.1702" stroke="#004B5D" stroke-width="2" stroke-miterlimit="10" stroke-linecap="round" stroke-linejoin="round"/>
<path d="M4.41992 7.10627C4.99225 6.41391 5.81031 5.96989 6.70271 5.86723L48.2941 1.02375C50.2082 0.800852 51.9408 2.17183 52.1637 4.08609L54.9891 28.3477C55.212 30.2619 53.841 31.9944 51.9268 32.2173L49.8509 32.459M6.23366 31.5319H13.2124M6.23366 35.8937H23.6805M16.7018 31.5319H23.6805M27.1699 31.5319H34.1486M37.638 31.5319H44.6167M9.723 23.6808H11.4677M13.2124 27.1702H7.97838C7.01484 27.1702 6.23366 26.3891 6.23366 25.4254V21.9361C6.23366 20.9726 7.01473 20.1914 7.97838 20.1914H13.2124C14.176 20.1914 14.9572 20.9725 14.9572 21.9361V25.4254C14.9571 26.3891 14.176 27.1702 13.2124 27.1702Z" stroke="#004B5D" stroke-width="2" stroke-miterlimit="10" stroke-linecap="round" stroke-linejoin="round"/>
<path d="M41.9437 24.5532C42.5321 23.3705 42.8712 22.0404 42.8712 20.6276C42.8712 19.2148 42.5321 17.8846 41.9437 16.702M38.8152 22.9779C39.1692 22.2688 39.3819 21.4756 39.3819 20.6276C39.3819 19.7796 39.1692 18.9864 38.8152 18.2773M35.6992 21.4088C35.8191 21.1735 35.8924 20.9106 35.8924 20.6276C35.8924 20.3445 35.8191 20.0817 35.6992 19.8464" stroke="#004B5D" stroke-width="2" stroke-miterlimit="10" stroke-linecap="round" stroke-linejoin="round"/>
</svg>
