<svg width="56" height="56" viewBox="0 0 56 56" fill="none" xmlns="http://www.w3.org/2000/svg">
<g clip-path="url(#clip0_838_1044)">
<path d="M53.3293 32.8009H52.4913V25.2524C52.4913 24.0574 51.8965 22.9993 50.9881 22.3564V21.3286C50.9881 19.8377 49.7752 18.6248 48.2844 18.6248H47.6586L50.0527 15.1117C50.8552 13.9342 50.5501 12.3232 49.3725 11.5206L33.127 0.449643C32.5566 0.0608152 31.869 -0.0826848 31.1905 0.0460495C30.8567 0.108338 30.5386 0.236209 30.2546 0.422262C29.9706 0.608315 29.7263 0.848854 29.5358 1.12996L15.5139 21.7059H11.6119L12.5533 12.1761C12.5639 12.0687 12.6337 11.9756 12.731 11.9389C13.9439 11.4816 14.995 10.6276 15.6906 9.53433C15.7454 9.44825 15.8488 9.39903 15.9557 9.40986L22.0758 10.0145C22.1801 10.0248 22.2854 10.0144 22.3857 9.98405C22.4859 9.95366 22.5793 9.90382 22.6603 9.83736C22.7413 9.77091 22.8084 9.68915 22.8578 9.59675C22.9073 9.50435 22.938 9.40312 22.9483 9.29885C22.9586 9.19457 22.9483 9.08928 22.9179 8.989C22.8875 8.88872 22.8376 8.79541 22.7712 8.71439C22.7047 8.63337 22.623 8.56624 22.5306 8.51682C22.4382 8.4674 22.3369 8.43666 22.2327 8.42636L16.1126 7.82174C15.4022 7.75217 14.7247 8.07953 14.3441 8.6776C13.8327 9.4815 13.0598 10.1093 12.1681 10.4455C11.4968 10.6986 11.0359 11.3015 10.9651 12.0191L10.0082 21.7058H8.99073L10.4795 6.63349C10.5331 6.09099 11.0173 5.69242 11.5605 5.74678L23.928 6.9685C24.1386 6.9893 24.3488 6.92559 24.5124 6.79138C24.676 6.65717 24.7797 6.46346 24.8005 6.25286C24.8213 6.04226 24.7575 5.83203 24.6233 5.66841C24.4891 5.50478 24.2954 5.40118 24.0848 5.38038L11.7173 4.15866C10.2994 4.01877 9.03142 5.05838 8.89131 6.47653L7.69125 18.6248H5.64758C4.1568 18.6248 2.94383 19.8377 2.94383 21.3286V22.0297C1.72419 22.5912 0.875 23.8241 0.875 25.2524V52.4534C0.875 54.409 2.46597 56 4.4217 56H48.9447C50.9003 56 52.4913 54.409 52.4913 52.4534V44.905H53.3293C54.3185 44.905 55.1231 44.1003 55.1231 43.1113V34.5948C55.1232 33.6056 54.3185 32.8009 53.3293 32.8009ZM48.2844 20.2208C48.8953 20.2207 49.3922 20.7177 49.3922 21.3287V21.7352C49.2438 21.7161 49.0943 21.7063 48.9447 21.706H45.559L46.571 20.2208H48.2844ZM30.8546 2.02858C30.9274 1.92107 31.0209 1.82906 31.1295 1.75789C31.2382 1.68672 31.3599 1.63779 31.4875 1.61394C31.6151 1.58942 31.7462 1.59043 31.8733 1.61692C32.0005 1.64341 32.1211 1.69485 32.2282 1.76827L48.4738 12.8392C48.9242 13.1462 49.041 13.7624 48.7341 14.2128L43.6278 21.7057H42.4024L44.9059 18.0321C45.3119 17.4363 45.3453 16.6782 44.9929 16.0533C44.5246 15.2231 44.3347 14.2457 44.4583 13.3008C44.5502 12.5978 44.2409 11.9116 43.6511 11.5098L35.2295 5.77063C34.6396 5.36867 33.8878 5.33182 33.2672 5.67449C32.4332 6.13496 31.454 6.31575 30.51 6.18363C29.81 6.08541 29.1001 6.4015 28.7001 6.9883L18.6705 21.7058H17.4451L30.8546 2.02858ZM31.206 15.5792C27.731 15.5792 24.8785 18.2887 24.6461 21.7058H20.6015L30.0186 7.88703H30.0187C30.0446 7.8488 30.0793 7.8174 30.1199 7.79555C30.1606 7.77369 30.2059 7.76204 30.252 7.76158C30.2642 7.76158 30.2763 7.76246 30.2885 7.7641C31.5723 7.94369 32.9039 7.69803 34.0384 7.07164C34.1276 7.02221 34.2423 7.02932 34.3306 7.08947L42.7524 12.8287C42.8405 12.8889 42.889 12.993 42.8759 13.0941C42.7078 14.3791 42.9661 15.7084 43.603 16.8374C43.6541 16.9281 43.6478 17.0442 43.5872 17.1334L40.4714 21.7057H37.7662C37.5336 18.2887 34.6812 15.5792 31.206 15.5792ZM36.1659 21.7059H26.2462C26.4748 19.1696 28.6113 17.1752 31.206 17.1752C33.8008 17.175 35.9375 19.1696 36.1659 21.7059ZM4.53972 21.3286C4.53972 20.7176 5.03661 20.2206 5.64758 20.2206H7.53364L7.38697 21.7058H4.53972V21.3286ZM2.47089 25.2524C2.47089 24.1768 3.346 23.3017 4.4217 23.3017H48.9447C50.0204 23.3017 50.8954 24.1768 50.8954 25.2524V27.4666H2.47089V25.2524ZM50.8954 52.4534C50.8954 53.529 50.0204 54.4041 48.9447 54.4041H4.4217C3.346 54.4041 2.47089 53.529 2.47089 52.4534V50.2392H6.77392C6.8787 50.2392 6.98246 50.2186 7.07926 50.1785C7.17607 50.1384 7.26402 50.0796 7.33812 50.0055C7.41221 49.9314 7.47098 49.8435 7.51108 49.7467C7.55117 49.6499 7.57181 49.5461 7.57181 49.4413C7.57181 49.3366 7.55117 49.2328 7.51108 49.136C7.47098 49.0392 7.41221 48.9512 7.33812 48.8771C7.26402 48.803 7.17607 48.7443 7.07926 48.7042C6.98246 48.6641 6.8787 48.6434 6.77392 48.6434H2.47089V29.0625H50.8954V32.8009H43.3083C40.9178 32.8009 38.8472 34.1943 37.8644 36.2113C37.8611 36.2181 37.8574 36.2247 37.854 36.2315C37.8457 36.2486 37.8385 36.2665 37.8304 36.2837C37.7134 36.5323 37.6117 36.7897 37.5289 37.0553L37.5282 37.0575C37.3475 37.6388 37.2558 38.2442 37.2563 38.853C37.2563 42.1901 39.9712 44.905 43.3082 44.905H50.8952V48.6434H11.8833C11.7785 48.6434 11.6747 48.6641 11.5779 48.7042C11.4811 48.7443 11.3932 48.803 11.3191 48.8771C11.245 48.9512 11.1862 49.0392 11.1461 49.136C11.106 49.2328 11.0854 49.3366 11.0854 49.4413C11.0854 49.5461 11.106 49.6499 11.1461 49.7467C11.1862 49.8435 11.245 49.9314 11.3191 50.0055C11.3932 50.0796 11.4811 50.1384 11.5779 50.1785C11.6747 50.2186 11.7785 50.2392 11.8833 50.2392H50.8954V52.4534ZM53.5274 43.1111C53.5274 43.2203 53.4385 43.3091 53.3293 43.3091H43.3086C41.6193 43.3091 40.1464 42.3642 39.391 40.9753C39.2873 40.7849 39.1978 40.5871 39.1232 40.3836C38.948 39.906 38.8524 39.3904 38.8524 38.853C38.8518 38.1846 39.0023 37.5248 39.2924 36.9227C39.3238 36.8578 39.3566 36.7938 39.391 36.7306C40.1464 35.3417 41.6193 34.3968 43.3086 34.3968H53.3293C53.4384 34.3968 53.5274 34.4856 53.5274 34.5948V43.1111Z" fill="#004B5D"/>
<path d="M43.4953 35.6154C41.7101 35.6154 40.2578 37.0678 40.2578 38.8529C40.2578 40.6381 41.7101 42.0903 43.4953 42.0903C45.2805 42.0903 46.7328 40.6381 46.7328 38.8529C46.7328 37.0678 45.2805 35.6154 43.4953 35.6154ZM43.4953 40.4944C42.5901 40.4944 41.8537 39.758 41.8537 38.8529C41.8537 37.9479 42.5901 37.2113 43.4953 37.2113C44.4005 37.2113 45.1369 37.9478 45.1369 38.8529C45.1369 39.7581 44.4005 40.4944 43.4953 40.4944Z" fill="#004B5D"/>
</g>
<defs>
<clipPath id="clip0_838_1044">
<rect width="56" height="56" fill="white"/>
</clipPath>
</defs>
</svg>
