<svg width="30" height="30" viewBox="0 0 30 30" fill="none" xmlns="http://www.w3.org/2000/svg">
<path d="M5.19922 10.1205C5.19922 5.08338 9.58683 1 14.9992 1C20.4116 1 24.7992 5.08338 24.7992 10.1205C24.7992 15.1181 21.6714 20.9499 16.7913 23.0354C15.6537 23.5215 14.3448 23.5215 13.2071 23.0354C8.32704 20.9499 5.19922 15.1181 5.19922 10.1205Z" stroke="#1E4D58" stroke-width="2"/>
<path d="M17.7992 10.8C17.7992 12.3464 16.5456 13.6 14.9992 13.6C13.4528 13.6 12.1992 12.3464 12.1992 10.8C12.1992 9.2536 13.4528 8 14.9992 8C16.5456 8 17.7992 9.2536 17.7992 10.8Z" stroke="#26AAAB" stroke-width="2"/>
<path d="M27.5447 19.9C28.4762 20.7435 29 21.6942 29 22.7C29 26.1794 22.732 29 15 29C7.26801 29 1 26.1794 1 22.7C1 21.6942 1.52377 20.7435 2.45525 19.9" stroke="#1E4D58" stroke-width="2" stroke-linecap="round"/>
</svg>
