<svg width="18" height="26" viewBox="0 0 18 26" fill="none" xmlns="http://www.w3.org/2000/svg">
<path d="M14.9924 9.70355C14.74 10.3584 13.2573 10.7165 12.8152 10.7179C10.8593 12.4823 8.45716 15.9365 6.35645 18.5673C4.31071 20.9994 3.46603 23.6614 4.03083 24.8969C4.03083 24.8969 5.63087 23.448 8.91798 24.297C11.1918 18.9762 17.9465 14.5196 14.9924 9.70355Z" fill="url(#paint0_linear_170_92)"/>
<path d="M4.721 20.1184C10.5893 16.5369 12.8133 9.55985 11.6992 3.28387C11.6992 3.28387 10.4061 4.97823 8.88668 4.40261C6.3957 7.99509 -0.893107 16.0195 0.747241 20.3259C0.747241 20.3259 2.51539 18.9031 4.721 20.1184Z" fill="url(#paint1_linear_170_92)"/>
<path d="M1.77331 11.3783C-0.285253 14.1831 -0.445575 17.548 0.747239 20.3258C1.69224 10.7248 11.3117 11.9342 9.97276 0.207886C7.3668 5.99341 4.50616 7.6548 1.77331 11.3783Z" fill="url(#paint2_linear_170_92)"/>
<path d="M16.4985 11.9406L14.9883 9.63672C15.1985 12.7942 14.7743 15.7194 12.8033 18.1982C10.244 21.4161 7.91703 21.2064 6.67383 25.7326C7.37834 25.9062 8.1227 26 8.90096 26C16.1243 26 20.4581 17.9798 16.4985 11.9406Z" fill="url(#paint3_linear_170_92)"/>
<path d="M7.23973 7.09383C6.10692 8.79825 4.68874 10.2911 3.42996 11.9044C2.17118 13.5177 1.04891 15.3073 0.651765 17.3144C0.466246 18.2532 0.49877 19.3518 0.747044 20.3258C1.88306 10.439 11.3033 11.914 9.97257 0.208801C9.5571 2.65325 8.60981 5.03359 7.23973 7.09383Z" fill="url(#paint4_linear_170_92)"/>
<path d="M16.4985 11.9406L14.9883 9.63672C14.9896 9.65916 14.991 9.68114 14.9924 9.70358C16.0075 11.4021 16.4417 13.596 16.1829 15.5239C15.5824 19.9965 11.9966 23.5959 7.98666 25.3287C7.56752 25.5096 7.12503 25.641 6.67383 25.7326C7.37834 25.9066 8.1227 26 8.90096 26H8.90142C16.1243 26 20.4581 17.9798 16.4985 11.9406Z" fill="url(#paint5_linear_170_92)"/>
<path d="M11.908 3.67083L11.6992 3.28387C11.373 5.38899 11.0368 8.94164 6.66496 13.3396C4.78505 15.4241 0.830986 20.4756 4.0306 24.8969C5.52574 18.0032 18.491 18.1168 11.908 3.67083Z" fill="url(#paint6_linear_170_92)"/>
<path d="M11.9084 3.67083L11.6995 3.28387C13.6715 17.4876 2.42586 16.3556 4.03094 24.8969C5.50363 18.0481 18.4065 18.0856 11.9084 3.67083Z" fill="url(#paint7_linear_170_92)"/>
<path d="M3.43008 11.9044C2.1713 13.5173 1.04949 15.3069 0.652344 17.314V17.3145C1.6743 13.2508 5.15242 10.57 7.24031 7.0943C6.1075 8.79827 4.68886 10.2911 3.43008 11.9044Z" fill="url(#paint8_linear_170_92)"/>
<path d="M4.27539 21.0411C5.96429 17.0988 9.61007 16.6212 11.3613 10.6909C9.91332 15.4919 5.55707 17.3621 4.27539 21.0411Z" fill="url(#paint9_linear_170_92)"/>
<path d="M11.161 23.4833C11.1583 23.486 11.1556 23.4883 11.1523 23.4906C13.8435 21.7266 15.9488 18.7913 16.1829 15.5239C15.7482 18.7597 13.751 21.538 11.161 23.4833Z" fill="url(#paint10_linear_170_92)"/>
<defs>
<linearGradient id="paint0_linear_170_92" x1="3.85913" y1="17.3" x2="15.7276" y2="17.3" gradientUnits="userSpaceOnUse">
<stop stop-color="#FECD14"/>
<stop offset="1" stop-color="#FCEB0D"/>
</linearGradient>
<linearGradient id="paint1_linear_170_92" x1="0.509044" y1="11.8046" x2="11.9768" y2="11.8046" gradientUnits="userSpaceOnUse">
<stop stop-color="#FECD14"/>
<stop offset="1" stop-color="#FCEB0D"/>
</linearGradient>
<linearGradient id="paint2_linear_170_92" x1="0" y1="10.2671" x2="10.1003" y2="10.2671" gradientUnits="userSpaceOnUse">
<stop stop-color="#EB6320"/>
<stop offset="0.501961" stop-color="#FAB909"/>
<stop offset="1" stop-color="#FCEB0D"/>
</linearGradient>
<linearGradient id="paint3_linear_170_92" x1="6.67383" y1="17.8186" x2="18.0001" y2="17.8186" gradientUnits="userSpaceOnUse">
<stop stop-color="#EB6320"/>
<stop offset="0.501961" stop-color="#FAB909"/>
<stop offset="1" stop-color="#FCEB0D"/>
</linearGradient>
<linearGradient id="paint4_linear_170_92" x1="0.97562" y1="10.0356" x2="9.6913" y2="10.4965" gradientUnits="userSpaceOnUse">
<stop stop-color="#FCEB0D"/>
<stop offset="0.560784" stop-color="#ED6E24"/>
<stop offset="1" stop-color="#FECD14"/>
</linearGradient>
<linearGradient id="paint5_linear_170_92" x1="6.67383" y1="17.8186" x2="18.0001" y2="17.8186" gradientUnits="userSpaceOnUse">
<stop stop-color="#FCEB0D"/>
<stop offset="0.301961" stop-color="#F8B034"/>
<stop offset="0.501961" stop-color="#F7A826"/>
<stop offset="0.690196" stop-color="#FBBF28"/>
<stop offset="1" stop-color="#FECD14"/>
</linearGradient>
<linearGradient id="paint6_linear_170_92" x1="2.82178" y1="14.0907" x2="13.7602" y2="14.0907" gradientUnits="userSpaceOnUse">
<stop stop-color="#EB6320"/>
<stop offset="0.501961" stop-color="#FAB909"/>
<stop offset="1" stop-color="#FCEB0D"/>
</linearGradient>
<linearGradient id="paint7_linear_170_92" x1="8.09447" y1="25.2473" x2="10.0007" y2="3.13724" gradientUnits="userSpaceOnUse">
<stop stop-color="#FCEB0D"/>
<stop offset="0.501961" stop-color="#F8B027"/>
<stop offset="1" stop-color="#FECD14"/>
</linearGradient>
<linearGradient id="paint8_linear_170_92" x1="0.652344" y1="12.2047" x2="7.24031" y2="12.2047" gradientUnits="userSpaceOnUse">
<stop stop-color="#FEFEFE"/>
<stop offset="0.490196" stop-color="#FEFEFE"/>
<stop offset="1" stop-color="#FEFEFE"/>
</linearGradient>
<linearGradient id="paint9_linear_170_92" x1="4.27539" y1="15.8663" x2="11.3613" y2="15.8663" gradientUnits="userSpaceOnUse">
<stop stop-color="#FEFEFE"/>
<stop offset="0.490196" stop-color="#FEFEFE"/>
<stop offset="1" stop-color="#FEFEFE"/>
</linearGradient>
<linearGradient id="paint10_linear_170_92" x1="11.1523" y1="19.5075" x2="16.1829" y2="19.5075" gradientUnits="userSpaceOnUse">
<stop stop-color="#FEFEFE"/>
<stop offset="0.490196" stop-color="#FEFEFE"/>
<stop offset="1" stop-color="#FEFEFE"/>
</linearGradient>
</defs>
</svg>
