<svg width="20" height="20" viewBox="0 0 20 20" fill="none" xmlns="http://www.w3.org/2000/svg">
<g clip-path="url(#clip0_170_486)">
<path d="M10 6V10L12.5 12.5" stroke="#26AAAB" stroke-linecap="round" stroke-linejoin="round"/>
<path d="M3.60423 3.60423L3.25067 3.25067H3.25067L3.60423 3.60423ZM2.33785 4.87061L1.83785 4.87312C1.83923 5.1473 2.06116 5.36922 2.33534 5.3706L2.33785 4.87061ZM4.88089 5.38339C5.15703 5.38478 5.38201 5.16205 5.38339 4.88591C5.38478 4.60977 5.16205 4.38479 4.88591 4.38341L4.88089 5.38339ZM2.82505 2.32254C2.82366 2.0464 2.59868 1.82367 2.32254 1.82506C2.0464 1.82645 1.82367 2.05143 1.82506 2.32757L2.82505 2.32254ZM1.5 10C1.5 9.72386 1.27614 9.5 1 9.5C0.723858 9.5 0.5 9.72386 0.5 10H1.5ZM14.7504 18.2288C14.9894 18.0905 15.0711 17.7846 14.9328 17.5456C14.7945 17.3066 14.4887 17.2249 14.2496 17.3632L14.7504 18.2288ZM17.3632 14.2496C17.2249 14.4887 17.3066 14.7945 17.5456 14.9328C17.7846 15.0711 18.0905 14.9894 18.2288 14.7504L17.3632 14.2496ZM3.31622 3.24892C3.11999 3.4432 3.11841 3.75978 3.3127 3.95601C3.50699 4.15225 3.82357 4.15382 4.0198 3.95954L3.31622 3.24892ZM16.6855 3.31463C12.9613 -0.409607 6.94629 -0.444943 3.25067 3.25067L3.95778 3.95778C7.25619 0.659371 12.638 0.681307 15.9784 4.02174L16.6855 3.31463ZM3.25067 3.25067L1.98429 4.51705L2.6914 5.22416L3.95778 3.95778L3.25067 3.25067ZM2.33534 5.3706L4.88089 5.38339L4.88591 4.38341L2.34036 4.37061L2.33534 5.3706ZM2.83784 4.86809L2.82505 2.32254L1.82506 2.32757L1.83785 4.87312L2.83784 4.86809ZM10 1.5C14.6944 1.5 18.5 5.30558 18.5 10H19.5C19.5 4.75329 15.2467 0.5 10 0.5V1.5ZM10 18.5C5.30558 18.5 1.5 14.6944 1.5 10H0.5C0.5 15.2467 4.75329 19.5 10 19.5V18.5ZM14.2496 17.3632C12.9999 18.0861 11.5491 18.5 10 18.5V19.5C11.7295 19.5 13.3525 19.0374 14.7504 18.2288L14.2496 17.3632ZM18.5 10C18.5 11.5491 18.0861 12.9999 17.3632 14.2496L18.2288 14.7504C19.0374 13.3525 19.5 11.7295 19.5 10H18.5ZM4.0198 3.95954C5.55608 2.43848 7.66796 1.5 10 1.5V0.5C7.39393 0.5 5.03212 1.55002 3.31622 3.24892L4.0198 3.95954Z" fill="#004B5D"/>
</g>
<defs>
<clipPath id="clip0_170_486">
<rect width="20" height="20" fill="white"/>
</clipPath>
</defs>
</svg>
