<svg width="28" height="28" viewBox="0 0 28 28" fill="none" xmlns="http://www.w3.org/2000/svg">
<path d="M14 8.22221V14L17.6111 17.6111" stroke="#26AAAB" stroke-width="2" stroke-linecap="round" stroke-linejoin="round"/>
<path d="M4.76166 4.76165L4.05455 4.05455L4.05455 4.05455L4.76166 4.76165ZM2.93244 6.59087L1.93246 6.59589C1.93521 7.14425 2.37906 7.5881 2.92742 7.59086L2.93244 6.59087ZM6.60432 7.60933C7.1566 7.61211 7.60656 7.16665 7.60933 6.61437C7.61211 6.06209 7.16665 5.61213 6.61437 5.60936L6.60432 7.60933ZM3.91395 2.90894C3.91118 2.35666 3.46122 1.9112 2.90894 1.91398C2.35666 1.91675 1.9112 2.36671 1.91398 2.91899L3.91395 2.90894ZM2 14C2 13.4477 1.55228 13 1 13C0.447715 13 0 13.4477 0 14H2ZM21.0007 26.1264C21.4788 25.8499 21.6421 25.2381 21.3656 24.7601C21.089 24.282 20.4773 24.1186 19.9992 24.3952L21.0007 26.1264ZM24.3952 19.9992C24.1186 20.4773 24.282 21.089 24.7601 21.3656C25.2381 21.6421 25.8499 21.4788 26.1264 21.0007L24.3952 19.9992ZM4.15021 4.05104C3.75775 4.43961 3.75459 5.07277 4.14317 5.46523C4.53174 5.8577 5.1649 5.86085 5.55736 5.47227L4.15021 4.05104ZM23.8533 4.14693C18.3672 -1.33913 9.50299 -1.39389 4.05455 4.05455L5.46876 5.46876C10.1228 0.814737 17.7206 0.8427 22.4391 5.56115L23.8533 4.14693ZM4.05455 4.05455L2.22534 5.88376L3.63955 7.29798L5.46876 5.46876L4.05455 4.05455ZM2.92742 7.59086L6.60432 7.60933L6.61437 5.60936L2.93747 5.59088L2.92742 7.59086ZM3.93243 6.58584L3.91395 2.90894L1.91398 2.91899L1.93246 6.59589L3.93243 6.58584ZM14 2C20.6274 2 26 7.37257 26 14H28C28 6.268 21.732 0 14 0V2ZM14 26C7.37257 26 2 20.6274 2 14H0C0 21.732 6.268 28 14 28V26ZM19.9992 24.3952C18.2352 25.4156 16.1874 26 14 26V28C16.5483 28 18.9405 27.3182 21.0007 26.1264L19.9992 24.3952ZM26 14C26 16.1874 25.4156 18.2352 24.3952 19.9992L26.1264 21.0007C27.3182 18.9405 28 16.5483 28 14H26ZM5.55736 5.47227C7.72654 3.3246 10.7076 2 14 2V0C10.1595 0 6.67862 1.54768 4.15021 4.05104L5.55736 5.47227Z" fill="#004B5D"/>
</svg>
