<!-- <svg xmlns="http://www.w3.org/2000/svg" width="52" height="204" viewBox="0 0 52 204" fill="none">
  <g filter="url(#filter0_b_170_506)">
    <path fill-rule="evenodd" clip-rule="evenodd" d="M24.8877 34.2075C9.78802 44.0602 0 60.5703 0 78.6002V85.158V118.842V125.4C0 143.43 9.78802 159.94 24.8877 169.793C40.0554 179.69 57.1412 192.2 60.4345 200.209C60.5619 203.647 60.7333 204.904 60.9583 203.327C61.0917 202.392 60.9021 201.346 60.4345 200.209C60.0313 189.324 60.0692 156.582 60.2444 122.684C60.4105 121.346 60.4918 119.973 60.4814 118.567C60.4417 113.198 60.4028 107.642 60.366 102C60.4028 96.3578 60.4417 90.8023 60.4814 85.4325C60.4918 84.0272 60.4105 82.6539 60.2444 81.3163C60.0692 47.4182 60.0313 14.6758 60.4345 3.79145C60.9021 2.65438 61.0917 1.60804 60.9583 0.672801C60.7333 -0.904032 60.5619 0.353071 60.4345 3.79145C57.1412 11.8002 40.0554 24.3103 24.8877 34.2075Z" fill="url(#paint0_linear_170_506)" fill-opacity="0.3"/>
  </g>
  <path d="M11.9583 69C11.4291 69 11 69.4332 11 69.9677C11 70.502 11.4291 70.9352 11.9583 70.9352H15.7817C17.3678 74.9015 18.9301 78.8752 20.5036 82.8488L19.056 86.3664C18.9347 86.6597 18.9689 87.0133 19.1439 87.2775C19.319 87.5416 19.6297 87.7082 19.9446 87.7069H35.9169C36.4232 87.7141 36.8888 87.2506 36.8888 86.7394C36.8888 86.228 36.4232 85.7646 35.9169 85.7717H21.3821L22.2106 83.7761L37.594 82.5364C37.9966 82.5045 38.3611 82.1877 38.4524 81.7904L40.3692 73.4046C40.4946 72.8397 40.004 72.2235 39.4308 72.2254H18.3572L17.319 69.6048C17.1769 69.2501 16.8095 69 16.4306 69H11.9583ZM19.1259 74.1606H38.2229L36.7355 80.6717L22.1707 81.8409L19.1259 74.1606Z" fill="white"/>
  <circle cx="21.861" cy="90.0833" r="1.91667" fill="white"/>
  <circle cx="33.361" cy="90.0833" r="1.91667" fill="white"/>
  <path d="M39.3187 131.343C39.2762 131.307 34.4663 127.865 33.1612 128.091C32.5339 128.202 32.1749 128.629 31.4561 129.486C31.2574 129.724 31.0542 129.959 30.8466 130.189C30.3923 130.041 29.9491 129.861 29.5206 129.65C27.3084 128.573 25.521 126.785 24.4441 124.573C24.2327 124.145 24.0524 123.701 23.9044 123.247C24.1405 123.031 24.4714 122.752 24.6127 122.634C25.4648 121.919 25.8921 121.56 26.0029 120.932C26.2302 119.632 22.7864 114.818 22.7511 114.774C22.5942 114.552 22.39 114.367 22.153 114.233C21.9161 114.099 21.6524 114.02 21.3809 114C19.9851 114 16 119.169 16 120.04C16 120.091 16.0731 125.234 22.4154 131.686C28.8596 138.021 34.0029 138.094 34.0534 138.094C34.9248 138.094 40.0938 134.109 40.0938 132.713C40.0742 132.441 39.9945 132.177 39.8605 131.941C39.7264 131.704 39.5414 131.499 39.3187 131.343ZM33.9651 136.483C33.2632 136.425 28.9472 135.855 23.551 130.554C18.2222 125.129 17.6673 120.801 17.6119 120.13C18.6646 118.478 19.9359 116.976 21.3914 115.664C21.4235 115.696 21.4661 115.744 21.5207 115.807C22.6369 117.331 23.5984 118.962 24.3911 120.676C24.1333 120.936 23.8609 121.18 23.5751 121.408C23.1319 121.746 22.725 122.128 22.3608 122.55L22.1656 122.823L22.2234 123.153C22.3934 123.889 22.6537 124.602 22.9984 125.274C24.2335 127.811 26.283 129.86 28.8195 131.095C29.4917 131.44 30.2042 131.7 30.9405 131.87L31.2706 131.928L31.5437 131.733C31.9669 131.367 32.3512 130.959 32.6905 130.514C32.9419 130.213 33.2784 129.813 33.4053 129.699C35.1247 130.491 36.76 131.454 38.2867 132.573C38.3534 132.629 38.4 132.673 38.4313 132.701C37.12 134.157 35.6176 135.428 33.9651 136.481V136.483Z" fill="white"/>
  
</svg> -->

<svg width="52" height="204" viewBox="0 0 52 204" fill="none" xmlns="http://www.w3.org/2000/svg">
<g id="&#208;&#151;&#208;&#176;&#208;&#186;&#209;&#128;&#208;&#181;&#208;&#191;">
<g id="Union" filter="url(#filter0_b_170_506)">
<path fill-rule="evenodd" clip-rule="evenodd" d="M24.8877 34.2075C9.78802 44.0602 0 60.5703 0 78.6002V85.158V118.842V125.4C0 143.43 9.78802 159.94 24.8877 169.793C40.0554 179.69 57.1412 192.2 60.4345 200.209C60.5619 203.647 60.7333 204.904 60.9583 203.327C61.0917 202.392 60.9021 201.346 60.4345 200.209C60.0313 189.324 60.0692 156.582 60.2444 122.684C60.4105 121.346 60.4918 119.973 60.4814 118.567C60.4417 113.198 60.4028 107.642 60.366 102C60.4028 96.3578 60.4417 90.8023 60.4814 85.4325C60.4918 84.0272 60.4105 82.6539 60.2444 81.3163C60.0692 47.4182 60.0313 14.6758 60.4345 3.79145C60.9021 2.65438 61.0917 1.60804 60.9583 0.672801C60.7333 -0.904032 60.5619 0.353071 60.4345 3.79145C57.1412 11.8002 40.0554 24.3103 24.8877 34.2075Z" fill="url(#paint0_linear_170_506)" fill-opacity="0.3"/>
</g>
<g id="&#208;&#154;&#208;&#190;&#209;&#128;&#208;&#183;&#208;&#184;&#208;&#189;&#208;&#176;">
<g id="Group 2">
<path id="Vector" d="M11.9583 69C11.4291 69 11 69.4332 11 69.9677C11 70.502 11.4291 70.9352 11.9583 70.9352H15.7817C17.3678 74.9015 18.9301 78.8752 20.5036 82.8488L19.056 86.3664C18.9347 86.6597 18.9689 87.0133 19.1439 87.2775C19.319 87.5416 19.6297 87.7082 19.9446 87.7069H35.9169C36.4232 87.7141 36.8888 87.2506 36.8888 86.7394C36.8888 86.228 36.4232 85.7646 35.9169 85.7717H21.3821L22.2106 83.7761L37.594 82.5364C37.9966 82.5045 38.3611 82.1877 38.4524 81.7904L40.3692 73.4046C40.4946 72.8397 40.004 72.2235 39.4308 72.2254H18.3572L17.319 69.6048C17.1769 69.2501 16.8095 69 16.4306 69H11.9583ZM19.1259 74.1606H38.2229L36.7355 80.6717L22.1707 81.8409L19.1259 74.1606Z" fill="white"/>
<circle id="Ellipse 3" cx="21.861" cy="90.0833" r="1.91667" fill="white"/>
<circle id="Ellipse 4" cx="33.361" cy="90.0833" r="1.91667" fill="white"/>
</g>
</g>
<g id="&#208;&#162;&#208;&#181;&#208;&#187; ">
<path id="Layer 3" d="M39.3187 131.343C39.2762 131.307 34.4663 127.865 33.1612 128.091C32.5339 128.202 32.1749 128.629 31.4561 129.486C31.2574 129.724 31.0542 129.959 30.8466 130.189C30.3923 130.041 29.9491 129.861 29.5206 129.65C27.3084 128.573 25.521 126.785 24.4441 124.573C24.2327 124.145 24.0524 123.701 23.9044 123.247C24.1405 123.031 24.4714 122.752 24.6127 122.634C25.4648 121.919 25.8921 121.56 26.0029 120.932C26.2302 119.632 22.7864 114.818 22.7511 114.774C22.5942 114.552 22.39 114.367 22.153 114.233C21.9161 114.099 21.6524 114.02 21.3809 114C19.9851 114 16 119.169 16 120.04C16 120.091 16.0731 125.234 22.4154 131.686C28.8596 138.021 34.0029 138.094 34.0534 138.094C34.9248 138.094 40.0938 134.109 40.0938 132.713C40.0742 132.441 39.9945 132.177 39.8605 131.941C39.7264 131.704 39.5414 131.499 39.3187 131.343ZM33.9651 136.483C33.2632 136.425 28.9472 135.855 23.551 130.554C18.2222 125.129 17.6673 120.801 17.6119 120.13C18.6646 118.478 19.9359 116.976 21.3914 115.664C21.4235 115.696 21.4661 115.744 21.5207 115.807C22.6369 117.331 23.5984 118.962 24.3911 120.676C24.1333 120.936 23.8609 121.18 23.5751 121.408C23.1319 121.746 22.725 122.128 22.3608 122.55L22.1656 122.823L22.2234 123.153C22.3934 123.889 22.6537 124.602 22.9984 125.274C24.2335 127.811 26.283 129.86 28.8195 131.095C29.4917 131.44 30.2042 131.7 30.9405 131.87L31.2706 131.928L31.5437 131.733C31.9669 131.367 32.3512 130.959 32.6905 130.514C32.9419 130.213 33.2784 129.813 33.4053 129.699C35.1247 130.491 36.76 131.454 38.2867 132.573C38.3534 132.629 38.4 132.673 38.4313 132.701C37.12 134.157 35.6176 135.428 33.9651 136.481V136.483Z" fill="white"/>
</g>
</g>
<defs>
<filter id="filter0_b_170_506" x="-15" y="-15" width="91" height="234" filterUnits="userSpaceOnUse" color-interpolation-filters="sRGB">
<feFlood flood-opacity="0" result="BackgroundImageFix"/>
<feGaussianBlur in="BackgroundImageFix" stdDeviation="7.5"/>
<feComposite in2="SourceAlpha" operator="in" result="effect1_backgroundBlur_170_506"/>
<feBlend mode="normal" in="SourceGraphic" in2="effect1_backgroundBlur_170_506" result="shape"/>
</filter>
<linearGradient id="paint0_linear_170_506" x1="-4.99835" y1="63.4951" x2="-4.99835" y2="152.747" gradientUnits="userSpaceOnUse">
<stop stop-color="#006F8A"/>
<stop offset="0.484375" stop-color="#0082A2"/>
<stop offset="1" stop-color="#007F9D"/>
</linearGradient>
</defs>
</svg>
