<svg width="40" height="36" viewBox="0 0 40 36" fill="none" xmlns="http://www.w3.org/2000/svg">
<path d="M18.282 0.499999C16.2227 0.499999 14.7125 0.500512 13.504 0.614606C12.3056 0.727737 11.4421 0.949941 10.6733 1.37268C9.90533 1.79503 9.26661 2.39845 8.55197 3.33595C7.83046 4.28247 7.05391 5.53846 5.99411 7.25404L3.77019 10.854C2.64987 12.6676 1.82994 13.996 1.28625 15.1192C0.747527 16.2322 0.500001 17.1051 0.500001 18C0.500001 18.8949 0.747526 19.7678 1.28625 20.8808C1.82994 22.004 2.64987 23.3324 3.77019 25.146L5.9941 28.746C7.05391 30.4615 7.83046 31.7175 8.55197 32.664C9.26662 33.6015 9.90533 34.205 10.6733 34.6273C11.4421 35.0501 12.3056 35.2723 13.504 35.3854C14.7125 35.4995 16.2227 35.5 18.282 35.5L25.1739 35.5C28.6822 35.5 31.2645 35.499 33.2433 35.2406C35.2091 34.9839 36.5037 34.4811 37.4804 33.5325C38.4551 32.5858 38.97 31.3343 39.2333 29.4318C39.4989 27.5134 39.5 25.0087 39.5 21.6L39.5 14.4C39.5 10.9913 39.4989 8.48662 39.2333 6.5682C38.97 4.66569 38.4551 3.41417 37.4804 2.4675C36.5037 1.51885 35.2091 1.0161 33.2433 0.759393C31.2645 0.501002 28.6822 0.499999 25.1739 0.499999L18.282 0.499999Z" stroke="#E2E9F0"/>
</svg>
