<svg width="40" height="36" viewBox="0 0 40 36" fill="none" xmlns="http://www.w3.org/2000/svg">
<path d="M21.718 0.499999C23.7773 0.499999 25.2875 0.500512 26.496 0.614606C27.6944 0.727737 28.5579 0.949941 29.3267 1.37268C30.0947 1.79503 30.7334 2.39845 31.448 3.33595C32.1695 4.28247 32.9461 5.53846 34.0059 7.25404L36.2298 10.854C37.3501 12.6676 38.1701 13.996 38.7137 15.1192C39.2525 16.2322 39.5 17.1051 39.5 18C39.5 18.8949 39.2525 19.7678 38.7137 20.8808C38.1701 22.004 37.3501 23.3324 36.2298 25.146L34.0059 28.746C32.9461 30.4615 32.1695 31.7175 31.448 32.664C30.7334 33.6015 30.0947 34.205 29.3267 34.6273C28.5579 35.0501 27.6944 35.2723 26.496 35.3854C25.2875 35.4995 23.7773 35.5 21.718 35.5L14.8261 35.5C11.3178 35.5 8.73549 35.499 6.75672 35.2406C4.79088 34.9839 3.49632 34.4811 2.5196 33.5325C1.54491 32.5858 1.03004 31.3343 0.76668 29.4318C0.501124 27.5134 0.499999 25.0087 0.499999 21.6L0.499999 14.4C0.5 10.9913 0.501125 8.48662 0.766681 6.5682C1.03004 4.66569 1.54491 3.41417 2.5196 2.4675C3.49632 1.51885 4.79088 1.0161 6.75672 0.759393C8.73549 0.501002 11.3178 0.499999 14.8261 0.499999L21.718 0.499999Z" stroke="#E2E9F0"/>
</svg>
