<!-- icon666.com - MILLIONS vector ICONS FREE --><svg viewBox="0 0 32 32" xmlns="http://www.w3.org/2000/svg"><g id="Fail" fill-rule="evenodd"><path d="m16 3a13 13 0 1 1 -13 13 13.006 13.006 0 0 1 13-13zm0-2a15 15 0 1 0 15 15 15.007 15.007 0 0 0 -15-15z" fill="#000000" style="fill: rgb(253, 247, 247);"></path><path d="m14.586 16-4.293 4.293a1 1 0 0 0 1.414 1.414l4.293-4.293 4.293 4.293a1 1 0 1 0 1.414-1.414l-4.293-4.293 4.293-4.293a1 1 0 0 0 -1.414-1.414l-4.293 4.293-4.293-4.293a1 1 0 0 0 -1.414 1.414z" fill="#000000" style="fill: rgb(253, 247, 247);"></path></g></svg>