<svg width="30" height="30" viewBox="0 0 30 30" fill="none" xmlns="http://www.w3.org/2000/svg">
<path d="M15 11V15L17.5 17.5" stroke="#26AAAB" stroke-linecap="round" stroke-linejoin="round"/>
<path d="M8.60423 8.60423L8.25067 8.25067H8.25067L8.60423 8.60423ZM7.33785 9.87061L6.83785 9.87312C6.83923 10.1473 7.06116 10.3692 7.33534 10.3706L7.33785 9.87061ZM9.88089 10.3834C10.157 10.3848 10.382 10.1621 10.3834 9.88591C10.3848 9.60977 10.1621 9.38479 9.88591 9.38341L9.88089 10.3834ZM7.82505 7.32254C7.82366 7.0464 7.59868 6.82367 7.32254 6.82506C7.0464 6.82645 6.82367 7.05143 6.82506 7.32757L7.82505 7.32254ZM6.5 15C6.5 14.7239 6.27614 14.5 6 14.5C5.72386 14.5 5.5 14.7239 5.5 15H6.5ZM19.7504 23.2288C19.9894 23.0905 20.0711 22.7846 19.9328 22.5456C19.7945 22.3066 19.4887 22.2249 19.2496 22.3632L19.7504 23.2288ZM22.3632 19.2496C22.2249 19.4887 22.3066 19.7945 22.5456 19.9328C22.7846 20.0711 23.0905 19.9894 23.2288 19.7504L22.3632 19.2496ZM8.31622 8.24892C8.11999 8.4432 8.11841 8.75978 8.3127 8.95601C8.50699 9.15225 8.82357 9.15382 9.0198 8.95954L8.31622 8.24892ZM21.6855 8.31463C17.9613 4.59039 11.9463 4.55506 8.25067 8.25067L8.95778 8.95778C12.2562 5.65937 17.638 5.68131 20.9784 9.02174L21.6855 8.31463ZM8.25067 8.25067L6.98429 9.51705L7.6914 10.2242L8.95778 8.95778L8.25067 8.25067ZM7.33534 10.3706L9.88089 10.3834L9.88591 9.38341L7.34036 9.37061L7.33534 10.3706ZM7.83784 9.86809L7.82505 7.32254L6.82506 7.32757L6.83785 9.87312L7.83784 9.86809ZM15 6.5C19.6944 6.5 23.5 10.3056 23.5 15H24.5C24.5 9.75329 20.2467 5.5 15 5.5V6.5ZM15 23.5C10.3056 23.5 6.5 19.6944 6.5 15H5.5C5.5 20.2467 9.75329 24.5 15 24.5V23.5ZM19.2496 22.3632C17.9999 23.0861 16.5491 23.5 15 23.5V24.5C16.7295 24.5 18.3525 24.0374 19.7504 23.2288L19.2496 22.3632ZM23.5 15C23.5 16.5491 23.0861 17.9999 22.3632 19.2496L23.2288 19.7504C24.0374 18.3525 24.5 16.7295 24.5 15H23.5ZM9.0198 8.95954C10.5561 7.43848 12.668 6.5 15 6.5V5.5C12.3939 5.5 10.0321 6.55002 8.31622 8.24892L9.0198 8.95954Z" fill="#004B5D"/>
</svg>
