<svg width="234" height="84" viewBox="0 0 234 84" fill="none" xmlns="http://www.w3.org/2000/svg">
<path d="M105.037 21.2856C104.471 22.7535 101.147 23.5562 100.156 23.5593C95.7716 27.5144 90.387 35.2574 85.678 41.1547C81.0923 46.6064 79.1988 52.5735 80.4649 55.343C80.4649 55.343 84.0516 52.0952 91.42 53.9983C96.5171 42.0713 111.658 32.0814 105.037 21.2856Z" fill="url(#paint0_linear_170_426)"/>
<path d="M82.0123 44.6315C95.1668 36.6032 100.152 20.9633 97.6548 6.89508C97.6548 6.89508 94.7561 10.6932 91.3501 9.40284C85.7663 17.4558 69.4277 35.4432 73.1047 45.0965C73.1047 45.0965 77.0682 41.9072 82.0123 44.6315Z" fill="url(#paint1_linear_170_426)"/>
<path d="M75.4048 25.0396C70.7903 31.3269 70.4309 38.8697 73.1047 45.0965C75.223 23.5747 96.7861 26.2857 93.7847 0C87.9432 12.9689 81.5307 16.693 75.4048 25.0396Z" fill="url(#paint2_linear_170_426)"/>
<path d="M108.413 26.3001L105.027 21.1358C105.499 28.2135 104.548 34.7708 100.129 40.3273C94.3926 47.5406 89.1764 47.0704 86.3896 57.2164C87.9689 57.6055 89.6375 57.8159 91.382 57.8159C107.574 57.8159 117.288 39.8377 108.413 26.3001Z" fill="url(#paint3_linear_170_426)"/>
<path d="M87.6589 15.4355C85.1196 19.2562 81.9406 22.6026 79.1189 26.219C76.2972 29.8354 73.7815 33.8469 72.8913 38.3461C72.4754 40.4505 72.5483 42.913 73.1048 45.0964C75.6513 22.9342 96.7677 26.2405 93.7848 0.00201416C92.8535 5.4815 90.7301 10.8173 87.6589 15.4355Z" fill="url(#paint4_linear_170_426)"/>
<path d="M108.413 26.3001L105.027 21.1358C105.03 21.1861 105.033 21.2353 105.037 21.2856C107.312 25.093 108.285 30.0109 107.705 34.3325C106.359 44.3584 98.3212 52.4268 89.3325 56.3111C88.393 56.7165 87.4011 57.0111 86.3896 57.2164C87.9689 57.6065 89.6375 57.8159 91.382 57.8159H91.383C107.574 57.8159 117.288 39.8377 108.413 26.3001Z" fill="url(#paint5_linear_170_426)"/>
<path d="M98.1232 7.76248L97.6549 6.89508C96.9239 11.6139 96.1702 19.5776 86.3703 29.4361C82.1562 34.1088 73.2928 45.4322 80.4651 55.3431C83.8166 39.8901 112.879 40.1446 98.1232 7.76248Z" fill="url(#paint6_linear_170_426)"/>
<path d="M98.1227 7.76248L97.6545 6.89508C102.075 38.7342 76.8667 36.1967 80.4646 55.3431C83.7658 39.9907 112.689 40.0748 98.1227 7.76248Z" fill="url(#paint7_linear_170_426)"/>
<path d="M79.1187 26.219C76.297 29.8344 73.7823 33.846 72.8921 38.3451V38.3462C75.1829 29.237 82.9795 23.2278 87.6597 15.4366C85.1204 19.2562 81.9404 22.6027 79.1187 26.219Z" fill="url(#paint8_linear_170_426)"/>
<path d="M81.0132 46.6998C84.799 37.8626 92.9714 36.792 96.8969 23.4987C93.6512 34.2606 83.8862 38.4529 81.0132 46.6998Z" fill="url(#paint9_linear_170_426)"/>
<path d="M96.4482 52.1742C96.4421 52.1804 96.4359 52.1855 96.4287 52.1906C102.461 48.2365 107.18 41.6566 107.705 34.3325C106.731 41.5858 102.254 47.8136 96.4482 52.1742Z" fill="url(#paint10_linear_170_426)"/>
<path d="M180.013 28.8258C180 28.8545 179.994 28.8946 179.994 28.9438C179.994 29.1081 180.037 29.259 180.122 29.3955C180.213 29.5392 180.35 29.6716 180.536 29.7897C180.73 29.9139 180.938 30.0083 181.158 30.0699C181.377 30.1325 181.609 30.1644 181.855 30.1644L183.023 30.1869C183.459 30.1869 183.826 30.1531 184.125 30.0874C184.411 30.0247 184.636 29.9324 184.798 29.8112C184.955 29.6922 185.073 29.5474 185.151 29.3791C185.23 29.2076 185.27 29.0065 185.27 28.7775C185.27 28.6184 185.24 28.4727 185.181 28.3413C185.121 28.2099 185.03 28.0898 184.91 27.983C184.78 27.8681 184.633 27.7685 184.473 27.6853C184.313 27.6001 184.135 27.5324 183.943 27.4811C183.738 27.4256 183.535 27.3743 183.335 27.3291C183.132 27.2819 182.93 27.2398 182.73 27.2019C182.524 27.1618 182.33 27.1177 182.15 27.0705C181.973 27.0243 181.809 26.974 181.658 26.9206C181.489 26.86 181.358 26.7871 181.266 26.703C181.15 26.5952 181.093 26.472 181.093 26.3334C181.093 26.1138 181.18 25.9454 181.355 25.8315C181.502 25.736 181.708 25.6867 181.975 25.6867L183.135 25.7114C183.375 25.7103 183.577 25.7494 183.74 25.8253C183.92 25.9085 184.051 26.0368 184.132 26.2061C184.176 26.3016 184.23 26.3714 184.29 26.4145C184.342 26.4515 184.404 26.47 184.477 26.47H184.936C184.953 26.47 184.971 26.4669 184.99 26.4597C185.016 26.4484 185.044 26.433 185.073 26.4114L185.075 26.4094C185.09 26.3991 185.103 26.3827 185.11 26.3632C185.121 26.3345 185.127 26.2955 185.127 26.2452C185.127 26.0799 185.085 25.929 185 25.7925C184.911 25.6498 184.772 25.5184 184.586 25.3993C184.198 25.1499 183.758 25.0246 183.27 25.0246L182.29 25C181.855 25.001 181.486 25.0339 181.187 25.0996C180.899 25.1642 180.675 25.2566 180.516 25.3778C180.359 25.4968 180.241 25.6416 180.164 25.8089C180.085 25.9803 180.044 26.1815 180.044 26.4104C180.044 26.5315 180.061 26.6424 180.093 26.743C180.124 26.8436 180.171 26.937 180.233 27.0222C180.3 27.1115 180.376 27.1916 180.463 27.2624C180.551 27.3332 180.649 27.3948 180.758 27.4472C180.875 27.5026 180.999 27.556 181.13 27.6053C181.262 27.6566 181.4 27.7028 181.539 27.7439C181.685 27.787 181.831 27.827 181.974 27.8619C182.118 27.8968 182.263 27.9286 182.41 27.9574L182.842 28.0456L183.236 28.1339C183.893 28.2869 184.222 28.5271 184.222 28.8586C184.222 29.0793 184.134 29.2467 183.96 29.3606C183.812 29.4561 183.605 29.5043 183.34 29.5043L181.99 29.4776C181.75 29.4776 181.548 29.4396 181.385 29.3647C181.206 29.2816 181.074 29.1543 180.993 28.9859C180.948 28.8905 180.896 28.8217 180.836 28.7796C180.784 28.7416 180.72 28.7231 180.647 28.7231H180.188C180.169 28.7231 180.148 28.7272 180.129 28.7344C180.104 28.7437 180.075 28.7591 180.044 28.7816C180.031 28.7919 180.02 28.8063 180.013 28.8258ZM186.462 25.1961V30.0032C186.462 30.0268 186.465 30.0473 186.471 30.0627C186.479 30.0792 186.491 30.0956 186.504 30.1079L186.506 30.1099C186.525 30.1264 186.542 30.1387 186.561 30.1459C186.578 30.152 186.601 30.1561 186.625 30.1561H187.343C187.368 30.1561 187.389 30.152 187.406 30.1459C187.425 30.1377 187.445 30.1243 187.463 30.1069C187.481 30.0894 187.493 30.073 187.5 30.0566C187.506 30.0412 187.51 30.0206 187.51 29.997V25.1961C187.51 25.1714 187.506 25.1488 187.499 25.1314C187.493 25.115 187.481 25.0975 187.464 25.0811L187.462 25.079C187.448 25.0636 187.43 25.0513 187.413 25.0441C187.393 25.037 187.37 25.0328 187.343 25.0328H186.625C186.602 25.0328 186.58 25.0359 186.563 25.0431C186.546 25.0503 186.529 25.0636 186.51 25.0811C186.493 25.0985 186.481 25.116 186.473 25.1324C186.466 25.1509 186.462 25.1725 186.462 25.1961ZM189.022 25.1961V29.997C189.022 30.0206 189.026 30.0412 189.033 30.0566C189.04 30.075 189.052 30.0915 189.068 30.1069C189.087 30.1243 189.105 30.1377 189.124 30.1459C189.14 30.152 189.162 30.1561 189.186 30.1561H189.865C189.889 30.1561 189.91 30.152 189.927 30.1459C189.944 30.1387 189.961 30.1264 189.979 30.1089C189.994 30.0935 190.007 30.0761 190.014 30.0576C190.021 30.0412 190.024 30.0206 190.024 29.997V26.0008C190.767 27.1526 191.971 28.7704 192.532 29.8903C192.554 29.9272 192.582 29.9621 192.614 29.9939C192.643 30.0247 192.681 30.0555 192.724 30.0833C192.764 30.111 192.801 30.1305 192.832 30.1418C192.861 30.151 192.89 30.1561 192.92 30.1561H194.2C194.224 30.1561 194.244 30.152 194.262 30.1459C194.278 30.1387 194.296 30.1264 194.313 30.1089C194.329 30.0935 194.342 30.0761 194.349 30.0576C194.355 30.0412 194.359 30.0206 194.359 29.997V25.1961C194.359 25.1683 194.355 25.1447 194.349 25.1273C194.341 25.1098 194.329 25.0934 194.315 25.078C194.299 25.0616 194.281 25.0503 194.264 25.0431C194.246 25.0359 194.225 25.0328 194.2 25.0328H193.537C193.512 25.0328 193.49 25.0359 193.472 25.0431C193.456 25.0503 193.437 25.0626 193.421 25.079C193.405 25.0944 193.394 25.1109 193.387 25.1273C193.381 25.1437 193.377 25.1642 193.377 25.1879V29.4602L190.675 25.3059C190.649 25.2669 190.62 25.2289 190.587 25.194C190.555 25.1612 190.519 25.1293 190.481 25.1027C190.445 25.076 190.41 25.0575 190.379 25.0462C190.357 25.037 190.334 25.0328 190.313 25.0328H189.178C189.154 25.0328 189.134 25.0359 189.118 25.0421C189.102 25.0503 189.085 25.0616 189.068 25.079C189.053 25.0955 189.04 25.1129 189.033 25.1304C189.026 25.1488 189.022 25.1704 189.022 25.1961ZM202.323 25.1879V29.9888C202.323 30.0155 202.327 30.0391 202.335 30.0576C202.342 30.075 202.353 30.0915 202.368 30.1069C202.387 30.1243 202.406 30.1377 202.425 30.1459C202.441 30.152 202.463 30.1561 202.486 30.1561H206.915C206.94 30.1561 206.96 30.152 206.978 30.1459C206.995 30.1387 207.014 30.1253 207.031 30.1079C207.049 30.0915 207.06 30.075 207.067 30.0586C207.074 30.0412 207.078 30.0206 207.078 29.997V29.6254C207.078 29.6018 207.074 29.5813 207.068 29.5649C207.061 29.5474 207.049 29.53 207.034 29.5146C207.017 29.4981 207 29.4858 206.985 29.4797C206.97 29.4735 206.949 29.4704 206.925 29.4704H203.372V27.9286H206.467C206.512 27.9286 206.55 27.9122 206.58 27.8814C206.597 27.865 206.609 27.8465 206.616 27.8301C206.623 27.8126 206.627 27.7911 206.627 27.7675V27.4051C206.627 27.3815 206.623 27.361 206.616 27.3445C206.609 27.3261 206.597 27.3086 206.581 27.2922C206.564 27.2747 206.545 27.2624 206.529 27.2552C206.512 27.248 206.491 27.245 206.467 27.245H203.372V25.7186H206.934C206.978 25.7186 207.016 25.7032 207.047 25.6713C207.078 25.6405 207.095 25.6026 207.095 25.5594V25.1961C207.095 25.1714 207.091 25.1499 207.084 25.1324C207.076 25.116 207.064 25.0985 207.047 25.0811L207.046 25.079C207.029 25.0626 207.012 25.0503 206.995 25.0431C206.978 25.0359 206.957 25.0328 206.934 25.0328H202.486C202.462 25.0328 202.439 25.0359 202.423 25.0431C202.404 25.0503 202.386 25.0626 202.368 25.079C202.352 25.0955 202.341 25.1119 202.333 25.1293C202.327 25.1437 202.323 25.1642 202.323 25.1879ZM210.659 29.4335V29.997C210.659 30.0196 210.662 30.0391 210.669 30.0555C210.676 30.072 210.689 30.0884 210.706 30.1038L210.707 30.1069C210.726 30.1243 210.745 30.1377 210.765 30.1448C210.784 30.152 210.806 30.1561 210.83 30.1561H215.111C215.136 30.1561 215.157 30.152 215.175 30.1459C215.193 30.1377 215.213 30.1243 215.231 30.1069C215.249 30.0904 215.261 30.073 215.268 30.0566C215.274 30.0401 215.278 30.0196 215.278 29.997V29.6336C215.278 29.609 215.274 29.5875 215.268 29.571C215.26 29.5526 215.248 29.5341 215.23 29.5166C215.215 29.5002 215.198 29.4889 215.181 29.4817C215.161 29.4735 215.139 29.4704 215.111 29.4704H211.707V29.2682C211.707 29.0927 211.796 28.9408 211.971 28.8145C212.112 28.7129 212.314 28.6256 212.577 28.5517C212.811 28.4881 213.048 28.4306 213.283 28.371C213.407 28.3413 213.532 28.3064 213.659 28.2674C213.786 28.2273 213.912 28.1842 214.035 28.138C214.156 28.0929 214.272 28.0415 214.383 27.9871C214.498 27.9296 214.604 27.8691 214.7 27.8085C214.792 27.749 214.875 27.6802 214.95 27.6022C215.026 27.5211 215.094 27.4308 215.152 27.3312C215.209 27.2326 215.253 27.1238 215.281 27.0058C215.309 26.8847 215.325 26.7492 215.325 26.6003C215.325 26.4484 215.311 26.3078 215.285 26.1805C215.259 26.0532 215.22 25.9351 215.168 25.8253C215.038 25.5584 214.818 25.3562 214.507 25.2197C214.177 25.0739 213.742 25.001 213.206 25.001H212.685C212.514 25.001 212.347 25.0154 212.186 25.0421C212.022 25.0698 211.862 25.1119 211.707 25.1663C211.554 25.2207 211.414 25.2884 211.287 25.3685C211.162 25.4476 211.049 25.5399 210.947 25.6457C210.852 25.7463 210.78 25.851 210.734 25.9598C210.69 26.0655 210.666 26.1784 210.666 26.2985C210.666 26.3293 210.671 26.3581 210.68 26.3837C210.691 26.4125 210.707 26.4412 210.728 26.4689C210.742 26.4874 210.758 26.5008 210.777 26.509C210.799 26.5192 210.827 26.5244 210.86 26.5244H211.32C211.394 26.5244 211.457 26.5059 211.508 26.47C211.566 26.4299 211.616 26.3653 211.657 26.279L211.659 26.2749C211.759 26.0758 211.912 25.9259 212.116 25.8263C212.307 25.734 212.542 25.6867 212.82 25.6867H213.094C213.283 25.6867 213.449 25.7021 213.589 25.7319C213.743 25.7637 213.87 25.815 213.966 25.8838C214.074 25.9598 214.155 26.0665 214.206 26.2041C214.253 26.3262 214.276 26.471 214.276 26.6383C214.276 26.8323 214.192 27.0007 214.026 27.1433C213.884 27.2634 213.68 27.3651 213.415 27.4451L213.062 27.5416L212.698 27.6309C212.568 27.6617 212.442 27.6956 212.324 27.7315C212.201 27.7695 212.076 27.8126 211.951 27.8598C211.827 27.9071 211.71 27.9584 211.6 28.0128C211.493 28.0672 211.387 28.1278 211.287 28.1924C211.197 28.2499 211.114 28.3197 211.039 28.4008C210.963 28.4829 210.895 28.5774 210.835 28.6831C210.777 28.7847 210.733 28.8987 210.704 29.0229C210.674 29.1491 210.659 29.2867 210.659 29.4335ZM216.255 26.9062C216.222 27.1136 216.205 27.3435 216.205 27.594C216.205 28.0877 216.268 28.5065 216.397 28.8494C216.52 29.1799 216.705 29.4427 216.949 29.6378C217.179 29.8194 217.444 29.957 217.744 30.0473C218.048 30.1397 218.392 30.1869 218.775 30.1869H219.045C219.428 30.1869 219.772 30.1407 220.076 30.0473C220.376 29.957 220.642 29.8194 220.872 29.6378C221.367 29.2436 221.616 28.563 221.616 27.594C221.616 27.1023 221.551 26.6865 221.424 26.3447C221.301 26.0132 221.116 25.7504 220.872 25.5543C220.642 25.3706 220.375 25.233 220.075 25.1406C219.771 25.0472 219.427 25.001 219.045 25.001H218.775C218.393 25.001 218.049 25.0482 217.746 25.1406C217.445 25.233 217.179 25.3706 216.949 25.5543C216.834 25.6457 216.73 25.7565 216.64 25.8848C216.549 26.0162 216.47 26.1671 216.404 26.3375C216.338 26.5079 216.288 26.6978 216.255 26.9062ZM217.666 26.1856C217.948 25.853 218.364 25.6867 218.91 25.6867C219.456 25.6867 219.87 25.8541 220.154 26.1856C220.428 26.509 220.567 26.9791 220.567 27.596C220.567 28.214 220.428 28.6841 220.154 29.0065C219.87 29.338 219.456 29.5043 218.91 29.5043C218.363 29.5043 217.948 29.338 217.666 29.0065C217.391 28.6831 217.253 28.213 217.253 27.596C217.253 26.9791 217.391 26.509 217.666 26.1856ZM222.54 26.9062C222.507 27.1136 222.491 27.3435 222.491 27.594C222.491 28.0877 222.554 28.5065 222.682 28.8494C222.806 29.1799 222.991 29.4427 223.235 29.6378C223.465 29.8194 223.73 29.957 224.03 30.0473C224.334 30.1397 224.678 30.1869 225.06 30.1869H225.33C225.713 30.1869 226.058 30.1407 226.362 30.0473C226.662 29.957 226.927 29.8194 227.157 29.6378C227.653 29.2436 227.901 28.563 227.901 27.594C227.901 27.1023 227.837 26.6865 227.71 26.3447C227.587 26.0132 227.402 25.7504 227.157 25.5543C226.927 25.3706 226.661 25.233 226.36 25.1406C226.056 25.0472 225.713 25.001 225.33 25.001H225.06C224.678 25.001 224.335 25.0482 224.032 25.1406C223.731 25.233 223.465 25.3706 223.235 25.5543C223.12 25.6457 223.017 25.7565 222.926 25.8848C222.835 26.0162 222.755 26.1671 222.69 26.3375C222.623 26.5079 222.574 26.6978 222.54 26.9062ZM223.952 26.1856C224.234 25.853 224.649 25.6867 225.195 25.6867C225.742 25.6867 226.157 25.8541 226.439 26.1856C226.714 26.509 226.852 26.9791 226.852 27.596C226.852 28.214 226.714 28.6841 226.439 29.0065C226.157 29.338 225.742 29.5043 225.195 29.5043C224.649 29.5043 224.234 29.338 223.951 29.0065C223.677 28.6831 223.539 28.213 223.539 27.596C223.539 26.9791 223.677 26.509 223.952 26.1856ZM231.655 25.001H230.81C230.457 25.001 230.151 25.0318 229.89 25.0944C229.638 25.155 229.428 25.2453 229.259 25.3644C229.1 25.4742 228.981 25.6231 228.901 25.8099C228.818 26.0049 228.776 26.2441 228.776 26.5274C228.776 26.8118 228.818 27.052 228.901 27.247C228.981 27.4338 229.1 27.5827 229.259 27.6935C229.601 27.9338 230.119 28.0549 230.81 28.0549H232.64V28.4008C232.64 28.5928 232.619 28.758 232.578 28.8956C232.532 29.0506 232.458 29.1738 232.357 29.2621C232.263 29.3462 232.143 29.4088 231.998 29.4489C231.865 29.4858 231.711 29.5043 231.536 29.5043H230.826C230.6 29.5043 230.405 29.4704 230.245 29.4027C230.07 29.3288 229.936 29.2159 229.846 29.066C229.794 28.9767 229.737 28.912 229.679 28.873C229.628 28.8402 229.574 28.8227 229.515 28.8227H229.055C229.038 28.8227 229.02 28.8268 229.002 28.833C228.976 28.8432 228.948 28.8607 228.919 28.8822C228.903 28.8935 228.89 28.91 228.883 28.9305C228.87 28.9582 228.864 28.9982 228.864 29.0475C228.864 29.2025 228.903 29.3452 228.98 29.4725C229.06 29.6059 229.186 29.7291 229.353 29.8389C229.528 29.9539 229.726 30.0412 229.946 30.0987C230.169 30.1572 230.418 30.1869 230.691 30.1869H231.669C232.023 30.1869 232.329 30.152 232.587 30.0833C232.838 30.0165 233.044 29.917 233.208 29.7866C233.365 29.6614 233.484 29.4879 233.563 29.2672C233.647 29.0331 233.689 28.7437 233.689 28.4008V26.6968C233.689 26.3724 233.647 26.0994 233.563 25.8777C233.483 25.6683 233.365 25.504 233.208 25.386C232.871 25.1293 232.352 25.001 231.655 25.001ZM232.438 27.3723H230.945C230.773 27.3723 230.623 27.3589 230.494 27.3343C230.354 27.3066 230.237 27.2624 230.143 27.2039C230.033 27.1341 229.951 27.0386 229.897 26.9175C229.849 26.8077 229.824 26.6783 229.824 26.5305C229.824 26.3827 229.849 26.2523 229.898 26.1425C229.951 26.0214 230.033 25.9259 230.144 25.8571C230.239 25.7986 230.357 25.7535 230.496 25.7257C230.627 25.7011 230.777 25.6867 230.945 25.6867H231.52C231.697 25.6867 231.853 25.7032 231.987 25.734C232.132 25.7678 232.253 25.8222 232.347 25.8951C232.451 25.9762 232.527 26.0901 232.575 26.2359C232.618 26.3642 232.64 26.5182 232.64 26.6968V27.3723H232.438ZM195.723 28.7734C195.832 29.0937 195.993 29.3565 196.208 29.5608C196.422 29.7671 196.695 29.9221 197.023 30.0258C197.361 30.1325 197.758 30.1869 198.215 30.1869H199.154C199.43 30.1869 199.686 30.152 199.924 30.0822C200.161 30.0135 200.383 29.9087 200.589 29.7691C200.785 29.6367 200.931 29.4817 201.027 29.3041C201.123 29.1266 201.17 28.9233 201.17 28.6923C201.17 28.6626 201.166 28.6349 201.157 28.6102C201.146 28.5815 201.13 28.5538 201.108 28.526L201.106 28.524C201.092 28.5045 201.075 28.4901 201.057 28.4819C201.037 28.4727 201.01 28.4675 200.979 28.4675H200.52C200.446 28.4675 200.381 28.4891 200.326 28.5322C200.26 28.5825 200.201 28.6646 200.149 28.7765C200.039 29.0157 199.888 29.1974 199.698 29.3195C199.507 29.4427 199.281 29.5043 199.021 29.5043H198.253C197.953 29.5043 197.695 29.4704 197.484 29.4027C197.255 29.3308 197.077 29.2179 196.952 29.065C196.831 28.9192 196.741 28.718 196.685 28.4645C196.631 28.2232 196.604 27.9338 196.604 27.594C196.604 27.2542 196.631 26.9637 196.685 26.7245C196.741 26.47 196.831 26.2688 196.952 26.124C197.077 25.9721 197.255 25.8592 197.484 25.7873C197.696 25.7206 197.953 25.6867 198.253 25.6867H198.939C199.2 25.6867 199.426 25.7493 199.618 25.8715C199.808 25.9947 199.959 26.1753 200.071 26.4135C200.124 26.5264 200.182 26.6075 200.248 26.6578C200.302 26.6999 200.366 26.7214 200.44 26.7214H200.899C200.919 26.7214 200.937 26.7173 200.957 26.7102C200.982 26.7009 201.011 26.6845 201.043 26.6619C201.056 26.6516 201.067 26.6363 201.076 26.6178C201.087 26.589 201.093 26.549 201.093 26.4987C201.093 26.2698 201.045 26.0655 200.949 25.889C200.853 25.7103 200.706 25.5543 200.51 25.4209C200.301 25.2813 200.078 25.1755 199.841 25.1057C199.603 25.0359 199.348 25.001 199.074 25.001H198.215C197.757 25.001 197.36 25.0544 197.024 25.1612C196.696 25.2669 196.423 25.4219 196.208 25.6282C195.994 25.8345 195.832 26.0973 195.723 26.4176C195.612 26.7481 195.555 27.1413 195.555 27.596C195.555 28.0508 195.612 28.4439 195.723 28.7734Z" fill="#B3E2ED"/>
<path d="M186.992 67.733V63.9072C186.992 63.3251 187.179 62.8417 187.553 62.467C187.927 62.0933 188.411 61.9065 188.983 61.9065H196.664L201.073 44.1654C202.692 37.6522 208.1 34.4034 217.248 34.4034H231.873C232.456 34.4034 232.931 34.5881 233.302 34.9638C233.679 35.3457 233.874 35.822 233.874 36.404V67.733C233.874 68.2934 233.676 68.7667 233.302 69.1403C232.929 69.5129 232.455 69.7008 231.873 69.7008H188.983C188.411 69.7008 187.927 69.5139 187.553 69.1403C187.179 68.7656 186.992 68.2934 186.992 67.733ZM116.998 67.8572V36.5282C116.998 35.9462 117.186 35.473 117.57 35.088C117.944 34.7154 118.406 34.5276 118.966 34.5276H138.231C142.333 34.5276 145.654 35.319 148.205 36.9132C150.745 38.496 152.021 40.8929 152.021 44.0802C152.021 47.2685 150.701 49.6757 148.062 51.3027C151.812 53.1935 153.692 55.9959 153.692 59.7118C153.692 63.4278 152.483 66.0433 150.052 67.5492C147.633 69.0664 144.147 69.825 139.618 69.825H118.966C118.406 69.825 117.944 69.6382 117.57 69.2645C117.186 68.8909 116.998 68.4176 116.998 67.8572ZM128.148 62.6477H138.848C140.024 62.6477 140.937 62.3058 141.564 61.6468C142.201 60.9765 142.52 60.0968 142.52 59.0087C142.52 57.9093 142.201 57.0296 141.564 56.3593C140.937 55.6992 140.024 55.3697 138.848 55.3697H128.148V62.6477ZM128.148 48.3125H137.583C138.551 48.3125 139.343 48.0046 139.958 47.3897C140.562 46.7851 140.87 45.9936 140.87 45.0256C140.87 44.0587 140.562 43.2672 139.958 42.6626C139.343 42.0467 138.551 41.7388 137.583 41.7388H128.148V48.3125ZM156.372 67.7371V36.4081C156.372 35.8251 156.559 35.3529 156.943 34.9679C157.318 34.5943 157.779 34.4075 158.341 34.4075H165.069C165.653 34.4075 166.136 34.5943 166.51 34.9679C166.884 35.3529 167.071 35.8251 167.071 36.4081V57.5685L178.408 36.7263C178.76 36.056 179.276 35.5068 179.991 35.0675C180.695 34.6271 181.387 34.4075 182.048 34.4075H191.075C191.646 34.4075 192.131 34.5943 192.505 34.9679C192.878 35.3529 193.065 35.8251 193.065 36.4081V67.7371C193.065 68.3191 192.878 68.7923 192.505 69.1547C192.131 69.5181 191.646 69.7049 191.075 69.7049H184.334C183.762 69.7049 183.29 69.5181 182.916 69.1444C182.553 68.7697 182.377 68.2975 182.377 67.7371V46.6095L171.029 67.385C170.689 68.0122 170.16 68.5501 169.457 69.012C168.742 69.4739 168.06 69.7049 167.39 69.7049H158.341C157.757 69.7049 157.284 69.5181 156.922 69.1547C156.559 68.7923 156.372 68.3191 156.372 67.7371ZM207.198 61.9065H222.725V42.1966H216.897C213.774 42.1966 211.767 43.7702 210.97 46.9349L207.198 61.9065Z" fill="url(#paint11_linear_170_426)"/>
<path d="M0.0717773 40.2831V36.4584C0.0717773 35.8753 0.259684 35.4031 0.633444 35.0182C1.0072 34.6445 1.49083 34.4577 2.06277 34.4577C15.1341 34.4577 28.2044 34.5008 41.2726 34.5008C41.8548 34.5008 42.3282 34.6876 42.6907 35.0613C43.0531 35.4462 43.241 35.9184 43.241 36.5015V48.4726C46.9796 48.4726 49.5302 47.0324 50.9041 44.1305L54.0061 37.5567C54.4343 36.6339 55.0607 35.8969 55.8975 35.3364C56.7436 34.7759 57.6451 34.5008 58.6124 34.5008H64.6932C65.7713 34.5008 66.3104 34.9186 66.3104 35.7542C66.3104 36.2264 66.1338 36.831 65.7929 37.5567L61.6364 46.318C60.9217 47.7797 59.9657 49.0331 58.7336 50.0883C57.5127 51.1436 56.1943 51.8139 54.7752 52.1218C57.4141 52.9133 59.7019 54.8482 61.6364 57.9154L67.1124 66.7752C67.4758 67.3911 67.673 67.929 67.6956 68.3796C67.6956 69.325 67.1349 69.7982 66.0126 69.7982H59.9319C57.8649 69.7982 56.2271 68.7871 54.9949 66.7752L50.9041 60.1029C49.1452 57.2441 46.5946 55.8152 43.241 55.8152V67.8304C43.241 68.4125 43.0531 68.8857 42.6804 69.248C42.3056 69.6114 41.8333 69.7982 41.2726 69.7982H34.0593C33.476 69.7982 33.0037 69.6114 32.6402 69.248C32.2777 68.8857 32.0909 68.4125 32.0909 67.8304V42.2509H23.516V67.7873C23.516 68.3478 23.3291 68.82 22.9553 69.1947C22.5805 69.5683 22.1082 69.7551 21.525 69.7551H14.3342C13.7623 69.7551 13.2786 69.5683 12.9049 69.1947C12.5311 68.82 12.3432 68.3478 12.3432 67.7873V42.2509H2.06277C1.49083 42.2509 1.0072 42.0641 0.633444 41.6905C0.259684 41.3168 0.0717773 40.8436 0.0717773 40.2831Z" fill="url(#paint12_linear_170_426)"/>
<path d="M2.47051 82.1728C1.87085 82.1728 1.39133 82.1174 1.02887 82.0076C0.667428 81.8967 0.406618 81.7078 0.244381 81.442C0.082145 81.1761 0 80.8107 0 80.3457V79.2771C0 78.8151 0.082145 78.4497 0.244381 78.1838C0.406618 77.918 0.667428 77.7301 1.02887 77.6203C1.39133 77.5094 1.87085 77.454 2.47051 77.454H3.89675C4.16064 77.454 4.37525 77.4992 4.53748 77.5916C4.69972 77.6839 4.81678 77.8174 4.89071 77.9919C4.96464 78.1654 5.00058 78.3748 5.00058 78.6191C5.00058 78.7936 4.9708 78.924 4.90919 79.0122C4.84655 79.1005 4.75311 79.1457 4.6299 79.1457C4.50565 79.1457 4.41324 79.1005 4.35368 79.0122C4.2931 78.924 4.26332 78.811 4.26332 78.6745C4.25922 78.5041 4.23149 78.3799 4.17604 78.3039C4.1206 78.229 4.00046 78.1921 3.81563 78.1921H2.47051C1.98894 78.1921 1.62339 78.2177 1.37387 78.268C1.12436 78.3183 0.955962 78.422 0.868683 78.5811C0.781404 78.7392 0.738278 78.9804 0.738278 79.3017V80.3262C0.738278 80.6403 0.781404 80.8764 0.868683 81.0355C0.955962 81.1936 1.12436 81.3013 1.37387 81.3547C1.62339 81.4081 1.98894 81.4348 2.47051 81.4348H3.81563C4.00354 81.4348 4.12368 81.3978 4.17707 81.326C4.23149 81.2541 4.25922 81.132 4.26332 80.9585C4.26332 80.8107 4.29516 80.6937 4.35882 80.6085C4.42145 80.5233 4.51079 80.4812 4.62476 80.4812C4.74182 80.4812 4.8332 80.5233 4.90097 80.6085C4.96772 80.6937 5.00058 80.8281 5.00058 81.0088C5.00058 81.2593 4.96464 81.4717 4.88865 81.6462C4.8137 81.8197 4.69356 81.9501 4.52927 82.0394C4.36498 82.1277 4.15037 82.1728 3.88648 82.1728H2.47051ZM13.1463 82.2426C12.9019 82.2426 12.7797 82.0979 12.7797 81.8064V77.8307C12.7797 77.533 12.8947 77.3842 13.1257 77.3842C13.2736 77.3842 13.404 77.4632 13.518 77.6203L15.3806 80.281L17.2535 77.6203C17.3603 77.4632 17.4856 77.3842 17.6293 77.3842C17.8706 77.3842 17.9908 77.533 17.9908 77.8307V81.8064C17.9908 82.0979 17.8676 82.2426 17.6201 82.2426C17.3757 82.2426 17.2535 82.0897 17.2535 81.7817V78.6889L15.6568 81.0088C15.5993 81.0889 15.5131 81.1289 15.395 81.1289C15.3416 81.1289 15.2903 81.1186 15.2379 81.1001C15.1866 81.0817 15.1424 81.0519 15.1095 81.0088L13.518 78.6889V81.7817C13.518 82.0897 13.3937 82.2426 13.1463 82.2426ZM29.9922 82.2426C29.9049 82.2426 29.8381 82.216 29.7919 82.1626C29.7447 82.1092 29.7129 82.0035 29.6944 81.8464C29.6759 81.6894 29.6656 81.4563 29.6656 81.1484L29.7663 81.3845C29.5619 81.6729 29.3062 81.8752 28.9982 81.9942C28.6902 82.1123 28.3256 82.1728 27.9036 82.1728H26.9702C26.6222 82.1728 26.3388 82.0538 26.12 81.8177C25.9003 81.5826 25.7894 81.2244 25.7894 80.7419C25.7894 80.4144 25.8438 80.1434 25.9506 79.931C26.0574 79.7185 26.2186 79.5512 26.4312 79.4269C26.6437 79.3038 26.9025 79.2145 27.2095 79.1631C27.5155 79.1108 27.8656 79.0861 28.2599 79.0861H29.9624L29.6307 79.392V78.6242C29.6307 78.4569 29.603 78.343 29.5434 78.2824C29.4849 78.2228 29.3648 78.1921 29.1841 78.1921H27.7681C27.4467 78.1921 27.1972 78.2044 27.0195 78.229C26.8429 78.2547 26.7166 78.2978 26.6437 78.3594C26.5698 78.422 26.5308 78.5051 26.5277 78.6088C26.5174 78.7628 26.4907 78.8767 26.4455 78.9506C26.4004 79.0235 26.3038 79.0605 26.156 79.0605C25.9116 79.0605 25.7894 78.8983 25.7894 78.5739C25.7894 78.189 25.9506 77.9067 26.27 77.726C26.5903 77.5443 27.0657 77.454 27.6983 77.454H29.2539C29.6697 77.454 29.9593 77.5536 30.1226 77.7507C30.2869 77.9477 30.369 78.2947 30.369 78.7895V81.8064C30.369 82.0979 30.2437 82.2426 29.9922 82.2426ZM26.9949 81.4656H27.9036C28.53 81.4656 28.9746 81.3208 29.2395 81.0334C29.5034 80.746 29.6338 80.3036 29.6307 79.7082L29.7211 79.7934H28.2599C27.842 79.7934 27.5052 79.815 27.2506 79.8601C26.9969 79.9053 26.8121 79.9946 26.6981 80.125C26.5852 80.2553 26.5277 80.4493 26.5277 80.707C26.5277 80.9544 26.5718 81.1422 26.6581 81.2705C26.7454 81.3999 26.8573 81.4656 26.9949 81.4656ZM39.2376 82.1728C38.8217 82.1728 38.5342 82.0671 38.372 81.8587C38.2097 81.6493 38.1276 81.2859 38.1276 80.7676C38.1276 80.4627 38.2498 80.3108 38.4942 80.3108C38.7416 80.3108 38.8659 80.4627 38.8659 80.7676V80.9482C38.8659 81.1422 38.8956 81.2705 38.9542 81.3362C39.0127 81.4019 39.1298 81.4348 39.3074 81.4348H41.1454C41.9751 81.4348 42.3899 81.2705 42.3899 80.9431C42.3899 80.6454 42.2985 80.4309 42.1137 80.3005C41.9299 80.1701 41.6208 80.1044 41.1854 80.1044H40.3219C40.0097 80.1044 39.8547 79.9895 39.8547 79.7585C39.8547 79.4978 40.0097 79.3674 40.3219 79.3674H41.1854C41.4966 79.3674 41.7409 79.3469 41.9165 79.3089C42.0921 79.2699 42.2164 79.2011 42.2893 79.1005C42.3632 79.0009 42.4002 78.8603 42.4002 78.6796C42.4002 78.3542 41.9822 78.1921 41.1454 78.1921H39.3074C39.1298 78.1921 39.0127 78.2239 38.9542 78.2896C38.8956 78.3542 38.8659 78.4836 38.8659 78.6745V78.8552C38.8659 79.1631 38.7416 79.3171 38.4942 79.3171C38.2498 79.3171 38.1276 79.1631 38.1276 78.8552C38.1276 78.3368 38.2097 77.9734 38.372 77.7661C38.5342 77.5587 38.8217 77.454 39.2376 77.454H41.2152C41.8282 77.454 42.2995 77.5649 42.6312 77.7856C42.9628 78.0063 43.1282 78.3409 43.1282 78.7895C43.1282 79.0307 43.085 79.2299 42.9978 79.3869C42.9105 79.544 42.7852 79.6702 42.6209 79.7636C42.9598 80.011 43.1282 80.3641 43.1282 80.823C43.1282 81.2808 42.9628 81.6206 42.6312 81.8413C42.2995 82.063 41.8282 82.1728 41.2152 82.1728H39.2376ZM53.2864 82.1728C52.6878 82.1728 52.2072 82.1174 51.8458 82.0076C51.4844 81.8967 51.2236 81.7078 51.0603 81.442C50.8981 81.1761 50.8159 80.8107 50.8159 80.3457V79.2771C50.8159 78.8151 50.8981 78.4497 51.0603 78.1838C51.2236 77.918 51.4844 77.7301 51.8458 77.6203C52.2072 77.5094 52.6878 77.454 53.2864 77.454H53.578C54.1767 77.454 54.6572 77.5094 55.0187 77.6213C55.3801 77.7342 55.6419 77.9231 55.8021 78.189C55.9633 78.4548 56.0434 78.8182 56.0434 79.2771V80.3457C56.0434 80.8076 55.9633 81.171 55.8021 81.4368C55.6419 81.7027 55.3801 81.8916 55.0187 82.0035C54.6572 82.1164 54.1767 82.1728 53.578 82.1728H53.2864ZM53.2864 81.4348H53.578C54.0596 81.4348 54.4252 81.4081 54.6726 81.3547C54.9201 81.3013 55.0875 81.1936 55.1747 81.0355C55.262 80.8764 55.3051 80.6403 55.3051 80.3262V79.3017C55.3051 78.9804 55.2599 78.7392 55.1696 78.5811C55.0792 78.422 54.9098 78.3183 54.6623 78.268C54.4149 78.2177 54.0534 78.1921 53.578 78.1921H53.2864C52.8048 78.1921 52.4403 78.2177 52.1908 78.268C51.9413 78.3183 51.7719 78.422 51.6846 78.5811C51.5983 78.7392 51.5542 78.9804 51.5542 79.3017V80.3262C51.5542 80.6403 51.5983 80.8764 51.6846 81.0355C51.7719 81.1936 51.9413 81.3013 52.1908 81.3547C52.4403 81.4081 52.8048 81.4348 53.2864 81.4348ZM68.2358 82.2426C67.9842 82.2426 67.8589 82.0959 67.8589 81.8013V80.436C67.4575 80.7778 66.9235 80.9482 66.2571 80.9482H65.9203C65.3648 80.9482 64.9161 80.8897 64.5752 80.7737C64.2333 80.6587 63.9858 80.4658 63.8297 80.1948C63.6747 79.9238 63.5956 79.5594 63.5956 79.1005V77.8215C63.5956 77.53 63.7178 77.3842 63.9622 77.3842C64.2096 77.3842 64.3339 77.53 64.3339 77.8215V79.081C64.3339 79.3982 64.377 79.6384 64.4633 79.7985C64.5485 79.9597 64.7056 80.0685 64.9346 80.125C65.1636 80.1814 65.4921 80.2102 65.9203 80.2102H66.2571C66.789 80.2102 67.1895 80.0716 67.4575 79.7955C67.7244 79.5193 67.8589 79.1077 67.8589 78.5585V77.8215C67.8589 77.53 67.9811 77.3842 68.2255 77.3842C68.473 77.3842 68.5972 77.53 68.5972 77.8215V81.7961C68.5972 82.0938 68.4761 82.2426 68.2358 82.2426ZM76.9021 82.2426C76.6577 82.2426 76.5355 82.0979 76.5355 81.8064V77.8307C76.5355 77.533 76.6515 77.3842 76.8826 77.3842C77.1434 77.3842 77.2738 77.533 77.2738 77.8307V79.3068H80.6982V77.8307C80.6982 77.533 80.8204 77.3842 81.0648 77.3842C81.3122 77.3842 81.4365 77.533 81.4365 77.8307V81.8064C81.4365 82.0979 81.3122 82.2426 81.0648 82.2426C80.8204 82.2426 80.6982 82.0979 80.6982 81.8064V80.0449H77.2738V81.8064C77.2738 82.0979 77.1506 82.2426 76.9021 82.2426ZM89.385 82.1728V77.8307C89.385 77.533 89.5072 77.3842 89.7516 77.3842C90.0001 77.3842 90.1233 77.533 90.1233 77.8307V79.3674H92.2724C92.6308 79.3674 92.9388 79.4187 93.1966 79.5245C93.4543 79.6292 93.6535 79.7872 93.7942 79.9946C93.9348 80.202 94.0047 80.4596 94.0047 80.7676C94.0047 81.0755 93.9359 81.3332 93.7972 81.5405C93.6586 81.7479 93.4594 81.9039 93.1996 82.0076C92.9409 82.1113 92.6308 82.1657 92.2724 82.1728H89.385ZM90.1233 81.4348H92.1872C92.4922 81.4348 92.7478 81.3896 92.9553 81.3013C93.1627 81.212 93.2664 81.0468 93.2664 80.8025C93.2664 80.6013 93.2233 80.4514 93.1349 80.3508C93.0456 80.2502 92.9203 80.1835 92.7581 80.1517C92.5959 80.1198 92.4049 80.1044 92.1872 80.1044H90.1233V81.4348ZM94.7327 82.3535C94.4924 82.3535 94.3712 82.2119 94.3712 81.9265V77.7106C94.3712 77.5731 94.4051 77.4643 94.4698 77.3862C94.5355 77.3072 94.6238 77.2692 94.7378 77.2692C94.8549 77.2692 94.9473 77.3072 95.012 77.3862C95.0777 77.4643 95.1095 77.5731 95.1095 77.7106V81.9265C95.1095 82.2119 94.9842 82.3535 94.7327 82.3535ZM105.379 82.1728C104.779 82.1728 104.298 82.1174 103.937 82.0076C103.576 81.8967 103.315 81.7078 103.153 81.442C102.99 81.1761 102.908 80.8107 102.908 80.3457V79.2771C102.908 78.8151 102.99 78.4497 103.153 78.1838C103.315 77.918 103.576 77.7301 103.937 77.6203C104.298 77.5094 104.779 77.454 105.379 77.454H105.669C106.269 77.454 106.749 77.5094 107.111 77.6213C107.472 77.7342 107.733 77.9231 107.894 78.189C108.055 78.4548 108.135 78.8182 108.135 79.2771V79.7739H103.646V80.3262C103.646 80.6403 103.69 80.8764 103.777 81.0355C103.864 81.1936 104.033 81.3013 104.282 81.3547C104.532 81.4081 104.896 81.4348 105.379 81.4348H106.875C107.048 81.4348 107.167 81.3999 107.229 81.3311C107.292 81.2623 107.321 81.1392 107.321 80.9585C107.321 80.8076 107.355 80.6906 107.422 80.6064C107.489 80.5233 107.579 80.4812 107.693 80.4812C107.81 80.4842 107.9 80.5284 107.964 80.6136C108.028 80.6988 108.06 80.8209 108.06 80.978C108.06 81.2356 108.023 81.4533 107.949 81.6329C107.876 81.8115 107.757 81.947 107.592 82.0373C107.428 82.1277 107.213 82.1728 106.945 82.1728H105.379ZM103.646 79.0358H107.392C107.365 78.7012 107.252 78.4805 107.05 78.3727C106.93 78.306 106.755 78.2588 106.521 78.2321C106.288 78.2054 106.004 78.1921 105.669 78.1921H105.379C105.026 78.1921 104.736 78.2054 104.505 78.2321C104.274 78.2588 104.099 78.3039 103.982 78.3676C103.778 78.4754 103.666 78.6981 103.646 79.0358ZM128.034 82.2426C127.79 82.2426 127.668 82.0979 127.668 81.8064V77.8307C127.668 77.533 127.784 77.3842 128.014 77.3842C128.162 77.3842 128.292 77.4632 128.406 77.6203L130.269 80.281L132.141 77.6203C132.248 77.4632 132.375 77.3842 132.518 77.3842C132.759 77.3842 132.88 77.533 132.88 77.8307V81.8064C132.88 82.0979 132.756 82.2426 132.508 82.2426C132.264 82.2426 132.141 82.0897 132.141 81.7817V78.6889L130.545 81.0088C130.488 81.0889 130.401 81.1289 130.284 81.1289C130.231 81.1289 130.178 81.1186 130.126 81.1001C130.075 81.0817 130.031 81.0519 129.998 81.0088L128.406 78.6889V81.7817C128.406 82.0897 128.282 82.2426 128.034 82.2426ZM144.881 82.2426C144.794 82.2426 144.727 82.216 144.68 82.1626C144.633 82.1092 144.601 82.0035 144.582 81.8464C144.565 81.6894 144.555 81.4563 144.555 81.1484L144.655 81.3845C144.451 81.6729 144.194 81.8752 143.886 81.9942C143.578 82.1123 143.214 82.1728 142.792 82.1728H141.858C141.51 82.1728 141.227 82.0538 141.008 81.8177C140.788 81.5826 140.678 81.2244 140.678 80.7419C140.678 80.4144 140.732 80.1434 140.839 79.931C140.946 79.7185 141.107 79.5512 141.319 79.4269C141.532 79.3038 141.791 79.2145 142.097 79.1631C142.403 79.1108 142.754 79.0861 143.149 79.0861H144.85L144.52 79.392V78.6242C144.52 78.4569 144.491 78.343 144.432 78.2824C144.374 78.2228 144.253 78.1921 144.072 78.1921H142.656C142.335 78.1921 142.086 78.2044 141.909 78.229C141.731 78.2547 141.606 78.2978 141.532 78.3594C141.458 78.422 141.42 78.5051 141.417 78.6088C141.406 78.7628 141.38 78.8767 141.335 78.9506C141.289 79.0235 141.192 79.0605 141.045 79.0605C140.801 79.0605 140.678 78.8983 140.678 78.5739C140.678 78.189 140.839 77.9067 141.159 77.726C141.478 77.5443 141.954 77.454 142.586 77.454H144.143C144.558 77.454 144.847 77.5536 145.012 77.7507C145.175 77.9477 145.257 78.2947 145.257 78.7895V81.8064C145.257 82.0979 145.132 82.2426 144.881 82.2426ZM141.883 81.4656H142.792C143.418 81.4656 143.864 81.3208 144.127 81.0334C144.392 80.746 144.523 80.3036 144.52 79.7082L144.61 79.7934H143.149C142.73 79.7934 142.393 79.815 142.14 79.8601C141.885 79.9053 141.701 79.9946 141.587 80.125C141.473 80.2553 141.417 80.4493 141.417 80.707C141.417 80.9544 141.46 81.1422 141.547 81.2705C141.633 81.3999 141.746 81.4656 141.883 81.4656ZM154.904 82.2426C154.636 82.2426 154.502 82.1071 154.502 81.8361V78.1921H153.031C152.736 78.1921 152.589 78.0689 152.589 77.8215C152.589 77.5762 152.736 77.454 153.031 77.454H156.782C157.072 77.454 157.218 77.5762 157.218 77.8215C157.218 78.0689 157.072 78.1921 156.782 78.1921H155.316V81.8361C155.316 81.9604 155.279 82.0589 155.205 82.1328C155.131 82.2067 155.031 82.2426 154.904 82.2426ZM166.92 82.1728C166.321 82.1728 165.84 82.1174 165.479 82.0076C165.118 81.8967 164.856 81.7078 164.693 81.442C164.531 81.1761 164.449 80.8107 164.449 80.3457V79.2771C164.449 78.8151 164.531 78.4497 164.693 78.1838C164.856 77.918 165.118 77.7301 165.479 77.6203C165.84 77.5094 166.321 77.454 166.92 77.454H167.211C167.81 77.454 168.29 77.5094 168.652 77.6213C169.013 77.7342 169.275 77.9231 169.435 78.189C169.595 78.4548 169.677 78.8182 169.677 79.2771V79.7739H165.187V80.3262C165.187 80.6403 165.231 80.8764 165.318 81.0355C165.405 81.1936 165.574 81.3013 165.823 81.3547C166.073 81.4081 166.438 81.4348 166.92 81.4348H168.416C168.59 81.4348 168.709 81.3999 168.771 81.3311C168.833 81.2623 168.862 81.1392 168.862 80.9585C168.862 80.8076 168.896 80.6906 168.963 80.6064C169.03 80.5233 169.12 80.4812 169.234 80.4812C169.351 80.4842 169.443 80.5284 169.505 80.6136C169.569 80.6988 169.601 80.8209 169.601 80.978C169.601 81.2356 169.564 81.4533 169.491 81.6329C169.417 81.8115 169.298 81.947 169.134 82.0373C168.97 82.1277 168.755 82.1728 168.487 82.1728H166.92ZM165.187 79.0358H168.933C168.906 78.7012 168.793 78.4805 168.591 78.3727C168.471 78.306 168.296 78.2588 168.062 78.2321C167.83 78.2054 167.546 78.1921 167.211 78.1921H166.92C166.568 78.1921 166.277 78.2054 166.046 78.2321C165.815 78.2588 165.641 78.3039 165.524 78.3676C165.32 78.4754 165.208 78.6981 165.187 79.0358ZM177.801 84C177.56 84 177.439 83.846 177.439 83.5381V77.8215C177.439 77.53 177.566 77.3842 177.816 77.3842C177.947 77.3842 178.039 77.4242 178.092 77.5063C178.146 77.5885 178.172 77.7291 178.172 77.9262V78.3224L178.042 78.1469C178.246 77.9067 178.506 77.7301 178.82 77.6203C179.135 77.5094 179.5 77.454 179.915 77.454H180.207C180.805 77.454 181.286 77.5094 181.645 77.6213C182.006 77.7342 182.265 77.9231 182.426 78.189C182.587 78.4548 182.667 78.8182 182.667 79.2771V80.3457C182.667 80.8076 182.587 81.171 182.426 81.4368C182.265 81.7027 182.007 81.8916 181.65 82.0035C181.294 82.1164 180.819 82.1728 180.226 82.1728H178.178V83.5381C178.178 83.846 178.052 84 177.801 84ZM178.178 81.4348H180.226C180.701 81.4348 181.062 81.4081 181.306 81.3547C181.551 81.3013 181.716 81.1936 181.801 81.0355C181.886 80.8764 181.929 80.6403 181.929 80.3262V79.3017C181.929 78.9804 181.885 78.7392 181.796 78.5811C181.708 78.422 181.538 78.3183 181.291 78.268C181.043 78.2177 180.682 78.1921 180.207 78.1921H179.915C179.326 78.1921 178.889 78.3245 178.605 78.5903C178.32 78.8562 178.178 79.2596 178.178 79.7985V81.4348ZM195.014 82.2426C194.77 82.2426 194.648 82.0856 194.648 81.7715V78.4938L191.198 82.1728H190.485V77.8307C190.485 77.533 190.607 77.3842 190.852 77.3842C191.099 77.3842 191.223 77.5402 191.223 77.8513V81.1689L194.698 77.454H195.386V81.7961C195.386 82.0938 195.262 82.2426 195.014 82.2426ZM207.397 82.2426C207.309 82.2426 207.243 82.216 207.196 82.1626C207.149 82.1092 207.117 82.0035 207.099 81.8464C207.08 81.6894 207.07 81.4563 207.07 81.1484L207.171 81.3845C206.966 81.6729 206.711 81.8752 206.403 81.9942C206.095 82.1123 205.73 82.1728 205.308 82.1728H204.375C204.026 82.1728 203.743 82.0538 203.524 81.8177C203.305 81.5826 203.194 81.2244 203.194 80.7419C203.194 80.4144 203.248 80.1434 203.355 79.931C203.462 79.7185 203.623 79.5512 203.836 79.4269C204.048 79.3038 204.307 79.2145 204.614 79.1631C204.92 79.1108 205.27 79.0861 205.664 79.0861H207.367L207.035 79.392V78.6242C207.035 78.4569 207.007 78.343 206.948 78.2824C206.889 78.2228 206.769 78.1921 206.588 78.1921H205.172C204.851 78.1921 204.602 78.2044 204.424 78.229C204.247 78.2547 204.121 78.2978 204.048 78.3594C203.974 78.422 203.935 78.5051 203.932 78.6088C203.922 78.7628 203.895 78.8767 203.85 78.9506C203.805 79.0235 203.708 79.0605 203.56 79.0605C203.316 79.0605 203.194 78.8983 203.194 78.5739C203.194 78.189 203.355 77.9067 203.674 77.726C203.995 77.5443 204.469 77.454 205.103 77.454H206.658C207.074 77.454 207.364 77.5536 207.527 77.7507C207.691 77.9477 207.773 78.2947 207.773 78.7895V81.8064C207.773 82.0979 207.648 82.2426 207.397 82.2426ZM204.399 81.4656H205.308C205.934 81.4656 206.379 81.3208 206.644 81.0334C206.908 80.746 207.038 80.3036 207.035 79.7082L207.125 79.7934H205.664C205.246 79.7934 204.91 79.815 204.655 79.8601C204.401 79.9053 204.217 79.9946 204.103 80.125C203.99 80.2553 203.932 80.4493 203.932 80.707C203.932 80.9544 203.976 81.1422 204.062 81.2705C204.15 81.3999 204.262 81.4656 204.399 81.4656ZM219.86 82.2426C219.616 82.2426 219.493 82.0938 219.493 81.7961V78.1921H217.464C217.241 78.1921 217.092 78.2239 217.017 78.2896C216.941 78.3542 216.903 78.4805 216.903 78.6643V80.8374C216.903 81.1658 216.861 81.4266 216.776 81.6226C216.693 81.8177 216.563 81.9604 216.385 82.0476C216.208 82.1349 215.981 82.178 215.702 82.178C215.545 82.178 215.42 82.1492 215.325 82.0938C215.229 82.0394 215.18 81.9419 215.18 81.8013C215.18 81.5569 215.341 81.4348 215.662 81.4348C215.849 81.4348 215.981 81.4019 216.054 81.3342C216.128 81.2675 216.165 81.1474 216.165 80.9729V78.7895C216.165 78.4446 216.201 78.1756 216.273 77.9816C216.345 77.7876 216.47 77.6501 216.65 77.572C216.829 77.493 217.075 77.454 217.389 77.454H220.232V81.7859C220.232 82.0907 220.107 82.2426 219.86 82.2426ZM228.191 82.1728V77.8307C228.191 77.533 228.313 77.3842 228.557 77.3842C228.805 77.3842 228.929 77.533 228.929 77.8307V79.3674H231.078C231.436 79.3674 231.744 79.4187 232.002 79.5245C232.26 79.6292 232.458 79.7872 232.599 79.9946C232.739 80.202 232.81 80.4596 232.81 80.7676C232.81 81.0755 232.741 81.3332 232.603 81.5405C232.463 81.7479 232.264 81.9039 232.005 82.0076C231.745 82.1113 231.436 82.1657 231.078 82.1728H228.191ZM228.929 81.4348H230.993C231.297 81.4348 231.553 81.3896 231.761 81.3013C231.968 81.212 232.072 81.0468 232.072 80.8025C232.072 80.6013 232.029 80.4514 231.939 80.3508C231.851 80.2502 231.726 80.1835 231.563 80.1517C231.4 80.1198 231.21 80.1044 230.993 80.1044H228.929V81.4348ZM233.538 82.3535C233.297 82.3535 233.177 82.2119 233.177 81.9265V77.7106C233.177 77.5731 233.21 77.4643 233.275 77.3862C233.341 77.3072 233.429 77.2692 233.543 77.2692C233.66 77.2692 233.753 77.3072 233.817 77.3862C233.883 77.4643 233.915 77.5731 233.915 77.7106V81.9265C233.915 82.2119 233.789 82.3535 233.538 82.3535Z" fill="#B3E2ED"/>
<defs>
<linearGradient id="paint0_linear_170_426" x1="80.08" y1="38.3139" x2="106.684" y2="38.3139" gradientUnits="userSpaceOnUse">
<stop stop-color="#0C2D35"/>
<stop offset="1" stop-color="#18948F"/>
</linearGradient>
<linearGradient id="paint1_linear_170_426" x1="72.5708" y1="25.9953" x2="98.277" y2="25.9953" gradientUnits="userSpaceOnUse">
<stop stop-color="#0C2D35"/>
<stop offset="1" stop-color="#18948F"/>
</linearGradient>
<linearGradient id="paint2_linear_170_426" x1="71.4297" y1="22.5489" x2="94.0707" y2="22.5489" gradientUnits="userSpaceOnUse">
<stop stop-color="#EB6320"/>
<stop offset="0.501961" stop-color="#FAB909"/>
<stop offset="1" stop-color="#FCEB0D"/>
</linearGradient>
<linearGradient id="paint3_linear_170_426" x1="86.3896" y1="39.4764" x2="111.779" y2="39.4764" gradientUnits="userSpaceOnUse">
<stop stop-color="#EB6320"/>
<stop offset="0.501961" stop-color="#FAB909"/>
<stop offset="1" stop-color="#FCEB0D"/>
</linearGradient>
<linearGradient id="paint4_linear_170_426" x1="73.6172" y1="22.0298" x2="93.1543" y2="23.0631" gradientUnits="userSpaceOnUse">
<stop stop-color="#FCEB0D"/>
<stop offset="0.560784" stop-color="#ED6E24"/>
<stop offset="1" stop-color="#FECD14"/>
</linearGradient>
<linearGradient id="paint5_linear_170_426" x1="86.3896" y1="39.4764" x2="111.779" y2="39.4764" gradientUnits="userSpaceOnUse">
<stop stop-color="#FCEB0D"/>
<stop offset="0.301961" stop-color="#F8B034"/>
<stop offset="0.501961" stop-color="#F7A826"/>
<stop offset="0.690196" stop-color="#FBBF28"/>
<stop offset="1" stop-color="#FECD14"/>
</linearGradient>
<linearGradient id="paint6_linear_170_426" x1="77.7554" y1="31.1198" x2="102.275" y2="31.1198" gradientUnits="userSpaceOnUse">
<stop stop-color="#EB6320"/>
<stop offset="0.501961" stop-color="#FAB909"/>
<stop offset="1" stop-color="#FCEB0D"/>
</linearGradient>
<linearGradient id="paint7_linear_170_426" x1="89.5735" y1="56.1284" x2="93.8466" y2="6.56638" gradientUnits="userSpaceOnUse">
<stop stop-color="#FCEB0D"/>
<stop offset="0.501961" stop-color="#F8B027"/>
<stop offset="1" stop-color="#FECD14"/>
</linearGradient>
<linearGradient id="paint8_linear_170_426" x1="72.8921" y1="26.8921" x2="87.6597" y2="26.8921" gradientUnits="userSpaceOnUse">
<stop stop-color="#FEFEFE"/>
<stop offset="0.490196" stop-color="#FEFEFE"/>
<stop offset="1" stop-color="#FEFEFE"/>
</linearGradient>
<linearGradient id="paint9_linear_170_426" x1="81.0132" y1="35.1" x2="96.8969" y2="35.1" gradientUnits="userSpaceOnUse">
<stop stop-color="#FEFEFE"/>
<stop offset="0.490196" stop-color="#FEFEFE"/>
<stop offset="1" stop-color="#FEFEFE"/>
</linearGradient>
<linearGradient id="paint10_linear_170_426" x1="96.4287" y1="43.2621" x2="107.705" y2="43.2621" gradientUnits="userSpaceOnUse">
<stop stop-color="#FEFEFE"/>
<stop offset="0.490196" stop-color="#FEFEFE"/>
<stop offset="1" stop-color="#FEFEFE"/>
</linearGradient>
<linearGradient id="paint11_linear_170_426" x1="177.073" y1="70.4316" x2="173.802" y2="33.7965" gradientUnits="userSpaceOnUse">
<stop stop-color="#215C6A"/>
<stop offset="1" stop-color="#26AAAB"/>
</linearGradient>
<linearGradient id="paint12_linear_170_426" x1="34.8307" y1="70.4035" x2="29.2905" y2="34.4138" gradientUnits="userSpaceOnUse">
<stop stop-color="#215C6A"/>
<stop offset="1" stop-color="#26AAAB"/>
</linearGradient>
</defs>
</svg>
