<svg width="37" height="37" viewBox="0 0 37 37" fill="none" xmlns="http://www.w3.org/2000/svg">
<path d="M12.7991 18.0431H12.0491H12.7991ZM12.7991 19.1851L12.2376 19.6823C12.3729 19.8351 12.5646 19.9262 12.7685 19.9345C12.9724 19.9428 13.1709 19.8677 13.3181 19.7265L12.7991 19.1851ZM15.3192 17.808C15.6181 17.5213 15.6281 17.0465 15.3415 16.7475C15.0548 16.4485 14.58 16.4385 14.281 16.7252L15.3192 17.808ZM11.6616 16.7694C11.387 16.4593 10.913 16.4305 10.6029 16.7051C10.2928 16.9797 10.264 17.4537 10.5386 17.7638L11.6616 16.7694ZM22.2443 14.6926C22.5256 14.9966 23.0001 15.0151 23.3042 14.7338C23.6082 14.4525 23.6267 13.978 23.3454 13.6739L22.2443 14.6926ZM18.554 11.5833C14.967 11.5833 12.0491 14.4699 12.0491 18.0431H13.5491C13.5491 15.3094 15.7843 13.0833 18.554 13.0833V11.5833ZM12.0491 18.0431L12.0491 19.1851L13.5491 19.1851L13.5491 18.0431L12.0491 18.0431ZM13.3181 19.7265L15.3192 17.808L14.281 16.7252L12.28 18.6437L13.3181 19.7265ZM13.3606 18.6879L11.6616 16.7694L10.5386 17.7638L12.2376 19.6823L13.3606 18.6879ZM23.3454 13.6739C22.1567 12.389 20.449 11.5833 18.554 11.5833V13.0833C20.0157 13.0833 21.329 13.7032 22.2443 14.6926L23.3454 13.6739Z" fill="#38827F"/>
<path d="M24.1968 17.8147L24.7574 17.3166C24.622 17.1641 24.4303 17.0734 24.2264 17.0653C24.0226 17.0572 23.8243 17.1325 23.6772 17.2738L24.1968 17.8147ZM21.6807 19.1912C21.382 19.4781 21.3724 19.9529 21.6593 20.2517C21.9462 20.5504 22.421 20.56 22.7198 20.2731L21.6807 19.1912ZM25.3396 20.2303C25.6147 20.5399 26.0887 20.5679 26.3984 20.2928C26.708 20.0177 26.7361 19.5437 26.4609 19.234L25.3396 20.2303ZM14.7305 22.3256C14.447 22.0236 13.9724 22.0085 13.6703 22.292C13.3683 22.5754 13.3533 23.0501 13.6367 23.3521L14.7305 22.3256ZM18.4198 25.4165C22.0163 25.4165 24.9468 22.5326 24.9468 18.9567H23.4468C23.4468 21.6877 21.2044 23.9165 18.4198 23.9165V25.4165ZM24.9468 18.9567V17.8147H23.4468V18.9567H24.9468ZM23.6772 17.2738L21.6807 19.1912L22.7198 20.2731L24.7163 18.3556L23.6772 17.2738ZM23.6361 18.3128L25.3396 20.2303L26.4609 19.234L24.7574 17.3166L23.6361 18.3128ZM13.6367 23.3521C14.8286 24.6221 16.5319 25.4165 18.4198 25.4165V23.9165C16.9604 23.9165 15.6487 23.3039 14.7305 22.3256L13.6367 23.3521Z" fill="#38827F"/>
<path d="M12.3332 7.81673C14.1472 6.76735 16.2534 6.16675 18.4998 6.16675C25.3113 6.16675 30.8332 11.6886 30.8332 18.5001C30.8332 25.3116 25.3113 30.8334 18.4998 30.8334C11.6883 30.8334 6.1665 25.3116 6.1665 18.5001C6.1665 16.2536 6.7671 14.1475 7.81648 12.3334" stroke="#91A2AB" stroke-width="1.5" stroke-linecap="round"/>
</svg>
