<svg xmlns="http://www.w3.org/2000/svg" width="69" height="22" viewBox="0 0 69 22" fill="none">
  <path fill-rule="evenodd" clip-rule="evenodd" d="M20.075 11.487C20.071 11.487 20.0661 11.487 20.1044 11.487C19.5208 11.4802 19.0864 11.0353 19.1207 10.5355C19.1423 6.55647 15.5284 2.85114 11.5124 2.71751C10.971 2.6998 10.5473 2.24623 10.565 1.70463C10.5837 1.16362 11.0426 0.769273 11.6043 0.756104C16.6895 0.925451 21.1185 5.48563 21.0556 10.5172C21.0487 11.056 20.6103 11.487 20.075 11.487ZM11.5114 4.0339C14.9722 4.44179 17.7654 7.41519 17.7379 10.6626C17.733 11.2011 17.2947 11.6354 16.7572 11.6354C16.7543 11.6354 16.7514 11.6354 16.7483 11.6354C16.2069 11.6305 15.7716 11.1875 15.7765 10.6448C15.7961 8.36952 13.7797 6.27849 11.32 5.9831C10.7445 5.92045 10.36 5.45958 10.4229 4.89373C10.4866 4.35466 10.9768 3.96611 11.5114 4.0339ZM7.90534 9.13515C7.51204 9.39736 7.35415 9.64639 7.64351 10.2779L9.25611 12.5408C9.95641 13.2033 10.9191 13.9472 11.9154 14.3897C12.4842 14.6429 12.6088 14.4572 12.7402 14.2642C13.2963 13.4373 13.9759 12.9417 14.7595 12.7925C15.5932 12.6335 16.5023 12.8868 17.4942 13.5981L17.8045 13.7831C18.3253 14.1874 18.8637 14.5311 19.3786 14.9146L19.661 15.1305C20.463 15.7088 21.7255 16.6765 21.0507 18.5475C20.4613 20.1879 18.4116 22.0001 16.4002 22.0001C16.307 22.0001 16.2129 21.9911 16.1227 21.9666L15.9569 21.9291C15.7147 21.9032 15.3489 21.7954 14.9918 21.6445C8.0642 18.7173 3.15968 13.8781 0.444166 7.26057C-0.121689 5.96867 -0.142225 4.70831 0.355921 3.61842C0.875645 2.48202 1.97097 1.63089 3.34301 1.15655C3.97762 0.944499 4.60322 0.949633 5.20353 1.16638C6.57371 1.70135 9.27932 5.33235 9.35678 6.72939C9.43326 8.17093 8.40163 8.80323 7.90534 9.13515ZM7.39827 6.83907C7.27959 6.09501 5.21134 3.326 4.5248 3.01015C4.4434 3.03768 4.38915 2.96387 4.27375 2.96387C4.17665 2.96387 4.07368 2.98351 3.95991 3.02079C3.05573 3.31923 2.46056 3.80904 2.13972 4.43636C1.87395 5.0165 1.92112 5.78399 2.22507 6.5064C4.76617 12.6305 9.31749 17.1658 15.7549 19.8356C15.9452 19.9159 16.1835 19.9679 16.3747 20.0101C16.4243 20.084 16.4482 20.027 16.4816 20.0338C17.483 19.9769 18.8294 18.9257 19.2041 17.8821C19.3591 17.453 19.3767 17.3286 18.4842 16.7023C18.3764 16.6206 18.2675 16.5403 18.1625 16.4567C17.6908 16.084 17.1927 15.7433 16.6954 15.4478L16.3982 15.1621C15.9961 14.9227 15.5039 14.6505 15.1243 14.7224C14.8743 14.7706 14.6192 14.9854 14.3662 15.3625C13.618 16.4733 12.4332 16.7728 11.1181 16.1842C8.88326 14.7137 8.29397 13.8097 7.77707 13.4821L5.98315 11.3269C5.94781 11.2768 5.91737 11.2248 5.89282 11.169C4.97011 9.12913 6.13992 7.99652 6.85794 7.5015C7.37178 7.13178 7.40809 6.99919 7.39827 6.83907Z" fill="#296776"/>
  
</svg>