<?xml version="1.0"?>
<svg width="30" height="30" xmlns="http://www.w3.org/2000/svg" xmlns:svg="http://www.w3.org/2000/svg">
 <g class="layer">
  <title>Layer 1</title>
  <path clip-rule="evenodd" d="m26.07,16.49c0,0 0,0 0.03,0c-0.58,-0.01 -1.01,-0.45 -0.98,-0.95c0.02,-3.98 -3.59,-7.69 -7.61,-7.82c-0.54,-0.02 -0.96,-0.47 -0.95,-1.02c0.02,-0.54 0.48,-0.93 1.04,-0.94c5.09,0.17 9.52,4.73 9.46,9.76c-0.01,0.54 -0.45,0.97 -0.99,0.97zm-8.56,-7.46c3.46,0.41 6.26,3.39 6.23,6.63c-0.01,0.54 -0.45,0.98 -0.98,0.98c-0.01,0 -0.01,0 -0.01,0c-0.54,-0.01 -0.98,-0.45 -0.97,-1c0.02,-2.27 -2,-4.36 -4.46,-4.66c-0.58,-0.06 -0.96,-0.52 -0.9,-1.09c0.07,-0.54 0.56,-0.92 1.09,-0.86zm-3.6,5.11c-0.4,0.26 -0.56,0.51 -0.27,1.14l1.62,2.26c0.7,0.66 1.66,1.41 2.66,1.85c0.56,0.25 0.69,0.07 0.82,-0.13c0.56,-0.82 1.24,-1.32 2.02,-1.47c0.83,-0.16 1.74,0.1 2.73,0.81l0.31,0.18c0.53,0.41 1.06,0.75 1.58,1.13l0.28,0.22c0.8,0.58 2.07,1.55 1.39,3.42c-0.59,1.64 -2.64,3.45 -4.65,3.45c-0.09,0 -0.19,-0.01 -0.28,-0.03l-0.16,-0.04c-0.25,-0.03 -0.61,-0.13 -0.97,-0.29c-6.93,-2.92 -11.83,-7.76 -14.55,-14.38c-0.56,-1.29 -0.58,-2.55 -0.08,-3.64c0.52,-1.14 1.61,-1.99 2.98,-2.46c0.64,-0.22 1.26,-0.21 1.86,0.01c1.37,0.53 4.08,4.16 4.16,5.56c0.07,1.44 -0.96,2.07 -1.45,2.41zm-0.51,-2.3c-0.12,-0.74 -2.19,-3.51 -2.88,-3.83c-0.08,0.03 -0.13,-0.05 -0.25,-0.05c-0.09,0 -0.2,0.02 -0.31,0.06c-0.9,0.3 -1.5,0.79 -1.82,1.42c-0.27,0.58 -0.22,1.34 0.09,2.07c2.54,6.12 7.09,10.66 13.52,13.33c0.2,0.08 0.43,0.13 0.62,0.17c0.05,0.07 0.08,0.02 0.11,0.02c1,-0.05 2.35,-1.1 2.72,-2.15c0.16,-0.43 0.18,-0.55 -0.72,-1.18c-0.1,-0.08 -0.21,-0.16 -0.32,-0.24c-0.47,-0.38 -0.97,-0.72 -1.46,-1.01l-0.3,-0.29c-0.4,-0.24 -0.9,-0.51 -1.28,-0.44c-0.25,0.05 -0.5,0.27 -0.75,0.64c-0.75,1.11 -1.94,1.41 -3.25,0.82c-2.24,-1.47 -2.83,-2.37 -3.34,-2.7l-1.8,-2.15c-0.03,-0.05 -0.06,-0.11 -0.09,-0.16c-0.92,-2.04 0.25,-3.17 0.97,-3.67c0.51,-0.37 0.55,-0.5 0.54,-0.66z" fill="#296776" fill-rule="evenodd" id="svg_1"/>
 </g>
</svg>