<svg width="25" height="14" viewBox="0 0 25 14" fill="none" xmlns="http://www.w3.org/2000/svg">
<path fill-rule="evenodd" clip-rule="evenodd" d="M8.20871 1.10699C8.52507 1.25698 9.26313 1.17893 9.52824 2.09338C9.76709 2.91711 9.75728 4.88707 9.57269 5.80402C9.06225 8.33966 6.90753 4.32921 6.37558 3.44823C6.10019 2.99203 5.62106 1.95153 5.40815 1.44387C5.04086 0.567897 4.16028 0.754477 3.11076 0.754477C2.71595 0.754477 2.44941 0.790604 2.0769 0.789822C1.49401 0.788414 0.365723 0.676904 0.365723 1.21272C0.365723 1.62263 0.600618 2.03223 0.781575 2.38771L1.75659 4.31404C1.92695 4.63778 2.08323 4.9623 2.27573 5.28119L2.80548 6.20251C4.20061 8.48041 5.87684 11.1523 8.38698 12.3864C10.2896 13.3218 11.185 13.3029 13.2711 13.3029C13.5958 13.3029 14.0038 13.128 14.1165 12.9052C14.2542 12.6333 14.2401 12.1835 14.2701 11.8232C14.3437 10.9455 14.7749 9.7871 15.8173 10.5032C16.3111 10.8426 16.9112 11.633 17.3619 12.078C17.6061 12.319 17.9016 12.6346 18.1759 12.8241C18.3163 12.9213 18.5489 13.0614 18.6941 13.1225C19.556 13.4854 20.5459 13.3026 21.6133 13.3029C22.2057 13.303 23.2382 13.3997 23.7376 13.0769C24.5293 12.565 23.7376 11.6502 23.2889 11.0822C23.0325 10.7578 22.0434 9.72188 21.6932 9.41691C19.4007 7.42099 19.8594 7.74457 22.2346 4.61166C22.7329 3.95433 24.0731 2.23194 24.0731 1.31844C24.0731 0.839556 23.5598 0.79858 23.1756 0.75823C22.978 0.737586 22.9232 0.788571 22.7199 0.791073C22.0884 0.798893 19.2129 0.722728 18.8532 0.845342C18.6208 0.924635 18.4888 1.16095 18.3943 1.37865C17.86 2.60886 17.4957 3.45605 16.7295 4.59696C16.4193 5.05879 15.4258 6.6057 14.804 6.6057C14.3586 6.6057 14.198 5.72848 14.198 5.30152C14.198 4.00656 14.2693 2.82515 14.2693 1.56523C14.2693 1.29701 14.2107 1.01581 14.1214 0.830172C13.7318 0.019105 11.6102 0.190515 10.633 0.190515C9.92717 0.190515 8.78923 0.262769 8.34981 0.823447C8.28147 0.910872 8.22137 0.957634 8.20871 1.10699Z" fill="#91A2AB"/>
</svg>
