<?xml version="1.0"?>
<svg width="30" height="30" xmlns="http://www.w3.org/2000/svg" xmlns:svg="http://www.w3.org/2000/svg">
 <g class="layer">
  <title>Layer 1</title>
  <path clip-rule="evenodd" d="m27.42,15.37c0,5.75 -4.68,10.36 -10.45,10.36c-1.83,0 -3.55,-0.47 -5.05,-1.29l-5.78,1.84l1.89,-5.56c-0.95,-1.56 -1.5,-3.4 -1.5,-5.35c0,-5.73 4.67,-10.37 10.44,-10.37c5.77,0 10.45,4.64 10.45,10.37zm-10.45,-8.66c-4.84,0 -8.75,3.85 -8.75,8.66c0,1.91 0.59,3.67 1.64,5.11l-1.09,3.23l3.37,-1.07c1.39,0.91 3.05,1.44 4.83,1.44c4.86,0 8.79,-3.91 8.79,-8.71c0,-4.81 -3.92,-8.66 -8.79,-8.66zm5.28,11.04c-0.07,-0.1 -0.24,-0.16 -0.49,-0.29c-0.26,-0.13 -1.52,-0.74 -1.75,-0.83c-0.24,-0.06 -0.41,-0.13 -0.58,0.13c-0.17,0.25 -0.66,0.83 -0.81,1c-0.15,0.17 -0.3,0.19 -0.55,0.06c-0.26,-0.13 -1.09,-0.4 -2.06,-1.26c-0.77,-0.67 -1.28,-1.5 -1.43,-1.76c-0.15,-0.25 -0.01,-0.39 0.11,-0.52c0.12,-0.11 0.26,-0.29 0.39,-0.42c0.13,-0.17 0.17,-0.28 0.25,-0.45c0.09,-0.17 0.07,-0.31 -0.02,-0.44c-0.06,-0.13 -0.57,-1.38 -0.79,-1.89c-0.21,-0.51 -0.42,-0.42 -0.57,-0.42c-0.15,0 -0.32,-0.02 -0.49,-0.02c-0.17,0 -0.45,0.06 -0.69,0.32c-0.23,0.25 -0.89,0.86 -0.89,2.11c0,1.26 0.91,2.51 1.04,2.63c0.13,0.2 1.78,2.82 4.38,3.84c2.6,1.01 2.6,0.68 3.07,0.63c0.47,-0.04 1.56,-0.61 1.73,-1.2c0.21,-0.6 0.21,-1.11 0.15,-1.22z" fill="#296776" fill-rule="evenodd" id="svg_1"/>
 </g>
</svg>