<svg xmlns="http://www.w3.org/2000/svg" width="69" height="22" viewBox="0 0 69 22" fill="none">
  <path fill-rule="evenodd" clip-rule="evenodd" d="M68.4202 10.3659C68.4202 16.1231 63.743 20.732 57.9723 20.732C56.1412 20.732 54.421 20.2637 52.9234 19.4423L47.1401 21.28L49.0254 15.7179C48.075 14.1568 47.5275 12.3232 47.5275 10.3656C47.5275 4.64081 52.2037 0 57.9743 0C63.7437 0.0012881 68.4202 4.64155 68.4202 10.3659ZM57.9723 1.70727C53.1294 1.70727 49.2206 5.56268 49.2206 10.3682C49.2206 12.2756 49.8118 14.0417 50.8633 15.4768L49.7668 18.7124L53.1406 17.6405C54.5284 18.5505 56.1889 19.0814 57.9723 19.0814C62.8323 19.0814 66.7565 15.1717 66.7565 10.3659C66.7565 5.56268 62.8391 1.70727 57.9723 1.70727ZM63.2489 12.7539C63.1839 12.6494 63.0131 12.586 62.7576 12.4579C62.5021 12.3297 61.2417 11.7157 61.0085 11.6331C60.7728 11.5734 60.602 11.5046 60.4311 11.7591C60.2618 12.0139 59.7706 12.586 59.6207 12.7554C59.4717 12.9253 59.3226 12.9464 59.0664 12.8204C58.8103 12.6924 57.9842 12.4247 57.0056 11.5599C56.2446 10.8854 55.7302 10.065 55.5818 9.80031C55.4314 9.54601 55.5666 9.40886 55.6937 9.28256C55.8082 9.16792 55.9495 8.98535 56.0779 8.86162C56.2062 8.68841 56.2486 8.58373 56.3341 8.41357C56.418 8.24361 56.4007 8.09575 56.3124 7.96728C56.2486 7.83949 55.7373 6.59071 55.5229 6.08239C55.3098 5.57407 55.0967 5.65793 54.9469 5.65793C54.7978 5.65793 54.6271 5.63732 54.4563 5.63732C54.2855 5.63732 54.008 5.70037 53.7735 5.95514C53.539 6.20964 52.8776 6.82386 52.8776 8.07439C52.8776 9.32595 53.7942 10.5789 53.9226 10.7018C54.0516 10.9022 55.7017 13.5209 58.2979 14.5383C60.9022 15.5547 60.9022 15.2151 61.3712 15.1717C61.8408 15.1297 62.9266 14.5577 63.0991 13.9655C63.3127 13.3706 63.3127 12.8598 63.2489 12.7539Z" fill="#296776"/>
</svg>