<svg width="71" height="42" viewBox="0 0 71 42" fill="none" xmlns="http://www.w3.org/2000/svg">
<path fill-rule="evenodd" clip-rule="evenodd" d="M35.0011 10.5847C35.001 10.5057 35.0181 10.4276 35.0512 10.3559L35.0534 10.3513L35.056 10.3458L35.0612 10.3353L35.0616 10.3346C35.0846 10.2896 35.1137 10.2481 35.1482 10.2112L35.1498 10.2094L35.1562 10.2027L35.1633 10.1956L35.1647 10.1942L35.1702 10.1888L35.1717 10.1875C35.2048 10.1559 35.2418 10.1287 35.2818 10.1065L43.9675 5.09171L43.9681 5.09266L43.9696 5.09171L52.6553 0.0770856C52.7386 0.0273883 52.8337 0.000787493 52.9308 1.72174e-05C53.0278 -0.000753058 53.1233 0.0243351 53.2075 0.0727029L61.8727 5.07538C61.8829 5.08054 61.893 5.08595 61.9031 5.09171L70.5609 10.0906C70.6537 10.1356 70.7319 10.2058 70.7866 10.2932C70.8413 10.3806 70.8703 10.4816 70.8703 10.5847V30.6606H70.869C70.869 30.7566 70.8438 30.851 70.7958 30.9342C70.7479 31.0174 70.6789 31.0865 70.5957 31.1346L61.9026 36.1533L61.902 36.1524L53.2531 41.1463C53.1602 41.2122 53.0491 41.2477 52.9352 41.2477C52.8212 41.2477 52.7101 41.2122 52.6172 41.1463L43.9977 36.1699C43.9874 36.1647 43.9772 36.1593 43.9672 36.1536L35.3094 31.1547C35.2166 31.1097 35.1384 31.0395 35.0837 30.9521C35.029 30.8647 35 30.7637 35 30.6606V10.5847H35.0011Z" fill="#215C6A"/>
<path fill-rule="evenodd" clip-rule="evenodd" d="M69.7728 11.6936L53.4844 21.0977V39.9102L61.3546 35.3663L61.3541 35.3653L69.7728 30.5048V11.6936Z" fill="#8ED1CF"/>
<path fill-rule="evenodd" clip-rule="evenodd" d="M42.4502 15.3611V21.7625L43.7245 21.3538C43.8261 21.3158 43.9367 21.3089 44.0422 21.3338C44.1478 21.3588 44.2436 21.4145 44.3174 21.4939L45.7473 23.0236V17.2644L42.4502 15.3611Z" fill="#18948F"/>
<path fill-rule="evenodd" clip-rule="evenodd" d="M59.4367 5.09094L43.1445 14.4972L46.4439 16.4021L62.7349 6.99643L61.354 6.19919C61.3444 6.19361 61.3351 6.18776 61.3259 6.182L59.4367 5.09094Z" fill="#60CDCC"/>
<path fill-rule="evenodd" clip-rule="evenodd" d="M42.049 13.8649L58.3411 4.45862L52.935 1.33737L44.5158 6.19825L44.5163 6.1992L36.644 10.7443L42.049 13.8649Z" fill="#AFE5E3"/>
<path fill-rule="evenodd" clip-rule="evenodd" d="M46.8447 17.8984V24.4124C46.8446 24.5257 46.8096 24.6361 46.7444 24.7286C46.6792 24.8212 46.5869 24.8913 46.4803 24.9293C46.3737 24.9674 46.2579 24.9715 46.1488 24.9412C46.0397 24.9109 45.9427 24.8476 45.871 24.76L43.7526 22.4942L42.0682 23.0344C41.9862 23.0607 41.8991 23.0672 41.814 23.0535C41.7289 23.0397 41.6482 23.0061 41.5786 22.9553C41.509 22.9046 41.4523 22.8381 41.4132 22.7613C41.3741 22.6845 41.3537 22.5995 41.3537 22.5133H41.352V14.7274L36.0977 11.6938V30.5048L44.5164 35.3654C44.5259 35.3709 44.5353 35.3768 44.5444 35.3825L52.3861 39.91V21.0978L46.8447 17.8984ZM37.6261 29.2613C37.5632 29.2256 37.5079 29.1778 37.4635 29.1207C37.4191 29.0635 37.3865 28.9982 37.3675 28.9283C37.3486 28.8585 37.3436 28.7856 37.353 28.7138C37.3624 28.6421 37.3859 28.5729 37.4221 28.5103C37.4584 28.4476 37.5067 28.3928 37.5643 28.349C37.6219 28.3051 37.6876 28.2732 37.7576 28.2549C37.8276 28.2366 37.9006 28.2323 37.9722 28.2424C38.0439 28.2525 38.1128 28.2766 38.1751 28.3135L42.5217 30.8229C42.6459 30.8964 42.736 31.016 42.7725 31.1557C42.809 31.2953 42.7889 31.4437 42.7165 31.5686C42.6442 31.6935 42.5255 31.7848 42.3862 31.8227C42.2469 31.8605 42.0983 31.8418 41.9727 31.7707L37.6261 29.2613ZM37.6646 26.5599C37.6023 26.5238 37.5478 26.4758 37.5041 26.4187C37.4604 26.3615 37.4284 26.2963 37.4099 26.2268C37.3914 26.1573 37.3868 26.0848 37.3963 26.0135C37.4059 25.9423 37.4293 25.8735 37.4654 25.8113C37.5015 25.7491 37.5494 25.6946 37.6066 25.6509C37.6637 25.6072 37.7289 25.5752 37.7984 25.5567C37.8679 25.5382 37.9404 25.5336 38.0117 25.5431C38.083 25.5526 38.1517 25.5761 38.214 25.6121L42.5605 28.1215C42.6847 28.1951 42.7748 28.3147 42.8113 28.4543C42.8478 28.594 42.8277 28.7424 42.7554 28.8673C42.683 28.9922 42.5643 29.0835 42.425 29.1213C42.2857 29.1591 42.1371 29.1404 42.0115 29.0693L37.6646 26.5599Z" fill="#51CDC8"/>
<path fill-rule="evenodd" clip-rule="evenodd" d="M63.8301 7.62885L47.5391 17.0344L52.9352 20.1499L69.2262 10.7443L63.8301 7.62885Z" fill="#AFE5E3"/>
<line x1="26" y1="13.5" x2="8" y2="13.5" stroke="#5698A8"/>
<line x1="19" y1="19.5" x2="-3.72832e-08" y2="19.5" stroke="#5DA3B4"/>
<line x1="29" y1="25.5" x2="10" y2="25.5" stroke="#5698A8"/>
</svg>
