<svg width="30" height="23" viewBox="0 0 30 23" fill="none" xmlns="http://www.w3.org/2000/svg">
<path d="M0.958333 0C0.429078 0 0 0.433166 0 0.96766C0 1.50203 0.429078 1.93519 0.958333 1.93519H4.7817C6.36781 5.90154 7.93014 9.87518 9.5036 13.8488L8.05601 17.3664C7.93475 17.6597 7.96886 18.0133 8.14392 18.2775C8.31897 18.5416 8.62973 18.7082 8.94457 18.7069H24.9169C25.4232 18.7141 25.8888 18.2506 25.8888 17.7394C25.8888 17.228 25.4232 16.7646 24.9169 16.7717H10.3821L11.2106 14.7761L26.594 13.5364C26.9966 13.5045 27.3611 13.1877 27.4524 12.7904L29.3692 4.40463C29.4946 3.83972 29.004 3.22345 28.4308 3.22537H7.35719L6.31899 0.604773C6.1769 0.250062 5.80954 0 5.43056 0H0.958333ZM8.1259 5.16056H27.2229L25.7355 11.6717L11.1707 12.8409L8.1259 5.16056Z" fill="white"/>
<circle cx="10.861" cy="21.0833" r="1.91667" fill="white"/>
<circle cx="22.361" cy="21.0833" r="1.91667" fill="white"/>
</svg>
