<svg width="40" height="42" viewBox="0 0 40 42" fill="none" xmlns="http://www.w3.org/2000/svg">
<path d="M36.2784 17.073C36.2784 26.2261 28.8584 33.6461 19.7054 33.6461C10.5523 33.6461 3.13232 26.2261 3.13232 17.073C3.13232 7.92 10.5523 0.5 19.7054 0.5C28.8584 0.5 36.2784 7.92 36.2784 17.073Z" fill="#AFE6E3" stroke="#254F4D"/>
<path d="M7.3019 35.6429L7.15443 35.3532L6.82979 35.3704L0.893449 35.6855L5.93111 26.9531C8.13652 29.7358 11.161 31.8331 14.6504 32.8769L9.99873 40.9413L7.3019 35.6429ZM32.6574 35.3704L32.3328 35.3532L32.1853 35.6429L29.4882 40.9418L24.8188 32.8574C28.3002 31.7996 31.3234 29.6952 33.5161 26.9048L38.5927 35.6855L32.6574 35.3704Z" fill="#18948F" stroke="#254F4D"/>
<path d="M31.5805 17.073C31.5805 23.6315 26.2638 28.9482 19.7053 28.9482C13.1468 28.9482 7.83008 23.6315 7.83008 17.073C7.83008 10.5145 13.1468 5.19781 19.7053 5.19781C26.2638 5.19781 31.5805 10.5145 31.5805 17.073Z" fill="#60CDCC" stroke="#254F4D"/>
<path d="M24.5349 22.4082L24.0426 22.4956L24.0419 22.4918L23.7768 22.9391C24.1593 23.1316 24.6032 22.8197 24.5349 22.4082ZM24.5349 22.4082L23.8588 18.599L24.5349 22.4082ZM26.4971 15.0886C26.4973 15.0888 26.498 15.0896 26.4988 15.091L26.4984 15.0914L23.6669 17.7897C23.4177 18.0209 23.3121 18.3562 23.3654 18.6802L23.3654 18.6802L23.3665 18.6864L24.0412 22.488C24.0404 22.4888 24.0393 22.4897 24.0378 22.4907C24.0321 22.4948 24.0258 22.4968 24.0208 22.4973C24.0185 22.4975 24.0163 22.4974 24.0139 22.497C24.0116 22.4965 24.0078 22.4955 24.0022 22.4928C24.002 22.4927 24.0018 22.4926 24.0016 22.4925L20.4828 20.6968C20.1882 20.5423 19.8322 20.5423 19.5376 20.6968L16.0164 22.4938L16.0164 22.4937L16.0128 22.4956C16.0074 22.4984 16.0039 22.4993 16.0023 22.4996C16.0004 22.5 15.9987 22.5001 15.9969 22.4999C15.9926 22.4995 15.9864 22.4976 15.9805 22.4935C15.9798 22.493 15.9791 22.4925 15.9785 22.492L16.6474 18.6855L16.6477 18.6835C16.704 18.3553 16.5894 18.0254 16.3531 17.7958L16.3531 17.7957L16.3487 17.7916L13.5012 15.091C13.502 15.0896 13.5027 15.0888 13.5029 15.0886L13.5031 15.0885L13.5038 15.0881C13.5045 15.0878 13.5073 15.0866 13.5134 15.0858L13.5135 15.0857L17.4543 14.5283L17.4543 14.5284L17.4642 14.5268C17.7785 14.4759 18.0675 14.2759 18.2181 13.9833L18.2181 13.9833L18.2197 13.9801L19.9749 10.5093L19.975 10.5093C19.976 10.5073 19.9767 10.5062 19.9771 10.5056L19.9779 10.5046L19.9791 10.5037C19.9812 10.5025 19.9873 10.5 19.9966 10.5C20.0059 10.5 20.0119 10.5025 20.0141 10.5037L20.0152 10.5046L20.016 10.5056C20.0165 10.5062 20.0172 10.5073 20.0182 10.5093L20.0186 10.51L21.7795 13.9785C21.9323 14.2864 22.2206 14.4778 22.539 14.5273L22.5389 14.5273L22.5457 14.5283L26.4864 15.0857L26.4866 15.0858C26.4927 15.0866 26.4955 15.0878 26.4962 15.0881L26.4969 15.0885L26.4971 15.0886Z" fill="#AFE5E3" stroke="#254F4D"/>
</svg>
