<svg width="61" height="50" viewBox="0 0 61 50" fill="none" xmlns="http://www.w3.org/2000/svg">
<circle cx="22" cy="28" r="22" fill="#0E2A33"/>
<path d="M13.5551 29.2572C12.8367 25.9043 12.4774 24.2279 13.378 23.114C14.2785 22 15.993 22 19.422 22H24.5781C28.0071 22 29.7215 22 30.6221 23.114C31.5226 24.2279 31.1634 25.9043 30.4449 29.2572L30.0164 31.2572C29.5294 33.5297 29.2859 34.666 28.4608 35.333C27.6357 36 26.4737 36 24.1495 36H19.8505C17.5264 36 16.3643 36 15.5392 35.333C14.7142 34.666 14.4707 33.5297 13.9837 31.2572L13.5551 29.2572Z" stroke="#26AAAB" stroke-width="1.5"/>
<path d="M18 27H26" stroke="#26AAAB" stroke-width="1.5" stroke-linecap="round" stroke-linejoin="round"/>
<path d="M20 30H24" stroke="#26AAAB" stroke-width="1.5" stroke-linecap="round" stroke-linejoin="round"/>
<path d="M28 24L25 18" stroke="#26AAAB" stroke-width="1.5" stroke-linecap="round" stroke-linejoin="round"/>
<path d="M16 24L19 18" stroke="#26AAAB" stroke-width="1.5" stroke-linecap="round" stroke-linejoin="round"/>
<path d="M52 13.9975C52 19.3669 47.7467 23.7197 42.5 23.7197C37.2533 23.7197 33 19.3669 33 13.9975C33 9.24238 39.4446 4.89637 41.8101 1.3386C42.0768 0.937442 42.9121 0.942425 43.1765 1.3451C45.512 4.90166 52 9.24528 52 13.9975Z" fill="#FECD14"/>
<path d="M43.418 9.508C44.3513 9.508 45.0373 9.732 45.476 10.18C45.924 10.6187 46.148 11.3 46.148 12.224V16.41C46.148 17.2873 45.9333 17.9407 45.504 18.37C45.084 18.79 44.4353 19 43.558 19H41.822C40.3007 19 39.4513 18.3467 39.274 17.04C39.246 16.844 39.2833 16.6947 39.386 16.592C39.4887 16.48 39.638 16.424 39.834 16.424C40.1887 16.424 40.394 16.6153 40.45 16.998C40.506 17.306 40.6367 17.5207 40.842 17.642C41.0473 17.7633 41.374 17.824 41.822 17.824H43.558C43.9313 17.824 44.216 17.782 44.412 17.698C44.6173 17.614 44.762 17.474 44.846 17.278C44.93 17.0727 44.972 16.7833 44.972 16.41V15.248C44.608 15.6867 44.09 15.906 43.418 15.906H41.962C41.038 15.906 40.352 15.682 39.904 15.234C39.456 14.786 39.232 14.1 39.232 13.176V12.238C39.232 11.3047 39.456 10.6187 39.904 10.18C40.352 9.732 41.038 9.508 41.962 9.508H43.418ZM41.962 10.684C41.5513 10.684 41.234 10.7307 41.01 10.824C40.7953 10.9173 40.6413 11.076 40.548 11.3C40.4547 11.524 40.408 11.8367 40.408 12.238V13.176C40.408 13.5867 40.4547 13.904 40.548 14.128C40.6413 14.3427 40.8 14.4967 41.024 14.59C41.248 14.6833 41.5607 14.73 41.962 14.73H43.418C43.8287 14.73 44.1413 14.6833 44.356 14.59C44.58 14.4967 44.7387 14.3427 44.832 14.128C44.9253 13.904 44.972 13.5913 44.972 13.19V12.224C44.972 11.8227 44.9253 11.5147 44.832 11.3C44.7387 11.076 44.58 10.9173 44.356 10.824C44.1413 10.7307 43.8287 10.684 43.418 10.684H41.962Z" fill="#0E2A33"/>
</svg>
