<svg width="20" height="15" viewBox="0 0 20 15" fill="none" xmlns="http://www.w3.org/2000/svg">
<path d="M0.625 0C0.279833 0 0 0.2825 0 0.631083C0 0.979583 0.279833 1.26208 0.625 1.26208H3.1185C4.15292 3.84883 5.17183 6.44033 6.198 9.03183L5.25392 11.3259C5.17483 11.5172 5.19708 11.7478 5.31125 11.9201C5.42542 12.0923 5.62808 12.201 5.83342 12.2002H16.2502C16.5803 12.2048 16.884 11.9026 16.884 11.5692C16.884 11.2357 16.5803 10.9334 16.2502 10.9381H6.77092L7.31125 9.63658L17.3439 8.82808C17.6065 8.80725 17.8442 8.60067 17.9038 8.34158L19.1538 2.87258C19.2356 2.50417 18.9157 2.10225 18.5418 2.1035H4.79817L4.12108 0.394417C4.02842 0.163084 3.78883 0 3.54167 0H0.625ZM5.2995 3.36558H17.7541L16.784 7.612L7.28525 8.3745L5.2995 3.36558Z" fill="#FAB909"/>
<circle cx="7.0835" cy="13.75" r="1.25" fill="#FAB909"/>
<circle cx="14.5835" cy="13.75" r="1.25" fill="#FAB909"/>
</svg>
