<svg width="34" height="43" viewBox="0 0 34 43" fill="none" xmlns="http://www.w3.org/2000/svg">
<path d="M32.9902 5.78986L32.9902 5.78989C33.1387 5.83935 33.2678 5.93428 33.3593 6.06122L33.7649 5.76887L33.3593 6.06122C33.4508 6.18816 33.5 6.34068 33.5 6.49716V6.49723V25.5932C33.5 27.7993 32.5718 29.9081 31.1173 31.8565C29.6632 33.8044 27.7059 35.5608 25.7082 37.0497C21.713 40.0276 17.6289 41.8829 17.3048 42.028L17.3046 42.0281C17.2088 42.071 17.105 42.0932 17 42.0932C16.895 42.0932 16.7912 42.071 16.6954 42.0281L16.6951 42.028C16.3711 41.883 12.287 40.0277 8.29176 37.0498C6.29412 35.5609 4.33681 33.8045 2.88269 31.8565C1.42824 29.9081 0.5 27.7993 0.5 25.5932V6.49724C0.5 6.49724 0.5 6.49724 0.5 6.49723C0.500005 6.34074 0.549247 6.18822 0.640749 6.06126C0.732253 5.93431 0.861379 5.83936 1.00984 5.78986C1.00984 5.78986 1.00985 5.78986 1.00985 5.78986L16.764 0.538277L16.7642 0.538234C16.9172 0.487174 17.0827 0.487174 17.2357 0.538234L17.2358 0.538278L32.9902 5.78986ZM17 42.5932C17.1755 42.5932 17.349 42.5561 17.5091 42.4843H16.4909C16.651 42.5561 16.8245 42.5932 17 42.5932ZM16.6059 0.0639536L16.6059 0.06397L16.6059 0.0639536Z" fill="#AFE5E3" stroke="#215C6A"/>
<path d="M32.9902 5.78986L32.9903 5.78989C33.1388 5.83934 33.2679 5.93425 33.3593 6.06118C33.4508 6.18811 33.5 6.34061 33.4999 6.49706V6.49724V25.5933C33.4999 27.7994 32.5717 29.9082 31.1172 31.8566C29.6631 33.8046 27.7058 35.5609 25.7082 37.0499C22.0302 39.7912 18.277 41.5813 17.4512 41.9615V0.610036L32.9902 5.78986Z" fill="#40AAA9" stroke="#215C6A"/>
<path d="M27.8335 10.6336L27.8336 10.6336C27.9821 10.6831 28.1113 10.778 28.2028 10.905C28.2943 11.0319 28.3435 11.1844 28.3435 11.3409V24.1869C28.3435 26.7926 26.5512 29.5233 22.7362 32.2849C20.0546 34.2259 17.4053 35.4205 17.3049 35.4654L17.3045 35.4656C17.2087 35.5085 17.1049 35.5307 16.9999 35.5307C16.8949 35.5307 16.7911 35.5085 16.6953 35.4656L16.6952 35.4655C16.5943 35.4203 13.9451 34.2259 11.2636 32.2849C7.44875 29.5232 5.65625 26.7926 5.65625 24.1869V11.341V11.3409C5.65625 11.1844 5.70549 11.0319 5.79701 10.905C5.88852 10.778 6.01767 10.6831 6.16615 10.6336L6.16623 10.6336L16.7641 7.10093L16.7642 7.10087C16.9171 7.04983 17.0825 7.04983 17.2354 7.10087L17.2356 7.10093L27.8335 10.6336Z" fill="#96F1F0" stroke="#215C6A"/>
<path d="M27.8337 10.6336L27.8338 10.6336C27.9823 10.6831 28.1114 10.778 28.2029 10.9049C28.2944 11.0319 28.3436 11.1844 28.3436 11.3408V11.341V24.1869C28.3436 26.7926 26.5512 29.5233 22.7362 32.2849C20.3822 33.9888 18.053 35.1176 17.4512 35.3982V7.17274L27.8337 10.6336Z" fill="#18948F" stroke="#215C6A"/>
</svg>
