<svg width="19" height="19" viewBox="0 0 19 19" fill="none" xmlns="http://www.w3.org/2000/svg">
<path d="M17.5117 13.0239C17.4798 12.9973 13.8677 10.4123 12.8876 10.5818C12.4165 10.6651 12.1469 10.9859 11.6071 11.6295C11.4579 11.8084 11.3053 11.9846 11.1494 12.1578C10.8082 12.0466 10.4754 11.9112 10.1536 11.7525C8.49231 10.9437 7.15004 9.60143 6.34126 7.94014C6.18255 7.61832 6.04711 7.28555 5.93596 6.94438C6.11327 6.78214 6.36176 6.57286 6.46791 6.48359C7.10783 5.94681 7.42869 5.67722 7.51192 5.20557C7.68261 4.22911 5.09641 0.613981 5.06987 0.581412C4.95209 0.414381 4.7987 0.275583 4.62076 0.175037C4.44283 0.0744915 4.24479 0.0147073 4.04094 0C2.99271 0 0 3.88171 0 4.5361C0 4.5741 0.0548844 8.43651 4.81776 13.2814C9.65724 18.0389 13.5196 18.0938 13.5576 18.0938C14.212 18.0938 18.0938 15.101 18.0938 14.0528C18.0791 13.8489 18.0192 13.6508 17.9186 13.4728C17.8179 13.2949 17.6789 13.1415 17.5117 13.0239ZM13.4913 16.8839C12.9642 16.8405 9.72298 16.4128 5.67058 12.4316C1.66885 8.3575 1.25209 5.10726 1.21047 4.60365C2.00103 3.36281 2.95579 2.23459 4.04878 1.24967C4.0729 1.2738 4.10487 1.30999 4.14588 1.35703C4.98412 2.5013 5.70621 3.72627 6.30145 5.01378C6.10788 5.20851 5.90329 5.39196 5.68867 5.56322C5.35587 5.81681 5.05026 6.10423 4.77675 6.42087L4.63019 6.62593L4.67361 6.87382C4.80125 7.42672 4.99674 7.96172 5.25563 8.46667C6.18317 10.3714 7.72227 11.9102 9.62708 12.8375C10.1319 13.0968 10.667 13.2925 11.2199 13.4201L11.4678 13.4636L11.6729 13.317C11.9907 13.0423 12.2793 12.7355 12.5341 12.4015C12.7229 12.1759 12.9756 11.8749 13.0709 11.7899C14.3621 12.3845 15.5902 13.1075 16.7367 13.9479C16.7868 13.9901 16.8218 14.0227 16.8453 14.0438C15.8605 15.1371 14.7323 16.0921 13.4913 16.8827V16.8839Z" fill="#296776"/>
</svg>
