<svg width="25" height="25" viewBox="0 0 25 25" fill="none" xmlns="http://www.w3.org/2000/svg">
<path d="M23.3187 17.3427C23.2762 17.3073 18.4663 13.8652 17.1612 14.0908C16.5339 14.2017 16.1749 14.6289 15.4561 15.4859C15.2574 15.7242 15.0542 15.9588 14.8466 16.1894C14.3923 16.0414 13.9491 15.861 13.5206 15.6497C11.3084 14.5727 9.52104 12.7853 8.44406 10.5731C8.23273 10.1446 8.05237 9.70149 7.90436 9.24718C8.14048 9.03114 8.47136 8.75246 8.61271 8.63359C9.46483 7.91881 9.89209 7.55982 10.0029 6.93177C10.2302 5.63151 6.78641 0.817581 6.75107 0.774213C6.59424 0.551792 6.38998 0.366967 6.15304 0.23308C5.9161 0.0991933 5.65238 0.0195843 5.38094 0C3.98511 0 0 5.16891 0 6.0403C0 6.0909 0.0730844 11.2341 6.41536 17.6856C12.8596 24.0207 18.0029 24.0938 18.0534 24.0938C18.9248 24.0938 24.0938 20.1086 24.0938 18.7128C24.0742 18.4413 23.9945 18.1775 23.8605 17.9405C23.7264 17.7036 23.5414 17.4993 23.3187 17.3427ZM17.9651 22.4827C17.2632 22.4249 12.9472 21.8554 7.55098 16.554C2.22225 11.1289 1.66729 6.80086 1.61187 6.13025C2.66459 4.47794 3.93595 2.97559 5.39138 1.66408C5.4235 1.6962 5.46607 1.74439 5.52068 1.80703C6.63689 3.33074 7.59843 4.96192 8.39105 6.67638C8.13329 6.93569 7.86085 7.17997 7.57508 7.40803C7.13191 7.7457 6.72495 8.12843 6.36075 8.55007L6.16559 8.82313L6.22342 9.15322C6.39338 9.88946 6.65369 10.6019 6.99843 11.2743C8.23355 13.8106 10.283 15.8597 12.8195 17.0945C13.4917 17.4398 14.2042 17.7003 14.9405 17.8703L15.2706 17.9282L15.5437 17.733C15.9669 17.3672 16.3512 16.9586 16.6905 16.5139C16.9419 16.2135 17.2784 15.8127 17.4053 15.6995C19.1247 16.4913 20.76 17.454 22.2867 18.5731C22.3534 18.6293 22.4 18.6727 22.4313 18.7008C21.12 20.1566 19.6176 21.4283 17.9651 22.4811V22.4827Z" fill="white"/>
</svg>
