<svg width="123" height="86" viewBox="0 0 123 86" fill="none" xmlns="http://www.w3.org/2000/svg">
<path fill-rule="evenodd" clip-rule="evenodd" d="M0.680298 28.9028H48.5951L54.8314 37.9003L61.8989 28.9028H111.48V58.508H64.4768L53.584 44.5118L43.024 58.508H0.680298V28.9028Z" fill="black"/>
<path d="M21.8986 46.4211H13.9375V39.4629H12.244V47.9481H21.8986V46.4211ZM39.887 39.4629H38.193V46.4211H29.7239V39.4629H28.0304V46.4211C28.0304 46.4211 28.0304 47.9481 29.5549 47.9481H38.3625C39.9377 47.9481 39.887 46.4211 39.887 46.4211V39.4629ZM78.37 39.4629H69.5625C68.038 39.4629 68.038 40.9899 68.038 40.9899V47.9481H69.7315V45.2328H78.2005V47.9481H79.8945V40.9899C79.8945 40.9899 79.8945 39.4629 78.37 39.4629ZM69.7315 40.9899H78.2005V43.7053H69.7315V40.9899ZM99.915 47.9481L97.8824 45.2328C99.5765 45.2328 99.5765 43.7053 99.5765 43.7053V40.9899C99.5765 40.9899 99.5765 39.4629 97.8824 39.4629H87.7199V47.9481H89.4134V45.2328H96.0194L98.0519 47.9481H99.915ZM97.8824 43.7053H89.4134V40.9899H97.8824V43.7053Z" fill="#FEFEFE"/>
<path d="M122.223 56.3697C122.223 56.7324 122.172 57.0644 122.072 57.3666C121.971 57.6689 121.768 57.9131 121.461 58.0994C121.155 58.2856 120.69 58.379 120.067 58.379H115.016C114.473 58.379 114.058 58.2784 113.772 58.0768C113.485 57.8751 113.289 57.6011 113.183 57.2532C113.078 56.9059 113.025 56.5056 113.025 56.0526C113.025 55.599 113.08 55.1987 113.191 54.8514C113.302 54.504 113.498 54.2295 113.779 54.0278C114.061 53.8267 114.473 53.7261 115.016 53.7261H116.191V54.8591H114.985C114.634 54.8591 114.37 54.9093 114.194 55.0099C114.018 55.1105 113.902 55.249 113.847 55.4255C113.792 55.6015 113.764 55.8057 113.764 56.0372C113.764 56.2691 113.792 56.4728 113.847 56.6493C113.902 56.8253 114.018 56.9638 114.194 57.0644C114.37 57.1655 114.634 57.2158 114.985 57.2158H120.293C120.654 57.2158 120.923 57.1655 121.099 57.0644C121.275 56.9638 121.391 56.8253 121.446 56.6493C121.501 56.4728 121.529 56.2691 121.529 56.0372C121.529 55.6949 121.424 55.4127 121.213 55.191C121.001 54.9699 120.695 54.8591 120.293 54.8591H118.468V55.9012H117.775V53.7261H122.057V54.602L121.242 54.6625C121.303 54.6928 121.361 54.7256 121.416 54.7605C121.471 54.7959 121.519 54.8288 121.559 54.8591C121.75 54.9899 121.909 55.1762 122.034 55.4178C122.16 55.6595 122.223 55.9766 122.223 56.3697ZM122.057 52.1847H113.146V49.2543C113.146 48.7202 113.269 48.2999 113.515 47.9926C113.761 47.6857 114.136 47.5318 114.639 47.5318H116.056C116.568 47.5318 116.97 47.678 117.262 47.97C117.554 48.262 117.709 48.6699 117.729 49.1938C117.75 48.8613 117.86 48.617 118.061 48.4611C118.262 48.3051 118.574 48.1665 118.996 48.0454L122.057 47.1542V48.4231L119.072 49.1938C118.89 49.2441 118.72 49.3046 118.559 49.3749C118.398 49.4457 118.27 49.5309 118.174 49.632C118.079 49.7325 118.031 49.8685 118.031 50.0399V50.9763H122.057V52.1847ZM117.217 50.9763V49.7982C117.217 49.4252 117.127 49.1461 116.945 48.9598C116.764 48.773 116.453 48.6802 116.011 48.6802H114.834C114.473 48.6802 114.212 48.7684 114.05 48.9444C113.889 49.1209 113.809 49.3349 113.809 49.5863V50.9763H117.217ZM122.238 43.725C122.238 44.1781 122.185 44.5758 122.079 44.9185C121.974 45.2608 121.755 45.5327 121.424 45.7344C121.092 45.9355 120.594 46.0361 119.931 46.0361H115.016C114.463 46.0361 114.043 45.9355 113.756 45.7344C113.47 45.5327 113.276 45.2582 113.176 44.9108C113.075 44.5634 113.025 44.1632 113.025 43.7096C113.025 43.2565 113.078 42.8563 113.183 42.5089C113.289 42.1611 113.482 41.8871 113.764 41.6854C114.046 41.4843 114.463 41.3832 115.016 41.3832H119.931C120.604 41.3832 121.105 41.4843 121.431 41.6854C121.758 41.8871 121.974 42.1636 122.079 42.5161C122.185 42.8686 122.238 43.2714 122.238 43.725ZM121.529 43.725C121.529 43.4931 121.499 43.2894 121.438 43.1129C121.378 42.9369 121.26 42.7983 121.084 42.6978C120.908 42.5967 120.645 42.5464 120.293 42.5464H114.985C114.644 42.5464 114.385 42.5967 114.209 42.6978C114.033 42.7983 113.915 42.9369 113.855 43.1129C113.794 43.2894 113.764 43.4931 113.764 43.725C113.764 43.9564 113.794 44.1581 113.855 44.329C113.915 44.5003 114.033 44.6363 114.209 44.7369C114.385 44.838 114.644 44.8882 114.985 44.8882H120.293C120.645 44.8882 120.908 44.838 121.084 44.7369C121.26 44.6363 121.378 44.5003 121.438 44.329C121.499 44.1581 121.529 43.9564 121.529 43.725ZM122.238 37.5461C122.238 37.8684 122.213 38.1706 122.162 38.4523C122.112 38.7345 122.014 38.9787 121.868 39.185C121.723 39.3918 121.507 39.5555 121.22 39.676C120.934 39.7971 120.549 39.8577 120.067 39.8577H113.146V38.6791H120.338C120.66 38.6791 120.903 38.6262 121.069 38.5205C121.235 38.4148 121.348 38.2763 121.408 38.1049C121.469 37.934 121.499 37.7473 121.499 37.5461C121.499 37.3445 121.469 37.1556 121.408 36.9796C121.348 36.8031 121.235 36.6625 121.069 36.5563C120.903 36.4506 120.66 36.3978 120.338 36.3978H113.146V35.2499H120.067C120.539 35.2499 120.921 35.3079 121.213 35.4234C121.504 35.5393 121.723 35.7005 121.868 35.9067C122.014 36.1135 122.112 36.3577 122.162 36.6394C122.213 36.9217 122.238 37.2239 122.238 37.5461ZM122.057 33.5726H113.146V30.6873C113.146 30.1537 113.269 29.7329 113.515 29.4261C113.761 29.1188 114.136 28.9653 114.639 28.9653H116.252C116.604 28.9653 116.936 29.0131 117.247 29.1085C117.559 29.2044 117.81 29.3881 118.001 29.6601C118.192 29.932 118.287 30.3246 118.287 30.8382V32.3493H122.057V33.5726ZM117.609 32.3493V31.2164C117.609 30.8536 117.488 30.5816 117.247 30.4005C117.006 30.2189 116.624 30.1286 116.101 30.1286H115.106C114.654 30.1286 114.324 30.2117 114.118 30.3774C113.913 30.5437 113.809 30.753 113.809 31.0044V32.3493H117.609Z" fill="#6B8C9E"/>
<mask id="mask0_99_477" style="mask-type:alpha" maskUnits="userSpaceOnUse" x="23" y="0" width="60" height="86">
<path fill-rule="evenodd" clip-rule="evenodd" d="M53.7114 47.327L23.2667 85.6847L50.2337 42.1481L36.232 21.2993H45.0083L54.9353 36.0811L82.9567 0.775879L58.1364 40.8474L75.0489 66.0304H66.2726L53.7114 47.327Z" fill="#62D8D8"/>
</mask>
<g mask="url(#mask0_99_477)">
<path d="M14.5 -3H88.5V92H14.5V-3Z" fill="#62D6D6"/>
<path fill-rule="evenodd" clip-rule="evenodd" d="M44.8753 99.659L13.0879 79.0801L32.8599 48.418L64.6468 68.9969L44.8753 99.659Z" fill="url(#paint0_linear_99_477)"/>
<path fill-rule="evenodd" clip-rule="evenodd" d="M71.0615 -11.3169L100.982 11.893L78.6715 40.7608L48.7517 17.5509L71.0615 -11.3169Z" fill="url(#paint1_linear_99_477)"/>
<path fill-rule="evenodd" clip-rule="evenodd" d="M97.2903 59.2215L74.5907 89.5309L45.3489 67.713L68.0485 37.4042L97.2903 59.2215Z" fill="url(#paint2_linear_99_477)"/>
<path fill-rule="evenodd" clip-rule="evenodd" d="M9.18155 20.1937L38.6672 -3.56605L61.6103 24.8013L32.1249 48.5606L9.18155 20.1937Z" fill="url(#paint3_linear_99_477)"/>
</g>
<defs>
<linearGradient id="paint0_linear_99_477" x1="28.9818" y1="89.3695" x2="48.8087" y2="58.7433" gradientUnits="userSpaceOnUse">
<stop stop-color="#2B2A29"/>
<stop offset="0.164706" stop-color="#252325"/>
<stop offset="0.258824" stop-color="#1F1B20"/>
<stop offset="1" stop-color="#62D8D8"/>
</linearGradient>
<linearGradient id="paint1_linear_99_477" x1="86.0214" y1="0.288029" x2="63.6595" y2="29.1155" gradientUnits="userSpaceOnUse">
<stop stop-color="#2B2A29"/>
<stop offset="0.164706" stop-color="#252325"/>
<stop offset="0.258824" stop-color="#1F1B20"/>
<stop offset="1" stop-color="#62D8D8"/>
</linearGradient>
<linearGradient id="paint2_linear_99_477" x1="85.9405" y1="74.3759" x2="56.7383" y2="52.5058" gradientUnits="userSpaceOnUse">
<stop stop-color="#2B2A29"/>
<stop offset="0.164706" stop-color="#252325"/>
<stop offset="0.258824" stop-color="#1F1B20"/>
<stop offset="1" stop-color="#62D8D8"/>
</linearGradient>
<linearGradient id="paint3_linear_99_477" x1="23.9243" y1="8.31409" x2="46.8163" y2="36.7224" gradientUnits="userSpaceOnUse">
<stop stop-color="#2B2A29"/>
<stop offset="0.164706" stop-color="#252325"/>
<stop offset="0.258824" stop-color="#1F1B20"/>
<stop offset="1" stop-color="#62D8D8"/>
</linearGradient>
</defs>
</svg>
