<svg width="13" height="8" viewBox="0 0 13 8" fill="none" xmlns="http://www.w3.org/2000/svg">
<path d="M0.295798 0.295798C0.20207 0.388762 0.127676 0.499362 0.0769072 0.621222C0.0261386 0.743081 7.31927e-08 0.873786 7.16184e-08 1.0058C7.00442e-08 1.13781 0.0261385 1.26852 0.0769072 1.39038C0.127676 1.51223 0.20207 1.62284 0.295798 1.7158L5.2958 6.7158C5.38876 6.80953 5.49936 6.88392 5.62122 6.93469C5.74308 6.98546 5.87379 7.0116 6.0058 7.0116C6.13781 7.0116 6.26852 6.98546 6.39038 6.93469C6.51223 6.88392 6.62284 6.80953 6.7158 6.7158L11.7158 1.7158C11.8095 1.62284 11.8839 1.51223 11.9347 1.39038C11.9855 1.26852 12.0116 1.13781 12.0116 1.0058C12.0116 0.873787 11.9855 0.743081 11.9347 0.621222C11.8839 0.499363 11.8095 0.388762 11.7158 0.295798C11.6228 0.20207 11.5122 0.127676 11.3904 0.0769073C11.2685 0.0261384 11.1378 1.32817e-07 11.0058 1.31243e-07C10.8738 1.29669e-07 10.7431 0.0261384 10.6212 0.0769073C10.4994 0.127676 10.3888 0.20207 10.2958 0.295798L6.0058 4.5958L1.7158 0.295798C1.62284 0.20207 1.51223 0.127676 1.39038 0.0769072C1.26852 0.0261383 1.13781 1.35683e-08 1.0058 1.1994e-08C0.873787 1.04198e-08 0.743081 0.0261383 0.621222 0.0769072C0.499362 0.127676 0.388761 0.20207 0.295798 0.295798Z" fill="#3A4B55"/>
</svg>
