<svg width="25" height="25" viewBox="0 0 25 25" fill="none" xmlns="http://www.w3.org/2000/svg">
<circle cx="12.5" cy="12.5" r="12.5" fill="url(#paint0_linear_249_632)"/>
<path d="M0 10C0 4.47715 4.47715 0 10 0H25V15C25 20.5228 20.5228 25 15 25H0V10Z" fill="url(#paint1_linear_249_632)"/>
<path d="M9.7955 20V5H13.6754C15.4778 5 16.8124 5.37115 17.6792 6.11345C18.5597 6.85574 19 7.93417 19 9.34874C19 10.3011 18.7867 11.1204 18.3602 11.8067C17.9337 12.479 17.3008 12.9972 16.4615 13.3613C15.636 13.7255 14.611 13.9076 13.3865 13.9076H11.6529V20H9.7955ZM8 17.1429V15.7773H15.0582V17.1429H8ZM8 13.9076V12.3109H12.7261V13.9076H8ZM13.1182 12.3109C13.9575 12.3109 14.666 12.2199 15.2439 12.0378C15.8355 11.8557 16.2896 11.5546 16.606 11.1345C16.9225 10.7143 17.0807 10.1401 17.0807 9.41177C17.0807 8.45938 16.7917 7.7521 16.2139 7.28992C15.636 6.82773 14.7348 6.59664 13.5103 6.59664H11.6529V12.3109H13.1182Z" fill="white"/>
<defs>
<linearGradient id="paint0_linear_249_632" x1="0.55668" y1="25" x2="25" y2="25" gradientUnits="userSpaceOnUse">
<stop stop-color="#FABC2A"/>
<stop offset="1" stop-color="#F75B2D"/>
</linearGradient>
<linearGradient id="paint1_linear_249_632" x1="0.55668" y1="25" x2="25" y2="25" gradientUnits="userSpaceOnUse">
<stop stop-color="#FABC2A"/>
<stop offset="1" stop-color="#F75B2D"/>
</linearGradient>
</defs>
</svg>
