<svg width="269" height="2" viewBox="0 0 269 2" fill="none" xmlns="http://www.w3.org/2000/svg">
<path d="M0.488 1.328V0.784H6.248V1.328H0.488ZM9.238 1.328V0.784H14.998V1.328H9.238ZM17.988 1.328V0.784H23.748V1.328H17.988ZM26.738 1.328V0.784H32.498V1.328H26.738ZM35.488 1.328V0.784H41.248V1.328H35.488ZM44.238 1.328V0.784H49.998V1.328H44.238ZM52.988 1.328V0.784H58.748V1.328H52.988ZM61.738 1.328V0.784H67.498V1.328H61.738ZM70.488 1.328V0.784H76.248V1.328H70.488ZM79.238 1.328V0.784H84.998V1.328H79.238ZM87.988 1.328V0.784H93.748V1.328H87.988ZM96.738 1.328V0.784H102.498V1.328H96.738ZM105.488 1.328V0.784H111.248V1.328H105.488ZM114.238 1.328V0.784H119.998V1.328H114.238ZM122.988 1.328V0.784H128.748V1.328H122.988ZM131.738 1.328V0.784H137.498V1.328H131.738ZM140.488 1.328V0.784H146.248V1.328H140.488ZM149.238 1.328V0.784H154.998V1.328H149.238ZM157.988 1.328V0.784H163.748V1.328H157.988ZM166.738 1.328V0.784H172.498V1.328H166.738ZM175.488 1.328V0.784H181.248V1.328H175.488ZM184.238 1.328V0.784H189.998V1.328H184.238ZM192.988 1.328V0.784H198.748V1.328H192.988ZM201.738 1.328V0.784H207.498V1.328H201.738ZM210.488 1.328V0.784H216.248V1.328H210.488ZM219.238 1.328V0.784H224.998V1.328H219.238ZM227.988 1.328V0.784H233.748V1.328H227.988ZM236.738 1.328V0.784H242.498V1.328H236.738ZM245.488 1.328V0.784H251.248V1.328H245.488ZM254.238 1.328V0.784H259.998V1.328H254.238ZM262.988 1.328V0.784H268.748V1.328H262.988Z" fill="#88A1AC"/>
</svg>
