<svg width="271" height="8" viewBox="0 0 271 8" fill="none" xmlns="http://www.w3.org/2000/svg">
<path d="M7.45 3.61V4.54L4.48 4.48L6.1 6.97L5.26 7.48L3.73 4.9L2.17 7.48L1.36 6.97L2.98 4.48L0.0100001 4.54V3.61L2.98 3.67L1.36 1.18L2.17 0.669999L3.73 3.28L5.26 0.669999L6.1 1.18L4.48 3.67L7.45 3.61ZM18.8758 3.61V4.54L15.9058 4.48L17.5258 6.97L16.6858 7.48L15.1558 4.9L13.5958 7.48L12.7858 6.97L14.4058 4.48L11.4358 4.54V3.61L14.4058 3.67L12.7858 1.18L13.5958 0.669999L15.1558 3.28L16.6858 0.669999L17.5258 1.18L15.9058 3.67L18.8758 3.61ZM30.3016 3.61V4.54L27.3316 4.48L28.9516 6.97L28.1116 7.48L26.5816 4.9L25.0216 7.48L24.2116 6.97L25.8316 4.48L22.8616 4.54V3.61L25.8316 3.67L24.2116 1.18L25.0216 0.669999L26.5816 3.28L28.1116 0.669999L28.9516 1.18L27.3316 3.67L30.3016 3.61ZM41.7273 3.61V4.54L38.7573 4.48L40.3773 6.97L39.5373 7.48L38.0073 4.9L36.4473 7.48L35.6373 6.97L37.2573 4.48L34.2873 4.54V3.61L37.2573 3.67L35.6373 1.18L36.4473 0.669999L38.0073 3.28L39.5373 0.669999L40.3773 1.18L38.7573 3.67L41.7273 3.61ZM53.1531 3.61V4.54L50.1831 4.48L51.8031 6.97L50.9631 7.48L49.4331 4.9L47.8731 7.48L47.0631 6.97L48.6831 4.48L45.7131 4.54V3.61L48.6831 3.67L47.0631 1.18L47.8731 0.669999L49.4331 3.28L50.9631 0.669999L51.8031 1.18L50.1831 3.67L53.1531 3.61ZM64.5789 3.61V4.54L61.6089 4.48L63.2289 6.97L62.3889 7.48L60.8589 4.9L59.2989 7.48L58.4889 6.97L60.1089 4.48L57.1389 4.54V3.61L60.1089 3.67L58.4889 1.18L59.2989 0.669999L60.8589 3.28L62.3889 0.669999L63.2289 1.18L61.6089 3.67L64.5789 3.61ZM76.0047 3.61V4.54L73.0347 4.48L74.6547 6.97L73.8147 7.48L72.2847 4.9L70.7247 7.48L69.9147 6.97L71.5347 4.48L68.5647 4.54V3.61L71.5347 3.67L69.9147 1.18L70.7247 0.669999L72.2847 3.28L73.8147 0.669999L74.6547 1.18L73.0347 3.67L76.0047 3.61ZM87.4305 3.61V4.54L84.4605 4.48L86.0805 6.97L85.2405 7.48L83.7105 4.9L82.1505 7.48L81.3405 6.97L82.9605 4.48L79.9905 4.54V3.61L82.9605 3.67L81.3405 1.18L82.1505 0.669999L83.7105 3.28L85.2405 0.669999L86.0805 1.18L84.4605 3.67L87.4305 3.61ZM98.8563 3.61V4.54L95.8863 4.48L97.5063 6.97L96.6663 7.48L95.1363 4.9L93.5763 7.48L92.7663 6.97L94.3863 4.48L91.4163 4.54V3.61L94.3863 3.67L92.7663 1.18L93.5763 0.669999L95.1363 3.28L96.6663 0.669999L97.5063 1.18L95.8863 3.67L98.8563 3.61ZM110.282 3.61V4.54L107.312 4.48L108.932 6.97L108.092 7.48L106.562 4.9L105.002 7.48L104.192 6.97L105.812 4.48L102.842 4.54V3.61L105.812 3.67L104.192 1.18L105.002 0.669999L106.562 3.28L108.092 0.669999L108.932 1.18L107.312 3.67L110.282 3.61ZM121.708 3.61V4.54L118.738 4.48L120.358 6.97L119.518 7.48L117.988 4.9L116.428 7.48L115.618 6.97L117.238 4.48L114.268 4.54V3.61L117.238 3.67L115.618 1.18L116.428 0.669999L117.988 3.28L119.518 0.669999L120.358 1.18L118.738 3.67L121.708 3.61ZM133.134 3.61V4.54L130.164 4.48L131.784 6.97L130.944 7.48L129.414 4.9L127.854 7.48L127.044 6.97L128.664 4.48L125.694 4.54V3.61L128.664 3.67L127.044 1.18L127.854 0.669999L129.414 3.28L130.944 0.669999L131.784 1.18L130.164 3.67L133.134 3.61ZM144.559 3.61V4.54L141.589 4.48L143.209 6.97L142.369 7.48L140.839 4.9L139.279 7.48L138.469 6.97L140.089 4.48L137.119 4.54V3.61L140.089 3.67L138.469 1.18L139.279 0.669999L140.839 3.28L142.369 0.669999L143.209 1.18L141.589 3.67L144.559 3.61ZM155.985 3.61V4.54L153.015 4.48L154.635 6.97L153.795 7.48L152.265 4.9L150.705 7.48L149.895 6.97L151.515 4.48L148.545 4.54V3.61L151.515 3.67L149.895 1.18L150.705 0.669999L152.265 3.28L153.795 0.669999L154.635 1.18L153.015 3.67L155.985 3.61ZM167.411 3.61V4.54L164.441 4.48L166.061 6.97L165.221 7.48L163.691 4.9L162.131 7.48L161.321 6.97L162.941 4.48L159.971 4.54V3.61L162.941 3.67L161.321 1.18L162.131 0.669999L163.691 3.28L165.221 0.669999L166.061 1.18L164.441 3.67L167.411 3.61ZM178.837 3.61V4.54L175.867 4.48L177.487 6.97L176.647 7.48L175.117 4.9L173.557 7.48L172.747 6.97L174.367 4.48L171.397 4.54V3.61L174.367 3.67L172.747 1.18L173.557 0.669999L175.117 3.28L176.647 0.669999L177.487 1.18L175.867 3.67L178.837 3.61ZM190.263 3.61V4.54L187.293 4.48L188.913 6.97L188.073 7.48L186.543 4.9L184.983 7.48L184.173 6.97L185.793 4.48L182.823 4.54V3.61L185.793 3.67L184.173 1.18L184.983 0.669999L186.543 3.28L188.073 0.669999L188.913 1.18L187.293 3.67L190.263 3.61ZM201.688 3.61V4.54L198.718 4.48L200.338 6.97L199.498 7.48L197.968 4.9L196.408 7.48L195.598 6.97L197.218 4.48L194.248 4.54V3.61L197.218 3.67L195.598 1.18L196.408 0.669999L197.968 3.28L199.498 0.669999L200.338 1.18L198.718 3.67L201.688 3.61ZM213.114 3.61V4.54L210.144 4.48L211.764 6.97L210.924 7.48L209.394 4.9L207.834 7.48L207.024 6.97L208.644 4.48L205.674 4.54V3.61L208.644 3.67L207.024 1.18L207.834 0.669999L209.394 3.28L210.924 0.669999L211.764 1.18L210.144 3.67L213.114 3.61ZM224.54 3.61V4.54L221.57 4.48L223.19 6.97L222.35 7.48L220.82 4.9L219.26 7.48L218.45 6.97L220.07 4.48L217.1 4.54V3.61L220.07 3.67L218.45 1.18L219.26 0.669999L220.82 3.28L222.35 0.669999L223.19 1.18L221.57 3.67L224.54 3.61ZM235.966 3.61V4.54L232.996 4.48L234.616 6.97L233.776 7.48L232.246 4.9L230.686 7.48L229.876 6.97L231.496 4.48L228.526 4.54V3.61L231.496 3.67L229.876 1.18L230.686 0.669999L232.246 3.28L233.776 0.669999L234.616 1.18L232.996 3.67L235.966 3.61ZM247.391 3.61V4.54L244.421 4.48L246.041 6.97L245.201 7.48L243.671 4.9L242.111 7.48L241.301 6.97L242.921 4.48L239.951 4.54V3.61L242.921 3.67L241.301 1.18L242.111 0.669999L243.671 3.28L245.201 0.669999L246.041 1.18L244.421 3.67L247.391 3.61ZM258.817 3.61V4.54L255.847 4.48L257.467 6.97L256.627 7.48L255.097 4.9L253.537 7.48L252.727 6.97L254.347 4.48L251.377 4.54V3.61L254.347 3.67L252.727 1.18L253.537 0.669999L255.097 3.28L256.627 0.669999L257.467 1.18L255.847 3.67L258.817 3.61ZM270.243 3.61V4.54L267.273 4.48L268.893 6.97L268.053 7.48L266.523 4.9L264.963 7.48L264.153 6.97L265.773 4.48L262.803 4.54V3.61L265.773 3.67L264.153 1.18L264.963 0.669999L266.523 3.28L268.053 0.669999L268.893 1.18L267.273 3.67L270.243 3.61Z" fill="#88A1AC"/>
</svg>
