<svg width="258" height="41" viewBox="0 0 258 41" fill="none" xmlns="http://www.w3.org/2000/svg">
<path d="M0 41H1.76698V1.07651e-09H0V41Z" fill="#E7EEF3"/>
<path d="M3.53751 41H5.30804V0H3.53751V41Z" fill="#E7EEF3"/>
<path d="M8.84911 41H10.6196V0H8.84911V41Z" fill="#E7EEF3"/>
<path d="M14.1571 41H17.6982V0H14.1571V41Z" fill="#E7EEF3"/>
<path d="M19.4687 41H26.5473V0H19.4687V41Z" fill="#E7EEF3"/>
<path d="M28.3179 41H30.0884V0H28.3179V41Z" fill="#E7EEF3"/>
<path d="M33.6295 41H38.9375V0H33.6295V41Z" fill="#E7EEF3"/>
<path d="M40.708 41H42.4786V0H40.708V41Z" fill="#E7EEF3"/>
<path d="M44.2491 41H47.7866V0H44.2491V41Z" fill="#E7EEF3"/>
<path d="M53.0982 41H54.8687V0H53.0982V41Z" fill="#E7EEF3"/>
<path d="M61.9473 41H63.7178V0H61.9473V41Z" fill="#E7EEF3"/>
<path d="M65.4884 41H67.2589V0H65.4884V41Z" fill="#E7EEF3"/>
<path d="M70.7964 41H72.5669V0H70.7964V41Z" fill="#E7EEF3"/>
<path d="M77.8785 41H79.6455V0H77.8785V41Z" fill="#E7EEF3"/>
<path d="M81.4196 41H83.1866V0H81.4196V41Z" fill="#E7EEF3"/>
<path d="M84.9571 41H86.7277V0H84.9571V41Z" fill="#E7EEF3"/>
<path d="M204.902 41H210.21V0H204.902V41Z" fill="#E7EEF3"/>
<path d="M211.98 41H213.751V0H211.98V41Z" fill="#E7EEF3"/>
<path d="M215.521 41H219.063V0H215.521V41Z" fill="#E7EEF3"/>
<path d="M224.371 41H226.141V0H224.371V41Z" fill="#E7EEF3"/>
<path d="M233.22 41H234.994V0H233.22V41Z" fill="#E7EEF3"/>
<path d="M236.761 41H238.531V0H236.761V41Z" fill="#E7EEF3"/>
<path d="M242.072 41H243.843V0H242.072V41Z" fill="#E7EEF3"/>
<path d="M249.151 41H250.921V0H249.151V41Z" fill="#E7EEF3"/>
<path d="M252.688 41H254.463V0H252.688V41Z" fill="#E7EEF3"/>
<path d="M256.229 41H258V0H256.229V41Z" fill="#E7EEF3"/>
<path d="M88.4982 41H90.2652V0H88.4982V41Z" fill="#E7EEF3"/>
<path d="M93.8062 41H95.5768V0H93.8062V41Z" fill="#E7EEF3"/>
<path d="M100.888 41H106.196V0H100.888V41Z" fill="#E7EEF3"/>
<path d="M107.967 41H109.737V0H107.967V41Z" fill="#E7EEF3"/>
<path d="M113.275 41H118.587V0H113.275V41Z" fill="#E7EEF3"/>
<path d="M122.128 41H123.895V0H122.128V41Z" fill="#E7EEF3"/>
<path d="M125.669 41H129.206V0H125.669V41Z" fill="#E7EEF3"/>
<path d="M132.747 41H136.285V0H132.747V41Z" fill="#E7EEF3"/>
<path d="M138.055 41H141.596V0H138.055V41Z" fill="#E7EEF3"/>
<path d="M143.367 41H146.908V0H143.367V41Z" fill="#E7EEF3"/>
<path d="M150.445 41H152.216V0H150.445V41Z" fill="#E7EEF3"/>
<path d="M155.757 41H157.524V0H155.757V41Z" fill="#E7EEF3"/>
<path d="M162.836 41H164.606V0H162.836V41Z" fill="#E7EEF3"/>
<path d="M166.377 41H168.144V0H166.377V41Z" fill="#E7EEF3"/>
<path d="M172.186 41H175.727V0H172.186V41Z" fill="#E7EEF3"/>
<path d="M177.498 41H181.039V0H177.498V41Z" fill="#E7EEF3"/>
<path d="M184.576 41H186.347V0H184.576V41Z" fill="#E7EEF3"/>
<path d="M189.888 41H191.655V0H189.888V41Z" fill="#E7EEF3"/>
<path d="M196.966 41H198.737V0H196.966V41Z" fill="#E7EEF3"/>
<path d="M200.507 41H202.274V0H200.507V41Z" fill="#E7EEF3"/>
</svg>
