<svg width="60" height="60" viewBox="0 0 60 60" fill="none" xmlns="http://www.w3.org/2000/svg">
<path d="M59 13H54V4C54 3.447 53.553 3 53 3H47V1C47 0.447 46.553 0 46 0H41C40.447 0 40 0.447 40 1V3H38V1C38 0.447 37.553 0 37 0H32C31.447 0 31 0.447 31 1V3H4C3.447 3 3 3.447 3 4V25C3 25.553 3.447 26 4 26H11V34H10.5C9.121 34 8 35.121 8 36.5C8 37.879 9.121 39 10.5 39H13V41C13 41.553 13.447 42 14 42C14.553 42 15 41.553 15 41V39H17.5C18.879 39 20 37.879 20 36.5C20 35.121 18.879 34 17.5 34H17V26H23C23.553 26 24 25.553 24 25V21H32V44H5.673C2.545 44 0 46.545 0 49.673V54.327C0 57.455 2.545 60 5.673 60H53C53.553 60 54 59.553 54 59V27H59C59.553 27 60 26.553 60 26V14C60 13.447 59.553 13 59 13ZM42 2H45V3H42V2ZM33 2H36V3H33V2ZM5 5H9V18H5V5ZM18 36.5C18 36.775 17.775 37 17.5 37H10.5C10.225 37 10 36.775 10 36.5C10 36.225 10.225 36 10.5 36H17.5C17.775 36 18 36.225 18 36.5ZM15 34H13V26H15V34ZM23 19C22.447 19 22 19.447 22 20V24H5V20H10C10.553 20 11 19.553 11 19V5H52V19H23ZM20 46V48H8V46H20ZM52 58H5.673C3.647 58 2 56.353 2 54.327V49.673C2 47.647 3.647 46 5.673 46H6V49C6 49.553 6.447 50 7 50H21C21.553 50 22 49.553 22 49V46H33C33.553 46 34 45.553 34 45V21H52V58ZM54 25V15H58V16H56C55.447 16 55 16.447 55 17C55 17.553 55.447 18 56 18H58V19H56C55.447 19 55 19.447 55 20C55 20.553 55.447 21 56 21H58V22H56C55.447 22 55 22.447 55 23C55 23.553 55.447 24 56 24H58V25H54Z" fill="#6E8A96"/>
<path d="M39 40H37C36.447 40 36 40.447 36 41C36 41.553 36.447 42 37 42H39C39.553 42 40 41.553 40 41C40 40.447 39.553 40 39 40Z" fill="#6E8A96"/>
<path d="M39 43H37C36.447 43 36 43.447 36 44C36 44.553 36.447 45 37 45H39C39.553 45 40 44.553 40 44C40 43.447 39.553 43 39 43Z" fill="#6E8A96"/>
<path d="M49 40H47C46.447 40 46 40.447 46 41C46 41.553 46.447 42 47 42H49C49.553 42 50 41.553 50 41C50 40.447 49.553 40 49 40Z" fill="#6E8A96"/>
<path d="M49 43H47C46.447 43 46 43.447 46 44C46 44.553 46.447 45 47 45H49C49.553 45 50 44.553 50 44C50 43.447 49.553 43 49 43Z" fill="#6E8A96"/>
<path d="M44 40H42C41.447 40 41 40.447 41 41C41 41.553 41.447 42 42 42H44C44.553 42 45 41.553 45 41C45 40.447 44.553 40 44 40Z" fill="#6E8A96"/>
<path d="M44 43H42C41.447 43 41 43.447 41 44C41 44.553 41.447 45 42 45H44C44.553 45 45 44.553 45 44C45 43.447 44.553 43 44 43Z" fill="#6E8A96"/>
<path d="M47.949 25.051C47.944 25.047 47.938 25.045 47.934 25.041C46.667 23.781 44.923 23 43 23C41.077 23 39.333 23.781 38.066 25.041C38.061 25.045 38.055 25.047 38.051 25.051C38.047 25.055 38.045 25.062 38.041 25.066C36.781 26.333 36 28.077 36 30C36 31.923 36.781 33.667 38.041 34.934C38.045 34.938 38.047 34.945 38.051 34.949C38.055 34.953 38.062 34.955 38.066 34.959C39.333 36.219 41.077 37 43 37C44.923 37 46.667 36.219 47.934 34.959C47.939 34.955 47.945 34.953 47.949 34.949C47.953 34.945 47.955 34.938 47.959 34.934C49.219 33.667 50 31.923 50 30C50 28.077 49.219 26.333 47.959 25.066C47.955 25.062 47.954 25.055 47.949 25.051ZM47 31H47.899C47.769 31.637 47.515 32.229 47.167 32.753L46.535 32.121C46.144 31.73 45.512 31.73 45.121 32.121C44.73 32.512 44.73 33.144 45.121 33.535L45.753 34.167C45.229 34.515 44.637 34.769 44 34.899V34C44 33.447 43.553 33 43 33C42.447 33 42 33.447 42 34V34.899C41.363 34.769 40.771 34.515 40.247 34.167L40.879 33.535C41.27 33.144 41.27 32.512 40.879 32.121C40.488 31.73 39.856 31.73 39.465 32.121L38.833 32.753C38.485 32.229 38.231 31.637 38.101 31H39C39.553 31 40 30.553 40 30C40 29.447 39.553 29 39 29H38.101C38.231 28.363 38.485 27.771 38.833 27.247L39.465 27.879C39.66 28.074 39.916 28.172 40.172 28.172C40.428 28.172 40.684 28.074 40.879 27.879C41.27 27.488 41.27 26.856 40.879 26.465L40.247 25.833C40.771 25.485 41.363 25.231 42 25.101V26C42 26.553 42.447 27 43 27C43.553 27 44 26.553 44 26V25.101C44.637 25.231 45.229 25.485 45.753 25.833L45.121 26.465C44.73 26.856 44.73 27.488 45.121 27.879C45.316 28.074 45.572 28.172 45.828 28.172C46.084 28.172 46.34 28.074 46.535 27.879L47.167 27.247C47.515 27.771 47.769 28.363 47.899 29H47C46.447 29 46 29.447 46 30C46 30.553 46.447 31 47 31Z" fill="#D4AE4A"/>
</svg>
