<svg width="60" height="74" viewBox="0 0 60 74" fill="none" xmlns="http://www.w3.org/2000/svg">
<path d="M59 49H55V30C55 29.4 54.6 29 54 29H34V21C34 20.4 33.6 20 33 20H30V18H28V20H5V18H3V20H1C0.4 20 0 20.4 0 21V73C0 73.6 0.4 74 1 74H59C59.6 74 60 73.6 60 73V50C60 49.4 59.6 49 59 49ZM53 31V33H37V35H53V49H34V31H53ZM2 27H28V25H2V22H32V72H24V66H26C26.6 66 27 65.6 27 65V59C27 57.3 25.7 56 24 56H10C8.3 56 7 57.3 7 59V65C7 65.6 7.4 66 8 66H10V72H2V27ZM14 62V58H16V62H18V58H20V62H22V58H24C24.6 58 25 58.4 25 59V64H9V59C9 58.4 9.4 58 10 58H12V62H14ZM16 66V72H12V66H16ZM18 66H22V72H18V66ZM58 72H52V67C53.7 67 55 65.7 55 64V56C55 54.3 53.7 53 52 53H50C48.3 53 47 54.3 47 56V64C47 65.7 48.3 67 50 67V72H42V67C43.7 67 45 65.7 45 64V56C45 54.3 43.7 53 42 53H40C38.3 53 37 54.3 37 56V64C37 65.7 38.3 67 40 67V72H34V51H58V72ZM50 65C49.4 65 49 64.6 49 64V56C49 55.4 49.4 55 50 55H52C52.6 55 53 55.4 53 56V64C53 64.6 52.6 65 52 65H50ZM40 65C39.4 65 39 64.6 39 64V56C39 55.4 39.4 55 40 55H42C42.6 55 43 55.4 43 56V64C43 64.6 42.6 65 42 65H40Z" fill="#6E8A96"/>
<path d="M5 36H10C10.6 36 11 35.6 11 35V30C11 29.4 10.6 29 10 29H5C4.4 29 4 29.4 4 30V35C4 35.6 4.4 36 5 36ZM6 31H9V34H6V31Z" fill="#6E8A96"/>
<path d="M14 36H19C19.6 36 20 35.6 20 35V30C20 29.4 19.6 29 19 29H14C13.4 29 13 29.4 13 30V35C13 35.6 13.4 36 14 36ZM15 31H18V34H15V31Z" fill="#6E8A96"/>
<path d="M23 36H29C29.6 36 30 35.6 30 35V30C30 29.4 29.6 29 29 29H23C22.4 29 22 29.4 22 30V35C22 35.6 22.4 36 23 36ZM24 31H28V34H24V31Z" fill="#6E8A96"/>
<path d="M5 45H10C10.6 45 11 44.6 11 44V39C11 38.4 10.6 38 10 38H5C4.4 38 4 38.4 4 39V44C4 44.6 4.4 45 5 45ZM6 40H9V43H6V40Z" fill="#6E8A96"/>
<path d="M14 45H19C19.6 45 20 44.6 20 44V39C20 38.4 19.6 38 19 38H14C13.4 38 13 38.4 13 39V44C13 44.6 13.4 45 14 45ZM15 40H18V43H15V40Z" fill="#6E8A96"/>
<path d="M23 45H29C29.6 45 30 44.6 30 44V39C30 38.4 29.6 38 29 38H23C22.4 38 22 38.4 22 39V44C22 44.6 22.4 45 23 45ZM24 40H28V43H24V40Z" fill="#6E8A96"/>
<path d="M11 53V48C11 47.4 10.6 47 10 47H5C4.4 47 4 47.4 4 48V53C4 53.6 4.4 54 5 54H10C10.6 54 11 53.6 11 53ZM9 52H6V49H9V52Z" fill="#6E8A96"/>
<path d="M14 54H19C19.6 54 20 53.6 20 53V48C20 47.4 19.6 47 19 47H14C13.4 47 13 47.4 13 48V53C13 53.6 13.4 54 14 54ZM15 49H18V52H15V49Z" fill="#6E8A96"/>
<path d="M23 54H29C29.6 54 30 53.6 30 53V48C30 47.4 29.6 47 29 47H23C22.4 47 22 47.4 22 48V53C22 53.6 22.4 54 23 54ZM24 49H28V52H24V49Z" fill="#6E8A96"/>
<path d="M39 37H36V39H39V37Z" fill="#6E8A96"/>
<path d="M45 37H42V39H45V37Z" fill="#6E8A96"/>
<path d="M51 37H48V39H51V37Z" fill="#6E8A96"/>
<path d="M39 41H36V43H39V41Z" fill="#6E8A96"/>
<path d="M45 41H42V43H45V41Z" fill="#6E8A96"/>
<path d="M51 41H48V43H51V41Z" fill="#6E8A96"/>
<path d="M39 45H36V47H39V45Z" fill="#6E8A96"/>
<path d="M45 45H42V47H45V45Z" fill="#6E8A96"/>
<path d="M51 45H48V47H51V45Z" fill="#6E8A96"/>
<path d="M12.3032 8.077L11.8312 10.831C11.7672 11.206 11.9202 11.585 12.2292 11.808C12.5382 12.033 12.9462 12.062 13.2822 11.884L15.7562 10.584L18.2302 11.884C18.3752 11.962 18.5352 12 18.6942 12C18.9012 12 19.1082 11.936 19.2822 11.809C19.5902 11.585 19.7442 11.207 19.6802 10.832L19.2082 8.078L21.2092 6.127C21.4822 5.861 21.5802 5.464 21.4622 5.103C21.3442 4.741 21.0312 4.477 20.6552 4.422L17.8892 4.02L16.6532 1.514C16.3162 0.83 15.1962 0.83 14.8592 1.514L13.6232 4.02L10.8562 4.421C10.4792 4.476 10.1662 4.739 10.0492 5.102C9.93122 5.463 10.0292 5.86 10.3022 6.126L12.3032 8.077ZM14.4302 5.922C14.7562 5.875 15.0372 5.67 15.1832 5.375L15.7552 4.215L16.3272 5.375C16.4732 5.67 16.7542 5.875 17.0802 5.922L18.3612 6.109L17.4352 7.012C17.1992 7.241 17.0912 7.573 17.1472 7.897L17.3662 9.172L16.2212 8.57C16.0752 8.493 15.9152 8.455 15.7562 8.455C15.5962 8.455 15.4362 8.493 15.2912 8.57L14.1442 9.172L14.3632 7.897C14.4192 7.573 14.3112 7.242 14.0752 7.012L13.1492 6.109L14.4302 5.922Z" fill="#D4AE4A"/>
<path d="M26.5652 7.654L26.0362 10.735C25.9722 11.11 26.1262 11.489 26.4342 11.712C26.7422 11.937 27.1502 11.966 27.4872 11.788L30.2552 10.334L33.0232 11.788C33.1692 11.865 33.3292 11.903 33.4882 11.903C33.6952 11.903 33.9022 11.839 34.0762 11.712C34.3842 11.488 34.5382 11.11 34.4742 10.735L33.9452 7.654L36.1842 5.472C36.4572 5.206 36.5552 4.809 36.4372 4.448C36.3192 4.086 36.0062 3.822 35.6302 3.767L32.5352 3.317L31.1522 0.513C30.8152 -0.171 29.6952 -0.171 29.3582 0.513L27.9752 3.317L24.8802 3.767C24.5032 3.822 24.1902 4.085 24.0732 4.448C23.9552 4.809 24.0532 5.207 24.3262 5.472L26.5652 7.654ZM28.7832 5.22C29.1092 5.173 29.3902 4.968 29.5362 4.673L30.2552 3.215L30.9742 4.673C31.1202 4.968 31.4012 5.173 31.7272 5.22L33.3362 5.454L32.1722 6.589C31.9362 6.818 31.8282 7.15 31.8842 7.474L32.1592 9.076L30.7192 8.32C30.5742 8.243 30.4142 8.205 30.2542 8.205C30.0942 8.205 29.9342 8.243 29.7892 8.32L28.3492 9.076L28.6242 7.474C28.6802 7.15 28.5722 6.819 28.3362 6.589L27.1742 5.454L28.7832 5.22Z" fill="#D4AE4A"/>
<path d="M41.3032 8.077L40.8312 10.831C40.7672 11.206 40.9202 11.585 41.2282 11.808C41.5382 12.033 41.9452 12.062 42.2812 11.884L44.7552 10.584L47.2292 11.884C47.3752 11.962 47.5352 12 47.6942 12C47.9012 12 48.1082 11.936 48.2822 11.809C48.5902 11.585 48.7442 11.207 48.6792 10.832L48.2072 8.078L50.2082 6.127C50.4812 5.861 50.5792 5.464 50.4612 5.103C50.3432 4.741 50.0302 4.477 49.6542 4.422L46.8882 4.02L45.6522 1.514C45.3152 0.83 44.1952 0.83 43.8582 1.514L42.6222 4.02L39.8562 4.422C39.4802 4.477 39.1662 4.74 39.0492 5.103C38.9312 5.464 39.0292 5.862 39.3022 6.127L41.3032 8.077ZM43.4302 5.922C43.7562 5.875 44.0372 5.67 44.1832 5.375L44.7552 4.215L45.3272 5.375C45.4732 5.67 45.7542 5.875 46.0802 5.922L47.3612 6.109L46.4352 7.012C46.1992 7.241 46.0912 7.573 46.1472 7.897L46.3662 9.172L45.2212 8.57C45.0752 8.493 44.9152 8.455 44.7562 8.455C44.5972 8.455 44.4362 8.493 44.2912 8.57L43.1442 9.172L43.3632 7.897C43.4192 7.573 43.3112 7.242 43.0752 7.012L42.1492 6.109L43.4302 5.922Z" fill="#D4AE4A"/>
</svg>
