<svg width="56" height="56" viewBox="0 0 56 56" fill="none" xmlns="http://www.w3.org/2000/svg">
<path d="M41.8998 35.9932C49.6746 35.9932 56 29.7014 56 21.9676C56 14.2338 49.6747 7.94192 41.8998 7.94192C40.4962 7.94192 39.1193 8.14481 37.7936 8.546C36.1103 3.58323 31.3862 0 25.8366 0C18.8807 0 13.2217 5.62919 13.2217 12.5485C13.2217 17.4362 14.5698 20.1166 15.9973 22.9547C17.7251 26.3903 19.6765 30.2698 19.8331 39.2998H12.3836C7.9845 39.2998 4.35455 42.5139 3.77674 46.7587H3.11723C1.39841 46.7587 0 48.1497 0 49.8594V52.8992C0 54.609 1.39841 56 3.11723 56H48.5556C50.2744 56 51.6728 54.609 51.6728 52.8992V49.8594C51.6728 48.1497 50.2744 46.7587 48.5556 46.7587H47.8963C47.3178 42.5146 43.6867 39.2998 39.2898 39.2998H31.84C31.8876 36.5511 32.1017 34.28 32.425 32.3531C35.0057 34.6834 38.3728 35.9932 41.8998 35.9932ZM41.8998 9.71751C48.6905 9.71751 54.2151 15.2129 54.2151 21.9677C54.2151 28.7223 48.6905 34.2178 41.8998 34.2178C38.4504 34.2178 35.1757 32.7835 32.8447 30.269C33.0717 29.313 33.3272 28.4519 33.6003 27.6611C35.4579 30.3426 38.5395 31.9953 41.8998 31.9953C47.4585 31.9953 51.9807 27.4969 51.9807 21.9678C51.9807 16.4385 47.4584 11.9402 41.8998 11.9402C40.7216 11.9402 39.5517 12.1475 38.4515 12.5447C38.4513 11.768 38.3792 11.0077 38.2425 10.2696C39.4219 9.90476 40.6482 9.71751 41.8998 9.71751ZM38.3732 14.4968C39.47 13.985 40.6792 13.7156 41.8998 13.7156C46.4743 13.7156 50.1958 17.4175 50.1958 21.9677C50.1958 26.5179 46.4743 30.2197 41.8998 30.2197C38.7009 30.2197 35.8085 28.4007 34.4277 25.5553C34.8381 24.6205 35.2632 23.7748 35.6758 22.9546C36.9011 20.5184 38.0674 18.1967 38.3732 14.4968ZM17.5936 22.1602C16.2054 19.4002 15.0066 17.0167 15.0066 12.5484C15.0066 6.6081 19.8648 1.77537 25.8366 1.77537C31.8083 1.77537 36.6668 6.6081 36.6668 12.5484C36.6668 17.0166 35.468 19.4002 34.0798 22.1602C33.6594 22.996 33.2262 23.8575 32.8071 24.8043H18.8663C18.4469 23.8575 18.014 22.9962 17.5936 22.1602ZM48.5558 48.5341C49.2905 48.5341 49.8881 49.1285 49.8881 49.8593V52.8991C49.8881 53.6298 49.2904 54.2244 48.5558 54.2244H3.11723C2.38262 54.2244 1.7849 53.6298 1.7849 52.8991V49.8593C1.7849 49.1284 2.38262 48.5341 3.11723 48.5341H48.5558ZM39.2898 41.0752C42.6991 41.0752 45.5277 43.5078 46.0893 46.7586H5.58385C6.14506 43.5073 8.97255 41.0752 12.3836 41.0752H39.2898ZM30.0549 39.2997H21.6183C21.5181 33.3258 20.6622 29.4986 19.5873 26.5797H32.0859C31.011 29.4987 30.1551 33.326 30.0549 39.2997Z" fill="#6E8A96"/>
<path d="M39.8179 25.6033C39.9792 25.7589 40.1979 25.8462 40.4261 25.8462C40.6542 25.8462 40.8729 25.7589 41.0344 25.6033L47.1327 19.7232C47.4686 19.3994 47.4686 18.8744 47.1326 18.5506C46.7968 18.2268 46.2523 18.2267 45.9163 18.5507L40.4261 23.8443L38.0836 21.5855C37.7477 21.2616 37.2032 21.2615 36.8674 21.5854C36.5314 21.9092 36.5314 22.4342 36.8673 22.758L39.8179 25.6033Z" fill="#D4AE4A"/>
<path d="M3.23071 50.6154H47.3846V52.7692H3.23071V50.6154Z" fill="#D4AE4A"/>
</svg>
