<svg width="49" height="63" viewBox="0 0 49 63" fill="none" xmlns="http://www.w3.org/2000/svg">
<path d="M44.1 4.20003H34.2999C34.299 4.20003 34.2983 4.20015 34.2974 4.20015C33.4026 3.0108 31.9797 2.24003 30.38 2.24003H27.8822C27.1908 1.04467 25.9064 0.280029 24.5 0.280029C23.0936 0.280029 21.8092 1.04467 21.1178 2.24003H18.62C17.0203 2.24003 15.5974 3.0108 14.7026 4.20015C14.7017 4.20015 14.7009 4.20003 14.7 4.20003H4.9C2.19814 4.20003 0 6.39817 0 9.10003V58.1C0 60.8019 2.19814 63 4.9 63H44.1C46.8019 63 49 60.8019 49 58.1V9.10003C49 6.39817 46.8019 4.20003 44.1 4.20003ZM15.68 7.14003C15.68 5.51899 16.999 4.20003 18.62 4.20003H21.7401C22.1547 4.20003 22.5246 3.93898 22.6635 3.54833C22.9416 2.7658 23.6796 2.24003 24.5 2.24003C25.3204 2.24003 26.0584 2.7658 26.3365 3.54833C26.4754 3.93898 26.8453 4.20003 27.2599 4.20003H30.38C32.001 4.20003 33.32 5.51899 33.32 7.14003V10.08H15.68V7.14003ZM47.04 58.1C47.04 59.7211 45.721 61.04 44.1 61.04H4.9C3.27896 61.04 1.96 59.7211 1.96 58.1V9.10003C1.96 7.47899 3.27896 6.16003 4.9 6.16003H13.8186C13.7541 6.47681 13.72 6.8045 13.72 7.14003V11.06C13.72 11.6012 14.1588 12.04 14.7 12.04H34.3C34.8412 12.04 35.28 11.6012 35.28 11.06V7.14003C35.28 6.8045 35.2459 6.47681 35.1814 6.16003H44.1C45.721 6.16003 47.04 7.47899 47.04 9.10003V58.1Z" fill="#6E8A96"/>
<path d="M44.1 8.12H38.22C37.6788 8.12 37.24 8.55879 37.24 9.1C37.24 9.6412 37.6788 10.08 38.22 10.08H43.12V44.38H33.32C31.699 44.38 30.38 45.699 30.38 47.32V53.1999C30.38 53.7411 30.8188 54.1799 31.36 54.1799C31.9012 54.1799 32.34 53.7411 32.34 53.1999V47.32C32.34 46.7796 32.7797 46.34 33.32 46.34H41.7341L30.9541 57.12H5.88004V10.08H10.78C11.3212 10.08 11.76 9.6412 11.76 9.1C11.76 8.55879 11.3212 8.12 10.78 8.12H4.90004C4.35884 8.12 3.92004 8.55879 3.92004 9.1V58.1C3.92004 58.6412 4.35884 59.08 4.90004 59.08H31.3602C31.3613 59.08 31.3622 59.0799 31.3632 59.0799C31.3943 59.0797 31.4255 59.0783 31.4566 59.0752C31.4724 59.0736 31.4878 59.0708 31.5034 59.0685C31.5193 59.0662 31.5353 59.0643 31.5511 59.0612C31.5693 59.0577 31.5868 59.0528 31.6046 59.0481C31.6177 59.0448 31.6309 59.042 31.6438 59.0381C31.6616 59.0327 31.6788 59.0261 31.6962 59.0197C31.7088 59.0151 31.7215 59.011 31.734 59.0059C31.7509 58.9989 31.7671 58.9908 31.7834 58.983C31.7959 58.977 31.8085 58.9716 31.8208 58.965C31.8377 58.956 31.8537 58.9459 31.8699 58.9359C31.8809 58.9292 31.8921 58.9231 31.9028 58.916C31.9224 58.9029 31.9412 58.8885 31.9597 58.8742C31.9663 58.869 31.9733 58.8645 31.9799 58.8591C32.0062 58.8377 32.0313 58.8149 32.0552 58.7908L44.7928 46.0532C44.7943 46.0518 44.7953 46.05 44.7968 46.0484C44.8256 46.0193 44.8518 45.9879 44.8768 45.9555C44.8836 45.9466 44.8903 45.9378 44.8967 45.9289C44.921 45.8947 44.9438 45.8594 44.9638 45.8222C44.9659 45.8184 44.9675 45.8143 44.9694 45.8104C44.9874 45.7758 45.003 45.7397 45.0168 45.7029C45.02 45.6943 45.0233 45.6858 45.0263 45.6771C45.0401 45.6367 45.052 45.5954 45.0606 45.5528C45.0611 45.5505 45.0612 45.548 45.0617 45.5457C45.069 45.5071 45.0737 45.4677 45.0764 45.4276C45.0772 45.4159 45.0777 45.4042 45.0782 45.3925C45.0786 45.3816 45.0798 45.371 45.0798 45.36V9.1C45.08 8.55879 44.6412 8.12 44.1 8.12Z" fill="#6E8A96"/>
<path d="M24.5 4.20007C24.2415 4.20007 23.9892 4.3042 23.8067 4.48672C23.6241 4.66925 23.52 4.9216 23.52 5.18007C23.52 5.43855 23.6241 5.6909 23.8067 5.87342C23.9892 6.05595 24.2415 6.16007 24.5 6.16007C24.7573 6.16007 25.0108 6.05595 25.1934 5.87342C25.3759 5.6909 25.48 5.43855 25.48 5.18007C25.48 4.9216 25.3759 4.66925 25.1934 4.48672C25.0108 4.3042 24.7573 4.20007 24.5 4.20007Z" fill="#6E8A96"/>
<path d="M28.42 18.9001H38.22C38.7613 18.9001 39.2001 18.4613 39.2001 17.9201C39.2001 17.3789 38.7613 16.9401 38.22 16.9401H28.42C27.8788 16.9401 27.44 17.3789 27.44 17.9201C27.44 18.4613 27.8788 18.9001 28.42 18.9001Z" fill="#6E8A96"/>
<path d="M20.58 22.8201H38.22C38.7613 22.8201 39.2001 22.3813 39.2001 21.8401C39.2001 21.2989 38.7613 20.8601 38.22 20.8601H20.58C20.0388 20.8601 19.6 21.2989 19.6 21.8401C19.6 22.3813 20.0388 22.8201 20.58 22.8201Z" fill="#6E8A96"/>
<path d="M38.22 28.7001H10.78C10.2388 28.7001 9.80005 29.1389 9.80005 29.6801C9.80005 30.2213 10.2388 30.6601 10.78 30.6601H38.22C38.7613 30.6601 39.2 30.2213 39.2 29.6801C39.2 29.1389 38.7613 28.7001 38.22 28.7001Z" fill="#6E8A96"/>
<path d="M38.22 32.6201H10.78C10.2388 32.6201 9.80005 33.0589 9.80005 33.6001C9.80005 34.1413 10.2388 34.5801 10.78 34.5801H38.22C38.7613 34.5801 39.2 34.1413 39.2 33.6001C39.2 33.0589 38.7613 32.6201 38.22 32.6201Z" fill="#6E8A96"/>
<path d="M38.22 36.5401H10.78C10.2388 36.5401 9.80005 36.9789 9.80005 37.5201C9.80005 38.0613 10.2388 38.5001 10.78 38.5001H38.22C38.7613 38.5001 39.2 38.0613 39.2 37.5201C39.2 36.9789 38.7613 36.5401 38.22 36.5401Z" fill="#6E8A96"/>
<path d="M37.82 41H29.98C29.4388 41 29 41.4388 29 41.98C29 42.5212 29.4388 42.96 29.98 42.96H37.82C38.3613 42.96 38.8 42.5212 38.8 41.98C38.8 41.4388 38.3613 41 37.82 41Z" fill="#6E8A96"/>
<path d="M9.80005 17.9201C9.80005 18.4613 10.2388 18.9001 10.78 18.9001H15.68C16.2213 18.9001 16.66 18.4613 16.66 17.9201C16.66 17.3789 16.2213 16.9401 15.68 16.9401H10.78C10.2388 16.9401 9.80005 17.3789 9.80005 17.9201Z" fill="#6E8A96"/>
<path d="M13.1607 48.3833L12.2407 48.7752C12.2539 48.8063 12.2687 48.8367 12.2851 48.8663L13.1607 48.3833ZM12.7581 47.4379L13.6781 47.0461C13.5109 46.6535 13.1131 46.4103 12.6874 46.4404C12.2618 46.4706 11.9022 46.7675 11.792 47.1797L12.7581 47.4379ZM11 54.0144L10.0339 53.7562C9.93815 54.1144 10.0485 54.4963 10.3206 54.7482C10.5928 55.0002 10.982 55.0808 11.3318 54.9578L11 54.0144ZM13.2787 53.2129L14.0692 52.6004C13.8054 52.2599 13.3532 52.1266 12.9469 52.2695L13.2787 53.2129ZM14.6626 54.9989L13.8722 55.6114C14.1049 55.9118 14.4878 56.0543 14.8603 55.9792C15.2328 55.9041 15.5306 55.6244 15.6287 55.2572L14.6626 54.9989ZM15.8241 50.6548L16.7902 50.9131C16.9244 50.4112 16.652 49.8902 16.1632 49.7141L15.8241 50.6548ZM22.1987 47.5723L23.1618 47.303C23.0481 46.8965 22.6914 46.6051 22.2704 46.5748C21.8493 46.5446 21.4546 46.782 21.284 47.1681L22.1987 47.5723ZM21.8404 48.3833L22.716 48.8663C22.7302 48.8406 22.7432 48.8143 22.7551 48.7875L21.8404 48.3833ZM19.1759 50.6559L18.8368 49.7151C18.348 49.8913 18.0756 50.4123 18.2098 50.9142L19.1759 50.6559ZM20.3374 55L19.3713 55.2583C19.4672 55.6169 19.7538 55.8929 20.1158 55.9752C20.4778 56.0574 20.8556 55.9323 21.097 55.6503L20.3374 55ZM21.9099 53.1632L22.2875 52.2372C21.8886 52.0745 21.4304 52.1856 21.1503 52.5128L21.9099 53.1632ZM24 54.0155L23.6224 54.9415C23.9758 55.0856 24.3805 55.0159 24.6654 54.7619C24.9504 54.5079 25.0658 54.1139 24.9631 53.7462L24 54.0155ZM21.4601 45.9765C21.4601 48.1758 19.684 49.953 17.5 49.953V51.953C20.7948 51.953 23.4601 49.2741 23.4601 45.9765H21.4601ZM17.5 49.953C15.316 49.953 13.5399 48.1758 13.5399 45.9765H11.5399C11.5399 49.2741 14.2052 51.953 17.5 51.953V49.953ZM13.5399 45.9765C13.5399 43.7772 15.316 42 17.5 42V40C14.2052 40 11.5399 42.6789 11.5399 45.9765H13.5399ZM17.5 42C19.684 42 21.4601 43.7772 21.4601 45.9765H23.4601C23.4601 42.6789 20.7948 40 17.5 40V42ZM14.0807 47.9915L13.6781 47.0461L11.838 47.8298L12.2407 48.7752L14.0807 47.9915ZM11.792 47.1797L10.0339 53.7562L11.9661 54.2727L13.7241 47.6962L11.792 47.1797ZM11.3318 54.9578L13.6106 54.1562L12.9469 52.2695L10.6682 53.0711L11.3318 54.9578ZM12.4883 53.8253L13.8722 55.6114L15.4531 54.3865L14.0692 52.6004L12.4883 53.8253ZM15.6287 55.2572L16.7902 50.9131L14.8581 50.3965L13.6966 54.7406L15.6287 55.2572ZM16.1632 49.7141C15.2542 49.3864 14.4981 48.7374 14.0363 47.9003L12.2851 48.8663C12.9806 50.1273 14.1174 51.1026 15.4851 51.5956L16.1632 49.7141ZM21.284 47.1681L20.9257 47.9792L22.7551 48.7875L23.1134 47.9764L21.284 47.1681ZM20.9647 47.9003C20.503 48.7375 19.7457 49.3875 18.8368 49.7151L19.5149 51.5966C20.8826 51.1036 22.0205 50.1272 22.716 48.8663L20.9647 47.9003ZM18.2098 50.9142L19.3713 55.2583L21.3034 54.7417L20.1419 50.3976L18.2098 50.9142ZM21.097 55.6503L22.6696 53.8135L21.1503 52.5128L19.5777 54.3497L21.097 55.6503ZM21.5323 54.0891L23.6224 54.9415L24.3776 53.0895L22.2875 52.2372L21.5323 54.0891ZM24.9631 53.7462L23.1618 47.303L21.2356 47.8415L23.0369 54.2847L24.9631 53.7462Z" fill="#D4AE4A"/>
</svg>
