<svg width="56" height="56" viewBox="0 0 56 56" fill="none" xmlns="http://www.w3.org/2000/svg">
<path d="M52.2667 0H3.8267C1.68 0 0 1.68 0 3.8267V55.0667C0 55.6267 0.373297 56 0.933297 56H5.6H24.2667H35.4667H46.6667H50.4H55.0667C55.6267 56 56 55.6267 56 55.0667V3.8267C56 1.68 54.32 0 52.2667 0ZM49.4667 30.8H6.5333V28.9333H49.4666V30.8H49.4667ZM49.4667 27.0667H6.5333V25.2H49.4666V27.0667H49.4667ZM6.5333 32.6667H49.4666V34.5334H6.5333V32.6667ZM50.4 19.6H5.6V15.8667H50.4V19.6ZM49.4667 21.4667V23.3334H6.5333V21.4667H49.4667ZM10.2667 52.2667C10.2667 51.24 11.1067 50.4 12.1334 50.4C13.1601 50.4 14 51.24 14 52.2667C14 53.2934 13.16 54.1334 12.1333 54.1334C11.1066 54.1334 10.2667 53.2933 10.2667 52.2667ZM17.7333 54.1333C16.7066 54.1333 15.8666 53.2933 15.8666 52.2666C15.8666 51.2399 16.7066 50.3999 17.7333 50.3999C18.76 50.3999 19.6 51.2399 19.6 52.2666C19.6 53.2933 18.76 54.1333 17.7333 54.1333ZM34.5333 41.0667H36.4V42.9334H34.5333V41.0667ZM33.6 44.8H37.3333C37.8933 44.8 38.2666 44.4267 38.2666 43.8667V41.0667H40.1333V46.6667H39.2H35.4667H31.7334H30.8V41.0667H32.6667V43.8667C32.6667 44.4267 33.04 44.8 33.6 44.8ZM40.1333 48.5333H41.0666H42V50.4H40.1333V48.5333ZM29.8667 48.5333H30.8V50.4H28.9333V48.5333H29.8667ZM28 52.2667H31.7333C32.2933 52.2667 32.6666 51.8934 32.6666 51.3334V48.5334H34.5333V54.1334H25.2V48.5334H27.0667V51.3334C27.0667 51.8933 27.44 52.2667 28 52.2667ZM36.4 54.1333V48.5333H38.2667V51.3333C38.2667 51.8933 38.64 52.2666 39.2 52.2666H42.9333C43.4933 52.2666 43.8666 51.8933 43.8666 51.3333V48.5333H45.7333V54.1333H36.4ZM47.6 54.1333V47.6C47.6 47.04 47.2267 46.6667 46.6667 46.6667H42.9334H42V40.1334C42 39.5734 41.6267 39.2001 41.0667 39.2001H37.3334H33.6H29.8667C29.3067 39.2001 28.9334 39.5734 28.9334 40.1334V46.6667H28H24.2667C23.7067 46.6667 23.3334 47.04 23.3334 47.6V54.1333H20.9619C21.2821 53.5833 21.4667 52.9456 21.4667 52.2666C21.4667 50.2133 19.7867 48.5333 17.7334 48.5333C16.6211 48.5333 15.6189 49.027 14.9334 49.8053C14.248 49.0269 13.2457 48.5333 12.1334 48.5333C10.0801 48.5333 8.40011 50.2133 8.40011 52.2666C8.40011 52.9456 8.58473 53.5831 8.90487 54.1333H6.5333V36.4H49.4666V54.1333H47.6ZM54.1333 54.1333H51.3333V35.4667V21.4667C51.8933 21.4667 52.2666 21.0934 52.2666 20.5334V14.9334C52.2666 14.3734 51.8933 14.0001 51.3333 14.0001H4.6667C4.1067 14.0001 3.73341 14.3734 3.73341 14.9334V20.5334C3.73341 21.0934 4.1067 21.4667 4.6667 21.4667V35.4667V54.1334H1.8667V3.8267C1.8667 2.7067 2.7067 1.8667 3.8267 1.8667H52.1734C53.2934 1.8667 54.1334 2.7067 54.1334 3.8267V54.1333H54.1333Z" fill="#6E8A96"/>
<path d="M41.0667 3.73328H14.9333C14.3733 3.73328 14 4.10657 14 4.66657V11.2C14 11.76 14.3733 12.1333 14.9333 12.1333H41.0666C41.6266 12.1333 41.9999 11.76 41.9999 11.2V4.66668C42 4.10668 41.6267 3.73328 41.0667 3.73328ZM40.1333 10.2667H15.8667V5.59998H40.1334V10.2667H40.1333Z" fill="#D4AE4A"/>
</svg>
