<?xml version="1.0" encoding="utf-8"?>
<!-- Generator: Adobe Illustrator 25.1.0, SVG Export Plug-In . SVG Version: 6.00 Build 0)  -->
<svg version="1.1" id="Слой_1" xmlns="http://www.w3.org/2000/svg" xmlns:xlink="http://www.w3.org/1999/xlink" x="0px" y="0px"
	 viewBox="0 0 347 32" style="enable-background:new 0 0 347 32;" xml:space="preserve">
<style type="text/css">
	.st0{fill-rule:evenodd;clip-rule:evenodd;fill:#FFFFFF;}
</style>
<g>
	<path class="st0" d="M327,0.8H20l0,0h0L24.8,8l4.8-7.1L34.4,8l4.8-7.1L44,8l4.8-7.1L53.6,8l4.8-7.1L63.2,8L68,0.9L72.8,8l4.8-7.1
		L82.4,8l4.8-7.1L92,8l4.8-7.1l4.8,7.1l4.8-7.1l4.8,7.1l4.8-7.1l4.8,7.1l4.8-7.1l4.8,7.1l4.8-7.1l4.8,7.1l4.8-7.1l4.8,7.1l4.8-7.1
		l4.8,7.1l4.8-7.1l4.8,7.1l4.8-7.1l4.8,7.1l4.8-7.1l4.8,7.1l4.8-7.1l4.8,7.1l4.8-7.1l4.8,7.1l4.8-7.1l4.8,7.1l4.8-7.1l4.8,7.1
		l4.8-7.1l4.8,7.1l4.8-7.1l4.8,7.1l4.8-7.1L255,8l4.8-7.1l4.8,7.1l4.8-7.1l4.8,7.1l4.8-7.1l4.8,7.1l4.8-7.1l4.8,7.1l4.8-7.1L303,8
		l4.8-7.1l4.8,7.1l4.8-7.1l4.8,7.1L327,0.8L327,0.8L327,0.8z"/>
</g>
</svg>
