<svg width="187" height="121" viewBox="0 0 187 121" fill="none" xmlns="http://www.w3.org/2000/svg">
<path fill-rule="evenodd" clip-rule="evenodd" d="M24.8329 120.75V120.218H23.9623V111.503H24.8329V110.969H20.809V111.529H21.6911V115.392H17.9521V111.503H18.8353V110.969H14.8103V111.503H15.6798V120.218H14.8103V120.75H18.8091V120.218H17.9521V115.939H21.6911V120.218H20.809V120.75H24.8329ZM36.4605 115.939C36.5768 112.919 34.799 110.721 31.6697 110.721C29.4487 110.721 26.8925 111.918 26.749 115.885C26.6715 117.81 27.9946 120.998 31.6697 120.998C35.3825 120.999 36.383 117.721 36.4605 115.939ZM34.0719 115.964C34.0719 118.697 33.4098 120.505 31.6708 120.505C29.8269 120.505 29.191 118.164 29.191 115.964C29.191 113.688 29.6708 110.997 31.6708 110.997C33.6047 110.996 34.0719 113.805 34.0719 115.964ZM46.9766 114.688V110.969H38.3431V114.688H38.6039C38.6039 111.776 40.5117 111.503 41.1748 111.503H41.3948V120.218H40.5117V120.751H44.5366V120.218H43.6671V111.503H43.9269C44.4727 111.503 46.7188 111.776 46.7188 114.688H46.9766ZM57.7325 117.304H57.4214C57.4214 119.215 55.8761 120.217 54.7992 120.217H51.9947V115.977H53.1502C54.1496 116.029 54.7992 116.42 54.7992 118.083H55.0977V113.532H54.7992C54.7992 114.493 54.1235 115.521 53.1502 115.521H51.9947V111.503H54.1496C56.4356 111.503 56.8766 112.075 57.2663 114.52H57.5125V110.969H48.8528V111.503H49.7234V120.218H48.8528V120.751H57.7325V117.304ZM67.4377 120.75V116.861H67.1517C66.8793 118.358 66.3859 120.217 63.8548 120.217H62.7517V111.502H63.6338V110.968H59.6088V111.502H60.4794V120.217H59.6088V120.75H67.4377ZM77.6814 117.616C77.6814 115.665 76.3048 114.35 74.1635 114.272C72.1374 114.194 70.5932 114.194 70.5932 112.751C70.5932 111.412 71.9425 111.164 72.9943 111.164C75.7464 111.164 76.5521 113.712 76.6683 114.169H77.0444V110.968H76.6683C76.6547 111.268 76.6683 111.682 76.3048 111.682C75.825 111.682 74.9157 110.721 72.8644 110.721C70.8645 110.721 69.423 112.074 69.423 113.934C69.423 115.586 70.7859 117.005 72.7733 117.029C74.6684 117.055 76.3823 117.16 76.3823 118.696C76.3823 120.088 74.8895 120.451 73.5255 120.477C71.1631 120.504 70.1113 118.915 69.6702 117.225H69.3067V120.749H69.6702C69.6702 120.749 69.7477 120.033 70.1762 120.033C70.9682 120.033 71.3055 120.997 73.5779 120.997C76.2661 120.999 77.6814 119.424 77.6814 117.616ZM92.5367 118.11H92.1868C92.1868 118.577 92.1606 119.386 91.5373 119.386C90.9014 119.386 90.2393 118.409 90.2393 118.409C90.409 118.11 90.9014 117.161 90.9014 115.392C90.9014 115.105 90.85 114.832 90.7977 114.559L90.2655 114.664C90.3304 116.056 90.409 117.161 89.8506 118.084L86.7214 114.911C87.1886 114.614 88.4353 114.001 88.4353 112.713C88.4353 111.829 87.9156 110.723 86.2677 110.723C84.7487 110.723 83.3857 111.803 83.3857 113.273C83.3857 114.222 83.7754 114.69 84.5025 115.614C83.9703 115.86 82.1663 116.746 82.1663 118.503C82.1663 119.53 82.9195 121 85.4118 121C87.9052 121 88.6835 120.219 88.8271 120.114C89.0471 120.311 89.4378 120.701 90.3587 120.701C92.2413 120.701 92.4613 119.411 92.5137 118.971C92.5619 118.616 92.5367 118.11 92.5367 118.11ZM87.461 112.712C87.461 113.389 87.2399 113.934 86.3568 114.545C86.3568 114.545 85.02 113.362 85.02 112.335C85.02 111.724 85.4998 111.074 86.2667 111.074C87.0189 111.074 87.461 111.905 87.461 112.712ZM88.4856 119.775C88.0958 120.14 86.9665 120.386 86.603 120.386C85.2788 120.386 84.2793 119.19 84.2793 117.772C84.2793 117.252 84.4993 116.38 84.9676 116.108L88.4856 119.775ZM107.243 118.422H106.92C106.92 119.059 106.725 120.062 106.232 120.062C105.623 120.062 105.751 119.451 105.647 118.083C105.53 116.25 104.311 115.963 103.701 115.859C104.116 115.744 105.921 115.547 105.921 113.493C105.921 112.101 105.336 110.969 102.868 110.969H97.0415V111.503H97.911V120.218H97.0415V120.751H101.064V120.218H100.182V116.081H101.7C103.207 116.081 103.207 116.746 103.207 118.578C103.207 120.506 104.259 121 105.259 121C106.803 120.999 107.243 119.997 107.243 118.422ZM103.648 113.637C103.648 114.807 103.116 115.547 101.7 115.547H100.182V111.502H101.844C103.167 111.503 103.648 112.464 103.648 113.637ZM118.007 117.304H117.695C117.695 119.215 116.15 120.217 115.072 120.217H112.269V115.977H113.423C114.424 116.029 115.072 116.42 115.072 118.083H115.371V113.532H115.072C115.072 114.493 114.396 115.521 113.423 115.521H112.269V111.503H114.424C116.71 111.503 117.15 112.075 117.54 114.52H117.786V110.969H109.126V111.503H109.995V120.218H109.126V120.751H118.007V117.304ZM128.258 117.616C128.258 115.665 126.881 114.35 124.739 114.272C122.715 114.194 121.168 114.194 121.168 112.751C121.168 111.412 122.519 111.164 123.571 111.164C126.323 111.164 127.128 113.712 127.246 114.169H127.622V110.968H127.246C127.231 111.268 127.246 111.682 126.881 111.682C126.4 111.682 125.492 110.721 123.442 110.721C121.443 110.721 120 112.074 120 113.934C120 115.586 121.363 117.005 123.349 117.029C125.247 117.055 126.959 117.16 126.959 118.696C126.959 120.088 125.467 120.451 124.102 120.477C121.74 120.504 120.688 118.915 120.246 117.225H119.882V120.749H120.246C120.246 120.749 120.324 120.033 120.751 120.033C121.543 120.033 121.881 120.997 124.154 120.997C126.841 120.999 128.258 119.424 128.258 117.616ZM139.833 115.939C139.949 112.919 138.171 110.721 135.043 110.721C132.823 110.721 130.265 111.918 130.122 115.885C130.045 117.81 131.368 120.998 135.043 120.998C138.754 120.999 139.754 117.721 139.833 115.939ZM137.444 115.964C137.444 118.697 136.781 120.505 135.042 120.505C133.198 120.505 132.562 118.164 132.562 115.964C132.562 113.688 133.043 110.997 135.042 110.997C136.976 110.996 137.444 113.805 137.444 115.964ZM151.919 118.422H151.596C151.596 119.059 151.401 120.062 150.908 120.062C150.296 120.062 150.427 119.451 150.323 118.083C150.206 116.25 148.987 115.963 148.375 115.859C148.79 115.744 150.595 115.547 150.595 113.493C150.595 112.101 150.012 110.969 147.544 110.969H141.717V111.503H142.587V120.218H141.717V120.751H145.74V120.218H144.857V116.081H146.375C147.882 116.081 147.882 116.746 147.882 118.578C147.882 120.506 148.934 121 149.934 121C151.479 120.999 151.919 119.997 151.919 118.422ZM148.324 113.637C148.324 114.807 147.792 115.547 146.376 115.547H144.857V111.502H146.519C147.843 111.503 148.324 112.464 148.324 113.637ZM162.436 114.688V110.969H153.802V114.688H154.062C154.062 111.776 155.97 111.503 156.631 111.503H156.853V120.218H155.97V120.751H159.995V120.218H159.126V111.503H159.386C159.93 111.503 162.177 111.776 162.177 114.688H162.436ZM172.685 117.616C172.685 115.665 171.309 114.35 169.166 114.272C167.142 114.194 165.598 114.194 165.598 112.751C165.598 111.412 166.946 111.164 167.998 111.164C170.752 111.164 171.556 113.712 171.673 114.169H172.049V110.968H171.673C171.661 111.268 171.673 111.682 171.309 111.682C170.83 111.682 169.92 110.721 167.869 110.721C165.87 110.721 164.43 112.074 164.43 113.934C164.43 115.586 165.793 117.005 167.779 117.029C169.674 117.055 171.386 117.16 171.386 118.696C171.386 120.088 169.894 120.451 168.531 120.477C166.168 120.504 165.116 118.915 164.674 117.225H164.31V120.749H164.674C164.674 120.749 164.752 120.033 165.181 120.033C165.973 120.033 166.31 120.997 168.582 120.997C171.269 120.999 172.685 119.424 172.685 117.616Z" fill="#6B7379"/>
<path fill-rule="evenodd" clip-rule="evenodd" d="M86.9372 62.1371C85.0546 62.1371 83.5271 62.9023 82.5089 63.1573C81.9494 63.3106 80.3204 63.7693 78.9972 63.1573C78.7416 63.0555 77.9286 63.0041 78.8945 64.0758C79.1502 64.3812 79.6583 64.6878 80.269 64.9932C83.5271 66.574 86.428 65.9117 89.9397 64.3309C90.805 63.9225 92.2308 63.974 92.2308 63.5142C92.1805 63.0555 91.4671 62.749 90.9579 62.0353C89.024 59.2809 86.6313 56.9864 83.7304 55.9147C82.2029 55.3027 81.4906 55.7614 81.9484 56.1697C83.0683 57.2414 83.6277 59.2306 85.1049 60.9132C85.5637 61.4233 86.2258 61.9345 86.9372 62.1371ZM91.926 60.6581C91.926 59.5874 93.555 57.9552 93.8599 56.9864C94.2161 57.9552 95.7938 59.5874 95.7938 60.6581C95.7938 61.172 95.59 61.6649 95.2274 62.0282C94.8647 62.3916 94.3728 62.5958 93.8599 62.5958C93.347 62.5958 92.8551 62.3916 92.4924 62.0282C92.1297 61.6649 91.926 61.172 91.926 60.6581ZM91.926 65.9631C91.926 67.0337 93.555 68.7174 93.8599 69.6862C94.2161 68.7163 95.7938 67.0337 95.7938 65.9631C95.7938 65.4492 95.59 64.9563 95.2274 64.5929C94.8647 64.2296 94.3728 64.0254 93.8599 64.0254C93.347 64.0254 92.8551 64.2296 92.4924 64.5929C92.1297 64.9563 91.926 65.4492 91.926 65.9631Z" fill="#DEBF2E"/>
<path fill-rule="evenodd" clip-rule="evenodd" d="M77.3179 58.1085C75.5872 57.4965 73.9581 57.6487 72.8896 57.548C72.3301 57.4451 70.7514 57.3947 69.7341 56.4259C69.5309 56.2222 68.8174 55.8643 69.3266 57.2425C69.4293 57.549 69.7855 57.9563 70.2433 58.4664C72.7377 61.016 75.5882 61.3729 79.2528 61.0675C80.2198 61.0171 81.7975 61.374 81.8991 60.9142C82.0018 60.5069 81.237 60.0986 80.9825 59.3334C80.1171 56.1708 78.7426 53.2643 76.4525 51.3266C75.2813 50.3063 74.417 50.511 74.7219 51.0201C75.384 52.3458 75.231 54.3349 76.045 56.3755C76.3279 57.0451 76.7639 57.6387 77.3179 58.1085Z" fill="#DEBF2E"/>
<path fill-rule="evenodd" clip-rule="evenodd" d="M69.4282 50.9183C68.0537 49.8466 66.476 49.5411 65.5593 49.1842C64.9999 48.9292 63.6254 48.419 62.9633 47.2466C62.8104 46.9915 62.2509 46.4814 62.3023 47.8585C62.3525 48.165 62.5568 48.6741 62.8617 49.3375C64.3891 52.2954 66.9338 53.469 70.3941 54.1827C71.2595 54.4378 72.6339 55.1516 72.8372 54.7947C73.0918 54.4892 72.4297 53.8762 72.482 53.0617C72.5323 49.9505 72.0745 46.8907 70.4968 44.4933C69.7833 43.1676 68.9191 43.1162 69.071 43.7281C69.2742 45.1053 68.6132 46.8907 68.7661 48.9817C68.8321 49.6703 69.0589 50.3337 69.4282 50.9183Z" fill="#DEBF2E"/>
<path fill-rule="evenodd" clip-rule="evenodd" d="M64.6437 42.2481C63.6767 40.8709 62.3526 40.1068 61.6402 39.4938C61.1813 39.1369 60.0624 38.2195 59.8582 36.9441C59.7565 36.6891 59.4003 36.0771 59.0441 37.3525C59.0441 37.6579 59.0441 38.1681 59.1458 38.8314C59.6549 42.0455 61.6402 43.8299 64.541 45.5125C65.3048 46.0227 66.322 47.0429 66.6279 46.8393C66.9338 46.5832 66.5263 45.8705 66.7809 45.1557C67.7991 42.2995 68.257 39.3416 67.5446 36.6901C67.2387 35.2626 66.476 35.0065 66.476 35.568C66.2214 36.8938 65.1015 38.3223 64.6437 40.3115C64.4918 40.8709 64.4918 41.6361 64.6437 42.2481Z" fill="#DEBF2E"/>
<path fill-rule="evenodd" clip-rule="evenodd" d="M63.0146 32.4054C62.6585 30.9264 61.6915 29.8043 61.284 28.9888C61.0807 28.529 60.3673 27.3565 60.6229 26.1326C60.6229 25.929 60.5213 25.2142 59.8089 26.2344C59.656 26.4895 59.503 26.9997 59.3501 27.5612C58.7393 30.5181 59.9095 32.7633 61.8445 35.2615C62.3536 35.9239 62.8627 37.2506 63.1676 37.0974C63.5238 36.9956 63.4735 36.2304 63.9313 35.7202C65.7123 33.5275 67.1381 31.0807 67.3413 28.5301C67.5446 27.2033 66.9851 26.6428 66.8322 27.1529C66.1711 28.2739 64.6448 29.142 63.6768 30.7218C63.3195 31.1301 63.0146 31.8449 63.0146 32.4054Z" fill="#DEBF2E"/>
<path fill-rule="evenodd" clip-rule="evenodd" d="M64.2875 23.1747C64.2875 21.6957 63.727 20.4204 63.5238 19.6048C63.4222 19.0946 63.1173 17.8707 63.6265 16.8505C63.6767 16.5954 63.7281 15.932 62.8125 16.6972C62.6595 16.9009 62.4049 17.3092 62.099 17.8193C60.8272 20.3689 61.3363 22.7664 62.5076 25.5207C62.8135 26.2344 62.9654 27.5602 63.2713 27.5087C63.6275 27.5087 63.7805 26.795 64.2896 26.3866C66.4781 24.8059 68.3617 22.97 69.2271 20.6754C69.7352 19.503 69.3276 18.8396 69.0741 19.2479C68.2088 20.1149 66.6311 20.5222 65.3079 21.7975C64.8469 22.0526 64.4394 22.6645 64.2875 23.1747Z" fill="#DEBF2E"/>
<path fill-rule="evenodd" clip-rule="evenodd" d="M67.9521 14.9642C68.411 13.5356 68.2067 12.1595 68.258 11.2915C68.258 10.7824 68.3083 9.50704 69.072 8.64002C69.225 8.48782 69.4282 7.87482 68.411 8.33352C68.1564 8.43534 67.8002 8.74184 67.3927 9.20054C65.4074 11.2915 65.2545 13.7393 65.6107 16.6972C65.7123 17.5128 65.509 18.7881 65.8139 18.8396C66.1701 18.9414 66.476 18.278 67.137 18.024C69.6314 17.157 71.9718 15.8806 73.3977 13.944C74.2127 12.9237 74.0598 12.2099 73.6522 12.5164C72.5837 13.0769 70.9546 13.0769 69.3255 13.8936C68.8174 14.0458 68.258 14.5045 67.9521 14.9642Z" fill="#DEBF2E"/>
<path fill-rule="evenodd" clip-rule="evenodd" d="M73.6019 8.43534C74.417 7.36468 74.7218 6.19116 74.9764 5.47739C75.1797 5.1205 75.5872 4.04985 76.5039 3.64153C76.7071 3.48828 77.0633 3.02958 76.045 3.13139C75.8418 3.13139 75.3839 3.28464 74.9261 3.48933C72.6863 4.61142 71.7696 6.54909 71.1086 9.09872C70.9556 9.76211 70.3952 10.7824 70.6497 10.9356C70.9043 11.0889 71.3632 10.6806 71.9215 10.6806C74.3133 10.732 76.6558 10.4255 78.3864 9.25302C79.3534 8.69145 79.455 8.0795 79.0475 8.18132C77.9779 8.33457 76.6558 7.82443 75.077 7.92625C74.5689 7.92625 74.0084 8.12988 73.6019 8.43534Z" fill="#DEBF2E"/>
<path fill-rule="evenodd" clip-rule="evenodd" d="M80.0155 4.10128C80.8808 3.38646 81.3386 2.41762 81.7451 1.85711C81.9494 1.60204 82.5088 0.735017 83.3742 0.530333C83.5774 0.47995 83.9336 0.122015 83.0683 0.0201978C82.865 -0.0312356 82.5078 0.0201979 82.05 0.122015C79.9118 0.632151 78.7405 2.16151 77.7243 4.30387C77.4698 4.81295 76.7563 5.62959 77.0109 5.78284C77.1639 5.93504 77.672 5.62959 78.1811 5.78284C80.1674 6.29193 82.2543 6.44518 83.9839 5.73141C84.8995 5.42596 85.1038 4.91582 84.7476 4.96621C83.7796 4.86334 82.7613 4.201 81.3366 3.99737C80.8955 3.9031 80.4365 3.9392 80.0155 4.10128Z" fill="#DEBF2E"/>
<path fill-rule="evenodd" clip-rule="evenodd" d="M89.992 0.683582C89.331 2.11217 87.6506 2.57087 87.1414 2.72308C86.7329 2.87633 85.0032 3.33503 83.7314 2.46906C84.3925 1.04152 86.0729 0.581765 86.5307 0.428514C86.9885 0.326697 88.6678 -0.183439 89.992 0.683582ZM104.346 15.2182C105.464 15.6266 106.432 15.1164 106.84 14.198C107.042 13.7907 107.145 13.5346 107.145 13.1273H108.62V25.1124H107.551C105.718 20.1139 101.139 15.2697 95.7917 14.0962C90.4991 13.2806 84.3401 13.3813 81.2863 18.0229C80.4209 19.2972 80.8787 21.8983 82.5078 22.8157C87.9544 26.1305 93.9101 24.6012 101.139 25.6204C104.803 26.1305 108.824 28.2215 110.453 32.3015C112.031 36.2283 111.726 40.2569 110.146 42.9083C106.432 49.2829 99.5087 49.8949 95.0803 49.8949C90.4488 49.8949 85.8172 47.7525 82.1526 46.4268C81.0338 46.0185 80.0658 46.5286 79.6583 47.4471C79.455 47.8554 79.3524 48.1608 79.3524 48.5188H77.8763V35.8703C78.2838 35.8703 78.7405 35.8703 79.3524 35.9218C80.7771 41.7358 85.3584 46.0195 89.9396 47.3452C95.2333 48.9271 100.527 48.672 104.65 45.7644C106.279 44.6424 106.891 42.1946 106.279 40.0532C105.363 36.8402 100.425 35.9732 96.8634 35.9218C89.2273 35.7171 79.9652 35.82 77.2162 27.4048C76.1477 23.3762 76.8087 18.9393 79.7096 15.9299C84.4941 11.239 92.5367 11.0857 98.6454 12.972C100.833 13.4338 102.31 14.6073 104.346 15.2182ZM100.782 62.1371C102.666 62.1371 104.193 62.9023 105.26 63.1573C105.821 63.3106 107.398 63.7693 108.723 63.1573C108.976 63.0555 109.791 63.0041 108.825 64.0758C108.57 64.3812 108.061 64.6877 107.451 64.9932C104.194 66.574 101.292 65.9117 97.8314 64.3309C96.9147 63.9226 95.4889 63.974 95.5392 63.5142C95.5392 63.0555 96.2516 62.749 96.7607 62.0353C98.6946 59.2809 101.086 56.9864 103.989 55.9147C105.516 55.3027 106.228 55.7614 105.769 56.1698C104.65 57.2415 104.14 59.2306 102.614 60.9132C102.157 61.4233 101.494 61.9345 100.782 62.1371Z" fill="#DEBF2E"/>
<path fill-rule="evenodd" clip-rule="evenodd" d="M110.403 58.1085C112.134 57.4965 113.763 57.6487 114.831 57.548C115.392 57.4451 117.021 57.3947 117.987 56.4259C118.191 56.2222 118.903 55.8643 118.396 57.2425C118.294 57.549 117.937 57.9563 117.48 58.4664C114.985 61.016 112.135 61.3729 108.468 61.0675C107.502 61.0171 105.976 61.374 105.823 60.9142C105.72 60.5069 106.486 60.0986 106.739 59.3334C107.605 56.1708 108.978 53.2643 111.269 51.3266C112.439 50.3063 113.305 50.511 112.998 51.0201C112.337 52.3458 112.491 54.3349 111.676 56.3755C111.391 57.0443 110.956 57.6376 110.403 58.1085Z" fill="#DEBF2E"/>
<path fill-rule="evenodd" clip-rule="evenodd" d="M118.293 50.9183C119.666 49.8466 121.245 49.5411 122.159 49.1842C122.72 48.9292 124.145 48.419 124.756 47.2466C124.908 46.9915 125.469 46.4814 125.417 47.8585C125.368 48.165 125.164 48.6741 124.859 49.3375C123.331 52.2954 120.787 53.469 117.326 54.1827C116.46 54.4378 115.085 55.1516 114.883 54.7947C114.678 54.4892 115.29 53.8762 115.239 53.0617C115.187 49.9505 115.646 46.8907 117.224 44.4933C117.988 43.1676 118.802 43.1162 118.65 43.7281C118.446 45.1053 119.109 46.8907 118.955 48.9817C118.902 49.643 118.649 50.3567 118.293 50.9183Z" fill="#DEBF2E"/>
<path fill-rule="evenodd" clip-rule="evenodd" d="M123.076 42.2481C124.044 40.8709 125.368 40.1068 126.131 39.4938C126.536 39.1369 127.657 38.2195 127.911 36.9441C127.962 36.6891 128.318 36.0771 128.675 37.3525C128.726 37.6579 128.675 38.1681 128.623 38.8314C128.116 42.0455 126.08 43.8299 123.179 45.5125C122.415 46.0227 121.397 47.0429 121.143 46.8393C120.836 46.5832 121.192 45.8705 120.939 45.1557C119.973 42.2995 119.464 39.3416 120.175 36.6901C120.531 35.2626 121.245 35.0065 121.245 35.568C121.498 36.8938 122.668 38.3223 123.076 40.3115C123.281 40.8709 123.281 41.6361 123.076 42.2481Z" fill="#DEBF2E"/>
<path fill-rule="evenodd" clip-rule="evenodd" d="M124.705 32.4054C125.113 30.9264 126.029 29.8043 126.436 28.9888C126.638 28.529 127.352 27.3565 127.097 26.1326C127.097 25.929 127.25 25.2142 127.962 26.2344C128.115 26.4895 128.216 26.9997 128.37 27.5612C128.982 30.5181 127.809 32.7633 125.927 35.2615C125.368 35.9239 124.858 37.2506 124.552 37.0974C124.196 36.9956 124.299 36.2304 123.84 35.7202C122.009 33.5275 120.633 31.0807 120.377 28.5301C120.175 27.2033 120.736 26.6428 120.886 27.1529C121.55 28.2739 123.076 29.142 124.044 30.7218C124.449 31.1301 124.705 31.8449 124.705 32.4054Z" fill="#DEBF2E"/>
<path fill-rule="evenodd" clip-rule="evenodd" d="M123.484 23.1747C123.432 21.6957 123.993 20.4204 124.196 19.6048C124.299 19.0946 124.655 17.8707 124.145 16.8505C124.044 16.5954 123.993 15.932 124.908 16.6972C125.113 16.9009 125.318 17.3092 125.623 17.8193C126.947 20.3689 126.387 22.7664 125.267 25.5207C124.96 26.2344 124.757 27.5602 124.451 27.5087C124.096 27.5087 123.994 26.795 123.433 26.3866C121.295 24.8059 119.361 22.97 118.496 20.6754C118.037 19.503 118.395 18.8396 118.7 19.2479C119.514 20.1149 121.143 20.5222 122.465 21.7975C122.872 22.0526 123.331 22.6645 123.484 23.1747Z" fill="#DEBF2E"/>
<path fill-rule="evenodd" clip-rule="evenodd" d="M119.768 14.9642C119.309 13.5356 119.514 12.1595 119.514 11.2915C119.463 10.7824 119.411 9.50704 118.649 8.64002C118.546 8.48782 118.293 7.87482 119.361 8.33352C119.563 8.43534 119.922 8.74184 120.329 9.20054C122.314 11.2915 122.465 13.7393 122.109 16.6972C122.008 17.5128 122.212 18.7881 121.907 18.8396C121.551 18.9414 121.246 18.278 120.634 18.024C118.088 17.157 115.748 15.8806 114.322 13.944C113.508 12.9237 113.712 12.2099 114.069 12.5164C115.137 13.0769 116.765 13.0769 118.396 13.8936C118.902 14.0458 119.463 14.5045 119.768 14.9642Z" fill="#DEBF2E"/>
<path fill-rule="evenodd" clip-rule="evenodd" d="M114.22 8.38495C113.456 7.31325 113.151 6.14078 112.896 5.42806C112.692 5.07117 112.233 3.99947 111.37 3.59115C111.166 3.4379 110.809 2.97919 111.827 3.08206C112.031 3.08206 112.438 3.23531 112.948 3.43895C115.186 4.56103 116.103 6.49871 116.715 9.04939C116.867 9.76316 117.479 10.733 117.222 10.8852C116.968 11.0889 116.51 10.6302 115.898 10.6302C113.557 10.733 111.216 10.3751 109.485 9.25302C108.466 8.64107 108.417 8.02912 108.773 8.13093C109.892 8.28419 111.216 7.77405 112.794 7.87587C113.252 7.87482 113.864 8.0795 114.22 8.38495Z" fill="#DEBF2E"/>
<path fill-rule="evenodd" clip-rule="evenodd" d="M107.755 4.10128C106.891 3.38646 106.432 2.41763 106.026 1.80567C105.822 1.55165 105.261 0.735017 104.397 0.479949C104.193 0.428516 103.836 0.123065 104.702 0.0201978C104.904 -0.0312356 105.311 0.0201979 105.719 0.122015C107.857 0.632151 109.027 2.16151 110.047 4.25348C110.3 4.814 111.013 5.57921 110.759 5.73246C110.606 5.93609 110.098 5.62959 109.589 5.78389C107.604 6.29298 105.517 6.39584 103.837 5.73246C102.869 5.42701 102.667 4.86544 103.023 4.91687C103.991 4.814 105.009 4.15167 106.435 3.94803C106.84 3.84622 107.399 3.94803 107.755 4.10128Z" fill="#DEBF2E"/>
<path fill-rule="evenodd" clip-rule="evenodd" d="M97.7287 0.683582C98.3898 2.11217 100.069 2.57087 100.579 2.72308C100.987 2.87633 102.718 3.33503 103.99 2.46906C103.327 1.04152 101.648 0.581765 101.189 0.428514C100.732 0.326697 99.0529 -0.183439 97.7287 0.683582Z" fill="#DEBF2E"/>
<path fill-rule="evenodd" clip-rule="evenodd" d="M24.8182 93.2753C24.8182 87.4938 20.7398 83.5985 14.3902 83.3686C8.38833 83.1366 3.80916 83.1366 3.80916 78.8561C3.80916 74.8852 7.81109 74.1536 10.9267 74.1536C19.0846 74.1536 21.47 81.7101 21.8168 83.0589H22.9325V73.5752H21.8168C21.778 74.4632 21.8168 75.6956 20.7398 75.6956C19.3172 75.6956 16.6227 72.8436 10.5433 72.8436C4.61793 72.8436 0.346764 76.8533 0.346764 82.3662C0.346764 87.2618 4.3864 91.4646 10.2741 91.5402C15.8914 91.6179 20.9703 91.9254 20.9703 96.4747C20.9703 100.602 16.5451 101.68 12.5055 101.758C5.50213 101.833 2.38544 97.1307 1.07696 92.1175H0V102.567H1.07696C1.07696 102.567 1.30744 100.446 2.5782 100.446C4.92488 100.446 5.92537 103.3 12.6595 103.3C20.6246 103.3 24.8182 98.6338 24.8182 93.2753ZM52.8317 101.18H50.3688V88.6494C50.3688 84.9494 47.4061 81.4026 42.2884 81.4026C38.1713 81.4026 36.3631 83.1366 34.8241 84.6009V73.5752H25.7045V74.9629H28.0512V101.18H25.5118V102.568H37.2095V101.18H34.8241V89.3065C34.8241 86.4137 36.4395 83.3696 39.749 83.3696C41.9039 83.3696 43.2889 85.4501 43.2889 87.3384V101.181H40.7495V102.569H52.8317V101.18ZM74.4296 92.1186V90.6154C74.4296 85.913 71.0824 81.0541 64.0026 81.0541C57.5764 81.0541 52.8055 84.9494 52.8055 92.3505C52.8055 99.6761 58.0772 103.301 64.4258 103.301C68.5042 103.301 73.6218 101.488 74.2756 95.1657H73.3526C73.3526 96.7854 71.3129 101.488 66.3105 101.488C60.3086 101.488 59.5386 96.9774 59.5386 92.1186H74.4296ZM68.1197 90.7697H59.5397C59.5397 90.7697 59.3092 82.2885 63.9261 82.2885C68.9274 82.2885 68.1197 90.7697 68.1197 90.7697ZM95.2302 86.0274C95.2302 83.8682 93.8441 81.3249 91.0355 81.3249C87.5343 81.3249 85.3793 84.0225 84.8021 84.794V81.7888H75.76V83.1377H77.7987V101.18H75.2593V102.568H87.0335V101.18H84.5706V92.1186C84.5706 87.4938 87.1875 82.6349 90.8804 82.6349C91.6127 82.6349 91.9584 82.8668 92.3817 83.3686C91.0344 82.9445 88.8417 84.2933 88.8417 86.5669C88.8417 88.3797 90.5724 89.6519 92.1124 89.6519C93.8441 89.6519 95.2302 87.8401 95.2302 86.0274ZM120.971 97.4781V95.8994H119.893C119.893 96.9774 119.893 100.832 118.24 100.832C117.201 100.832 116.624 100.178 116.624 99.1754V92.4282C116.624 88.5718 117.585 81.0541 106.735 81.0541C100.347 81.0541 97.1159 83.5984 97.1159 86.5669C97.1159 87.4937 97.5391 89.8062 100.347 89.8062C101.656 89.8062 103.387 88.3797 103.387 86.6057C103.387 84.3689 101.308 83.4442 101.308 83.4442C102.309 82.9435 103.271 82.5561 104.694 82.5561C107.311 82.5561 109.697 84.1002 109.697 86.759C109.697 93.8547 95.8828 88.2243 95.8828 97.4383C95.8828 99.8672 97.2678 103.3 102.656 103.3C107.965 103.3 108.966 101.179 109.967 99.6751C111.197 101.758 112.161 103.222 115.046 103.222C119.394 103.222 120.971 101.18 120.971 97.4781ZM109.465 97.053C109.465 99.3675 106.926 101.334 105.772 101.334C103.886 101.334 102.656 99.2898 102.656 97.285C102.656 92.5038 106.734 92.8523 109.465 90.5378V97.053ZM135.378 97.285V96.0527H134.339C134.339 97.5558 134.339 100.755 131.838 100.755C130.722 100.755 129.492 99.9459 129.492 98.0187V83.1366H133.339V81.7878H129.492V74.5777H128.491C127.836 77.9313 125.604 81.7878 120.911 81.7878V83.1366H123.45V98.0187C123.45 100.755 125.605 103.3 129.375 103.3C134.338 103.3 135.378 99.251 135.378 97.285ZM159.386 92.3505C159.386 86.5669 156.269 81.0541 147.574 81.0541C140.187 81.0541 136.377 85.9885 136.377 92.3505C136.377 99.4442 140.917 103.301 147.958 103.301C154 103.3 159.386 99.8682 159.386 92.3505ZM152.845 92.0042C152.845 96.0527 152.076 101.834 147.726 101.834C143.149 101.834 142.725 94.6629 142.725 92.5038C142.725 88.9958 143.455 82.3662 148.073 82.3662C151.999 82.3662 152.845 87.647 152.845 92.0042ZM187 102.568V101.18H184.692V88.5718C184.692 84.6786 181.961 81.1706 176.534 81.1706C172.342 81.1706 170.224 83.1366 168.994 84.6786V81.7878H159.875V83.1366H162.222V101.179H159.682V102.567H171.455V101.179H168.993V89.7295C168.993 86.8367 170.724 83.4442 173.841 83.4442C175.571 83.4442 177.534 84.5243 177.534 86.9154V101.18H174.994V102.568H187Z" fill="#6B7379"/>
</svg>
