<svg width="173" height="77" viewBox="0 0 173 77" fill="none" xmlns="http://www.w3.org/2000/svg">
<path fill-rule="evenodd" clip-rule="evenodd" d="M86.5016 72.1146C116.406 72.1146 145.405 70.7439 173 68.2252V69.333C145.408 73.7047 116.4 77 86.5016 77C56.6004 77 27.593 73.7058 0 69.333V68.2252C27.5963 70.7439 56.5917 72.1146 86.5016 72.1146ZM51.0101 56.7231C50.0999 56.7231 49.3205 56.6231 48.8066 55.8715L46.1528 51.993H45.4899V56.7231H42.4573V44.9071H47.0317C50.5113 44.9071 51.4538 46.6579 51.4538 48.311C51.4538 49.4406 50.9917 50.8786 49.1844 51.4684L52.501 56.1974C52.6133 56.3766 52.8303 56.5558 53.029 56.7035V56.7231H51.0101ZM46.3526 46.873H45.491V50.0466H46.4195C47.7939 50.0466 48.4416 49.4742 48.4416 48.4576C48.4416 47.2661 47.7949 46.873 46.3526 46.873ZM56.3466 56.7231V44.9071H64.5993V46.873H59.3793V49.7512H63.7054V51.5194H59.3793V54.7908H64.6813V56.7231H56.3466ZM72.5054 56.9827C71.0608 56.9827 69.9855 56.7719 68.8239 56.4439L69.8527 54.5638C70.5664 54.7919 71.4603 55.0037 72.2398 55.0037C73.4317 55.0233 74.046 54.5454 74.046 53.7123C74.046 52.8293 73.5494 52.5816 71.8425 51.6834C70.1021 50.7678 68.7256 49.736 68.8746 47.8537C69.0398 45.6141 70.928 44.6486 73.1024 44.6486C74.3602 44.6486 75.4031 44.7311 76.7461 45.1873V45.2047L75.8177 47.0044C75.0716 46.71 74.3429 46.5645 73.6314 46.5949C72.6349 46.6449 71.9224 46.9566 71.9062 47.6604C71.8738 48.6564 73.1316 49.0354 74.3591 49.6871C76.0314 50.5691 77.1424 51.224 77.1424 53.3018C77.1434 55.0852 75.9515 56.9827 72.5054 56.9827ZM86.8719 56.9827C83.2098 56.9827 80.8725 54.7756 80.8725 50.8156C80.8725 46.8556 83.2098 44.6464 86.8719 44.6464C90.5351 44.6464 92.8671 46.8545 92.8671 50.8156C92.8671 54.7745 90.5351 56.9827 86.8719 56.9827ZM86.8719 46.6742C84.7181 46.6742 84.0876 48.9019 84.0876 50.8145C84.0876 52.7272 84.717 54.9548 86.8719 54.9548C89.0279 54.9548 89.6584 52.7283 89.6584 50.8145C89.6584 48.9008 89.0279 46.6742 86.8719 46.6742ZM105.962 56.7231C105.051 56.7231 104.271 56.6231 103.758 55.8715L101.108 51.993H100.444V56.7231H97.4134V44.9071H101.985C105.466 44.9071 106.411 46.6579 106.411 48.311C106.411 49.4406 105.947 50.8786 104.139 51.4684L107.454 56.1974C107.569 56.3766 107.785 56.5558 107.985 56.7035V56.7231H105.962ZM101.307 46.873H100.444V50.0466H101.371C102.748 50.0466 103.396 49.4742 103.396 48.4576C103.396 47.2661 102.749 46.873 101.307 46.873ZM120.548 46.3147C120.282 46.8371 119.934 47.0348 119.171 47.0348H117.033V56.7231H113.919V47.0348H110.403C110.203 47.0567 110.008 47.1118 109.826 47.1977L109.777 47.1673L110.604 45.6576C110.921 45.0885 111.317 44.9071 111.965 44.9071H121.276L120.548 46.3147ZM127.82 56.9827C126.38 56.9827 125.3 56.7719 124.141 56.4439L125.169 54.5638C125.882 54.7919 126.776 55.0037 127.556 55.0037C128.748 55.0233 129.364 54.5454 129.364 53.7123C129.364 52.8293 128.866 52.5816 127.158 51.6834C125.417 50.7678 124.041 49.736 124.191 47.8537C124.358 45.6141 126.247 44.6486 128.417 44.6486C129.678 44.6486 130.72 44.7311 132.063 45.1873V45.2047L131.135 47.0044C130.389 46.71 129.662 46.5645 128.949 46.5949C127.954 46.6449 127.243 46.9566 127.226 47.6604C127.19 48.6564 128.451 49.0354 129.678 49.6871C131.35 50.5691 132.461 51.224 132.461 53.3018C132.461 55.0852 131.268 56.9827 127.82 56.9827ZM14.9938 28.3729C14.196 28.3729 13.2869 28.1894 12.6597 28.0514L8.6575 34.6551C9.70798 35.6609 12.258 36.2908 13.7112 36.2908C18.1129 36.2908 21.0116 31.9278 26.4357 19.5862L32.9199 33.4875H41.5796L37.5029 24.1294L39.7971 19.2505L46.1723 33.4875H54.4811L39.9936 1.30118L33.3194 4.66166L38.5404 16.6047L36.2538 21.2979L26.6613 0.488759L19.6394 4.10231L25.4543 16.6297L23.2011 21.2697C21.6573 24.452 18.3439 28.3729 14.9938 28.3729ZM70.6992 26.5819V13.6103C70.6992 11.7237 70.2565 10.1488 69.3896 9.08546C68.5831 8.09165 67.2973 6.95339 63.8781 6.95339C61.3518 6.95339 59.321 7.41283 57.6713 8.18398C56.9847 8.50439 56.4935 9.14412 56.1091 10.0728C55.6719 11.1176 55.3361 12.548 55.0943 14.1468C57.423 11.9822 59.6373 10.8689 61.1596 10.6408C63.1342 10.3454 64.4795 10.7538 64.4795 11.7954C64.4795 12.5589 63.9148 13.0173 63.0263 13.4647C61.7383 14.1121 58.9809 14.8702 56.7817 16.1866C54.8028 17.3705 53.0754 19.2614 53.2352 23.1639C53.4025 27.2064 56.2354 29.8642 58.7553 29.8729C61.3529 29.8816 62.9064 28.6217 64.636 27.1098C64.8174 27.9428 65.2298 28.9942 65.883 29.6133H71.8457C71.1904 28.7162 70.6992 27.7017 70.6992 26.5819ZM63.294 24.9886C62.3796 25.6663 61.6908 25.8249 60.961 25.8021C59.5823 25.763 58.8276 24.3695 58.8276 22.4926C58.8276 21.3544 59.1774 19.9533 59.6611 19.0735C60.5259 17.5095 61.8279 16.4168 63.1094 16.3528C63.9051 16.3115 64.2365 16.6558 64.3499 17.6941C64.4222 18.3697 64.4438 18.979 64.4438 20.4746C64.446 23.4854 64.338 24.2163 63.294 24.9886ZM100.756 7.18365C102.449 7.18365 103.665 7.94721 104.311 8.78895L101.694 12.863C100.429 11.904 98.723 11.5662 97.245 12.762V24.6877C97.2363 26.7557 97.5818 28.6206 98.6539 29.6111H92.7116C91.4614 28.6651 90.9907 27.0142 90.9907 25.7945V9.92721C90.9907 8.62712 90.71 8.08297 90.2026 7.34874H96.3683C96.7019 7.64091 97.0182 8.33604 97.1359 8.82479C98.1302 7.92439 99.3222 7.18365 100.756 7.18365ZM112.917 11.8736V24.6888C112.906 26.7568 113.256 28.6217 114.326 29.6122H108.383C107.133 28.6662 106.665 27.0153 106.665 25.7956V9.92721C106.665 8.62712 106.38 8.08297 105.874 7.34874H111.93C112.703 8.44682 112.917 9.72302 112.917 11.8736ZM85.2493 7.18365C86.9454 7.18365 88.161 7.94721 88.8034 8.78895L86.1885 12.863C84.9243 11.904 83.2142 11.5662 81.7394 12.762V24.6877C81.7275 26.7557 82.0762 28.6206 83.1462 29.6111H77.205C75.9569 28.6651 75.4895 27.0142 75.4895 25.7945V9.92721C75.4895 8.62712 75.2066 8.08297 74.6981 7.34874H80.8627C81.1942 7.64091 81.5137 8.33604 81.6293 8.82479C82.6258 7.92439 83.8155 7.18365 85.2493 7.18365ZM133.804 12.2504C132.893 10.6908 131.165 8.77049 128.647 7.42369C126.961 6.51786 125.969 6.54284 122.295 8.28716C121.26 8.777 118.975 10.0771 117.958 11.702C117.599 12.2743 117.338 13.3865 117.209 14.7409C116.988 17.0718 117.043 19.9728 117.19 22.0788C117.533 27.037 122.426 29.3179 124.22 29.9C127.358 30.921 130.975 27.5714 131.908 26.6373C133.68 24.868 134.428 23.6917 134.656 21.6107C134.769 20.5626 134.785 19.3657 134.766 17.8516C134.735 15.915 134.509 13.4626 133.804 12.2504ZM127.631 25.2449C127.144 26.1333 126.589 26.5406 125.832 26.533C125.069 26.5254 124.236 25.6837 123.74 24.0599C123.173 22.1787 123.238 17.2097 123.322 15.9009C123.444 13.9296 123.581 12.535 124.229 11.3913C124.552 10.8113 125.311 9.95111 126.408 10.303C127.468 10.6451 128.494 12.2396 128.695 16.923C128.919 22.068 128.215 24.1805 127.631 25.2449ZM145.16 9.0985V24.6888C145.147 26.7568 145.495 28.6217 146.564 29.6122H140.513C139.263 28.6662 138.796 27.0153 138.796 25.7956V9.0985H135.301L136.07 7.02617H138.796V2.38731L145.161 0V7.02725H148.242L147.462 9.09958H145.16V9.0985ZM158.655 9.0985V24.6888C158.644 26.7568 158.994 28.6217 160.062 29.6122H154.012C152.761 28.6662 152.295 27.0153 152.295 25.7956V9.0985H148.799L149.567 7.02617H152.295V2.38731L158.655 0V7.02725H161.742L160.959 9.09958H158.655V9.0985ZM164.701 29.8186C163.992 29.8183 163.313 29.5352 162.811 29.0314C162.31 28.5277 162.028 27.8444 162.027 27.1315C162.028 26.4184 162.31 25.7349 162.811 25.2309C163.312 24.7268 163.992 24.4436 164.701 24.4433C165.409 24.4439 166.089 24.7273 166.59 25.2313C167.091 25.7353 167.372 26.4187 167.373 27.1315C167.372 27.844 167.09 28.527 166.589 29.0307C166.088 29.5344 165.409 29.8177 164.701 29.8186ZM164.701 24.8137C164.398 24.813 164.098 24.8724 163.818 24.9886C163.538 25.1049 163.284 25.2755 163.07 25.4909C162.856 25.7063 162.686 25.962 162.57 26.2436C162.455 26.5251 162.395 26.8269 162.396 27.1315C162.396 28.4153 163.425 29.4482 164.701 29.4482C165.977 29.4482 167.002 28.4153 167.002 27.1315C167.002 26.8271 166.944 26.5256 166.828 26.2442C166.713 25.9629 166.544 25.7072 166.33 25.4918C166.116 25.2764 165.862 25.1057 165.583 24.9893C165.303 24.8729 165.003 24.8133 164.701 24.8137ZM165.677 28.7629C165.515 28.7629 165.35 28.7487 165.25 28.5999L164.445 27.3824H164.217V28.7629H163.644V25.5414H164.755C165.622 25.5414 165.803 26.0899 165.803 26.4179C165.803 26.8676 165.5 27.2108 165.055 27.2966L165.962 28.6217C166.002 28.676 166.052 28.722 166.11 28.7574V28.7629H165.677ZM164.557 25.94H164.218V26.9751H164.533C164.944 26.9751 165.222 26.8111 165.222 26.4407C165.221 25.99 164.865 25.94 164.557 25.94Z" fill="#9A1239"/>
</svg>
