<svg width="139" height="89" viewBox="0 0 139 89" fill="none" xmlns="http://www.w3.org/2000/svg">
<path fill-rule="evenodd" clip-rule="evenodd" d="M17.2262 1.25311C16.0413 3.99644 16.9874 9.81248 17.0395 12.3147C17.496 34.077 17.7976 49.1592 18.4219 77.0705C18.4457 78.1354 18.5087 79.1802 18.5665 80.2537V80.2795L18.5911 80.7108V80.7144L18.5926 80.7323L18.5933 80.7545C18.6288 81.4456 18.6606 82.151 18.6765 82.8843L18.6816 82.7071L18.6873 82.8843C18.7025 82.151 18.7344 81.4449 18.7698 80.7545L18.7713 80.7323L18.772 80.7144V80.7108L18.7966 80.2795V80.2537C18.8552 79.1802 18.9174 78.1354 18.9412 77.0705C19.5655 49.1592 19.8671 34.077 20.3236 12.3147C20.3757 9.81248 21.3218 3.99644 20.1377 1.25311C19.7623 0.382673 19.2212 -0.00410634 18.6816 0.0389489C18.1427 -0.00410634 17.6016 0.382673 17.2262 1.25311ZM18.6707 11.5038C17.4316 11.4924 17.1828 2.92149 18.5217 2.38115C18.6157 2.34384 18.7647 2.34599 18.8581 2.38833C20.1681 2.9911 19.9489 11.5153 18.6707 11.5038Z" fill="white"/>
<path d="M21.2379 36.8951L19.5018 39.6226L19.2045 51.3824L18.534 51.1607L18.2916 15.7198L19.8715 11.1638L19.5018 15.7198V36.8599L30.5866 18.7071H32.6417L22.5696 35.2812L33.5184 54.275H31.4633L21.2379 36.8951ZM32.3415 29.7199C32.3415 28.8107 32.45 27.9676 32.667 27.1904C32.884 26.4126 33.2153 25.743 33.6616 25.1812C34.1072 24.6186 34.6801 24.1766 35.3796 23.8536C36.0784 23.5307 36.911 23.3693 37.8752 23.3693C38.8395 23.3693 39.6779 23.5307 40.3889 23.8536C41.1 24.1766 41.6845 24.6186 42.1431 25.1812C42.601 25.743 42.9388 26.4126 43.1558 27.1904C43.3728 27.9676 43.4813 28.8107 43.4813 29.7199V42.564C43.4813 43.4732 43.3728 44.3163 43.1558 45.0935C42.9388 45.8714 42.601 46.5409 42.1431 47.1027C41.6845 47.6653 41.1 48.1074 40.3889 48.4303C39.6779 48.7532 38.8395 48.9146 37.8752 48.9146C36.911 48.9146 36.0784 48.7532 35.3796 48.4303C34.6801 48.1074 34.1072 47.6653 33.6616 47.1027C33.2153 46.5409 32.884 45.8714 32.667 45.0935C32.45 44.3163 32.3415 43.4732 32.3415 42.564V29.7199ZM34.0052 42.6716C34.0052 44.035 34.3004 45.1652 34.8914 46.0622C35.4823 46.9592 36.477 47.4077 37.8752 47.4077C39.2735 47.4077 40.2804 46.9592 40.8953 46.0622C41.5101 45.1652 41.8176 44.035 41.8176 42.6716V29.6123C41.8176 28.2489 41.5101 27.1187 40.8953 26.2217C40.2804 25.3247 39.2735 24.8762 37.8752 24.8762C36.477 24.8762 35.4823 25.3247 34.8914 26.2217C34.3004 27.1187 34.0052 28.2489 34.0052 29.6123V42.6716ZM54.7296 48.6635H53.0658L47.713 26.4549V48.6994H46.2301V23.5845H48.6172L53.9339 45.7931L59.2137 23.5845H61.6015V48.6994H60.0094V26.3831L54.7296 48.6635ZM70.4258 37.0393L66.3027 48.6994H64.4943V23.5845H66.0133V45.0756L68.9429 36.7874L73.7895 23.5845H75.7787V48.6994H74.2597V26.4908L70.4258 37.0393ZM83.6634 25.0915L83.0124 42.564C82.9646 43.4251 82.8858 44.2266 82.7773 44.9679C82.6688 45.7099 82.4575 46.3557 82.1443 46.9054C81.8311 47.4558 81.3906 47.8921 80.8242 48.215C80.2578 48.5379 79.504 48.7116 78.5637 48.7352H78.2382V47.2283C78.9615 47.2283 79.5221 47.1027 79.92 46.8516C80.3178 46.6004 80.6195 46.266 80.8242 45.847C81.0296 45.4286 81.162 44.9385 81.222 44.3759C81.2821 43.814 81.3247 43.222 81.3486 42.6006L82.1082 23.5845H91.548V48.6994H89.8481V25.0915H83.6634ZM99.2519 33.9178C101.301 33.9178 102.796 34.4079 103.737 35.3888C104.677 36.3691 105.147 37.8645 105.147 39.873V42.6006C105.147 43.5091 105.045 44.3407 104.84 45.0935C104.635 45.847 104.315 46.4928 103.881 47.0317C103.447 47.5692 102.887 47.9818 102.2 48.2688C101.512 48.5558 100.675 48.6994 99.6859 48.6994H94.4777V23.5845H96.1414V33.9178H99.2519ZM99.6859 47.1924C101.109 47.1924 102.097 46.7863 102.652 45.9725C103.206 45.1595 103.484 44.0709 103.484 42.7082V39.7654C103.484 38.2348 103.146 37.129 102.471 36.4473C101.796 35.7656 100.722 35.4247 99.2519 35.4247H96.1414V47.1924H99.6859ZM119.325 26.4908C121.398 26.4908 122.887 27.0412 123.791 28.1412C124.695 29.2413 125.148 30.7963 125.148 32.8055V39.6578C125.148 41.667 124.695 43.222 123.791 44.3221C122.887 45.4229 121.398 45.9725 119.325 45.9725H117.263V48.6994H115.636V45.9725H113.574C111.501 45.9725 110.012 45.4164 109.108 44.3041C108.203 43.1919 107.751 41.6433 107.751 39.6578V32.8055C107.751 30.82 108.203 29.2714 109.108 28.1592C110.012 27.0469 111.501 26.4908 113.574 26.4908H115.636V23.5845H117.263V26.4908H119.325ZM113.574 27.9618C112.055 27.9618 110.976 28.3744 110.337 29.1997C109.698 30.0249 109.379 31.191 109.379 32.6979V39.7654C109.379 41.2731 109.698 42.4384 110.337 43.2636C110.976 44.0889 112.055 44.5015 113.574 44.5015H115.636V27.9618H113.574ZM119.325 44.5015C120.844 44.5015 121.923 44.0889 122.562 43.2636C123.201 42.4384 123.52 41.2731 123.52 39.7654V32.6979C123.52 31.191 123.201 30.0249 122.562 29.1997C121.923 28.3744 120.844 27.9618 119.325 27.9618H117.263V44.5015H119.325ZM127.86 29.7199C127.86 28.8107 127.969 27.9676 128.186 27.1904C128.403 26.4126 128.735 25.743 129.18 25.1812C129.627 24.6186 130.199 24.1766 130.898 23.8536C131.598 23.5307 132.43 23.3693 133.394 23.3693C134.358 23.3693 135.196 23.5307 135.908 23.8536C136.619 24.1766 137.204 24.6186 137.662 25.1812C138.12 25.743 138.457 26.4126 138.674 27.1904C138.891 27.9676 139 28.8107 139 29.7199V42.564C139 43.4732 138.891 44.3163 138.674 45.0935C138.457 45.8714 138.12 46.5409 137.662 47.1027C137.204 47.6653 136.619 48.1074 135.908 48.4303C135.196 48.7532 134.358 48.9146 133.394 48.9146C132.43 48.9146 131.598 48.7532 130.898 48.4303C130.199 48.1074 129.627 47.6653 129.18 47.1027C128.735 46.5409 128.403 45.8714 128.186 45.0935C127.969 44.3163 127.86 43.4732 127.86 42.564V29.7199ZM129.524 42.6716C129.524 44.035 129.819 45.1652 130.41 46.0622C131.001 46.9592 131.996 47.4077 133.394 47.4077C134.792 47.4077 135.799 46.9592 136.414 46.0622C137.029 45.1652 137.336 44.035 137.336 42.6716V29.6123C137.336 28.2489 137.029 27.1187 136.414 26.2217C135.799 25.3247 134.792 24.8762 133.394 24.8762C131.996 24.8762 131.001 25.3247 130.41 26.2217C129.819 27.1187 129.524 28.2489 129.524 29.6123V42.6716Z" fill="white"/>
<path fill-rule="evenodd" clip-rule="evenodd" d="M22.3794 71.211C20.3105 69.2505 18.3878 68.8566 15.5291 68.8422C8.18119 68.8042 9.36027 73.772 16.2373 73.3214C18.5477 73.1707 20.9203 72.3756 22.3794 71.211ZM13.3012 42.0425C6.64477 35.6187 -0.287945 29.0362 0.00935731 20.1417C0.239387 13.24 6.29972 6.63892 15.532 6.52052C24.5278 6.4057 29.3063 13.6404 27.8133 19.948C27.4639 21.4248 26.1069 24.148 25.0037 24.6403C24.7997 24.2973 26.3658 22.5327 26.8758 19.8174C27.8936 14.4003 23.4782 7.47275 15.6072 7.72893C4.77126 8.08127 0.370316 17.3195 2.64963 24.8218C5.68993 34.8286 14.3797 39.208 21.7247 46.9307C25.9774 51.402 28.6639 55.7936 28.5236 60.6258C28.3724 65.8391 25.3119 69.4952 23.9187 70.9246C26.9959 74.0311 27.3026 77.5838 26.0642 81.4222C25.1397 84.2904 23.0369 87.1579 19.8512 88.8004C22.362 87.051 24.5306 84.3241 25.4826 81.344C26.5373 78.0417 26.143 74.3396 23.1201 71.7549C21.5699 73.1822 18.756 73.9916 16.1924 74.1538C7.87449 74.6819 6.56592 68.0313 15.0495 67.7708C19.4975 67.6359 21.4506 69.1931 23.2532 70.3857C25.9152 67.3589 27.0783 64.1643 26.8693 60.4507C26.6848 57.1685 25.1969 53.869 22.4452 50.7698C18.1412 46.536 17.5661 46.16 13.3012 42.0425Z" fill="url(#paint0_linear_1069_26)"/>
<path fill-rule="evenodd" clip-rule="evenodd" d="M19.7405 6.49181C19.6942 8.10495 19.6725 8.39844 19.6725 8.39844L20.5716 8.81321L20.7055 6.61524L19.7405 6.49181Z" fill="white"/>
<path fill-rule="evenodd" clip-rule="evenodd" d="M17.6254 40.3748L17.7693 47.1826L19.5213 50.5609L19.7043 41.9693L17.6254 40.3748Z" fill="white"/>
<path fill-rule="evenodd" clip-rule="evenodd" d="M18.2004 67.0949L18.2612 69.8281L19.101 69.8884L19.1712 66.6916L18.2004 67.0949Z" fill="white"/>
<path d="M39.3518 19.1888C41.0128 19.1888 42.2888 18.4888 43.2202 17.2742C43.3416 17.1099 43.3818 17.0064 43.3818 16.883C43.3818 16.636 43.1595 16.4309 42.896 16.4309C42.7746 16.4309 42.6532 16.4717 42.5112 16.636C41.7218 17.6446 40.7493 18.222 39.3518 18.222C37.0845 18.222 35.3629 16.3691 35.3629 14.0016C35.3629 11.6341 37.1042 9.80123 39.3724 9.80123C40.7493 9.80123 41.7414 10.3777 42.5317 11.3871C42.6532 11.5515 42.7942 11.5923 42.9157 11.5923C43.1595 11.5923 43.3818 11.3872 43.3818 11.1393C43.3818 11.0159 43.3613 10.9133 43.2398 10.749C42.329 9.53433 41.0128 8.83444 39.3724 8.83444C36.5371 8.83444 34.3101 11.1194 34.3101 14.0016C34.3101 16.883 36.5371 19.1888 39.3518 19.1888ZM49.1228 8.83444C46.3894 8.83444 44.2221 11.0985 44.2221 14.0216C44.2221 16.9247 46.4296 19.1888 49.3049 19.1888C50.6819 19.1888 51.8973 18.674 52.8697 17.6864C53.0519 17.5012 53.1126 17.3777 53.1126 17.2125C53.1126 16.9447 52.9304 16.7395 52.667 16.7395C52.525 16.7395 52.4241 16.8012 52.2821 16.9447C51.5329 17.7481 50.439 18.222 49.3049 18.222C47.0573 18.222 45.3973 16.5543 45.2758 14.2685H52.9099C53.335 14.2685 53.5377 14.0216 53.5377 13.5895V13.3425C53.5377 10.7281 51.6946 8.83444 49.1228 8.83444ZM49.1228 9.78126C51.1481 9.78126 52.525 11.2837 52.5045 13.3217H45.316C45.5991 11.2837 47.1386 9.78126 49.1228 9.78126ZM60.5949 8.83444C58.8536 8.83444 57.3748 9.69864 56.6461 10.975V9.34824C56.6461 9.03959 56.4238 8.81356 56.1398 8.81356C55.8558 8.81356 55.6335 9.03959 55.6335 9.34824V22.3797C55.6335 22.6683 55.8558 22.9153 56.1398 22.9153C56.4238 22.9153 56.6461 22.6883 56.6461 22.3797V17.0482C57.3748 18.3245 58.8536 19.1888 60.5949 19.1888C63.3488 19.1888 65.4553 16.9447 65.4553 14.0016C65.4553 11.0776 63.3283 8.83444 60.5949 8.83444ZM60.494 18.222C58.1856 18.222 56.6461 16.5335 56.6461 14.0016C56.6461 11.4897 58.1856 9.80123 60.494 9.80123C62.721 9.80123 64.4016 11.5923 64.4016 14.0216C64.4016 16.4309 62.7416 18.222 60.494 18.222ZM73.5448 13.7129C74.3351 13.2599 74.7798 12.4774 74.7798 11.5106C74.7798 9.98734 73.6466 9.0396 71.8241 9.0396H68.0369C67.753 9.0396 67.5101 9.28742 67.5101 9.57519V18.448C67.5101 18.7358 67.753 18.9836 68.0369 18.9836H72.0866C74.0922 18.9836 75.4281 17.8307 75.4281 16.1213C75.4281 14.9484 74.7602 14.0833 73.5448 13.7129ZM68.5433 9.98733H71.8035C73.0796 9.98733 73.7681 10.5429 73.7681 11.5723C73.7681 12.6835 73.0385 13.3217 71.8035 13.3217H68.5433V9.98733ZM72.0259 18.0358H68.5433V14.2685H72.0259C73.5046 14.2685 74.4155 14.9485 74.4155 16.1014C74.4155 17.2742 73.4841 18.0358 72.0259 18.0358ZM85.0982 8.83444C84.9357 8.83444 84.7946 8.91613 84.632 9.1222L78.658 17.2742V9.39C78.658 9.06047 78.4357 8.83444 78.1517 8.83444C77.8686 8.83444 77.6257 9.06047 77.6257 9.39V18.6332C77.6257 18.9627 77.8686 19.1888 78.1321 19.1888C78.3142 19.1888 78.4357 19.1071 78.5973 18.901L84.5919 10.8307V18.6332C84.5919 18.9627 84.8142 19.1888 85.0982 19.1888C85.3813 19.1888 85.6045 18.9627 85.6045 18.6332V9.39C85.6045 9.06047 85.3813 8.83444 85.0982 8.83444ZM92.743 19.1888C94.403 19.1888 95.6791 18.4888 96.6105 17.2742C96.7319 17.1099 96.7721 17.0064 96.7721 16.883C96.7721 16.636 96.5497 16.4309 96.2863 16.4309C96.1649 16.4309 96.0434 16.4717 95.9014 16.636C95.112 17.6446 94.1396 18.222 92.743 18.222C90.4748 18.222 88.7531 16.3691 88.7531 14.0016C88.7531 11.6341 90.4953 9.80123 92.7626 9.80123C94.1396 9.80123 95.1326 10.3777 95.922 11.3871C96.0434 11.5515 96.1854 11.5923 96.3068 11.5923C96.5497 11.5923 96.7721 11.3872 96.7721 11.1393C96.7721 11.0159 96.7524 10.9133 96.631 10.749C95.7193 9.53433 94.403 8.83444 92.7626 8.83444C89.9274 8.83444 87.7003 11.1194 87.7003 14.0016C87.7003 16.883 89.9274 19.1888 92.743 19.1888Z" fill="url(#paint1_linear_1069_26)"/>
<defs>
<linearGradient id="paint0_linear_1069_26" x1="38.37" y1="77.1763" x2="-9.37473" y2="17.7688" gradientUnits="userSpaceOnUse">
<stop stop-color="#B5922C"/>
<stop offset="0.341176" stop-color="#DAC46A"/>
<stop offset="0.501961" stop-color="#FFF7A9"/>
<stop offset="0.65098" stop-color="#DDBE5F"/>
<stop offset="1" stop-color="#BA8515"/>
</linearGradient>
<linearGradient id="paint1_linear_1069_26" x1="66.134" y1="23.3192" x2="64.9087" y2="8.41283" gradientUnits="userSpaceOnUse">
<stop stop-color="#B27D15"/>
<stop offset="0.388235" stop-color="#CEAE45"/>
<stop offset="0.568627" stop-color="#EBDF75"/>
<stop offset="0.74902" stop-color="#D5B144"/>
<stop offset="1" stop-color="#BE8212"/>
</linearGradient>
</defs>
</svg>
