<svg width="235" height="152" viewBox="0 0 235 152" fill="none" xmlns="http://www.w3.org/2000/svg">
<path fill-rule="evenodd" clip-rule="evenodd" d="M29.1234 2.13324C27.1202 6.80219 28.7198 16.7006 28.8078 20.9592C29.5795 57.9969 30.0895 83.6657 31.1449 131.169C31.1852 132.981 31.2916 134.759 31.3895 136.586V136.63L31.4311 137.364V137.37L31.4335 137.401L31.4347 137.439C31.4947 138.615 31.5485 139.815 31.5754 141.063L31.5839 140.762L31.5937 141.063C31.6194 139.815 31.6732 138.613 31.7331 137.439L31.7356 137.401L31.7368 137.37V137.364L31.7784 136.63V136.586C31.8774 134.759 31.9826 132.981 32.023 131.169C33.0784 83.6657 33.5883 57.9969 34.36 20.9592C34.4481 16.7006 36.0477 6.80219 34.0457 2.13324C33.411 0.651833 32.4963 -0.00643521 31.5839 0.0668414C30.6728 -0.00643521 29.7581 0.651833 29.1234 2.13324ZM31.5656 19.5792C29.4707 19.5597 29.05 4.97271 31.3137 4.05309C31.4726 3.98958 31.7246 3.99325 31.8823 4.0653C34.0971 5.09118 33.7265 19.5987 31.5656 19.5792Z" fill="#2B2A29"/>
<path d="M35.9058 62.7926L32.9707 67.4346L32.4681 87.4489L31.3344 87.0716L30.9247 26.7539L33.5957 19L32.9707 26.7539V62.7327L51.7113 31.8381H55.1857L38.1573 60.0459L56.6679 92.3719H53.1935L35.9058 62.7926ZM54.6781 50.581C54.6781 49.0336 54.8616 47.5986 55.2285 46.276C55.5954 44.9521 56.1555 43.8127 56.91 42.8564C57.6634 41.8989 58.6319 41.1466 59.8145 40.5971C60.9959 40.0475 62.4035 39.7727 64.0337 39.7727C65.6639 39.7727 67.0813 40.0475 68.2835 40.5971C69.4856 41.1466 70.4738 41.8989 71.2491 42.8564C72.0233 43.8127 72.5944 44.9521 72.9613 46.276C73.3281 47.5986 73.5116 49.0336 73.5116 50.581V72.4406C73.5116 73.988 73.3281 75.423 72.9613 76.7457C72.5944 78.0695 72.0233 79.209 71.2491 80.1652C70.4738 81.1227 69.4856 81.875 68.2835 82.4246C67.0813 82.9742 65.6639 83.249 64.0337 83.249C62.4035 83.249 60.9959 82.9742 59.8145 82.4246C58.6319 81.875 57.6634 81.1227 56.91 80.1652C56.1555 79.209 55.5954 78.0695 55.2285 76.7457C54.8616 75.423 54.6781 73.988 54.6781 72.4406V50.581ZM57.4909 72.6238C57.4909 74.9443 57.9899 76.8678 58.989 78.3944C59.9882 79.921 61.6697 80.6843 64.0337 80.6843C66.3977 80.6843 68.1 79.921 69.1395 78.3944C70.179 76.8678 70.6988 74.9443 70.6988 72.6238V50.3978C70.6988 48.0774 70.179 46.1539 69.1395 44.6273C68.1 43.1007 66.3977 42.3374 64.0337 42.3374C61.6697 42.3374 59.9882 43.1007 58.989 44.6273C57.9899 46.1539 57.4909 48.0774 57.4909 50.3978V72.6238ZM92.5285 82.8215H89.7157L80.6659 45.0242V82.8826H78.1588V40.1391H82.1945L91.1832 77.9364L100.11 40.1391H104.147V82.8826H101.455V44.9021L92.5285 82.8215ZM119.065 63.038L112.095 82.8826H109.037V40.1391H111.605V76.7151L116.558 62.6094L124.752 40.1391H128.115V82.8826H125.547V45.0853L119.065 63.038ZM141.445 42.7038L140.345 72.4406C140.264 73.9062 140.131 75.2703 139.947 76.5319C139.764 77.7947 139.407 78.8939 138.877 79.8294C138.348 80.7661 137.603 81.5086 136.645 82.0582C135.688 82.6078 134.413 82.9033 132.824 82.9436H132.273V80.379C133.496 80.379 134.444 80.1652 135.117 79.7378C135.789 79.3103 136.299 78.7412 136.645 78.028C136.993 77.316 137.216 76.4819 137.318 75.5244C137.419 74.5681 137.492 73.5606 137.532 72.5029L138.816 40.1391H154.776V82.8826H151.902V42.7038H141.445ZM167.8 57.7255C171.265 57.7255 173.792 58.5596 175.382 60.2291C176.972 61.8974 177.767 64.4425 177.767 67.8609V72.5029C177.767 74.0491 177.593 75.4645 177.247 76.7457C176.901 78.028 176.361 79.1271 175.627 80.0443C174.893 80.9591 173.945 81.6613 172.783 82.1498C171.622 82.6383 170.205 82.8826 168.534 82.8826H159.728V40.1391H162.541V57.7255H167.8ZM168.534 80.3179C170.939 80.3179 172.61 79.6266 173.548 78.2417C174.486 76.858 174.954 75.0053 174.954 72.6861V67.6777C174.954 65.0727 174.383 63.1907 173.242 62.0305C172.101 60.8703 170.286 60.2902 167.8 60.2902H162.541V80.3179H168.534ZM201.737 45.0853C205.242 45.0853 207.759 46.022 209.287 47.8942C210.816 49.7664 211.582 52.4129 211.582 55.8325V67.4945C211.582 70.9141 210.816 73.5606 209.287 75.4328C207.759 77.3062 205.242 78.2417 201.737 78.2417H198.25V82.8826H195.5V78.2417H192.014C188.508 78.2417 185.991 77.2952 184.463 75.4022C182.934 73.5093 182.17 70.8737 182.17 67.4945V55.8325C182.17 52.4532 182.934 49.8177 184.463 47.9247C185.991 46.0317 188.508 45.0853 192.014 45.0853H195.5V40.1391H198.25V45.0853H201.737ZM192.014 47.5889C189.446 47.5889 187.622 48.2911 186.542 49.6956C185.461 51.1001 184.921 53.0846 184.921 55.6493V67.6777C184.921 70.2436 185.461 72.2269 186.542 73.6314C187.622 75.0359 189.446 75.7381 192.014 75.7381H195.5V47.5889H192.014ZM201.737 75.7381C204.304 75.7381 206.128 75.0359 207.208 73.6314C208.289 72.2269 208.829 70.2436 208.829 67.6777V55.6493C208.829 53.0846 208.289 51.1001 207.208 49.6956C206.128 48.2911 204.304 47.5889 201.737 47.5889H198.25V75.7381H201.737ZM216.166 50.581C216.166 49.0336 216.35 47.5986 216.717 46.276C217.084 44.9521 217.645 43.8127 218.398 42.8564C219.153 41.8989 220.12 41.1466 221.303 40.5971C222.485 40.0475 223.892 39.7727 225.522 39.7727C227.152 39.7727 228.57 40.0475 229.772 40.5971C230.974 41.1466 231.963 41.8989 232.737 42.8564C233.513 43.8127 234.083 44.9521 234.45 46.276C234.816 47.5986 235 49.0336 235 50.581V72.4406C235 73.988 234.816 75.423 234.45 76.7457C234.083 78.0695 233.513 79.209 232.737 80.1652C231.963 81.1227 230.974 81.875 229.772 82.4246C228.57 82.9742 227.152 83.249 225.522 83.249C223.892 83.249 222.485 82.9742 221.303 82.4246C220.12 81.875 219.153 81.1227 218.398 80.1652C217.645 79.209 217.084 78.0695 216.717 76.7457C216.35 75.423 216.166 73.988 216.166 72.4406V50.581ZM218.979 72.6238C218.979 74.9443 219.478 76.8678 220.477 78.3944C221.477 79.921 223.158 80.6843 225.522 80.6843C227.886 80.6843 229.588 79.921 230.628 78.3944C231.667 76.8678 232.187 74.9443 232.187 72.6238V50.3978C232.187 48.0774 231.667 46.1539 230.628 44.6273C229.588 43.1007 227.886 42.3374 225.522 42.3374C223.158 42.3374 221.477 43.1007 220.477 44.6273C219.478 46.1539 218.979 48.0774 218.979 50.3978V72.6238Z" fill="#2B2A29"/>
<path fill-rule="evenodd" clip-rule="evenodd" d="M37.8357 121.196C34.338 117.859 31.0874 117.189 26.2543 117.164C13.8316 117.099 15.825 125.554 27.4516 124.787C31.3577 124.531 35.369 123.178 37.8357 121.196ZM22.4876 71.5531C11.234 60.6202 -0.486745 49.4174 0.0158882 34.2797C0.404787 22.5335 10.6507 11.2989 26.2592 11.0974C41.4679 10.902 49.5467 23.2149 47.0225 33.95C46.4318 36.4633 44.1376 41.0981 42.2726 41.9359C41.9277 41.3521 44.5754 38.349 45.4376 33.7277C47.1583 24.5083 39.6933 12.7181 26.3864 13.154C8.06658 13.7537 0.626141 29.4764 4.47966 42.2449C9.61973 59.2756 24.3111 66.729 36.7289 79.8724C43.9187 87.4822 48.4607 94.9564 48.2234 103.181C47.9678 112.053 42.7935 118.275 40.4381 120.708C45.6406 125.995 46.1591 132.042 44.0654 138.574C42.5025 143.456 38.9473 148.336 33.5615 151.132C37.8063 148.154 41.4727 143.513 43.0822 138.441C44.8652 132.821 44.1987 126.52 39.088 122.121C36.4672 124.55 31.7099 125.928 27.3758 126.204C13.313 127.103 11.1007 115.784 25.4435 115.341C32.9634 115.111 36.2654 117.761 39.313 119.791C43.8135 114.64 45.78 109.203 45.4266 102.883C45.1147 97.2964 42.5991 91.681 37.947 86.4063C30.6704 79.2007 29.6982 78.5608 22.4876 71.5531Z" fill="url(#paint0_linear_1_19)"/>
<path fill-rule="evenodd" clip-rule="evenodd" d="M33.3744 11.0486C33.2961 13.794 33.2594 14.2935 33.2594 14.2935L34.7795 14.9994L35.0058 11.2586L33.3744 11.0486Z" fill="#2B2A29"/>
<path fill-rule="evenodd" clip-rule="evenodd" d="M29.7984 68.7148L30.0418 80.3011L33.0038 86.0508L33.3132 71.4285L29.7984 68.7148Z" fill="#2B2A29"/>
<path fill-rule="evenodd" clip-rule="evenodd" d="M30.7707 114.19L30.8734 118.842L32.2933 118.945L32.4119 113.504L30.7707 114.19Z" fill="#2B2A29"/>
<path d="M68.6333 112.32C70.908 112.32 72.6556 111.378 73.9311 109.744C74.0974 109.523 74.1525 109.384 74.1525 109.218C74.1525 108.886 73.848 108.61 73.4872 108.61C73.3209 108.61 73.1546 108.664 72.9601 108.886C71.879 110.242 70.5472 111.019 68.6333 111.019C65.5282 111.019 63.1704 108.526 63.1704 105.341C63.1704 102.156 65.5551 99.6906 68.6614 99.6906C70.5472 99.6906 71.9059 100.466 72.9882 101.824C73.1546 102.045 73.3478 102.1 73.5141 102.1C73.848 102.1 74.1525 101.824 74.1525 101.491C74.1525 101.325 74.1244 101.187 73.958 100.966C72.7106 99.3315 70.908 98.3899 68.6614 98.3899C64.7786 98.3899 61.7285 101.464 61.7285 105.341C61.7285 109.218 64.7786 112.32 68.6333 112.32ZM82.0148 98.3899C78.2714 98.3899 75.3033 101.436 75.3033 105.368C75.3033 109.274 78.3264 112.32 82.2643 112.32C84.1501 112.32 85.8145 111.627 87.1463 110.299C87.3958 110.049 87.479 109.883 87.479 109.661C87.479 109.301 87.2295 109.025 86.8687 109.025C86.6743 109.025 86.5361 109.108 86.3416 109.301C85.3156 110.382 83.8175 111.019 82.2643 111.019C79.1861 111.019 76.9127 108.776 76.7464 105.7H87.2014C87.7835 105.7 88.0611 105.368 88.0611 104.787V104.455C88.0611 100.937 85.5369 98.3899 82.0148 98.3899ZM82.0148 99.6637C84.7885 99.6637 86.6743 101.685 86.6461 104.427H76.8014C77.1891 101.685 79.2974 99.6637 82.0148 99.6637ZM97.7261 98.3899C95.3413 98.3899 93.3161 99.5525 92.3182 101.27V99.0811C92.3182 98.6659 92.0137 98.3618 91.6248 98.3618C91.2359 98.3618 90.9314 98.6659 90.9314 99.0811V116.613C90.9314 117.001 91.2359 117.333 91.6248 117.333C92.0137 117.333 92.3182 117.028 92.3182 116.613V109.44C93.3161 111.157 95.3413 112.32 97.7261 112.32C101.498 112.32 104.383 109.301 104.383 105.341C104.383 101.408 101.47 98.3899 97.7261 98.3899ZM97.5879 111.019C94.4266 111.019 92.3182 108.748 92.3182 105.341C92.3182 101.962 94.4266 99.6906 97.5879 99.6906C100.638 99.6906 102.94 102.1 102.94 105.368C102.94 108.61 100.666 111.019 97.5879 111.019ZM115.461 104.953C116.544 104.344 117.153 103.291 117.153 101.99C117.153 99.9409 115.601 98.6659 113.105 98.6659H107.918C107.529 98.6659 107.197 98.9993 107.197 99.3865V111.323C107.197 111.71 107.529 112.044 107.918 112.044H113.464C116.211 112.044 118.041 110.493 118.041 108.193C118.041 106.615 117.126 105.451 115.461 104.953ZM108.612 99.9409H113.077C114.824 99.9409 115.767 100.688 115.767 102.073C115.767 103.568 114.768 104.427 113.077 104.427H108.612V99.9409ZM113.381 110.769H108.612V105.7H113.381C115.406 105.7 116.654 106.615 116.654 108.166C116.654 109.744 115.378 110.769 113.381 110.769ZM131.284 98.3899C131.061 98.3899 130.868 98.4998 130.645 98.777L122.464 109.744V99.1373C122.464 98.694 122.159 98.3899 121.771 98.3899C121.383 98.3899 121.05 98.694 121.05 99.1373V111.572C121.05 112.016 121.383 112.32 121.744 112.32C121.993 112.32 122.159 112.21 122.381 111.933L130.59 101.075V111.572C130.59 112.016 130.895 112.32 131.284 112.32C131.672 112.32 131.977 112.016 131.977 111.572V99.1373C131.977 98.694 131.672 98.3899 131.284 98.3899ZM141.754 112.32C144.027 112.32 145.775 111.378 147.05 109.744C147.216 109.523 147.272 109.384 147.272 109.218C147.272 108.886 146.967 108.61 146.606 108.61C146.44 108.61 146.274 108.664 146.079 108.886C144.998 110.242 143.666 111.019 141.754 111.019C138.647 111.019 136.289 108.526 136.289 105.341C136.289 102.156 138.675 99.6906 141.78 99.6906C143.666 99.6906 145.026 100.466 146.107 101.824C146.274 102.045 146.468 102.1 146.634 102.1C146.967 102.1 147.272 101.824 147.272 101.491C147.272 101.325 147.245 101.187 147.078 100.966C145.83 99.3315 144.027 98.3899 141.78 98.3899C137.898 98.3899 134.848 101.464 134.848 105.341C134.848 109.218 137.898 112.32 141.754 112.32Z" fill="url(#paint1_linear_1_19)"/>
<defs>
<linearGradient id="paint0_linear_1_19" x1="64.8703" y1="131.348" x2="-16.5022" y2="30.7694" gradientUnits="userSpaceOnUse">
<stop stop-color="#B5922C"/>
<stop offset="0.341176" stop-color="#DAC46A"/>
<stop offset="0.501961" stop-color="#FFF7A9"/>
<stop offset="0.65098" stop-color="#DDBE5F"/>
<stop offset="1" stop-color="#BA8515"/>
</linearGradient>
<linearGradient id="paint1_linear_1_19" x1="105.312" y1="117.877" x2="103.692" y2="97.818" gradientUnits="userSpaceOnUse">
<stop stop-color="#B27D15"/>
<stop offset="0.388235" stop-color="#CEAE45"/>
<stop offset="0.568627" stop-color="#EBDF75"/>
<stop offset="0.74902" stop-color="#D5B144"/>
<stop offset="1" stop-color="#BE8212"/>
</linearGradient>
</defs>
</svg>
