<svg width="16" height="14" viewBox="0 0 16 14" fill="none" xmlns="http://www.w3.org/2000/svg">
<path fill-rule="evenodd" clip-rule="evenodd" d="M15.9429 10.3531C15.8429 10.2012 15.5804 10.1088 15.1877 9.92254C14.7949 9.73603 12.8574 8.84277 12.4989 8.72255C12.1365 8.63576 11.874 8.53565 11.6114 8.90589C11.3511 9.27653 10.5959 10.1088 10.3655 10.3553C10.1365 10.6025 9.90727 10.6331 9.51344 10.4499C9.11983 10.2636 7.84986 9.87421 6.34563 8.61613C5.17572 7.63479 4.38504 6.44131 4.15691 6.05627C3.92566 5.68632 4.13357 5.4868 4.32887 5.30306C4.50499 5.13628 4.72207 4.87068 4.91945 4.69069C5.11673 4.4387 5.18197 4.28641 5.31328 4.03886C5.4423 3.7916 5.41572 3.5765 5.27993 3.3896C5.18197 3.20369 4.39598 1.38699 4.06635 0.647485C3.7387 -0.0920183 3.41116 0.0299828 3.18094 0.0299828C2.95167 0.0299828 2.68936 0 2.42674 0C2.16423 0 1.73767 0.0917223 1.3772 0.462362C1.01672 0.832606 0 1.72617 0 3.54543C0 5.36618 1.40898 7.1889 1.60637 7.36781C1.80469 7.65935 4.34127 11.469 8.33207 12.9491C12.3355 14.4277 12.3355 13.9336 13.0564 13.8705C13.7783 13.8094 15.4474 12.9772 15.7127 12.1158C16.041 11.2503 16.041 10.5072 15.9429 10.3531Z" fill="#D4AF41"/>
</svg>
