<svg width="29" height="22" viewBox="0 0 29 22" fill="none" xmlns="http://www.w3.org/2000/svg">
<path fill-rule="evenodd" clip-rule="evenodd" d="M27.554 0.611252C27.6387 0.194126 28.0286 -0.0715294 28.423 0.0170223C28.8174 0.107904 29.0683 0.520369 28.9835 0.937494L24.7558 21.3906C24.6813 21.7518 24.3784 22 24.0405 22H4.95877C4.59714 22 4.29654 21.7227 4.23777 21.358L0.0168526 0.937494C-0.0690349 0.520369 0.181847 0.107904 0.576251 0.0170223C0.970656 -0.0715294 1.36054 0.194126 1.4453 0.611252L5.54642 20.4515H23.4528L27.554 0.611252Z" fill="#2A4652"/>
<path fill-rule="evenodd" clip-rule="evenodd" d="M1.57625 5.38957C1.78984 5.38957 2.21814 4.88389 2.64871 4.37938C3.29513 3.6162 3.9438 2.85419 4.80607 2.85419C5.66947 2.85419 6.31814 3.6162 6.96569 4.37938C7.394 4.88389 7.82343 5.38957 8.03702 5.38957C8.25174 5.38957 8.68118 4.88389 9.11062 4.37938C9.75703 3.6162 10.4057 2.85419 11.268 2.85419C12.1314 2.85419 12.7789 3.6162 13.4276 4.37938C13.8559 4.88389 14.2865 5.38957 14.5001 5.38957C14.7136 5.38957 15.1431 4.88389 15.5725 4.37938C16.2189 3.6162 16.8676 2.85419 17.7299 2.85419C18.5933 2.85419 19.2408 3.6162 19.8884 4.37938C20.3178 4.88389 20.7472 5.38957 20.962 5.38957C21.1755 5.38957 21.605 4.88389 22.0333 4.37938C22.6808 3.6162 23.3295 2.85419 24.1929 2.85419C25.0552 2.85419 25.7027 3.6162 26.3503 4.37938C26.7797 4.88389 27.2091 5.38957 27.4239 5.38957V6.93806C26.5605 6.93806 25.9129 6.17489 25.2654 5.41404C24.8359 4.9072 24.4065 4.40268 24.1929 4.40268C23.9782 4.40268 23.5488 4.9072 23.1193 5.41404C22.4718 6.17489 21.8242 6.93806 20.962 6.93806C20.0986 6.93806 19.451 6.17489 18.8035 5.41404C18.374 4.9072 17.9446 4.40268 17.7299 4.40268C17.5163 4.40268 17.0869 4.9072 16.6585 5.41404C16.0099 6.17489 15.3623 6.93806 14.5001 6.93806C13.6367 6.93806 12.9891 6.17489 12.3416 5.41404C11.9121 4.9072 11.4827 4.40268 11.268 4.40268C11.0544 4.40268 10.6249 4.9072 10.1955 5.41404C9.54796 6.17489 8.90042 6.93806 8.03702 6.93806C7.17476 6.93806 6.52721 6.17489 5.87966 5.41404C5.45023 4.9072 5.02079 4.40268 4.80607 4.40268C4.59248 4.40268 4.16304 4.9072 3.73361 5.41287C3.08606 6.17489 2.43964 6.93806 1.57625 6.93806V5.38957Z" fill="#2A4652"/>
<path fill-rule="evenodd" clip-rule="evenodd" d="M17.9414 11.2666C18.5765 11.2666 18.8997 12.1055 18.8997 13.6948C18.8997 15.3283 18.5664 16.1439 17.9516 16.1439C17.347 16.1439 16.9718 15.3598 16.9718 13.7169C16.9718 12.0391 17.3673 11.2666 17.9414 11.2666ZM17.9618 9.99772C16.2101 9.99772 15.3863 11.6301 15.3863 13.7169C15.3964 15.7478 16.1683 17.4139 17.9199 17.4139C19.6411 17.4139 20.4853 15.8794 20.4853 13.6726C20.4853 11.707 19.7665 9.99772 17.9618 9.99772ZM10.9642 14.3239L10.9744 14.3018L11.8717 12.7335C12.1011 12.2814 12.2887 11.862 12.5079 11.3994H12.5384C12.5181 11.862 12.4966 12.3036 12.4966 12.7335V14.3239H10.9642ZM13.9985 17.2928V15.5823H14.802V14.3239H13.9985V10.1189H12.048L9.49393 14.4894V15.5823H12.4966V17.2928H13.9985Z" fill="#2A4652"/>
<path fill-rule="evenodd" clip-rule="evenodd" d="M21.7453 9.0097C21.6075 8.86405 21.4154 8.77433 21.204 8.77433C20.9916 8.77433 20.7995 8.86405 20.6616 9.0097L20.6605 9.01086C20.5226 9.1565 20.4367 9.36041 20.4367 9.58528C20.4367 9.81016 20.5226 10.0129 20.6605 10.1597H20.6616C20.7995 10.3065 20.9916 10.3962 21.204 10.3962C21.4154 10.3962 21.6075 10.3065 21.7453 10.1597H21.7465C21.8843 10.0129 21.9702 9.81016 21.9702 9.58528C21.9702 9.36041 21.8843 9.1565 21.7465 9.01086L21.7453 9.0097ZM21.204 8.25817C21.5487 8.25817 21.8629 8.40731 22.09 8.64617V8.64733L22.0912 8.6485C22.3172 8.88852 22.4584 9.21942 22.4584 9.58528C22.4584 9.95114 22.3172 10.2832 22.0912 10.5232H22.09V10.5244C21.8629 10.7644 21.5487 10.9136 21.204 10.9136C20.8582 10.9136 20.5441 10.7644 20.3169 10.5244V10.5232H20.3158C20.0898 10.2832 19.9485 9.95114 19.9485 9.58528C19.9485 9.21942 20.0898 8.88852 20.3158 8.6485L20.3169 8.64733V8.64617C20.5441 8.40731 20.8582 8.25817 21.204 8.25817Z" fill="#2A4652"/>
</svg>
