<svg width="29" height="28" viewBox="0 0 29 28" fill="none" xmlns="http://www.w3.org/2000/svg">
<path fill-rule="evenodd" clip-rule="evenodd" d="M27.555 7.40888C27.6398 7.00731 28.0297 6.75156 28.4229 6.83681C28.8185 6.92431 29.0682 7.32139 28.9835 7.72296L24.7568 27.4133C24.6822 27.7611 24.3793 28 24.0414 28H4.95787C4.59623 28 4.29673 27.733 4.23796 27.3819L0.0169053 7.72296C-0.0689853 7.32139 0.18077 6.92431 0.576319 6.83681C0.970737 6.75156 1.36063 7.00731 1.44426 7.40888L5.54667 26.5093H23.4537L27.555 7.40888Z" fill="#2A4652"/>
<path fill-rule="evenodd" clip-rule="evenodd" d="M1.57554 12.009C1.78913 12.009 2.21971 11.5222 2.64804 11.0365C3.29561 10.3018 3.94319 9.56818 4.80661 9.56818C5.67004 9.56818 6.31762 10.3018 6.96632 11.0365C7.39465 11.5222 7.8241 12.009 8.03769 12.009C8.25129 12.009 8.68074 11.5222 9.11019 11.0365C9.75889 10.3018 10.4064 9.56818 11.2687 9.56818C12.1322 9.56818 12.7798 10.3018 13.4273 11.0365C13.8568 11.5222 14.2862 12.009 14.501 12.009C14.7145 12.009 15.144 11.5222 15.5723 11.0365C16.2199 10.3018 16.8675 9.56818 17.7309 9.56818C18.5932 9.56818 19.2419 10.3018 19.8906 11.0365C20.3189 11.5222 20.7484 12.009 20.9631 12.009C21.1767 12.009 21.605 11.5222 22.0345 11.0365C22.6832 10.3018 23.3296 9.56818 24.1942 9.56818C25.0565 9.56818 25.704 10.3018 26.3527 11.0365C26.781 11.5222 27.2105 12.009 27.4241 12.009V13.4998C26.5607 13.4998 25.9142 12.765 25.2655 12.0326C24.8372 11.5446 24.4078 11.0589 24.1942 11.0589C23.9794 11.0589 23.55 11.5446 23.1205 12.0326C22.473 12.765 21.8254 13.4998 20.9631 13.4998C20.0985 13.4998 19.451 12.765 18.8034 12.0326C18.3751 11.5446 17.9456 11.0589 17.7309 11.0589C17.5162 11.0589 17.0879 11.5446 16.6584 12.0326C16.012 12.765 15.3632 13.4998 14.501 13.4998C13.6375 13.4998 12.9899 12.765 12.3412 12.0326C11.9129 11.5446 11.4835 11.0589 11.2687 11.0589C11.0551 11.0589 10.6257 11.5446 10.1962 12.0326C9.54867 12.765 8.90112 13.4998 8.03769 13.4998C7.1754 13.4998 6.52669 12.765 5.87912 12.0326C5.45079 11.5446 5.02134 11.0589 4.80661 11.0589C4.59302 11.0589 4.16357 11.5446 3.73411 12.0314C3.08654 12.765 2.43896 13.4998 1.57554 13.4998V12.009Z" fill="#2A4652"/>
<path fill-rule="evenodd" clip-rule="evenodd" d="M10.8325 7.31802L6.28367 13.8419C5.95028 14.3197 6.06103 14.9916 6.53116 15.3304C7.00017 15.6714 7.65904 15.5581 7.99356 15.0791L10.941 10.8514L11.271 11.0892L7.30193 16.7818C6.96741 17.2608 7.07928 17.9305 7.54942 18.2703C8.01843 18.6102 8.67616 18.498 9.01068 18.018L12.9786 12.3264L13.3086 12.5654L8.95757 18.8065C8.62305 19.2844 8.73493 19.9563 9.20393 20.295H9.20506C9.67294 20.6349 10.3318 20.5227 10.6664 20.0438L15.0185 13.8026L15.3474 14.0404L11.3783 19.733C11.0449 20.212 11.1568 20.8817 11.6258 21.2227C12.096 21.5625 12.7537 21.4492 13.0882 20.9692L18.6576 12.9815L19.0701 13.2799L17.3443 15.7555C17.0833 16.129 17.2562 16.7112 17.7252 17.0522C18.1965 17.392 18.7943 17.364 19.0542 16.9916L22.9091 11.4627C23.7895 10.1986 23.8743 8.63266 23.1352 7.27652L22.76 6.58891C22.5452 6.19407 22.5588 5.73081 22.8255 5.37074L23.2911 4.74595C23.4064 4.59116 23.4493 4.41505 23.4211 4.22212C23.3917 4.02918 23.299 3.87439 23.1419 3.76222L18.1219 0.127898C17.819 -0.0908341 17.3986 -0.0224102 17.1793 0.282693L15.9498 1.98432C15.7927 2.20417 15.5689 2.36009 15.3282 2.42515C14.4275 2.67304 13.7245 3.16996 13.1832 3.94506L10.8325 7.31802Z" fill="#2A4652"/>
</svg>
