<svg width="1119" height="67" viewBox="0 0 1119 67" fill="none" xmlns="http://www.w3.org/2000/svg">
<path d="M0 33.5C0 14.9985 14.9985 0 33.5 0H1085.5C1104 0 1119 14.9985 1119 33.5C1119 52.0015 1104 67 1085.5 67H33.5C14.9985 67 0 52.0015 0 33.5Z" fill="url(#paint0_linear_311_3986)" fill-opacity="0.5"/>
<path d="M33.5 1H1085.5C1103.45 1 1118 15.5507 1118 33.5C1118 51.4493 1103.45 66 1085.5 66H33.5C15.5507 66 1 51.4493 1 33.5C1 15.5507 15.5507 1 33.5 1Z" stroke="url(#paint1_linear_311_3986)" stroke-opacity="0.5" stroke-width="2"/>
<defs>
<linearGradient id="paint0_linear_311_3986" x1="0" y1="33.5" x2="1119" y2="33.5" gradientUnits="userSpaceOnUse">
<stop/>
<stop offset="1" stop-opacity="0"/>
</linearGradient>
<linearGradient id="paint1_linear_311_3986" x1="548.184" y1="103.5" x2="570.399" y2="11.8977" gradientUnits="userSpaceOnUse">
<stop stop-color="#CBD93D"/>
<stop offset="1" stop-color="#CBD93D" stop-opacity="0"/>
</linearGradient>
</defs>
</svg>
