<svg width="1047" height="88" viewBox="0 0 1047 88" fill="none" xmlns="http://www.w3.org/2000/svg">
<path fill-rule="evenodd" clip-rule="evenodd" d="M130.523 0.180012C133.14 0.130221 135.756 0.180012 138.37 0.329983C131.203 29.32 124.168 58.3644 117.265 87.4633C109.148 87.4633 101.031 87.4633 92.9133 87.4633C98.6144 62.8803 104.613 38.3849 110.907 13.9774C113.369 8.44913 117.2 4.59967 122.406 2.42958C125.085 1.38758 127.791 0.637724 130.523 0.180012Z" fill="url(#paint0_linear_311_3449)"/>
<path fill-rule="evenodd" clip-rule="evenodd" d="M25.8104 65.5689C25.6642 65.5869 25.5722 65.6868 25.5398 65.8689C46.1928 66.1688 66.8459 66.2687 87.5016 66.1688C85.31 78.545 78.5456 85.4935 67.2084 87.0148C49.6264 87.5061 32.039 87.606 14.4462 87.3148C9.60287 87.0037 5.50094 84.9542 2.13498 81.1659C0.232831 77.8588 -0.397611 74.2595 0.240948 70.368C4.54581 51.5775 9.14559 32.8812 14.0403 14.2788C17.1222 7.2688 22.1278 2.91964 29.0573 1.23126C33.1673 0.211455 37.3152 -0.0383975 41.5037 0.481403C36.1626 22.1456 30.9296 43.8414 25.8104 65.5689Z" fill="url(#paint1_linear_311_3449)"/>
<path fill-rule="evenodd" clip-rule="evenodd" d="M154.604 0.180138C159.567 0.130048 164.526 0.180138 169.486 0.330109C175.452 0.911098 180.187 3.86073 183.691 9.17841C188.813 18.6374 194.136 27.9356 199.655 37.0731C209.428 27.941 219.123 18.6929 228.742 9.32839C233.935 4.5518 239.887 1.55238 246.6 0.330109C252.101 0.180138 257.602 0.130048 263.105 0.180138C256.116 29.2731 249.171 58.3675 242.271 87.4634C236.343 88.0795 230.842 86.7298 225.766 83.4142C222.083 79.4667 220.866 74.7174 222.113 69.1669C224.702 58.4599 227.23 47.7618 229.689 37.0731C217.229 48.7879 204.691 60.3855 192.079 71.8664C183.123 57.6302 174.465 43.1328 166.104 28.3747C165.858 27.7931 165.452 27.4932 164.886 27.4749C166.234 32.0661 167.587 36.6651 168.945 41.2723C166.916 49.8752 164.886 58.4734 162.857 67.0673C160.857 77.5812 155.132 84.03 145.675 86.4136C141.655 87.3018 137.596 87.6518 133.499 87.4634C140.494 58.3513 147.529 29.2569 154.604 0.180138Z" fill="url(#paint2_linear_311_3449)"/>
<path fill-rule="evenodd" clip-rule="evenodd" d="M287.187 65.8689C287.219 65.6868 287.311 65.5869 287.457 65.5689C288.228 61.8523 289.04 58.1531 289.892 54.4711C304.863 54.5211 319.837 54.4711 334.808 54.3211C342.755 53.7425 349.113 49.9932 353.884 43.0732C357.958 35.7201 360.304 27.7219 360.918 19.0778C362.434 8.46407 358.421 2.31525 348.878 0.631376C331.028 0.138871 313.17 0.0389899 295.304 0.331434C292.53 0.710561 289.825 1.41033 287.187 2.43103C280.858 5.14791 276.664 10.097 274.605 17.2782C270.589 33.988 266.531 50.6849 262.429 67.3686C261.225 72.0456 261.585 76.5447 263.511 80.866C266.861 84.9728 271.055 87.1222 276.093 87.3148C292.509 87.5148 308.922 87.5148 325.338 87.3148C327.575 87.1765 329.783 86.8265 331.967 86.265C341.718 83.8024 347.447 77.1035 349.148 66.1688C328.493 66.2687 307.84 66.1688 287.187 65.8689ZM341.843 21.4774H298.01C296.998 25.3451 296.094 29.2444 295.304 33.1751H338.596C339.681 29.2708 340.763 25.3715 341.843 21.4774Z" fill="url(#paint3_linear_311_3449)"/>
<path fill-rule="evenodd" clip-rule="evenodd" d="M982.867 0.0430117C1003.88 -0.0559693 1024.9 0.0430117 1045.91 0.342954C1047.69 5.59195 1047.29 10.592 1044.69 15.3401C1042.5 17.8836 1039.84 19.5333 1036.71 20.2891C1034.84 20.751 1032.94 21.051 1031.03 21.189C1016.15 21.2879 1001.27 21.3899 986.384 21.4889C985.08 25.2202 984.087 29.0684 983.408 33.0367C996.577 32.9857 1009.74 33.0367 1022.91 33.1867C1027.8 33.3876 1031.9 35.4392 1035.22 39.3355C1036.89 42.1669 1037.52 45.2653 1037.12 48.6337C1035.58 55.6554 1033.95 62.653 1032.25 69.6297C1029.75 78.391 1024.48 83.841 1016.42 85.9765C1014.09 86.4894 1011.74 86.8884 1009.38 87.1763C989.45 87.3263 969.519 87.3773 949.586 87.3263C948.395 83.1601 948.26 78.9609 949.18 74.7287C951.139 70.4635 954.25 67.815 958.515 66.7802C960.209 66.3363 961.921 66.0364 963.656 65.8804C978.719 65.7304 993.779 65.6794 1008.84 65.7304C1009.64 61.9452 1010.54 58.1959 1011.55 54.4826C997.832 54.4676 984.125 54.2666 970.42 53.8827C966.356 53.3548 962.882 51.5042 960.003 48.3338C957.882 44.5305 957.251 40.4303 958.109 36.0361C959.643 29.7373 961.174 23.4385 962.709 17.1397C965.144 9.04129 970.06 3.79229 977.455 1.39275C979.29 0.906846 981.092 0.456932 982.867 0.0430117Z" fill="url(#paint4_linear_311_3449)"/>
<path fill-rule="evenodd" clip-rule="evenodd" d="M666.022 0.043133C671.715 -0.0828428 677.397 0.0671284 683.069 0.493047C689.773 1.88478 694.509 6.03298 697.274 12.9407C706.768 28.4957 716.195 44.0927 725.549 59.7317C725.855 59.2608 725.901 58.7599 725.684 58.232C724.456 54.1978 723.149 50.1995 721.761 46.2343C724.012 37.155 726.22 28.0578 728.39 18.9395C731.45 7.55969 738.35 1.31189 749.089 0.193104C751.884 -0.0078572 754.682 -0.0078572 757.477 0.193104C750.307 29.1886 743.272 58.232 736.372 87.3264C730.86 87.4464 725.36 87.2964 719.867 86.8765C713.138 85.4128 708.313 81.2646 705.391 74.4289C697.642 61.5913 689.841 48.7928 681.986 36.0362C677.63 53.052 673.482 70.1487 669.54 87.3264C661.423 87.3264 653.305 87.3264 645.188 87.3264C652.004 58.202 658.95 29.1076 666.022 0.043133Z" fill="url(#paint5_linear_311_3449)"/>
<path fill-rule="evenodd" clip-rule="evenodd" d="M887.894 32.1358C887.651 32.3487 887.559 32.6487 887.624 33.0356C900.252 33.0356 912.877 33.0356 925.504 33.0356C929.56 33.1586 933.348 34.3104 936.869 36.485C941.076 40.2852 942.475 45.1323 941.062 51.0322C939.39 57.9458 937.678 64.8445 935.922 71.7282C933.237 78.9028 928.502 83.5519 921.716 85.6755C919.238 86.4494 916.713 86.9503 914.14 87.1752C894.028 87.3252 873.914 87.3762 853.802 87.3252C853.198 84.6707 852.839 81.9712 852.719 79.2268C853.171 72.775 856.237 68.7258 861.919 67.0791C863.87 66.4852 865.856 66.0863 867.872 65.8793C882.997 65.8283 898.106 65.6784 913.193 65.4294C914.051 61.8271 914.906 58.2278 915.764 54.6315C902.776 54.3825 889.788 54.2326 876.801 54.1816C873.099 53.9056 869.671 52.7058 866.519 50.5823C862.647 46.908 861.251 42.2589 862.325 36.6349C863.905 29.9222 865.529 23.2245 867.195 16.5388C869.406 9.28916 873.778 4.44209 880.318 1.99156C882.607 1.13372 884.953 0.533839 887.353 0.191905C908.277 -0.00905692 929.203 -0.00905692 950.127 0.191905C953.36 11.0258 950.021 17.8225 940.115 20.588C938.673 20.789 937.228 20.9869 935.786 21.1879C920.723 21.2869 905.663 21.3888 890.6 21.4878C889.507 24.9702 888.606 28.5185 887.894 32.1358Z" fill="url(#paint6_linear_311_3449)"/>
<path fill-rule="evenodd" clip-rule="evenodd" d="M535.334 87.9263C527.212 88.1242 519.184 87.9233 511.253 87.3264C516.667 64.6237 522.122 41.9271 527.623 19.2394C530.656 8.42352 537.285 2.37668 547.51 1.09293C550.478 0.741995 553.455 0.592023 556.439 0.643014C549.526 29.8004 542.491 58.8948 535.334 87.9263Z" fill="url(#paint7_linear_311_3449)"/>
<path fill-rule="evenodd" clip-rule="evenodd" d="M418.445 87.0279C416.321 87.1268 414.246 87.0249 412.222 86.7279C417.636 64.0193 423.094 41.3256 428.592 18.641C431.69 7.33912 438.59 1.1903 449.291 0.194489C471.389 0.0445182 493.484 -0.00647201 515.582 0.0445182C516.115 2.35408 516.386 4.70263 516.394 7.09317C516.416 13.4639 513.71 17.6631 508.277 19.6908C505.804 20.4976 503.276 20.9955 500.701 21.1905C484.555 21.3404 468.413 21.3914 452.267 21.3404C451.407 25.2487 450.506 29.1479 449.562 33.0382C465.704 33.3381 481.849 33.4371 497.995 33.3381C498.98 37.4324 499.026 41.5326 498.13 45.6358C495.944 50.3269 492.472 53.0774 487.713 53.8842C486.53 54.0102 485.356 54.2111 484.195 54.4841C470.848 54.6341 457.498 54.685 444.15 54.6341C442.922 60.4829 441.523 66.2808 439.956 72.0307C436.855 79.8622 431.49 84.6103 423.857 86.278C422.063 86.6259 420.258 86.8779 418.445 87.0279Z" fill="url(#paint8_linear_311_3449)"/>
<path fill-rule="evenodd" clip-rule="evenodd" d="M585.12 87.0278C583.175 87.1238 581.281 87.0248 579.438 86.7279C583.908 67.7145 588.462 48.7162 593.102 29.7388C593.811 28.3531 594.847 27.4053 596.214 26.8894C602.25 25.2817 608.292 23.731 614.342 22.2403C614.342 21.9403 614.342 21.6404 614.342 21.3404C602.889 21.3914 591.433 21.3404 579.979 21.1905C568.155 19.8317 563.734 12.7831 566.721 0.044515C590.35 -0.00647521 613.983 0.044515 637.612 0.194486C649.39 1.49624 653.719 8.4459 650.6 21.0405C640.228 21.3404 629.857 21.4394 619.483 21.3404C615.736 37.3574 611.902 53.3533 607.984 69.3312C605.614 78.2575 600.337 83.8065 592.155 85.978C589.834 86.5359 587.49 86.8839 585.12 87.0278Z" fill="url(#paint9_linear_311_3449)"/>
<path fill-rule="evenodd" clip-rule="evenodd" d="M779.935 65.7305C779.967 65.5476 780.059 65.4486 780.205 65.4306C780.976 61.7173 781.788 58.016 782.64 54.3327C798.069 54.4677 813.491 54.3177 828.909 53.8828C836.101 53.022 841.918 49.4737 846.361 43.2348C851.253 34.4885 853.734 24.9414 853.802 14.5903C854.105 11.285 853.339 8.33353 851.502 5.74203C848.856 2.79359 845.655 1.04493 841.896 0.493035C823.776 0.00112922 805.647 -0.100851 787.511 0.193092C785.105 0.508032 782.762 1.10792 780.476 1.99275C774.207 4.54226 769.923 9.29035 767.623 16.24C763.167 34.1046 758.838 52.0022 754.636 69.9297C753.605 75.7276 755.182 80.3767 759.371 83.8771C762.637 85.9497 766.154 87.0505 769.923 87.1764C785.798 87.3774 801.67 87.3774 817.545 87.1764C820.478 87.0055 823.365 86.5046 826.203 85.6767C834.813 82.7823 839.954 76.4325 841.626 66.6304C821.154 66.1295 800.59 65.8295 779.935 65.7305ZM834.591 21.339H790.758C789.729 25.1963 788.828 29.0956 788.052 33.0368H831.344L834.591 21.339Z" fill="url(#paint10_linear_311_3449)"/>
<defs>
<linearGradient id="paint0_linear_311_3449" x1="10.9979" y1="88" x2="1047" y2="13.2284" gradientUnits="userSpaceOnUse">
<stop stop-color="#2C2E31" stop-opacity="0.6"/>
<stop offset="0.480769" stop-color="#40454B"/>
<stop offset="1" stop-color="#1F2328" stop-opacity="0.6"/>
</linearGradient>
<linearGradient id="paint1_linear_311_3449" x1="10.9979" y1="88" x2="1047" y2="13.2284" gradientUnits="userSpaceOnUse">
<stop stop-color="#2C2E31" stop-opacity="0.6"/>
<stop offset="0.480769" stop-color="#40454B"/>
<stop offset="1" stop-color="#1F2328" stop-opacity="0.6"/>
</linearGradient>
<linearGradient id="paint2_linear_311_3449" x1="10.9979" y1="88" x2="1047" y2="13.2284" gradientUnits="userSpaceOnUse">
<stop stop-color="#2C2E31" stop-opacity="0.6"/>
<stop offset="0.480769" stop-color="#40454B"/>
<stop offset="1" stop-color="#1F2328" stop-opacity="0.6"/>
</linearGradient>
<linearGradient id="paint3_linear_311_3449" x1="10.9979" y1="88" x2="1047" y2="13.2284" gradientUnits="userSpaceOnUse">
<stop stop-color="#2C2E31" stop-opacity="0.6"/>
<stop offset="0.480769" stop-color="#40454B"/>
<stop offset="1" stop-color="#1F2328" stop-opacity="0.6"/>
</linearGradient>
<linearGradient id="paint4_linear_311_3449" x1="10.9979" y1="88" x2="1047" y2="13.2284" gradientUnits="userSpaceOnUse">
<stop stop-color="#2C2E31" stop-opacity="0.6"/>
<stop offset="0.480769" stop-color="#40454B"/>
<stop offset="1" stop-color="#1F2328" stop-opacity="0.6"/>
</linearGradient>
<linearGradient id="paint5_linear_311_3449" x1="10.9979" y1="88" x2="1047" y2="13.2284" gradientUnits="userSpaceOnUse">
<stop stop-color="#2C2E31" stop-opacity="0.6"/>
<stop offset="0.480769" stop-color="#40454B"/>
<stop offset="1" stop-color="#1F2328" stop-opacity="0.6"/>
</linearGradient>
<linearGradient id="paint6_linear_311_3449" x1="10.9979" y1="88" x2="1047" y2="13.2284" gradientUnits="userSpaceOnUse">
<stop stop-color="#2C2E31" stop-opacity="0.6"/>
<stop offset="0.480769" stop-color="#40454B"/>
<stop offset="1" stop-color="#1F2328" stop-opacity="0.6"/>
</linearGradient>
<linearGradient id="paint7_linear_311_3449" x1="10.9979" y1="88" x2="1047" y2="13.2284" gradientUnits="userSpaceOnUse">
<stop stop-color="#2C2E31" stop-opacity="0.6"/>
<stop offset="0.480769" stop-color="#40454B"/>
<stop offset="1" stop-color="#1F2328" stop-opacity="0.6"/>
</linearGradient>
<linearGradient id="paint8_linear_311_3449" x1="10.9979" y1="88" x2="1047" y2="13.2284" gradientUnits="userSpaceOnUse">
<stop stop-color="#2C2E31" stop-opacity="0.6"/>
<stop offset="0.480769" stop-color="#40454B"/>
<stop offset="1" stop-color="#1F2328" stop-opacity="0.6"/>
</linearGradient>
<linearGradient id="paint9_linear_311_3449" x1="10.9979" y1="88" x2="1047" y2="13.2284" gradientUnits="userSpaceOnUse">
<stop stop-color="#2C2E31" stop-opacity="0.6"/>
<stop offset="0.480769" stop-color="#40454B"/>
<stop offset="1" stop-color="#1F2328" stop-opacity="0.6"/>
</linearGradient>
<linearGradient id="paint10_linear_311_3449" x1="10.9979" y1="88" x2="1047" y2="13.2284" gradientUnits="userSpaceOnUse">
<stop stop-color="#2C2E31" stop-opacity="0.6"/>
<stop offset="0.480769" stop-color="#40454B"/>
<stop offset="1" stop-color="#1F2328" stop-opacity="0.6"/>
</linearGradient>
</defs>
</svg>
