<svg width="335" height="103" viewBox="0 0 335 103" fill="none" xmlns="http://www.w3.org/2000/svg">
<path fill-rule="evenodd" clip-rule="evenodd" d="M301.154 58.022C312.245 57.9714 323.336 58.022 334.425 58.1754C335.366 60.8595 335.152 63.4164 333.783 65.8444C332.624 67.145 331.219 67.9886 329.57 68.3751C328.582 68.6113 327.582 68.7647 326.571 68.8353C318.718 68.8859 310.864 68.938 303.01 68.9886C302.322 70.8967 301.798 72.8645 301.44 74.8938C308.389 74.8677 315.338 74.8938 322.288 74.9705C324.865 75.0732 327.03 76.1223 328.785 78.1147C329.664 79.5626 329.997 81.147 329.784 82.8695C328.972 86.4601 328.115 90.0385 327.214 93.6061C325.899 98.0863 323.114 100.873 318.86 101.965C317.631 102.228 316.393 102.432 315.148 102.579C304.628 102.655 294.11 102.682 283.59 102.655C282.962 100.525 282.891 98.3777 283.376 96.2135C284.41 94.0325 286.052 92.6781 288.302 92.149C289.196 91.922 290.1 91.7686 291.016 91.6888C298.965 91.6121 306.913 91.5861 314.862 91.6121C315.283 89.6765 315.759 87.7593 316.29 85.8604C309.052 85.8527 301.818 85.75 294.585 85.5537C292.441 85.2837 290.607 84.3373 289.088 82.7161C287.968 80.7713 287.636 78.6746 288.088 76.4276C288.898 73.2066 289.706 69.9856 290.516 66.7646C291.801 62.6234 294.395 59.9392 298.298 58.7122C299.266 58.4637 300.217 58.2337 301.154 58.022Z" fill="url(#paint0_linear_311_5610)"/>
<path fill-rule="evenodd" clip-rule="evenodd" d="M133.941 58.0221C136.946 57.9576 139.945 58.0343 142.937 58.2521C146.476 58.9638 148.975 61.085 150.434 64.6174C155.445 72.5717 160.42 80.5474 165.356 88.5446C165.518 88.3038 165.542 88.0477 165.428 87.7777C164.779 85.7148 164.09 83.6702 163.357 81.6425C164.545 76.9997 165.71 72.3477 166.856 67.685C168.471 61.8658 172.112 58.6709 177.779 58.0987C179.254 57.996 180.731 57.996 182.206 58.0987C178.422 72.926 174.709 87.7777 171.068 102.656C168.159 102.717 165.256 102.64 162.358 102.425C158.806 101.677 156.26 99.5557 154.718 96.0602C150.628 89.4956 146.512 82.9509 142.366 76.4276C140.067 85.1289 137.878 93.8715 135.798 102.656C131.514 102.656 127.23 102.656 122.946 102.656C126.543 87.7624 130.209 72.8846 133.941 58.0221Z" fill="url(#paint1_linear_311_5610)"/>
<path fill-rule="evenodd" clip-rule="evenodd" d="M251.033 74.4331C250.904 74.542 250.856 74.6954 250.89 74.8932C257.554 74.8932 264.217 74.8932 270.881 74.8932C273.022 74.9561 275.021 75.5451 276.879 76.6571C279.099 78.6004 279.837 81.079 279.092 84.096C278.21 87.6314 277.306 91.1591 276.379 94.6792C274.962 98.348 272.464 100.725 268.882 101.811C267.574 102.207 266.242 102.463 264.884 102.578C254.27 102.655 243.655 102.681 233.041 102.655C232.722 101.298 232.532 99.9171 232.47 98.5137C232.708 95.2145 234.326 93.1439 237.325 92.3018C238.354 91.9981 239.402 91.7941 240.466 91.6883C248.448 91.6622 256.422 91.5855 264.384 91.4582C264.837 89.6161 265.288 87.7756 265.741 85.9366C258.887 85.8092 252.033 85.7326 245.178 85.7065C243.225 85.5654 241.416 84.9519 239.752 83.8659C237.709 81.987 236.972 79.6096 237.539 76.7338C238.373 73.3011 239.23 69.8762 240.109 66.4573C241.276 62.7501 243.583 60.2715 247.035 59.0184C248.243 58.5797 249.481 58.273 250.747 58.0981C261.79 57.9954 272.833 57.9954 283.876 58.0981C285.582 63.6382 283.82 67.1138 278.592 68.528C277.831 68.6307 277.069 68.7319 276.308 68.8347C268.358 68.8853 260.41 68.9375 252.461 68.9881C251.884 70.7688 251.409 72.5833 251.033 74.4331Z" fill="url(#paint2_linear_311_5610)"/>
<path fill-rule="evenodd" clip-rule="evenodd" d="M64.9716 102.962C60.685 103.064 56.4482 102.961 52.2629 102.656C55.1202 91.0462 57.999 79.44 60.902 67.8384C62.5028 62.3075 66.0012 59.2153 71.3974 58.5589C72.9638 58.3794 74.5346 58.3027 76.1096 58.3288C72.4612 73.2389 68.7486 88.1167 64.9716 102.962Z" fill="url(#paint3_linear_311_5610)"/>
<path fill-rule="evenodd" clip-rule="evenodd" d="M3.28426 102.503C2.16332 102.553 1.0681 102.501 0 102.349C2.85732 90.7371 5.73747 79.1324 8.63906 67.5323C10.2741 61.753 13.9153 58.6087 19.5629 58.0995C31.2249 58.0228 42.8855 57.9967 54.5476 58.0228C54.8289 59.2038 54.9716 60.4048 54.9759 61.6272C54.9874 64.885 53.5594 67.0323 50.6921 68.0691C49.3869 68.4817 48.0532 68.7363 46.6938 68.836C38.1733 68.9127 29.6542 68.9388 21.1336 68.9127C20.6795 70.9113 20.204 72.9052 19.7057 74.8945C28.2248 75.0479 36.7453 75.0985 45.2659 75.0479C45.7857 77.1415 45.8099 79.2382 45.3373 81.3365C44.1835 83.7353 42.3514 85.1418 39.8397 85.5544C39.2157 85.6188 38.596 85.7216 37.9834 85.8612C30.9393 85.9379 23.8938 85.9639 16.8498 85.9379C16.2015 88.9288 15.4632 91.8936 14.6365 94.8339C13 98.8386 10.1684 101.267 6.14016 102.119C5.19344 102.297 4.24099 102.426 3.28426 102.503Z" fill="url(#paint4_linear_311_5610)"/>
<path fill-rule="evenodd" clip-rule="evenodd" d="M91.2458 102.503C90.2191 102.552 89.2195 102.501 88.2471 102.349C90.6061 92.6268 93.0093 82.9117 95.4583 73.2074C95.8324 72.4987 96.3793 72.0141 97.1004 71.7502C100.286 70.9281 103.475 70.1352 106.668 69.3729C106.668 69.2195 106.668 69.0661 106.668 68.9127C100.623 68.9388 94.5772 68.9127 88.5327 68.836C82.2926 68.1412 79.9593 64.5368 81.5358 58.0228C94.006 57.9967 106.478 58.0228 118.948 58.0995C125.164 58.7651 127.449 62.3189 125.802 68.7593C120.329 68.9127 114.855 68.9633 109.381 68.9127C107.403 77.1032 105.38 85.2829 103.312 93.4535C102.061 98.0181 99.2766 100.856 94.9585 101.966C93.7333 102.251 92.4967 102.429 91.2458 102.503Z" fill="url(#paint5_linear_311_5610)"/>
<path fill-rule="evenodd" clip-rule="evenodd" d="M194.058 91.6122C194.075 91.5186 194.124 91.468 194.201 91.4588C194.608 89.56 195.036 87.6673 195.486 85.7838C203.628 85.8528 211.767 85.7761 219.904 85.5537C223.699 85.1135 226.769 83.299 229.114 80.1087C231.696 75.6362 233.005 70.7541 233.041 65.461C233.201 63.7707 232.797 62.2615 231.827 60.9363C230.431 59.4285 228.741 58.5343 226.758 58.2521C217.195 58.0006 207.628 57.9484 198.056 58.0987C196.787 58.2598 195.55 58.5665 194.343 59.019C191.035 60.3227 188.775 62.7507 187.561 66.3046C185.209 75.4399 182.924 84.592 180.707 93.7595C180.163 96.7244 180.995 99.1017 183.206 100.892C184.929 101.952 186.785 102.514 188.775 102.579C197.152 102.682 205.529 102.682 213.906 102.579C215.454 102.491 216.978 102.235 218.476 101.812C223.02 100.332 225.733 97.0848 226.615 92.0723C215.811 91.8162 204.959 91.6628 194.058 91.6122ZM222.902 68.912H199.77C199.227 70.8845 198.752 72.8784 198.342 74.8938H221.189L222.902 68.912Z" fill="url(#paint6_linear_311_5610)"/>
<path fill-rule="evenodd" clip-rule="evenodd" d="M83.0141 0.00981687C84.3976 -0.0163746 85.781 0.00981689 87.163 0.0887068C83.3732 15.3384 79.6535 30.6167 76.0038 45.9238C71.7118 45.9238 67.4198 45.9238 63.1278 45.9238C66.1423 32.9923 69.314 20.1069 72.6418 7.26769C73.9437 4.35965 75.9695 2.3347 78.7221 1.19317C80.1385 0.645039 81.5691 0.250589 83.0141 0.00981687Z" fill="url(#paint7_linear_311_5610)"/>
<path fill-rule="evenodd" clip-rule="evenodd" d="M27.6472 34.4066C27.5699 34.4161 27.5213 34.4686 27.5041 34.5644C38.4244 34.7221 49.3447 34.7747 60.2664 34.7221C59.1076 41.2325 55.5309 44.8876 49.5364 45.6878C40.2399 45.9463 30.9406 45.9988 21.6384 45.8456C19.0775 45.682 16.9086 44.6039 15.1289 42.6111C14.1231 40.8715 13.7898 38.9781 14.1274 36.9311C16.4036 27.0466 18.8357 17.2117 21.4238 7.42623C23.0533 3.73876 25.7001 1.45095 29.364 0.562808C31.5372 0.0263569 33.7304 -0.105074 35.9451 0.168359C33.1209 11.5645 30.354 22.9772 27.6472 34.4066Z" fill="url(#paint8_linear_311_5610)"/>
<path fill-rule="evenodd" clip-rule="evenodd" d="M95.7469 0.00988343C98.3708 -0.0164658 100.993 0.00988343 103.616 0.0887734C106.77 0.394393 109.274 1.946 111.127 4.74328C113.835 9.71902 116.649 14.6102 119.568 19.4168C124.735 14.613 129.861 9.74821 134.947 4.82217C137.693 2.30952 140.84 0.731726 144.39 0.0887734C147.298 0.00988343 150.207 -0.0164658 153.117 0.00988343C149.421 15.3137 145.749 30.6184 142.101 45.9238C138.966 46.2479 136.057 45.5379 133.373 43.7938C131.426 41.7173 130.783 39.219 131.442 36.2992C132.811 30.667 134.147 25.0394 135.448 19.4168C128.86 25.5792 122.23 31.6799 115.562 37.7193C110.826 30.2306 106.248 22.6044 101.827 14.8412C101.697 14.5353 101.482 14.3775 101.183 14.3678C101.896 16.783 102.611 19.2022 103.329 21.6257C102.256 26.1512 101.183 30.6741 100.11 35.1948C99.0532 40.7254 96.0259 44.1177 91.0257 45.3716C88.8997 45.8388 86.7537 46.0229 84.5877 45.9238C88.286 30.6099 92.0057 15.3052 95.7469 0.00988343Z" fill="url(#paint9_linear_311_5610)"/>
<path fill-rule="evenodd" clip-rule="evenodd" d="M165.85 34.5644C165.867 34.4686 165.915 34.416 165.993 34.4066C166.4 32.4515 166.83 30.5056 167.28 28.5687C175.196 28.5951 183.113 28.5687 191.029 28.4898C195.231 28.1855 198.593 26.2132 201.116 22.5731C203.27 18.7051 204.511 14.4978 204.835 9.95071C205.636 4.36751 203.515 1.13303 198.469 0.24725C189.031 -0.0118246 179.588 -0.0643653 170.142 0.08947C168.675 0.288904 167.245 0.657004 165.85 1.19393C162.503 2.6231 160.286 5.22647 159.197 9.00403C157.074 17.7939 154.928 26.5771 152.759 35.3533C152.122 37.8135 152.313 40.1802 153.331 42.4534C155.102 44.6137 157.32 45.7443 159.984 45.8456C168.664 45.9509 177.342 45.9509 186.022 45.8456C187.205 45.7729 188.373 45.5888 189.527 45.2934C194.683 43.998 197.712 40.4742 198.612 34.7221C187.69 34.7747 176.77 34.7221 165.85 34.5644ZM194.749 11.2129H171.572C171.037 13.2475 170.559 15.2987 170.142 17.3664H193.032C193.606 15.3125 194.178 13.2614 194.749 11.2129Z" fill="url(#paint10_linear_311_5610)"/>
<defs>
<linearGradient id="paint0_linear_311_5610" x1="-211.743" y1="103" x2="334.817" y2="62.2895" gradientUnits="userSpaceOnUse">
<stop stop-color="#2C2E31" stop-opacity="0.6"/>
<stop offset="0.480769" stop-color="#40454B"/>
<stop offset="1" stop-color="#1F2328" stop-opacity="0.6"/>
</linearGradient>
<linearGradient id="paint1_linear_311_5610" x1="-211.743" y1="103" x2="334.817" y2="62.2895" gradientUnits="userSpaceOnUse">
<stop stop-color="#2C2E31" stop-opacity="0.6"/>
<stop offset="0.480769" stop-color="#40454B"/>
<stop offset="1" stop-color="#1F2328" stop-opacity="0.6"/>
</linearGradient>
<linearGradient id="paint2_linear_311_5610" x1="-211.743" y1="103" x2="334.817" y2="62.2895" gradientUnits="userSpaceOnUse">
<stop stop-color="#2C2E31" stop-opacity="0.6"/>
<stop offset="0.480769" stop-color="#40454B"/>
<stop offset="1" stop-color="#1F2328" stop-opacity="0.6"/>
</linearGradient>
<linearGradient id="paint3_linear_311_5610" x1="-211.743" y1="103" x2="334.817" y2="62.2895" gradientUnits="userSpaceOnUse">
<stop stop-color="#2C2E31" stop-opacity="0.6"/>
<stop offset="0.480769" stop-color="#40454B"/>
<stop offset="1" stop-color="#1F2328" stop-opacity="0.6"/>
</linearGradient>
<linearGradient id="paint4_linear_311_5610" x1="-211.743" y1="103" x2="334.817" y2="62.2895" gradientUnits="userSpaceOnUse">
<stop stop-color="#2C2E31" stop-opacity="0.6"/>
<stop offset="0.480769" stop-color="#40454B"/>
<stop offset="1" stop-color="#1F2328" stop-opacity="0.6"/>
</linearGradient>
<linearGradient id="paint5_linear_311_5610" x1="-211.743" y1="103" x2="334.817" y2="62.2895" gradientUnits="userSpaceOnUse">
<stop stop-color="#2C2E31" stop-opacity="0.6"/>
<stop offset="0.480769" stop-color="#40454B"/>
<stop offset="1" stop-color="#1F2328" stop-opacity="0.6"/>
</linearGradient>
<linearGradient id="paint6_linear_311_5610" x1="-211.743" y1="103" x2="334.817" y2="62.2895" gradientUnits="userSpaceOnUse">
<stop stop-color="#2C2E31" stop-opacity="0.6"/>
<stop offset="0.480769" stop-color="#40454B"/>
<stop offset="1" stop-color="#1F2328" stop-opacity="0.6"/>
</linearGradient>
<linearGradient id="paint7_linear_311_5610" x1="19.8151" y1="46.2062" x2="567.572" y2="6.46884" gradientUnits="userSpaceOnUse">
<stop stop-color="#2C2E31" stop-opacity="0.6"/>
<stop offset="0.480769" stop-color="#40454B"/>
<stop offset="1" stop-color="#1F2328" stop-opacity="0.6"/>
</linearGradient>
<linearGradient id="paint8_linear_311_5610" x1="19.8151" y1="46.2062" x2="567.572" y2="6.46884" gradientUnits="userSpaceOnUse">
<stop stop-color="#2C2E31" stop-opacity="0.6"/>
<stop offset="0.480769" stop-color="#40454B"/>
<stop offset="1" stop-color="#1F2328" stop-opacity="0.6"/>
</linearGradient>
<linearGradient id="paint9_linear_311_5610" x1="19.8151" y1="46.2062" x2="567.572" y2="6.46884" gradientUnits="userSpaceOnUse">
<stop stop-color="#2C2E31" stop-opacity="0.6"/>
<stop offset="0.480769" stop-color="#40454B"/>
<stop offset="1" stop-color="#1F2328" stop-opacity="0.6"/>
</linearGradient>
<linearGradient id="paint10_linear_311_5610" x1="19.8151" y1="46.2062" x2="567.572" y2="6.46884" gradientUnits="userSpaceOnUse">
<stop stop-color="#2C2E31" stop-opacity="0.6"/>
<stop offset="0.480769" stop-color="#40454B"/>
<stop offset="1" stop-color="#1F2328" stop-opacity="0.6"/>
</linearGradient>
</defs>
</svg>
