<svg width="122" height="34" viewBox="0 0 122 34" fill="none" xmlns="http://www.w3.org/2000/svg">
<path d="M90.4347 7.6775C87.239 7.78154 84.3753 8.53061 82.0719 9.82067H78.2743L79.4572 7.82316H68.6872L67.5044 9.82067H61.611C59.9301 8.55141 57.4192 7.86477 54.2442 7.86477C51.007 7.86477 47.749 8.57222 44.8646 9.82067H39.8842L41.0671 7.76073H31.8534L22.3908 0.852661L0 17.1657L6.18392 21.6809L3.13346 26.9244H13.2602L22.37 33.4579L34.1983 24.8228H37.145C38.8259 26.1545 41.4406 26.862 44.7816 26.862C48.2055 26.862 51.5673 26.1129 54.5347 24.8228H58.4152L57.2324 26.7995H80.6608C83.3792 26.7995 86.4919 26.1337 89.1688 24.8228H95.9753C95.2698 26.0089 94.7925 26.7995 94.7925 26.7995H105.936C105.936 26.7995 112.12 16.375 112.763 15.3138C113.697 15.3138 116.747 15.3554 116.747 15.3554L121.105 7.63589C121.105 7.6775 91.3892 7.6567 90.4347 7.6775Z" fill="#67686A" fill-opacity="0.6"/>
<mask id="mask0_311_4058" style="mask-type:luminance" maskUnits="userSpaceOnUse" x="4" y="8" width="116" height="19">
<path d="M29.5614 26.0052L39.3948 8.35171H30.1618C30.1618 8.35171 26.3941 14.6233 26.2492 14.8979C25.9593 14.8979 20.7425 14.8979 19.873 14.8979C20.3492 14.1165 23.7856 8.35171 23.7856 8.35171H14.7183L4.65723 26.0052H13.9523C13.9523 26.0052 16.2295 21.8452 16.3123 21.6974C16.4572 21.6129 23.8685 17.9809 25.2969 17.284C24.4895 18.6777 20.2871 26.0052 20.2871 26.0052M53.2856 16.9673C53.2442 17.0517 53.2028 17.1362 53.1614 17.2207C52.1678 18.9734 49.8699 20.2192 47.5513 20.2192C46.392 20.2192 45.5639 19.9025 45.2327 19.3535C45.1292 19.1634 45.0878 18.9522 45.0878 18.7411C45.0878 18.361 45.2327 17.9809 45.3983 17.6641L45.4604 17.5374C46.4541 15.7848 48.8141 14.4966 51.0913 14.4966C52.2299 14.4966 53.0372 14.8134 53.3685 15.3835C53.5962 15.7848 53.5548 16.3549 53.2856 16.9673ZM61.7113 17.4318C62.3944 16.186 62.7464 15.0246 62.7464 13.9476C62.7464 13.1663 62.56 12.4272 62.1874 11.7726C61.0074 9.70318 58.0678 8.52065 54.093 8.52065C46.9716 8.52065 39.7674 12.1527 36.9727 17.1573C35.772 19.3112 35.5857 21.2751 36.4551 22.7955C37.6144 24.8227 40.5955 25.9841 44.653 25.9841C51.8779 25.9841 58.8958 22.4576 61.7113 17.4318ZM67.5078 26.0052L77.7137 8.35171H69.0811L58.8751 26.0052H67.5078ZM95.3309 14.2644L98.8502 8.35171C98.8502 8.35171 91.2527 8.28837 90.2176 8.30949C84.7316 8.47842 80.26 10.7168 78.252 14.2644C77.693 15.2568 77.6102 16.1649 77.9828 16.9673C78.5211 18.0865 79.9702 18.8889 82.0611 19.1845L83.7793 19.5857C84.0485 19.6491 84.5246 19.7758 84.6074 19.8814C84.4211 20.1559 83.593 20.3671 82.7028 20.3671H74.0702L70.4267 26.0052H80.4464C85.1871 26.0052 91.1699 23.7668 93.4471 19.6913C94.0267 18.6566 94.1509 17.8331 93.8404 17.1362C93.3435 16.0593 91.853 15.5736 89.6172 15.1724L87.7955 14.8345C87.5885 14.7923 87.133 14.7078 86.9467 14.6022L87.0709 14.4966C87.4642 14.2221 88.1888 14.2855 88.8099 14.2855H95.3309V14.2644ZM119.241 8.35171L101.831 8.39395L98.519 14.2644C98.519 14.2644 102.121 14.2644 102.928 14.2644C102.432 15.109 96.1383 25.9841 96.1383 25.9841H105.164C105.164 25.9841 111.81 14.5389 111.975 14.2644C112.286 14.2644 115.929 14.2644 115.929 14.2644L119.241 8.35171Z" fill="white"/>
</mask>
<g mask="url(#mask0_311_4058)">
<path d="M119.241 8.30518H4.65723V26.0052H119.241V8.30518Z" fill="white" fill-opacity="0.6"/>
</g>
</svg>
