<svg width="112" height="73" viewBox="0 0 112 73" fill="none" xmlns="http://www.w3.org/2000/svg">
<path d="M110.892 57.2091C110.543 57.5557 110.077 57.7579 109.582 57.7579C109.087 57.7579 108.621 57.5846 108.272 57.2091C107.923 56.8336 107.748 56.4003 107.748 55.8803C107.748 55.3604 107.923 54.9271 108.301 54.5805C108.651 54.2338 109.116 54.0316 109.611 54.0316C110.106 54.0316 110.572 54.2049 110.921 54.5805C111.271 54.9271 111.474 55.3604 111.474 55.8803C111.474 56.4003 111.3 56.8336 110.921 57.2091M108.476 54.7827C108.156 55.1004 108.01 55.4759 108.01 55.9092C108.01 56.3425 108.156 56.718 108.476 57.0358C108.796 57.3535 109.175 57.498 109.611 57.498C110.048 57.498 110.426 57.3246 110.747 57.0358C111.067 56.718 111.212 56.3425 111.212 55.9092C111.212 55.4759 111.067 55.1004 110.747 54.7827C110.426 54.4649 110.048 54.3205 109.611 54.3205C109.175 54.3205 108.796 54.4649 108.476 54.7827ZM109.582 54.8982C109.844 54.8982 110.019 54.8982 110.135 54.956C110.339 55.0426 110.455 55.216 110.455 55.4759C110.455 55.6492 110.397 55.7937 110.252 55.8803C110.193 55.9381 110.077 55.967 109.961 55.967C110.106 55.9959 110.252 56.0536 110.31 56.1692C110.368 56.2847 110.426 56.3714 110.426 56.4869V56.6314C110.426 56.6314 110.426 56.718 110.426 56.7758C110.426 56.8336 110.426 56.8625 110.426 56.8913H110.077C110.077 56.8913 110.077 56.8913 110.077 56.8625V56.6314C110.077 56.4003 110.019 56.2559 109.873 56.1692C109.786 56.1114 109.669 56.1114 109.466 56.1114H109.175V56.8913H108.825V54.8693H109.553L109.582 54.8982ZM109.961 55.2159C109.961 55.2159 109.728 55.1293 109.524 55.1293H109.233V55.8514H109.553C109.699 55.8514 109.815 55.8514 109.902 55.7937C110.048 55.7359 110.106 55.6204 110.106 55.4759C110.106 55.3315 110.048 55.2159 109.961 55.1871" fill="white" fill-opacity="0.6"/>
<path d="M109.611 0V9.59541L106.699 10.7433V5.50412L104.669 6.32826L104.699 51.1265L106.375 51.8329V55.8947L98.6089 52.8631V48.9484L100.492 49.5665V7.85882L98.4619 8.56523V13.6867L95.6377 14.6286L95.6671 5.53355L109.611 0Z" fill="white" fill-opacity="0.6"/>
<path d="M94.247 6.70946V14.7229L91.0234 15.7875V10.317L88.6575 10.9084V18.4192C88.6575 18.6557 88.6575 18.9514 88.7758 19.3063C89.8109 22.2042 94.7202 28.887 95.5187 31.0456C95.5778 31.223 95.637 31.6961 95.637 31.8439C95.637 34.8305 95.637 48.1075 95.637 49.9408C95.637 50.8279 94.6906 51.3602 93.9512 51.2123C92.5021 50.9166 88.3913 49.8225 86.7352 49.3494C86.3803 49.2311 85.7001 48.5806 85.7001 47.6935C85.7001 45.387 85.7001 39.2365 85.7001 39.2365L89.1898 40.0053V46.0671L91.467 46.629V32.938C91.467 32.7902 91.4079 32.3762 91.3783 32.2579C90.5798 30.188 85.8184 23.3574 84.6946 20.7552C84.4876 20.2821 84.458 19.8385 84.458 19.4837C84.458 17.266 84.458 11.8251 84.458 9.57775C84.458 8.77936 85.1974 7.92183 85.8776 7.68527C87.2675 7.18258 91.1121 6.02935 92.9753 5.61537C93.6259 5.46752 94.2766 5.97021 94.2766 6.67989" fill="white" fill-opacity="0.6"/>
<path d="M21.1454 7.44161V11.2635L19.8515 10.9401C19.8515 10.9401 21.8067 31.5782 21.893 31.5194L23.4456 11.7632L22.2955 11.4987V7.7062L28.5635 9.02915V12.7922L27.3272 12.557L23.7044 49.4233L20.0241 50.3053L15.7112 9.79352L14.5898 9.47013V5.58948L21.2029 7.44161H21.1454Z" fill="white" fill-opacity="0.6"/>
<path d="M40.9761 10.7311L41.0061 18.8394L38.0684 18.5446V14.1808L35.8501 13.9154V25.0312H39.6871V29.1297H35.8501V43.754L38.2183 43.4887V36.884L41.6056 36.5597V46.8794L29.4951 48.4421V44.668L31.4436 44.3732V13.2963L29.9747 13.0604V9.3158L40.9761 10.7311Z" fill="white" fill-opacity="0.6"/>
<path d="M64.3932 11.179V14.8592L62.6113 14.9468V42.5191L65.1482 42.6359V35.5676L68.6213 35.7428V46.579L56.8731 46.024V42.3438L58.3228 42.373V15.0928L56.5107 15.122V11.4418L64.3932 11.179Z" fill="white" fill-opacity="0.6"/>
<path d="M56.5108 42.4519C55.3737 42.4519 55.3438 41.5509 55.3438 41.5509C55.3438 39.5745 55.3438 33.0933 55.3438 31.0879C55.3438 28.7045 53.8477 28.1523 53.8477 28.1523C54.4761 27.6873 55.284 26.9607 55.3139 25.7981C55.3139 24.4902 55.3139 18.6775 55.3139 15.5385C55.2241 14.3469 54.9848 12.0218 51.2445 11.7021C50.0177 11.5568 42.5371 11.179 42.5371 11.179V14.841L44.4821 14.9863V42.8297L43.0458 42.9169V46.579L50.0775 46.1721V42.51L48.5515 42.5681V30.0997H51.5138V41.8997C51.6035 44.6607 51.7831 46.2302 56.4809 46.0849V42.4519M48.5814 25.5656V15.2188L51.2744 15.306V25.5656H48.5814Z" fill="white" fill-opacity="0.6"/>
<path d="M84.458 44.6895L83.1324 44.4277L78.5371 9.3158L75.0612 9.81033L70.9372 42.6822L69.5527 42.5659V46.2313L76.2395 47.0167V43.3222L75.1201 43.1768L75.5325 38.2896L78.1836 38.6387L78.596 43.6422L77.3883 43.4677V47.1912L84.458 48.4421V44.6895ZM75.9155 34.1006L76.8875 23.6864L77.948 34.3915L75.9155 34.1297V34.1006Z" fill="white" fill-opacity="0.6"/>
<path d="M13.1678 5.12368V13.8281L10.0515 13.013V7.94753L7.62779 7.07418V23.6679H12.0713V28.2967H7.57008V49.7521L10.0804 48.8497V40.611L13.6583 39.3883V51.5571L0.616211 56.8263V52.6924L2.9534 51.6153V5.21102L0.616211 4.13388V0L13.1678 5.12368Z" fill="white" fill-opacity="0.6"/>
<path d="M83.5265 57.648C83.0604 57.618 82.6234 57.588 82.1573 57.5581C82.1573 57.5581 79.8558 57.4681 78.6613 57.4981C68.9309 57.7079 60.0746 60.5551 53.374 65.0207C52.937 65.3204 52.4126 65.2604 52.1795 65.1405C51.1016 64.721 45.9451 62.7129 45.7994 62.653C45.6246 62.5631 45.1876 62.5331 45.5372 62.0236C46.353 60.9147 47.7805 60.1355 48.9167 59.4462C50.8394 58.3073 53.0827 57.4082 55.1511 56.6889C54.5684 56.7489 54.3062 56.7489 53.9275 56.7788C52.937 56.8987 51.9465 57.0486 50.956 57.2583C47.897 57.9177 44.6341 58.9067 41.9248 60.5851C41.4878 60.8548 40.9051 60.615 40.9051 60.615L37.0013 59.1764C37.0013 59.1764 36.3604 58.9667 37.0304 58.577C41.4878 56.0895 46.7026 54.3812 52.3543 53.5121C53.0244 53.4222 53.6653 53.3322 54.3354 53.2423C53.7819 53.2124 52.5291 53.1225 52.4417 53.1225C51.4803 53.0925 50.519 53.0925 49.5576 53.1225C41.0508 53.3023 33.214 55.4901 26.9214 59.0266C26.6592 59.1764 26.6301 59.5361 26.834 59.626C29.6599 60.9747 54.0732 72.6031 54.1023 72.6031C54.3936 72.753 54.7432 72.6031 54.918 72.3634C59.7832 65.7699 68.1152 60.7349 78.1369 58.5171C79.8849 58.1275 81.6911 57.8278 83.5265 57.618" fill="white" fill-opacity="0.6"/>
</svg>
