<svg width="177" height="41" viewBox="0 0 177 41" fill="none" xmlns="http://www.w3.org/2000/svg">
<path fill-rule="evenodd" clip-rule="evenodd" d="M159.561 40.9067H160.679C160.708 40.5677 160.797 40.4601 160.867 40.1558H159.84C159.765 40.4837 159.698 40.6455 159.561 40.9067ZM0 23.4597C0 25.2012 0.111017 26.3609 1.02971 27.958C2.55238 30.6082 5.26975 33.0535 7.80379 34.5584C8.28453 34.8442 8.66239 35.1126 9.13905 35.3728C9.61469 35.6309 10.07 35.9157 10.569 36.1862L13.5889 37.6511C14.4292 38.0138 19.2304 39.9858 20.143 40.0626L17.886 38.6745C16.2411 37.564 15.1431 36.7691 13.7315 35.3492C13.4056 35.0204 12.1487 33.7573 12.0296 33.3086H177V31.4328C170.031 31.4328 163.358 31.5271 156.391 31.5271C107.897 31.5271 59.4043 31.5271 10.9113 31.5271C10.8084 31.0825 10.1647 29.9546 10.1647 28.6187C10.1647 25.8814 10.3857 24.8048 11.9909 22.4824C12.2119 22.1628 12.4563 21.8913 12.7038 21.6055C12.8749 21.4067 12.8963 21.335 13.0776 21.1373C13.2263 20.9754 13.3414 20.8751 13.4993 20.7163C15.7206 18.4851 18.6234 16.6739 21.4182 15.2684C21.8276 15.0624 22.127 14.9129 22.5365 14.7059C25.9505 12.9798 32.2805 10.7537 35.883 9.74463C36.7151 9.51208 37.6328 9.23446 38.5148 9.01523C44.6676 7.48269 48.5644 6.69183 55.0869 5.61105C57.1769 5.2648 61.6369 4.61121 63.8776 4.41657C64.8299 4.33359 65.9045 4.22398 66.9046 4.08363L73.7653 3.48127C75.4448 3.39624 77.8872 3.19443 79.363 3.2016C79.9985 3.20467 80.2145 3.1012 80.851 3.10325C83.4747 3.11452 86.4895 2.91783 89.0592 2.91783C98.7024 2.91885 108.708 2.74265 118.077 3.74659C122.726 4.24447 125.813 4.66551 130.27 5.55369C130.905 5.67969 131.592 5.81389 132.237 5.91941C132.834 6.01775 133.723 6.28206 134.289 6.29537C134.27 6.28206 134.239 6.2421 134.23 6.26054C134.221 6.27898 134.183 6.23288 134.17 6.22674C134.152 6.21752 134.07 6.17654 134.045 6.16527C133.953 6.12737 133.788 6.07922 133.691 6.05156L129.047 4.7198C127.259 4.22705 125.398 3.77733 123.557 3.39419C120.169 2.68836 115.337 1.84013 111.823 1.50309C110.881 1.41192 109.722 1.27977 108.804 1.16196C107.734 1.02468 106.615 1.01034 105.633 0.880239C104.201 0.691744 96.5116 0.308607 94.4685 0.197969C93.9022 0.167236 93.2615 0.23997 92.7013 0.192847C91.9283 0.128307 88.6925 0.0565974 85.1634 0.010498H75.1861C74.9305 0.0217668 74.7461 0.0340599 74.6442 0.0504508L68.5444 0.293241C67.3945 0.281972 63.514 0.590325 61.9221 0.667157L58.1974 0.955022C57.844 0.981657 57.1657 1.03595 56.7532 1.09639C55.7561 1.24186 54.8394 1.22137 53.8341 1.34943C50.0504 1.83501 46.5416 2.07882 42.6316 2.7447C38.5841 3.43312 35.9909 3.85928 31.9475 4.75463C25.4912 6.18269 17.9695 8.53683 11.9685 11.5794C11.5794 11.7771 11.2474 11.8713 10.8807 12.0793C10.4967 12.2975 10.2686 12.4348 9.85404 12.6417C6.0927 14.5123 0 18.9512 0 23.4597ZM124.683 14.6434C124.381 15.9496 122.397 22.0091 121.873 23.7291C121.649 24.4657 120.215 28.9793 120.207 29.3696H126.176C126.583 27.6076 127.907 23.3572 128.487 21.2828L129.252 18.4892C129.72 18.6141 131.939 21.8093 132.463 22.4824L135.633 26.6098C136.008 27.0923 136.346 27.499 136.701 27.9754C137.055 28.4528 137.418 28.8881 137.739 29.3696H144.454L149.023 14.6434H143.054C142.99 15.421 140.225 24.311 140.164 25.0547C139.84 24.9677 139.282 24.1235 139.058 23.8223C138.711 23.3572 138.418 22.9598 138.059 22.4814L132.49 15.1393C132.14 14.6568 132.166 14.5492 131.678 14.5492C129.239 14.5492 127.118 14.6434 124.683 14.6434ZM68.6361 23.8357C68.6361 25.358 68.6239 26.0331 69.6851 27.0954C71.6325 29.0418 74.961 29.5571 77.9615 29.5571H88.2199C89.7334 29.5571 90.9098 29.4628 92.4162 29.4628L94.666 21.6885C95.0276 20.4468 95.0775 20.6384 93.8156 20.6456C89.6132 20.6691 85.6553 20.7398 81.4122 20.7398C81.2421 21.0963 81.127 21.5614 80.9997 22.0132C80.8602 22.5111 80.683 22.8922 80.573 23.3665H88.2199C88.1853 23.7916 87.8573 24.6521 87.7208 25.1152C87.619 25.4594 87.567 25.6673 87.4621 25.9808C87.3888 26.2 87.289 26.6395 87.1943 26.8372C84.6246 26.8372 82.3523 26.743 79.8274 26.743C78.3078 26.743 77.6346 26.7573 76.6487 26.1888C73.8019 24.5456 75.9276 19.6867 78.427 18.3939C78.8069 18.1972 79.1196 18.023 79.5809 17.8663C82.5438 16.8562 85.966 17.2691 89.2456 17.2691C91.5464 17.2691 93.8461 17.2691 96.1469 17.2691C96.3568 16.3614 96.6827 15.5511 96.8925 14.6434C93.784 14.6434 90.6755 14.6434 87.5671 14.6434C84.5553 14.6434 81.1352 14.4191 78.5441 14.9477C75.9316 15.4804 73.7816 16.3051 72.0145 17.7598C70.4714 19.0311 68.6361 21.7581 68.6361 23.8357ZM162.638 26.6487H155.271C155.285 25.9849 157.555 17.7475 157.603 17.1758L166.182 17.0816C167.848 17.0816 170.379 17.8376 170.379 19.8015C170.379 21.5399 169.533 23.9924 168.206 25.1213C166.905 26.2297 165.006 26.6487 162.638 26.6487ZM152.567 14.6434L149.582 25.6171C149.397 26.325 148.65 28.8564 148.65 29.3696H161.146C166.154 29.3696 172.084 28.7775 175.056 24.9748C176.267 23.4249 176.626 21.71 176.626 19.5208C176.626 15.7027 170.745 14.5492 167.487 14.5492H158.069C156.125 14.5492 154.505 14.6434 152.567 14.6434ZM44.3895 23.8357C44.3895 26.6436 46.8737 28.0256 49.0635 28.7017C49.8192 28.9353 50.8693 29.216 51.7605 29.2723C55.8263 29.5325 60.3098 29.3696 64.5335 29.3696C64.5947 28.629 65.1701 27.6609 65.1864 26.9305H55.3008C53.1864 26.9305 50.5444 26.3455 50.5444 24.3038C50.5444 23.8592 50.6493 23.6267 50.7308 23.2722H66.3047C66.4524 22.9639 67.0187 21.042 67.0513 20.6466H51.6637C52.0273 19.0751 54.1326 17.7546 55.8335 17.4299C57.3765 17.1349 66.0185 17.2691 68.0769 17.2691C68.247 16.5345 68.8072 15.2724 68.8225 14.5492H57.3521C54.4595 14.5492 50.8652 15.4271 48.6652 16.974C47.0906 18.0814 45.5618 19.656 44.913 21.5471C44.7022 22.1587 44.3895 23.0868 44.3895 23.8357ZM95.9606 23.3665C95.9606 24.3837 95.8791 24.5773 96.2763 25.5803C97.2653 28.0768 101.262 29.0264 103.59 29.2928C105.221 29.4792 113.658 29.3696 116.011 29.3696C116.098 28.9885 116.255 28.4825 116.37 28.1372C116.477 27.8186 116.638 27.1794 116.756 26.9305C113.896 26.9305 111.036 26.9305 108.177 26.9305C106.5 26.9305 102.022 26.9868 102.022 24.3981C102.022 23.9883 102.175 23.6646 102.208 23.2722H117.782C117.943 22.968 118.518 21.081 118.529 20.6466H103.141C103.258 20.1385 103.758 19.5044 104.096 19.1684C105.65 17.6204 107.202 17.2691 109.669 17.2691C112.963 17.2691 116.259 17.2691 119.554 17.2691C119.744 16.8716 119.864 16.2795 120.008 15.8502C120.254 15.1208 120.55 14.5492 120.113 14.5492H109.016C105.301 14.5492 101.943 15.6228 99.6099 17.3756L98.1982 18.6766C97.2917 19.8629 95.9606 21.5901 95.9606 23.3665ZM25.0858 25.0547C25.0858 26.1765 25.0451 26.9509 25.9475 27.8463C27.6117 29.4956 30.048 29.5786 32.363 29.6472C33.2675 29.6749 33.6555 29.7876 34.9745 29.7476C35.4705 29.7323 35.6762 29.6462 36.2751 29.6493L40.287 29.5571C41.2607 29.5591 41.9584 29.4628 42.9911 29.4628C43.1785 27.1927 43.4627 27.4929 41.499 27.4939C39.736 27.4939 33.3846 27.6414 32.3467 27.3197C29.5917 26.4643 30.7945 23.9637 31.2936 22.1996L33.3795 14.9907C33.4569 14.6998 33.5221 14.5492 33.1992 14.5492H28.1637C27.7981 14.5492 27.6962 15.4046 27.6229 15.6945L26.5249 19.655C26.253 20.6138 25.0858 24.3673 25.0858 25.0547ZM86.6351 35.2785C86.4396 36.1206 85.5738 38.3877 85.2 39.4633C85.0666 39.8475 84.8008 40.5328 84.7692 40.9067H86.6351C86.6932 40.1948 87.7799 37.5917 87.8471 36.7793C88.2301 37.0621 88.665 38.3375 88.9349 38.8753C89.1243 39.2554 89.2955 39.5535 89.4594 39.9417C89.9544 41.1086 89.5297 40.9067 91.7633 40.9067C92.0556 40.9067 92.0627 40.6629 92.1676 40.3751L92.9407 38.151C93.1393 37.5466 93.8981 35.675 93.9083 35.1853C91.7949 35.1853 92.1727 35.0081 91.8448 36.0172C91.6706 36.5529 91.1237 38.8405 90.7377 39.1242C90.6552 38.7688 90.426 38.402 90.2712 38.0926L89.3077 36.0602C88.8239 35.0829 89.0867 35.0204 86.6351 35.2785ZM147.531 37.3417C147.531 39.7604 153.126 37.6501 153.126 39.031C153.126 40.1026 151.588 39.8752 150.515 39.8752C149.334 39.8752 148.153 39.8752 146.971 39.8752C146.944 40.204 146.806 40.665 146.691 40.9067C148.432 40.9067 150.175 40.8975 151.914 40.9067C152.805 40.9119 153.512 40.7695 154.057 40.4355C155.231 39.7174 156.12 37.6019 152.661 37.6224C152.07 37.6255 151.478 37.6204 150.888 37.6245C150.337 37.6276 149.583 37.69 149.583 37.1543C149.583 36.431 150.44 36.3101 151.168 36.3101H155.644C155.656 35.7877 155.819 35.802 155.83 35.2785H150.328C149.162 35.2785 147.531 36.011 147.531 37.3417ZM126.455 37.3417C126.455 39.7604 132.05 37.6501 132.05 39.031C132.05 40.1026 130.512 39.8752 129.439 39.8752C128.258 39.8752 127.077 39.8752 125.895 39.8752C125.862 40.2798 125.718 40.4714 125.709 40.9067H131.305C133.908 40.9067 135.722 37.5978 131.586 37.6224C130.994 37.6255 130.402 37.6204 129.812 37.6245C129.261 37.6276 128.507 37.69 128.507 37.1543C128.507 36.1575 130.093 36.3101 131.117 36.3101C132.268 36.3101 133.418 36.3101 134.568 36.3101C134.596 35.9813 134.733 35.5203 134.848 35.2785C133.107 35.2785 131.365 35.2888 129.624 35.2775C128.172 35.2683 126.455 35.9454 126.455 37.3417ZM105.939 38.8436C105.939 40.2214 107.156 40.9067 108.363 40.9067H112C112.322 40.9067 112.441 40.2757 112.466 39.9684C111.158 39.9684 107.897 40.3925 107.897 39.1242C107.897 38.7708 107.959 38.947 107.99 38.5618H112.933C113.054 38.3078 113.205 37.896 113.213 37.5302H108.363C108.847 36.8039 109.205 36.3163 110.411 36.306C111.498 36.2978 112.592 36.3101 113.678 36.3101C113.766 35.9362 113.926 35.676 113.959 35.2785C112.432 35.2785 109.759 35.0859 108.494 35.5982C107.156 36.1401 105.939 37.519 105.939 38.8436ZM28.3501 41H30.215C30.273 40.3003 30.7589 39.4613 30.7742 38.7493H36.0897C36.1712 38.4 36.2761 38.0486 36.2761 37.6235H31.2406C31.6827 36.7834 32.1807 36.303 33.3825 36.3071C34.617 36.3112 35.5591 36.2169 36.8363 36.2169C36.8852 36.0028 37.0349 35.4476 37.1154 35.2785C35.9349 35.2785 34.7535 35.2785 33.572 35.2785C32.031 35.2785 31.5482 35.2724 30.6255 35.9731C29.3686 36.9258 28.7066 39.4582 28.3501 41ZM65.2791 36.3101H67.8905L67.257 38.5813C67.036 39.3773 66.762 40.1405 66.5848 40.9067H68.4497C68.5067 40.2183 69.7055 36.9094 69.7554 36.3101H72.4596C72.5746 36.0694 72.7121 35.6074 72.7396 35.2785H65.5592C65.4726 35.6535 65.3117 35.9127 65.2791 36.3101ZM48.6795 40.9067H51.0108C51.0495 40.4345 52.5579 35.7477 52.5967 35.2785H50.358C50.2164 35.5766 50.0422 36.2425 49.9312 36.6318L48.6795 40.9067ZM170.192 40.9067H171.311C171.625 40.247 171.752 39.2963 172.057 38.6551H173.269C173.208 39.3926 172.78 40.1989 172.616 40.9067H173.829C174.002 40.162 174.301 39.4346 174.482 38.6551C174.866 38.6551 175.694 38.5967 175.694 38.9368C175.694 39.66 175.19 40.2398 175.135 40.9067H176.253C176.373 40.3915 176.74 39.5115 176.837 38.9614C176.956 38.2842 176.205 37.9984 175.414 37.9984H171.311C170.966 37.9984 170.894 38.6489 170.67 39.324C170.534 39.7358 170.226 40.4919 170.192 40.9067ZM167.767 40.2501C166.671 40.2501 166.584 39.2841 167.221 38.8558C167.421 38.7227 168.98 38.1879 168.98 39.4992C168.98 39.9141 168.262 40.2501 167.767 40.2501ZM165.53 39.5934C165.53 40.8709 167.952 41.378 169.445 40.4365C171.706 39.0126 168.903 37.0037 166.524 38.3416C166.119 38.569 165.53 39.0372 165.53 39.5934ZM161.612 39.5934C161.612 41.1506 163.42 40.9067 164.969 40.9067C165.03 40.6486 165.097 40.414 165.156 40.1558C164.199 40.1558 162.824 40.4109 162.824 39.5934C162.824 38.4358 164.54 38.6551 165.716 38.6551C165.746 38.2914 165.799 38.4112 165.809 37.9984C164.56 37.9984 161.612 37.6767 161.612 39.5934Z" fill="white" fill-opacity="0.6"/>
</svg>
