<svg width="232" height="25" viewBox="0 0 232 25" fill="none" xmlns="http://www.w3.org/2000/svg">
<path fill-rule="evenodd" clip-rule="evenodd" d="M31.4191 20.0931H27.2469V12.791C25.7401 12.791 23.8853 12.791 22.2618 12.6754V20.0931H17.9729V12.791C17.8291 11.1041 17.6183 9.36094 17.3935 7.68699L18.2053 7.69131C18.4377 7.69131 17.7416 0.157959 24.6971 0.157959C31.3045 0.621566 30.8397 4.56169 31.3045 9.43119C31.3034 13.6004 31.4191 17.8896 31.4191 20.0931ZM170.291 20.0931V1.08409H174.351L180.956 7.11099V0.968461H184.898V20.0931H180.494V13.1368L174.581 8.0382V20.0931H170.291ZM197.186 15.8028V8.96542H201.243V20.0931H193.709C193.709 20.0931 187.1 19.0481 187.1 10.4719C187.1 -1.69755 201.359 1.08517 201.359 1.08517C201.359 5.95251 201.242 5.37327 201.242 5.37327C201.242 5.37327 191.736 2.93852 191.506 10.4719C191.275 16.9613 197.186 15.8028 197.186 15.8028ZM223.964 0.968461H219.676V8.26947H218.401L219.676 12.6754V20.2076H223.848V12.6754H227.673V20.0931H231.963V0.968461H228.022V8.3851H223.964V0.968461ZM124.272 1.31644V4.79403C124.272 4.79403 119.52 3.98245 119.634 6.4172C119.75 9.19776 126.125 10.9366 124.735 15.8039C123.46 20.441 119.403 20.0942 119.403 20.0942H115.461V15.8039C115.461 15.8039 120.329 16.3853 120.446 14.4142C120.446 11.6325 115.577 10.1261 115.345 6.41828C114.996 3.521 116.737 1.43315 119.519 1.08625C122.071 0.620486 124.272 1.31644 124.272 1.31644ZM0.931641 0.620486H5.33841V7.69023H9.74301V0.620486H13.7996V20.2076H9.62736V13.0212H5.10602V21.8286L0.931641 24.379L0.931641 0.620486ZM57.2695 20.0931L59.9361 0.968461H62.8339L66.6602 8.73307L70.8335 0.968461H73.5001L75.7019 20.0931H71.4129L70.3699 10.7042L66.6602 16.9613L62.6026 10.7042L60.9791 20.0931H57.2695ZM35.1287 20.0931L37.6796 0.968461H40.5785L44.4027 8.73307L48.6916 0.968461H51.3582L53.4454 20.0931H49.271L48.2279 10.7042L44.4027 16.9613L40.4628 10.7042L38.8383 20.0931H35.1287ZM126.938 0.968461V5.14093H131.113V20.0931H135.516V5.25656H139.922V0.968461H126.938ZM204.141 0.968461V5.14093H208.315V20.0931H212.719V5.25656H217.242V0.968461H204.141ZM166.119 1.08409H157.08V8.3851H156.035L156.847 11.6303V19.9764H166.003V16.3842H160.672V12.5586H166.467V8.61744H160.904V5.02421H166.119V1.08409ZM149.66 7.69023C149.66 9.42902 148.035 10.125 145.951 10.125V5.0253C148.267 5.02422 149.66 5.95251 149.66 7.69023ZM142.124 1.08409V20.0909H146.181V15.4538L149.658 20.0909H154.528L150.469 14.064C150.469 14.064 154.294 11.9772 154.294 7.92041C154.294 4.32718 151.281 1.08193 148.035 1.08193L142.124 1.08409ZM88.452 1.19972H79.4115V8.50073H78.483L79.2947 11.7471V20.0931H88.452V16.4998H83.0043V12.6754H88.8V8.73307H83.2367V5.14093H88.452V1.19972ZM99.9288 7.69023C99.9288 9.42902 98.3064 10.125 96.2192 10.125V5.0253C98.5366 5.02422 99.9288 5.95251 99.9288 7.69023ZM92.394 1.08409V20.0909H96.4516V15.4538L99.9288 20.0909H104.797L100.741 14.064C100.741 14.064 104.566 11.9772 104.566 7.92041C104.566 4.32718 101.552 1.08193 98.3064 1.08193L92.394 1.08409ZM27.1301 7.5746H22.6099C22.6099 6.41612 22.7255 4.79187 24.9273 4.79187C27.2469 4.79187 27.1301 6.41612 27.1301 7.5746Z" fill="white" fill-opacity="0.6"/>
</svg>
