<svg width="145" height="24" viewBox="0 0 145 24" fill="none" xmlns="http://www.w3.org/2000/svg">
<mask id="mask0_311_4007" style="mask-type:luminance" maskUnits="userSpaceOnUse" x="5" y="0" width="13" height="24">
<path d="M5.58887 0.863159H17.6994V23.2211H5.58887V0.863159Z" fill="white"/>
</mask>
<g mask="url(#mask0_311_4007)">
<path d="M14.001 4.23614C14.331 2.60448 15.8658 1.23452 17.5786 0.92749C17.8134 0.88509 17.6461 0.863159 17.574 0.863159C17.5019 0.863159 13.7386 0.863159 13.7386 0.863159C11.7526 0.863159 9.82334 2.38078 9.44731 4.23614L5.58887 23.2211H6.5389C8.52184 23.2211 10.4526 21.7137 10.8286 19.8598L14.001 4.23614Z" fill="white" fill-opacity="0.6"/>
</g>
<mask id="mask1_311_4007" style="mask-type:luminance" maskUnits="userSpaceOnUse" x="20" y="0" width="23" height="24">
<path d="M20.4941 0.863159H42.852V23.2211H20.4941V0.863159Z" fill="white"/>
</mask>
<g mask="url(#mask1_311_4007)">
<path d="M39.9687 0.863159H28.3613C26.4467 0.863159 24.5841 2.37942 24.221 4.2349L20.4941 23.2211H22.8784C24.796 23.2211 26.6572 21.7121 27.0202 19.8595L29.8017 5.67659V5.67367C29.8935 5.2087 30.3588 4.83 30.836 4.83H36.3055C36.7842 4.83 37.1013 5.2087 37.0124 5.67367L36.1025 10.3116C36.0121 10.7751 35.5483 11.1538 35.0667 11.1538H29.6135L29.5038 11.7212C29.1393 13.5752 30.4092 15.0944 32.3238 15.0944H37.1798C39.0929 15.0944 40.9571 13.5752 41.3201 11.7212L42.7901 4.2349C43.1532 2.37942 41.8817 0.863159 39.9687 0.863159Z" fill="white" fill-opacity="0.6"/>
</g>
<mask id="mask2_311_4007" style="mask-type:luminance" maskUnits="userSpaceOnUse" x="80" y="0" width="20" height="24">
<path d="M80.1152 0.863159H99.6784V23.2211H80.1152V0.863159Z" fill="white"/>
</mask>
<g mask="url(#mask2_311_4007)">
<path d="M94.5908 22.6186C94.9448 20.7632 93.7082 19.2454 91.8404 19.2454H86.8437C86.3757 19.2454 86.0651 18.8667 86.1561 18.4032L88.5859 5.67659L88.5873 5.67367C88.6754 5.2087 89.1305 4.83 89.5956 4.83H94.5952C96.4615 4.83 98.2788 3.31082 98.6313 1.45533L98.7468 0.863159H87.1832C85.3168 0.863159 83.501 2.37942 83.1457 4.2349L80.1757 19.8493C79.8218 21.7048 81.0583 23.2211 82.9247 23.2211H94.4753L94.5908 22.6186Z" fill="white" fill-opacity="0.6"/>
</g>
<mask id="mask3_311_4007" style="mask-type:luminance" maskUnits="userSpaceOnUse" x="96" y="0" width="24" height="24">
<path d="M96.8848 0.863159H119.243V23.2211H96.8848V0.863159Z" fill="white"/>
</mask>
<g mask="url(#mask3_311_4007)">
<path d="M116.328 0.863159H104.219C102.281 0.863159 100.399 2.37942 100.029 4.2349L96.9474 19.8493C96.5803 21.7048 97.8646 23.2211 99.8009 23.2211H111.897C113.832 23.2211 115.718 21.7048 116.086 19.8493L119.18 4.2349C119.546 2.37942 118.263 0.863159 116.328 0.863159ZM103.152 18.4032L105.676 5.67367C105.766 5.2087 106.239 4.83 106.723 4.83H112.256C112.741 4.83 113.061 5.2087 112.97 5.67367L110.448 18.4032C110.355 18.8667 109.884 19.2454 109.4 19.2454H103.864C103.38 19.2454 103.061 18.8667 103.152 18.4032Z" fill="white" fill-opacity="0.6"/>
</g>
<mask id="mask4_311_4007" style="mask-type:luminance" maskUnits="userSpaceOnUse" x="40" y="0" width="24" height="24">
<path d="M40.9893 0.863159H63.3472V23.2211H40.9893V0.863159Z" fill="white"/>
</mask>
<g mask="url(#mask4_311_4007)">
<path d="M61.816 11.7219L63.2847 4.23614C63.6492 2.38078 62.3806 0.863159 60.4644 0.863159H48.8573C46.941 0.863159 45.0796 2.38078 44.7165 4.23614L40.9893 23.2211H46.8551L50.2993 5.67481C50.3882 5.20988 50.8535 4.82974 51.3337 4.82974H56.8023C57.2825 4.82974 57.5982 5.20988 57.5078 5.67481L56.5993 10.3125C56.5089 10.776 56.0421 11.1546 55.5634 11.1546H50.1081L49.9969 11.7219C49.9228 12.1108 49.8561 12.8974 50.1822 13.5115L55.7679 23.2211H62.0324L57.3566 15.0949H57.6738C59.5885 15.0949 61.4529 13.5758 61.816 11.7219Z" fill="white" fill-opacity="0.6"/>
</g>
<mask id="mask5_311_4007" style="mask-type:luminance" maskUnits="userSpaceOnUse" x="116" y="0" width="23" height="24">
<path d="M116.447 0.863159H138.805V23.2211H116.447V0.863159Z" fill="white"/>
</mask>
<g mask="url(#mask5_311_4007)">
<path d="M137.271 11.7219L138.744 4.23614C139.104 2.38078 137.836 0.863159 135.92 0.863159H124.314C122.4 0.863159 120.536 2.38078 120.171 4.23614L116.447 23.2211H122.314L125.755 5.67481C125.845 5.20988 126.312 4.82974 126.789 4.82974H132.261C132.74 4.82974 133.055 5.20988 132.964 5.67481L132.057 10.3125C131.963 10.776 131.499 11.1546 131.021 11.1546H125.566L125.455 11.7219C125.378 12.1108 125.314 12.8974 125.639 13.5115L131.225 23.2211H137.487L132.812 15.0949H133.129C135.045 15.0949 136.908 13.5758 137.271 11.7219Z" fill="white" fill-opacity="0.6"/>
</g>
<mask id="mask6_311_4007" style="mask-type:luminance" maskUnits="userSpaceOnUse" x="12" y="0" width="14" height="24">
<path d="M12.1104 0.863159H25.1525V23.2211H12.1104V0.863159Z" fill="white"/>
</mask>
<g mask="url(#mask6_311_4007)">
<path d="M20.9422 4.23614C21.2342 2.61179 22.5854 1.24768 24.1004 0.931876C24.316 0.886552 24.1918 0.863159 24.114 0.863159C24.0349 0.863159 19.3562 0.863159 19.3562 0.863159C17.5915 0.863159 15.8773 2.38078 15.5415 4.23614L12.1104 23.2211H14.305C16.0711 23.2211 17.7867 21.7137 18.1211 19.8598L20.9422 4.23614Z" fill="white" fill-opacity="0.6"/>
</g>
<mask id="mask7_311_4007" style="mask-type:luminance" maskUnits="userSpaceOnUse" x="0" y="0" width="12" height="24">
<path d="M0.931641 0.863159H11.179V23.2211H0.931641V0.863159Z" fill="white"/>
</mask>
<g mask="url(#mask7_311_4007)">
<path d="M4.66193 4.24233L0.931641 23.2211C2.64508 22.9647 4.20085 21.5703 4.52956 19.8946L7.60244 4.24233C7.9252 2.60914 9.40809 1.23813 11.065 0.929073C11.2941 0.88513 11.1156 0.863159 11.065 0.863159C11.0144 0.863159 8.82059 0.863159 8.82059 0.863159C6.89743 0.863159 5.02634 2.38357 4.66193 4.24233Z" fill="white" fill-opacity="0.6"/>
</g>
<mask id="mask8_311_4007" style="mask-type:luminance" maskUnits="userSpaceOnUse" x="62" y="0" width="20" height="24">
<path d="M62.416 0.863159H81.9792V23.2211H62.416V0.863159Z" fill="white"/>
</mask>
<g mask="url(#mask8_311_4007)">
<path d="M69.6122 0.863159C67.7121 0.863159 65.862 2.37942 65.5017 4.2349L62.478 19.8493C62.1162 21.7048 63.3766 23.2211 65.2767 23.2211H77.6304L77.748 22.6186C78.1083 20.7646 76.8509 19.2454 74.9493 19.2454H69.2637C68.7901 19.2454 68.4739 18.8682 68.5651 18.4032L69.4269 13.9744H77.3598L78.1231 10.0543H70.1873L71.0417 5.67805V5.67367C71.1314 5.2087 71.5932 4.83 72.0668 4.83H77.7524C79.654 4.83 81.5041 3.31082 81.863 1.4568L81.9792 0.863159H69.6122Z" fill="white" fill-opacity="0.6"/>
</g>
<mask id="mask9_311_4007" style="mask-type:luminance" maskUnits="userSpaceOnUse" x="139" y="0" width="6" height="5">
<path d="M139.736 0.863159H144.394V4.58947H139.736V0.863159Z" fill="white"/>
</mask>
<g mask="url(#mask9_311_4007)">
<path d="M142.177 2.56451C142.382 2.56451 142.506 2.52422 142.506 2.3416C142.506 2.16032 142.382 2.11332 142.177 2.11332H141.697V2.56451H142.177ZM141.697 3.52462C141.697 3.66696 141.636 3.77036 141.415 3.77036C141.193 3.77036 141.131 3.6871 141.131 3.52462V1.96024C141.131 1.8461 141.183 1.74942 141.42 1.74942H142.138C142.65 1.74942 143.077 1.87027 143.077 2.3416C143.077 2.70282 142.85 2.88276 142.449 2.89887L142.895 3.48568C142.92 3.52462 142.934 3.56222 142.934 3.59311C142.934 3.70456 142.845 3.77036 142.635 3.77036C142.435 3.77036 142.368 3.64682 142.289 3.52462L141.892 2.92975H141.697V3.52462ZM142.063 4.13426C143.041 4.13426 143.829 3.50448 143.829 2.72699C143.829 1.94681 143.041 1.31837 142.063 1.31837C141.091 1.31837 140.307 1.94681 140.307 2.72699C140.307 3.50448 141.091 4.13426 142.063 4.13426ZM142.063 0.863159C143.354 0.863159 144.394 1.69705 144.394 2.72699C144.394 3.7529 143.354 4.58947 142.063 4.58947C140.785 4.58947 139.736 3.7529 139.736 2.72699C139.736 1.69705 140.785 0.863159 142.063 0.863159Z" fill="white" fill-opacity="0.6"/>
</g>
</svg>
