<svg width="100" height="69" viewBox="0 0 100 69" fill="none" xmlns="http://www.w3.org/2000/svg">
<g clip-path="url(#clip0_311_3384)">
<path fill-rule="evenodd" clip-rule="evenodd" d="M0 23H38.9201L43.9857 30.294L49.7264 23H90V47H51.8204L42.9724 35.6537L34.3948 47H0V23Z" fill="#111417"/>
<path d="M16.8187 36.7402H10.3715V31H9V38H16.8187V36.7402ZM31.3865 31H30.0147V36.7402H23.156V31H21.7846V36.7402C21.7846 36.7402 21.7846 38 23.0192 38H30.152C31.4276 38 31.3865 36.7402 31.3865 36.7402V31ZM62.5519 31H55.4192C54.1845 31 54.1845 32.2597 54.1845 32.2597V38H55.556V35.7599H62.4146V38H63.7866V32.2597C63.7866 32.2597 63.7865 31 62.5519 31ZM55.556 32.2597H62.4146V34.4998H55.556V32.2597ZM80 38L78.3539 35.7599C79.7259 35.7599 79.7259 34.4998 79.7259 34.4998V32.2597C79.7259 32.2597 79.7259 31 78.3539 31H70.1239V38H71.4953V35.7599H76.8452L78.4912 38H80ZM78.3539 34.4998H71.4953V32.2597H78.3539V34.4998Z" fill="#676770"/>
<path d="M99.9873 45.3605C99.9873 45.6565 99.943 45.9274 99.8563 46.174C99.7687 46.4205 99.5921 46.6198 99.3257 46.7719C99.0598 46.9238 98.656 47 98.1148 47H93.7287C93.2572 47 92.897 46.9179 92.6484 46.7534C92.3994 46.5889 92.2295 46.3654 92.1374 46.0814C92.0459 45.798 92 45.4714 92 45.1018C92 44.7316 92.0481 44.4051 92.1442 44.1217C92.2402 43.8381 92.4105 43.6142 92.6547 43.4497C92.8992 43.2855 93.2572 43.2035 93.7287 43.2035H94.7497V44.1279H93.7024C93.3969 44.1279 93.1679 44.1689 93.0148 44.251C92.8623 44.3331 92.7618 44.4461 92.7138 44.5901C92.6657 44.7337 92.6418 44.9003 92.6418 45.0892C92.6418 45.2784 92.6657 45.4447 92.7138 45.5887C92.7618 45.7323 92.8623 45.8454 93.0148 45.9274C93.1679 46.0099 93.3969 46.0509 93.7024 46.0509H98.3114C98.6254 46.0509 98.8588 46.0099 99.0118 45.9274C99.1644 45.8454 99.2649 45.7323 99.3129 45.5887C99.3608 45.4447 99.3849 45.2784 99.3849 45.0892C99.3849 44.8099 99.2933 44.5796 99.11 44.3988C98.9264 44.2184 98.6605 44.1279 98.3114 44.1279H96.7269V44.9782H96.1248V43.2035H99.8429V43.9181L99.1359 43.9676C99.1883 43.9922 99.2386 44.0191 99.2866 44.0475C99.3347 44.0764 99.376 44.1032 99.4111 44.1279C99.5771 44.2347 99.7144 44.3867 99.8233 44.5839C99.9325 44.781 99.9873 45.0398 99.9873 45.3605ZM99.8429 41.9458H92.1051V39.5547C92.1051 39.1189 92.2118 38.776 92.4257 38.5253C92.6396 38.2748 92.9646 38.1493 93.4013 38.1493H94.6318C95.077 38.1493 95.4261 38.2686 95.6796 38.5068C95.9326 38.745 96.0678 39.0779 96.0851 39.5053C96.1029 39.234 96.199 39.0348 96.3734 38.9075C96.5481 38.7802 96.8185 38.6672 97.1854 38.5684L99.8429 37.8411V38.8765L97.2508 39.5053C97.0933 39.5463 96.9452 39.5958 96.8056 39.6532C96.6659 39.7109 96.5544 39.7804 96.4716 39.8629C96.3885 39.9449 96.3471 40.0559 96.3471 40.1957V40.9598H99.8429V41.9458ZM95.64 40.9598V39.9985C95.64 39.6942 95.5618 39.4664 95.4043 39.3144C95.2474 39.162 94.9769 39.0863 94.5927 39.0863H93.5712C93.2572 39.0863 93.0305 39.1582 92.8904 39.3018C92.7507 39.4459 92.6809 39.6204 92.6809 39.8256V40.9598H95.64ZM100 35.0431C100 35.4128 99.9546 35.7373 99.8625 36.017C99.7709 36.2962 99.581 36.5181 99.2932 36.6827C99.0051 36.8468 98.5729 36.9288 97.997 36.9288H93.7287C93.2484 36.9288 92.8842 36.8468 92.6351 36.6827C92.3865 36.5181 92.2184 36.2941 92.1312 36.0106C92.0437 35.7272 92 35.4007 92 35.0305C92 34.6609 92.0459 34.3343 92.1374 34.0509C92.2295 33.767 92.3972 33.5434 92.6418 33.3789C92.8864 33.2148 93.2484 33.1323 93.7287 33.1323H97.997C98.5817 33.1323 99.0163 33.2148 99.2996 33.3789C99.5833 33.5434 99.7709 33.7691 99.8625 34.0567C99.9546 34.3443 100 34.673 100 35.0431ZM99.3849 35.0431C99.3849 34.8538 99.3586 34.6876 99.3062 34.5436C99.2537 34.4 99.1514 34.287 98.9984 34.2049C98.8459 34.1224 98.6169 34.0814 98.3114 34.0814H93.7024C93.4058 34.0814 93.1808 34.1224 93.0282 34.2049C92.8752 34.287 92.7725 34.4 92.7205 34.5436C92.6681 34.6876 92.6418 34.8538 92.6418 35.0431C92.6418 35.2319 92.6681 35.3965 92.7205 35.5358C92.7725 35.6758 92.8752 35.7867 93.0282 35.8687C93.1808 35.9512 93.4058 35.9922 93.7024 35.9922H98.3114C98.6169 35.9922 98.8459 35.9512 98.9984 35.8687C99.1514 35.7867 99.2537 35.6758 99.3062 35.5358C99.3586 35.3965 99.3849 35.2319 99.3849 35.0431ZM100 30.0015C100 30.2644 99.9789 30.511 99.9346 30.7408C99.8909 30.9711 99.806 31.1704 99.6793 31.3387C99.553 31.5074 99.3654 31.6409 99.1163 31.7393C98.8677 31.8381 98.5337 31.8876 98.1148 31.8876H92.1051V30.9259H98.3505C98.6298 30.9259 98.8415 30.8828 98.9856 30.7965C99.1297 30.7103 99.2275 30.5972 99.2799 30.4573C99.3325 30.3179 99.3586 30.1656 99.3586 30.0015C99.3586 29.8369 99.3325 29.6829 99.2799 29.5393C99.2275 29.3952 99.1297 29.2805 98.9856 29.1938C98.8415 29.1076 98.6298 29.0645 98.3505 29.0645H92.1051V28.1279H98.1148C98.5249 28.1279 98.8566 28.1752 99.11 28.2694C99.3631 28.364 99.553 28.4955 99.6793 28.6638C99.806 28.8325 99.8909 29.0318 99.9346 29.2617C99.9789 29.4919 100 29.7386 100 30.0015ZM99.8429 26.7592H92.1051V24.4051C92.1051 23.9696 92.2118 23.6263 92.4257 23.3759C92.6396 23.1252 92.9646 23 93.4013 23H94.8022C95.1077 23 95.3959 23.0389 95.6663 23.1167C95.937 23.195 96.1549 23.345 96.3208 23.5669C96.4868 23.7888 96.5699 24.1091 96.5699 24.5282V25.7611H99.8429V26.7592ZM95.9806 25.7611V24.8367C95.9806 24.5406 95.8756 24.3188 95.6663 24.171C95.4568 24.0227 95.125 23.9491 94.6714 23.9491H93.8069C93.4143 23.9491 93.1283 24.0169 92.9496 24.1522C92.7708 24.2878 92.6809 24.4586 92.6809 24.6637V25.7611H95.9806Z" fill="white" fill-opacity="0.5"/>
<path fill-rule="evenodd" clip-rule="evenodd" d="M42.9923 37.8292L18 69L40.1374 33.6206L28.6433 16.6781H35.8479L43.997 28.6903L67 0L46.6248 32.5636L60.5084 53.0282H53.3039L42.9923 37.8292Z" fill="#686873"/>
</g>
<defs>
<clipPath id="clip0_311_3384">
<rect width="100" height="69" fill="white"/>
</clipPath>
</defs>
</svg>
