<svg width="26" height="26" viewBox="0 0 26 26" fill="none" xmlns="http://www.w3.org/2000/svg">
<path d="M5.12833 11.2858C7.16833 15.295 10.455 18.5675 14.4642 20.6217L17.5808 17.505C17.9633 17.1225 18.53 16.995 19.0258 17.165C20.6125 17.6892 22.3267 17.9725 24.0833 17.9725C24.8625 17.9725 25.5 18.61 25.5 19.3892V24.3333C25.5 25.1125 24.8625 25.75 24.0833 25.75C10.7808 25.75 0 14.9692 0 1.66667C0 0.8875 0.6375 0.25 1.41667 0.25H6.375C7.15417 0.25 7.79167 0.8875 7.79167 1.66667C7.79167 3.4375 8.075 5.1375 8.59917 6.72417C8.755 7.22 8.64167 7.7725 8.245 8.16917L5.12833 11.2858Z" fill="white"/>
</svg>
