<svg width="84" height="878" viewBox="0 0 84 878" fill="none" xmlns="http://www.w3.org/2000/svg">
<path fill-rule="evenodd" clip-rule="evenodd" d="M0.171825 768.545C0.124297 766.351 0.171824 764.157 0.314979 761.965C27.9873 767.975 55.7115 773.875 83.4877 779.663C83.4877 786.47 83.4877 793.277 83.4877 800.084C60.0221 795.303 36.6401 790.273 13.342 784.995C8.06508 782.93 4.39059 779.717 2.31914 775.352C1.3245 773.106 0.608732 770.837 0.171825 768.545Z" fill="white" fill-opacity="0.1"/>
<path fill-rule="evenodd" clip-rule="evenodd" d="M62.5886 856.356C62.6057 856.478 62.7011 856.555 62.8749 856.583C63.1612 839.263 63.2565 821.944 63.1612 804.622C74.9749 806.46 81.6075 812.133 83.0596 821.64C83.5286 836.384 83.624 851.133 83.3459 865.886C83.049 869.947 81.0927 873.387 77.4766 876.21C74.3198 877.805 70.8841 878.333 67.1695 877.798C49.2331 874.188 31.3866 870.331 13.6297 866.226C6.9384 863.642 2.78693 859.444 1.17529 853.633C0.201842 850.186 -0.0366536 846.708 0.45952 843.196C21.139 847.675 41.8486 852.063 62.5886 856.356Z" fill="white" fill-opacity="0.1"/>
<path fill-rule="evenodd" clip-rule="evenodd" d="M0.171945 748.351C0.124131 744.189 0.171944 740.03 0.315098 735.871C0.869679 730.868 3.68524 726.897 8.76121 723.959C17.7902 719.664 26.6658 715.201 35.3879 710.572C26.671 702.376 17.8432 694.246 8.90436 686.18C4.34489 681.826 1.4818 676.834 0.315096 671.204C0.171941 666.592 0.124127 661.979 0.171941 657.363C27.9425 663.224 55.7144 669.049 83.4878 674.835C84.0759 679.806 82.7875 684.419 79.6227 688.676C75.8546 691.764 71.3211 692.785 66.023 691.739C55.8026 689.568 45.5908 687.448 35.3879 685.386C46.5703 695.835 57.6407 706.349 68.5998 716.925C55.0107 724.435 41.1722 731.696 27.085 738.708C26.5298 738.914 26.2435 739.254 26.2261 739.729C30.6086 738.599 34.9986 737.464 39.3963 736.325C47.6082 738.027 55.8155 739.729 64.0188 741.43C74.0548 743.107 80.2105 747.908 82.4858 755.839C83.3335 759.21 83.6676 762.614 83.4878 766.049C55.699 760.184 27.927 754.284 0.171945 748.351Z" fill="white" fill-opacity="0.1"/>
<path fill-rule="evenodd" clip-rule="evenodd" d="M62.8748 637.169C62.7011 637.142 62.6057 637.065 62.5885 636.942C59.0409 636.296 55.5098 635.615 51.9951 634.9C52.0429 622.346 51.9951 609.789 51.852 597.235C51.2997 590.57 47.7208 585.238 41.1154 581.238C34.0965 577.821 26.4618 575.854 18.2107 575.339C8.07933 574.068 2.21 577.433 0.602665 585.436C0.132546 600.404 0.0372062 615.38 0.316358 630.362C0.678253 632.688 1.34621 634.957 2.32052 637.169C4.91391 642.476 9.638 645.993 16.4928 647.72C32.4431 651.087 48.381 654.491 64.3064 657.931C68.7708 658.94 73.0654 658.639 77.1903 657.023C81.1104 654.214 83.1621 650.697 83.3459 646.472C83.5369 632.706 83.5369 618.942 83.3459 605.176C83.2139 603.3 82.8798 601.448 82.3439 599.617C79.9933 591.44 73.5988 586.636 63.1612 585.209C63.2565 602.53 63.1612 619.85 62.8748 637.169ZM20.5011 591.335L20.5011 628.093C24.1931 628.942 27.9151 629.7 31.6672 630.362L31.6672 594.058C27.9403 593.148 24.2183 592.241 20.5011 591.335Z" fill="white" fill-opacity="0.1"/>
<path fill-rule="evenodd" clip-rule="evenodd" d="M0.0410207 53.7814C-0.0534621 36.158 0.0410191 18.5346 0.327327 0.913452C5.33773 -0.581787 10.1105 -0.241517 14.6428 1.93445C17.0707 3.77466 18.6454 6.00745 19.3669 8.62811C19.8078 10.1983 20.0941 11.7866 20.2258 13.393C20.3203 25.8726 20.4176 38.352 20.5121 50.8316C24.0738 51.9253 27.7471 52.7581 31.535 53.3276C31.4863 42.2843 31.535 31.2433 31.6782 20.2C31.87 16.1045 33.8283 12.6646 37.5475 9.87597C40.2502 8.47827 43.2078 7.94964 46.4231 8.28772C53.1256 9.57879 59.8051 10.9402 66.4647 12.3719C74.8278 14.4617 80.03 18.8863 82.0685 25.6456C82.5581 27.5992 82.9389 29.5665 83.2138 31.545C83.3569 48.2609 83.4056 64.9744 83.3569 81.6902C79.3801 82.6886 75.3718 82.8021 71.3319 82.0306C67.2606 80.3878 64.7325 77.7784 63.7448 74.2025C63.321 72.7821 63.0347 71.3458 62.8858 69.8914C62.7427 57.2598 62.694 44.6304 62.7427 31.9988C59.1295 31.3295 55.5506 30.574 52.0061 29.7299C51.9918 41.2315 51.7999 52.7263 51.4335 64.2188C50.9296 67.6269 49.163 70.5403 46.1368 72.9545C42.5064 74.7334 38.5925 75.2621 34.3981 74.5428C28.3856 73.2563 22.3731 71.972 16.3606 70.6855C8.63029 68.6434 3.61988 64.5206 1.32941 58.3194C0.86559 56.781 0.436127 55.2699 0.0410207 53.7814Z" fill="white" fill-opacity="0.1"/>
<path fill-rule="evenodd" clip-rule="evenodd" d="M0.0411481 319.483C-0.0791019 314.709 0.0640523 309.944 0.470611 305.188C1.79908 299.565 5.75874 295.594 12.3524 293.276C27.2004 285.314 42.0885 277.408 57.0166 269.564C56.5671 269.308 56.089 269.269 55.5851 269.451C51.7342 270.481 47.9177 271.577 44.1327 272.741C35.4662 270.853 26.7824 269.002 18.0786 267.182C7.21605 264.616 1.25223 258.83 0.184299 249.824C-0.00752763 247.48 -0.00752773 245.134 0.184299 242.79C27.8618 248.803 55.5851 254.702 83.3571 260.488C83.4716 265.11 83.3284 269.723 82.9276 274.329C81.5304 279.972 77.5707 284.018 71.0458 286.469C58.7917 292.967 46.5749 299.508 34.3982 306.095C50.6405 309.749 66.9601 313.227 83.3571 316.533C83.3571 323.34 83.3571 330.147 83.3571 336.954C55.5565 331.238 27.7845 325.414 0.0411481 319.483Z" fill="white" fill-opacity="0.1"/>
<path fill-rule="evenodd" clip-rule="evenodd" d="M30.6751 133.424C30.8783 133.628 31.1646 133.705 31.534 133.651C31.534 123.061 31.534 112.474 31.534 101.885C31.6514 98.4833 32.7508 95.3067 34.8265 92.3547C38.4541 88.8264 43.0808 87.6533 48.7125 88.8377C55.3119 90.24 61.897 91.6763 68.4678 93.1489C75.3163 95.3998 79.7541 99.3705 81.7812 105.061C82.5199 107.14 82.998 109.257 83.2127 111.414C83.3559 128.28 83.4046 145.148 83.3559 162.013C80.8221 162.519 78.2453 162.821 75.6256 162.921C69.467 162.542 65.6019 159.971 64.03 155.206C63.4632 153.57 63.0824 151.905 62.8848 150.215C62.8361 137.531 62.693 124.861 62.4553 112.209C59.0168 111.489 55.5811 110.772 52.1482 110.053C51.9106 120.944 51.7674 131.836 51.7188 142.727C51.4554 145.831 50.3101 148.706 48.2831 151.349C44.7758 154.596 40.338 155.767 34.9697 154.866C28.5621 153.541 22.1688 152.18 15.787 150.782C8.8669 148.928 4.24015 145.261 1.901 139.777C1.08216 137.857 0.509541 135.89 0.183149 133.878C-0.00867854 116.331 -0.00867931 98.7828 0.183147 81.2365C10.5246 78.5251 17.0124 81.3251 19.6522 89.6319C19.844 90.8413 20.0329 92.0529 20.2248 93.2623C20.3193 105.894 20.4166 118.523 20.5111 131.155C23.8351 132.071 27.2222 132.827 30.6751 133.424Z" fill="white" fill-opacity="0.1"/>
<path fill-rule="evenodd" clip-rule="evenodd" d="M83.9296 429.076C84.1186 435.887 83.9268 442.62 83.357 449.27C61.6863 444.73 40.0213 440.155 18.3649 435.542C8.04062 432.999 2.26863 427.44 1.04323 418.865C0.708248 416.376 0.565093 413.88 0.613766 411.378C28.4459 417.175 56.2178 423.074 83.9296 429.076Z" fill="white" fill-opacity="0.1"/>
<path fill-rule="evenodd" clip-rule="evenodd" d="M83.0721 527.097C83.1665 528.878 83.0692 530.619 82.7858 532.316C61.1093 527.776 39.4472 523.199 17.7936 518.589C7.00551 515.99 1.13618 510.204 0.185633 501.231C0.0424774 482.7 -0.00619592 464.171 0.0424758 445.64C2.24705 445.193 4.48885 444.966 6.77073 444.959C12.8519 444.941 16.8603 447.21 18.7957 451.766C19.5659 453.84 20.0412 455.959 20.2273 458.119C20.3704 471.659 20.4191 485.195 20.3704 498.735C24.101 499.456 27.823 500.212 31.5365 501.004C31.8228 487.467 31.9172 473.928 31.8228 460.388C35.7309 459.562 39.6447 459.524 43.5614 460.275C48.0393 462.108 50.6648 465.019 51.4349 469.011C51.5552 470.002 51.747 470.987 52.0075 471.96C52.1507 483.153 52.1994 494.349 52.1507 505.542C57.7337 506.572 63.2681 507.745 68.7566 509.059C76.2321 511.659 80.7644 516.158 82.3563 522.559C82.6884 524.064 82.9289 525.577 83.0721 527.097Z" fill="white" fill-opacity="0.1"/>
<path fill-rule="evenodd" clip-rule="evenodd" d="M83.0721 387.326C83.1637 388.958 83.0692 390.546 82.7857 392.091C64.6366 388.343 46.5018 384.524 28.3871 380.633C27.0643 380.038 26.1596 379.169 25.6671 378.023C24.1325 372.961 22.6523 367.894 21.2293 362.821C20.943 362.821 20.6567 362.821 20.3704 362.821C20.4191 372.426 20.3704 382.033 20.2272 391.637C18.9303 401.553 12.202 405.26 0.0424709 402.755C-0.00620253 382.94 0.0424691 363.122 0.185623 343.307C1.4282 333.43 8.06198 329.8 20.0841 332.416C20.3704 341.113 20.4649 349.81 20.3704 358.51C35.6593 361.652 50.9281 364.867 66.1798 368.153C74.7004 370.141 79.9971 374.565 82.07 381.427C82.6025 383.373 82.9346 385.338 83.0721 387.326Z" fill="white" fill-opacity="0.1"/>
<path fill-rule="evenodd" clip-rule="evenodd" d="M62.7428 223.957C62.5681 223.93 62.4737 223.853 62.4565 223.73C58.912 223.084 55.3789 222.403 51.8631 221.688C51.9919 208.75 51.8487 195.817 51.4336 182.888C50.6119 176.857 47.2248 171.979 41.2696 168.253C32.9208 164.151 23.8076 162.07 13.9271 162.013C10.772 161.759 7.95471 162.401 5.481 163.942C2.66658 166.161 0.997402 168.845 0.470594 171.997C0.00104769 187.193 -0.0962967 202.395 0.184287 217.604C0.484911 219.621 1.05753 221.586 1.90214 223.504C4.33577 228.761 8.86804 232.353 15.5018 234.281C32.5544 238.018 49.6384 241.649 66.7511 245.173C72.2855 246.037 76.7233 244.714 80.0645 241.202C82.0429 238.463 83.0936 235.513 83.2139 232.353C83.4057 219.04 83.4057 205.73 83.2139 192.418C83.0507 189.958 82.5726 187.537 81.7823 185.157C79.0195 177.937 72.9583 173.626 63.6017 172.224C63.1236 189.391 62.8373 206.636 62.7428 223.957ZM20.3691 178.123L20.3691 214.881C24.051 215.744 27.773 216.499 31.5351 217.15L31.5351 180.846L20.3691 178.123Z" fill="white" fill-opacity="0.1"/>
</svg>
