<svg width="76" height="21" viewBox="0 0 76 21" fill="none" xmlns="http://www.w3.org/2000/svg">
<g clip-path="url(#clip0_673_956)">
<mask id="mask0_673_956" style="mask-type:luminance" maskUnits="userSpaceOnUse" x="0" y="0" width="21" height="21">
<path d="M15.7022 20.8792C16.1637 20.8696 16.6285 20.8405 17.0835 20.7599C17.5451 20.676 17.9776 20.547 18.3972 20.3309C18.8136 20.1244 19.1911 19.8503 19.5172 19.5277C19.8431 19.2052 20.1207 18.831 20.3273 18.4213C20.5403 18.0052 20.6759 17.5827 20.7598 17.1246C20.8437 16.6731 20.8696 16.215 20.8792 15.757C20.8857 15.5473 20.8857 15.3377 20.8889 15.128V5.75767C20.8889 5.54801 20.8889 5.33835 20.8792 5.12868C20.8696 4.67387 20.8405 4.21262 20.7598 3.76104C20.6759 3.303 20.5403 2.87722 20.3273 2.46435C20.1175 2.05792 19.8431 1.68376 19.5172 1.35797C19.1911 1.03541 18.8104 0.761238 18.3972 0.554801C17.9744 0.345138 17.5451 0.209663 17.0835 0.125798C16.6285 0.0451582 16.1637 0.016128 15.7022 0.00645117C15.6151 0.00645117 15.5278 0.00322558 15.3859 0H6.08398L5.19318 0.00967684C4.73163 0.0193536 4.26686 0.0483839 3.81177 0.129024C3.35023 0.212888 2.91773 0.345138 2.49815 0.558027C2.08179 0.764464 1.70416 1.03864 1.37818 1.3612C1.05219 1.68376 0.774619 2.05792 0.568054 2.46757C0.351806 2.88368 0.219475 3.30622 0.135558 3.76426C0.0484136 4.21584 0.022593 4.67387 0.00968262 5.1319C0.00322758 5.34157 0.00322758 5.55123 0 5.76089V15.1312C0 15.3409 0.00322758 15.5506 0.0096827 15.7602C0.0193655 16.215 0.0484137 16.6763 0.129103 17.1278C0.213021 17.5859 0.348578 18.0117 0.561599 18.4245C0.771391 18.831 1.04573 19.2052 1.37172 19.5309C1.69771 19.8535 2.07856 20.1277 2.49169 20.3341C2.9145 20.5438 3.34377 20.6792 3.80531 20.7631C4.2604 20.8437 4.72517 20.8728 5.18672 20.8824C5.27386 20.8824 5.36101 20.8857 5.50302 20.8889H14.3111L15.6957 20.8824C15.6957 20.8824 15.7022 20.8792 15.7022 20.8792Z" fill="white"/>
</mask>
<g mask="url(#mask0_673_956)">
<path d="M0 0H20.8889V20.8889H0V0Z" fill="#19AA1E"/>
<path fill-rule="evenodd" clip-rule="evenodd" d="M0 0H20.8889V6.85417L0 3.59028V0Z" fill="#FFB919"/>
<path fill-rule="evenodd" clip-rule="evenodd" d="M0 18.6042L20.8889 15.3403V20.8889H0V18.6042Z" fill="#82D714"/>
<path fill-rule="evenodd" clip-rule="evenodd" d="M0 3.17725L7.29143 4.31652C8.19909 3.74199 9.27893 3.42698 10.4444 3.42698C12.0587 3.42698 13.5087 4.03128 14.5644 5.09246C14.6977 5.22637 14.8234 5.36638 14.9411 5.5118L20.8889 6.44112V7.26699L15.5451 6.43203C15.9421 7.19389 16.1562 8.04274 16.1562 8.90901C16.1562 10.0281 15.9059 11.1439 15.3885 12.2643L15.3727 12.2982L15.153 12.7691H14.6333C13.5602 12.7691 12.8484 13.0901 12.383 13.659C12.0176 14.1056 11.8063 14.7078 11.7352 15.3647L11.733 15.3853L11.7227 15.4902L11.7182 15.5359L11.7098 15.6252C11.6825 15.9185 11.6644 16.1673 11.6551 16.37L20.8889 14.9273V15.7531L0 19.017V18.1912L9.24412 16.7467L9.24011 16.5613L9.23889 16.509L9.23811 16.4822L9.23663 16.4408C9.22836 16.216 9.20773 15.9279 9.17475 15.5786L9.16839 15.5123L9.15708 15.3976C9.09076 14.7372 8.88256 14.1274 8.51815 13.6741C8.05764 13.1014 7.3524 12.7757 6.28796 12.7692L6.25559 12.7691H5.73593L5.51617 12.2982C4.98805 11.1665 4.73264 10.0394 4.73264 8.90901C4.73264 7.48742 5.30937 6.11276 6.32446 5.09246C6.35376 5.06301 6.38336 5.0339 6.41327 5.00516L0 4.0031V3.17725Z" fill="white"/>
<path fill-rule="evenodd" clip-rule="evenodd" d="M10.4444 4.24316C13.3607 4.24316 15.3403 6.48782 15.3403 8.90922C15.3403 9.88134 15.1282 10.8929 14.6333 11.9533C11.7637 11.9533 11.0554 14.0085 10.9214 15.3015L10.9129 15.3876C10.8674 15.8491 10.8412 16.2194 10.834 16.4985L10.0568 16.62L10.0566 16.5949C10.0537 16.3022 10.026 15.8918 9.97366 15.3635L9.9714 15.3404C9.84763 14.0501 9.15421 11.9533 6.25559 11.9533C5.76071 10.8929 5.54861 9.88134 5.54861 8.90922C5.54861 6.48782 7.52816 4.24316 10.4444 4.24316Z" fill="#0073FA"/>
</g>
<path fill-rule="evenodd" clip-rule="evenodd" d="M30.6666 3.48145C27.3052 3.48145 24.7841 5.48593 24.8057 8.96739H27.9301C27.887 7.57482 28.7919 6.22443 30.6666 6.22443C32.0887 6.22443 32.9937 7.15282 32.9937 8.33442C32.9937 9.5582 32.0026 10.2334 30.408 10.993C28.3179 11.9847 27.0682 12.4489 24.8057 13.1874V17.1964H36.0104V14.4534H29.029C30.1091 14.0125 31.1603 13.5284 32.1102 13.0819C34.6313 11.9003 36.1181 10.571 36.1181 8.18672C36.1181 5.31713 33.9202 3.48145 30.6666 3.48145ZM40.9662 6.43543H47.4305V3.69244H37.9496V17.1964H40.9662V6.43543ZM51.9554 3.69244H48.9387V17.1964H51.9339L57.5578 8.56652V17.1964H60.5744V3.69244H57.5578L51.9555 12.3223L51.9554 3.69244ZM75.7222 12.1324H72.5978C72.1238 13.6305 70.6802 14.6644 68.9779 14.6644C66.4999 14.6644 64.8838 12.5755 64.8838 10.4444C64.8838 8.31332 66.4569 6.22443 69.064 6.22443C70.7878 6.22443 72.1238 7.25832 72.5978 8.75641H75.7222C75.2697 5.73913 72.8348 3.48145 68.9779 3.48145C64.7115 3.48145 61.8672 6.41433 61.8672 10.4444C61.8672 14.4745 64.7115 17.4074 68.9779 17.4074C72.8348 17.4074 75.2697 15.1918 75.7222 12.1324Z" fill="#394558"/>
</g>
<defs>
<clipPath id="clip0_673_956">
<rect width="75.7222" height="20.8889" fill="white"/>
</clipPath>
</defs>
</svg>
