<svg width="51" height="57" viewBox="0 0 51 57" fill="none" xmlns="http://www.w3.org/2000/svg">
<circle cx="25.5" cy="26.324" r="25.5" fill="#334F65"/>
<rect x="18.7344" y="50.426" width="8.32653" height="8.32653" transform="rotate(-45 18.7344 50.426)" fill="#334F65"/>
<path fill-rule="evenodd" clip-rule="evenodd" d="M25.4994 2.90564C38.4295 2.90564 48.9178 13.394 48.9178 26.324C48.9178 39.2541 38.4295 49.7424 25.4994 49.7424C12.5694 49.7424 2.08105 39.2541 2.08105 26.324C2.08105 13.394 12.5694 2.90564 25.4994 2.90564Z" fill="#454545"/>
<path fill-rule="evenodd" clip-rule="evenodd" d="M25.4995 3.11377C38.3186 3.11377 48.7237 13.5188 48.7237 26.3379C48.7237 39.157 38.3186 49.562 25.4995 49.562C12.6805 49.562 2.27539 39.157 2.27539 26.3379C2.28926 13.505 12.6805 3.11377 25.4995 3.11377Z" fill="#FFCC00"/>
<path fill-rule="evenodd" clip-rule="evenodd" d="M25.541 49.1319C38.0965 49.1042 48.2796 38.8933 48.2796 26.324C48.2796 26.1436 48.2796 25.9494 48.2657 25.769H46.2402C46.2402 25.9494 46.2541 26.1436 46.2541 26.324C46.2541 37.7834 36.9866 47.0786 25.541 47.1064V49.1319Z" fill="#E21C2A"/>
<path fill-rule="evenodd" clip-rule="evenodd" d="M25.541 49.132C31.8257 49.1181 37.5138 46.5515 41.6203 42.4311C41.8701 42.1675 42.1336 41.9039 42.3695 41.6403L42.3834 41.6264C42.5082 41.4877 42.6192 41.3628 42.7441 41.2241C42.8689 41.0854 42.9799 40.9466 43.0909 40.8079C43.2019 40.6692 43.3129 40.5304 43.4239 40.3917L43.4516 40.3501C43.5487 40.2252 43.6459 40.0865 43.7568 39.9616L43.7846 39.92C43.8817 39.7813 43.9788 39.6564 44.0759 39.5177L44.0898 39.5038C44.2979 39.2125 44.4921 38.9211 44.6864 38.6159L44.7002 38.602C44.7974 38.4494 44.8945 38.3107 44.9777 38.1581C45.0748 38.0055 45.1581 37.839 45.2552 37.6864L45.269 37.6448C45.3523 37.4921 45.4355 37.3534 45.5188 37.2008L45.5326 37.1592C45.6159 37.0066 45.6852 36.8678 45.7685 36.7152C45.7824 36.6875 45.7962 36.6597 45.8101 36.632C45.8795 36.4933 45.9488 36.3545 46.0182 36.2158L46.0321 36.2019C46.1015 36.0493 46.1847 35.8828 46.2541 35.7163C46.2679 35.6886 46.2818 35.6609 46.2957 35.6192C46.3512 35.4805 46.4205 35.3418 46.476 35.203C46.4899 35.1614 46.5038 35.1198 46.5315 35.0782C46.587 34.9533 46.6425 34.8146 46.698 34.6897C46.7119 34.6342 46.7396 34.5926 46.7535 34.5371C46.7951 34.4122 46.8506 34.2874 46.8922 34.1764C46.92 34.1209 46.9339 34.0654 46.9477 34.0099C46.9894 33.8989 47.031 33.7741 47.0726 33.6631C47.1003 33.5798 47.1281 33.5105 47.142 33.4272C47.1697 33.3301 47.2113 33.233 47.2391 33.122C47.2668 33.0526 47.2807 32.9694 47.3084 32.9C47.3362 32.7891 47.3778 32.6919 47.4056 32.5809C47.4194 32.5255 47.4333 32.4838 47.4472 32.4283C47.4888 32.3035 47.5165 32.1647 47.5582 32.0399C47.572 31.9983 47.5859 31.9428 47.5998 31.9012C47.6275 31.7624 47.6691 31.6376 47.6969 31.4988C47.7108 31.4295 47.7246 31.3601 47.7385 31.3046C47.7663 31.1936 47.794 31.0687 47.8218 30.9578C47.8356 30.8606 47.8634 30.7635 47.8773 30.6664C47.8911 30.5832 47.905 30.4861 47.9327 30.4028C47.9466 30.3196 47.9605 30.2502 47.9744 30.167C47.9882 30.056 48.016 29.945 48.0299 29.834C48.0576 29.6537 48.0854 29.4594 48.1131 29.2791C48.127 29.1403 48.1409 29.0016 48.1547 28.8629C48.1547 28.8074 48.1686 28.7658 48.1686 28.7103C48.1825 28.5993 48.1825 28.4883 48.1963 28.3912C48.2102 28.3079 48.2102 28.2247 48.2241 28.1414C48.238 27.9472 48.2518 27.753 48.2657 27.5588C48.2796 27.3645 48.2796 27.1703 48.2935 26.9761C48.2935 26.7819 48.3073 26.5876 48.3073 26.3934V26.3795V26.3657C48.3073 26.1853 48.3073 26.0188 48.3073 25.8385V25.8246H47.9882C47.9882 26.0049 48.0021 26.1992 48.0021 26.3795C48.0021 38.7685 37.9716 48.8267 25.5826 48.8684V49.132H25.541Z" fill="white"/>
<path fill-rule="evenodd" clip-rule="evenodd" d="M25.541 47.1203C36.9866 47.0786 46.2541 37.7834 46.2541 26.3378C46.2541 26.1575 46.2541 25.9633 46.2402 25.7829H44.2147C44.2147 25.9633 44.2285 26.1575 44.2285 26.3378C44.2285 36.6735 35.8629 45.067 25.541 45.1086V47.1203Z" fill="white"/>
<path fill-rule="evenodd" clip-rule="evenodd" d="M25.541 45.0947C35.8629 45.0531 44.2285 36.6736 44.2285 26.324C44.2285 26.1436 44.2285 25.9494 44.2147 25.769H42.1891C42.1891 25.9494 42.203 26.1436 42.203 26.324C42.203 35.5498 34.7391 43.0276 25.541 43.0692V45.0947Z" fill="#E21C2A"/>
<path fill-rule="evenodd" clip-rule="evenodd" d="M42.5368 25.769H42.2038C42.2038 25.9494 42.2177 26.1436 42.2177 26.324C42.2177 35.5498 34.7538 43.0276 25.5557 43.0692V43.4022C34.948 43.3606 42.5645 35.7302 42.5645 26.324C42.5506 26.1436 42.5368 25.9494 42.5368 25.769Z" fill="white"/>
<path fill-rule="evenodd" clip-rule="evenodd" d="M25.431 49.1319C12.8616 49.1042 2.69238 38.8933 2.69238 26.324C2.69238 26.1436 2.69238 25.9494 2.70626 25.769H4.71791H6.74343H8.76895C8.76895 25.9494 8.75508 26.1436 8.75508 26.324C8.75508 35.5498 16.219 43.0276 25.4171 43.0692V45.0947V47.1203V49.1319H25.431Z" fill="#E21C2A"/>
<path fill-rule="evenodd" clip-rule="evenodd" d="M25.36 49.1319C19.1031 49.0903 13.4427 46.5376 9.35008 42.431C9.10036 42.1674 8.83677 41.9039 8.60092 41.6403L8.58704 41.6264C8.46218 41.4877 8.3512 41.3628 8.22634 41.2241C8.10147 41.0853 7.99049 40.9466 7.8795 40.8079C7.76851 40.6691 7.65752 40.5304 7.54654 40.3917L7.51879 40.35C7.42168 40.2252 7.32456 40.0864 7.21357 39.9616L7.18583 39.92C7.08871 39.7812 6.9916 39.6564 6.89448 39.5176L6.88061 39.5037C6.67251 39.2124 6.47828 38.9211 6.28405 38.6158L6.27018 38.602C6.17307 38.4494 6.07595 38.3106 5.99271 38.158C5.8956 38.0054 5.81236 37.8389 5.71524 37.6863L5.70137 37.6447C5.61813 37.4921 5.53489 37.3534 5.45165 37.2008L5.43777 37.1591C5.35453 37.0065 5.28517 36.8678 5.20193 36.7152C5.18805 36.6874 5.17418 36.6597 5.16031 36.6319C5.09094 36.4932 5.02157 36.3545 4.9522 36.2157L4.93833 36.2019C4.86896 36.0493 4.78572 35.8828 4.71636 35.7163C4.70248 35.6886 4.68861 35.6608 4.67473 35.6192C4.61924 35.4805 4.54987 35.3417 4.49438 35.203C4.48051 35.1614 4.46663 35.1197 4.43889 35.0781C4.38339 34.9533 4.3279 34.8145 4.27241 34.6897C4.25853 34.6342 4.23078 34.5926 4.21691 34.5371C4.17529 34.4122 4.1198 34.2873 4.07818 34.1763C4.05043 34.1209 4.03656 34.0654 4.02268 34.0099C3.98106 33.8989 3.93944 33.774 3.89782 33.663C3.87008 33.5798 3.84233 33.5104 3.82845 33.4272C3.80071 33.3301 3.75909 33.233 3.73134 33.122C3.70359 33.0526 3.68972 32.9694 3.66197 32.9C3.63423 32.789 3.59261 32.6919 3.56486 32.5809C3.55099 32.5254 3.53711 32.4838 3.52324 32.4283C3.48162 32.3034 3.45387 32.1647 3.41225 32.0398C3.39838 31.9982 3.3845 31.9427 3.37063 31.9011C3.34288 31.7624 3.30126 31.6375 3.27352 31.4988C3.25964 31.4294 3.24577 31.36 3.2319 31.3045C3.20415 31.1936 3.1764 31.0687 3.14866 30.9577C3.13478 30.8606 3.10704 30.7635 3.09316 30.6664C3.07929 30.5831 3.06542 30.486 3.03767 30.4028C3.0238 30.3195 3.00992 30.2502 2.99605 30.1669C2.98218 30.0559 2.95443 29.9449 2.94055 29.834C2.91281 29.6536 2.88506 29.4594 2.85731 29.279C2.84344 29.1403 2.82957 29.0016 2.81569 28.8628C2.81569 28.8073 2.80182 28.7657 2.80182 28.7102C2.78795 28.5992 2.78795 28.4882 2.77407 28.3911C2.7602 28.3079 2.7602 28.2246 2.74633 28.1414C2.73245 27.9472 2.71858 27.7529 2.70471 27.5587C2.69083 27.3645 2.69083 27.1703 2.67696 26.976C2.67696 26.7818 2.66309 26.5876 2.66309 26.3933V26.3795V26.3656C2.66309 26.1852 2.66309 26.0188 2.66309 25.8384V25.8245H2.98218C2.98218 26.0049 2.9683 26.1991 2.9683 26.3795C2.9683 38.7546 12.9572 48.7851 25.3184 48.8683V48.5492C13.1792 48.4105 3.34288 38.5187 3.34288 26.324C3.34288 26.1436 3.34288 25.9494 3.35676 25.769H3.67585C3.67585 25.9494 3.66197 26.1436 3.66197 26.324C3.66197 38.3384 13.3595 48.0914 25.36 48.1608V43.9987C15.6625 43.9155 7.82401 36.0354 7.82401 26.324C7.82401 26.1436 7.82401 25.9494 7.83788 25.769H8.15697C8.15697 25.9494 8.14309 26.1436 8.14309 26.324C8.14309 35.855 15.8429 43.5964 25.36 43.6797V43.4022C15.9955 43.3189 8.42056 35.7024 8.42056 26.324C8.42056 26.1436 8.42056 25.9494 8.43444 25.769H8.7674C8.7674 25.9494 8.75353 26.1436 8.75353 26.324C8.75353 35.5221 16.1758 42.986 25.3462 43.0692V43.0553H25.6375V49.1735H25.3462V49.1319H25.36Z" fill="#FFCC00"/>
<path fill-rule="evenodd" clip-rule="evenodd" d="M25.4437 3.50214C37.8604 3.50214 47.9464 13.4216 48.2516 25.7551H2.63574C2.94096 13.4216 13.0408 3.50214 25.4437 3.50214Z" fill="#FFCC00"/>
<path fill-rule="evenodd" clip-rule="evenodd" d="M3.02344 25.45H47.9595C47.5017 13.4078 37.596 3.83514 25.4984 3.83514C13.4146 3.83514 3.49513 13.4078 3.02344 25.45Z" fill="white"/>
<path fill-rule="evenodd" clip-rule="evenodd" d="M25.4982 5.54156C36.7912 5.54156 45.9893 14.5454 46.2806 25.769H4.71582C5.02104 14.5454 14.2053 5.54156 25.4982 5.54156Z" fill="#FFCC00"/>
<path fill-rule="evenodd" clip-rule="evenodd" d="M5.0498 25.4499H45.9348C45.477 14.5315 36.4593 5.8606 25.4854 5.8606C14.5254 5.8606 5.5215 14.5176 5.0498 25.4499Z" fill="#002ED3"/>
<path fill-rule="evenodd" clip-rule="evenodd" d="M25.4444 7.55322C35.6136 7.55322 43.9099 15.6553 44.2013 25.7552H6.6875C6.97884 15.6553 15.2752 7.55322 25.4444 7.55322Z" fill="#FFCC00"/>
<path fill-rule="evenodd" clip-rule="evenodd" d="M7.0752 25.4499H43.9092C43.4514 15.6414 35.3493 7.88611 25.4852 7.88611C15.649 7.88611 7.54689 15.6414 7.0752 25.4499Z" fill="#E21C2A"/>
<path fill-rule="evenodd" clip-rule="evenodd" d="M25.4572 9.57874C34.6969 9.57874 42.2024 17.0843 42.2024 26.324C42.2024 35.5637 34.6969 43.0692 25.4572 43.0692C16.2174 43.0692 8.71191 35.5637 8.71191 26.324C8.71191 17.0843 16.2174 9.57874 25.4572 9.57874Z" fill="#FFCC00"/>
<path fill-rule="evenodd" clip-rule="evenodd" d="M25.457 9.8562C34.5441 9.8562 41.9248 17.2369 41.9248 26.324C41.9248 35.4111 34.5441 42.7917 25.457 42.7917C16.3699 42.7917 8.98926 35.425 8.98926 26.324C8.98926 17.2369 16.3699 9.8562 25.457 9.8562Z" fill="white"/>
<path fill-rule="evenodd" clip-rule="evenodd" d="M30.7855 36.8955C30.0918 37.5337 29.3426 38.2135 28.5241 38.6575C28.2189 38.8239 27.9137 38.9488 27.5946 39.0737C26.8454 39.365 26.3182 39.6008 25.6939 40.128C25.5968 40.2113 25.4997 40.1974 25.3887 40.1142C24.7644 39.587 24.2372 39.3511 23.488 39.0598C23.1689 38.9349 22.8637 38.8101 22.5585 38.6436C21.74 38.1996 20.9908 37.5198 20.2971 36.8817L19.4509 36.9788L19.3954 36.8123C18.9792 35.4804 18.8959 34.0515 19.7283 32.8584L19.9503 32.5393L20.089 32.9139C20.4359 33.8989 21.0047 34.7729 21.7816 35.4804L22.0313 35.7024L21.7122 35.8134C21.4486 35.9105 21.2267 36.0631 21.0602 36.2712L22.1701 36.7707C22.6418 36.8539 23.0857 37.1175 23.5713 36.84C24.5147 36.3128 24.5979 34.0376 24.6118 33.1358L24.6812 29.3484L24.7228 28.1553L24.9586 21.0798H23.488C23.3216 21.0798 23.1689 20.9411 23.1689 20.7607V20.1087C23.1689 19.9422 23.3077 19.7896 23.488 19.7896H24.2927C23.8071 19.4289 23.5019 18.8601 23.5019 18.208C23.5019 17.112 24.3898 16.238 25.4719 16.238C26.5679 16.238 27.442 17.1259 27.442 18.208C27.442 18.8601 27.1229 19.4289 26.6512 19.7896H27.553C27.7194 19.7896 27.872 19.9283 27.872 20.1087V20.7746C27.872 20.9411 27.7333 21.0937 27.553 21.0937H26.0962L26.3737 29.3761L26.4431 33.1636C26.457 34.0515 26.5402 36.3406 27.4836 36.8678C27.9692 37.1453 28.4131 36.8678 28.8848 36.7984L29.9947 36.299C29.8282 36.0909 29.6062 35.9383 29.3426 35.8411L29.0235 35.7302L29.2733 35.5082C30.0502 34.8006 30.6051 33.9266 30.9658 32.9416L31.1046 32.567L31.3265 32.8861C32.1589 34.0792 32.0757 35.5082 31.6595 36.84L31.604 37.0065L30.7855 36.8955ZM25.4997 17.3617C25.9714 17.3617 26.3598 17.7502 26.3598 18.2219C26.3598 18.6936 25.9714 19.082 25.4997 19.082C25.028 19.082 24.6395 18.6936 24.6395 18.2219C24.6395 17.7502 25.028 17.3617 25.4997 17.3617Z" fill="#2C2C2B"/>
<path fill-rule="evenodd" clip-rule="evenodd" d="M25.5545 20.733H25.9152L26.1511 28.1692L26.1927 29.3623L26.2621 33.1497C26.3453 38.2968 28.3292 37.0759 28.9674 36.9649L30.327 36.3545C30.1189 36.0215 29.8275 35.7718 29.4391 35.6331C30.2437 34.8839 30.8264 33.996 31.1871 32.9832C31.853 33.9405 31.9779 35.203 31.4923 36.7568L30.7154 36.6597C29.9385 37.3811 29.2032 38.0332 28.4263 38.4632C27.4829 38.9766 26.706 38.9904 25.5684 39.9477C25.5406 39.9616 25.5545 39.9616 25.5268 39.9338C24.3891 38.9766 23.6122 38.9627 22.6688 38.4494C21.8919 38.0193 21.1566 37.3672 20.3797 36.6458L19.6028 36.7429C19.1172 35.1891 19.2421 33.9266 19.908 32.9694C20.2687 33.9683 20.8375 34.87 21.6561 35.6192C21.2676 35.7579 20.9624 36.0215 20.7682 36.3406L22.1278 36.951C22.7659 37.0482 24.7498 38.269 24.8331 33.1358L24.9025 29.3484L24.9441 28.1553L25.1799 20.7191H25.5545V20.733Z" fill="#FFCC00"/>
<path fill-rule="evenodd" clip-rule="evenodd" d="M25.6513 21.7874V38.38C26.2756 38.3661 26.8166 38.2967 27.3022 38.1858C27.8294 38.0609 28.2872 37.8944 28.6895 37.6724C29.1612 37.4227 29.6191 37.0898 29.9936 36.7013C30.3266 36.3545 30.6179 35.966 30.7983 35.5221C30.937 35.1891 31.0341 34.8145 31.0758 34.3844C31.1174 34.0237 31.1313 33.6491 31.1035 33.2468C31.1035 33.2191 31.0896 33.2052 31.1035 33.1774L31.1868 32.9693L31.2977 33.1774C31.3116 33.1913 31.2977 33.2191 31.2977 33.2329C31.3255 33.6491 31.3116 34.0376 31.27 34.4122C31.2145 34.8561 31.1174 35.2585 30.9787 35.6053C30.7844 36.0631 30.4792 36.4793 30.1324 36.8539C29.73 37.2562 29.2583 37.6031 28.7728 37.8667C28.3566 38.0886 27.8849 38.269 27.3438 38.3939C26.8444 38.5048 26.2894 38.5742 25.6513 38.5881V39.7257H25.4432V38.5881C24.805 38.5742 24.25 38.5048 23.7506 38.3939C23.2095 38.269 22.7378 38.0886 22.3216 37.8667C21.8361 37.6031 21.3644 37.2701 20.962 36.8539C20.6013 36.4932 20.31 36.077 20.1158 35.6053C19.9631 35.2585 19.866 34.8561 19.8244 34.4122C19.7828 34.0376 19.7689 33.663 19.7967 33.2329C19.7967 33.2191 19.7967 33.1913 19.7967 33.1774L19.9076 32.9693L19.9909 33.1774C20.0048 33.2052 19.9909 33.2191 19.9909 33.2468C19.9631 33.6491 19.977 34.0376 20.0186 34.3844C20.0603 34.8006 20.1574 35.1891 20.2961 35.5221C20.4765 35.966 20.7678 36.3545 21.1008 36.7013C21.4892 37.0898 21.947 37.4227 22.4049 37.6724C22.8072 37.8944 23.265 38.0609 23.7922 38.1858C24.2778 38.2967 24.8188 38.3661 25.4432 38.38V21.7874H25.6513Z" fill="#2C2C2B"/>
<path fill-rule="evenodd" clip-rule="evenodd" d="M25.5408 19.9977H27.5663C27.6218 19.9977 27.6773 20.0532 27.6773 20.1087V20.7746C27.6773 20.8301 27.6218 20.8856 27.5663 20.8856H25.5408H23.5153C23.4598 20.8856 23.4043 20.8301 23.4043 20.7746V20.1087C23.4043 20.0532 23.4598 19.9977 23.5153 19.9977H25.5408ZM25.4992 16.4461C26.4842 16.4461 27.275 17.2369 27.275 18.2219C27.275 19.2069 26.4842 19.9977 25.4992 19.9977C24.5142 19.9977 23.7234 19.2069 23.7234 18.2219C23.7234 17.2369 24.528 16.4461 25.4992 16.4461ZM25.4992 17.1398C26.0957 17.1398 26.5813 17.6253 26.5813 18.2219C26.5813 18.8185 26.0957 19.304 25.4992 19.304C24.9026 19.304 24.4171 18.8185 24.4171 18.2219C24.4171 17.6253 24.9026 17.1398 25.4992 17.1398Z" fill="#FFCC00"/>
<path fill-rule="evenodd" clip-rule="evenodd" d="M27.3728 26.1575L27.3451 26.1714L27.2618 26.1298C27.1508 26.0743 27.026 26.0465 26.915 25.991L26.582 25.8246L26.9011 25.6303C27.4144 25.3251 27.9139 24.8395 28.3301 24.4095C28.7324 24.021 29.1347 23.6048 29.5648 23.2441C30.0643 22.8279 30.5221 22.6337 31.1741 22.5782C31.2435 22.5782 31.299 22.5643 31.3684 22.5643C31.9927 22.5366 32.617 22.7308 33.1997 22.925C34.6286 23.3967 36.0021 24.1043 37.4588 24.4788C38.0692 24.576 38.8739 24.6453 39.4705 24.4233C39.6508 24.3679 39.8728 24.3401 39.9976 24.5066C40.1364 24.7008 40.0254 24.9505 39.9005 25.1031C39.8173 25.2003 39.7202 25.2974 39.6231 25.3806L39.5676 25.5193C39.415 25.9355 39.1236 26.213 38.7352 26.2963C38.5409 26.8235 38.2357 27.0038 37.7224 26.9899C37.5282 27.5171 37.1675 27.5587 36.7096 27.531L36.6958 27.5587C36.5015 27.9195 36.0576 27.9749 35.5859 27.9056C35.4888 28.0721 35.35 28.1969 35.1697 28.2524C34.8229 28.3773 34.4205 28.2663 34.0459 28.1276C34.0182 28.1692 34.0043 28.2108 33.9488 28.2385C33.5188 28.516 32.9361 28.3911 32.4227 28.1692C32.395 28.2108 32.3811 28.2385 32.3256 28.2663C31.1325 28.9322 30.0504 27.5587 29.0793 27.1287C28.996 27.087 28.8989 27.0593 28.8711 26.9761C28.7185 26.9483 28.5798 26.8651 28.3717 26.7402L27.3728 26.1575Z" fill="#2C2C2B"/>
<path fill-rule="evenodd" clip-rule="evenodd" d="M27.3312 25.9494C27.2202 25.8939 27.0954 25.8662 26.9844 25.8107C27.8584 25.2835 28.8573 24.0904 29.6897 23.4106C30.1475 23.0221 30.5776 22.8417 31.1742 22.7863C31.2296 22.7863 31.299 22.7724 31.3545 22.7724C31.9511 22.7446 32.5615 22.9389 33.1164 23.1192C34.5454 23.577 35.9466 24.3123 37.4033 24.673C38.3745 24.8256 39.0543 24.784 39.526 24.6037C40.0948 24.4094 39.8451 25.1031 39.193 25.3806C38.7629 25.5609 38.3051 25.4777 37.8612 25.3945C36.9316 25.228 36.0021 24.9089 35.0448 24.5066C34.2263 24.1597 33.4633 23.7019 32.6031 23.4383C31.7846 23.1886 31.0909 23.1331 30.5082 23.3967C29.5926 23.8129 28.774 25.2141 27.3312 25.9494Z" fill="#FFCC00"/>
<path fill-rule="evenodd" clip-rule="evenodd" d="M30.1894 23.7574C31.4241 22.7585 33.3109 23.8407 34.5734 24.4234C34.7121 24.4927 34.7399 24.4789 34.7399 24.6315C34.726 24.7147 34.6289 24.7702 34.504 24.7979C34.2404 24.8534 34.0462 24.7563 33.7965 24.6592C32.645 24.2291 31.5073 23.6881 30.2449 23.8129C30.12 23.8129 30.0784 23.8407 30.1894 23.7574Z" fill="#FFCC00"/>
<path fill-rule="evenodd" clip-rule="evenodd" d="M34.3232 24.9366C34.6701 24.895 34.8782 24.784 34.8921 24.5759C35.8909 25.0337 37.2367 25.4915 38.4853 25.6164C38.846 25.6441 39.068 25.5748 39.3593 25.4776C39.1928 25.9632 38.8044 26.1852 38.3188 26.1574C37.0147 26.0603 35.8354 25.7412 34.3232 24.9366Z" fill="#FFCC00"/>
<path fill-rule="evenodd" clip-rule="evenodd" d="M29.5781 24.2706C29.7307 24.1458 29.8278 23.9932 30.022 23.9654C31.2429 23.7434 32.7551 24.3955 33.8234 24.8117C34.1147 24.9227 33.9344 25.1447 33.7124 25.1863C33.4488 25.2418 33.2546 25.214 33.0048 25.1169C31.8533 24.6868 30.9377 24.0348 29.6197 24.3261C29.5087 24.3539 29.4532 24.3677 29.5781 24.2706Z" fill="#FFCC00"/>
<path fill-rule="evenodd" clip-rule="evenodd" d="M33.4775 25.3251C33.8382 25.3112 34.088 25.2002 34.1018 24.9921C35.0314 25.4083 36.7933 26.3517 38.5552 26.2407C38.3887 26.7263 38.1251 26.8373 37.6396 26.8095C37.1124 26.7679 36.5991 26.6292 36.058 26.4488C35.2533 26.1991 34.3793 25.8107 33.4775 25.3251Z" fill="#FFCC00"/>
<path fill-rule="evenodd" clip-rule="evenodd" d="M29.08 24.7424C29.2326 24.6175 29.3436 24.4927 29.524 24.451C30.7587 24.1458 31.8408 24.7701 32.9091 25.2141C33.2004 25.3389 33.0478 25.5193 32.8259 25.5609C32.5623 25.6164 32.368 25.5887 32.1183 25.4915C30.9668 25.0615 30.4535 24.5065 29.1355 24.7979C29.0245 24.8117 28.969 24.8395 29.08 24.7424Z" fill="#FFCC00"/>
<path fill-rule="evenodd" clip-rule="evenodd" d="M32.5762 25.6997C32.9369 25.6858 33.1866 25.5748 33.2005 25.3667C33.8387 25.6303 35.7948 26.7263 37.529 26.9205C37.3625 27.4061 37.0157 27.3645 36.5301 27.3367C35.6006 27.2812 33.3947 26.1436 32.5762 25.6997Z" fill="#FFCC00"/>
<path fill-rule="evenodd" clip-rule="evenodd" d="M28.663 25.1586C28.8156 25.0338 28.8017 24.9922 28.9821 24.9367C30.3001 24.5621 31.0215 25.1725 32.0897 25.6165C32.3811 25.7413 32.2978 25.8662 32.0759 25.9078C31.8123 25.9633 31.6458 25.8523 31.3961 25.7691C30.2585 25.4084 30.092 25.1031 28.7185 25.2003C28.5936 25.2141 28.552 25.2419 28.663 25.1586Z" fill="#FFCC00"/>
<path fill-rule="evenodd" clip-rule="evenodd" d="M31.8262 26.0604C32.173 26.0465 32.3811 25.9494 32.395 25.7413C32.8806 25.9494 34.1569 26.6986 35.4749 27.1842C35.8078 27.309 36.1686 27.4478 36.5015 27.4755C35.9466 28.516 32.5337 26.2963 31.8262 26.0604Z" fill="#FFCC00"/>
<path fill-rule="evenodd" clip-rule="evenodd" d="M28.3021 25.4361C28.4547 25.3112 28.4269 25.3112 28.6073 25.2973C30.2166 25.228 30.3692 25.5748 31.2849 25.88C31.5901 25.9771 31.4375 26.1436 31.2155 26.1575C30.3831 26.2269 29.4397 25.3528 28.4131 25.4916C28.3021 25.5054 28.1772 25.5332 28.3021 25.4361Z" fill="#FFCC00"/>
<path fill-rule="evenodd" clip-rule="evenodd" d="M31.0488 26.324C31.3957 26.3101 31.5621 26.2546 31.5621 26.0465C32.7414 26.5182 34.212 27.5726 35.419 27.7807C35.3496 27.9194 35.2386 28.0165 35.0999 28.072C34.6698 28.2385 34.0594 27.9194 33.6848 27.7391C32.6304 27.2535 31.4373 26.4488 31.0488 26.324Z" fill="#FFCC00"/>
<path fill-rule="evenodd" clip-rule="evenodd" d="M30.245 26.5321C30.5086 26.5043 30.6612 26.435 30.7444 26.2823C31.8266 26.8095 32.77 27.531 33.8798 28.0027C33.866 28.0304 33.8521 28.0581 33.8382 28.072C32.8948 28.6686 30.897 26.9899 30.2034 26.5876C30.0646 26.5182 30.1201 26.5459 30.245 26.5321Z" fill="#FFCC00"/>
<path fill-rule="evenodd" clip-rule="evenodd" d="M29.162 26.8789C29.4256 26.8512 29.6754 26.7263 29.7864 26.6015C29.8002 26.5737 29.8141 26.5599 29.828 26.5321C29.8835 26.5599 29.939 26.5876 29.9806 26.6292C30.8407 27.1425 31.2014 27.6004 32.2697 28.0304C32.2558 28.0582 32.242 28.0859 32.2281 28.0998C31.1598 28.6964 30.0638 27.3506 29.162 26.9483C29.0233 26.8928 29.0094 26.8928 29.162 26.8789Z" fill="#FFCC00"/>
<path fill-rule="evenodd" clip-rule="evenodd" d="M27.9971 25.6858C28.1498 25.5609 28.122 25.6025 28.3024 25.5887C28.5937 25.5748 28.885 25.5609 29.1486 25.6442C29.5648 25.769 29.9533 26.0187 30.4111 26.1297C30.5221 26.1575 30.5776 26.1852 30.5776 26.213C30.6053 26.324 30.2446 26.4904 29.9672 26.435C29.3706 26.3101 29.0515 25.9216 28.1081 25.7552C27.9971 25.7274 27.8862 25.7829 27.9971 25.6858Z" fill="#FFCC00"/>
<path fill-rule="evenodd" clip-rule="evenodd" d="M28.4688 26.5738L27.5254 26.0188L27.8445 25.8107C27.9832 25.8107 28.2884 25.8801 28.6214 26.0188C28.9405 26.1576 29.3289 26.2824 29.5093 26.4489C29.6758 26.6015 29.5093 26.6709 29.218 26.7541C28.8572 26.8374 28.7879 26.7541 28.4688 26.5738Z" fill="#FFCC00"/>
<path fill-rule="evenodd" clip-rule="evenodd" d="M23.5709 26.1575L23.5987 26.1714L23.6819 26.1298C23.7929 26.0743 23.9177 26.0465 24.0287 25.991L24.3617 25.8246L24.0426 25.6303C23.5293 25.3251 23.0298 24.8395 22.6136 24.4095C22.2113 24.021 21.809 23.6048 21.3789 23.2441C20.8795 22.8279 20.4216 22.6337 19.7696 22.5782C19.7002 22.5782 19.6447 22.5643 19.5754 22.5643C18.9511 22.5366 18.3267 22.7308 17.7441 22.925C16.3151 23.3967 14.9555 24.1043 13.4849 24.4788C12.8745 24.576 12.0698 24.6453 11.4733 24.4233C11.2929 24.3679 11.0709 24.3401 10.9461 24.5066C10.8073 24.7008 10.9183 24.9505 11.0432 25.1031C11.1264 25.2003 11.2235 25.2974 11.3207 25.3806L11.3762 25.5193C11.5288 25.9355 11.8201 26.213 12.2086 26.2963C12.4028 26.8235 12.708 27.0038 13.2213 26.9899C13.4155 27.5171 13.7763 27.5587 14.2341 27.531L14.248 27.5587C14.4422 27.9195 14.8861 27.9749 15.3578 27.9056C15.4549 28.0721 15.5937 28.1969 15.774 28.2524C16.1209 28.3773 16.5232 28.2663 16.8978 28.1276C16.9255 28.1692 16.9394 28.2108 16.9949 28.2385C17.425 28.516 18.0077 28.3911 18.521 28.1692C18.5487 28.2108 18.5626 28.2385 18.6181 28.2663C19.8112 28.9322 20.8933 27.5587 21.8645 27.1287C21.9477 27.087 22.0448 27.0593 22.0726 26.9761C22.2252 26.9483 22.3639 26.8651 22.572 26.7402L23.5709 26.1575Z" fill="#2C2C2B"/>
<path fill-rule="evenodd" clip-rule="evenodd" d="M23.6131 25.9495C23.7241 25.894 23.8489 25.8662 23.9599 25.8107C23.0859 25.2835 22.087 24.0904 21.2546 23.4106C20.7968 23.0222 20.3667 22.8418 19.7701 22.7863C19.7146 22.7863 19.6453 22.7724 19.5898 22.7724C18.9932 22.7447 18.3828 22.9389 17.8278 23.1193C16.3989 23.5771 14.9977 24.3124 13.5409 24.6731C12.5698 24.8257 11.89 24.7841 11.4183 24.6037C10.8495 24.4095 11.0992 25.1032 11.7513 25.3806C12.1813 25.561 12.6392 25.4778 13.0831 25.3945C14.0126 25.228 14.9422 24.9089 15.8994 24.5066C16.718 24.1598 17.481 23.702 18.3412 23.4384C19.1597 23.1886 19.8534 23.1331 20.436 23.3967C21.3517 23.8129 22.1702 25.2142 23.6131 25.9495Z" fill="#FFCC00"/>
<path fill-rule="evenodd" clip-rule="evenodd" d="M20.7556 23.7575C19.5208 22.7586 17.634 23.8407 16.3716 24.4234C16.2328 24.4928 16.2051 24.4789 16.2051 24.6315C16.219 24.7148 16.3161 24.7703 16.4409 24.798C16.7045 24.8535 16.8987 24.7564 17.1485 24.6593C18.3 24.2292 19.4376 23.6881 20.7001 23.813C20.8111 23.813 20.8666 23.8407 20.7556 23.7575Z" fill="#FFCC00"/>
<path fill-rule="evenodd" clip-rule="evenodd" d="M16.6073 24.9366C16.2605 24.895 16.0524 24.784 16.0385 24.5759C15.0396 25.0338 13.6939 25.4916 12.4453 25.6164C12.0846 25.6442 11.8626 25.5748 11.5713 25.4777C11.7378 25.9633 12.1262 26.1852 12.6118 26.1575C13.9298 26.0604 15.109 25.7413 16.6073 24.9366Z" fill="#FFCC00"/>
<path fill-rule="evenodd" clip-rule="evenodd" d="M21.3645 24.2707C21.2119 24.1458 21.1148 23.9932 20.9205 23.9655C19.6997 23.7435 18.1875 24.3956 17.1192 24.8118C16.8279 24.9227 17.0082 25.1447 17.2302 25.1863C17.4938 25.2418 17.688 25.2141 17.9378 25.117C19.0893 24.6869 20.0049 24.0348 21.3229 24.3262C21.42 24.3539 21.4755 24.3678 21.3645 24.2707Z" fill="#FFCC00"/>
<path fill-rule="evenodd" clip-rule="evenodd" d="M17.4673 25.3252C17.1066 25.3113 16.8569 25.2003 16.843 24.9922C15.9135 25.4084 14.1516 26.3518 12.3896 26.2408C12.5561 26.7264 12.8197 26.8374 13.3053 26.8096C13.8325 26.768 14.3458 26.6293 14.8869 26.4489C15.6915 26.1992 16.5656 25.8107 17.4673 25.3252Z" fill="#FFCC00"/>
<path fill-rule="evenodd" clip-rule="evenodd" d="M21.8646 24.7424C21.712 24.6176 21.601 24.4927 21.4206 24.4511C20.1859 24.1459 19.1038 24.7702 18.0355 25.2141C17.7442 25.339 17.8968 25.5194 18.1188 25.561C18.3824 25.6165 18.5766 25.5887 18.8263 25.4916C19.9778 25.0615 20.4911 24.5066 21.8091 24.7979C21.9201 24.8118 21.9756 24.8396 21.8646 24.7424Z" fill="#FFCC00"/>
<path fill-rule="evenodd" clip-rule="evenodd" d="M18.3542 25.6997C17.9935 25.6858 17.7438 25.5748 17.7299 25.3667C17.0917 25.6303 15.1355 26.7263 13.4014 26.9205C13.5678 27.4061 13.9147 27.3645 14.4003 27.3367C15.3436 27.2812 17.5495 26.1436 18.3542 25.6997Z" fill="#FFCC00"/>
<path fill-rule="evenodd" clip-rule="evenodd" d="M22.281 25.1587C22.1284 25.0338 22.1423 24.9922 21.9619 24.9367C20.6439 24.5621 19.9225 25.1726 18.8542 25.6165C18.5629 25.7414 18.6461 25.8662 18.8681 25.9079C19.1317 25.9634 19.2982 25.8524 19.5479 25.7691C20.6855 25.4084 20.852 25.1032 22.2255 25.2003C22.3365 25.2142 22.392 25.2419 22.281 25.1587Z" fill="#FFCC00"/>
<path fill-rule="evenodd" clip-rule="evenodd" d="M19.1041 26.0605C18.7572 26.0466 18.5491 25.9495 18.5352 25.7414C18.0497 25.9495 16.7733 26.6987 15.4553 27.1842C15.1224 27.3091 14.7617 27.4478 14.4287 27.4756C14.9975 28.5161 18.4104 26.2963 19.1041 26.0605Z" fill="#FFCC00"/>
<path fill-rule="evenodd" clip-rule="evenodd" d="M22.6424 25.4361C22.4898 25.3113 22.5176 25.3113 22.3372 25.2974C20.7279 25.228 20.5753 25.5749 19.6596 25.8801C19.3544 25.9772 19.507 26.1437 19.729 26.1576C20.5614 26.2269 21.5048 25.3529 22.5315 25.4916C22.6286 25.5055 22.7534 25.5333 22.6424 25.4361Z" fill="#FFCC00"/>
<path fill-rule="evenodd" clip-rule="evenodd" d="M19.8945 26.324C19.5477 26.3102 19.3812 26.2547 19.3812 26.0466C18.202 26.5183 16.7314 27.5726 15.5244 27.7807C15.5938 27.9195 15.7048 28.0166 15.8435 28.0721C16.2736 28.2386 16.884 27.9195 17.2586 27.7391C18.2991 27.2536 19.5061 26.4489 19.8945 26.324Z" fill="#FFCC00"/>
<path fill-rule="evenodd" clip-rule="evenodd" d="M20.6993 26.5321C20.4357 26.5043 20.2831 26.435 20.1999 26.2823C19.1177 26.8095 18.1743 27.531 17.0645 28.0027C17.0783 28.0304 17.0922 28.0581 17.1061 28.072C18.0495 28.6686 20.0472 26.9899 20.7409 26.5876C20.8796 26.5182 20.8242 26.5459 20.6993 26.5321Z" fill="#FFCC00"/>
<path fill-rule="evenodd" clip-rule="evenodd" d="M21.7815 26.879C21.5179 26.8513 21.2682 26.7264 21.1572 26.6015C21.1433 26.5738 21.1294 26.5599 21.1156 26.5322C21.0601 26.5599 21.0046 26.5877 20.9629 26.6293C20.1028 27.1426 19.7421 27.6004 18.6738 28.0305C18.6877 28.0582 18.7016 28.086 18.7154 28.0999C19.7837 28.6964 20.8797 27.3507 21.7815 26.9484C21.9063 26.8929 21.9341 26.8929 21.7815 26.879Z" fill="#FFCC00"/>
<path fill-rule="evenodd" clip-rule="evenodd" d="M22.9472 25.6858C22.7946 25.561 22.8223 25.6026 22.642 25.5887C22.3506 25.5749 22.0593 25.561 21.7957 25.6442C21.3795 25.7691 20.991 26.0188 20.5332 26.1298C20.4222 26.1575 20.3667 26.1853 20.3667 26.213C20.339 26.324 20.6997 26.4905 20.9772 26.435C21.5737 26.3102 21.8928 25.9217 22.8362 25.7552C22.9472 25.7275 23.0582 25.783 22.9472 25.6858Z" fill="#FFCC00"/>
<path fill-rule="evenodd" clip-rule="evenodd" d="M22.4748 26.5738L23.4182 26.0188L23.0991 25.8107C22.9604 25.8107 22.6552 25.8801 22.3222 26.0188C22.0031 26.1576 21.6147 26.2824 21.4343 26.4489C21.2678 26.6015 21.4343 26.6709 21.7256 26.7541C22.0864 26.8374 22.1557 26.7541 22.4748 26.5738Z" fill="#FFCC00"/>
<path fill-rule="evenodd" clip-rule="evenodd" d="M30.7017 32.3312L16.1624 17.4312C15.8571 17.0982 15.6768 16.7514 15.649 16.3074C15.6352 16.1964 15.6352 16.1132 15.6213 15.9883L15.6074 15.7802L15.871 15.7941C15.9959 15.7941 16.1207 15.7941 16.2456 15.808C16.6479 15.8496 16.967 16.0299 17.2722 16.3213L32.1723 30.8606C31.1734 31.9566 31.4093 31.2907 30.7017 32.3312Z" fill="#2C2C2B"/>
<path fill-rule="evenodd" clip-rule="evenodd" d="M33.9474 34.9256C34.1832 35.2031 34.4607 35.4528 34.8214 35.5499C35.0018 35.6054 35.1128 35.6054 35.2515 35.4528C35.2792 35.425 35.307 35.3973 35.3486 35.3557C35.4735 35.2308 35.5151 35.1614 35.5012 34.9672C35.4735 34.4955 35.2099 34.1903 34.8353 33.9683C34.8353 33.899 34.8214 33.8296 34.7659 33.7741L34.6411 33.6492C34.5717 33.5799 34.4885 33.566 34.4052 33.5799L32.3242 31.2075L31.9496 30.7081L31.6721 31.3324L30.6455 31.9844L31.0201 32.2896L31.2559 32.5255L33.5034 34.5094C33.4896 34.5926 33.5034 34.6759 33.5728 34.7314L33.6977 34.8562C33.7532 34.9533 33.8641 34.9672 33.9474 34.9256Z" fill="#2C2C2B"/>
<path fill-rule="evenodd" clip-rule="evenodd" d="M31.7136 31.5544L31.6165 32.5949L31.3945 32.3868L31.1587 32.151L30.9922 32.0261L31.7136 31.5544ZM34.2386 34.0933L34.2663 33.7326L34.4189 33.9129L34.2386 34.0933ZM34.1415 33.6077L34.086 34.2459L33.7946 34.5372L33.753 34.4956L33.864 33.2886L34.1415 33.6077ZM33.753 33.1499L33.642 34.3846L33.3645 34.1349L33.4894 32.8308L33.753 33.1499ZM33.3645 32.7059L33.2397 34.0378L32.9622 33.788L33.101 32.4007L33.3645 32.7059ZM32.9622 32.2481L32.8235 33.6632L32.546 33.4135L32.6847 31.929L32.9622 32.2481ZM32.5738 31.8041L32.435 33.3163L32.1576 33.0666L32.3102 31.4851L32.5738 31.8041ZM32.1714 31.3463L32.0188 32.9418L31.7414 32.692L31.8662 31.4018L32.0049 31.1105L32.1714 31.3463Z" fill="#FFCC00"/>
<path fill-rule="evenodd" clip-rule="evenodd" d="M33.9883 34.6481L34.3906 34.2181L34.4045 34.2319C34.5155 34.3152 34.6542 34.4262 34.7652 34.5649C34.8901 34.7036 34.9872 34.8701 35.0149 35.0782C35.0149 35.106 35.0565 35.1337 35.0843 35.1337C35.112 35.1337 35.1398 35.0921 35.1398 35.0643C35.112 34.8424 35.001 34.6481 34.8623 34.4955C34.7374 34.3429 34.5848 34.2181 34.4739 34.1348L34.5571 34.0516C34.9872 34.2597 35.2924 34.5371 35.3201 34.995C35.3201 35.1198 35.3063 35.1337 35.223 35.2308C35.1953 35.2586 35.1675 35.2863 35.1259 35.3279C35.0427 35.4112 35.0149 35.3973 34.8901 35.3696C34.571 35.2724 34.2658 35.0505 33.9883 34.6481Z" fill="#FFCC00"/>
<path fill-rule="evenodd" clip-rule="evenodd" d="M34.6128 33.6354C34.5157 33.5383 34.3492 33.5521 34.2521 33.6631L33.5585 34.44C33.4613 34.5372 33.4752 34.7036 33.5723 34.8007L33.6972 34.9117C33.7943 35.0088 33.9608 34.995 34.0579 34.884L34.7516 34.1071C34.8487 34.01 34.8348 33.8435 34.7377 33.7464L34.6128 33.6354Z" fill="#2C2C2B"/>
<path fill-rule="evenodd" clip-rule="evenodd" d="M34.4883 33.7879L34.6131 33.8989C34.627 33.9128 34.627 33.9405 34.6131 33.9683L33.9195 34.7452C33.9056 34.7729 33.864 34.7729 33.8501 34.7591L33.7252 34.6481C33.7114 34.6342 33.7114 34.6065 33.7252 34.5787L34.4189 33.8018C34.4328 33.774 34.4605 33.774 34.4883 33.7879Z" fill="#FFCC00"/>
<path fill-rule="evenodd" clip-rule="evenodd" d="M31.4087 31.8595L26.3449 26.6847L15.8427 16.1687C15.8288 16.6265 15.9814 16.9595 16.3005 17.3063L30.7705 32.137L31.4087 31.8595ZM31.6861 31.5821L26.5113 26.5183L16.0091 16.0161C16.467 16.0022 16.7999 16.1548 17.1468 16.4739L31.9775 30.9439L31.6861 31.5821Z" fill="#D9DBDC"/>
<path fill-rule="evenodd" clip-rule="evenodd" d="M32.977 29.7231C33.2267 29.737 33.5042 29.5844 33.6568 29.4318C33.8649 29.2237 34.1007 28.752 33.8371 28.4884C33.5874 28.2386 33.088 28.4329 32.866 28.6549C32.6995 28.8213 32.5608 29.1127 32.5885 29.3624L30.5907 30.7775L29.1757 32.7753C28.9259 32.7475 28.6346 32.8863 28.4681 33.0527C28.26 33.2608 28.0519 33.7603 28.3016 34.0239C28.5513 34.2736 29.0369 34.0516 29.245 33.8435C29.3976 33.6909 29.5502 33.4134 29.5364 33.1637L31.659 31.8596L32.977 29.7231Z" fill="#2C2C2B"/>
<path fill-rule="evenodd" clip-rule="evenodd" d="M31.5336 31.6931L29.3277 33.0527C29.4109 33.1776 29.3416 33.4689 29.1196 33.6909C28.8838 33.9267 28.5647 33.9822 28.4676 33.8712C28.3704 33.7741 28.3982 33.4273 28.634 33.1914C28.8421 32.9833 29.1474 32.9278 29.2861 33.0111L30.7567 30.9301L32.8516 29.4595C32.7822 29.3346 32.8238 29.0294 33.0319 28.8074C33.2678 28.5716 33.6146 28.5438 33.7117 28.641C33.8088 28.7381 33.7533 29.0572 33.5314 29.293C33.3094 29.515 33.018 29.5705 32.8932 29.5011L31.5336 31.6931Z" fill="#FFCC00"/>
<path fill-rule="evenodd" clip-rule="evenodd" d="M29.6753 32.581C29.6476 32.6088 29.6476 32.6504 29.6615 32.6782C29.6892 32.7059 29.7308 32.692 29.7586 32.6643L31.1598 31.3741L31.3263 31.6238C31.354 31.6515 31.4511 31.6376 31.4789 31.6238C31.5066 31.596 31.5066 31.5128 31.4789 31.485L31.2292 31.3186L32.4916 29.9173C32.5194 29.8896 32.5471 29.8618 32.5194 29.8341C32.4916 29.8064 32.4639 29.848 32.4361 29.8757L31.0904 31.166L30.9239 30.944C30.8962 30.9162 30.813 30.944 30.7991 30.9717C30.7713 30.9995 30.7575 31.055 30.7852 31.0827L31.0211 31.2353L29.6753 32.581Z" fill="#2C2C2B"/>
<path fill-rule="evenodd" clip-rule="evenodd" d="M17.0361 34.8978C16.8002 35.1753 16.5089 35.4111 16.1482 35.5082C15.9539 35.5499 15.8568 35.5637 15.7181 35.4111C15.6903 35.3834 15.6626 35.3556 15.621 35.314C15.4961 35.1753 15.4545 35.1198 15.4684 34.9256C15.4961 34.4539 15.7736 34.1486 16.1482 33.9405C16.1482 33.8712 16.162 33.8018 16.2175 33.7463L16.3424 33.6215C16.4118 33.5521 16.5089 33.5382 16.5921 33.566L18.7148 31.2213L19.1032 30.7358L19.3807 31.3601L20.3934 32.0399L20.005 32.3312L19.7691 32.5671L17.4939 34.5094C17.5078 34.5926 17.48 34.6758 17.4245 34.7313L17.2997 34.8562C17.2442 34.9256 17.1332 34.9394 17.0361 34.8978Z" fill="#2C2C2B"/>
<path fill-rule="evenodd" clip-rule="evenodd" d="M19.3387 31.5682L19.422 32.6087L19.6578 32.4145L19.8937 32.1786L20.0602 32.0538L19.3387 31.5682ZM16.7722 34.0654L16.7444 33.7047L16.5918 33.8712L16.7722 34.0654ZM16.8693 33.566L16.9248 34.2042L17.2161 34.4955L17.2577 34.4539L17.1606 33.2469L16.8693 33.566ZM17.2716 33.122L17.3687 34.3568L17.6601 34.1071L17.5629 32.803L17.2716 33.122ZM17.6739 32.692L17.771 34.0238L18.0624 33.7741L17.9514 32.3868L17.6739 32.692ZM18.0763 32.248L18.1872 33.6631L18.4786 33.4134L18.3676 31.9289L18.0763 32.248ZM18.4786 31.8041L18.5896 33.3163L18.8809 33.0665L18.7561 31.485L18.4786 31.8041ZM18.8809 31.3601L19.0058 32.9694L19.2971 32.7197L19.2 31.4295L19.0751 31.1243L18.8809 31.3601Z" fill="#FFCC00"/>
<path fill-rule="evenodd" clip-rule="evenodd" d="M17.0085 34.6204L16.6062 34.1903L16.5923 34.2042C16.4813 34.2874 16.3426 34.3984 16.2177 34.5372C16.0928 34.6759 15.9957 34.8424 15.968 35.0505C15.968 35.0782 15.9264 35.106 15.8986 35.106C15.8709 35.106 15.8431 35.0644 15.8431 35.0366C15.8709 34.8146 15.9957 34.6204 16.1206 34.4678C16.2454 34.3152 16.3981 34.2042 16.509 34.121L16.4397 34.0377C16.0096 34.2319 15.7044 34.5094 15.6628 34.9672C15.6489 35.0921 15.6628 35.106 15.7599 35.2031C15.7876 35.2308 15.8154 35.2586 15.857 35.3002C15.9402 35.3834 15.968 35.3834 16.0928 35.3418C16.4119 35.2308 16.7171 35.0089 17.0085 34.6204Z" fill="#FFCC00"/>
<path fill-rule="evenodd" clip-rule="evenodd" d="M20.2411 32.3313L34.7805 17.4312C35.0857 17.0982 35.266 16.7514 35.2938 16.3075C35.3076 16.1965 35.3076 16.1132 35.3215 15.9884L35.3354 15.7803L35.0718 15.7941C34.9469 15.7941 34.8221 15.7941 34.6972 15.808C34.2949 15.8496 33.9758 16.03 33.6706 16.3213L18.7705 30.8607C19.7694 31.9567 19.5197 31.2908 20.2411 32.3313Z" fill="#2C2C2B"/>
<path fill-rule="evenodd" clip-rule="evenodd" d="M16.3975 33.5938C16.5085 33.4966 16.6611 33.5244 16.7582 33.6215L17.438 34.4123C17.5351 34.5233 17.5212 34.6759 17.4103 34.773L17.2854 34.884C17.1744 34.9811 17.0218 34.9534 16.9247 34.8562L16.2449 34.0655C16.1616 33.9545 16.1616 33.8019 16.2726 33.7047L16.3975 33.5938Z" fill="#2C2C2B"/>
<path fill-rule="evenodd" clip-rule="evenodd" d="M16.523 33.7464L16.3981 33.8573C16.3842 33.8712 16.3842 33.899 16.3981 33.9267L17.0779 34.7175C17.0918 34.7452 17.1334 34.7452 17.1473 34.7314L17.2721 34.6204C17.286 34.6065 17.286 34.5788 17.2721 34.551L16.5923 33.7602C16.5785 33.7325 16.5507 33.7325 16.523 33.7464Z" fill="#FFCC00"/>
<path fill-rule="evenodd" clip-rule="evenodd" d="M19.5196 31.8595L24.5834 26.6847L35.0995 16.1687C35.1133 16.6265 34.9607 16.9595 34.6416 17.3063L20.1578 32.1231L19.5196 31.8595ZM19.256 31.5821L24.4308 26.5183L34.933 16.0161C34.4751 16.0022 34.1422 16.1548 33.7953 16.4739L18.9785 30.9439L19.256 31.5821Z" fill="#D9DBDC"/>
<path fill-rule="evenodd" clip-rule="evenodd" d="M21.3779 33.1914C21.364 33.4412 21.5166 33.7186 21.6692 33.8712C21.8773 34.0793 22.349 34.3152 22.6126 34.0655C22.8762 33.8157 22.682 33.3163 22.46 33.0943C22.2935 32.9278 22.0022 32.7891 21.7524 32.803L20.3651 30.7775L18.3812 29.3346C18.4089 29.0849 18.2841 28.7936 18.1176 28.6271C17.9095 28.4051 17.41 28.197 17.1603 28.4467C16.8967 28.6964 17.1187 29.182 17.3268 29.3901C17.4794 29.5427 17.7569 29.7092 18.0066 29.6953L19.2691 31.8318L21.3779 33.1914Z" fill="#2C2C2B"/>
<path fill-rule="evenodd" clip-rule="evenodd" d="M19.4361 31.7069L18.1181 29.4733C17.9933 29.5426 17.7019 29.4872 17.4938 29.2652C17.2719 29.0293 17.2164 28.7102 17.3135 28.6131C17.4245 28.516 17.7574 28.5438 17.9933 28.7796C18.2014 29.0016 18.243 29.3068 18.1736 29.4317L20.2408 30.9439L21.6836 33.0526C21.8085 32.9833 22.1137 33.0249 22.3357 33.2469C22.5577 33.4827 22.5854 33.8295 22.4883 33.9267C22.3773 34.0238 22.0582 33.9683 21.8362 33.7324C21.6281 33.5104 21.5588 33.2191 21.642 33.0942L19.4361 31.7069Z" fill="#FFCC00"/>
<path fill-rule="evenodd" clip-rule="evenodd" d="M18.5771 29.8341C18.5493 29.8064 18.5077 29.7925 18.48 29.8202C18.4522 29.848 18.4661 29.8896 18.4938 29.9174L19.7563 31.3324L19.5066 31.4989C19.4789 31.5267 19.4927 31.6238 19.5066 31.6515C19.5343 31.6793 19.6176 31.6793 19.6453 31.6515L19.8118 31.4018L21.1992 32.6782C21.2269 32.7059 21.2547 32.7337 21.2824 32.7059C21.3101 32.6782 21.2824 32.6504 21.2408 32.6227L19.9644 31.2631L20.1864 31.1105C20.2141 31.0827 20.1864 30.9995 20.1725 30.9856C20.1448 30.9579 20.0893 30.944 20.0615 30.9717L19.9089 31.2076L18.5771 29.8341Z" fill="#2C2C2B"/>
<path fill-rule="evenodd" clip-rule="evenodd" d="M41.8007 19.1236L46.0599 17.8195L46.5177 19.2901L45.0332 19.7479L46.7813 20.1919L47.1975 21.5376L42.7164 22.9111L42.2585 21.4405L43.7152 20.9965L41.9811 20.5387L41.5787 19.2346L41.5371 19.2624L40.7879 17.9166L42.1198 17.1814L40.3301 17.0981L39.6503 15.8634L43.7569 13.5881L44.506 14.9339L43.1603 15.683L44.9639 15.7524L45.6437 16.9871L41.8007 19.1236ZM38.3323 11.6459C38.4017 11.5626 38.485 11.4794 38.5682 11.3961C39.0399 10.9383 39.6087 10.6053 40.2746 10.5915C40.8989 10.5776 41.44 10.8412 41.8701 11.2851C42.2447 11.6736 42.4805 12.1453 42.4805 12.6864C42.4805 13.0332 42.3556 13.38 42.1892 13.6852L41.9811 14.046L40.6076 13.1719L40.8296 12.8251C40.8851 12.7419 40.9128 12.6447 40.9128 12.5476C40.8989 12.4505 40.8573 12.3673 40.7879 12.284C40.677 12.173 40.5521 12.1037 40.3856 12.1175C40.1636 12.1314 39.8862 12.3673 39.7336 12.506C39.581 12.6586 39.3035 12.95 39.2896 13.1719C39.2757 13.3245 39.3174 13.4494 39.4283 13.5604C39.4977 13.6298 39.581 13.6852 39.6919 13.6852C39.8307 13.6991 40.011 13.6159 40.122 13.5465L40.4966 13.3245L41.218 14.7812L40.8712 14.9616C40.455 15.1836 39.9972 15.3223 39.5255 15.2391C39.0676 15.1697 38.6792 14.92 38.3601 14.587C37.9439 14.1569 37.7219 13.6159 37.7497 13.0054C37.7774 12.5338 37.9439 12.1314 38.2214 11.7707L38.0687 11.8956C37.708 12.2008 37.278 12.4089 36.8063 12.4228C36.3484 12.4366 35.9045 12.2702 35.5299 12.0066C35.0305 11.6597 34.7114 11.1742 34.6281 10.5776C34.531 9.93942 34.753 9.32899 35.1137 8.81567C35.4883 8.28848 35.9877 7.84453 36.6398 7.70579C37.2502 7.58093 37.8329 7.73354 38.3462 8.08038C38.7902 8.38559 39.1093 8.8018 39.2202 9.34286C39.2896 9.6897 39.2341 10.0365 39.1231 10.3695L38.9844 10.7718L37.4722 10.1753L37.6248 9.80068C37.6664 9.70357 37.6803 9.60646 37.6525 9.50934C37.6248 9.41223 37.5554 9.34286 37.4722 9.27349C37.3335 9.17638 37.2086 9.14863 37.056 9.19025C36.834 9.24575 36.612 9.52321 36.4872 9.70357C36.3623 9.88392 36.1542 10.2169 36.1681 10.4389C36.182 10.5915 36.2513 10.7025 36.3762 10.7996C36.4594 10.8551 36.5427 10.8828 36.6537 10.8689C36.7924 10.8551 36.945 10.7302 37.056 10.647L37.3751 10.3556L38.3323 11.6459ZM13.5266 13.1303C13.4573 13.5604 13.2353 13.935 12.9301 14.2402C12.5139 14.6841 11.9867 14.92 11.3763 14.9061C10.7242 14.8922 10.1693 14.587 9.71144 14.1431C9.23974 13.6852 8.89291 13.1303 8.85129 12.4644C8.82354 11.8401 9.05939 11.2851 9.48947 10.8412C9.86405 10.4527 10.3219 10.203 10.8629 10.1753C11.2098 10.1614 11.5566 10.2724 11.8618 10.4389L12.2364 10.6331L11.404 12.0343L11.0572 11.8262C10.9739 11.7707 10.8768 11.743 10.7797 11.7568C10.6826 11.7707 10.5993 11.8262 10.53 11.8956C10.419 12.0066 10.3635 12.1314 10.3774 12.2979C10.3912 12.5199 10.641 12.7835 10.7936 12.9361C10.9462 13.0887 11.2514 13.3523 11.4734 13.3662C11.626 13.38 11.7508 13.3245 11.8618 13.2136C11.9312 13.1442 11.9728 13.0609 11.9728 12.95C11.9728 12.8112 11.8896 12.6309 11.8063 12.5199L11.5705 12.1592L12.9994 11.3823L13.1521 11.6459L12.3613 8.42721L13.485 7.63643L16.6065 9.67582L16.5649 5.92999L17.8413 5.41668L21.3651 9.07926L19.7558 9.73132L19.1176 9.03765L18.202 9.41223L18.2297 10.3556L17.3418 10.7163L16.3291 11.4239L15.5383 10.8967L14.7336 11.4655L14.9833 12.3673L13.5821 13.3523L13.5266 13.1303ZM8.14374 18.5826C7.86627 18.5132 7.5888 18.4022 7.33908 18.2496C6.99225 18.0554 6.67316 17.8057 6.43731 17.4866C6.2847 17.2785 6.17371 17.0287 6.09047 16.779C6.02111 16.5293 5.99336 16.2657 6.02111 16.016C6.06273 15.683 6.18759 15.3501 6.35407 15.0587C6.67316 14.5038 7.13098 14.1014 7.75529 13.9488C8.39346 13.7824 9.03164 13.9627 9.60045 14.2818C10.1693 14.6009 10.6271 15.0587 10.8074 15.6969C10.9878 16.3073 10.8629 16.9178 10.5438 17.4588C10.2248 18.0138 9.76693 18.4161 9.14263 18.5826C8.99002 18.6242 8.85129 18.6381 8.69868 18.6381L10.3496 19.2346L9.85017 20.6081L9.05939 20.3168L8.50445 21.8567L9.29524 22.148L8.79579 23.5215L6.63154 22.7446L6.78414 22.3007C6.57604 22.1203 6.34019 21.9816 6.09047 21.8567C5.6049 21.6209 5.10546 21.4128 4.59214 21.2324L3.8291 20.9549L5.02222 17.6669L8.0605 18.7768L8.14374 18.5826ZM23.6126 8.41334L23.682 8.89891L22.1143 9.12089L22.0449 8.63531C21.5871 8.63531 21.1293 8.55207 20.7686 8.24686C20.3801 7.92777 20.172 7.48382 20.1026 6.99825C20.0333 6.48493 20.1165 5.99936 20.4217 5.58316C20.6853 5.22245 21.0877 5.01435 21.5177 4.88949L21.4622 4.47328L23.0299 4.25131L23.0854 4.66751C23.5294 4.66751 24.0011 4.75075 24.3479 5.04209C24.7364 5.36118 24.9445 5.80513 25.0277 6.30458C25.0971 6.80402 25.0138 7.27572 24.7364 7.69192C24.4728 8.08038 24.0566 8.28848 23.6126 8.41334ZM28.4267 7.58093L28.1909 9.02377L26.6232 8.77405L27.3585 4.14032L28.9955 4.40392C29.3146 4.45941 29.7169 4.5149 30.0083 4.63976C30.3135 4.76462 30.5355 4.9866 30.6881 5.27794C30.8684 5.59703 30.8962 5.95774 30.8407 6.31845C30.7991 6.59592 30.702 6.85951 30.5355 7.06762C30.3967 7.26184 30.2164 7.41445 30.0083 7.51157C29.8279 7.59481 29.6198 7.66417 29.4256 7.66417C29.1343 7.67805 28.829 7.63643 28.5377 7.58093H28.4267ZM30.6881 7.12311C30.8268 6.74853 31.0072 6.38782 31.2846 6.11035C31.465 5.91612 31.687 5.76351 31.9228 5.65252C32.1587 5.54154 32.4084 5.47217 32.672 5.4583C33.0188 5.44442 33.3518 5.51379 33.6709 5.62478C34.2674 5.84675 34.753 6.22134 35.0166 6.80402C35.2941 7.41445 35.2247 8.0665 35.0027 8.67693C34.7807 9.28737 34.4062 9.81456 33.8096 10.1059C33.2269 10.3834 32.6165 10.3695 32.0338 10.1475C31.4372 9.92555 30.9517 9.55096 30.6881 8.96828C30.4106 8.37172 30.4661 7.71967 30.6881 7.12311ZM5.74364 19.9977C6.2847 20.2058 6.85351 20.4555 7.35296 20.7746L7.53331 20.2751L5.8685 19.6647L5.74364 19.9977ZM8.12987 16.8484C8.33797 16.9733 8.61544 17.0842 8.86516 17.0426C9.05939 17.001 9.18425 16.9039 9.28136 16.7374C9.37848 16.5709 9.40622 16.4183 9.33686 16.238C9.25362 16.0021 9.0039 15.8079 8.79579 15.6969C8.60157 15.5859 8.31022 15.4472 8.07437 15.5027C7.88015 15.5443 7.76916 15.6553 7.67204 15.8218C7.57493 15.9882 7.54718 16.1547 7.60268 16.3351C7.65817 16.5432 7.92177 16.7235 8.12987 16.8484ZM23.4045 6.90113C23.4323 6.87339 23.46 6.84564 23.4739 6.81789C23.5016 6.73465 23.4878 6.58205 23.4739 6.4988C23.4461 6.33232 23.4045 6.22134 23.2935 6.16584L23.4045 6.90113ZM21.8507 7.12311L21.7397 6.37394C21.7258 6.38782 21.7258 6.38782 21.7258 6.40169C21.6565 6.49881 21.6565 6.67916 21.6842 6.79015C21.6981 6.9705 21.7397 7.06762 21.8507 7.12311ZM28.7042 5.84675L28.6626 6.1381H28.6903C28.7874 6.15197 29.0788 6.19359 29.162 6.17972C29.1897 6.17972 29.2036 6.16584 29.2314 6.15197C29.2452 6.1381 29.2591 6.11035 29.2591 6.0826C29.2591 6.05485 29.2591 6.02711 29.2452 5.99936C29.2314 5.97161 29.2036 5.95774 29.162 5.94387C29.0233 5.88837 28.8429 5.86063 28.7042 5.84675ZM32.1587 8.39947C32.228 8.57982 32.3529 8.69081 32.5332 8.76018C32.7136 8.82954 32.8662 8.81567 33.0466 8.73243C33.2685 8.60757 33.4073 8.3301 33.4905 8.09425C33.5738 7.87228 33.6431 7.56706 33.5599 7.34508C33.4905 7.16473 33.3518 7.06762 33.1853 6.99825C33.0049 6.92888 32.8385 6.92888 32.672 7.026C32.45 7.13698 32.3251 7.42833 32.2419 7.6503C32.1309 7.87228 32.0616 8.16362 32.1587 8.39947Z" fill="white"/>
<path fill-rule="evenodd" clip-rule="evenodd" d="M16.8423 10.0644L16.7868 6.0827L17.8134 5.66649L21.0182 8.99612L19.8251 9.48169L19.1869 8.78802L18.0076 9.25971L18.0354 10.2031L17.2585 10.5222L16.3428 11.1604L15.5382 10.6332L14.4977 11.3685L14.7474 12.2703L13.7069 12.9917L12.6109 8.52442L13.5126 7.88624L16.8423 10.0644ZM8.19911 19.0405L8.3101 18.7214L10.0998 19.3735L9.73906 20.3723L8.94828 20.081L8.2546 21.9955L9.04539 22.2869L8.68468 23.2858L6.89501 22.6337L7.03374 22.2591C6.78402 22.0233 6.50655 21.8429 6.20133 21.6903C5.71576 21.4406 5.18857 21.2464 4.68913 21.0521L4.10645 20.844L5.16083 17.9445L8.19911 19.0405ZM7.43607 18.0832C7.11698 17.9029 6.81177 17.667 6.60366 17.3757C6.46493 17.1815 6.35394 16.9595 6.29845 16.7375C6.22908 16.5155 6.21521 16.2797 6.24295 16.0438C6.28458 15.7247 6.39556 15.4334 6.54817 15.1698C6.83951 14.6704 7.25572 14.2958 7.82453 14.157C8.42109 14.0044 9.00377 14.1709 9.51709 14.4761C10.0304 14.7675 10.4605 15.1837 10.627 15.7802C10.7934 16.3352 10.6686 16.8901 10.3911 17.3896C10.0998 17.889 9.68357 18.2775 9.11476 18.4162C8.5182 18.5272 7.94939 18.3746 7.43607 18.0832ZM11.8756 12.2425L12.9438 11.6598L13.0409 11.8263C13.249 12.187 13.3878 12.6032 13.3462 13.0333C13.2907 13.4495 13.0826 13.8102 12.7912 14.1015C12.4028 14.5039 11.9311 14.712 11.3761 14.712C10.7796 14.6981 10.2663 14.4206 9.85005 14.0044C9.41997 13.5882 9.08701 13.0749 9.05926 12.4645C9.03152 11.8957 9.25349 11.3962 9.64195 10.9939C9.97491 10.6471 10.3911 10.4112 10.8906 10.3973C11.2096 10.3835 11.5149 10.4806 11.7923 10.6332L11.9727 10.7303L11.3484 11.7847L11.168 11.6737C11.0432 11.5905 10.9044 11.5627 10.7518 11.5766C10.5992 11.5905 10.4744 11.6737 10.3772 11.7708C10.2246 11.9234 10.1553 12.1038 10.1691 12.3257C10.1969 12.6032 10.4466 12.8946 10.6408 13.0888C10.8351 13.283 11.168 13.5466 11.4455 13.5744C11.6675 13.5882 11.834 13.5189 11.9866 13.3524C12.0975 13.2414 12.153 13.1165 12.1669 12.9639C12.1808 12.7697 12.0698 12.5755 11.9727 12.4229L11.8756 12.2425ZM23.3905 8.26083L23.4599 8.71865L22.2945 8.88513L22.2252 8.42731C21.7673 8.45505 21.2679 8.39956 20.9072 8.09435C20.5603 7.803 20.3661 7.41455 20.3106 6.9706C20.2413 6.51277 20.3106 6.06882 20.5881 5.69424C20.8656 5.33353 21.3095 5.1393 21.7396 5.04219L21.6841 4.65373L22.8495 4.48725L22.905 4.87571C23.3628 4.84796 23.8622 4.90345 24.2229 5.20867C24.5698 5.50001 24.764 5.88847 24.8195 6.34629C24.8889 6.79024 24.8056 7.22032 24.5559 7.5949C24.3062 7.96948 23.8345 8.16371 23.3905 8.26083ZM28.2601 7.34518L28.0243 8.80189L26.845 8.62154L27.5109 4.39014L28.9538 4.61211C29.2312 4.65373 29.6613 4.7231 29.911 4.83409C30.1746 4.94507 30.3689 5.1393 30.5076 5.38902C30.6602 5.66649 30.688 5.98558 30.6325 6.30467C30.5908 6.54052 30.5215 6.77637 30.3689 6.9706C30.244 7.13708 30.0914 7.26194 29.911 7.35905C29.7584 7.44229 29.5781 7.48391 29.3977 7.49779C29.1203 7.51166 28.815 7.47004 28.5514 7.42842L28.2601 7.34518ZM30.8683 7.19257C30.9932 6.84574 31.1597 6.51277 31.4232 6.24918C31.5897 6.0827 31.784 5.93009 32.0059 5.83297C32.214 5.73586 32.436 5.66649 32.6719 5.65262C32.9909 5.63875 33.2962 5.69424 33.5875 5.80523C34.1286 5.99946 34.5725 6.34629 34.8084 6.88736C35.0581 7.44229 35.0026 8.03885 34.7945 8.60766C34.5864 9.1626 34.2534 9.66204 33.7124 9.92564C33.1852 10.1754 32.6302 10.1615 32.0892 9.96726C31.5481 9.77303 31.1042 9.4262 30.8544 8.88513C30.6186 8.33019 30.6741 7.74751 30.8683 7.19257ZM37.3472 10.6887L38.0825 11.6459L37.9299 11.7708C37.5969 12.0344 37.2223 12.2425 36.7923 12.2564C36.3761 12.2703 35.9876 12.1176 35.6408 11.8818C35.1829 11.5627 34.9055 11.1326 34.8222 10.5777C34.739 9.99501 34.9471 9.44007 35.2801 8.96837C35.6269 8.4828 36.0709 8.0666 36.6813 7.94174C37.2362 7.81688 37.7634 7.96948 38.2212 8.28857C38.6236 8.56604 38.9149 8.94063 39.012 9.4262C39.0814 9.73141 39.0259 10.0505 38.9149 10.3418L38.8455 10.5361L37.7218 10.0921L37.805 9.89789C37.8605 9.75916 37.8744 9.62042 37.8328 9.48169C37.7912 9.34296 37.694 9.23197 37.5831 9.14873C37.4027 9.02387 37.2085 8.98225 37.0004 9.03774C36.7229 9.10711 36.4732 9.39845 36.3206 9.62042C36.168 9.8424 35.946 10.2031 35.9737 10.4945C35.9876 10.7164 36.0986 10.869 36.279 10.9939C36.4038 11.0771 36.5425 11.1188 36.6952 11.1049C36.8894 11.0771 37.0697 10.9523 37.2085 10.8274L37.3472 10.6887ZM40.2745 10.7997C40.8433 10.7858 41.3289 11.0216 41.7173 11.4378C42.0503 11.7847 42.2723 12.2148 42.2723 12.7003C42.2723 13.0194 42.1613 13.3246 42.0087 13.5882L41.8977 13.7686L40.8711 13.1165L40.982 12.9501C41.0653 12.8252 41.1069 12.6865 41.093 12.5477C41.0792 12.3951 41.0098 12.2703 40.8988 12.1731C40.7462 12.0205 40.5658 11.9373 40.3439 11.9512C40.0525 11.965 39.7612 12.2148 39.567 12.3951C39.3727 12.5893 39.0814 12.8946 39.0536 13.1859C39.0259 13.4079 39.0953 13.5744 39.2479 13.7408C39.3589 13.8518 39.4837 13.9212 39.6363 13.9351C39.8306 13.9489 40.0387 13.8518 40.1913 13.7686L40.3855 13.6576L40.9266 14.7397L40.7601 14.8368C40.3855 15.0449 39.9693 15.1698 39.5531 15.1004C39.1369 15.0311 38.79 14.8091 38.4987 14.5177C38.1102 14.1154 37.916 13.6437 37.9438 13.0888C37.9715 12.4922 38.2767 11.9928 38.6929 11.5905C39.1369 11.1326 39.6641 10.8135 40.2745 10.7997ZM42.4388 15.8496L44.8527 15.9467L45.3799 16.904L41.6341 18.985L41.0792 17.9861L42.855 17.0011L40.4687 16.8901L39.9415 15.9328L43.6874 13.8518L44.2423 14.8507L42.4388 15.8496ZM44.2839 19.7619L46.6285 20.3585L46.9476 21.4128L42.8411 22.6615L42.5081 21.5793L44.4504 20.9828L42.1474 20.3723L41.8283 19.318L45.9349 18.0694L46.2678 19.1654L44.2839 19.7619ZM5.49379 20.1087C6.13197 20.3446 6.89501 20.6776 7.44994 21.0799L7.78291 20.1504L5.74351 19.4012L5.49379 20.1087ZM8.01876 17.015C8.26848 17.1676 8.58757 17.2924 8.89278 17.2231C9.1425 17.1676 9.30899 17.0427 9.43385 16.8207C9.55871 16.5988 9.58645 16.3907 9.50321 16.1548C9.4061 15.8635 9.12863 15.6415 8.86504 15.5028C8.61531 15.364 8.29622 15.2253 8.00488 15.2808C7.75516 15.3363 7.58868 15.475 7.46382 15.697C7.33896 15.919 7.29734 16.1409 7.38058 16.3768C7.49156 16.6543 7.76903 16.8762 8.01876 17.015ZM14.6086 10.0089L14.0398 9.60655L14.2202 10.2725L14.6086 10.0089ZM18.3961 7.96948L17.9244 7.45617L17.9521 8.14984L18.3961 7.96948ZM23.2518 7.20645C23.335 7.1787 23.4044 7.15095 23.4876 7.10933C23.5709 7.05384 23.6402 6.98447 23.6819 6.88736C23.7235 6.7625 23.7096 6.58214 23.6957 6.47115C23.6402 6.06882 23.4183 5.91622 23.0853 5.91622L23.2518 7.20645ZM22.0864 7.37293L21.9061 6.0827C21.7673 6.12432 21.6425 6.17981 21.5592 6.27692C21.4482 6.42953 21.4482 6.63763 21.476 6.81799C21.5315 7.23419 21.7396 7.37293 22.0864 7.37293ZM28.5376 5.611L28.4266 6.30467L28.6486 6.34629C28.7734 6.36017 29.0648 6.41566 29.1896 6.38791C29.259 6.37404 29.3145 6.34629 29.3561 6.2908C29.3977 6.2353 29.4255 6.17981 29.4393 6.11044C29.4532 6.0272 29.4393 5.95784 29.3977 5.88847C29.3561 5.8191 29.2867 5.77748 29.2174 5.74973C29.0786 5.69424 28.8567 5.66649 28.7041 5.63875L28.5376 5.611ZM32.0198 7.58103C31.9227 7.8585 31.8533 8.19146 31.9643 8.4828C32.0614 8.71865 32.214 8.87126 32.4499 8.9545C32.6857 9.03774 32.9077 9.02387 33.1297 8.91288C33.3933 8.76027 33.5598 8.45505 33.6707 8.17759C33.7679 7.91399 33.8511 7.56716 33.7401 7.28969C33.643 7.05384 33.4765 6.9151 33.2407 6.83186C33.0048 6.74862 32.7828 6.74862 32.5609 6.85961C32.2834 6.98447 32.1169 7.30356 32.0198 7.58103Z" fill="#2C2C2B"/>
<path fill-rule="evenodd" clip-rule="evenodd" d="M4.35547 20.7052L5.27112 18.1803L8.3094 19.2902L8.42039 18.9711L9.83548 19.4844L9.6135 20.0948L8.82272 19.8035L7.99031 22.1065L8.7811 22.3978L8.55912 23.0082L7.14403 22.4949L7.25502 22.1897C6.99142 21.9261 6.67233 21.6903 6.27 21.496C5.88155 21.3018 5.36823 21.0798 4.73005 20.8579L4.35547 20.7052ZM5.2295 20.2336C6.33937 20.6359 7.11628 21.0382 7.54636 21.4128L8.0458 20.0255L5.61795 19.1376L5.2295 20.2336ZM7.54636 17.9028C7.19952 17.7086 6.9498 17.4866 6.76945 17.2508C6.64459 17.0704 6.54747 16.8762 6.49198 16.6681C6.43648 16.46 6.40874 16.2519 6.43649 16.0576C6.46423 15.7941 6.56135 15.5305 6.72783 15.253C7.01917 14.7535 7.39375 14.4483 7.87932 14.3235C8.36489 14.1986 8.87821 14.2957 9.41927 14.6148C9.96034 14.9339 10.3072 15.3224 10.432 15.7941C10.5708 16.2657 10.4875 16.7513 10.2101 17.2369C9.91872 17.7363 9.54414 18.0415 9.05857 18.1664C8.58687 18.3051 8.07355 18.208 7.54636 17.9028ZM7.92094 17.1953C8.29553 17.4172 8.64236 17.4866 8.9337 17.4311C9.22505 17.3617 9.4609 17.1953 9.6135 16.9317C9.76611 16.6681 9.80773 16.3767 9.71062 16.0993C9.6135 15.8079 9.37765 15.5582 8.9892 15.3362C8.60074 15.1143 8.26778 15.031 7.97644 15.0865C7.68509 15.142 7.46312 15.3224 7.29664 15.5998C7.13016 15.8773 7.10241 16.1548 7.19952 16.4461C7.29664 16.7236 7.53249 16.9733 7.92094 17.1953ZM12.1662 12.3118L12.8738 11.9372C13.0957 12.3118 13.1929 12.6725 13.1512 13.0055C13.1096 13.3385 12.9431 13.6575 12.6518 13.9628C12.2911 14.3373 11.8749 14.5177 11.3893 14.5038C10.9037 14.5038 10.4459 14.2818 10.002 13.8518C9.53026 13.4078 9.29441 12.9361 9.26667 12.4506C9.23892 11.965 9.41927 11.521 9.79386 11.1326C10.1268 10.7857 10.4875 10.6054 10.9037 10.5915C11.1396 10.5776 11.4032 10.647 11.6945 10.7996L11.2922 11.4933C11.1118 11.3823 10.9315 11.3407 10.7511 11.3684C10.5708 11.3962 10.4043 11.4794 10.2517 11.632C10.0575 11.8401 9.96034 12.076 9.98809 12.3534C10.0158 12.6309 10.1962 12.9223 10.5292 13.2413C10.876 13.5882 11.1951 13.7685 11.4725 13.7824C11.75 13.7963 11.9859 13.713 12.1801 13.5049C12.3188 13.3523 12.4021 13.1858 12.4159 12.9777C12.3882 12.7835 12.3188 12.5615 12.1662 12.3118ZM17.0219 10.4389L16.3282 10.9245L15.5375 10.3973L14.2611 11.2852L14.5108 12.187L13.831 12.6587L12.846 8.60761L13.5258 8.13591L17.0219 10.4389ZM14.9548 10.0088L13.6923 9.1348L14.0946 10.6193L14.9548 10.0088ZM20.6568 8.9267L19.866 9.24579L19.2278 8.55212L17.785 9.1348L17.8127 10.0782L17.0358 10.3834L16.9803 6.22138L17.7433 5.91616L20.6568 8.9267ZM18.7422 8.05267L17.7017 6.91505L17.7572 8.44113L18.7422 8.05267ZM23.1679 8.09429L23.2372 8.53824L22.4742 8.64923L22.4048 8.20528C21.7805 8.27465 21.3366 8.17753 21.0452 7.92781C20.7539 7.67809 20.5735 7.34513 20.518 6.92892C20.4487 6.48497 20.5319 6.11039 20.7677 5.80518C20.9897 5.49996 21.4059 5.29186 21.9886 5.18087L21.9331 4.80629L22.6962 4.6953L22.7517 5.06988C23.3621 5.00052 23.8199 5.09763 24.1112 5.33348C24.4026 5.56933 24.5829 5.91616 24.6384 6.33237C24.6939 6.76244 24.6246 7.12315 24.4026 7.44224C24.1806 7.7752 23.7783 7.99718 23.1679 8.09429ZM23.0707 7.45612C23.2788 7.42837 23.4453 7.37287 23.5841 7.27576C23.7228 7.19252 23.806 7.08153 23.8615 6.95667C23.9031 6.83181 23.917 6.66533 23.8893 6.44335C23.806 5.88842 23.4592 5.65257 22.8488 5.73581L23.0707 7.45612ZM22.3077 7.55323L22.0719 5.83292C21.7389 5.87454 21.5169 5.98553 21.3921 6.15201C21.2672 6.31849 21.2256 6.55434 21.2672 6.84568C21.3504 7.41449 21.6973 7.65034 22.3077 7.55323ZM27.0802 8.44113L27.6906 4.61206L28.9392 4.80629C29.4109 4.87566 29.7161 4.94502 29.8549 5.01439C30.063 5.1115 30.2294 5.26411 30.3543 5.47221C30.4653 5.69419 30.5069 5.94391 30.4653 6.24913C30.4237 6.48497 30.3543 6.6792 30.2433 6.81794C30.1323 6.97055 30.0075 7.06766 29.8549 7.1509C29.7022 7.22027 29.5635 7.26189 29.4248 7.26189C29.2306 7.27576 28.967 7.24801 28.6062 7.19252L28.1068 7.10928L27.871 8.55212L27.0802 8.44113ZM28.3565 5.3751L28.19 6.45723L28.6201 6.5266C28.9253 6.56822 29.1334 6.58209 29.2444 6.56822C29.3554 6.54047 29.4387 6.49885 29.5219 6.41561C29.5913 6.33237 29.6329 6.24913 29.6606 6.13814C29.6884 5.9994 29.6606 5.87454 29.5913 5.77743C29.5219 5.68032 29.4248 5.59707 29.3138 5.55545C29.2306 5.52771 29.0363 5.48609 28.7589 5.44447L28.3565 5.3751ZM31.0618 7.26189C31.2006 6.8873 31.3671 6.59596 31.5752 6.38786C31.7278 6.23525 31.8943 6.11039 32.1024 6.01328C32.2966 5.91616 32.4908 5.86067 32.6989 5.86067C32.9625 5.8468 33.24 5.88842 33.5313 5.9994C34.0724 6.19363 34.4331 6.51272 34.6412 6.97055C34.8493 7.4145 34.8354 7.94169 34.6134 8.53824C34.4053 9.1348 34.0724 9.52326 33.6284 9.74523C33.1845 9.96721 32.6989 9.96721 32.1578 9.77298C31.6168 9.57875 31.2422 9.24579 31.048 8.80184C30.8399 8.35789 30.8537 7.84457 31.0618 7.26189ZM31.8249 7.51161C31.6723 7.92781 31.6584 8.27465 31.7694 8.55212C31.8804 8.82959 32.0885 9.02381 32.3798 9.1348C32.6712 9.24579 32.9486 9.21804 33.2122 9.07931C33.4758 8.94057 33.6839 8.64923 33.8365 8.23303C33.9891 7.81683 34.0169 7.46999 33.9059 7.19252C33.7949 6.91505 33.5868 6.7347 33.2816 6.62371C32.9764 6.51272 32.6989 6.5266 32.4353 6.66533C32.1856 6.80406 31.9914 7.08153 31.8249 7.51161ZM37.3188 10.98L37.8043 11.6181C37.4714 11.8956 37.1245 12.0482 36.7916 12.0621C36.4586 12.076 36.1118 11.965 35.7649 11.7291C35.3487 11.4378 35.099 11.0493 35.0296 10.5638C34.9603 10.0782 35.099 9.59262 35.4459 9.09318C35.8204 8.56599 36.2366 8.2469 36.7222 8.14979C37.1939 8.05267 37.6656 8.14979 38.1096 8.46888C38.498 8.74635 38.7339 9.07931 38.8171 9.48164C38.8726 9.71749 38.8448 9.99495 38.7339 10.3002L37.9847 10.0088C38.0679 9.8146 38.0818 9.63425 38.0263 9.45389C37.9708 9.27354 37.8598 9.12093 37.6934 9.00994C37.4575 8.84346 37.2078 8.80184 36.9442 8.85733C36.6806 8.9267 36.417 9.14867 36.1534 9.52326C35.8759 9.92559 35.7372 10.2586 35.7649 10.536C35.7927 10.8135 35.9175 11.0216 36.1534 11.1881C36.3199 11.3129 36.5141 11.3546 36.7083 11.3407C36.8887 11.2852 37.0968 11.1742 37.3188 10.98ZM40.3154 13.9073L40.6761 14.6148C40.2877 14.8229 39.927 14.9062 39.594 14.8507C39.261 14.7952 38.942 14.6287 38.6506 14.3235C38.2899 13.9489 38.1234 13.5188 38.1512 13.0471C38.1789 12.5615 38.4009 12.1037 38.8448 11.6875C39.3165 11.2436 39.7882 11.0077 40.2738 11.0077C40.7594 10.9938 41.1895 11.1881 41.5779 11.5765C41.9109 11.9234 42.0774 12.2979 42.0774 12.7003C42.0774 12.9361 42.008 13.1997 41.8415 13.4772L41.1617 13.0471C41.2727 12.8806 41.3282 12.7003 41.3004 12.506C41.2866 12.3257 41.2033 12.1592 41.0507 12.0066C40.8565 11.7985 40.6206 11.7014 40.3432 11.7153C40.0657 11.7291 39.7744 11.8956 39.4414 12.2147C39.0946 12.5615 38.9003 12.8668 38.8726 13.1304C38.8448 13.4078 38.9281 13.6437 39.1223 13.8379C39.261 13.9905 39.4414 14.0737 39.6356 14.0876C39.8437 14.1292 40.0657 14.0599 40.3154 13.9073ZM43.6034 14.1292L43.9641 14.7674L41.7028 16.016L44.7272 16.1409L45.1018 16.8207L41.7028 18.7075L41.3421 18.0693L43.5618 16.8346L40.579 16.6958L40.2044 16.016L43.6034 14.1292ZM45.7954 18.319L46.0035 19.0266L43.5341 19.7757L46.4752 20.5249L46.6972 21.2741L42.9791 22.4117L42.771 21.7041L45.1989 20.9688L42.3132 20.2058L42.0774 19.4566L45.7954 18.319Z" fill="#FFCC00"/>
</svg>
