<svg width="116" height="116" viewBox="0 0 116 116" fill="none" xmlns="http://www.w3.org/2000/svg">
<g clip-path="url(#clip0_111_1849)">
<path fill-rule="evenodd" clip-rule="evenodd" d="M57.6409 0C89.4664 0 115.282 25.8155 115.282 57.6409C115.282 89.4664 89.4664 115.282 57.6409 115.282C25.8155 115.282 0 89.4664 0 57.6409C0 25.8155 25.8155 0 57.6409 0Z" fill="#454545"/>
<path fill-rule="evenodd" clip-rule="evenodd" d="M57.6409 0.512207C89.1932 0.512207 114.804 26.1228 114.804 57.6751C114.804 89.2273 89.1932 114.838 57.6409 114.838C26.0886 114.838 0.478027 89.2273 0.478027 57.6751C0.512175 26.0887 26.0886 0.512207 57.6409 0.512207Z" fill="#FFCC00"/>
<path fill-rule="evenodd" clip-rule="evenodd" d="M57.7434 113.779C88.6469 113.711 113.711 88.5785 113.711 57.6409C113.711 57.197 113.711 56.7189 113.677 56.275H108.691C108.691 56.7189 108.726 57.197 108.726 57.6409C108.726 85.8467 85.9151 108.726 57.7434 108.794V113.779Z" fill="#E21C2A"/>
<path fill-rule="evenodd" clip-rule="evenodd" d="M57.7434 113.779C73.2122 113.745 87.2127 107.428 97.3203 97.2861C97.935 96.6373 98.5838 95.9885 99.1643 95.3397L99.1984 95.3056C99.5058 94.9641 99.7789 94.6568 100.086 94.3153C100.394 93.9738 100.667 93.6324 100.94 93.2909C101.213 92.9494 101.486 92.6079 101.759 92.2665L101.828 92.164C102.067 91.8567 102.306 91.5152 102.579 91.2079L102.647 91.1055C102.886 90.764 103.125 90.4567 103.364 90.1152L103.399 90.081C103.911 89.3639 104.389 88.6468 104.867 87.8956L104.901 87.8614C105.14 87.4858 105.379 87.1444 105.584 86.7687C105.823 86.3931 106.028 85.9833 106.267 85.6077L106.301 85.5053C106.506 85.1296 106.711 84.7882 106.916 84.4125L106.95 84.3101C107.155 83.9345 107.326 83.593 107.53 83.2174C107.565 83.1491 107.599 83.0808 107.633 83.0125C107.804 82.671 107.974 82.3296 108.145 81.9881L108.179 81.9539C108.35 81.5783 108.555 81.1685 108.726 80.7588C108.76 80.6905 108.794 80.6222 108.828 80.5197C108.965 80.1783 109.135 79.8368 109.272 79.4953C109.306 79.3929 109.34 79.2904 109.409 79.188C109.545 78.8807 109.682 78.5392 109.818 78.2319C109.852 78.0953 109.921 77.9928 109.955 77.8562C110.057 77.5489 110.194 77.2416 110.296 76.9684C110.365 76.8318 110.399 76.6952 110.433 76.5586C110.535 76.2855 110.638 75.9781 110.74 75.7049C110.809 75.5001 110.877 75.3293 110.911 75.1244C110.979 74.8854 111.082 74.6464 111.15 74.3732C111.218 74.2025 111.252 73.9976 111.321 73.8268C111.389 73.5537 111.492 73.3146 111.56 73.0414C111.594 72.9049 111.628 72.8024 111.662 72.6658C111.765 72.3585 111.833 72.017 111.935 71.7097C111.97 71.6072 112.004 71.4707 112.038 71.3682C112.106 71.0267 112.209 70.7194 112.277 70.3779C112.311 70.2072 112.345 70.0365 112.379 69.8999C112.448 69.6267 112.516 69.3194 112.584 69.0462C112.618 68.8072 112.687 68.5681 112.721 68.3291C112.755 68.1242 112.789 67.8852 112.857 67.6803C112.892 67.4754 112.926 67.3047 112.96 67.0998C112.994 66.8266 113.062 66.5534 113.096 66.2802C113.165 65.8363 113.233 65.3583 113.301 64.9143C113.335 64.5729 113.37 64.2314 113.404 63.8899C113.404 63.7533 113.438 63.6509 113.438 63.5143C113.472 63.2411 113.472 62.9679 113.506 62.7289C113.54 62.524 113.54 62.3191 113.575 62.1142C113.609 61.6362 113.643 61.1581 113.677 60.6801C113.711 60.202 113.711 59.7239 113.745 59.2459C113.745 58.7678 113.779 58.2897 113.779 57.8117V57.7775V57.7434C113.779 57.2995 113.779 56.8897 113.779 56.4458V56.4116H112.994C112.994 56.8555 113.028 57.3336 113.028 57.7775C113.028 88.2712 88.3395 113.028 57.8458 113.131V113.779H57.7434Z" fill="white"/>
<path fill-rule="evenodd" clip-rule="evenodd" d="M57.7434 108.828C85.9151 108.726 108.726 85.8468 108.726 57.6751C108.726 57.2312 108.726 56.7531 108.691 56.3092H103.706C103.706 56.7531 103.74 57.2312 103.74 57.6751C103.74 83.115 83.1491 103.774 57.7434 103.877V108.828Z" fill="white"/>
<path fill-rule="evenodd" clip-rule="evenodd" d="M57.7434 103.842C83.1491 103.74 103.74 83.1149 103.74 57.6409C103.74 57.197 103.74 56.7189 103.706 56.275H98.7204C98.7204 56.7189 98.7545 57.197 98.7545 57.6409C98.7545 80.349 80.3832 98.7545 57.7434 98.8569V103.842Z" fill="#E21C2A"/>
<path fill-rule="evenodd" clip-rule="evenodd" d="M99.5741 56.275H98.7546C98.7546 56.7189 98.7887 57.197 98.7887 57.6409C98.7887 80.349 80.4174 98.7545 57.7776 98.8569V99.6765C80.8954 99.574 99.6424 80.7929 99.6424 57.6409C99.6082 57.197 99.5741 56.7189 99.5741 56.275Z" fill="white"/>
<path fill-rule="evenodd" clip-rule="evenodd" d="M57.4702 113.779C26.5325 113.711 1.50244 88.5785 1.50244 57.6409C1.50244 57.197 1.50244 56.7189 1.53659 56.275H6.48797H11.4735H16.459C16.459 56.7189 16.4249 57.197 16.4249 57.6409C16.4249 80.349 34.7962 98.7545 57.436 98.8569V103.842V108.828V113.779H57.4702Z" fill="#E21C2A"/>
<path fill-rule="evenodd" clip-rule="evenodd" d="M57.2994 113.779C41.8988 113.677 27.9667 107.394 17.8932 97.2861C17.2785 96.6373 16.6297 95.9885 16.0492 95.3397L16.0151 95.3056C15.7077 94.9641 15.4345 94.6568 15.1272 94.3153C14.8199 93.9738 14.5467 93.6324 14.2735 93.2909C14.0004 92.9494 13.7272 92.6079 13.454 92.2665L13.3857 92.164C13.1467 91.8567 12.9076 91.5152 12.6345 91.2079L12.5662 91.1054C12.3271 90.764 12.0881 90.4566 11.8491 90.1152L11.8149 90.081C11.3027 89.3639 10.8246 88.6468 10.3466 87.8956L10.3124 87.8614C10.0734 87.4858 9.83436 87.1443 9.62948 86.7687C9.39044 86.3931 9.18556 85.9833 8.94653 85.6077L8.91238 85.5053C8.7075 85.1296 8.50261 84.7882 8.29773 84.4125L8.26358 84.3101C8.05869 83.9345 7.88796 83.593 7.68307 83.2174C7.64892 83.1491 7.61478 83.0808 7.58063 83.0125C7.40989 82.671 7.23915 82.3295 7.06842 81.9881L7.03427 81.9539C6.86353 81.5783 6.65865 81.1685 6.48791 80.7588C6.45376 80.6905 6.41961 80.6222 6.38547 80.5197C6.24888 80.1783 6.07814 79.8368 5.94155 79.4953C5.9074 79.3929 5.87325 79.2904 5.80496 79.188C5.66837 78.8807 5.53178 78.5392 5.39519 78.2319C5.36104 78.0953 5.29275 77.9928 5.2586 77.8562C5.15616 77.5489 5.01957 77.2416 4.91712 76.9684C4.84883 76.8318 4.81468 76.6952 4.78054 76.5586C4.67809 76.2854 4.57565 75.9781 4.47321 75.7049C4.40491 75.5001 4.33662 75.3293 4.30247 75.1244C4.23418 74.8854 4.13173 74.6464 4.06344 74.3732C3.99514 74.2024 3.961 73.9976 3.8927 73.8268C3.82441 73.5536 3.72196 73.3146 3.65367 73.0414C3.61952 72.9048 3.58537 72.8024 3.55123 72.6658C3.44878 72.3585 3.38049 72.017 3.27805 71.7097C3.2439 71.6072 3.20975 71.4707 3.1756 71.3682C3.10731 71.0267 3.00487 70.7194 2.93657 70.3779C2.90242 70.2072 2.86828 70.0365 2.83413 69.8999C2.76583 69.6267 2.69754 69.3194 2.62924 69.0462C2.5951 68.8071 2.5268 68.5681 2.49265 68.3291C2.45851 68.1242 2.42436 67.8852 2.35606 67.6803C2.32192 67.4754 2.28777 67.3047 2.25362 67.0998C2.21947 66.8266 2.15118 66.5534 2.11703 66.2802C2.04874 65.8363 1.98044 65.3583 1.91215 64.9143C1.878 64.5729 1.84385 64.2314 1.8097 63.8899C1.8097 63.7533 1.77556 63.6509 1.77556 63.5143C1.74141 63.2411 1.74141 62.9679 1.70726 62.7289C1.67311 62.524 1.67311 62.3191 1.63897 62.1142C1.60482 61.6362 1.57067 61.1581 1.53652 60.68C1.50238 60.202 1.50238 59.7239 1.46823 59.2459C1.46823 58.7678 1.43408 58.2897 1.43408 57.8117V57.7775V57.7434C1.43408 57.2994 1.43408 56.8897 1.43408 56.4458V56.4116H2.21947C2.21947 56.8555 2.18533 57.3336 2.18533 57.7775C2.18533 88.2371 26.7715 112.926 57.1969 113.131V112.345C27.3179 112.004 3.10731 87.6566 3.10731 57.6409C3.10731 57.197 3.10731 56.7189 3.14146 56.275H3.92685C3.92685 56.7189 3.8927 57.197 3.8927 57.6409C3.8927 87.2126 27.7618 111.218 57.2994 111.389V101.145C33.4303 100.94 14.1369 81.5442 14.1369 57.6409C14.1369 57.197 14.1369 56.7189 14.1711 56.275H14.9565C14.9565 56.7189 14.9223 57.197 14.9223 57.6409C14.9223 81.1002 33.8742 100.155 57.2994 100.359V99.6765C34.2498 99.4716 15.6053 80.7246 15.6053 57.6409C15.6053 57.197 15.6053 56.7189 15.6394 56.275H16.459C16.459 56.7189 16.4248 57.197 16.4248 57.6409C16.4248 80.2807 34.6937 98.652 57.2652 98.8569V98.8228H57.9823V113.882H57.2652V113.779H57.2994Z" fill="#FFCC00"/>
<path fill-rule="evenodd" clip-rule="evenodd" d="M57.5044 1.46832C88.0664 1.46832 112.892 25.8838 113.643 56.2409H1.36597C2.11721 25.8838 26.9766 1.46832 57.5044 1.46832Z" fill="#FFCC00"/>
<path fill-rule="evenodd" clip-rule="evenodd" d="M2.32202 55.4896H112.926C111.799 25.8496 87.4175 2.28784 57.6409 2.28784C27.8985 2.28784 3.48304 25.8496 2.32202 55.4896Z" fill="white"/>
<path fill-rule="evenodd" clip-rule="evenodd" d="M57.641 6.48798C85.437 6.48798 108.077 28.6497 108.794 56.275H6.48804C7.23928 28.6497 29.8449 6.48798 57.641 6.48798Z" fill="#FFCC00"/>
<path fill-rule="evenodd" clip-rule="evenodd" d="M7.30762 55.4896H107.94C106.813 28.6155 84.6175 7.27338 57.6069 7.27338C30.6303 7.27338 8.46863 28.5814 7.30762 55.4896Z" fill="#002ED3"/>
<path fill-rule="evenodd" clip-rule="evenodd" d="M57.5043 11.4394C82.5344 11.4394 102.955 31.3815 103.672 56.2409H11.3369C12.054 31.3815 32.4742 11.4394 57.5043 11.4394Z" fill="#FFCC00"/>
<path fill-rule="evenodd" clip-rule="evenodd" d="M12.2932 55.4896H102.955C101.828 31.3474 81.8858 12.2589 57.6069 12.2589C33.3963 12.2589 13.4542 31.3474 12.2932 55.4896Z" fill="#E21C2A"/>
<path fill-rule="evenodd" clip-rule="evenodd" d="M57.5385 16.4249C80.2807 16.4249 98.7545 34.8987 98.7545 57.6409C98.7545 80.3832 80.2807 98.8569 57.5385 98.8569C34.7963 98.8569 16.3225 80.3832 16.3225 57.6409C16.3225 34.8987 34.7963 16.4249 57.5385 16.4249Z" fill="#FFCC00"/>
<path fill-rule="evenodd" clip-rule="evenodd" d="M57.5384 17.1079C79.905 17.1079 98.0715 35.2744 98.0715 57.641C98.0715 80.0076 79.905 98.174 57.5384 98.174C35.1718 98.174 17.0054 80.0417 17.0054 57.641C17.0054 35.2744 35.1718 17.1079 57.5384 17.1079Z" fill="white"/>
<path fill-rule="evenodd" clip-rule="evenodd" d="M70.6511 83.6613C68.9437 85.2321 67.0997 86.9053 65.085 87.9981C64.3338 88.4078 63.5825 88.7152 62.7971 89.0225C60.9532 89.7396 59.6556 90.3201 58.1189 91.6177C57.8799 91.8226 57.6409 91.7884 57.3677 91.5835C55.8311 90.2859 54.5335 89.7054 52.6895 88.9883C51.9041 88.681 51.1529 88.3737 50.4016 87.9639C48.3869 86.8712 46.543 85.198 44.8356 83.6272L42.7526 83.8662L42.616 83.4564C41.5916 80.1783 41.3867 76.6611 43.4355 73.7244L43.9819 72.939L44.3234 73.861C45.1771 76.2855 46.5771 78.4368 48.4894 80.1783L49.104 80.7246L48.3186 80.9978C47.6698 81.2369 47.1235 81.6125 46.7137 82.1247L49.4455 83.354C50.6065 83.5589 51.6992 84.2077 52.8944 83.5247C55.2164 82.2271 55.4213 76.6269 55.4554 74.4074L55.6262 65.0851L55.7286 62.1484L56.3091 44.7332H52.6895C52.2797 44.7332 51.9041 44.3917 51.9041 43.9478V42.3429C51.9041 41.9331 52.2456 41.5575 52.6895 41.5575H54.6701C53.4749 40.6697 52.7236 39.2696 52.7236 37.6647C52.7236 34.967 54.9091 32.8157 57.5726 32.8157C60.2702 32.8157 62.4215 35.0012 62.4215 37.6647C62.4215 39.2696 61.6361 40.6697 60.4751 41.5575H62.6947C63.1045 41.5575 63.4801 41.899 63.4801 42.3429V43.982C63.4801 44.3917 63.1386 44.7674 62.6947 44.7674H59.1092L59.7922 65.1534L59.9629 74.4757C59.9971 76.6611 60.2019 82.2954 62.524 83.593C63.7191 84.276 64.8118 83.593 65.9729 83.4223L68.7047 82.193C68.2949 81.6808 67.7485 81.3051 67.0997 81.0661L66.3143 80.7929L66.929 80.2466C68.8413 78.5051 70.2071 76.3538 71.095 73.9293L71.4365 73.0073L71.9828 73.7927C74.0317 76.7294 73.8268 80.2466 72.8024 83.5247L72.6658 83.9345L70.6511 83.6613ZM57.6409 35.5817C58.8019 35.5817 59.758 36.5378 59.758 37.6988C59.758 38.8598 58.8019 39.816 57.6409 39.816C56.4799 39.816 55.5237 38.8598 55.5237 37.6988C55.5237 36.5378 56.4799 35.5817 57.6409 35.5817Z" fill="#2C2C2B"/>
<path fill-rule="evenodd" clip-rule="evenodd" d="M57.7775 43.8795H58.6653L59.2458 62.1825L59.3482 65.1192L59.519 74.4415C59.7239 87.1102 64.607 84.1052 66.1777 83.832L69.5242 82.3295C69.012 81.51 68.2949 80.8953 67.3388 80.5539C69.3193 78.7099 70.7535 76.5245 71.6413 74.0317C73.2804 76.3879 73.5877 79.4953 72.3926 83.3198L70.4803 83.0808C68.5681 84.8565 66.7582 86.4614 64.846 87.52C62.524 88.7834 60.6117 88.8176 57.8116 91.1737C57.7433 91.2079 57.7775 91.2079 57.7092 91.1396C54.9091 88.7834 52.9968 88.7493 50.6748 87.4858C48.7625 86.4272 46.9527 84.8223 45.0405 83.0466L43.1282 83.2857C41.933 79.4612 42.2404 76.3537 43.8794 73.9976C44.7673 76.4562 46.1673 78.6758 48.182 80.5197C47.2259 80.8612 46.4746 81.51 45.9966 82.2954L49.343 83.7979C50.9138 84.0369 55.7969 87.0419 56.0018 74.4073L56.1725 65.0851L56.275 62.1484L56.8555 43.8453H57.7775V43.8795Z" fill="#FFCC00"/>
<path fill-rule="evenodd" clip-rule="evenodd" d="M58.0166 46.4747V87.315C59.5532 87.2809 60.885 87.1102 62.0801 86.837C63.3777 86.5297 64.5046 86.1199 65.4949 85.5735C66.6559 84.9589 67.7827 84.1393 68.7047 83.1832C69.5243 82.3295 70.2414 81.3734 70.6853 80.2807C71.0268 79.4611 71.2658 78.5391 71.3682 77.4806C71.4707 76.5927 71.5048 75.6708 71.4365 74.6805C71.4365 74.6122 71.4024 74.578 71.4365 74.5097L71.6414 73.9975L71.9146 74.5097C71.9487 74.5439 71.9146 74.6122 71.9146 74.6463C71.9829 75.6708 71.9487 76.6269 71.8463 77.5489C71.7097 78.6416 71.4707 79.6319 71.1292 80.4855C70.6511 81.6124 69.8999 82.6368 69.0462 83.5588C68.0559 84.5491 66.8949 85.4028 65.6997 86.0516C64.6753 86.5979 63.5143 87.0419 62.1826 87.3492C60.9533 87.6224 59.5873 87.7931 58.0166 87.8273V90.6273H57.5044V87.8273C55.9336 87.7931 54.5677 87.6224 53.3384 87.3492C52.0066 87.0419 50.8456 86.5979 49.8212 86.0516C48.626 85.4028 47.465 84.5832 46.4747 83.5588C45.5869 82.671 44.8698 81.6466 44.3917 80.4855C44.0161 79.6319 43.7771 78.6416 43.6746 77.5489C43.5722 76.6269 43.538 75.7049 43.6063 74.6463C43.6063 74.6122 43.6063 74.5439 43.6063 74.5097L43.8795 73.9975L44.0844 74.5097C44.1185 74.578 44.0844 74.6122 44.0844 74.6805C44.0161 75.6708 44.0503 76.6269 44.1527 77.4806C44.2551 78.505 44.4942 79.4611 44.8356 80.2807C45.2796 81.3734 45.9967 82.3295 46.8162 83.1832C47.7723 84.1393 48.8992 84.9589 50.0261 85.5735C51.0163 86.1199 52.1432 86.5297 53.4408 86.837C54.636 87.1102 55.9677 87.2809 57.5044 87.315V46.4747H58.0166Z" fill="#2C2C2B"/>
<path fill-rule="evenodd" clip-rule="evenodd" d="M57.7433 42.0697H62.7289C62.8655 42.0697 63.002 42.2063 63.002 42.3429V43.982C63.002 44.1185 62.8655 44.2551 62.7289 44.2551H57.7433H52.7578C52.6212 44.2551 52.4846 44.1185 52.4846 43.982V42.3429C52.4846 42.2063 52.6212 42.0697 52.7578 42.0697H57.7433ZM57.6409 33.3279C60.0654 33.3279 62.0118 35.2743 62.0118 37.6988C62.0118 40.1233 60.0654 42.0697 57.6409 42.0697C55.2164 42.0697 53.27 40.1233 53.27 37.6988C53.27 35.2743 55.2506 33.3279 57.6409 33.3279ZM57.6409 35.0353C59.1092 35.0353 60.3044 36.2305 60.3044 37.6988C60.3044 39.1672 59.1092 40.3623 57.6409 40.3623C56.1725 40.3623 54.9774 39.1672 54.9774 37.6988C54.9774 36.2305 56.1725 35.0353 57.6409 35.0353Z" fill="#FFCC00"/>
<path fill-rule="evenodd" clip-rule="evenodd" d="M62.2508 57.2312L62.1826 57.2653L61.9777 57.1629C61.7045 57.0263 61.3972 56.958 61.124 56.8214L60.3044 56.4116L61.0898 55.9336C62.3533 55.1823 63.5826 53.9872 64.607 52.9286C65.5973 51.9725 66.5876 50.948 67.6462 50.0602C68.8755 49.0358 70.0023 48.5577 71.6073 48.4211C71.778 48.4211 71.9146 48.387 72.0853 48.387C73.622 48.3187 75.1586 48.7967 76.5928 49.2748C80.11 50.4358 83.4906 52.1773 87.0761 53.0993C88.5786 53.3384 90.5591 53.5091 92.0274 52.9627C92.4714 52.8261 93.0177 52.7579 93.325 53.1676C93.6665 53.6457 93.3933 54.2603 93.086 54.636C92.8811 54.875 92.6421 55.114 92.4031 55.3189L92.2665 55.6604C91.8909 56.6848 91.1738 57.3678 90.2176 57.5726C89.7396 58.8703 88.9883 59.3142 87.7249 59.28C87.2468 60.5776 86.359 60.6801 85.2321 60.6118L85.198 60.6801C84.7199 61.5679 83.6272 61.7045 82.4662 61.5338C82.2271 61.9435 81.8856 62.2508 81.4417 62.3874C80.588 62.6948 79.5978 62.4216 78.6758 62.0801C78.6075 62.1826 78.5733 62.285 78.4367 62.3533C77.3782 63.0362 75.944 62.7289 74.6805 62.1826C74.6122 62.285 74.5781 62.3533 74.4415 62.4216C71.5048 64.0607 68.8413 60.6801 66.451 59.6215C66.2461 59.5191 66.0071 59.4508 65.9388 59.2459C65.5632 59.1776 65.2217 58.9727 64.7095 58.6654L62.2508 57.2312Z" fill="#2C2C2B"/>
<path fill-rule="evenodd" clip-rule="evenodd" d="M62.1484 56.719C61.8752 56.5824 61.5679 56.5141 61.2947 56.3775C63.446 55.0799 65.9046 52.1432 67.9534 50.47C69.0803 49.5138 70.1389 49.0699 71.6072 48.9333C71.7438 48.9333 71.9145 48.8992 72.0511 48.8992C73.5195 48.8309 75.022 49.309 76.3879 49.7529C79.905 50.8797 83.3539 52.6896 86.9394 53.5774C89.3298 53.953 91.003 53.8506 92.164 53.4067C93.564 52.9286 92.9494 54.636 91.3445 55.3189C90.2859 55.7628 89.159 55.558 88.0663 55.3531C85.7784 54.9433 83.4905 54.1579 81.1344 53.1676C79.1197 52.3139 77.2415 51.1871 75.1244 50.5383C73.1097 49.9236 71.4023 49.787 69.9681 50.4358C67.7144 51.4603 65.6997 54.9091 62.1484 56.719Z" fill="#FFCC00"/>
<path fill-rule="evenodd" clip-rule="evenodd" d="M69.1829 51.3237C72.222 48.865 76.866 51.5285 79.9735 52.9627C80.3149 53.1335 80.3832 53.0993 80.3832 53.475C80.3491 53.6798 80.11 53.8164 79.8027 53.8847C79.1539 54.0213 78.6759 53.7823 78.0612 53.5432C75.227 52.4847 72.4269 51.1529 69.3194 51.4602C69.0121 51.4602 68.9097 51.5285 69.1829 51.3237Z" fill="#FFCC00"/>
<path fill-rule="evenodd" clip-rule="evenodd" d="M79.3586 54.2262C80.2123 54.1238 80.7245 53.8506 80.7587 53.3384C83.2173 54.4652 86.5296 55.5921 89.6029 55.8994C90.4907 55.9677 91.0371 55.797 91.7542 55.558C91.3444 56.7531 90.3883 57.2995 89.1931 57.2312C85.9833 56.9922 83.0807 56.2068 79.3586 54.2262Z" fill="#FFCC00"/>
<path fill-rule="evenodd" clip-rule="evenodd" d="M67.6803 52.5871C68.0559 52.2798 68.2949 51.9042 68.773 51.8359C71.778 51.2895 75.5 52.8944 78.1294 53.9189C78.8465 54.192 78.4026 54.7384 77.8562 54.8409C77.2074 54.9774 76.7293 54.9092 76.1147 54.6701C73.2805 53.6115 71.0267 52.0066 67.7827 52.7237C67.5095 52.792 67.3729 52.8262 67.6803 52.5871Z" fill="#FFCC00"/>
<path fill-rule="evenodd" clip-rule="evenodd" d="M77.2756 55.1823C78.1635 55.1482 78.7781 54.875 78.8123 54.3628C81.1002 55.3872 85.4369 57.7092 89.7736 57.4361C89.3638 58.6312 88.715 58.9044 87.5199 58.8361C86.2223 58.7337 84.9588 58.3922 83.6271 57.9483C81.6465 57.3336 79.4952 56.3775 77.2756 55.1823Z" fill="#FFCC00"/>
<path fill-rule="evenodd" clip-rule="evenodd" d="M66.4509 53.7482C66.8265 53.4408 67.0997 53.1335 67.5436 53.0311C70.5828 52.2798 73.2463 53.8164 75.8756 54.9092C76.5927 55.2165 76.2171 55.6604 75.6707 55.7629C75.0219 55.8994 74.5439 55.8311 73.9292 55.5921C71.095 54.5335 69.8315 53.1676 66.5875 53.8847C66.3143 53.9189 66.1777 53.9872 66.4509 53.7482Z" fill="#FFCC00"/>
<path fill-rule="evenodd" clip-rule="evenodd" d="M75.0562 56.1043C75.944 56.0702 76.5586 55.797 76.5928 55.2848C78.1636 55.9336 82.9784 58.6312 87.2468 59.1093C86.837 60.3045 85.9833 60.202 84.7882 60.1337C82.5003 59.9971 77.0709 57.1971 75.0562 56.1043Z" fill="#FFCC00"/>
<path fill-rule="evenodd" clip-rule="evenodd" d="M65.4265 54.7725C65.8021 54.4652 65.768 54.3628 66.2119 54.2262C69.4559 53.3042 71.2316 54.8067 73.8609 55.8994C74.578 56.2067 74.3731 56.5141 73.8268 56.6165C73.178 56.7531 72.7682 56.4799 72.1536 56.275C69.3535 55.3872 68.9437 54.636 65.5631 54.875C65.2558 54.9091 65.1533 54.9774 65.4265 54.7725Z" fill="#FFCC00"/>
<path fill-rule="evenodd" clip-rule="evenodd" d="M73.2122 56.9921C74.0658 56.958 74.5781 56.7189 74.6122 56.2067C75.8074 56.7189 78.9489 58.5629 82.1929 59.7581C83.0125 60.0654 83.9003 60.4069 84.7199 60.4752C83.354 63.0362 74.9537 57.5726 73.2122 56.9921Z" fill="#FFCC00"/>
<path fill-rule="evenodd" clip-rule="evenodd" d="M64.5386 55.4555C64.9142 55.1482 64.8459 55.1482 65.2898 55.114C69.2509 54.9433 69.6265 55.797 71.8803 56.5482C72.6315 56.7873 72.2559 57.197 71.7095 57.2312C69.6607 57.4019 67.3387 55.2506 64.8118 55.5921C64.5386 55.6262 64.2312 55.6945 64.5386 55.4555Z" fill="#FFCC00"/>
<path fill-rule="evenodd" clip-rule="evenodd" d="M71.2998 57.641C72.1535 57.6068 72.5633 57.4702 72.5633 56.958C75.4658 58.119 79.0854 60.7142 82.0563 61.2264C81.8855 61.5679 81.6123 61.8069 81.2709 61.9435C80.2123 62.3533 78.7098 61.5679 77.7878 61.124C75.1926 59.9288 72.2559 57.9483 71.2998 57.641Z" fill="#FFCC00"/>
<path fill-rule="evenodd" clip-rule="evenodd" d="M69.3194 58.1532C69.9682 58.0849 70.3438 57.9141 70.5487 57.5385C73.2122 58.8361 75.5342 60.6118 78.266 61.7728C78.2319 61.8411 78.1977 61.9094 78.1636 61.9435C75.8416 63.4119 70.9243 59.28 69.217 58.2898C68.8755 58.119 69.0121 58.1873 69.3194 58.1532Z" fill="#FFCC00"/>
<path fill-rule="evenodd" clip-rule="evenodd" d="M66.6558 59.0068C67.3046 58.9385 67.9192 58.6312 68.1924 58.3239C68.2266 58.2556 68.2607 58.2214 68.2949 58.1531C68.4315 58.2214 68.568 58.2897 68.6705 58.3922C70.7876 59.6556 71.6755 60.7825 74.3048 61.8411C74.2707 61.9094 74.2365 61.9777 74.2024 62.0118C71.573 63.4801 68.8754 60.1678 66.6558 59.1776C66.3143 59.041 66.2802 59.041 66.6558 59.0068Z" fill="#FFCC00"/>
<path fill-rule="evenodd" clip-rule="evenodd" d="M63.7875 56.0701C64.1631 55.7628 64.0948 55.8653 64.5387 55.8311C65.2558 55.797 65.9729 55.7628 66.6217 55.9677C67.6461 56.275 68.6023 56.8897 69.7291 57.1629C70.0023 57.2312 70.1389 57.2995 70.1389 57.3677C70.2072 57.6409 69.3194 58.0507 68.6364 57.9141C67.1681 57.6068 66.3827 56.6506 64.0607 56.2409C63.7875 56.1726 63.5143 56.3092 63.7875 56.0701Z" fill="#FFCC00"/>
<path fill-rule="evenodd" clip-rule="evenodd" d="M64.9485 58.2556L62.6265 56.8897L63.4119 56.3775C63.7533 56.3775 64.5046 56.5482 65.3241 56.8897C66.1095 57.2312 67.0656 57.5385 67.5096 57.9483C67.9193 58.3239 67.5096 58.4946 66.7925 58.6995C65.9046 58.9044 65.7339 58.6995 64.9485 58.2556Z" fill="#FFCC00"/>
<path fill-rule="evenodd" clip-rule="evenodd" d="M52.8944 57.2312L52.9627 57.2653L53.1676 57.1629C53.4408 57.0263 53.7481 56.958 54.0213 56.8214L54.8408 56.4116L54.0554 55.9336C52.792 55.1823 51.5627 53.9872 50.5383 52.9286C49.548 51.9725 48.5577 50.948 47.4991 50.0602C46.2698 49.0358 45.143 48.5577 43.538 48.4211C43.3673 48.4211 43.2307 48.387 43.06 48.387C41.5233 48.3187 39.9867 48.7967 38.5525 49.2748C35.0353 50.4358 31.6888 52.1773 28.0692 53.0993C26.5667 53.3384 24.5862 53.5091 23.1178 52.9627C22.6739 52.8261 22.1276 52.7579 21.8202 53.1676C21.4788 53.6457 21.7519 54.2603 22.0593 54.636C22.2641 54.875 22.5032 55.114 22.7422 55.3189L22.8788 55.6604C23.2544 56.6848 23.9715 57.3678 24.9276 57.5726C25.4057 58.8703 26.157 59.3142 27.4204 59.28C27.8985 60.5776 28.7863 60.6801 29.9132 60.6118L29.9473 60.6801C30.4254 61.5679 31.5181 61.7045 32.6791 61.5338C32.9182 61.9435 33.2596 62.2508 33.7035 62.3874C34.5572 62.6948 35.5475 62.4216 36.4695 62.0801C36.5378 62.1826 36.5719 62.285 36.7085 62.3533C37.7671 63.0362 39.2013 62.7289 40.4647 62.1826C40.533 62.285 40.5672 62.3533 40.7038 62.4216C43.6405 64.0607 46.304 60.6801 48.6943 59.6215C48.8992 59.5191 49.1382 59.4508 49.2065 59.2459C49.5821 59.1776 49.9236 58.9727 50.4358 58.6654L52.8944 57.2312Z" fill="#2C2C2B"/>
<path fill-rule="evenodd" clip-rule="evenodd" d="M52.9969 56.719C53.2701 56.5824 53.5774 56.5141 53.8506 56.3775C51.6993 55.0799 49.2407 52.1432 47.1918 50.47C46.065 49.5138 45.0064 49.0699 43.5381 48.9333C43.4015 48.9333 43.2307 48.8992 43.0941 48.8992C41.6258 48.8309 40.1233 49.309 38.7574 49.7529C35.2402 50.8797 31.7913 52.6896 28.2058 53.5774C25.8155 53.953 24.1423 53.8506 22.9813 53.4067C21.5812 52.9286 22.1959 54.636 23.8008 55.3189C24.8594 55.7628 25.9863 55.558 27.079 55.3531C29.3669 54.9433 31.6547 54.1579 34.0109 53.1676C36.0256 52.3139 37.9037 51.1871 40.0209 50.5383C42.0356 49.9236 43.743 49.787 45.1771 50.4358C47.4309 51.4603 49.4456 54.9091 52.9969 56.719Z" fill="#FFCC00"/>
<path fill-rule="evenodd" clip-rule="evenodd" d="M45.9626 51.3237C42.9235 48.865 38.2794 51.5285 35.172 52.9627C34.8305 53.1335 34.7622 53.0993 34.7622 53.475C34.7964 53.6798 35.0354 53.8164 35.3427 53.8847C35.9915 54.0213 36.4696 53.7823 37.0842 53.5432C39.9185 52.4847 42.7186 51.1529 45.826 51.4602C46.0992 51.4602 46.2358 51.5285 45.9626 51.3237Z" fill="#FFCC00"/>
<path fill-rule="evenodd" clip-rule="evenodd" d="M35.7525 54.2262C34.8988 54.1238 34.3866 53.8506 34.3524 53.3384C31.8938 54.4652 28.5815 55.5921 25.5082 55.8994C24.6204 55.9677 24.074 55.797 23.3569 55.558C23.7667 56.7531 24.7228 57.2995 25.918 57.2312C29.162 56.9922 32.0645 56.2068 35.7525 54.2262Z" fill="#FFCC00"/>
<path fill-rule="evenodd" clip-rule="evenodd" d="M47.465 52.5871C47.0893 52.2798 46.8503 51.9042 46.3723 51.8359C43.3673 51.2895 39.6452 52.8944 37.0158 53.9189C36.2987 54.192 36.7427 54.7384 37.289 54.8409C37.9378 54.9774 38.4159 54.9092 39.0305 54.6701C41.8648 53.6115 44.1185 52.0066 47.3625 52.7237C47.6016 52.792 47.7382 52.8262 47.465 52.5871Z" fill="#FFCC00"/>
<path fill-rule="evenodd" clip-rule="evenodd" d="M37.8696 55.1823C36.9817 55.1482 36.3671 54.875 36.3329 54.3628C34.045 55.3872 29.7083 57.7092 25.3716 57.4361C25.7814 58.6312 26.4302 58.9044 27.6253 58.8361C28.9229 58.7337 30.1864 58.3922 31.5181 57.9483C33.4987 57.3336 35.65 56.3775 37.8696 55.1823Z" fill="#FFCC00"/>
<path fill-rule="evenodd" clip-rule="evenodd" d="M48.6943 53.7482C48.3187 53.4408 48.0455 53.1335 47.6016 53.0311C44.5625 52.2798 41.899 53.8164 39.2696 54.9092C38.5525 55.2165 38.9281 55.6604 39.4745 55.7629C40.1233 55.8994 40.6014 55.8311 41.216 55.5921C44.0503 54.5335 45.3137 53.1676 48.5577 53.8847C48.8309 53.9189 48.9675 53.9872 48.6943 53.7482Z" fill="#FFCC00"/>
<path fill-rule="evenodd" clip-rule="evenodd" d="M40.0549 56.1043C39.1671 56.0702 38.5524 55.797 38.5183 55.2848C36.9475 55.9336 32.1327 58.6312 27.8643 59.1093C28.274 60.3045 29.1277 60.202 30.3229 60.1337C32.6449 59.9971 38.0744 57.1971 40.0549 56.1043Z" fill="#FFCC00"/>
<path fill-rule="evenodd" clip-rule="evenodd" d="M49.7188 54.7725C49.3432 54.4652 49.3773 54.3628 48.9334 54.2262C45.6894 53.3042 43.9137 54.8067 41.2844 55.8994C40.5673 56.2067 40.7722 56.5141 41.3185 56.6165C41.9673 56.7531 42.3771 56.4799 42.9918 56.275C45.7919 55.3872 46.2016 54.636 49.5822 54.875C49.8554 54.9091 49.992 54.9774 49.7188 54.7725Z" fill="#FFCC00"/>
<path fill-rule="evenodd" clip-rule="evenodd" d="M41.8991 56.9921C41.0454 56.958 40.5332 56.7189 40.499 56.2067C39.3038 56.7189 36.1623 58.5629 32.9183 59.7581C32.0987 60.0654 31.2109 60.4069 30.3914 60.4752C31.7914 63.0362 40.1917 57.5726 41.8991 56.9921Z" fill="#FFCC00"/>
<path fill-rule="evenodd" clip-rule="evenodd" d="M50.6065 55.4555C50.2309 55.1482 50.2992 55.1482 49.8553 55.114C45.8942 54.9433 45.5185 55.797 43.2648 56.5482C42.5136 56.7873 42.8892 57.197 43.4356 57.2312C45.4844 57.4019 47.8064 55.2506 50.3333 55.5921C50.5724 55.6262 50.8797 55.6945 50.6065 55.4555Z" fill="#FFCC00"/>
<path fill-rule="evenodd" clip-rule="evenodd" d="M43.8453 57.641C42.9916 57.6068 42.5819 57.4702 42.5819 56.958C39.6793 58.119 36.0597 60.7142 33.0889 61.2264C33.2596 61.5679 33.5328 61.8069 33.8743 61.9435C34.9328 62.3533 36.4353 61.5679 37.3573 61.124C39.9184 59.9288 42.8892 57.9483 43.8453 57.641Z" fill="#FFCC00"/>
<path fill-rule="evenodd" clip-rule="evenodd" d="M45.826 58.1532C45.1772 58.0849 44.8016 57.9141 44.5967 57.5385C41.9332 58.8361 39.6112 60.6118 36.8794 61.7728C36.9135 61.8411 36.9477 61.9094 36.9818 61.9435C39.3039 63.4119 44.2211 59.28 45.9285 58.2898C46.2699 58.119 46.1334 58.1873 45.826 58.1532Z" fill="#FFCC00"/>
<path fill-rule="evenodd" clip-rule="evenodd" d="M48.4894 59.0068C47.8406 58.9385 47.2259 58.6312 46.9527 58.3239C46.9186 58.2556 46.8844 58.2214 46.8503 58.1531C46.7137 58.2214 46.5771 58.2897 46.4747 58.3922C44.3575 59.6556 43.4697 60.7825 40.8403 61.8411C40.8745 61.9094 40.9086 61.9777 40.9428 62.0118C43.5721 63.4801 46.2698 60.1678 48.4894 59.1776C48.7967 59.041 48.865 59.041 48.4894 59.0068Z" fill="#FFCC00"/>
<path fill-rule="evenodd" clip-rule="evenodd" d="M51.3578 56.0701C50.9822 55.7628 51.0505 55.8653 50.6066 55.8311C49.8895 55.797 49.1724 55.7628 48.5236 55.9677C47.4992 56.275 46.543 56.8897 45.4162 57.1629C45.143 57.2312 45.0064 57.2995 45.0064 57.3677C44.9381 57.6409 45.8259 58.0507 46.5089 57.9141C47.9772 57.6068 48.7626 56.6506 51.0846 56.2409C51.3578 56.1726 51.631 56.3092 51.3578 56.0701Z" fill="#FFCC00"/>
<path fill-rule="evenodd" clip-rule="evenodd" d="M50.1967 58.2556L52.5188 56.8897L51.7334 56.3775C51.3919 56.3775 50.6407 56.5482 49.8211 56.8897C49.0357 57.2312 48.0796 57.5385 47.6357 57.9483C47.2259 58.3239 47.6357 58.4946 48.3528 58.6995C49.2406 58.9044 49.4114 58.6995 50.1967 58.2556Z" fill="#FFCC00"/>
<path fill-rule="evenodd" clip-rule="evenodd" d="M70.4462 72.4268L34.6596 35.7524C33.9084 34.9329 33.4644 34.0792 33.3961 32.9864C33.362 32.7133 33.362 32.5084 33.3278 32.2011L33.2937 31.6888L33.9425 31.723C34.2498 31.723 34.5572 31.723 34.8645 31.7571C35.8548 31.8596 36.6402 32.3035 37.3914 33.0206L74.0658 68.8071C71.6072 71.5048 72.1877 69.8657 70.4462 72.4268Z" fill="#2C2C2B"/>
<path fill-rule="evenodd" clip-rule="evenodd" d="M78.4367 78.8124C79.0172 79.4953 79.7001 80.11 80.588 80.349C81.0319 80.4856 81.3051 80.4856 81.6465 80.11C81.7148 80.0417 81.7831 79.9734 81.8856 79.8709C82.1929 79.5636 82.2953 79.3929 82.2612 78.9148C82.1929 77.7538 81.5441 77.0025 80.6221 76.4562C80.6221 76.2854 80.588 76.1147 80.4514 75.9781L80.144 75.6708C79.9733 75.5001 79.7684 75.4659 79.5635 75.5001L74.4414 69.6608L73.5194 68.4315L72.8365 69.9682L70.3096 71.5731L71.2316 72.3243L71.8121 72.9048L77.344 77.7879C77.3098 77.9928 77.344 78.1977 77.5147 78.3343L77.822 78.6416C77.9586 78.8806 78.2318 78.9148 78.4367 78.8124Z" fill="#2C2C2B"/>
<path fill-rule="evenodd" clip-rule="evenodd" d="M72.939 70.5145L72.7 73.0756L72.1536 72.5634L71.5731 71.9829L71.1633 71.6755L72.939 70.5145ZM79.1538 76.7635L79.2221 75.8757L79.5978 76.3196L79.1538 76.7635ZM78.9148 75.5684L78.7782 77.1391L78.0611 77.8562L77.9587 77.7538L78.2319 74.783L78.9148 75.5684ZM77.9587 74.4415L77.6855 77.4806L77.0026 76.866L77.3099 73.6561L77.9587 74.4415ZM77.0026 73.3488L76.6952 76.6269L76.0123 76.0123L76.3538 72.5975L77.0026 73.3488ZM76.0123 72.2219L75.6708 75.7049L74.9879 75.0903L75.3293 71.4365L76.0123 72.2219ZM75.0561 71.1292L74.7147 74.8513L74.0317 74.2366L74.4073 70.3438L75.0561 71.1292ZM74.0659 70.0023L73.6902 73.9293L73.0073 73.3146L73.3146 70.1389L73.6561 69.4218L74.0659 70.0023Z" fill="#FFCC00"/>
<path fill-rule="evenodd" clip-rule="evenodd" d="M78.5391 78.1294L79.5293 77.0708L79.5635 77.105C79.8367 77.3099 80.1781 77.5831 80.4513 77.9245C80.7587 78.266 80.9977 78.6758 81.066 79.188C81.066 79.2563 81.1684 79.3246 81.2367 79.3246C81.305 79.3246 81.3733 79.2221 81.3733 79.1538C81.305 78.6075 81.0318 78.1294 80.6904 77.7538C80.383 77.3782 80.0074 77.0708 79.7342 76.866L79.9391 76.6611C80.9977 77.1733 81.7489 77.8562 81.8172 78.9831C81.8172 79.2904 81.7831 79.3246 81.5782 79.5636C81.5099 79.6319 81.4416 79.7002 81.3392 79.8026C81.1343 80.0075 81.066 79.9734 80.7586 79.9051C79.9733 79.666 79.222 79.1197 78.5391 78.1294Z" fill="#FFCC00"/>
<path fill-rule="evenodd" clip-rule="evenodd" d="M80.0757 75.6367C79.8367 75.3976 79.4269 75.4318 79.1879 75.7049L77.4805 77.6172C77.2415 77.8562 77.2756 78.266 77.5146 78.505L77.822 78.7782C78.061 79.0173 78.4708 78.9831 78.7098 78.7099L80.4172 76.7977C80.6562 76.5586 80.6221 76.1489 80.383 75.9098L80.0757 75.6367Z" fill="#2C2C2B"/>
<path fill-rule="evenodd" clip-rule="evenodd" d="M79.7685 76.0122L80.0758 76.2854C80.1099 76.3196 80.1099 76.3879 80.0758 76.4562L78.3684 78.3684C78.3343 78.4367 78.2318 78.4367 78.1977 78.4026L77.8904 78.1294C77.8562 78.0952 77.8562 78.0269 77.8904 77.9586L79.5977 76.0464C79.6319 75.9781 79.7002 75.9781 79.7685 76.0122Z" fill="#FFCC00"/>
<path fill-rule="evenodd" clip-rule="evenodd" d="M72.1877 71.2658L59.7238 58.5287L33.8742 32.645C33.8401 33.7718 34.2157 34.5914 35.0011 35.4451L70.6169 71.9487L72.1877 71.2658ZM72.8706 70.5828L60.1336 58.119L34.284 32.2693C35.4108 32.2352 36.2304 32.6108 37.0841 33.3962L73.5877 69.012L72.8706 70.5828Z" fill="#D9DBDC"/>
<path fill-rule="evenodd" clip-rule="evenodd" d="M76.0464 66.007C76.6611 66.0412 77.344 65.6656 77.7196 65.29C78.2318 64.7777 78.8124 63.6167 78.1635 62.9679C77.5489 62.3533 76.3196 62.8313 75.7732 63.3777C75.3635 63.7875 75.022 64.5046 75.0903 65.1192L70.173 68.6023L66.69 73.5195C66.0753 73.4512 65.3582 73.7927 64.9485 74.2024C64.4363 74.7147 63.9241 75.944 64.5387 76.5928C65.1534 77.2074 66.3485 76.6611 66.8607 76.1488C67.2364 75.7732 67.612 75.0903 67.5778 74.4756L72.8024 71.2658L76.0464 66.007Z" fill="#2C2C2B"/>
<path fill-rule="evenodd" clip-rule="evenodd" d="M72.4949 70.856L67.0655 74.2025C67.2704 74.5098 67.0996 75.2269 66.5533 75.7732C65.9728 76.3537 65.1874 76.4903 64.9484 76.2172C64.7093 75.9781 64.7776 75.1244 65.3581 74.5439C65.8703 74.0317 66.6216 73.8951 66.9631 74.1L70.5827 68.9779L75.739 65.3583C75.5682 65.0509 75.6707 64.2997 76.1829 63.7533C76.7634 63.1728 77.6171 63.1045 77.8561 63.3436C78.0951 63.5826 77.9585 64.368 77.4122 64.9485C76.8658 65.4948 76.1487 65.6314 75.8414 65.4607L72.4949 70.856Z" fill="#FFCC00"/>
<path fill-rule="evenodd" clip-rule="evenodd" d="M67.9191 73.0414C67.8508 73.1097 67.8508 73.2122 67.885 73.2804C67.9533 73.3487 68.0557 73.3146 68.124 73.2463L71.5729 70.0706L71.9827 70.6852C72.051 70.7535 72.29 70.7194 72.3583 70.6852C72.4266 70.6169 72.4266 70.4121 72.3583 70.3438L71.7436 69.934L74.8511 66.4851C74.9194 66.4168 74.9877 66.3485 74.9194 66.2802C74.8511 66.2119 74.7828 66.3144 74.7145 66.3827L71.4022 69.5584L70.9924 69.012C70.9241 68.9437 70.7192 69.012 70.6851 69.0803C70.6168 69.1486 70.5826 69.2852 70.6509 69.3535L71.2314 69.7291L67.9191 73.0414Z" fill="#2C2C2B"/>
<path fill-rule="evenodd" clip-rule="evenodd" d="M36.811 78.7441C36.2305 79.427 35.5134 80.0075 34.6255 80.2465C34.1475 80.349 33.9085 80.3831 33.567 80.0075C33.4987 79.9392 33.4304 79.8709 33.3279 79.7685C33.0206 79.427 32.9182 79.2904 32.9523 78.8124C33.0206 77.6513 33.7036 76.9001 34.6255 76.3879C34.6255 76.2171 34.6597 76.0464 34.7963 75.9098L35.1036 75.6025C35.2743 75.4318 35.5134 75.3976 35.7183 75.4659L40.9428 69.695L41.899 68.4998L42.5819 70.0365L45.0747 71.7097L44.1185 72.4268L43.538 73.0073L37.9379 77.7879C37.972 77.9928 37.9037 78.1977 37.7671 78.3343L37.4598 78.6416C37.3232 78.8124 37.05 78.8465 36.811 78.7441Z" fill="#2C2C2B"/>
<path fill-rule="evenodd" clip-rule="evenodd" d="M42.4795 70.5487L42.6843 73.1097L43.2649 72.6316L43.8454 72.0511L44.2551 71.7438L42.4795 70.5487ZM36.1622 76.6952L36.0939 75.8074L35.7183 76.2171L36.1622 76.6952ZM36.4012 75.4659L36.5378 77.0367L37.2549 77.7538L37.3573 77.6513L37.1183 74.6805L36.4012 75.4659ZM37.3915 74.3732L37.6305 77.4123L38.3476 76.7976L38.1086 73.5878L37.3915 74.3732ZM38.3818 73.3146L38.6208 76.5928L39.3379 75.9781L39.0647 72.5634L38.3818 73.3146ZM39.372 72.2219L39.6452 75.7049L40.3623 75.0903L40.0891 71.4365L39.372 72.2219ZM40.3623 71.1292L40.6355 74.8512L41.3526 74.2366L41.0453 70.3438L40.3623 71.1292ZM41.3526 70.0364L41.6599 73.9975L42.377 73.3829L42.138 70.2072L41.8307 69.4559L41.3526 70.0364Z" fill="#FFCC00"/>
<path fill-rule="evenodd" clip-rule="evenodd" d="M36.7427 78.0611L35.7524 77.0025L35.7183 77.0367C35.4451 77.2416 35.1036 77.5147 34.7963 77.8562C34.489 78.1977 34.2499 78.6074 34.1816 79.1197C34.1816 79.188 34.0792 79.2563 34.0109 79.2563C33.9426 79.2563 33.8743 79.1538 33.8743 79.0855C33.9426 78.5392 34.2499 78.0611 34.5573 77.6855C34.8646 77.3098 35.2402 77.0367 35.5134 76.8318L35.3427 76.6269C34.2841 77.105 33.5328 77.7879 33.4304 78.9148C33.3963 79.2221 33.4304 79.2563 33.6694 79.4953C33.7377 79.5636 33.806 79.6319 33.9085 79.7343C34.1134 79.9392 34.1816 79.9392 34.489 79.8368C35.2744 79.5636 36.0256 79.0172 36.7427 78.0611Z" fill="#FFCC00"/>
<path fill-rule="evenodd" clip-rule="evenodd" d="M44.699 72.4268L80.4855 35.7524C81.2368 34.9329 81.6807 34.0792 81.749 32.9864C81.7831 32.7133 81.7831 32.5084 81.8173 32.2011L81.8514 31.6888L81.2026 31.723C80.8953 31.723 80.588 31.723 80.2806 31.7571C79.2904 31.8596 78.505 32.3035 77.7537 33.0206L41.0793 68.8071C43.538 71.5048 42.9233 69.8657 44.699 72.4268Z" fill="#2C2C2B"/>
<path fill-rule="evenodd" clip-rule="evenodd" d="M35.2402 75.5342C35.5134 75.2951 35.889 75.3634 36.128 75.6025L37.8012 77.5489C38.0403 77.8221 38.0061 78.1977 37.7329 78.4367L37.4256 78.7099C37.1524 78.9489 36.7768 78.8806 36.5378 78.6416L34.8645 76.6952C34.6597 76.422 34.6597 76.0464 34.9328 75.8074L35.2402 75.5342Z" fill="#2C2C2B"/>
<path fill-rule="evenodd" clip-rule="evenodd" d="M35.5475 75.9098L35.2402 76.183C35.2061 76.2171 35.2061 76.2854 35.2402 76.3537L36.9134 78.3001C36.9476 78.3684 37.05 78.3684 37.0842 78.3343L37.3915 78.0611C37.4256 78.027 37.4256 77.9587 37.3915 77.8904L35.7183 75.944C35.6841 75.8757 35.6158 75.8757 35.5475 75.9098Z" fill="#FFCC00"/>
<path fill-rule="evenodd" clip-rule="evenodd" d="M42.9233 71.2658L55.3871 58.5288L81.2709 32.645C81.3051 33.7718 80.9294 34.5914 80.144 35.4451L44.4941 71.9146L42.9233 71.2658ZM42.2745 70.5828L55.0115 58.119L80.8611 32.2693C79.7343 32.2352 78.9147 32.6108 78.0611 33.3962L41.5916 69.012L42.2745 70.5828Z" fill="#D9DBDC"/>
<path fill-rule="evenodd" clip-rule="evenodd" d="M47.4992 74.5439C47.465 75.1586 47.8406 75.8415 48.2163 76.2171C48.7285 76.7294 49.8895 77.3099 50.5383 76.6952C51.1871 76.0806 50.709 74.8513 50.1627 74.3049C49.7529 73.8951 49.0358 73.5536 48.4212 73.5878L45.0064 68.6023L40.1233 65.0509C40.1916 64.4363 39.8843 63.7192 39.4745 63.3094C38.9623 62.763 37.733 62.2508 37.1183 62.8655C36.4695 63.4801 37.0159 64.6753 37.5281 65.1875C37.9037 65.5631 38.5867 65.9729 39.2013 65.9388L42.3088 71.1975L47.4992 74.5439Z" fill="#2C2C2B"/>
<path fill-rule="evenodd" clip-rule="evenodd" d="M42.7184 70.8901L39.4744 65.3924C39.1671 65.5631 38.45 65.4265 37.9378 64.8802C37.3914 64.2997 37.2548 63.5143 37.4939 63.2753C37.767 63.0362 38.5866 63.1045 39.1671 63.685C39.6793 64.2314 39.7817 64.9826 39.611 65.29L44.699 69.012L48.2503 74.2024C48.5576 74.0317 49.3089 74.1342 49.8553 74.6805C50.4016 75.261 50.4699 76.1147 50.2309 76.3537C49.9577 76.5928 49.1723 76.4562 48.6259 75.8757C48.1137 75.3293 47.943 74.6122 48.1479 74.3049L42.7184 70.8901Z" fill="#FFCC00"/>
<path fill-rule="evenodd" clip-rule="evenodd" d="M40.6015 66.2802C40.5332 66.2119 40.4307 66.1778 40.3624 66.2461C40.2941 66.3144 40.3283 66.4168 40.3966 66.4851L43.504 69.9682L42.8893 70.3779C42.821 70.4462 42.8552 70.6853 42.8893 70.7536C42.9576 70.8218 43.1625 70.8218 43.2308 70.7536L43.6406 70.1389L47.0553 73.2805C47.1236 73.3488 47.1919 73.4171 47.2602 73.3488C47.3285 73.2805 47.2602 73.2122 47.1578 73.1439L44.0162 69.7974L44.5626 69.4218C44.6309 69.3535 44.5626 69.1486 44.5284 69.1145C44.4601 69.0462 44.3235 69.012 44.2552 69.0803L43.8796 69.6608L40.6015 66.2802Z" fill="#2C2C2B"/>
<path fill-rule="evenodd" clip-rule="evenodd" d="M97.7641 39.9184L108.247 36.7085L109.374 40.3282L105.72 41.455L110.023 42.5477L111.047 45.8601L100.018 49.2407L98.891 45.621L102.476 44.5283L98.208 43.4014L97.2178 40.1916L97.1153 40.2599L95.2714 36.9476L98.5495 35.1377L94.1445 34.9329L92.4713 31.8937L102.579 26.2936L104.423 29.6059L101.111 31.4498L105.55 31.6206L107.223 34.6597L97.7641 39.9184ZM89.2272 21.5129C89.398 21.308 89.6029 21.1031 89.8078 20.8983C90.9688 19.7714 92.3688 18.9518 94.0079 18.9177C95.5445 18.8836 96.8763 19.5324 97.9349 20.6251C98.8568 21.5812 99.4374 22.7422 99.4374 24.074C99.4374 24.9277 99.13 25.7813 98.7203 26.5326L98.208 27.4204L94.8274 25.2691L95.3738 24.4154C95.5104 24.2106 95.5787 23.9715 95.5787 23.7325C95.5445 23.4935 95.4421 23.2886 95.2714 23.0837C94.9982 22.8105 94.6909 22.6398 94.2811 22.6739C93.7347 22.7081 93.0518 23.2886 92.6761 23.63C92.3005 24.0057 91.6176 24.7228 91.5834 25.2691C91.5493 25.6448 91.6517 25.9521 91.9249 26.2253C92.0956 26.396 92.3005 26.5326 92.5737 26.5326C92.9152 26.5667 93.3591 26.3618 93.6323 26.1911L94.5543 25.6448L96.3299 29.2302L95.4762 29.6742C94.4518 30.2205 93.325 30.562 92.1639 30.3571C91.0371 30.1864 90.0809 29.5717 89.2956 28.7522C88.2711 27.6936 87.7248 26.3618 87.7931 24.8594C87.8614 23.6983 88.2711 22.7081 88.9541 21.8202L88.5785 22.1276C87.6906 22.8788 86.632 23.391 85.471 23.4252C84.3442 23.4593 83.2514 23.0495 82.3295 22.4007C81.1002 21.5471 80.3148 20.3519 80.1099 18.8836C79.8708 17.3128 80.4172 15.8103 81.305 14.5468C82.227 13.2492 83.4563 12.1565 85.0613 11.815C86.5638 11.5077 87.9979 11.8833 89.2614 12.737C90.3541 13.4883 91.1395 14.5127 91.4127 15.8444C91.5834 16.6981 91.4468 17.5518 91.1737 18.3713L90.8322 19.3616L87.1101 17.8933L87.4857 16.9713C87.5882 16.7323 87.6223 16.4932 87.554 16.2542C87.4857 16.0152 87.315 15.8444 87.1101 15.6737C86.7686 15.4347 86.4613 15.3664 86.0857 15.4688C85.5393 15.6054 84.993 16.2883 84.6856 16.7323C84.3783 17.1762 83.8661 17.9957 83.9002 18.5421C83.9344 18.9177 84.1051 19.1909 84.4125 19.4299C84.6173 19.5665 84.8222 19.6348 85.0954 19.6006C85.4369 19.5665 85.8125 19.2592 86.0857 19.0543L86.8711 18.3372L89.2272 21.5129ZM28.1716 25.1667C28.0008 26.2253 27.4545 27.1472 26.7032 27.8985C25.6788 28.9912 24.3812 29.5717 22.8787 29.5376C21.2738 29.5034 19.9079 28.7522 18.781 27.6595C17.62 26.5326 16.7663 25.1667 16.6639 23.5276C16.5956 21.991 17.1761 20.6251 18.2347 19.5324C19.1566 18.5762 20.2835 17.9616 21.6153 17.8933C22.4689 17.8591 23.3226 18.1323 24.0739 18.5421L24.9959 19.0201L22.947 22.469L22.0933 21.9568C21.8884 21.8202 21.6494 21.7519 21.4104 21.7861C21.1713 21.8202 20.9665 21.9568 20.7957 22.1276C20.5225 22.4007 20.386 22.7081 20.4201 23.1178C20.4542 23.6642 21.0689 24.313 21.4445 24.6886C21.8201 25.0642 22.5714 25.713 23.1177 25.7472C23.4934 25.7813 23.8007 25.6448 24.0739 25.3716C24.2446 25.2008 24.3471 24.9959 24.3471 24.7228C24.3471 24.3813 24.1422 23.9374 23.9373 23.6642L23.3568 22.7764L26.874 20.8641L27.2496 21.5129L25.3032 13.5907L28.0691 11.6443L35.7523 16.664L35.6499 7.44415L38.7914 6.18069L47.4649 15.1956L43.5038 16.8006L41.933 15.0932L39.6793 16.0152L39.7476 18.3372L37.5621 19.225L35.0694 20.9665L33.123 19.6689L31.1424 21.069L31.7571 23.2886L28.3082 25.713L28.1716 25.1667ZM14.9224 38.5866C14.2394 38.4159 13.5565 38.1427 12.9418 37.7671C12.0881 37.289 11.3027 36.6744 10.7222 35.889C10.3466 35.3768 10.0734 34.7621 9.86853 34.1475C9.69779 33.5328 9.6295 32.884 9.69779 32.2694C9.80023 31.4498 10.1076 30.6303 10.5173 29.9132C11.3027 28.5473 12.4296 27.557 13.9662 27.1814C15.537 26.7716 17.1078 27.2155 18.5078 28.0009C19.9079 28.7863 21.0348 29.9132 21.4787 31.484C21.9226 32.9865 21.6153 34.4889 20.8299 35.8207C20.0445 37.1866 18.9176 38.1769 17.381 38.5866C17.0054 38.6891 16.6639 38.7232 16.2883 38.7232L20.3518 40.1916L19.1225 43.5722L17.1761 42.8551L15.8102 46.6455L17.7566 47.3625L16.5273 50.7431L11.2003 48.8309L11.5759 47.7382C11.0637 47.2943 10.4832 46.9528 9.86853 46.6455C8.67337 46.0649 7.44406 45.5527 6.1806 45.1088L4.30249 44.4259L7.23917 36.3329L14.7175 39.0647L14.9224 38.5866ZM52.9968 13.5565L53.1675 14.7517L49.3089 15.2981L49.1381 14.1029C48.0113 14.1029 46.8844 13.898 45.9966 13.1468C45.0404 12.3614 44.5282 11.2687 44.3575 10.0735C44.1867 8.81005 44.3916 7.61488 45.1429 6.59046C45.7917 5.70263 46.782 5.19041 47.8405 4.88309L47.7039 3.85866L51.5626 3.3123L51.6992 4.33673C52.7919 4.33673 53.9529 4.54161 54.8066 5.25871C55.7627 6.0441 56.2749 7.13682 56.4798 8.36613C56.6506 9.59544 56.4457 10.7565 55.7627 11.7809C55.1139 12.737 54.0895 13.2492 52.9968 13.5565ZM64.846 11.5077L64.2655 15.059L60.4068 14.4444L62.2166 3.03912L66.246 3.68793C67.0314 3.82452 68.0217 3.96111 68.7388 4.26843C69.49 4.57576 70.0364 5.12212 70.412 5.83922C70.8559 6.62461 70.9242 7.51244 70.7876 8.40028C70.6852 9.08323 70.4461 9.73203 70.0364 10.2442C69.6949 10.7223 69.251 11.0979 68.7388 11.337C68.2949 11.5418 67.7826 11.7126 67.3046 11.7126C66.5875 11.7467 65.8362 11.6443 65.1191 11.5077H64.846ZM70.412 10.3808C70.7535 9.45885 71.1974 8.57101 71.8803 7.88807C72.3243 7.41 72.8706 7.03438 73.4511 6.7612C74.0316 6.48802 74.6463 6.31728 75.2951 6.28313C76.1488 6.24899 76.9683 6.41972 77.7537 6.6929C79.222 7.23926 80.4172 8.16124 81.066 9.59544C81.749 11.0979 81.5782 12.7029 81.0319 14.2053C80.4855 15.7078 79.5635 17.0054 78.0952 17.7225C76.661 18.4055 75.1585 18.3713 73.7243 17.825C72.256 17.2786 71.0608 16.3566 70.412 14.9224C69.729 13.4541 69.8656 11.8492 70.412 10.3808ZM9.01484 42.0697C10.3466 42.5819 11.7466 43.1966 12.9759 43.9819L13.4199 42.7526L9.32217 41.2501L9.01484 42.0697ZM14.8882 34.3182C15.4004 34.6255 16.0834 34.8987 16.698 34.7963C17.1761 34.6938 17.4834 34.4548 17.7224 34.045C17.9615 33.6353 18.0298 33.2596 17.859 32.8157C17.6542 32.2352 17.0395 31.7571 16.5273 31.484C16.0492 31.2108 15.3321 30.8693 14.7516 31.0059C14.2736 31.1083 14.0004 31.3815 13.7613 31.7913C13.5223 32.2011 13.454 32.6108 13.5906 33.0548C13.7272 33.567 14.376 34.0109 14.8882 34.3182ZM52.4846 9.83447C52.5529 9.76618 52.6212 9.69788 52.6553 9.62959C52.7236 9.4247 52.6895 9.04908 52.6553 8.84419C52.587 8.43442 52.4846 8.16124 52.2114 8.02465L52.4846 9.83447ZM48.6601 10.3808L48.3869 8.53687C48.3527 8.57101 48.3527 8.57101 48.3527 8.60516C48.182 8.84419 48.182 9.28811 48.2503 9.56129C48.2844 10.0052 48.3869 10.2442 48.6601 10.3808ZM65.5289 7.23926L65.4265 7.95636H65.4948C65.7338 7.99051 66.4509 8.09295 66.6558 8.0588C66.7241 8.0588 66.7582 8.02465 66.8265 7.99051C66.8607 7.95636 66.8948 7.88806 66.8948 7.81977C66.8948 7.75147 66.8948 7.68318 66.8607 7.61488C66.8265 7.54659 66.7582 7.51244 66.6558 7.4783C66.3143 7.34171 65.8704 7.27341 65.5289 7.23926ZM74.0316 13.5224C74.2024 13.9663 74.5097 14.2395 74.9536 14.4102C75.3975 14.581 75.7731 14.5468 76.2171 14.3419C76.7634 14.0346 77.1049 13.3517 77.3098 12.7712C77.5147 12.2248 77.6854 11.4735 77.4805 10.9272C77.3098 10.4833 76.9683 10.2442 76.5585 10.0735C76.1146 9.90277 75.7049 9.90277 75.2951 10.1418C74.7487 10.415 74.4414 11.1321 74.2365 11.6784C73.9633 12.2248 73.7926 12.9419 74.0316 13.5224Z" fill="white"/>
<path fill-rule="evenodd" clip-rule="evenodd" d="M36.333 17.6201L36.1964 7.8198L38.7233 6.79538L46.6114 14.9908L43.6747 16.1859L42.1039 14.4786L39.2014 15.6396L39.2697 17.9616L37.3574 18.747L35.1037 20.3178L33.1231 19.0202L30.5621 20.83L31.1767 23.0496L28.6157 24.8252L25.918 13.8298L28.1376 12.259L36.333 17.6201ZM15.0591 39.7135L15.3323 38.9282L19.7373 40.5331L18.8495 42.9917L16.9031 42.2746L15.1957 46.987L17.1421 47.7041L16.2543 50.1627L11.8492 48.5577L12.1907 47.6358C11.5761 47.0553 10.8931 46.6113 10.1419 46.2357C8.9467 45.6211 7.6491 45.143 6.41979 44.6649L4.9856 44.1527L7.5808 37.0159L15.0591 39.7135ZM13.181 37.3574C12.3956 36.9135 11.6444 36.3329 11.1321 35.6158C10.7907 35.1378 10.5175 34.5914 10.3809 34.0451C10.2102 33.4987 10.176 32.9182 10.2443 32.3377C10.3467 31.5523 10.6199 30.8352 10.9956 30.1864C11.7126 28.9571 12.7371 28.0351 14.1371 27.6936C15.6055 27.318 17.0397 27.7278 18.3031 28.479C19.5666 29.1961 20.6251 30.2205 21.0349 31.6889C21.4447 33.0548 21.1374 34.4207 20.4544 35.65C19.7373 36.8793 18.7129 37.8354 17.3128 38.1769C15.8445 38.4501 14.4444 38.0745 13.181 37.3574ZM24.1082 22.9813L26.7375 21.5471L26.9766 21.9569C27.4888 22.8447 27.8303 23.8691 27.7278 24.9277C27.5912 25.9521 27.079 26.8399 26.3619 27.557C25.4058 28.5473 24.2448 29.0595 22.8789 29.0595C21.4105 29.0254 20.1471 28.3424 19.1227 27.318C18.0641 26.2936 17.2445 25.0301 17.1762 23.5276C17.1079 22.1276 17.6543 20.8983 18.6104 19.908C19.43 19.0543 20.4544 18.4738 21.6837 18.4397C22.4691 18.4055 23.2203 18.6446 23.9033 19.0202L24.3472 19.2592L22.8106 21.8544L22.3667 21.5812C22.0593 21.3763 21.7179 21.3081 21.3422 21.3422C20.9666 21.3763 20.6593 21.5812 20.4203 21.8203C20.0446 22.1959 19.8739 22.6398 19.908 23.1862C19.9763 23.8691 20.591 24.5862 21.0691 25.0643C21.5471 25.5423 22.3667 26.1911 23.0496 26.2594C23.596 26.2936 24.0057 26.1229 24.3814 25.7131C24.6545 25.4399 24.7911 25.1326 24.8253 24.7569C24.8594 24.2789 24.5862 23.8008 24.3472 23.4252L24.1082 22.9813ZM52.4506 13.181L52.6213 14.3078L49.7529 14.7176L49.5822 13.5907C48.4553 13.659 47.226 13.5224 46.3382 12.7712C45.4845 12.0541 45.0064 11.098 44.8698 10.0052C44.6991 8.87837 44.8698 7.78565 45.5528 6.86367C46.2357 5.97584 47.3285 5.49777 48.387 5.25874L48.2504 4.30261L51.1188 3.89284L51.2554 4.84897C52.3823 4.78068 53.6116 4.91727 54.4994 5.66851C55.3531 6.38561 55.8312 7.34174 55.9678 8.4686C56.1385 9.56132 55.9336 10.6199 55.319 11.5419C54.7043 12.4639 53.5433 12.9419 52.4506 13.181ZM64.4363 10.9272L63.8558 14.5127L60.9533 14.0688L62.5924 3.65381L66.1437 4.20017C66.8267 4.30261 67.8852 4.47335 68.4999 4.74653C69.1487 5.01971 69.6268 5.49777 69.9682 6.11243C70.3439 6.79538 70.4122 7.58077 70.2756 8.36616C70.1731 8.94667 70.0024 9.52717 69.6268 10.0052C69.3194 10.415 68.9438 10.7223 68.4999 10.9614C68.1243 11.1663 67.6804 11.2687 67.2364 11.3028C66.5535 11.337 65.8022 11.2345 65.1534 11.1321L64.4363 10.9272ZM70.8561 10.5516C71.1634 9.69791 71.5732 8.87837 72.222 8.22957C72.6317 7.8198 73.1098 7.44418 73.6562 7.20515C74.1684 6.96611 74.7147 6.79538 75.2952 6.76123C76.0806 6.72708 76.8319 6.86367 77.549 7.13685C78.8807 7.61492 79.9734 8.4686 80.554 9.80035C81.1686 11.1663 81.032 12.6346 80.5198 14.0346C80.0076 15.4005 79.1881 16.6298 77.8563 17.2787C76.5587 17.8933 75.1928 17.8592 73.8611 17.3811C72.5293 16.903 71.4366 16.0493 70.8219 14.7176C70.2414 13.3517 70.378 11.9175 70.8561 10.5516ZM86.8029 19.1568L88.6128 21.5129L88.2371 21.8203C87.4176 22.4691 86.4956 22.9813 85.437 23.0154C84.4126 23.0496 83.4565 22.674 82.6028 22.0934C81.4759 21.3081 80.793 20.2495 80.5881 18.8836C80.3832 17.4494 80.8954 16.0835 81.715 14.9225C82.5687 13.7273 83.6614 12.7029 85.1639 12.3956C86.5298 12.0882 87.8274 12.4639 88.9542 13.2492C89.9445 13.9322 90.6616 14.8542 90.9006 16.0493C91.0714 16.8006 90.9348 17.586 90.6616 18.3031L90.4909 18.7811L87.7249 17.6884L87.9298 17.2104C88.0664 16.8689 88.1005 16.5274 87.9981 16.1859C87.8957 15.8445 87.6566 15.5713 87.3834 15.3664C86.9395 15.0591 86.4615 14.9566 85.9493 15.0932C85.2663 15.264 84.6516 15.981 84.276 16.5274C83.9004 17.0738 83.354 17.9616 83.4223 18.6787C83.4565 19.2251 83.7297 19.6007 84.1736 19.908C84.4809 20.1129 84.8224 20.2153 85.198 20.1812C85.6761 20.1129 86.12 19.8056 86.4615 19.4982L86.8029 19.1568ZM94.0081 19.4299C95.4081 19.3958 96.6033 19.9763 97.5594 21.0007C98.3789 21.8544 98.9253 22.913 98.9253 24.1081C98.9253 24.8935 98.6521 25.6448 98.2765 26.2936L98.0033 26.7375L95.4764 25.1326L95.7496 24.7228C95.9545 24.4155 96.0569 24.074 96.0228 23.7325C95.9886 23.3569 95.8179 23.0496 95.5447 22.8105C95.1691 22.4349 94.7252 22.23 94.1788 22.2642C93.4617 22.2983 92.7446 22.913 92.2665 23.3569C91.7885 23.835 91.0714 24.5862 91.0031 25.3033C90.9348 25.8497 91.1055 26.2594 91.4811 26.6692C91.7543 26.9424 92.0617 27.1131 92.4373 27.1473C92.9153 27.1814 93.4276 26.9424 93.8032 26.7375L94.2812 26.4643L95.613 29.1278L95.2032 29.3669C94.2812 29.8791 93.2568 30.1864 92.2324 30.0157C91.208 29.8449 90.3543 29.2986 89.6372 28.5815C88.6811 27.5912 88.203 26.4302 88.2713 25.0643C88.3396 23.5959 89.0908 22.3666 90.1152 21.3763C91.208 20.2495 92.5056 19.4641 94.0081 19.4299ZM99.3351 31.8596L105.277 32.0987L106.574 34.4548L97.3545 39.577L95.9886 37.1183L100.359 34.6939L94.4861 34.4207L93.1885 32.0645L102.408 26.9424L103.774 29.401L99.3351 31.8596ZM103.877 41.4892L109.648 42.9576L110.433 45.5528L100.325 48.626L99.5058 45.9625L104.286 44.4942L98.618 42.9917L97.8326 40.3965L107.94 37.3232L108.76 40.0209L103.877 41.4892ZM8.40034 42.3429C9.97113 42.9234 11.8492 43.7429 13.2151 44.7332L14.0347 42.4453L9.015 40.6014L8.40034 42.3429ZM14.6152 34.728C15.2298 35.1036 16.0152 35.411 16.7665 35.2402C17.3811 35.1036 17.7909 34.7963 18.0982 34.25C18.4056 33.7036 18.4738 33.1914 18.269 32.6109C18.0299 31.8938 17.347 31.3474 16.6982 31.0059C16.0835 30.6645 15.2981 30.323 14.581 30.4596C13.9664 30.5962 13.5566 30.9376 13.2493 31.484C12.942 32.0304 12.8395 32.5767 13.0444 33.1572C13.3176 33.8402 14.0005 34.3865 14.6152 34.728ZM30.8352 17.4835L29.4352 16.4933L29.8791 18.1323L30.8352 17.4835ZM40.1575 12.4639L38.9965 11.2004L39.0648 12.9078L40.1575 12.4639ZM52.1091 10.5857C52.314 10.5175 52.4847 10.4492 52.6896 10.3467C52.8945 10.2101 53.0652 10.0394 53.1677 9.80035C53.2701 9.49303 53.236 9.04911 53.2018 8.77593C53.0652 7.78565 52.5189 7.41003 51.6993 7.41003L52.1091 10.5857ZM49.2407 10.9955L48.7968 7.8198C48.4553 7.92224 48.148 8.05883 47.9431 8.29787C47.6699 8.67349 47.6699 9.1857 47.7382 9.62962C47.8748 10.654 48.387 10.9955 49.2407 10.9955ZM65.1193 6.65879L64.8461 8.36616L65.3925 8.4686C65.6998 8.50275 66.4169 8.63934 66.7242 8.57105C66.895 8.5369 67.0316 8.4686 67.134 8.33201C67.2364 8.19542 67.3047 8.05883 67.3389 7.8881C67.373 7.68321 67.3389 7.51247 67.2364 7.34174C67.134 7.171 66.9633 7.06856 66.7925 7.00026C66.451 6.86367 65.9047 6.79538 65.5291 6.72708L65.1193 6.65879ZM73.6903 11.5077C73.4513 12.1907 73.2805 13.0102 73.5537 13.7273C73.7928 14.3078 74.1684 14.6834 74.7489 14.8883C75.3294 15.0932 75.8757 15.0591 76.4221 14.7859C77.0709 14.4103 77.4807 13.659 77.7539 12.9761C77.9929 12.3273 78.1978 11.4736 77.9246 10.7906C77.6856 10.2101 77.2758 9.86865 76.6953 9.66376C76.1148 9.45888 75.5684 9.45888 75.0221 9.73206C74.3391 10.0394 73.9293 10.8248 73.6903 11.5077Z" fill="#2C2C2B"/>
<path fill-rule="evenodd" clip-rule="evenodd" d="M5.6001 43.8112L7.85383 37.5964L15.3321 40.3282L15.6053 39.5428L19.0884 40.8062L18.542 42.3087L16.5956 41.5916L14.5467 47.2601L16.4931 47.9772L15.9468 49.4797L12.4637 48.2162L12.7369 47.465C12.0881 46.8162 11.3027 46.2357 10.3124 45.7576C9.35632 45.2795 8.09286 44.7332 6.52208 44.1868L5.6001 43.8112ZM7.75139 42.6502C10.4832 43.6405 12.3954 44.6307 13.454 45.5527L14.6833 42.138L8.70752 39.9525L7.75139 42.6502ZM13.454 36.9134C12.6003 36.4353 11.9857 35.889 11.5418 35.3085C11.2344 34.8646 10.9954 34.3865 10.8588 33.8743C10.7222 33.3621 10.6539 32.8499 10.7222 32.3718C10.7905 31.723 11.0295 31.0742 11.4393 30.3912C12.1564 29.1619 13.0784 28.4107 14.2736 28.1034C15.4687 27.796 16.7322 28.0351 18.0639 28.8205C19.3957 29.6059 20.2494 30.562 20.5567 31.723C20.8982 32.884 20.6933 34.0792 20.0103 35.2743C19.2932 36.5036 18.3713 37.2549 17.1761 37.5622C16.0151 37.9037 14.7516 37.6647 13.454 36.9134ZM14.376 35.1719C15.298 35.7182 16.1517 35.889 16.8688 35.7524C17.5859 35.5817 18.1664 35.1719 18.542 34.5231C18.9176 33.8743 19.0201 33.1572 18.781 32.4742C18.542 31.7571 17.9615 31.1425 17.0054 30.5961C16.0492 30.0498 15.2297 29.8449 14.5126 29.9815C13.7955 30.1181 13.2491 30.562 12.8394 31.2449C12.4296 31.9279 12.3613 32.6108 12.6003 33.3279C12.8394 34.0109 13.4199 34.6255 14.376 35.1719ZM24.8251 23.152L26.5666 22.23C27.113 23.152 27.352 24.0398 27.2496 24.8594C27.1472 25.6789 26.7374 26.4643 26.0203 27.2155C25.1325 28.1375 24.108 28.5814 22.9129 28.5473C21.7177 28.5473 20.5908 28.0009 19.4981 26.9424C18.3371 25.8496 17.7566 24.6886 17.6883 23.4935C17.62 22.2983 18.0639 21.2056 18.9859 20.2494C19.8054 19.3958 20.6933 18.9518 21.7177 18.9177C22.2982 18.8835 22.947 19.0543 23.6641 19.4299L22.6738 21.1373C22.2299 20.8641 21.786 20.7617 21.3421 20.83C20.8982 20.8982 20.4884 21.1031 20.1128 21.4788C19.6347 21.991 19.3957 22.5715 19.464 23.2544C19.5323 23.9374 19.9762 24.6545 20.7957 25.4399C21.6494 26.2935 22.4348 26.7375 23.1178 26.7716C23.8007 26.8058 24.3812 26.6009 24.8593 26.0887C25.2007 25.713 25.4056 25.3033 25.4398 24.7911C25.3715 24.313 25.2007 23.7666 24.8251 23.152ZM36.7767 18.5421L35.0694 19.7372L33.123 18.4396L29.9814 20.6251L30.596 22.8447L28.9228 24.0057L26.4984 14.0346L28.1716 12.8736L36.7767 18.5421ZM31.6888 17.4835L28.5813 15.3322L29.5716 18.986L31.6888 17.4835ZM45.7234 14.82L43.777 15.6054L42.2062 13.898L38.6549 15.3322L38.7231 17.6542L36.8109 18.4055L36.6743 8.16124L38.5524 7.41L45.7234 14.82ZM41.011 12.6687L38.45 9.86861L38.5866 13.6248L41.011 12.6687ZM51.9041 12.7712L52.0748 13.8639L50.1967 14.137L50.026 13.0443C48.4893 13.2151 47.3966 12.976 46.6795 12.3614C45.9624 11.7467 45.5185 10.9272 45.3819 9.90276C45.2112 8.81004 45.416 7.88806 45.9966 7.13682C46.5429 6.38557 47.5673 5.87336 49.0015 5.60018L48.8649 4.6782L50.7431 4.40502L50.8797 5.327C52.3821 5.15626 53.509 5.3953 54.2261 5.9758C54.9432 6.55631 55.3871 7.41 55.5237 8.43442C55.6603 9.49299 55.4896 10.3808 54.9432 11.1662C54.3968 11.9858 53.4066 12.5321 51.9041 12.7712ZM51.665 11.2004C52.1773 11.1321 52.587 10.9955 52.9285 10.7564C53.27 10.5516 53.4749 10.2784 53.6115 9.97106C53.7139 9.66373 53.748 9.25396 53.6797 8.7076C53.4749 7.3417 52.6212 6.76119 51.1187 6.96608L51.665 11.2004ZM49.7869 11.4394L49.2064 7.20511C48.3869 7.30755 47.8405 7.58073 47.5332 7.9905C47.2259 8.40027 47.1234 8.98078 47.2259 9.69788C47.4308 11.0979 48.2844 11.6784 49.7869 11.4394ZM61.5337 13.6248L63.0362 4.20013L66.1094 4.6782C67.2704 4.84894 68.0217 5.01967 68.3632 5.19041C68.8754 5.42944 69.2851 5.80507 69.5925 6.31728C69.8656 6.86364 69.9681 7.47829 69.8656 8.22954C69.7632 8.81004 69.5925 9.28811 69.3193 9.62958C69.0461 10.0052 68.7388 10.2442 68.3632 10.4491C67.9875 10.6199 67.6461 10.7223 67.3046 10.7223C66.8265 10.7564 66.1777 10.6882 65.2899 10.5516L64.0606 10.3467L63.4801 13.898L61.5337 13.6248ZM64.6752 6.07824L64.2655 8.74175L65.324 8.91249C66.0753 9.01493 66.5875 9.04908 66.8607 9.01493C67.1339 8.94663 67.3387 8.84419 67.5436 8.63931C67.7144 8.43442 67.8168 8.22954 67.8851 7.95636C67.9534 7.61488 67.8851 7.30755 67.7144 7.06852C67.5436 6.82949 67.3046 6.6246 67.0314 6.52216C66.8265 6.45387 66.3485 6.35142 65.6655 6.24898L64.6752 6.07824ZM71.334 10.7223C71.6755 9.80032 72.0852 9.08322 72.5974 8.57101C72.9731 8.19539 73.3828 7.88806 73.895 7.64903C74.3731 7.41 74.8512 7.27341 75.3634 7.27341C76.0122 7.23926 76.6951 7.3417 77.4122 7.61488C78.744 8.09295 79.6318 8.87834 80.144 10.0052C80.6562 11.0979 80.6221 12.3955 80.0757 13.8639C79.5635 15.3322 78.744 16.2883 77.6513 16.8347C76.5585 17.3811 75.3634 17.3811 74.0316 16.903C72.6999 16.4249 71.7779 15.6054 71.2998 14.5127C70.7876 13.42 70.8218 12.1565 71.334 10.7223ZM73.2121 11.337C72.8365 12.3614 72.8023 13.2151 73.0755 13.898C73.3487 14.581 73.8609 15.059 74.578 15.3322C75.2951 15.6054 75.978 15.5371 76.6268 15.1956C77.2756 14.8541 77.7879 14.137 78.1635 13.1126C78.5391 12.0882 78.6074 11.2345 78.3342 10.5516C78.061 9.86861 77.5488 9.4247 76.7976 9.15152C76.0463 8.87834 75.3634 8.91249 74.7146 9.25396C74.0999 9.59543 73.6219 10.2784 73.2121 11.337ZM86.7345 19.8738L87.9297 21.4446C87.1101 22.1276 86.2564 22.5032 85.4369 22.5373C84.6174 22.5715 83.7637 22.2983 82.91 21.7178C81.8856 21.0007 81.2709 20.0446 81.1002 18.8494C80.9294 17.6542 81.2709 16.4591 82.1246 15.2298C83.0466 13.9322 84.071 13.1468 85.2662 12.9077C86.4272 12.6687 87.5882 12.9077 88.6809 13.6931C89.637 14.3761 90.2175 15.1956 90.4224 16.1859C90.559 16.7664 90.4907 17.4494 90.2175 18.2006L88.3736 17.4835C88.5785 17.0054 88.6126 16.5615 88.476 16.1176C88.3394 15.6737 88.0663 15.2981 87.6565 15.0249C87.076 14.6151 86.4613 14.5127 85.8125 14.6493C85.1637 14.82 84.5149 15.3664 83.8661 16.2883C83.1832 17.2786 82.8417 18.0982 82.91 18.7811C82.9783 19.4641 83.2856 19.9763 83.8661 20.386C84.2759 20.6934 84.7539 20.7958 85.232 20.7617C85.6759 20.6251 86.1881 20.3519 86.7345 19.8738ZM94.1104 27.0789L94.9982 28.8205C94.0421 29.3327 93.1542 29.5376 92.3347 29.401C91.5151 29.2644 90.7298 28.8546 90.0127 28.1034C89.1248 27.1814 88.715 26.1228 88.7833 24.9618C88.8516 23.7666 89.398 22.6398 90.4907 21.6153C91.6517 20.5226 92.8127 19.9421 94.0079 19.9421C95.2031 19.908 96.2617 20.386 97.2178 21.3422C98.0373 22.1959 98.4471 23.1178 98.4471 24.1081C98.4471 24.6886 98.2763 25.3374 97.8666 26.0204L96.1934 24.9618C96.4665 24.552 96.6031 24.1081 96.5348 23.63C96.5007 23.1861 96.2958 22.7764 95.9202 22.4007C95.4421 21.8885 94.8616 21.6495 94.1786 21.6836C93.4957 21.7178 92.7786 22.1276 91.9591 22.9129C91.1054 23.7666 90.6273 24.5179 90.559 25.1667C90.4907 25.8496 90.6956 26.4301 91.1737 26.9082C91.5151 27.2838 91.9591 27.4887 92.4371 27.5229C92.9493 27.6253 93.4957 27.4546 94.1104 27.0789ZM102.203 27.6253L103.091 29.1961L97.5251 32.2694L104.969 32.5767L105.891 34.2499L97.5251 38.894L96.6373 37.3232L102.101 34.2841L94.7592 33.9426L93.8372 32.2694L102.203 27.6253ZM107.599 37.9378L108.111 39.6794L102.033 41.5233L109.272 43.3673L109.818 45.2112L100.667 48.0113L100.154 46.2698L106.13 44.46L99.0276 42.5819L98.4471 40.7379L107.599 37.9378Z" fill="#FFCC00"/>
</g>
<defs>
<clipPath id="clip0_111_1849">
<rect width="115.282" height="115.282" fill="white"/>
</clipPath>
</defs>
</svg>
