<svg width="71" height="71" viewBox="0 0 71 71" fill="none" xmlns="http://www.w3.org/2000/svg">
<g clip-path="url(#clip0_1_3)">
<path fill-rule="evenodd" clip-rule="evenodd" d="M35.5 0C55.1007 0 71 15.8993 71 35.5C71 55.1007 55.1007 71 35.5 71C15.8993 71 0 55.1007 0 35.5C0 15.8993 15.8993 0 35.5 0Z" fill="#454545"/>
<path fill-rule="evenodd" clip-rule="evenodd" d="M35.5 0.31546C54.9325 0.31546 70.7056 16.0886 70.7056 35.521C70.7056 54.9535 54.9325 70.7266 35.5 70.7266C16.0675 70.7266 0.294434 54.9535 0.294434 35.521C0.315464 16.0675 16.0675 0.31546 35.5 0.31546Z" fill="#FFCC00"/>
<path fill-rule="evenodd" clip-rule="evenodd" d="M35.5631 70.0746C54.596 70.0326 70.0326 54.5539 70.0326 35.5C70.0326 35.2266 70.0326 34.9322 70.0115 34.6588H66.941C66.941 34.9322 66.9621 35.2266 66.9621 35.5C66.9621 52.8714 52.9135 66.9621 35.5631 67.0042V70.0746Z" fill="#E21C2A"/>
<path fill-rule="evenodd" clip-rule="evenodd" d="M35.5631 70.0746C45.09 70.0536 53.7127 66.1629 59.9378 59.9168C60.3163 59.5172 60.7159 59.1176 61.0734 58.718L61.0945 58.697C61.2838 58.4867 61.452 58.2974 61.6413 58.0871C61.8306 57.8768 61.9988 57.6665 62.167 57.4562C62.3353 57.2459 62.5035 57.0355 62.6718 56.8252L62.7139 56.7621C62.8611 56.5729 63.0083 56.3626 63.1765 56.1733L63.2186 56.1102C63.3658 55.8999 63.513 55.7106 63.6602 55.5003L63.6813 55.4793C63.9967 55.0376 64.2912 54.596 64.5856 54.1333L64.6066 54.1123C64.7538 53.8809 64.9011 53.6706 65.0272 53.4393C65.1745 53.2079 65.3006 52.9556 65.4479 52.7242L65.4689 52.6611C65.5951 52.4298 65.7213 52.2195 65.8474 51.9881L65.8685 51.9251C65.9947 51.6937 66.0998 51.4834 66.226 51.2521C66.247 51.21 66.2681 51.168 66.2891 51.1259C66.3942 50.9156 66.4994 50.7053 66.6045 50.495L66.6256 50.4739C66.7307 50.2426 66.8569 49.9902 66.9621 49.7379C66.9831 49.6958 67.0041 49.6537 67.0252 49.5906C67.1093 49.3803 67.2144 49.17 67.2986 48.9597C67.3196 48.8966 67.3406 48.8335 67.3827 48.7704C67.4668 48.5812 67.5509 48.3709 67.6351 48.1816C67.6561 48.0975 67.6981 48.0344 67.7192 47.9502C67.7823 47.761 67.8664 47.5717 67.9295 47.4034C67.9715 47.3193 67.9926 47.2352 68.0136 47.1511C68.0767 46.9828 68.1398 46.7935 68.2029 46.6253C68.2449 46.4991 68.287 46.394 68.308 46.2678C68.3501 46.1206 68.4132 45.9733 68.4553 45.8051C68.4973 45.6999 68.5183 45.5738 68.5604 45.4686C68.6025 45.3004 68.6656 45.1531 68.7076 44.9849C68.7287 44.9008 68.7497 44.8377 68.7707 44.7536C68.8338 44.5643 68.8759 44.354 68.939 44.1647C68.96 44.1016 68.981 44.0175 69.0021 43.9544C69.0441 43.7441 69.1072 43.5548 69.1493 43.3445C69.1703 43.2393 69.1913 43.1342 69.2124 43.0501C69.2544 42.8818 69.2965 42.6925 69.3386 42.5243C69.3596 42.3771 69.4016 42.2299 69.4227 42.0826C69.4437 41.9565 69.4647 41.8092 69.5068 41.6831C69.5278 41.5569 69.5489 41.4517 69.5699 41.3255C69.5909 41.1573 69.633 40.989 69.654 40.8208C69.6961 40.5474 69.7381 40.253 69.7802 39.9796C69.8012 39.7693 69.8223 39.5589 69.8433 39.3486C69.8433 39.2645 69.8643 39.2014 69.8643 39.1173C69.8854 38.9491 69.8853 38.7808 69.9064 38.6336C69.9274 38.5074 69.9274 38.3812 69.9484 38.255C69.9695 37.9606 69.9905 37.6662 70.0115 37.3717C70.0326 37.0773 70.0326 36.7829 70.0536 36.4884C70.0536 36.194 70.0746 35.8996 70.0746 35.6052V35.5841V35.5631C70.0746 35.2897 70.0746 35.0373 70.0746 34.7639V34.7429H69.5909C69.5909 35.0163 69.6119 35.3107 69.6119 35.5841C69.6119 54.3646 54.4067 69.612 35.6262 69.6751V70.0746H35.5631Z" fill="white"/>
<path fill-rule="evenodd" clip-rule="evenodd" d="M35.5631 67.0252C52.9135 66.9621 66.9621 52.8714 66.9621 35.521C66.9621 35.2476 66.9621 34.9532 66.941 34.6798H63.8705C63.8705 34.9532 63.8916 35.2476 63.8916 35.521C63.8916 51.189 51.21 63.9126 35.5631 63.9757V67.0252Z" fill="white"/>
<path fill-rule="evenodd" clip-rule="evenodd" d="M35.5631 63.9547C51.21 63.8916 63.8916 51.189 63.8916 35.5C63.8916 35.2266 63.8916 34.9322 63.8705 34.6588H60.8C60.8 34.9322 60.8211 35.2266 60.8211 35.5C60.8211 49.4855 49.5065 60.8211 35.5631 60.8842V63.9547Z" fill="#E21C2A"/>
<path fill-rule="evenodd" clip-rule="evenodd" d="M61.3258 34.6588H60.8211C60.8211 34.9322 60.8421 35.2266 60.8421 35.5C60.8421 49.4855 49.5275 60.8211 35.5841 60.8842V61.3889C49.822 61.3258 61.3679 49.7589 61.3679 35.5C61.3468 35.2266 61.3258 34.9322 61.3258 34.6588Z" fill="white"/>
<path fill-rule="evenodd" clip-rule="evenodd" d="M35.3948 70.0746C16.3409 70.0326 0.925354 54.5539 0.925354 35.5C0.925354 35.2266 0.925354 34.9322 0.946385 34.6588H3.99585H7.06635H10.1368C10.1368 34.9322 10.1158 35.2266 10.1158 35.5C10.1158 49.4855 21.4304 60.8211 35.3738 60.8842V63.9547V67.0252V70.0746H35.3948Z" fill="#E21C2A"/>
<path fill-rule="evenodd" clip-rule="evenodd" d="M35.2897 70.0746C25.8048 70.0116 17.2242 66.1419 11.0202 59.9168C10.6416 59.5172 10.242 59.1176 9.88449 58.718L9.86346 58.697C9.67418 58.4867 9.50593 58.2974 9.31665 58.0871C9.12738 57.8768 8.95913 57.6665 8.79088 57.4562C8.62264 57.2459 8.45439 57.0355 8.28615 56.8252L8.24408 56.7621C8.09687 56.5729 7.94965 56.3626 7.78141 56.1733L7.73934 56.1102C7.59213 55.8999 7.44491 55.7106 7.2977 55.5003L7.27667 55.4793C6.9612 55.0376 6.66677 54.596 6.37234 54.1333L6.35131 54.1123C6.20409 53.8809 6.05688 53.6706 5.93069 53.4393C5.78348 53.2079 5.65729 52.9556 5.51008 52.7242L5.48905 52.6611C5.36286 52.4298 5.23668 52.2195 5.11049 51.9881L5.08946 51.9251C4.96328 51.6937 4.85812 51.4834 4.73194 51.2521C4.71091 51.21 4.68988 51.168 4.66885 51.1259C4.56369 50.9156 4.45854 50.7053 4.35338 50.495L4.33235 50.4739C4.2272 50.2426 4.10101 49.9902 3.99586 49.7379C3.97483 49.6958 3.9538 49.6537 3.93277 49.5906C3.84864 49.3803 3.74349 49.17 3.65937 48.9597C3.63834 48.8966 3.61731 48.8335 3.57524 48.7704C3.49112 48.5812 3.407 48.3709 3.32287 48.1816C3.30184 48.0975 3.25978 48.0344 3.23875 47.9502C3.17566 47.761 3.09154 47.5717 3.02844 47.4034C2.98638 47.3193 2.96535 47.2352 2.94432 47.1511C2.88123 46.9828 2.81814 46.7935 2.75504 46.6253C2.71298 46.4991 2.67092 46.394 2.64989 46.2678C2.60783 46.1206 2.54473 45.9733 2.50267 45.8051C2.46061 45.6999 2.43958 45.5738 2.39752 45.4686C2.35546 45.3004 2.29236 45.1531 2.2503 44.9849C2.22927 44.9008 2.20824 44.8377 2.18721 44.7536C2.12412 44.5643 2.08206 44.354 2.01896 44.1647C1.99793 44.1016 1.9769 44.0175 1.95587 43.9544C1.91381 43.7441 1.85072 43.5548 1.80866 43.3445C1.78763 43.2393 1.76659 43.1342 1.74556 43.0501C1.7035 42.8818 1.66144 42.6925 1.61938 42.5243C1.59835 42.3771 1.55629 42.2299 1.53526 42.0826C1.51423 41.9565 1.49319 41.8092 1.45113 41.6831C1.4301 41.5569 1.40907 41.4517 1.38804 41.3255C1.36701 41.1573 1.32495 40.989 1.30392 40.8208C1.26186 40.5474 1.21979 40.253 1.17773 39.9796C1.1567 39.7693 1.13567 39.5589 1.11464 39.3486C1.11464 39.2645 1.09361 39.2014 1.09361 39.1173C1.07258 38.9491 1.07258 38.7808 1.05155 38.6336C1.03052 38.5074 1.03052 38.3812 1.00949 38.255C0.988455 37.9606 0.967424 37.6662 0.946393 37.3717C0.925362 37.0773 0.925362 36.7829 0.904332 36.4884C0.904332 36.194 0.883301 35.8996 0.883301 35.6052V35.5841V35.5631C0.883301 35.2897 0.883301 35.0373 0.883301 34.7639V34.7429H1.36701C1.36701 35.0163 1.34598 35.3107 1.34598 35.5841C1.34598 54.3436 16.4882 69.5489 35.2266 69.6751V69.1913C16.8247 68.981 1.91381 53.9861 1.91381 35.5C1.91381 35.2266 1.91381 34.9322 1.93484 34.6588H2.41855C2.41855 34.9322 2.39752 35.2266 2.39752 35.5C2.39752 53.7127 17.0981 68.4973 35.2897 68.6025V62.2932C20.5892 62.1671 8.70676 50.2216 8.70676 35.5C8.70676 35.2266 8.70676 34.9322 8.72779 34.6588H9.2115C9.2115 34.9322 9.19047 35.2266 9.19047 35.5C9.19047 49.9482 20.8626 61.6834 35.2897 61.8095V61.3889C21.0939 61.2627 9.61109 49.7168 9.61109 35.5C9.61109 35.2266 9.61109 34.9322 9.63212 34.6588H10.1369C10.1369 34.9322 10.1158 35.2266 10.1158 35.5C10.1158 49.4434 21.3673 60.758 35.2687 60.8842V60.8631H35.7103V70.1377H35.2687V70.0746H35.2897Z" fill="#FFCC00"/>
<path fill-rule="evenodd" clip-rule="evenodd" d="M35.4159 0.904327C54.2384 0.904327 69.5278 15.9414 69.9905 34.6377H0.841217C1.30389 15.9414 16.6143 0.904327 35.4159 0.904327Z" fill="#FFCC00"/>
<path fill-rule="evenodd" clip-rule="evenodd" d="M1.43008 34.1751H69.5489C68.8548 15.9203 53.8388 1.40907 35.5 1.40907C17.1822 1.40907 2.14513 15.9203 1.43008 34.1751Z" fill="white"/>
<path fill-rule="evenodd" clip-rule="evenodd" d="M35.5 3.99586C52.6191 3.99586 66.5625 17.6449 67.0041 34.6588H3.99585C4.45853 17.6449 18.3809 3.99586 35.5 3.99586Z" fill="#FFCC00"/>
<path fill-rule="evenodd" clip-rule="evenodd" d="M4.50058 34.1751H66.4784C65.7844 17.6238 52.1143 4.47956 35.479 4.47956C18.8646 4.47956 5.21563 17.6028 4.50058 34.1751Z" fill="#002ED3"/>
<path fill-rule="evenodd" clip-rule="evenodd" d="M35.4159 7.04533C50.8314 7.04533 63.4079 19.3273 63.8495 34.6377H6.98221C7.42386 19.3273 20.0003 7.04533 35.4159 7.04533Z" fill="#FFCC00"/>
<path fill-rule="evenodd" clip-rule="evenodd" d="M7.57108 34.1751H63.4079C62.7138 19.3063 50.4319 7.55006 35.479 7.55006C20.5681 7.55006 8.28612 19.3063 7.57108 34.1751Z" fill="#E21C2A"/>
<path fill-rule="evenodd" clip-rule="evenodd" d="M35.4369 10.1158C49.4434 10.1158 60.8211 21.4935 60.8211 35.5C60.8211 49.5065 49.4434 60.8842 35.4369 60.8842C21.4304 60.8842 10.0527 49.5065 10.0527 35.5C10.0527 21.4935 21.4304 10.1158 35.4369 10.1158Z" fill="#FFCC00"/>
<path fill-rule="evenodd" clip-rule="evenodd" d="M35.4369 10.5364C49.2121 10.5364 60.4005 21.7248 60.4005 35.5C60.4005 49.2752 49.2121 60.4636 35.4369 60.4636C21.6617 60.4636 10.4733 49.2962 10.4733 35.5C10.4733 21.7248 21.6617 10.5364 35.4369 10.5364Z" fill="white"/>
<path fill-rule="evenodd" clip-rule="evenodd" d="M43.5128 51.5255C42.4612 52.4929 41.3256 53.5234 40.0847 54.1964C39.6221 54.4488 39.1594 54.638 38.6757 54.8273C37.54 55.269 36.7408 55.6265 35.7944 56.4256C35.6472 56.5518 35.5 56.5308 35.3318 56.4046C34.3854 55.6054 33.5862 55.2479 32.4506 54.8063C31.9668 54.617 31.5042 54.4277 31.0415 54.1754C29.8007 53.5024 28.665 52.4719 27.6135 51.5044L26.3306 51.6517L26.2465 51.3993C25.6155 49.3803 25.4894 47.2142 26.7512 45.4055L27.0877 44.9218L27.298 45.4896C27.8238 46.9828 28.686 48.3078 29.8638 49.3803L30.2423 49.7168L29.7586 49.8851C29.359 50.0323 29.0225 50.2636 28.7702 50.5791L30.4526 51.3362C31.1677 51.4624 31.8407 51.862 32.5767 51.4413C34.0068 50.6422 34.133 47.1931 34.154 45.8261L34.2592 40.0847L34.3223 38.2761L34.6798 27.5504H32.4506C32.1982 27.5504 31.9668 27.34 31.9668 27.0666V26.0782C31.9668 25.8258 32.1771 25.5945 32.4506 25.5945H33.6703C32.9343 25.0477 32.4716 24.1854 32.4716 23.197C32.4716 21.5355 33.8176 20.2106 35.458 20.2106C37.1194 20.2106 38.4443 21.5566 38.4443 23.197C38.4443 24.1854 37.9606 25.0477 37.2456 25.5945H38.6126C38.8649 25.5945 39.0963 25.8048 39.0963 26.0782V27.0877C39.0963 27.34 38.886 27.5714 38.6126 27.5714H36.4043L36.825 40.1268L36.9301 45.8682C36.9511 47.2142 37.0773 50.6842 38.5074 51.4834C39.2435 51.904 39.9165 51.4834 40.6315 51.3783L42.314 50.6211C42.0616 50.3057 41.7251 50.0743 41.3255 49.9271L40.8418 49.7589L41.2204 49.4224C42.3981 48.3498 43.2394 47.0249 43.7862 45.5317L43.9965 44.9639L44.333 45.4476C45.5948 47.2562 45.4686 49.4224 44.8377 51.4413L44.7536 51.6937L43.5128 51.5255ZM35.5 21.9141C36.2151 21.9141 36.8039 22.503 36.8039 23.218C36.8039 23.9331 36.2151 24.5219 35.5 24.5219C34.785 24.5219 34.1961 23.9331 34.1961 23.218C34.1961 22.503 34.785 21.9141 35.5 21.9141Z" fill="#2C2C2B"/>
<path fill-rule="evenodd" clip-rule="evenodd" d="M35.5841 27.0246H36.1309L36.4885 38.2971L36.5516 40.1057L36.6567 45.8472C36.7829 53.6496 39.7903 51.7989 40.7577 51.6306L42.8187 50.7053C42.5033 50.2005 42.0616 49.822 41.4728 49.6117C42.6926 48.476 43.5758 47.13 44.1226 45.5948C45.1321 47.0459 45.3214 48.9597 44.5853 51.3152L43.4076 51.168C42.2299 52.2616 41.1152 53.25 39.9375 53.902C38.5074 54.6801 37.3297 54.7011 35.6052 56.1523C35.5631 56.1733 35.5841 56.1733 35.5421 56.1312C33.8176 54.6801 32.6398 54.6591 31.2097 53.8809C30.032 53.229 28.9174 52.2405 27.7396 51.1469L26.5619 51.2941C25.8258 48.9387 26.0151 47.0249 27.0246 45.5738C27.5714 47.088 28.4337 48.455 29.6745 49.5906C29.0856 49.8009 28.6229 50.2005 28.3285 50.6842L30.3895 51.6096C31.3569 51.7568 34.3644 53.6075 34.4905 45.8261L34.5957 40.0847L34.6588 38.2761L35.0163 27.0036H35.5841V27.0246Z" fill="#FFCC00"/>
<path fill-rule="evenodd" clip-rule="evenodd" d="M35.7314 28.6229V53.7758C36.6777 53.7547 37.4979 53.6496 38.234 53.4813C39.0332 53.2921 39.7272 53.0397 40.3371 52.7032C41.0521 52.3246 41.7462 51.8199 42.314 51.231C42.8187 50.7053 43.2604 50.1164 43.5338 49.4434C43.7441 48.9387 43.8913 48.3708 43.9544 47.7189C44.0175 47.1721 44.0385 46.6043 43.9965 45.9944C43.9965 45.9523 43.9754 45.9313 43.9965 45.8892L44.1226 45.5738L44.2909 45.8892C44.3119 45.9102 44.2909 45.9523 44.2909 45.9733C44.333 46.6043 44.3119 47.1931 44.2488 47.761C44.1647 48.4339 44.0175 49.0438 43.8072 49.5696C43.5128 50.2636 43.0501 50.8945 42.5243 51.4624C41.9144 52.0723 41.1994 52.598 40.4633 52.9976C39.8324 53.3341 39.1173 53.6075 38.2971 53.7968C37.54 53.965 36.6988 54.0702 35.7314 54.0912V55.8158H35.4159V54.0912C34.4485 54.0702 33.6072 53.965 32.8501 53.7968C32.0299 53.6075 31.3149 53.3341 30.684 52.9976C29.9479 52.598 29.2328 52.0933 28.6229 51.4624C28.0761 50.9156 27.6345 50.2847 27.3401 49.5696C27.1087 49.0438 26.9615 48.4339 26.8984 47.761C26.8353 47.1931 26.8143 46.6253 26.8564 45.9733C26.8564 45.9523 26.8564 45.9102 26.8564 45.8892L27.0246 45.5738L27.1508 45.8892C27.1718 45.9313 27.1508 45.9523 27.1508 45.9944C27.1087 46.6043 27.1298 47.1931 27.1928 47.7189C27.2559 48.3498 27.4032 48.9387 27.6135 49.4434C27.8869 50.1164 28.3285 50.7053 28.8333 51.231C29.4221 51.8199 30.1161 52.3246 30.8101 52.7032C31.42 53.0397 32.1141 53.2921 32.9132 53.4813C33.6493 53.6496 34.4695 53.7547 35.4159 53.7758V28.6229H35.7314Z" fill="#2C2C2B"/>
<path fill-rule="evenodd" clip-rule="evenodd" d="M35.5631 25.9099H38.6336C38.7177 25.9099 38.8018 25.9941 38.8018 26.0782V27.0877C38.8018 27.1718 38.7177 27.2559 38.6336 27.2559H35.5631H32.4926C32.4085 27.2559 32.3243 27.1718 32.3243 27.0877V26.0782C32.3243 25.9941 32.4085 25.9099 32.4926 25.9099H35.5631ZM35.5 20.5261C36.9932 20.5261 38.1919 21.7248 38.1919 23.218C38.1919 24.7112 36.9932 25.9099 35.5 25.9099C34.0068 25.9099 32.808 24.7112 32.808 23.218C32.808 21.7248 34.0278 20.5261 35.5 20.5261ZM35.5 21.5776C36.4043 21.5776 37.1404 22.3137 37.1404 23.218C37.1404 24.1223 36.4043 24.8584 35.5 24.8584C34.5957 24.8584 33.8596 24.1223 33.8596 23.218C33.8596 22.3137 34.5957 21.5776 35.5 21.5776Z" fill="#FFCC00"/>
<path fill-rule="evenodd" clip-rule="evenodd" d="M38.3392 35.2476L38.2971 35.2687L38.1709 35.2056C38.0027 35.1214 37.8134 35.0794 37.6451 34.9953L37.1404 34.7429L37.6241 34.4485C38.4023 33.9858 39.1594 33.2497 39.7903 32.5977C40.4002 32.0089 41.0101 31.378 41.662 30.8312C42.4191 30.2002 43.1132 29.9058 44.1016 29.8217C44.2068 29.8217 44.2909 29.8006 44.396 29.8006C45.3424 29.7586 46.2888 30.053 47.1721 30.3474C49.3383 31.0625 51.4203 32.1351 53.6286 32.7029C54.5539 32.8501 55.7737 32.9553 56.678 32.6188C56.9514 32.5347 57.2879 32.4926 57.4772 32.745C57.6875 33.0394 57.5193 33.4179 57.33 33.6493C57.2038 33.7965 57.0566 33.9437 56.9094 34.0699L56.8252 34.2802C56.5939 34.9111 56.1523 35.3317 55.5634 35.4579C55.269 36.2571 54.8063 36.5305 54.0281 36.5095C53.7337 37.3086 53.1869 37.3717 52.4929 37.3297L52.4719 37.3717C52.1774 37.9185 51.5044 38.0027 50.7894 37.8975C50.6422 38.1499 50.4319 38.3392 50.1585 38.4233C49.6327 38.6126 49.0228 38.4443 48.455 38.234C48.4129 38.2971 48.3919 38.3602 48.3078 38.4022C47.6558 38.8229 46.7725 38.6336 45.9944 38.2971C45.9523 38.3602 45.9313 38.4022 45.8472 38.4443C44.0385 39.4538 42.3981 37.3717 40.926 36.7198C40.7998 36.6567 40.6526 36.6146 40.6105 36.4884C40.3792 36.4464 40.1688 36.3202 39.8534 36.1309L38.3392 35.2476Z" fill="#2C2C2B"/>
<path fill-rule="evenodd" clip-rule="evenodd" d="M38.2761 34.9322C38.1078 34.848 37.9186 34.806 37.7503 34.7219C39.0752 33.9227 40.5895 32.114 41.8513 31.0835C42.5453 30.4947 43.1973 30.2213 44.1016 30.1371C44.1857 30.1371 44.2909 30.1161 44.375 30.1161C45.2793 30.074 46.2047 30.3685 47.0459 30.6419C49.2121 31.3359 51.3362 32.4505 53.5444 32.9973C55.0166 33.2287 56.0471 33.1656 56.7622 32.8922C57.6244 32.5977 57.2459 33.6493 56.2574 34.0699C55.6055 34.3433 54.9114 34.2171 54.2385 34.0909C52.8294 33.8386 51.4203 33.3549 49.9692 32.745C48.7284 32.2192 47.5717 31.5252 46.2678 31.1256C45.027 30.747 43.9754 30.6629 43.0921 31.0625C41.7041 31.6934 40.4633 33.8175 38.2761 34.9322Z" fill="#FFCC00"/>
<path fill-rule="evenodd" clip-rule="evenodd" d="M42.6084 31.6093C44.4802 30.0951 47.3403 31.7355 49.2541 32.6188C49.4645 32.7239 49.5065 32.7029 49.5065 32.9342C49.4855 33.0604 49.3383 33.1445 49.149 33.1866C48.7494 33.2707 48.455 33.1235 48.0764 32.9763C46.3309 32.3243 44.6063 31.5041 42.6925 31.6934C42.5033 31.6934 42.4402 31.7355 42.6084 31.6093Z" fill="#FFCC00"/>
<path fill-rule="evenodd" clip-rule="evenodd" d="M48.8756 33.3969C49.4014 33.3338 49.7168 33.1656 49.7379 32.8501C51.2521 33.5441 53.2921 34.2381 55.1849 34.4274C55.7317 34.4695 56.0682 34.3643 56.5098 34.2171C56.2574 34.9532 55.6686 35.2897 54.9325 35.2476C52.9556 35.1004 51.168 34.6167 48.8756 33.3969Z" fill="#FFCC00"/>
<path fill-rule="evenodd" clip-rule="evenodd" d="M41.6831 32.3874C41.9144 32.1982 42.0616 31.9668 42.356 31.9248C44.2068 31.5883 46.4991 32.5767 48.1185 33.2076C48.5601 33.3759 48.2867 33.7124 47.9502 33.7755C47.5507 33.8596 47.2562 33.8175 46.8777 33.6703C45.1321 33.0184 43.7441 32.0299 41.7462 32.4716C41.5779 32.5136 41.4938 32.5347 41.6831 32.3874Z" fill="#FFCC00"/>
<path fill-rule="evenodd" clip-rule="evenodd" d="M47.5927 33.9858C48.1395 33.9647 48.5181 33.7965 48.5391 33.481C49.9482 34.112 52.6191 35.5421 55.29 35.3738C55.0376 36.1099 54.638 36.2781 53.902 36.2361C53.1028 36.173 52.3246 35.9627 51.5044 35.6893C50.2847 35.3107 48.9597 34.7219 47.5927 33.9858Z" fill="#FFCC00"/>
<path fill-rule="evenodd" clip-rule="evenodd" d="M40.926 33.1025C41.1573 32.9132 41.3256 32.7239 41.599 32.6608C43.4707 32.1982 45.1111 33.1445 46.7305 33.8175C47.1721 34.0068 46.9408 34.2802 46.6043 34.3433C46.2047 34.4274 45.9103 34.3854 45.5317 34.2381C43.7862 33.5862 43.008 32.745 41.0101 33.1866C40.8418 33.2076 40.7577 33.2497 40.926 33.1025Z" fill="#FFCC00"/>
<path fill-rule="evenodd" clip-rule="evenodd" d="M46.2257 34.5536C46.7725 34.5326 47.1511 34.3643 47.1721 34.0489C48.1395 34.4485 51.1049 36.1099 53.7337 36.4043C53.4813 37.1404 52.9556 37.0773 52.2195 37.0353C50.8104 36.9511 47.4665 35.2266 46.2257 34.5536Z" fill="#FFCC00"/>
<path fill-rule="evenodd" clip-rule="evenodd" d="M40.295 33.7334C40.5264 33.5441 40.5053 33.481 40.7787 33.3969C42.7767 32.8291 43.8703 33.7544 45.4896 34.4274C45.9313 34.6167 45.8051 34.806 45.4686 34.8691C45.069 34.9532 44.8167 34.7849 44.4381 34.6588C42.7136 34.112 42.4612 33.6493 40.3792 33.7965C40.1899 33.8175 40.1268 33.8596 40.295 33.7334Z" fill="#FFCC00"/>
<path fill-rule="evenodd" clip-rule="evenodd" d="M45.0901 35.1004C45.6158 35.0794 45.9313 34.9322 45.9523 34.6167C46.6884 34.9322 48.6232 36.0678 50.6212 36.8039C51.1259 36.9932 51.6727 37.2035 52.1774 37.2455C51.3362 38.8229 46.1626 35.4579 45.0901 35.1004Z" fill="#FFCC00"/>
<path fill-rule="evenodd" clip-rule="evenodd" d="M39.7482 34.154C39.9796 33.9648 39.9375 33.9648 40.2109 33.9437C42.6505 33.8386 42.8818 34.3643 44.2698 34.827C44.7325 34.9742 44.5012 35.2266 44.1647 35.2476C42.9028 35.3528 41.4727 34.0278 39.9165 34.2382C39.7482 34.2592 39.5589 34.3012 39.7482 34.154Z" fill="#FFCC00"/>
<path fill-rule="evenodd" clip-rule="evenodd" d="M43.9123 35.5C44.4381 35.479 44.6905 35.3948 44.6905 35.0794C46.4781 35.7944 48.7073 37.3928 50.537 37.7082C50.4319 37.9185 50.2636 38.0657 50.0533 38.1499C49.4014 38.4022 48.476 37.9185 47.9082 37.6451C46.3098 36.9091 44.5012 35.6893 43.9123 35.5Z" fill="#FFCC00"/>
<path fill-rule="evenodd" clip-rule="evenodd" d="M42.6925 35.8155C43.0921 35.7734 43.3235 35.6682 43.4496 35.4369C45.09 36.2361 46.5201 37.3297 48.2026 38.0447C48.1816 38.0868 48.1605 38.1288 48.1395 38.1499C46.7094 39.0542 43.681 36.5095 42.6294 35.8996C42.4191 35.7944 42.5033 35.8365 42.6925 35.8155Z" fill="#FFCC00"/>
<path fill-rule="evenodd" clip-rule="evenodd" d="M41.0522 36.3412C41.4517 36.2992 41.8303 36.1099 41.9985 35.9206C42.0196 35.8786 42.0406 35.8575 42.0616 35.8155C42.1458 35.8575 42.2299 35.8996 42.293 35.9627C43.5969 36.7408 44.1437 37.4348 45.7631 38.0868C45.742 38.1288 45.721 38.1709 45.7 38.1919C44.0806 39.0963 42.4192 37.0563 41.0522 36.4464C40.8418 36.3623 40.8208 36.3623 41.0522 36.3412Z" fill="#FFCC00"/>
<path fill-rule="evenodd" clip-rule="evenodd" d="M39.2855 34.5326C39.5169 34.3433 39.4748 34.4064 39.7482 34.3854C40.1899 34.3643 40.6315 34.3433 41.0311 34.4695C41.662 34.6588 42.2509 35.0373 42.9449 35.2056C43.1131 35.2476 43.1973 35.2897 43.1973 35.3317C43.2393 35.5 42.6925 35.7524 42.2719 35.6682C41.3676 35.479 40.8839 34.8901 39.4538 34.6377C39.2855 34.5957 39.1173 34.6798 39.2855 34.5326Z" fill="#FFCC00"/>
<path fill-rule="evenodd" clip-rule="evenodd" d="M40.0006 35.8786L38.5705 35.0373L39.0542 34.7219C39.2645 34.7219 39.7272 34.827 40.2319 35.0373C40.7156 35.2476 41.3045 35.4369 41.5779 35.6893C41.8303 35.9206 41.5779 36.0258 41.1363 36.152C40.5895 36.2781 40.4843 36.152 40.0006 35.8786Z" fill="#FFCC00"/>
<path fill-rule="evenodd" clip-rule="evenodd" d="M32.5767 35.2476L32.6188 35.2687L32.745 35.2056C32.9132 35.1214 33.1025 35.0794 33.2707 34.9953L33.7755 34.7429L33.2918 34.4485C32.5136 33.9858 31.7565 33.2497 31.1256 32.5977C30.5157 32.0089 29.9058 31.378 29.2539 30.8312C28.4967 30.2002 27.8027 29.9058 26.8143 29.8217C26.7091 29.8217 26.625 29.8006 26.5199 29.8006C25.5735 29.7586 24.6271 30.053 23.7438 30.3474C21.5776 31.0625 19.5166 32.1351 17.2873 32.7029C16.362 32.8501 15.1422 32.9553 14.2379 32.6188C13.9645 32.5347 13.628 32.4926 13.4387 32.745C13.2284 33.0394 13.3966 33.4179 13.5859 33.6493C13.7121 33.7965 13.8593 33.9437 14.0065 34.0699L14.0906 34.2802C14.322 34.9111 14.7636 35.3317 15.3525 35.4579C15.6469 36.2571 16.1096 36.5305 16.8877 36.5095C17.1822 37.3086 17.729 37.3717 18.423 37.3297L18.444 37.3717C18.7385 37.9185 19.4114 38.0027 20.1265 37.8975C20.2737 38.1499 20.484 38.3392 20.7574 38.4233C21.2832 38.6126 21.8931 38.4443 22.4609 38.234C22.503 38.2971 22.524 38.3602 22.6081 38.4022C23.2601 38.8229 24.1434 38.6336 24.9215 38.2971C24.9636 38.3602 24.9846 38.4022 25.0687 38.4443C26.8774 39.4538 28.5178 37.3717 29.9899 36.7198C30.1161 36.6567 30.2633 36.6146 30.3054 36.4884C30.5367 36.4464 30.747 36.3202 31.0625 36.1309L32.5767 35.2476Z" fill="#2C2C2B"/>
<path fill-rule="evenodd" clip-rule="evenodd" d="M32.6398 34.9322C32.8081 34.848 32.9973 34.806 33.1656 34.7219C31.8406 33.9227 30.3264 32.114 29.0646 31.0835C28.3706 30.4947 27.7186 30.2213 26.8143 30.1371C26.7302 30.1371 26.625 30.1161 26.5409 30.1161C25.6366 30.074 24.7112 30.3685 23.87 30.6419C21.7038 31.3359 19.5797 32.4505 17.3715 32.9973C15.8993 33.2287 14.8688 33.1656 14.1537 32.8922C13.2915 32.5977 13.67 33.6493 14.6585 34.0699C15.3104 34.3433 16.0045 34.2171 16.6774 34.0909C18.0865 33.8386 19.4956 33.3549 20.9467 32.745C22.1875 32.2192 23.3442 31.5252 24.6481 31.1256C25.8889 30.747 26.9405 30.6629 27.8238 31.0625C29.2118 31.6934 30.4526 33.8175 32.6398 34.9322Z" fill="#FFCC00"/>
<path fill-rule="evenodd" clip-rule="evenodd" d="M28.3075 31.6093C26.4357 30.0951 23.5755 31.7355 21.6617 32.6188C21.4514 32.7239 21.4094 32.7029 21.4094 32.9342C21.4304 33.0604 21.5776 33.1445 21.7669 33.1866C22.1665 33.2707 22.4609 33.1235 22.8395 32.9763C24.585 32.3243 26.3095 31.5041 28.2233 31.6934C28.3916 31.6934 28.4757 31.7355 28.3075 31.6093Z" fill="#FFCC00"/>
<path fill-rule="evenodd" clip-rule="evenodd" d="M22.0193 33.3969C21.4935 33.3338 21.178 33.1656 21.157 32.8501C19.6428 33.5441 17.6028 34.2381 15.71 34.4274C15.1632 34.4695 14.8267 34.3643 14.3851 34.2171C14.6374 34.9532 15.2263 35.2897 15.9624 35.2476C17.9603 35.1004 19.7479 34.6167 22.0193 33.3969Z" fill="#FFCC00"/>
<path fill-rule="evenodd" clip-rule="evenodd" d="M29.2328 32.3874C29.0015 32.1982 28.8543 31.9668 28.5598 31.9248C26.7091 31.5883 24.4168 32.5767 22.7974 33.2076C22.3557 33.3759 22.6291 33.7124 22.9656 33.7755C23.3652 33.8596 23.6597 33.8175 24.0382 33.6703C25.7838 33.0184 27.1718 32.0299 29.1697 32.4716C29.3169 32.5136 29.4011 32.5347 29.2328 32.3874Z" fill="#FFCC00"/>
<path fill-rule="evenodd" clip-rule="evenodd" d="M23.3232 33.9858C22.7764 33.9647 22.3978 33.7965 22.3768 33.481C20.9677 34.112 18.2968 35.5421 15.6259 35.3738C15.8783 36.1099 16.2778 36.2781 17.0139 36.2361C17.8131 36.173 18.5912 35.9627 19.4114 35.6893C20.6312 35.3107 21.9562 34.7219 23.3232 33.9858Z" fill="#FFCC00"/>
<path fill-rule="evenodd" clip-rule="evenodd" d="M29.99 33.1025C29.7586 32.9132 29.5904 32.7239 29.317 32.6608C27.4452 32.1982 25.8048 33.1445 24.1855 33.8175C23.7438 34.0068 23.9751 34.2802 24.3116 34.3433C24.7112 34.4274 25.0057 34.3854 25.3842 34.2381C27.1298 33.5862 27.9079 32.745 29.9058 33.1866C30.0741 33.2076 30.1582 33.2497 29.99 33.1025Z" fill="#FFCC00"/>
<path fill-rule="evenodd" clip-rule="evenodd" d="M24.6691 34.5536C24.1223 34.5326 23.7438 34.3643 23.7227 34.0489C22.7553 34.4485 19.79 36.1099 17.1611 36.4043C17.4135 37.1404 17.9393 37.0773 18.6754 37.0353C20.1054 36.9511 23.4493 35.2266 24.6691 34.5536Z" fill="#FFCC00"/>
<path fill-rule="evenodd" clip-rule="evenodd" d="M30.6209 33.7334C30.3895 33.5441 30.4106 33.481 30.1372 33.3969C28.1392 32.8291 27.0456 33.7544 25.4263 34.4274C24.9846 34.6167 25.1108 34.806 25.4473 34.8691C25.8469 34.9532 26.0992 34.7849 26.4778 34.6588C28.2023 34.112 28.4547 33.6493 30.5367 33.7965C30.705 33.8175 30.7891 33.8596 30.6209 33.7334Z" fill="#FFCC00"/>
<path fill-rule="evenodd" clip-rule="evenodd" d="M25.8048 35.1004C25.279 35.0794 24.9636 34.9322 24.9426 34.6167C24.2065 34.9322 22.2716 36.0678 20.2737 36.8039C19.769 36.9932 19.2222 37.2035 18.7174 37.2455C19.5797 38.8229 24.7533 35.4579 25.8048 35.1004Z" fill="#FFCC00"/>
<path fill-rule="evenodd" clip-rule="evenodd" d="M31.1677 34.154C30.9363 33.9648 30.9784 33.9648 30.705 33.9437C28.2654 33.8386 28.0341 34.3643 26.646 34.827C26.1834 34.9742 26.4147 35.2266 26.7512 35.2476C28.013 35.3528 29.4431 34.0278 30.9994 34.2382C31.1466 34.2592 31.3359 34.3012 31.1677 34.154Z" fill="#FFCC00"/>
<path fill-rule="evenodd" clip-rule="evenodd" d="M27.0036 35.5C26.4778 35.479 26.2254 35.3948 26.2254 35.0794C24.4378 35.7944 22.2086 37.3928 20.3789 37.7082C20.484 37.9185 20.6523 38.0657 20.8626 38.1499C21.5145 38.4022 22.4399 37.9185 23.0077 37.6451C24.585 36.9091 26.4147 35.6893 27.0036 35.5Z" fill="#FFCC00"/>
<path fill-rule="evenodd" clip-rule="evenodd" d="M28.2234 35.8155C27.8238 35.7734 27.5924 35.6682 27.4663 35.4369C25.8258 36.2361 24.3958 37.3297 22.7133 38.0447C22.7343 38.0868 22.7553 38.1288 22.7764 38.1499C24.2065 39.0542 27.2349 36.5095 28.2865 35.8996C28.4968 35.7944 28.4126 35.8365 28.2234 35.8155Z" fill="#FFCC00"/>
<path fill-rule="evenodd" clip-rule="evenodd" d="M29.8638 36.3412C29.4642 36.2992 29.0856 36.1099 28.9174 35.9206C28.8963 35.8786 28.8753 35.8575 28.8543 35.8155C28.7702 35.8575 28.686 35.8996 28.6229 35.9627C27.319 36.7408 26.7722 37.4348 25.1529 38.0868C25.1739 38.1288 25.1949 38.1709 25.216 38.1919C26.8353 39.0963 28.4968 37.0563 29.8638 36.4464C30.053 36.3623 30.0951 36.3623 29.8638 36.3412Z" fill="#FFCC00"/>
<path fill-rule="evenodd" clip-rule="evenodd" d="M31.6303 34.5326C31.399 34.3433 31.441 34.4064 31.1676 34.3854C30.726 34.3643 30.2844 34.3433 29.8848 34.4695C29.2538 34.6588 28.665 35.0373 27.971 35.2056C27.8027 35.2476 27.7186 35.2897 27.7186 35.3317C27.6765 35.5 28.2233 35.7524 28.6439 35.6682C29.5483 35.479 30.032 34.8901 31.4621 34.6377C31.6303 34.5957 31.7986 34.6798 31.6303 34.5326Z" fill="#FFCC00"/>
<path fill-rule="evenodd" clip-rule="evenodd" d="M30.9153 35.8786L32.3454 35.0373L31.8617 34.7219C31.6514 34.7219 31.1887 34.827 30.684 35.0373C30.2002 35.2476 29.6114 35.4369 29.338 35.6893C29.0856 35.9206 29.338 36.0258 29.7796 36.152C30.3264 36.2781 30.4316 36.152 30.9153 35.8786Z" fill="#FFCC00"/>
<path fill-rule="evenodd" clip-rule="evenodd" d="M43.3866 44.6063L21.3463 22.0193C20.8836 21.5145 20.6102 20.9887 20.5681 20.3158C20.5471 20.1475 20.5471 20.0213 20.5261 19.832L20.505 19.5166L20.9046 19.5376C21.0939 19.5376 21.2832 19.5376 21.4725 19.5586C22.0823 19.6217 22.5661 19.8951 23.0287 20.3368L45.6158 42.3771C44.1016 44.0385 44.4591 43.029 43.3866 44.6063Z" fill="#2C2C2B"/>
<path fill-rule="evenodd" clip-rule="evenodd" d="M48.3078 48.5391C48.6653 48.9597 49.0859 49.3383 49.6327 49.4855C49.9061 49.5696 50.0744 49.5696 50.2847 49.3383C50.3267 49.2962 50.3688 49.2541 50.4319 49.1911C50.6212 49.0018 50.6842 48.8966 50.6632 48.6022C50.6211 47.8871 50.2216 47.4245 49.6537 47.088C49.6537 46.9828 49.6327 46.8777 49.5486 46.7935L49.3593 46.6043C49.2541 46.4991 49.128 46.4781 49.0018 46.4991L45.8472 42.9028L45.2793 42.1457L44.8587 43.0921L43.3024 44.0806L43.8703 44.5433L44.2278 44.9008L47.6348 47.9082C47.6137 48.0344 47.6348 48.1605 47.7399 48.2447L47.9292 48.4339C48.0133 48.5812 48.1816 48.6022 48.3078 48.5391Z" fill="#2C2C2B"/>
<path fill-rule="evenodd" clip-rule="evenodd" d="M44.9218 43.4286L44.7746 45.0059L44.4381 44.6905L44.0806 44.3329L43.8282 44.1437L44.9218 43.4286ZM48.7494 47.2773L48.7915 46.7305L49.0228 47.0039L48.7494 47.2773ZM48.6022 46.5412L48.5181 47.5086L48.0764 47.9502L48.0133 47.8871L48.1816 46.0575L48.6022 46.5412ZM48.0133 45.8472L47.8451 47.7189L47.4245 47.3403L47.6137 45.3634L48.0133 45.8472ZM47.4245 45.1742L47.2352 47.1931L46.8146 46.8146L47.0249 44.7115L47.4245 45.1742ZM46.8146 44.4802L46.6043 46.6253L46.1836 46.2467L46.3939 43.9964L46.8146 44.4802ZM46.2257 43.8072L46.0154 46.0995L45.5948 45.721L45.8261 43.3235L46.2257 43.8072ZM45.6158 43.1132L45.3845 45.5317L44.9639 45.1531L45.1531 43.1973L45.3634 42.7556L45.6158 43.1132Z" fill="#FFCC00"/>
<path fill-rule="evenodd" clip-rule="evenodd" d="M48.3708 48.1185L48.9807 47.4665L49.0018 47.4876C49.17 47.6137 49.3803 47.782 49.5486 47.9923C49.7379 48.2026 49.8851 48.455 49.9271 48.7704C49.9271 48.8125 49.9902 48.8546 50.0323 48.8546C50.0743 48.8546 50.1164 48.7915 50.1164 48.7494C50.0743 48.4129 49.9061 48.1185 49.6958 47.8871C49.5065 47.6558 49.2752 47.4665 49.1069 47.3403L49.2331 47.2142C49.8851 47.5296 50.3477 47.9502 50.3898 48.6443C50.3898 48.8335 50.3688 48.8546 50.2426 49.0018C50.2005 49.0438 50.1585 49.0859 50.0954 49.149C49.9692 49.2752 49.9271 49.2541 49.7379 49.2121C49.2541 49.0649 48.7915 48.7284 48.3708 48.1185Z" fill="#FFCC00"/>
<path fill-rule="evenodd" clip-rule="evenodd" d="M49.3172 46.5832C49.17 46.436 48.9177 46.457 48.7704 46.6253L47.7189 47.803C47.5717 47.9502 47.5927 48.2026 47.7399 48.3498L47.9292 48.5181C48.0764 48.6653 48.3288 48.6443 48.476 48.476L49.5275 47.2983C49.6748 47.1511 49.6537 46.8987 49.5065 46.7515L49.3172 46.5832Z" fill="#2C2C2B"/>
<path fill-rule="evenodd" clip-rule="evenodd" d="M49.128 46.8146L49.3172 46.9828C49.3383 47.0039 49.3383 47.0459 49.3172 47.088L48.2657 48.2657C48.2447 48.3078 48.1816 48.3078 48.1606 48.2867L47.9713 48.1185C47.9502 48.0975 47.9502 48.0554 47.9713 48.0133L49.0228 46.8356C49.0438 46.7935 49.0859 46.7936 49.128 46.8146Z" fill="#FFCC00"/>
<path fill-rule="evenodd" clip-rule="evenodd" d="M44.4591 43.8913L36.7829 36.0468L20.8626 20.1054C20.8415 20.7995 21.0729 21.3042 21.5566 21.83L43.4917 44.3119L44.4591 43.8913ZM44.8797 43.4707L37.0352 35.7944L21.1149 19.8741C21.8089 19.8531 22.3137 20.0844 22.8394 20.5681L45.3214 42.5033L44.8797 43.4707Z" fill="#D9DBDC"/>
<path fill-rule="evenodd" clip-rule="evenodd" d="M46.8356 40.6525C47.2142 40.6736 47.6348 40.4422 47.8661 40.2109C48.1816 39.8954 48.5391 39.1804 48.1395 38.7808C47.761 38.4022 47.0039 38.6967 46.6674 39.0332C46.415 39.2855 46.2047 39.7272 46.2467 40.1057L43.2183 42.2509L41.0732 45.2793C40.6946 45.2373 40.253 45.4476 40.0006 45.6999C39.6851 46.0154 39.3697 46.7725 39.7482 47.1721C40.1268 47.5507 40.8629 47.2142 41.1783 46.8987C41.4097 46.6674 41.641 46.2467 41.62 45.8682L44.8377 43.8913L46.8356 40.6525Z" fill="#2C2C2B"/>
<path fill-rule="evenodd" clip-rule="evenodd" d="M44.6484 43.6389L41.3045 45.6999C41.4307 45.8892 41.3255 46.3309 40.989 46.6673C40.6315 47.0249 40.1478 47.109 40.0006 46.9407C39.8534 46.7935 39.8954 46.2678 40.253 45.9102C40.5684 45.5948 41.0311 45.5107 41.2414 45.6368L43.4707 42.4822L46.6463 40.253C46.5412 40.0637 46.6043 39.601 46.9197 39.2645C47.2773 38.907 47.803 38.8649 47.9502 39.0121C48.0975 39.1594 48.0133 39.6431 47.6768 40.0006C47.3403 40.3371 46.8987 40.4212 46.7094 40.316L44.6484 43.6389Z" fill="#FFCC00"/>
<path fill-rule="evenodd" clip-rule="evenodd" d="M41.8303 44.9849C41.7882 45.0269 41.7882 45.09 41.8093 45.1321C41.8513 45.1742 41.9144 45.1531 41.9565 45.1111L44.0806 43.1552L44.333 43.5338C44.375 43.5758 44.5222 43.5548 44.5643 43.5338C44.6064 43.4917 44.6064 43.3655 44.5643 43.3235L44.1857 43.0711L46.0995 40.947C46.1416 40.9049 46.1837 40.8628 46.1416 40.8208C46.0995 40.7787 46.0575 40.8418 46.0154 40.8839L43.9754 42.8397L43.7231 42.5033C43.681 42.4612 43.5548 42.5033 43.5338 42.5453C43.4917 42.5874 43.4707 42.6715 43.5127 42.7136L43.8703 42.9449L41.8303 44.9849Z" fill="#2C2C2B"/>
<path fill-rule="evenodd" clip-rule="evenodd" d="M22.6712 48.497C22.3137 48.9177 21.872 49.2752 21.3252 49.4224C21.0308 49.4855 20.8836 49.5065 20.6733 49.2752C20.6312 49.2331 20.5892 49.1911 20.5261 49.128C20.3368 48.9177 20.2737 48.8335 20.2947 48.5391C20.3368 47.8241 20.7574 47.3614 21.3252 47.0459C21.3252 46.9408 21.3463 46.8356 21.4304 46.7515L21.6197 46.5622C21.7248 46.4571 21.872 46.436 21.9982 46.4781L25.2159 42.9239L25.8048 42.1878L26.2254 43.1342L27.7607 44.1647L27.1718 44.6063L26.8143 44.9639L23.3652 47.9082C23.3863 48.0344 23.3442 48.1606 23.2601 48.2447L23.0708 48.434C22.9867 48.5391 22.8184 48.5601 22.6712 48.497Z" fill="#2C2C2B"/>
<path fill-rule="evenodd" clip-rule="evenodd" d="M26.1623 43.4496L26.2885 45.027L26.646 44.7325L27.0036 44.375L27.2559 44.1857L26.1623 43.4496ZM22.2716 47.2352L22.2296 46.6884L21.9982 46.9408L22.2716 47.2352ZM22.4188 46.4781L22.503 47.4455L22.9446 47.8871L23.0077 47.8241L22.8605 45.9944L22.4188 46.4781ZM23.0287 45.8051L23.176 47.6768L23.6176 47.2983L23.4704 45.3214L23.0287 45.8051ZM23.6386 45.1531L23.7858 47.1721L24.2275 46.7935L24.0592 44.6905L23.6386 45.1531ZM24.2485 44.4802L24.4168 46.6253L24.8584 46.2467L24.6902 43.9964L24.2485 44.4802ZM24.8584 43.8072L25.0267 46.0995L25.4683 45.721L25.279 43.3235L24.8584 43.8072ZM25.4683 43.1342L25.6576 45.5738L26.0992 45.1952L25.952 43.2393L25.7627 42.7767L25.4683 43.1342Z" fill="#FFCC00"/>
<path fill-rule="evenodd" clip-rule="evenodd" d="M22.6291 48.0764L22.0192 47.4245L21.9982 47.4455C21.83 47.5717 21.6197 47.7399 21.4304 47.9502C21.2411 48.1605 21.0939 48.4129 21.0518 48.7284C21.0518 48.7704 20.9887 48.8125 20.9467 48.8125C20.9046 48.8125 20.8626 48.7494 20.8626 48.7074C20.9046 48.3709 21.0939 48.0764 21.2832 47.8451C21.4724 47.6137 21.7038 47.4455 21.872 47.3193L21.7669 47.1931C21.1149 47.4876 20.6522 47.9082 20.5892 48.6022C20.5681 48.7915 20.5892 48.8125 20.7364 48.9597C20.7784 49.0018 20.8205 49.0438 20.8836 49.1069C21.0098 49.2331 21.0518 49.2331 21.2411 49.17C21.7248 49.0018 22.1875 48.6653 22.6291 48.0764Z" fill="#FFCC00"/>
<path fill-rule="evenodd" clip-rule="evenodd" d="M27.5293 44.6063L49.5696 22.0193C50.0323 21.5145 50.3057 20.9887 50.3477 20.3158C50.3688 20.1475 50.3688 20.0213 50.3898 19.832L50.4108 19.5166L50.0112 19.5376C49.822 19.5376 49.6327 19.5376 49.4434 19.5586C48.8335 19.6217 48.3498 19.8951 47.8871 20.3368L25.3 42.3771C26.8143 44.0385 26.4357 43.029 27.5293 44.6063Z" fill="#2C2C2B"/>
<path fill-rule="evenodd" clip-rule="evenodd" d="M21.7038 46.5201C21.872 46.3729 22.1034 46.415 22.2506 46.5622L23.2811 47.761C23.4283 47.9292 23.4073 48.1605 23.239 48.3078L23.0498 48.476C22.8815 48.6232 22.6502 48.5812 22.503 48.4339L21.4725 47.2352C21.3463 47.0669 21.3463 46.8356 21.5145 46.6884L21.7038 46.5201Z" fill="#2C2C2B"/>
<path fill-rule="evenodd" clip-rule="evenodd" d="M21.8931 46.7515L21.7038 46.9197C21.6828 46.9408 21.6828 46.9828 21.7038 47.0249L22.7343 48.2236C22.7553 48.2657 22.8184 48.2657 22.8395 48.2447L23.0287 48.0764C23.0498 48.0554 23.0498 48.0133 23.0287 47.9713L21.9982 46.7725C21.9772 46.7305 21.9351 46.7305 21.8931 46.7515Z" fill="#FFCC00"/>
<path fill-rule="evenodd" clip-rule="evenodd" d="M26.4357 43.8913L34.112 36.0468L50.0533 20.1054C50.0743 20.7995 49.843 21.3042 49.3593 21.83L27.4031 44.2909L26.4357 43.8913ZM26.0361 43.4707L33.8806 35.7944L49.8009 19.8741C49.1069 19.8531 48.6022 20.0844 48.0764 20.5681L25.6155 42.5033L26.0361 43.4707Z" fill="#D9DBDC"/>
<path fill-rule="evenodd" clip-rule="evenodd" d="M29.2538 45.9102C29.2328 46.2888 29.4641 46.7094 29.6955 46.9408C30.0109 47.2562 30.726 47.6137 31.1256 47.2352C31.5252 46.8566 31.2307 46.0995 30.8942 45.763C30.6419 45.5107 30.2002 45.3003 29.8217 45.3214L27.7186 42.2509L24.7112 40.0637C24.7532 39.6851 24.564 39.2435 24.3116 38.9911C23.9961 38.6546 23.239 38.3392 22.8605 38.7177C22.4609 39.0963 22.7974 39.8323 23.1128 40.1478C23.3442 40.3791 23.7648 40.6315 24.1434 40.6105L26.0572 43.8492L29.2538 45.9102Z" fill="#2C2C2B"/>
<path fill-rule="evenodd" clip-rule="evenodd" d="M26.3095 43.66L24.3116 40.274C24.1223 40.3791 23.6807 40.295 23.3652 39.9585C23.0287 39.601 22.9446 39.1173 23.0918 38.9701C23.2601 38.8229 23.7648 38.8649 24.1223 39.2225C24.4378 39.5589 24.5009 40.0216 24.3957 40.2109L27.5293 42.5033L29.7165 45.6999C29.9058 45.5948 30.3685 45.6579 30.705 45.9944C31.0415 46.3519 31.0835 46.8777 30.9363 47.0249C30.7681 47.1721 30.2843 47.088 29.9479 46.7304C29.6324 46.394 29.5272 45.9523 29.6534 45.763L26.3095 43.66Z" fill="#FFCC00"/>
<path fill-rule="evenodd" clip-rule="evenodd" d="M25.0056 40.8208C24.9636 40.7787 24.9005 40.7577 24.8584 40.7998C24.8163 40.8418 24.8374 40.9049 24.8794 40.947L26.7932 43.0921L26.4147 43.3445C26.3726 43.3866 26.3937 43.5338 26.4147 43.5758C26.4567 43.6179 26.5829 43.6179 26.625 43.5758L26.8774 43.1973L28.9804 45.1321C29.0225 45.1742 29.0646 45.2162 29.1066 45.1742C29.1487 45.1321 29.1066 45.0901 29.0435 45.048L27.1087 42.987L27.4452 42.7556C27.4873 42.7136 27.4452 42.5874 27.4242 42.5664C27.3821 42.5243 27.298 42.5033 27.2559 42.5453L27.0246 42.9028L25.0056 40.8208Z" fill="#2C2C2B"/>
<path fill-rule="evenodd" clip-rule="evenodd" d="M60.2112 24.585L66.6676 22.6081L67.3617 24.8374L65.1114 25.5314L67.7612 26.2044L68.3922 28.2444L61.5992 30.3264L60.9052 28.0972L63.1134 27.4242L60.4846 26.7302L59.8747 24.7533L59.8116 24.7953L58.6759 22.7553L60.6949 21.6407L57.9819 21.5145L56.9514 19.6428L63.1765 16.1937L64.3122 18.2337L62.2722 19.3694L65.0062 19.4745L66.0367 21.3463L60.2112 24.585ZM54.9535 13.2494C55.0586 13.1232 55.1848 12.997 55.311 12.8709C56.0261 12.1768 56.8883 11.6721 57.8978 11.6511C58.8442 11.63 59.6644 12.0296 60.3163 12.7026C60.8842 13.2915 61.2417 14.0065 61.2417 14.8267C61.2417 15.3525 61.0524 15.8783 60.8 16.3409L60.4846 16.8877L58.4025 15.5628L58.739 15.037C58.8231 14.9108 58.8652 14.7636 58.8652 14.6164C58.8442 14.4692 58.7811 14.343 58.6759 14.2168C58.5077 14.0486 58.3184 13.9434 58.066 13.9645C57.7295 13.9855 57.3089 14.343 57.0776 14.5533C56.8463 14.7847 56.4256 15.2263 56.4046 15.5628C56.3836 15.7941 56.4467 15.9834 56.6149 16.1517C56.7201 16.2568 56.8463 16.3409 57.0145 16.3409C57.2248 16.362 57.4982 16.2358 57.6665 16.1306L58.2343 15.7941L59.3279 18.0024L58.8021 18.2758C58.1712 18.6123 57.4772 18.8226 56.7621 18.6964C56.0681 18.5912 55.4793 18.2127 54.9955 17.7079C54.3646 17.056 54.0281 16.2358 54.0702 15.3104C54.1123 14.5954 54.3646 13.9855 54.7852 13.4387L54.5539 13.628C54.0071 14.0906 53.3551 14.4061 52.6401 14.4271C51.9461 14.4482 51.2731 14.1958 50.7053 13.7962C49.9482 13.2704 49.4644 12.5344 49.3383 11.63C49.191 10.6626 49.5275 9.73726 50.0743 8.95912C50.6422 8.15995 51.3993 7.48697 52.3877 7.27666C53.3131 7.08738 54.1964 7.31872 54.9745 7.84449C55.6475 8.30717 56.1312 8.93809 56.2995 9.75829C56.4046 10.2841 56.3205 10.8098 56.1522 11.3146L55.9419 11.9245L53.6496 11.0201L53.8809 10.4523C53.944 10.3051 53.965 10.1579 53.923 10.0107C53.8809 9.86345 53.7758 9.75829 53.6496 9.65314C53.4393 9.50592 53.25 9.46386 53.0187 9.52696C52.6822 9.61108 52.3457 10.0317 52.1564 10.3051C51.9671 10.5785 51.6516 11.0832 51.6727 11.4197C51.6937 11.6511 51.7989 11.8193 51.9881 11.9665C52.1143 12.0507 52.2405 12.0927 52.4088 12.0717C52.6191 12.0507 52.8504 11.8614 53.0187 11.7352L53.5024 11.2935L54.9535 13.2494ZM17.3504 15.4997C17.2453 16.1517 16.9088 16.7195 16.4461 17.1822C15.8152 17.8552 15.016 18.2127 14.0906 18.1916C13.1022 18.1706 12.261 17.7079 11.5669 17.035C10.8519 16.3409 10.3261 15.4997 10.263 14.4902C10.221 13.5438 10.5785 12.7026 11.2304 12.0296C11.7983 11.4408 12.4923 11.0622 13.3125 11.0201C13.8383 10.9991 14.364 11.1674 14.8267 11.4197L15.3945 11.7142L14.1327 13.8383L13.6069 13.5228C13.4807 13.4387 13.3335 13.3966 13.1863 13.4177C13.0391 13.4387 12.9129 13.5228 12.8078 13.628C12.6395 13.7962 12.5554 13.9855 12.5764 14.2379C12.5974 14.5743 12.976 14.9739 13.2073 15.2053C13.4387 15.4366 13.9014 15.8362 14.2378 15.8572C14.4692 15.8783 14.6585 15.7941 14.8267 15.6259C14.9319 15.5207 14.995 15.3945 14.995 15.2263C14.995 15.016 14.8688 14.7426 14.7426 14.5743L14.3851 14.0275L16.5512 12.8498L16.7826 13.2494L15.5838 8.37026L17.2873 7.1715L22.0192 10.263L21.9562 4.58472L23.891 3.80658L29.2328 9.35871L26.7932 10.3472L25.8258 9.29562L24.4378 9.86345L24.4798 11.2935L23.1339 11.8403L21.5986 12.9129L20.3999 12.1137L19.1801 12.976L19.5586 14.343L17.4345 15.8362L17.3504 15.4997ZM9.19045 23.7648C8.76984 23.6597 8.34922 23.4914 7.97067 23.2601C7.4449 22.9656 6.96119 22.5871 6.60366 22.1034C6.37232 21.7879 6.20408 21.4094 6.07789 21.0308C5.97274 20.6523 5.93068 20.2527 5.97274 19.8741C6.03583 19.3694 6.22511 18.8646 6.47748 18.423C6.96119 17.5818 7.6552 16.9719 8.60159 16.7405C9.56901 16.4882 10.5364 16.7616 11.3987 17.2453C12.2609 17.729 12.955 18.423 13.2284 19.3904C13.5018 20.3158 13.3125 21.2411 12.8288 22.0613C12.3451 22.9025 11.6511 23.5124 10.7047 23.7648C10.4733 23.8279 10.263 23.8489 10.0317 23.8489L12.5344 24.7533L11.7772 26.8353L10.5785 26.3937L9.73725 28.7281L10.936 29.1697L10.1789 31.2518L6.89809 30.0741L7.12943 29.4011C6.81397 29.1277 6.45645 28.9174 6.07789 28.7281C5.34181 28.3706 4.58471 28.0551 3.80657 27.7817L2.64987 27.3611L4.45852 22.3768L9.06427 24.0592L9.19045 23.7648ZM32.6398 8.34923L32.745 9.08531L30.3685 9.4218L30.2633 8.68572C29.5693 8.68572 28.8753 8.55954 28.3285 8.09686C27.7396 7.61315 27.4242 6.94017 27.319 6.20409C27.2139 5.42595 27.34 4.68987 27.8027 4.05895C28.2023 3.51214 28.8122 3.19668 29.4641 3.00741L29.38 2.37648L31.7565 2.03999L31.8406 2.67091C32.5136 2.67091 33.2287 2.7971 33.7544 3.23874C34.3433 3.72245 34.6588 4.39544 34.7849 5.15255C34.8901 5.90966 34.7639 6.6247 34.3433 7.25563C33.9437 7.84449 33.3128 8.15995 32.6398 8.34923ZM39.9375 7.08738L39.58 9.27458L37.2035 8.89603L38.3181 1.87174L40.7998 2.27133C41.2835 2.35545 41.8934 2.43957 42.335 2.62885C42.7977 2.81813 43.1342 3.15462 43.3655 3.59627C43.6389 4.07998 43.681 4.62678 43.5968 5.17358C43.5338 5.59419 43.3865 5.99378 43.1342 6.30924C42.9239 6.60367 42.6505 6.83501 42.335 6.98223C42.0616 7.10841 41.7461 7.21357 41.4517 7.21357C41.0101 7.2346 40.5474 7.17151 40.1057 7.08738H39.9375ZM43.3655 6.39337C43.5758 5.82553 43.8492 5.27873 44.2698 4.85812C44.5432 4.56369 44.8797 4.33235 45.2373 4.1641C45.5948 3.99585 45.9733 3.8907 46.3729 3.86967C46.8987 3.84864 47.4034 3.95379 47.8871 4.12204C48.7915 4.45853 49.5275 5.02636 49.9271 5.90966C50.3477 6.83501 50.2426 7.82346 49.9061 8.74881C49.5696 9.67417 49.0018 10.4733 48.0974 10.915C47.2141 11.3356 46.2888 11.3146 45.4055 10.9781C44.5012 10.6416 43.7651 10.0738 43.3655 9.19046C42.9449 8.28614 43.029 7.29769 43.3655 6.39337ZM5.55212 25.91C6.37232 26.2254 7.23459 26.604 7.9917 27.0877L8.2651 26.3306L5.7414 25.4052L5.55212 25.91ZM9.16942 21.136C9.48488 21.3252 9.9055 21.4935 10.2841 21.4304C10.5785 21.3673 10.7678 21.2201 10.915 20.9677C11.0622 20.7153 11.1043 20.484 10.9991 20.2106C10.8729 19.8531 10.4944 19.5586 10.1789 19.3904C9.88447 19.2222 9.44282 19.0118 9.0853 19.096C8.79087 19.1591 8.62262 19.3273 8.4754 19.5797C8.32819 19.832 8.28613 20.0844 8.37025 20.3578C8.45437 20.6733 8.85396 20.9467 9.16942 21.136ZM32.3243 6.05687C32.3664 6.01481 32.4085 5.97275 32.4295 5.93069C32.4715 5.8045 32.4505 5.57316 32.4295 5.44698C32.3874 5.19461 32.3243 5.02636 32.1561 4.94224L32.3243 6.05687ZM29.9689 6.39337L29.8006 5.2577C29.7796 5.27873 29.7796 5.27873 29.7796 5.29976C29.6745 5.44698 29.6745 5.72038 29.7165 5.88863C29.7375 6.16203 29.8006 6.30924 29.9689 6.39337ZM40.3581 4.45853L40.295 4.90018H40.3371C40.4843 4.92121 40.9259 4.9843 41.0521 4.96327C41.0942 4.96327 41.1152 4.94224 41.1573 4.92121C41.1783 4.90018 41.1993 4.85812 41.1993 4.81605C41.1993 4.77399 41.1993 4.73193 41.1783 4.68987C41.1573 4.64781 41.1152 4.62678 41.0521 4.60575C40.8418 4.52162 40.5684 4.47956 40.3581 4.45853ZM45.5948 8.3282C45.6999 8.6016 45.8892 8.76985 46.1626 8.875C46.436 8.98015 46.6673 8.95912 46.9407 8.83294C47.2772 8.64366 47.4875 8.22305 47.6137 7.86552C47.7399 7.52903 47.8451 7.06635 47.7189 6.72986C47.6137 6.45646 47.4034 6.30924 47.1511 6.20409C46.8777 6.09893 46.6253 6.09893 46.3729 6.24615C46.0364 6.4144 45.8471 6.85604 45.721 7.19254C45.5527 7.52903 45.4476 7.97068 45.5948 8.3282Z" fill="white"/>
<path fill-rule="evenodd" clip-rule="evenodd" d="M22.3768 10.8519L22.2927 4.81606L23.8489 4.18513L28.707 9.23252L26.8984 9.9686L25.931 8.91706L24.1434 9.63211L24.1854 11.0622L23.0077 11.5459L21.6197 12.5133L20.3999 11.7142L18.8226 12.8288L19.2011 14.1958L17.6238 15.2894L15.9624 8.51748L17.3294 7.55006L22.3768 10.8519ZM9.27458 24.4588L9.44283 23.9751L12.1558 24.9636L11.609 26.4778L10.4102 26.0361L9.35871 28.9384L10.5575 29.38L10.0107 30.8943L7.29769 29.9058L7.508 29.338C7.12944 28.9805 6.70882 28.707 6.24615 28.4757C5.51007 28.0972 4.7109 27.8027 3.95379 27.5083L3.0705 27.1928L4.66884 22.7974L9.27458 24.4588ZM8.11789 23.0077C7.63418 22.7343 7.1715 22.3768 6.85604 21.9351C6.64573 21.6407 6.47749 21.3042 6.39336 20.9677C6.28821 20.6312 6.26718 20.2737 6.30924 19.9162C6.37233 19.4325 6.54058 18.9908 6.77192 18.5912C7.21356 17.8341 7.84449 17.2663 8.70675 17.056C9.61108 16.8246 10.4944 17.077 11.2725 17.5397C12.0506 17.9813 12.7026 18.6123 12.955 19.5166C13.2073 20.3578 13.0181 21.1991 12.5975 21.9562C12.1558 22.7133 11.5249 23.3021 10.6626 23.5124C9.75829 23.6807 8.89603 23.4494 8.11789 23.0077ZM14.8477 14.1537L16.4671 13.2704L16.6143 13.5228C16.9298 14.0696 17.1401 14.7005 17.077 15.3525C16.9929 15.9834 16.6774 16.5302 16.2358 16.9719C15.6469 17.5818 14.9319 17.8972 14.0906 17.8972C13.1863 17.8762 12.4082 17.4556 11.7772 16.8246C11.1253 16.1937 10.6206 15.4156 10.5785 14.4902C10.5364 13.628 10.8729 12.8709 11.4618 12.261C11.9665 11.7352 12.5975 11.3777 13.3546 11.3566C13.8383 11.3356 14.3009 11.4828 14.7216 11.7142L14.995 11.8614L14.0486 13.4597L13.7752 13.2915C13.5859 13.1653 13.3756 13.1232 13.1443 13.1443C12.9129 13.1653 12.7236 13.2915 12.5764 13.4387C12.3451 13.67 12.2399 13.9434 12.261 14.2799C12.303 14.7005 12.6816 15.1422 12.976 15.4366C13.2704 15.731 13.7752 16.1306 14.1958 16.1727C14.5323 16.1937 14.7847 16.0886 15.016 15.8362C15.1842 15.668 15.2684 15.4787 15.2894 15.2473C15.3104 14.9529 15.1422 14.6585 14.995 14.4271L14.8477 14.1537ZM32.3033 8.11789L32.4085 8.81191L30.6419 9.06428L30.5367 8.37026C29.8427 8.41232 29.0856 8.3282 28.5388 7.86552C28.013 7.42388 27.7186 6.83501 27.6345 6.16203C27.5293 5.46801 27.6345 4.79503 28.0551 4.22719C28.4757 3.68039 29.1487 3.38596 29.8006 3.23875L29.7165 2.64988L31.4831 2.39751L31.5672 2.98638C32.2613 2.94431 33.0184 3.02844 33.5652 3.49112C34.0909 3.93276 34.3854 4.52162 34.4695 5.21564C34.5746 5.88863 34.4485 6.54058 34.0699 7.10841C33.6913 7.67624 32.9763 7.97068 32.3033 8.11789ZM39.6851 6.72986L39.3276 8.93809L37.54 8.66469L38.5495 2.2503L40.7367 2.58679C41.1573 2.64988 41.8092 2.75504 42.1878 2.92328C42.5874 3.09153 42.8818 3.38596 43.0921 3.76452C43.3235 4.18513 43.3655 4.66884 43.2814 5.15255C43.2183 5.51007 43.1131 5.8676 42.8818 6.16203C42.6925 6.4144 42.4612 6.60367 42.1878 6.75089C41.9565 6.87707 41.683 6.94017 41.4096 6.9612C40.989 6.98223 40.5264 6.91914 40.1268 6.85604L39.6851 6.72986ZM43.6389 6.49852C43.8282 5.97275 44.0806 5.46801 44.4801 5.06843C44.7325 4.81606 45.0269 4.58472 45.3634 4.4375C45.6789 4.29029 46.0154 4.18513 46.3729 4.1641C46.8566 4.14307 47.3193 4.22719 47.761 4.39544C48.5812 4.68987 49.2541 5.21564 49.6117 6.03584C49.9902 6.87707 49.9061 7.7814 49.5906 8.64366C49.2752 9.48489 48.7704 10.242 47.9502 10.6416C47.1511 11.0201 46.3098 10.9991 45.4896 10.7047C44.6694 10.4102 43.9964 9.88448 43.6179 9.06428C43.2604 8.22305 43.3445 7.33975 43.6389 6.49852ZM53.4603 11.7983L54.5749 13.2494L54.3436 13.4387C53.8389 13.8383 53.271 14.1537 52.6191 14.1748C51.9881 14.1958 51.3993 13.9645 50.8735 13.6069C50.1795 13.1232 49.7589 12.4713 49.6327 11.63C49.5065 10.7467 49.822 9.90551 50.3267 9.19046C50.8525 8.45438 51.5255 7.82346 52.4508 7.63418C53.2921 7.44491 54.0912 7.67624 54.7852 8.15995C55.3951 8.58057 55.8368 9.1484 55.984 9.88448C56.0892 10.3472 56.005 10.8309 55.8368 11.2725L55.7316 11.5669L54.0281 10.894L54.1543 10.5995C54.2384 10.3892 54.2595 10.1789 54.1964 9.9686C54.1333 9.7583 53.9861 9.59005 53.8178 9.46386C53.5444 9.27459 53.25 9.21149 52.9345 9.29562C52.5139 9.40077 52.1354 9.84242 51.904 10.1789C51.6727 10.5154 51.3362 11.0622 51.3783 11.5039C51.3993 11.8403 51.5675 12.0717 51.8409 12.261C52.0302 12.3871 52.2405 12.4502 52.4719 12.4292C52.7663 12.3871 53.0397 12.1979 53.25 12.0086L53.4603 11.7983ZM57.8978 11.9665C58.7601 11.9455 59.4961 12.303 60.085 12.9339C60.5897 13.4597 60.9262 14.1117 60.9262 14.8477C60.9262 15.3315 60.758 15.7941 60.5266 16.1937L60.3584 16.4671L58.8021 15.4787L58.9704 15.2263C59.0966 15.037 59.1597 14.8267 59.1386 14.6164C59.1176 14.3851 59.0124 14.1958 58.8442 14.0486C58.6128 13.8172 58.3394 13.6911 58.003 13.7121C57.5613 13.7331 57.1197 14.1117 56.8252 14.3851C56.5308 14.6795 56.0892 15.1422 56.0471 15.5838C56.005 15.9203 56.1102 16.1727 56.3415 16.4251C56.5098 16.5933 56.699 16.6985 56.9304 16.7195C57.2248 16.7405 57.5403 16.5933 57.7716 16.4671L58.066 16.2989L58.8862 17.9393L58.6339 18.0865C58.066 18.402 57.4351 18.5912 56.8042 18.4861C56.1733 18.3809 55.6475 18.0444 55.2059 17.6028C54.617 16.9929 54.3226 16.2778 54.3646 15.4366C54.4067 14.5323 54.8694 13.7752 55.5003 13.1653C56.1733 12.4713 56.9724 11.9876 57.8978 11.9665ZM61.1786 19.6217L64.838 19.769L65.6371 21.2201L59.9588 24.3747L59.1176 22.8605L61.8095 21.3673L58.1922 21.1991L57.3931 19.7479L63.0714 16.5933L63.9126 18.1075L61.1786 19.6217ZM63.9757 25.5524L67.5299 26.4568L68.0136 28.0551L61.7885 29.9479L61.2838 28.3075L64.2281 27.4031L60.737 26.4778L60.2533 24.8794L66.4784 22.9867L66.9831 24.6481L63.9757 25.5524ZM5.17358 26.0782C6.14099 26.4357 7.29769 26.9405 8.13892 27.5504L8.64366 26.1413L5.55213 25.0056L5.17358 26.0782ZM9.00118 21.3883C9.37974 21.6197 9.86345 21.8089 10.3261 21.7038C10.7047 21.6197 10.957 21.4304 11.1463 21.0939C11.3356 20.7574 11.3777 20.4419 11.2515 20.0844C11.1043 19.6428 10.6836 19.3063 10.2841 19.096C9.90551 18.8857 9.4218 18.6754 8.98015 18.7595C8.6016 18.8436 8.34923 19.0539 8.15995 19.3904C7.97067 19.7269 7.90758 20.0634 8.03377 20.4209C8.20201 20.8415 8.62263 21.178 9.00118 21.3883ZM18.9908 10.7678L18.1286 10.1579L18.402 11.1674L18.9908 10.7678ZM24.7322 7.67624L24.0172 6.89811L24.0592 7.94965L24.7322 7.67624ZM32.093 6.51955C32.2192 6.47749 32.3243 6.43543 32.4505 6.37233C32.5767 6.28821 32.6819 6.18306 32.745 6.03584C32.8081 5.84657 32.787 5.57316 32.766 5.40492C32.6819 4.79503 32.3454 4.56369 31.8406 4.56369L32.093 6.51955ZM30.3264 6.77192L30.053 4.81606C29.8427 4.87915 29.6534 4.96327 29.5272 5.11049C29.359 5.34183 29.359 5.65729 29.4011 5.93069C29.4852 6.56161 29.8006 6.77192 30.3264 6.77192ZM40.1057 4.10101L39.9375 5.15255L40.274 5.21564C40.4633 5.23667 40.9049 5.3208 41.0942 5.27873C41.1993 5.2577 41.2835 5.21564 41.3466 5.13152C41.4097 5.04739 41.4517 4.96327 41.4727 4.85812C41.4938 4.73193 41.4727 4.62678 41.4096 4.52162C41.3466 4.41647 41.2414 4.35338 41.1363 4.31132C40.9259 4.22719 40.5894 4.18513 40.3581 4.14307L40.1057 4.10101ZM45.3845 7.08738C45.2373 7.508 45.1321 8.01274 45.3004 8.45438C45.4476 8.81191 45.6789 9.04325 46.0364 9.16943C46.394 9.29562 46.7304 9.27459 47.0669 9.10634C47.4665 8.875 47.7189 8.41232 47.8871 7.99171C48.0344 7.59212 48.1605 7.06635 47.9923 6.64574C47.8451 6.28821 47.5927 6.0779 47.2352 5.95172C46.8777 5.82553 46.5412 5.82553 46.2047 5.99378C45.7841 6.18306 45.5317 6.66677 45.3845 7.08738Z" fill="#2C2C2B"/>
<path fill-rule="evenodd" clip-rule="evenodd" d="M3.44907 26.9825L4.8371 23.1549L9.44285 24.8374L9.61109 24.3537L11.7562 25.1318L11.4197 26.0572L10.221 25.6155L8.95914 29.1066L10.1579 29.5483L9.8214 30.4736L7.67626 29.6955L7.8445 29.2328C7.44492 28.8332 6.96121 28.4757 6.35132 28.1813C5.76245 27.8868 4.98432 27.5504 4.0169 27.2139L3.44907 26.9825ZM4.77401 26.2675C6.45647 26.8774 7.6342 27.4873 8.28615 28.0551L9.04326 25.952L5.36287 24.606L4.77401 26.2675ZM8.28615 22.7343C7.76038 22.4399 7.38183 22.1034 7.10843 21.7459C6.91915 21.4725 6.77193 21.178 6.68781 20.8626C6.60369 20.5471 6.56163 20.2316 6.60369 19.9372C6.64575 19.5376 6.79296 19.138 7.04533 18.7174C7.48698 17.9603 8.05481 17.4976 8.79089 17.3084C9.52697 17.1191 10.3051 17.2663 11.1253 17.75C11.9455 18.2337 12.4713 18.8226 12.6606 19.5376C12.8709 20.2527 12.7447 20.9887 12.3241 21.7248C11.8824 22.4819 11.3146 22.9446 10.5785 23.1339C9.86346 23.3442 9.08532 23.197 8.28615 22.7343ZM8.85398 21.6617C9.42181 21.9982 9.94758 22.1034 10.3892 22.0193C10.8309 21.9141 11.1884 21.6617 11.4197 21.2621C11.6511 20.8626 11.7142 20.4209 11.567 20.0003C11.4197 19.5586 11.0622 19.1801 10.4734 18.8436C9.88449 18.5071 9.37975 18.3809 8.93811 18.465C8.49646 18.5492 8.15997 18.8226 7.9076 19.2432C7.65523 19.6638 7.61317 20.0844 7.76038 20.5261C7.9076 20.9467 8.26512 21.3252 8.85398 21.6617ZM15.2894 14.2589L16.362 13.6911C16.6985 14.2589 16.8457 14.8057 16.7826 15.3104C16.7195 15.8152 16.4671 16.2989 16.0255 16.7616C15.4787 17.3294 14.8478 17.6028 14.1117 17.5818C13.3756 17.5818 12.6816 17.2453 12.0086 16.5933C11.2936 15.9203 10.936 15.2053 10.894 14.4692C10.8519 13.7331 11.1253 13.0601 11.6931 12.4713C12.1979 11.9455 12.7447 11.6721 13.3756 11.6511C13.7331 11.63 14.1327 11.7352 14.5744 11.9665L13.9645 13.0181C13.6911 12.8498 13.4177 12.7867 13.1443 12.8288C12.8709 12.8709 12.6185 12.997 12.3872 13.2284C12.0927 13.5438 11.9455 13.9014 11.9876 14.322C12.0296 14.7426 12.303 15.1842 12.8078 15.668C13.3335 16.1937 13.8173 16.4671 14.2379 16.4882C14.6585 16.5092 15.016 16.383 15.3104 16.0675C15.5207 15.8362 15.6469 15.5838 15.668 15.2684C15.6259 14.9739 15.5207 14.6374 15.2894 14.2589ZM22.6502 11.4197L21.5986 12.1558L20.3999 11.3566L18.4651 12.7026L18.8436 14.0696L17.8131 14.7847L16.3199 8.64366L17.3504 7.92862L22.6502 11.4197ZM19.5166 10.7678L17.6028 9.44283L18.2127 11.6931L19.5166 10.7678ZM28.1603 9.12737L26.9615 9.61108L25.9941 8.55954L23.8069 9.44283L23.8489 10.8729L22.6712 11.3356L22.5871 5.02637L23.7438 4.56369L28.1603 9.12737ZM25.258 7.80243L23.6807 6.0779L23.7648 8.39129L25.258 7.80243ZM31.9668 7.86552L32.072 8.53851L30.9153 8.70676L30.8101 8.03377C29.8638 8.13892 29.1908 7.99171 28.7491 7.61315C28.3075 7.2346 28.0341 6.72986 27.95 6.09894C27.8448 5.42595 27.971 4.85812 28.3285 4.39544C28.665 3.93276 29.2959 3.6173 30.1792 3.44905L30.0951 2.88122L31.2518 2.71298L31.3359 3.28081C32.2613 3.17565 32.9553 3.32287 33.3969 3.68039C33.8386 4.03792 34.112 4.56369 34.1961 5.19461C34.2802 5.84657 34.1751 6.39337 33.8386 6.87708C33.5021 7.38182 32.8922 7.71831 31.9668 7.86552ZM31.8196 6.89811C32.1351 6.85604 32.3875 6.77192 32.5978 6.62471C32.8081 6.49852 32.9343 6.33028 33.0184 6.141C33.0815 5.95172 33.1025 5.69935 33.0604 5.36286C32.9343 4.52163 32.4085 4.1641 31.4831 4.29029L31.8196 6.89811ZM30.6629 7.04532L30.3054 4.4375C29.8007 4.5006 29.4642 4.66884 29.2749 4.92121C29.0856 5.17358 29.0225 5.5311 29.0856 5.97275C29.2118 6.83501 29.7376 7.19254 30.6629 7.04532ZM37.8975 8.39129L38.8229 2.58679L40.7157 2.88122C41.4307 2.98638 41.8934 3.09153 42.1037 3.19669C42.4191 3.3439 42.6715 3.57524 42.8608 3.8907C43.029 4.22719 43.0921 4.60575 43.029 5.06843C42.966 5.42595 42.8608 5.72038 42.6925 5.93069C42.5243 6.16203 42.335 6.30924 42.1037 6.43543C41.8723 6.54058 41.662 6.60367 41.4517 6.60367C41.1573 6.62471 40.7577 6.58264 40.2109 6.49852L39.4538 6.37234L39.0963 8.55954L37.8975 8.39129ZM39.8324 3.74349L39.58 5.38389L40.2319 5.48904C40.6946 5.55214 41.0101 5.57317 41.1783 5.55213C41.3466 5.51007 41.4728 5.44698 41.5989 5.3208C41.7041 5.19461 41.7672 5.06843 41.8093 4.90018C41.8513 4.68987 41.8093 4.5006 41.7041 4.35338C41.5989 4.20616 41.4517 4.07998 41.2835 4.01689C41.1573 3.97483 40.8629 3.91173 40.4423 3.84864L39.8324 3.74349ZM43.9334 6.60367C44.1437 6.03584 44.396 5.5942 44.7115 5.27873C44.9428 5.0474 45.1952 4.85812 45.5107 4.7109C45.8051 4.56369 46.0995 4.47956 46.415 4.47956C46.8146 4.45853 47.2352 4.52163 47.6768 4.68987C48.4971 4.9843 49.0438 5.46801 49.3593 6.16203C49.6748 6.83501 49.6537 7.63418 49.3173 8.53851C49.0018 9.44283 48.4971 10.0317 47.8241 10.3682C47.1511 10.7047 46.415 10.7047 45.5948 10.4103C44.7746 10.1158 44.2068 9.61108 43.9123 8.93809C43.5969 8.26511 43.6179 7.48697 43.9334 6.60367ZM45.0901 6.98223C44.8587 7.61315 44.8377 8.13892 45.0059 8.55954C45.1742 8.98016 45.4896 9.27459 45.9313 9.44283C46.3729 9.61108 46.7936 9.56902 47.1931 9.35871C47.5927 9.1484 47.9082 8.70676 48.1395 8.07583C48.3709 7.44491 48.4129 6.91914 48.2447 6.49852C48.0764 6.0779 47.761 5.8045 47.2983 5.63626C46.8356 5.46801 46.415 5.48904 46.0154 5.69935C45.6369 5.90966 45.3424 6.33028 45.0901 6.98223ZM53.4183 12.2399L54.1543 13.2073C53.6496 13.628 53.1238 13.8593 52.6191 13.8803C52.1143 13.9014 51.5886 13.7331 51.0628 13.3756C50.4319 12.9339 50.0533 12.3451 49.9482 11.609C49.843 10.8729 50.0533 10.1368 50.5791 9.37974C51.1469 8.58057 51.7779 8.09686 52.5139 7.94965C53.229 7.80243 53.944 7.94965 54.617 8.43335C55.2059 8.85397 55.5634 9.35871 55.6896 9.9686C55.7737 10.3261 55.7317 10.7467 55.5634 11.2094L54.4277 10.7678C54.5539 10.4733 54.575 10.1999 54.4908 9.92654C54.4067 9.65314 54.2385 9.4218 53.9861 9.25356C53.6286 9.00119 53.25 8.9381 52.8504 9.02222C52.4508 9.12737 52.0513 9.46386 51.6517 10.0317C51.2311 10.6416 51.0207 11.1463 51.0628 11.5669C51.1049 11.9876 51.2941 12.303 51.6517 12.5554C51.904 12.7447 52.1985 12.8078 52.4929 12.7867C52.7663 12.7026 53.0818 12.5344 53.4183 12.2399ZM57.9609 16.6774L58.5077 17.75C57.9189 18.0655 57.372 18.1916 56.8673 18.1075C56.3626 18.0234 55.8789 17.771 55.4372 17.3084C54.8904 16.7405 54.638 16.0886 54.6801 15.3735C54.7222 14.6374 55.0587 13.9434 55.7316 13.3125C56.4467 12.6395 57.1617 12.282 57.8978 12.282C58.6339 12.261 59.2859 12.5554 59.8747 13.1443C60.3795 13.67 60.6318 14.2379 60.6318 14.8477C60.6318 15.2053 60.5267 15.6049 60.2743 16.0255L59.2438 15.3735C59.412 15.1212 59.4962 14.8477 59.4541 14.5533C59.4331 14.2799 59.3069 14.0275 59.0755 13.7962C58.7811 13.4807 58.4236 13.3335 58.003 13.3546C57.5824 13.3756 57.1407 13.628 56.636 14.1117C56.1102 14.6374 55.8158 15.1001 55.7737 15.4997C55.7317 15.9203 55.8578 16.2778 56.1523 16.5723C56.3626 16.8036 56.636 16.9298 56.9304 16.9508C57.2459 17.0139 57.5824 16.9088 57.9609 16.6774ZM62.9452 17.0139L63.492 17.9813L60.064 19.8741L64.6487 20.0634L65.2165 21.0939L60.064 23.9541L59.5172 22.9867L62.8821 21.1149L58.3605 20.9046L57.7927 19.8741L62.9452 17.0139ZM66.2681 23.3652L66.5835 24.4378L62.8401 25.5735L67.2986 26.7091L67.6351 27.8448L61.9988 29.5693L61.6834 28.4967L65.3638 27.3821L60.9893 26.2254L60.6318 25.0898L66.2681 23.3652Z" fill="#FFCC00"/>
</g>
<defs>
<clipPath id="clip0_1_3">
<rect width="71" height="71" fill="white"/>
</clipPath>
</defs>
</svg>
