<svg width="306" height="256" viewBox="0 0 306 256" fill="none" xmlns="http://www.w3.org/2000/svg">
<g opacity="0.05">
<path fill-rule="evenodd" clip-rule="evenodd" d="M208.722 221.433C201.448 228.126 193.591 235.255 185.007 239.91C181.807 241.656 178.606 242.966 175.26 244.275C167.403 247.33 161.875 249.803 155.328 255.332C154.309 256.205 153.291 256.06 152.127 255.187C145.58 249.658 140.052 247.185 132.195 244.129C128.849 242.82 125.648 241.511 122.447 239.765C113.864 235.109 106.007 227.98 98.7329 221.288L89.8581 222.306L89.2761 220.56C84.9115 206.593 84.0385 191.608 92.7678 179.096L95.0956 175.75L96.5505 179.678C100.188 190.008 106.153 199.174 114.3 206.593L116.919 208.921L113.573 210.085C110.808 211.104 108.481 212.704 106.735 214.886L118.374 220.124C123.32 220.997 127.976 223.761 133.068 220.851C142.961 215.323 143.834 191.463 143.98 182.006L144.707 142.288L145.144 129.776L147.617 55.5765H132.195C130.449 55.5765 128.849 54.1216 128.849 52.2303V45.3923C128.849 43.6465 130.304 42.0461 132.195 42.0461H140.634C135.541 38.2634 132.341 32.2984 132.341 25.4604C132.341 13.9669 141.652 4.80109 153 4.80109C164.494 4.80109 173.659 14.1123 173.659 25.4604C173.659 32.2984 170.313 38.2634 165.367 42.0461H174.823C176.569 42.0461 178.169 43.501 178.169 45.3923V52.3758C178.169 54.1217 176.715 55.722 174.823 55.722H159.547L162.457 142.579L163.184 182.297C163.33 191.608 164.203 215.614 174.096 221.142C179.188 224.052 183.844 221.142 188.79 220.415L200.429 215.177C198.683 212.995 196.356 211.395 193.591 210.376L190.245 209.212L192.864 206.884C201.011 199.465 206.831 190.299 210.613 179.969L212.068 176.041L214.396 179.387C223.125 191.899 222.252 206.884 217.888 220.851L217.306 222.597L208.722 221.433ZM153.291 16.5856C158.238 16.5856 162.311 20.6593 162.311 25.6059C162.311 30.5525 158.238 34.6262 153.291 34.6262C148.344 34.6262 144.271 30.5525 144.271 25.6059C144.271 20.6593 148.344 16.5856 153.291 16.5856Z" fill="#2C2C2B"/>
<path fill-rule="evenodd" clip-rule="evenodd" d="M153.873 51.9393H157.656L160.129 129.921L160.565 142.433L161.293 182.151C162.166 236.128 182.971 223.325 189.663 222.161L203.921 215.759C201.739 212.267 198.683 209.649 194.61 208.194C203.048 200.337 209.159 191.026 212.941 180.406C219.925 190.444 221.234 203.684 216.142 219.978L207.995 218.96C199.847 226.525 192.136 233.363 183.989 237.873C174.096 243.256 165.948 243.402 154.018 253.441C153.727 253.586 153.873 253.586 153.582 253.295C141.652 243.257 133.505 243.111 123.611 237.728C115.464 233.218 107.753 226.38 99.6058 218.814L91.4584 219.833C86.3663 203.538 87.6757 190.299 94.6592 180.26C98.4419 190.735 104.407 200.192 112.991 208.048C108.917 209.503 105.716 212.267 103.679 215.614L117.937 222.015C124.63 223.034 145.435 235.837 146.308 182.006L147.035 142.288L147.471 129.776L149.945 51.7938H153.873V51.9393Z" fill="#FFCC00"/>
<path fill-rule="evenodd" clip-rule="evenodd" d="M154.891 62.9965V237.001C161.438 236.855 167.112 236.128 172.205 234.964C177.733 233.654 182.534 231.908 186.753 229.581C191.7 226.962 196.501 223.47 200.429 219.396C203.921 215.759 206.976 211.686 208.868 207.03C210.322 203.538 211.341 199.61 211.777 195.1C212.214 191.317 212.359 187.389 212.068 183.17C212.068 182.879 211.923 182.733 212.068 182.442L212.941 180.26L214.105 182.442C214.251 182.588 214.105 182.879 214.105 183.024C214.396 187.389 214.251 191.463 213.814 195.391C213.232 200.046 212.214 204.266 210.759 207.903C208.722 212.704 205.521 217.069 201.884 220.997C197.665 225.216 192.718 228.853 187.626 231.617C183.262 233.945 178.315 235.837 172.641 237.146C167.403 238.31 161.584 239.037 154.891 239.183V251.113H152.709V239.183C146.017 239.037 140.197 238.31 134.959 237.146C129.285 235.837 124.339 233.945 119.974 231.617C114.882 228.853 109.936 225.361 105.716 220.997C101.934 217.214 98.8784 212.849 96.8416 207.903C95.2412 204.266 94.2228 200.046 93.7863 195.391C93.3498 191.463 93.2043 187.534 93.4953 183.024C93.4953 182.879 93.4953 182.588 93.4953 182.442L94.6592 180.26L95.5322 182.442C95.6777 182.733 95.5322 182.879 95.5322 183.17C95.2412 187.389 95.3867 191.463 95.8231 195.1C96.2596 199.465 97.278 203.538 98.7329 207.03C100.624 211.686 103.68 215.759 107.171 219.396C111.245 223.47 116.046 226.962 120.847 229.581C125.066 231.908 129.867 233.654 135.396 234.964C140.488 236.128 146.162 236.855 152.709 237.001V62.9965H154.891Z" fill="#2C2C2B"/>
<path fill-rule="evenodd" clip-rule="evenodd" d="M153.727 44.2285H174.969C175.551 44.2285 176.133 44.8104 176.133 45.3924V52.3758C176.133 52.9578 175.551 53.5397 174.969 53.5397H153.727H132.486C131.904 53.5397 131.322 52.9578 131.322 52.3758V45.3924C131.322 44.8104 131.904 44.2285 132.486 44.2285H153.727ZM153.291 6.98346C163.621 6.98346 171.913 15.2763 171.913 25.606C171.913 35.9356 163.621 44.2285 153.291 44.2285C142.961 44.2285 134.668 35.9356 134.668 25.606C134.668 15.2763 143.107 6.98346 153.291 6.98346ZM153.291 14.2579C159.547 14.2579 164.639 19.35 164.639 25.606C164.639 31.862 159.547 36.9541 153.291 36.9541C147.035 36.9541 141.943 31.862 141.943 25.606C141.943 19.35 147.035 14.2579 153.291 14.2579Z" fill="#FFCC00"/>
<path fill-rule="evenodd" clip-rule="evenodd" d="M172.932 108.825L172.641 108.971L171.768 108.534C170.604 107.952 169.295 107.661 168.131 107.079L164.639 105.334L167.985 103.297C173.369 100.096 178.606 95.0039 182.971 90.4937C187.19 86.4201 191.409 82.0554 195.919 78.2727C201.157 73.9081 205.958 71.8712 212.796 71.2893C213.523 71.2893 214.105 71.1438 214.833 71.1438C221.38 70.8528 227.927 72.8897 234.037 74.9265C249.023 79.8731 263.426 87.293 278.702 91.2212C285.104 92.2396 293.542 92.967 299.798 90.6392C301.689 90.0573 304.017 89.7663 305.326 91.5122C306.781 93.549 305.617 96.1678 304.308 97.7682C303.435 98.7866 302.417 99.805 301.398 100.678L300.816 102.133C299.216 106.497 296.161 109.407 292.087 110.28C290.05 115.809 286.849 117.7 281.466 117.555C279.43 123.083 275.647 123.52 270.846 123.229L270.7 123.52C268.663 127.302 264.008 127.884 259.061 127.157C258.043 128.903 256.588 130.212 254.697 130.794C251.059 132.103 246.84 130.94 242.912 129.485C242.621 129.921 242.476 130.358 241.894 130.649C237.383 133.558 231.273 132.249 225.89 129.921C225.599 130.358 225.453 130.649 224.871 130.94C212.359 137.923 201.011 123.52 190.827 119.009C189.954 118.573 188.936 118.282 188.645 117.409C187.044 117.118 185.59 116.245 183.407 114.936L172.932 108.825Z" fill="#2C2C2B"/>
<path fill-rule="evenodd" clip-rule="evenodd" d="M172.496 106.643C171.332 106.061 170.023 105.77 168.859 105.188C178.024 99.6595 188.5 87.1475 197.229 80.0186C202.03 75.9449 206.54 74.0536 212.796 73.4716C213.378 73.4716 214.106 73.3261 214.688 73.3261C220.944 73.0352 227.345 75.072 233.165 76.9633C248.15 81.7645 262.844 89.4753 278.12 93.258C288.305 94.8584 295.434 94.4219 300.38 92.5306C306.345 90.4938 303.726 97.7682 296.888 100.678C292.378 102.569 287.577 101.696 282.922 100.823C273.174 99.0776 263.426 95.7313 253.387 91.5122C244.804 87.875 236.802 83.0739 227.781 80.3096C219.198 77.6908 211.923 77.1088 205.813 79.8731C196.21 84.2378 187.627 98.9321 172.496 106.643Z" fill="#FFCC00"/>
<path fill-rule="evenodd" clip-rule="evenodd" d="M202.466 83.6558C215.415 73.1806 235.201 84.5287 248.441 90.6392C249.896 91.3667 250.187 91.2212 250.187 92.8215C250.041 93.6945 249.023 94.2764 247.713 94.5674C244.949 95.1494 242.912 94.1309 240.293 93.1125C228.218 88.6024 216.288 82.9283 203.048 84.2377C201.739 84.2377 201.303 84.5287 202.466 83.6558Z" fill="#FFCC00"/>
<path fill-rule="evenodd" clip-rule="evenodd" d="M245.822 96.0223C249.46 95.5859 251.642 94.4219 251.787 92.2396C262.263 97.0407 276.375 101.842 289.469 103.151C293.252 103.442 295.579 102.715 298.635 101.696C296.889 106.788 292.815 109.116 287.723 108.825C274.047 107.807 261.681 104.461 245.822 96.0223Z" fill="#FFCC00"/>
<path fill-rule="evenodd" clip-rule="evenodd" d="M196.065 89.0389C197.665 87.7295 198.684 86.1291 200.721 85.8381C213.524 83.5103 229.382 90.3482 240.585 94.7129C243.64 95.8768 241.748 98.2046 239.421 98.6411C236.656 99.223 234.62 98.9321 232.001 97.9137C219.925 93.4035 210.323 86.5655 196.502 89.6208C195.338 89.9118 194.756 90.0573 196.065 89.0389Z" fill="#FFCC00"/>
<path fill-rule="evenodd" clip-rule="evenodd" d="M236.947 100.096C240.73 99.9505 243.349 98.7866 243.494 96.6042C253.242 100.969 271.719 110.862 290.196 109.698C288.45 114.79 285.686 115.954 280.594 115.663C275.065 115.227 269.682 113.772 264.008 111.881C255.57 109.262 246.404 105.188 236.947 100.096Z" fill="#FFCC00"/>
<path fill-rule="evenodd" clip-rule="evenodd" d="M190.828 93.9854C192.428 92.676 193.592 91.3667 195.483 90.9302C208.432 87.7295 219.78 94.2764 230.982 98.9321C234.038 100.241 232.437 102.133 230.109 102.569C227.345 103.151 225.308 102.86 222.69 101.842C210.614 97.3317 205.231 91.5122 191.41 94.5674C190.246 94.7129 189.664 95.0039 190.828 93.9854Z" fill="#FFCC00"/>
<path fill-rule="evenodd" clip-rule="evenodd" d="M227.49 104.024C231.273 103.879 233.892 102.715 234.037 100.532C240.73 103.297 261.244 114.79 279.43 116.827C277.684 121.919 274.047 121.483 268.954 121.192C259.207 120.61 236.074 108.68 227.49 104.024Z" fill="#FFCC00"/>
<path fill-rule="evenodd" clip-rule="evenodd" d="M186.463 98.3501C188.063 97.0407 187.918 96.6043 189.809 96.0223C203.631 92.0941 211.196 98.4956 222.399 103.151C225.454 104.461 224.581 105.77 222.253 106.207C219.489 106.788 217.743 105.625 215.124 104.752C203.194 100.969 201.448 97.7682 187.045 98.7866C185.735 98.9321 185.299 99.2231 186.463 98.3501Z" fill="#FFCC00"/>
<path fill-rule="evenodd" clip-rule="evenodd" d="M219.634 107.807C223.271 107.661 225.454 106.643 225.599 104.461C230.691 106.643 244.076 114.499 257.898 119.591C261.389 120.901 265.172 122.356 268.664 122.647C262.844 133.558 227.054 110.28 219.634 107.807Z" fill="#FFCC00"/>
<path fill-rule="evenodd" clip-rule="evenodd" d="M182.68 101.26C184.281 99.9505 183.99 99.9505 185.881 99.805C202.758 99.0775 204.358 102.715 213.96 105.916C217.161 106.934 215.561 108.68 213.233 108.825C204.503 109.553 194.61 100.387 183.844 101.842C182.68 101.987 181.371 102.278 182.68 101.26Z" fill="#FFCC00"/>
<path fill-rule="evenodd" clip-rule="evenodd" d="M211.487 110.571C215.124 110.426 216.87 109.844 216.87 107.661C229.236 112.608 244.658 123.665 257.316 125.847C256.588 127.302 255.424 128.321 253.969 128.903C249.459 130.649 243.058 127.302 239.13 125.411C228.072 120.319 215.56 111.881 211.487 110.571Z" fill="#FFCC00"/>
<path fill-rule="evenodd" clip-rule="evenodd" d="M203.048 112.753C205.813 112.462 207.413 111.735 208.286 110.135C219.634 115.663 229.527 123.229 241.166 128.175C241.021 128.466 240.875 128.757 240.73 128.903C230.837 135.159 209.886 117.555 202.612 113.335C201.157 112.608 201.739 112.899 203.048 112.753Z" fill="#FFCC00"/>
<path fill-rule="evenodd" clip-rule="evenodd" d="M191.7 116.391C194.464 116.1 197.083 114.79 198.247 113.481C198.393 113.19 198.538 113.044 198.684 112.753C199.266 113.044 199.848 113.335 200.284 113.772C209.304 119.155 213.087 123.956 224.29 128.466C224.144 128.757 223.999 129.048 223.853 129.194C212.651 135.45 201.157 121.337 191.7 117.118C190.245 116.536 190.1 116.536 191.7 116.391Z" fill="#FFCC00"/>
<path fill-rule="evenodd" clip-rule="evenodd" d="M179.48 103.879C181.08 102.569 180.789 103.006 182.68 102.86C185.736 102.715 188.791 102.569 191.555 103.442C195.92 104.752 199.994 107.37 204.795 108.534C205.959 108.825 206.541 109.116 206.541 109.407C206.832 110.571 203.049 112.317 200.139 111.735C193.883 110.426 190.537 106.352 180.644 104.606C179.48 104.315 178.316 104.897 179.48 103.879Z" fill="#FFCC00"/>
<path fill-rule="evenodd" clip-rule="evenodd" d="M184.426 113.19L174.533 107.37L177.879 105.188C179.334 105.188 182.535 105.915 186.026 107.37C189.373 108.825 193.446 110.135 195.338 111.88C197.083 113.481 195.338 114.208 192.282 115.081C188.5 115.954 187.772 115.081 184.426 113.19Z" fill="#FFCC00"/>
<path fill-rule="evenodd" clip-rule="evenodd" d="M133.068 108.825L133.359 108.971L134.232 108.534C135.396 107.952 136.705 107.661 137.869 107.079L141.361 105.334L138.015 103.297C132.632 100.096 127.394 95.0039 123.029 90.4937C118.81 86.4201 114.591 82.0554 110.081 78.2727C104.843 73.9081 100.042 71.8712 93.2043 71.2893C92.4768 71.2893 91.8949 71.1438 91.1674 71.1438C84.6204 70.8528 78.0735 72.8897 71.963 74.9265C56.9777 79.8731 42.7198 87.293 27.298 91.2212C20.8965 92.2396 12.4582 92.967 6.20222 90.6392C4.31087 90.0573 1.98306 89.7663 0.673667 91.5122C-0.781216 93.549 0.382686 96.1678 1.69208 97.7682C2.56501 98.7866 3.58343 99.805 4.60185 100.678L5.1838 102.133C6.78418 106.497 9.83943 109.407 13.9131 110.28C15.9499 115.809 19.1507 117.7 24.5338 117.555C26.5706 123.083 30.3533 123.52 35.1544 123.229L35.2999 123.52C37.3367 127.302 41.9924 127.884 46.939 127.157C47.9574 128.903 49.4123 130.212 51.3036 130.794C54.9408 132.103 59.16 130.94 63.0882 129.485C63.3792 129.921 63.5246 130.358 64.1066 130.649C68.6167 133.558 74.7272 132.249 80.1103 129.921C80.4013 130.358 80.5468 130.649 81.1287 130.94C93.6407 137.923 104.989 123.52 115.173 119.009C116.046 118.573 117.064 118.282 117.355 117.409C118.956 117.118 120.411 116.245 122.593 114.936L133.068 108.825Z" fill="#2C2C2B"/>
<path fill-rule="evenodd" clip-rule="evenodd" d="M133.504 106.643C134.668 106.061 135.978 105.77 137.142 105.188C127.976 99.6595 117.501 87.1475 108.771 80.0186C103.97 75.9449 99.4602 74.0536 93.2042 73.4716C92.6223 73.4716 91.8948 73.3261 91.3129 73.3261C85.0569 73.0352 78.6554 75.072 72.8358 76.9633C57.8505 81.7645 43.1562 89.4753 27.8799 93.258C17.6958 94.8584 10.5668 94.4219 5.62023 92.5306C-0.344796 90.4938 2.27399 97.7682 9.11194 100.678C13.6221 102.569 18.4232 101.696 23.0788 100.823C32.8265 99.0776 42.5743 95.7313 52.613 91.5122C61.1968 87.875 69.1986 83.0739 78.2189 80.3096C86.8027 77.6908 94.0771 77.1088 100.188 79.8731C109.79 84.2378 118.374 98.9321 133.504 106.643Z" fill="#FFCC00"/>
<path fill-rule="evenodd" clip-rule="evenodd" d="M103.534 83.6558C90.5852 73.1806 70.7988 84.5287 57.5594 90.6392C56.1045 91.3667 55.8135 91.2212 55.8135 92.8215C55.959 93.6945 56.9774 94.2764 58.2868 94.5674C61.0511 95.1494 63.0879 94.1309 65.7067 93.1125C77.7823 88.6024 89.7123 82.9283 102.952 84.2377C104.116 84.2377 104.698 84.5287 103.534 83.6558Z" fill="#FFCC00"/>
<path fill-rule="evenodd" clip-rule="evenodd" d="M60.0328 96.0223C56.3956 95.5859 54.2133 94.4219 54.0678 92.2396C43.5926 97.0407 29.4802 101.842 16.3863 103.151C12.6036 103.442 10.2758 102.715 7.22052 101.696C8.96638 106.788 13.0401 109.116 18.1321 108.825C31.9535 107.807 44.32 104.461 60.0328 96.0223Z" fill="#FFCC00"/>
<path fill-rule="evenodd" clip-rule="evenodd" d="M109.935 89.0389C108.335 87.7295 107.317 86.1291 105.28 85.8381C92.4768 83.5103 76.6186 90.3482 65.416 94.7129C62.3607 95.8768 64.2521 98.2046 66.5799 98.6411C69.3441 99.223 71.381 98.9321 73.9998 97.9137C86.0753 93.4035 95.6775 86.5655 109.499 89.6208C110.517 89.9118 111.099 90.0573 109.935 89.0389Z" fill="#FFCC00"/>
<path fill-rule="evenodd" clip-rule="evenodd" d="M69.0534 100.096C65.2707 99.9505 62.6519 98.7866 62.5064 96.6042C52.7587 100.969 34.2817 110.862 15.8047 109.698C17.5505 114.79 20.3148 115.954 25.4069 115.663C30.9354 115.227 36.3185 113.772 41.9926 111.881C50.4309 109.262 59.5967 105.188 69.0534 100.096Z" fill="#FFCC00"/>
<path fill-rule="evenodd" clip-rule="evenodd" d="M115.173 93.9854C113.573 92.676 112.409 91.3667 110.517 90.9302C97.5689 87.7295 86.2208 94.2764 75.0182 98.9321C71.9629 100.241 73.5633 102.133 75.8911 102.569C78.6554 103.151 80.6922 102.86 83.311 101.842C95.3866 97.3317 100.77 91.5122 114.591 94.5674C115.755 94.7129 116.337 95.0039 115.173 93.9854Z" fill="#FFCC00"/>
<path fill-rule="evenodd" clip-rule="evenodd" d="M78.3648 104.024C74.5821 103.879 71.9633 102.715 71.8178 100.532C65.1254 103.297 44.6115 114.79 26.4255 116.827C28.1713 121.919 31.8086 121.483 36.9006 121.192C46.7939 120.61 69.9265 108.68 78.3648 104.024Z" fill="#FFCC00"/>
<path fill-rule="evenodd" clip-rule="evenodd" d="M119.538 98.3501C117.937 97.0407 118.083 96.6043 116.191 96.0223C102.37 92.0941 94.8046 98.4956 83.602 103.151C80.5467 104.461 81.4196 105.77 83.7474 106.207C86.5117 106.788 88.2576 105.625 90.8764 104.752C102.806 100.969 104.552 97.7682 118.956 98.7866C120.12 98.9321 120.701 99.2231 119.538 98.3501Z" fill="#FFCC00"/>
<path fill-rule="evenodd" clip-rule="evenodd" d="M86.2208 107.807C82.5836 107.661 80.4013 106.643 80.2558 104.461C75.1637 106.643 61.7788 114.499 47.9574 119.591C44.4657 120.901 40.683 122.356 37.1913 122.647C43.1563 133.558 78.9464 110.28 86.2208 107.807Z" fill="#FFCC00"/>
<path fill-rule="evenodd" clip-rule="evenodd" d="M123.321 101.26C121.72 99.9505 122.011 99.9505 120.12 99.805C103.243 99.0775 101.643 102.715 92.0405 105.916C88.8398 106.934 90.4401 108.68 92.768 108.825C101.497 109.553 111.39 100.387 122.157 101.842C123.175 101.987 124.484 102.278 123.321 101.26Z" fill="#FFCC00"/>
<path fill-rule="evenodd" clip-rule="evenodd" d="M94.5138 110.571C90.8766 110.426 89.1307 109.844 89.1307 107.661C76.7642 112.608 61.3425 123.665 48.685 125.847C49.4124 127.302 50.5763 128.321 52.0312 128.903C56.5413 130.649 62.9428 127.302 66.871 125.411C77.7826 120.319 90.4401 111.881 94.5138 110.571Z" fill="#FFCC00"/>
<path fill-rule="evenodd" clip-rule="evenodd" d="M102.952 112.753C100.188 112.462 98.5874 111.735 97.7145 110.135C86.3664 115.663 76.4732 123.229 64.8341 128.175C64.9796 128.466 65.1251 128.757 65.2706 128.903C75.1638 135.159 96.1141 117.555 103.389 113.335C104.843 112.608 104.261 112.899 102.952 112.753Z" fill="#FFCC00"/>
<path fill-rule="evenodd" clip-rule="evenodd" d="M114.3 116.391C111.536 116.1 108.917 114.79 107.753 113.481C107.607 113.19 107.462 113.044 107.317 112.753C106.735 113.044 106.153 113.335 105.716 113.772C96.6959 119.155 92.9132 123.956 81.7106 128.466C81.8561 128.757 82.0016 129.048 82.147 129.194C93.3496 135.45 104.843 121.337 114.3 117.118C115.609 116.536 115.9 116.536 114.3 116.391Z" fill="#FFCC00"/>
<path fill-rule="evenodd" clip-rule="evenodd" d="M126.521 103.879C124.921 102.569 125.212 103.006 123.32 102.86C120.265 102.715 117.21 102.569 114.445 103.442C110.081 104.752 106.007 107.37 101.206 108.534C100.042 108.825 99.4602 109.116 99.4602 109.407C99.1692 110.571 102.952 112.317 105.862 111.735C112.118 110.426 115.464 106.352 125.357 104.606C126.521 104.315 127.685 104.897 126.521 103.879Z" fill="#FFCC00"/>
<path fill-rule="evenodd" clip-rule="evenodd" d="M121.574 113.19L131.468 107.37L128.121 105.188C126.667 105.188 123.466 105.915 119.974 107.37C116.628 108.825 112.554 110.135 110.663 111.88C108.917 113.481 110.663 114.208 113.718 115.081C117.501 115.954 118.228 115.081 121.574 113.19Z" fill="#FFCC00"/>
<path fill-rule="evenodd" clip-rule="evenodd" d="M207.849 173.568L55.3772 17.3131C52.1765 13.8214 50.2851 10.1842 49.9941 5.52855C49.8487 4.36464 49.8487 3.49172 49.7032 2.18233L49.5577 0L52.322 0.145486C53.6314 0.145486 54.9407 0.145484 56.2501 0.290972C60.4693 0.727437 63.8155 2.61878 67.0163 5.67404L223.271 158.146C212.796 169.639 215.269 162.656 207.849 173.568Z" fill="#2C2C2B"/>
<path fill-rule="evenodd" clip-rule="evenodd" d="M241.893 200.774C244.367 203.684 247.277 206.303 251.059 207.321C252.951 207.903 254.115 207.903 255.569 206.303C255.86 206.012 256.151 205.721 256.588 205.284C257.897 203.975 258.334 203.247 258.188 201.21C257.897 196.264 255.133 193.063 251.205 190.735C251.205 190.008 251.059 189.28 250.477 188.698L249.168 187.389C248.44 186.662 247.568 186.516 246.695 186.662L224.871 161.783L220.943 156.545L218.033 163.092L207.267 169.93L211.195 173.131L213.669 175.604L237.238 196.409C237.092 197.282 237.238 198.155 237.965 198.737L239.275 200.047C239.857 201.065 241.021 201.21 241.893 200.774Z" fill="#2C2C2B"/>
<path fill-rule="evenodd" clip-rule="evenodd" d="M218.47 165.42L217.451 176.332L215.123 174.15L212.65 171.676L210.904 170.367L218.47 165.42ZM244.949 192.045L245.24 188.262L246.84 190.153L244.949 192.045ZM243.93 186.953L243.348 193.645L240.293 196.7L239.856 196.264L241.02 183.606L243.93 186.953ZM239.856 182.151L238.693 195.1L235.783 192.481L237.092 178.805L239.856 182.151ZM235.783 177.496L234.473 191.463L231.564 188.844L233.019 174.295L235.783 177.496ZM231.564 172.695L230.109 187.534L227.199 184.916L228.654 169.348L231.564 172.695ZM227.49 168.039L226.035 183.897L223.125 181.278L224.726 164.693L227.49 168.039ZM223.271 163.238L221.67 179.969L218.761 177.35L220.07 163.82L221.525 160.765L223.271 163.238Z" fill="#FFCC00"/>
<path fill-rule="evenodd" clip-rule="evenodd" d="M242.33 197.864L246.549 193.354L246.695 193.5C247.859 194.372 249.314 195.536 250.478 196.991C251.787 198.446 252.805 200.192 253.096 202.374C253.096 202.665 253.533 202.956 253.824 202.956C254.115 202.956 254.406 202.52 254.406 202.229C254.115 199.901 252.951 197.864 251.496 196.264C250.187 194.663 248.586 193.354 247.422 192.481L248.295 191.608C252.805 193.79 256.006 196.7 256.297 201.501C256.297 202.811 256.152 202.956 255.279 203.975C254.988 204.266 254.697 204.557 254.26 204.993C253.387 205.866 253.096 205.721 251.787 205.43C248.441 204.411 245.24 202.083 242.33 197.864Z" fill="#FFCC00"/>
<path fill-rule="evenodd" clip-rule="evenodd" d="M248.877 187.243C247.859 186.225 246.113 186.371 245.094 187.534L237.82 195.682C236.802 196.7 236.947 198.446 237.965 199.465L239.275 200.628C240.293 201.647 242.039 201.501 243.058 200.337L250.332 192.19C251.35 191.172 251.205 189.426 250.186 188.407L248.877 187.243Z" fill="#2C2C2B"/>
<path fill-rule="evenodd" clip-rule="evenodd" d="M247.568 188.844L248.877 190.008C249.023 190.153 249.023 190.444 248.877 190.735L241.603 198.883C241.457 199.174 241.021 199.174 240.875 199.028L239.566 197.864C239.42 197.719 239.42 197.428 239.566 197.137L246.84 188.989C246.986 188.698 247.277 188.698 247.568 188.844Z" fill="#FFCC00"/>
<path fill-rule="evenodd" clip-rule="evenodd" d="M215.269 168.621L162.166 114.354L52.031 4.07363C51.8855 8.87475 53.4859 12.3665 56.8322 16.0037L208.577 171.531L215.269 168.621ZM218.179 165.711L163.912 112.608L53.7769 2.47327C58.578 2.32778 62.0697 3.92815 65.7069 7.27438L221.234 159.019L218.179 165.711Z" fill="#D9DBDC"/>
<path fill-rule="evenodd" clip-rule="evenodd" d="M231.709 146.216C234.327 146.361 237.237 144.761 238.838 143.161C241.02 140.978 243.493 136.032 240.729 133.267C238.11 130.649 232.873 132.685 230.545 135.013C228.799 136.759 227.344 139.814 227.635 142.433L206.685 157.273L191.845 178.223C189.226 177.932 186.171 179.387 184.425 181.133C182.243 183.315 180.06 188.553 182.679 191.317C185.298 193.936 190.39 191.608 192.572 189.426C194.173 187.825 195.773 184.916 195.628 182.297L217.887 168.621L231.709 146.216Z" fill="#2C2C2B"/>
<path fill-rule="evenodd" clip-rule="evenodd" d="M216.578 166.875L193.446 181.133C194.319 182.442 193.591 185.498 191.263 187.825C188.79 190.299 185.444 190.881 184.425 189.717C183.407 188.698 183.698 185.061 186.171 182.588C188.353 180.406 191.554 179.824 193.009 180.697L208.431 158.873L230.4 143.452C229.672 142.142 230.109 138.941 232.291 136.614C234.764 134.14 238.401 133.849 239.42 134.868C240.438 135.886 239.856 139.232 237.529 141.706C235.201 144.034 232.145 144.615 230.836 143.888L216.578 166.875Z" fill="#FFCC00"/>
<path fill-rule="evenodd" clip-rule="evenodd" d="M197.083 176.186C196.792 176.477 196.792 176.914 196.937 177.205C197.228 177.496 197.665 177.35 197.956 177.059L212.65 163.529L214.396 166.148C214.687 166.439 215.705 166.293 215.996 166.148C216.287 165.857 216.287 164.984 215.996 164.693L213.377 162.947L226.617 148.253C226.908 147.962 227.199 147.671 226.908 147.38C226.617 147.089 226.326 147.525 226.035 147.816L211.923 161.347L210.177 159.019C209.886 158.728 209.013 159.019 208.867 159.31C208.576 159.601 208.431 160.183 208.722 160.474L211.195 162.074L197.083 176.186Z" fill="#2C2C2B"/>
<path fill-rule="evenodd" clip-rule="evenodd" d="M64.5433 200.483C62.07 203.393 59.0147 205.866 55.232 206.884C53.1952 207.321 52.1768 207.466 50.7219 205.866C50.4309 205.575 50.1399 205.284 49.7035 204.848C48.3941 203.393 47.9576 202.811 48.1031 200.774C48.3941 195.827 51.3038 192.627 55.232 190.444C55.232 189.717 55.3775 188.989 55.9595 188.407L57.2689 187.098C57.9963 186.371 59.0147 186.225 59.8876 186.516L82.1474 161.929L86.221 156.836L89.1308 163.383L99.7514 170.512L95.6778 173.568L93.2045 176.041L69.3444 196.409C69.4899 197.282 69.1989 198.155 68.6169 198.737L67.3075 200.046C66.7256 200.774 65.5617 200.919 64.5433 200.483Z" fill="#2C2C2B"/>
<path fill-rule="evenodd" clip-rule="evenodd" d="M88.6944 165.566L89.5673 176.477L92.0406 174.441L94.5139 171.967L96.2598 170.658L88.6944 165.566ZM61.7791 191.754L61.4881 187.971L59.8877 189.717L61.7791 191.754ZM62.7975 186.516L63.3794 193.209L66.4347 196.264L66.8712 195.827L65.8527 183.17L62.7975 186.516ZM67.0166 181.86L68.0351 194.809L71.0903 192.19L70.0719 178.514L67.0166 181.86ZM71.2358 177.35L72.2542 191.317L75.3095 188.698L74.1456 174.15L71.2358 177.35ZM75.455 172.695L76.6189 187.534L79.6741 184.916L78.5102 169.348L75.455 172.695ZM79.6741 168.039L80.838 183.897L83.8933 181.278L82.5839 164.693L79.6741 168.039ZM83.8933 163.383L85.2027 180.26L88.2579 177.641L87.2395 164.111L85.9301 160.91L83.8933 163.383Z" fill="#FFCC00"/>
<path fill-rule="evenodd" clip-rule="evenodd" d="M64.2522 197.573L60.033 193.063L59.8875 193.209C58.7236 194.081 57.2687 195.245 55.9593 196.7C54.6499 198.155 53.6315 199.901 53.3405 202.083C53.3405 202.374 52.9041 202.665 52.6131 202.665C52.3221 202.665 52.0311 202.229 52.0311 201.938C52.3221 199.61 53.6315 197.573 54.9409 195.973C56.2503 194.372 57.8507 193.209 59.0146 192.336L58.2871 191.463C53.777 193.499 50.5763 196.409 50.1398 201.21C49.9943 202.52 50.1398 202.665 51.1582 203.684C51.4492 203.975 51.7402 204.266 52.1766 204.702C53.0496 205.575 53.3405 205.575 54.6499 205.139C57.9962 203.975 61.1969 201.647 64.2522 197.573Z" fill="#FFCC00"/>
<path fill-rule="evenodd" clip-rule="evenodd" d="M98.1513 173.568L250.623 17.3131C253.824 13.8214 255.715 10.1842 256.006 5.52855C256.152 4.36464 256.152 3.49172 256.297 2.18233L256.443 0L253.678 0.145486C252.369 0.145486 251.06 0.145484 249.75 0.290972C245.531 0.727437 242.185 2.61878 238.984 5.67404L82.7296 158.146C93.2047 169.639 90.5859 162.656 98.1513 173.568Z" fill="#2C2C2B"/>
<path fill-rule="evenodd" clip-rule="evenodd" d="M57.8509 186.807C59.0148 185.789 60.6152 186.08 61.6336 187.098L68.7625 195.391C69.7809 196.555 69.6355 198.155 68.4716 199.174L67.1622 200.337C65.9982 201.356 64.3979 201.065 63.3795 200.046L56.2505 191.754C55.3776 190.59 55.3776 188.989 56.5415 187.971L57.8509 186.807Z" fill="#2C2C2B"/>
<path fill-rule="evenodd" clip-rule="evenodd" d="M59.1603 188.407L57.8509 189.571C57.7054 189.717 57.7054 190.008 57.8509 190.299L64.9798 198.592C65.1253 198.883 65.5618 198.883 65.7072 198.737L67.0166 197.573C67.1621 197.428 67.1621 197.137 67.0166 196.846L59.8877 188.553C59.7422 188.262 59.4513 188.262 59.1603 188.407Z" fill="#FFCC00"/>
<path fill-rule="evenodd" clip-rule="evenodd" d="M90.5859 168.621L143.689 114.354L253.969 4.07364C254.115 8.87475 252.514 12.3665 249.168 16.0037L97.2784 171.385L90.5859 168.621ZM87.8216 165.711L142.089 112.608L252.223 2.47327C247.422 2.32778 243.931 3.92815 240.293 7.27439L84.9119 159.019L87.8216 165.711Z" fill="#D9DBDC"/>
<path fill-rule="evenodd" clip-rule="evenodd" d="M110.081 182.588C109.936 185.207 111.536 188.116 113.136 189.717C115.319 191.899 120.265 194.372 123.03 191.754C125.794 189.135 123.757 183.897 121.429 181.569C119.683 179.824 116.628 178.369 114.009 178.514L99.4605 157.273L78.6556 142.142C78.9466 139.523 77.6372 136.468 75.8914 134.722C73.709 132.394 68.4714 130.212 65.8527 132.831C63.0884 135.45 65.4162 140.542 67.5985 142.724C69.1989 144.324 72.1087 146.07 74.7275 145.925L87.9669 168.33L110.081 182.588Z" fill="#2C2C2B"/>
<path fill-rule="evenodd" clip-rule="evenodd" d="M89.7125 167.021L75.8911 143.597C74.5817 144.324 71.5265 143.742 69.3442 141.415C67.0163 138.941 66.4344 135.595 67.4528 134.577C68.6167 133.558 72.1084 133.849 74.5817 136.323C76.7641 138.65 77.2005 141.851 76.4731 143.161L98.1508 159.019L113.282 181.133C114.591 180.406 117.792 180.842 120.12 183.17C122.447 185.643 122.738 189.28 121.72 190.299C120.556 191.317 117.21 190.735 114.882 188.262C112.7 185.934 111.972 182.879 112.845 181.569L89.7125 167.021Z" fill="#FFCC00"/>
<path fill-rule="evenodd" clip-rule="evenodd" d="M80.6925 147.38C80.4015 147.089 79.965 146.943 79.674 147.234C79.3831 147.525 79.5286 147.962 79.8195 148.253L93.059 163.092L90.4402 164.838C90.1492 165.129 90.2947 166.148 90.4402 166.439C90.7311 166.73 91.6041 166.73 91.8951 166.439L93.6409 163.82L108.19 177.205C108.481 177.496 108.772 177.787 109.063 177.496C109.354 177.205 109.063 176.914 108.626 176.623L95.2413 162.365L97.5691 160.765C97.8601 160.474 97.5691 159.601 97.4236 159.455C97.1326 159.164 96.5507 159.019 96.2597 159.31L94.6593 161.783L80.6925 147.38Z" fill="#2C2C2B"/>
</g>
</svg>
