<svg width="42" height="56" viewBox="0 0 42 56" fill="none" xmlns="http://www.w3.org/2000/svg">
<path d="M17.314 42.4219C17.8471 42.824 19.2479 44.9661 20.3771 47.1174C20.5771 47.4984 20.9665 47.7343 21.3877 47.7343C21.4067 47.7343 21.4256 47.7338 21.4446 47.7329C21.8875 47.7106 22.278 47.4302 22.4473 47.0131C23.3036 44.9031 24.4531 42.7841 24.9584 42.3703C34.8403 40.4529 42 31.6422 42 21.3755C42 9.58895 32.5794 0 21 0C9.42059 0 0 9.58895 0 21.3755C0 26.4478 1.77725 31.3658 5.00418 35.2239C8.16863 39.0069 12.5362 41.5599 17.314 42.4219ZM21 2.33333C31.3154 2.33333 39.7077 10.8757 39.7077 21.3755C39.7077 30.5564 33.2818 38.4301 24.4277 40.0976C23.7592 40.2239 22.9484 40.7176 21.553 43.4519C21.4562 43.6418 21.3624 43.8308 21.2729 44.0154C21.1495 43.8079 21.0198 43.5939 20.8863 43.3786C19.3258 40.8651 18.531 40.2672 17.8178 40.1428C8.82172 38.5737 2.29234 30.681 2.29234 21.3755C2.29234 10.8757 10.6846 2.33333 21 2.33333Z" fill="#D0DBE4"/>
<path d="M30.3878 43.3118C29.7707 43.1713 29.1573 43.5665 29.0188 44.1953C28.8806 44.824 29.2693 45.4479 29.8868 45.5887C34.342 46.6043 36.3712 48.1586 36.3712 49.1731C36.3712 49.8685 35.3127 51.0443 32.3294 52.0702C29.3357 53.0998 25.3331 53.6667 21.0585 53.6667C16.7822 53.6667 12.7783 53.0998 9.78428 52.0702C6.8008 51.0443 5.74208 49.8685 5.74208 49.1731C5.74208 48.2383 7.55635 46.7705 11.5399 45.7568C12.1539 45.6004 12.5273 44.9671 12.3737 44.342C12.2201 43.7169 11.598 43.337 10.9837 43.4931C6.12536 44.7294 3.44974 46.7467 3.44974 49.1731C3.44974 50.6247 4.42146 52.6892 9.0505 54.2808C12.2749 55.3895 16.5393 56 21.0585 56C25.5761 56 29.8394 55.3895 33.0632 54.2809C37.692 52.6892 38.6635 50.6248 38.6635 49.1732C38.6635 46.6098 35.7245 44.5283 30.3878 43.3118Z" fill="#D0DBE4"/>
<path d="M10.8846 18.636V28.338C10.8846 28.9823 11.3979 29.5047 12.0308 29.5047H13.5535V32.4136C13.5535 33.058 14.0666 33.5803 14.6996 33.5803C15.3325 33.5803 15.8458 33.058 15.8458 32.4136V29.5047H26.9007V32.4136C26.9007 33.058 27.414 33.5803 28.0469 33.5803C28.6798 33.5803 29.193 33.058 29.193 32.4136V29.5047H30.7157C31.3486 29.5047 31.8619 28.9823 31.8619 28.338V18.636H34.7198C35.3527 18.636 35.8659 18.1137 35.8659 17.4693C35.8659 16.825 35.3527 16.3027 34.7198 16.3027H31.8619V12.0345C31.8619 11.3902 31.3486 10.8679 30.7157 10.8679H12.0308C11.3979 10.8679 10.8846 11.3902 10.8846 12.0345V16.3027H8.02502C7.3921 16.3027 6.87885 16.825 6.87885 17.4693C6.87885 18.1137 7.3921 18.636 8.02502 18.636H10.8846ZM24.2304 27.1714H18.5145V24.07H24.2304V27.1714ZM29.5697 27.1714H26.5227V24.07H29.5697V27.1714ZM13.1769 13.2012H29.5696V21.7365H13.1769V13.2012ZM13.1769 24.07H16.2221V27.1714H13.1769V24.07Z" fill="#D0DBE4"/>
</svg>
