<svg width="34" height="20" viewBox="0 0 34 20" fill="none" xmlns="http://www.w3.org/2000/svg">
<path d="M9.20833 17.1429H6.375C5.984 17.1429 5.66667 16.8229 5.66667 16.4286C5.66667 16.0343 5.984 15.7143 6.375 15.7143H9.20833C9.59933 15.7143 9.91667 16.0343 9.91667 16.4286C9.91667 16.8229 9.59933 17.1429 9.20833 17.1429Z" fill="#8FA7B1"/>
<path d="M32.2292 17.1429H30.4583C30.0673 17.1429 29.75 16.8229 29.75 16.4286C29.75 16.0343 30.0673 15.7143 30.4583 15.7143H31.6412L32.5961 10.5829C32.5833 7.95714 30.3592 5.71429 27.625 5.71429H22.9741L20.7202 15.7143H24.7917C25.1827 15.7143 25.5 16.0343 25.5 16.4286C25.5 16.8229 25.1827 17.1429 24.7917 17.1429H19.8333C19.618 17.1429 19.414 17.0443 19.2794 16.8743C19.1448 16.7057 19.0938 16.4829 19.142 16.2714L21.7175 4.84286C21.7912 4.51571 22.0773 4.28571 22.4088 4.28571H27.625C31.1397 4.28571 34 7.17 34 10.7143L32.9247 16.56C32.8624 16.8986 32.5706 17.1429 32.2292 17.1429Z" fill="#8FA7B1"/>
<path d="M27.625 20C25.6728 20 24.0833 18.3986 24.0833 16.4286C24.0833 14.4586 25.6728 12.8571 27.625 12.8571C29.5772 12.8571 31.1667 14.4586 31.1667 16.4286C31.1667 18.3986 29.5772 20 27.625 20ZM27.625 14.2857C26.4534 14.2857 25.5 15.2471 25.5 16.4286C25.5 17.61 26.4534 18.5714 27.625 18.5714C28.7966 18.5714 29.75 17.61 29.75 16.4286C29.75 15.2471 28.7966 14.2857 27.625 14.2857Z" fill="#8FA7B1"/>
<path d="M12.0417 20C10.0895 20 8.5 18.3986 8.5 16.4286C8.5 14.4586 10.0895 12.8571 12.0417 12.8571C13.9938 12.8571 15.5833 14.4586 15.5833 16.4286C15.5833 18.3986 13.9938 20 12.0417 20ZM12.0417 14.2857C10.8701 14.2857 9.91667 15.2471 9.91667 16.4286C9.91667 17.61 10.8701 18.5714 12.0417 18.5714C13.2133 18.5714 14.1667 17.61 14.1667 16.4286C14.1667 15.2471 13.2133 14.2857 12.0417 14.2857Z" fill="#8FA7B1"/>
<path d="M9.20833 4.28571H3.54167C3.15067 4.28571 2.83333 3.96571 2.83333 3.57143C2.83333 3.17714 3.15067 2.85714 3.54167 2.85714H9.20833C9.59933 2.85714 9.91667 3.17714 9.91667 3.57143C9.91667 3.96571 9.59933 4.28571 9.20833 4.28571Z" fill="#8FA7B1"/>
<path d="M9.20833 8.57143H2.125C1.734 8.57143 1.41667 8.25143 1.41667 7.85714C1.41667 7.46286 1.734 7.14286 2.125 7.14286H9.20833C9.59933 7.14286 9.91667 7.46286 9.91667 7.85714C9.91667 8.25143 9.59933 8.57143 9.20833 8.57143Z" fill="#8FA7B1"/>
<path d="M9.20833 12.8571H0.708333C0.317333 12.8571 0 12.5371 0 12.1429C0 11.7486 0.317333 11.4286 0.708333 11.4286H9.20833C9.59933 11.4286 9.91667 11.7486 9.91667 12.1429C9.91667 12.5371 9.59933 12.8571 9.20833 12.8571Z" fill="#8FA7B1"/>
<path d="M19.8333 17.1429H14.875C14.484 17.1429 14.1667 16.8229 14.1667 16.4286C14.1667 16.0343 14.484 15.7143 14.875 15.7143H19.2681L22.4868 1.42857H6.375C5.984 1.42857 5.66667 1.10857 5.66667 0.714286C5.66667 0.32 5.984 0 6.375 0H23.375C23.5903 0 23.7943 0.0985717 23.9289 0.268572C24.0635 0.437143 24.1145 0.66 24.0663 0.871429L20.5247 16.5857C20.451 16.9129 20.1634 17.1429 19.8333 17.1429Z" fill="#8FA7B1"/>
</svg>
