<svg width="21" height="21" viewBox="0 0 21 21" fill="none" xmlns="http://www.w3.org/2000/svg">
<path d="M16.2582 21H0.903233C0.406455 21 0 20.5927 0 20.0948V4.70689C0 4.20904 0.406455 3.80172 0.903233 3.80172H7.22587C7.72265 3.80172 8.1291 4.20904 8.1291 4.70689C8.1291 5.20473 7.72265 5.61206 7.22587 5.61206H1.80647V19.1897H15.355V12.8534C15.355 12.3556 15.7614 11.9483 16.2582 11.9483C16.755 11.9483 17.1614 12.3556 17.1614 12.8534V20.0948C17.1614 20.5927 16.755 21 16.2582 21Z" fill="#61717A"/>
<path d="M6.68375 15.2522C6.45794 15.2522 6.23213 15.1616 6.05149 14.9806C5.82568 14.7543 5.73536 14.4828 5.78052 14.2112L6.5031 9.68535C6.54826 9.50432 6.63859 9.32328 6.77407 9.18751L15.6258 0.271552C15.9871 -0.0905173 16.529 -0.0905173 16.8903 0.271552L20.729 4.07328C20.9097 4.25431 21 4.48061 21 4.7069C21 4.93319 20.9097 5.15949 20.729 5.34052L11.8322 14.2565C11.6967 14.3923 11.516 14.4828 11.3354 14.528L6.81923 15.2522C6.77407 15.2069 6.72891 15.2522 6.68375 15.2522ZM8.21925 10.2285L7.76763 13.2608L10.7935 12.7629L18.7871 4.7069L16.258 2.17242L8.21925 10.2285Z" fill="#61717A"/>
<path d="M17.4774 7.96552C17.2516 7.96552 17.0258 7.875 16.8451 7.69397L13.3225 4.1638C12.9612 3.80173 12.9612 3.25862 13.3225 2.89655C13.6838 2.53448 14.2257 2.53448 14.587 2.89655L18.1097 6.42673C18.4709 6.7888 18.4709 7.3319 18.1097 7.69397C17.929 7.875 17.7032 7.96552 17.4774 7.96552Z" fill="#61717A"/>
</svg>
