<svg width="69" height="69" viewBox="0 0 69 69" fill="none" xmlns="http://www.w3.org/2000/svg">
<path d="M58.8953 10.1047C52.3789 3.58854 43.7153 0 34.5 0C25.2847 0 16.621 3.58854 10.1047 10.1047C3.5884 16.6209 0 25.2847 0 34.5C0 43.7153 3.58854 52.3789 10.1047 58.8953C16.6209 65.4116 25.2847 69 34.5 69C43.7153 69 52.3789 65.4115 58.8953 58.8953C65.4116 52.3791 69 43.7153 69 34.5C69 25.2847 65.4115 16.621 58.8953 10.1047ZM57.3705 57.3705C51.2616 63.4795 43.1393 66.8438 34.5 66.8438C25.8607 66.8438 17.7384 63.4795 11.6295 57.3705C5.52054 51.2616 2.15625 43.1393 2.15625 34.5C2.15625 25.8607 5.52054 17.7384 11.6295 11.6295C17.7384 5.52054 25.8607 2.15625 34.5 2.15625C43.1393 2.15625 51.2616 5.52054 57.3705 11.6295C63.4795 17.7384 66.8438 25.8607 66.8438 34.5C66.8438 43.1393 63.4795 51.2616 57.3705 57.3705Z" fill="#D0DBE4"/>
<path d="M6.46875 34.5C6.46875 19.0436 19.0436 6.46875 34.5 6.46875C40.075 6.46875 45.4599 8.1009 50.0728 11.1888C50.5676 11.52 51.2372 11.3874 51.5685 10.8926C51.8997 10.3978 51.7671 9.72819 51.2723 9.39694C46.3033 6.07065 40.5035 4.3125 34.5 4.3125C26.4366 4.3125 18.8559 7.45254 13.1542 13.1542C7.45254 18.8559 4.3125 26.4366 4.3125 34.5C4.3125 41.9391 7.04204 49.086 11.9985 54.6243C12.2114 54.8623 12.5063 54.9834 12.8022 54.9834C13.0581 54.9834 13.3151 54.8929 13.5208 54.7086C13.9644 54.3115 14.0023 53.63 13.6051 53.1863C9.00329 48.0439 6.46875 41.4077 6.46875 34.5Z" fill="#D0DBE4"/>
<path d="M59.6032 17.728C59.2719 17.2332 58.6023 17.1005 58.1076 17.4318C57.6128 17.7631 57.4801 18.4327 57.8114 18.9274C60.8991 23.5402 62.5312 28.9252 62.5312 34.5C62.5312 49.9564 49.9564 62.5312 34.5 62.5312C28.0874 62.5312 21.8191 60.3104 16.8499 56.278C16.3875 55.9028 15.7086 55.9734 15.3334 56.4358C14.9582 56.8982 15.0288 57.5771 15.4912 57.9523C20.8434 62.2955 27.5942 64.6875 34.5 64.6875C42.5634 64.6875 50.1441 61.5475 55.8458 55.8458C61.5475 50.1441 64.6875 42.5634 64.6875 34.5C64.6875 28.4966 62.9293 22.6968 59.6032 17.728Z" fill="#D0DBE4"/>
<path d="M53.1863 13.6053C53.9112 14.2539 54.6101 14.9481 55.2636 15.6683C55.4764 15.9027 55.7688 16.0219 56.0624 16.0219C56.3207 16.0219 56.5801 15.9294 56.7866 15.7421C57.2274 15.342 57.2606 14.6601 56.8604 14.2191C56.157 13.4439 55.4046 12.6968 54.6243 11.9985C54.1806 11.6014 53.499 11.6392 53.102 12.0828C52.705 12.5265 52.7425 13.2081 53.1863 13.6053Z" fill="#D0DBE4"/>
<path d="M34.5 14.0156C35.0954 14.0156 35.5781 13.5329 35.5781 12.9375V9.70312C35.5781 9.10773 35.0954 8.625 34.5 8.625C33.9046 8.625 33.4219 9.10773 33.4219 9.70312V12.9375C33.4219 13.5329 33.9046 14.0156 34.5 14.0156Z" fill="#D0DBE4"/>
<path d="M33.4219 56.0625V59.2969C33.4219 59.8923 33.9046 60.375 34.5 60.375C35.0954 60.375 35.5781 59.8923 35.5781 59.2969V56.0625C35.5781 55.4671 35.0954 54.9844 34.5 54.9844C33.9046 54.9844 33.4219 55.4671 33.4219 56.0625Z" fill="#D0DBE4"/>
<path d="M14.0156 34.5C14.0156 33.9046 13.5329 33.4219 12.9375 33.4219H9.70312C9.10773 33.4219 8.625 33.9046 8.625 34.5C8.625 35.0954 9.10773 35.5781 9.70312 35.5781H12.9375C13.5329 35.5781 14.0156 35.0954 14.0156 34.5Z" fill="#D0DBE4"/>
<path d="M54.9844 34.5C54.9844 35.0954 55.4671 35.5781 56.0625 35.5781H59.2969C59.8923 35.5781 60.375 35.0954 60.375 34.5C60.375 33.9046 59.8923 33.4219 59.2969 33.4219H56.0625C55.4671 33.4219 54.9844 33.9046 54.9844 34.5Z" fill="#D0DBE4"/>
<path d="M24.6524 15.2873L23.0352 12.4862C22.7375 11.9704 22.0781 11.794 21.5625 12.0916C21.0469 12.3893 20.8702 13.0487 21.1679 13.5643L22.7851 16.3654C22.9848 16.7112 23.3472 16.9046 23.7198 16.9046C23.9027 16.9046 24.0881 16.858 24.2579 16.76C24.7734 16.4623 24.9501 15.8029 24.6524 15.2873Z" fill="#D0DBE4"/>
<path d="M46.2149 52.6346C45.9172 52.119 45.2577 51.9426 44.7422 52.24C44.2266 52.5377 44.0499 53.1971 44.3476 53.7127L45.9648 56.5138C46.1645 56.8596 46.5269 57.053 46.8995 57.053C47.0824 57.053 47.2678 57.0064 47.4376 56.9084C47.9532 56.6107 48.1299 55.9513 47.8322 55.4357L46.2149 52.6346Z" fill="#D0DBE4"/>
<path d="M13.0263 47.9767C13.2092 47.9767 13.3946 47.9301 13.5644 47.8321L16.3655 46.2149C16.8811 45.9172 17.0578 45.2578 16.7601 44.7422C16.4624 44.2266 15.8029 44.0502 15.2874 44.3476L12.4863 45.9648C11.9707 46.2625 11.794 46.9219 12.0917 47.4375C12.2913 47.7833 12.6537 47.9767 13.0263 47.9767Z" fill="#D0DBE4"/>
<path d="M53.1746 24.797C53.3575 24.797 53.5429 24.7504 53.7127 24.6524L56.5138 23.0352C57.0294 22.7375 57.2061 22.0781 56.9084 21.5625C56.6107 21.0469 55.9513 20.8705 55.4357 21.1679L52.6346 22.7851C52.119 23.0828 51.9423 23.7422 52.24 24.2578C52.4397 24.6036 52.8021 24.797 53.1746 24.797Z" fill="#D0DBE4"/>
<path d="M47.4375 12.0916C46.9219 11.7937 46.2625 11.9704 45.9648 12.4862L44.3476 15.2873C44.0499 15.8029 44.2266 16.4623 44.7422 16.76C44.912 16.8581 45.0973 16.9046 45.2803 16.9046C45.6529 16.9046 46.0153 16.7112 46.215 16.3654L47.8322 13.5643C48.1298 13.0487 47.9531 12.3893 47.4375 12.0916Z" fill="#D0DBE4"/>
<path d="M24.2578 52.24C23.7422 51.9423 23.0828 52.119 22.7851 52.6346L21.1679 55.4357C20.8702 55.9513 21.0469 56.6107 21.5625 56.9084C21.7323 57.0065 21.9176 57.053 22.1006 57.053C22.4732 57.053 22.8356 56.8596 23.0354 56.5138L24.6525 53.7127C24.9501 53.1971 24.7734 52.5377 24.2578 52.24Z" fill="#D0DBE4"/>
<path d="M52.6346 46.2149L55.4357 47.8321C55.6055 47.9302 55.7908 47.9767 55.9738 47.9767C56.3464 47.9767 56.7088 47.7833 56.9086 47.4375C57.2063 46.9219 57.0296 46.2625 56.514 45.9648L53.7129 44.3476C53.1972 44.0498 52.5378 44.2266 52.2401 44.7422C51.9423 45.2578 52.119 45.9172 52.6346 46.2149Z" fill="#D0DBE4"/>
<path d="M16.3654 22.7851L13.5643 21.1679C13.0487 20.8701 12.3893 21.0469 12.0916 21.5625C11.7939 22.0781 11.9706 22.7375 12.4862 23.0352L15.2873 24.6524C15.4571 24.7505 15.6424 24.797 15.8254 24.797C16.198 24.797 16.5604 24.6036 16.7601 24.2578C17.0577 23.7422 16.881 23.0828 16.3654 22.7851Z" fill="#D0DBE4"/>
<path d="M42.0054 48.5764C42.1882 48.5764 42.3737 48.5298 42.5435 48.4318C43.0591 48.1341 43.2358 47.4747 42.9381 46.9591L36.9572 36.5998C37.4411 36.0342 37.7344 35.3009 37.7344 34.5C37.7344 33.0945 36.8329 31.8961 35.5781 31.4511V17.25C35.5781 16.6546 35.0954 16.1719 34.5 16.1719C33.9046 16.1719 33.4219 16.6546 33.4219 17.25V31.4511C32.1671 31.8961 31.2656 33.0945 31.2656 34.5C31.2656 36.2835 32.7165 37.7344 34.5 37.7344C34.7017 37.7344 34.899 37.7148 35.0907 37.6794L41.0708 48.0372C41.2705 48.383 41.6329 48.5764 42.0054 48.5764ZM33.4219 34.5C33.4219 33.9055 33.9055 33.4219 34.5 33.4219C35.0945 33.4219 35.5781 33.9055 35.5781 34.5C35.5781 35.0945 35.0945 35.5781 34.5 35.5781C33.9055 35.5781 33.4219 35.0945 33.4219 34.5Z" fill="#D0DBE4"/>
</svg>
