<svg width="14" height="16" viewBox="0 0 14 16" fill="none" xmlns="http://www.w3.org/2000/svg">
<path d="M6.94034 8.62125C6.95738 8.62125 6.97442 8.62125 6.99487 8.62125C7.00169 8.62125 7.00851 8.62125 7.01532 8.62125C7.02555 8.62125 7.03918 8.62125 7.04941 8.62125C8.04806 8.60468 8.85584 8.26341 9.4523 7.61069C10.7645 6.17271 10.5464 3.7076 10.5225 3.47235C10.4373 1.70636 9.57841 0.861462 8.86947 0.467178C8.34117 0.172292 7.72426 0.0132533 7.03577 0H7.01192C7.00851 0 7.00169 0 6.99828 0H6.97783C6.5995 0 5.85648 0.0596397 5.14414 0.453924C4.42838 0.848209 3.55584 1.6931 3.47063 3.47235C3.44678 3.7076 3.22864 6.17271 4.54086 7.61069C5.13391 8.26341 5.94169 8.60468 6.94034 8.62125ZM4.38067 3.55519C4.38067 3.54525 4.38407 3.53531 4.38407 3.52868C4.49655 1.15303 6.2314 0.897909 6.97442 0.897909H6.98806C6.99487 0.897909 7.0051 0.897909 7.01532 0.897909C7.93558 0.917788 9.50002 1.28225 9.60567 3.52868C9.60567 3.53862 9.60567 3.54856 9.60908 3.55519C9.61249 3.57838 9.85108 5.83144 8.76722 7.0176C8.33777 7.48809 7.76516 7.72003 7.01192 7.72665C7.0051 7.72665 7.00169 7.72665 6.99487 7.72665C6.98806 7.72665 6.98465 7.72665 6.97783 7.72665C6.22799 7.72003 5.65198 7.48809 5.22594 7.0176C4.14549 5.83806 4.37726 3.57507 4.38067 3.55519Z" fill="#A2ACB5"/>
<path d="M13.999 12.7099C13.999 12.7066 13.999 12.7033 13.999 12.6999C13.999 12.6734 13.9956 12.6469 13.9956 12.6171C13.9752 11.9611 13.9309 10.427 12.4517 9.93663C12.4414 9.93332 12.4278 9.93001 12.4176 9.92669C10.8804 9.54566 9.60227 8.6842 9.58863 8.67426C9.38072 8.53179 9.09442 8.58149 8.94786 8.7836C8.8013 8.98571 8.85243 9.26403 9.06034 9.4065C9.11828 9.44626 10.4748 10.3641 12.1722 10.7882C12.9663 11.0632 13.0549 11.8882 13.0788 12.6436C13.0788 12.6734 13.0788 12.6999 13.0822 12.7264C13.0856 13.0246 13.0652 13.4852 13.0106 13.7503C12.4585 14.0551 10.2942 15.1087 7.00169 15.1087C3.72285 15.1087 1.54491 14.0518 0.989351 13.7469C0.934817 13.4819 0.910959 13.0213 0.917775 12.7231C0.917775 12.6966 0.921184 12.6701 0.921184 12.6403C0.945042 11.8849 1.03366 11.0598 1.82781 10.7848C3.52517 10.3607 4.88169 9.43964 4.93964 9.40319C5.14755 9.26072 5.19867 8.9824 5.05211 8.78029C4.90555 8.57817 4.61925 8.52847 4.41134 8.67095C4.39771 8.68089 3.12639 9.54235 1.5824 9.92338C1.56877 9.92669 1.55855 9.93001 1.54832 9.93332C0.0690948 10.427 0.0247862 11.9611 0.00433607 12.6138C0.00433607 12.6436 0.00433599 12.6701 0.000927633 12.6966C0.000927633 12.6999 0.000927633 12.7033 0.000927633 12.7066C-0.00248072 12.8789 -0.00588901 13.7635 0.174754 14.2075C0.208837 14.2936 0.270188 14.3665 0.351988 14.4162C0.454239 14.4825 2.90485 16 7.0051 16C11.1054 16 13.556 14.4792 13.6582 14.4162C13.7366 14.3665 13.8014 14.2936 13.8354 14.2075C14.0059 13.7668 14.0025 12.8822 13.999 12.7099Z" fill="#A2ACB5"/>
</svg>
