<svg width="27" height="27" viewBox="0 0 27 27" fill="none" xmlns="http://www.w3.org/2000/svg">
<path d="M26.3167 26.9889C26.6944 26.9889 27 26.6833 27 26.3054V6.31241C27 6.11237 26.9111 5.92344 26.7611 5.79564L20.1667 0.155588C20.1556 0.144474 20.1444 0.138917 20.1333 0.133361C20.1167 0.122247 20.1056 0.111134 20.0889 0.100021C20.0667 0.0889072 20.05 0.0777938 20.0278 0.0666804C20.0111 0.0611237 19.9944 0.0500103 19.9778 0.0444536C19.9556 0.0333402 19.9278 0.0277835 19.9056 0.0222268C19.8889 0.0166701 19.8722 0.0111134 19.8556 0.0111134C19.8111 0.0055567 19.7722 0 19.7278 0H0.683333C0.305556 0 0 0.305618 0 0.683474V26.3165C0 26.6944 0.305556 27 0.683333 27H26.3167V26.9889ZM21.3611 25.6275H5.63889V15.3976C5.63889 15.192 5.80556 15.0309 6.00556 15.0309H20.9944C21.2 15.0309 21.3611 15.1976 21.3611 15.3976V25.6275ZM8.98889 1.35583H19.0389V8.4573C19.0389 8.50175 19.0056 8.53509 18.9611 8.53509H9.07222C9.02778 8.53509 8.99444 8.49619 8.99444 8.4573V1.35583H8.98889ZM1.36667 1.35583H7.63333V8.4573C7.63333 9.2519 8.27778 9.89648 9.07222 9.89648H18.9611C19.7556 9.89648 20.4 9.2519 20.4 8.4573V2.15044L25.6333 6.62914V25.6275H22.7222V15.3976C22.7222 14.4419 21.9444 13.6695 20.9944 13.6695H6.00556C5.05 13.6695 4.27778 14.4474 4.27778 15.3976V25.6331H1.36667V1.35583Z" fill="#88A1AC"/>
<path d="M12.6333 4.312H15.6222V6.12348C15.6222 6.50134 15.9278 6.80696 16.3056 6.80696C16.6833 6.80696 16.9889 6.50134 16.9889 6.12348V3.63408C16.9889 3.25622 16.6833 2.95061 16.3056 2.95061H12.6333C12.2556 2.95061 11.95 3.25622 11.95 3.63408C11.95 4.01194 12.2611 4.312 12.6333 4.312Z" fill="#88A1AC"/>
<path d="M16.9167 17.937H10.0833C9.70556 17.937 9.4 18.2426 9.4 18.6205C9.4 18.9984 9.70556 19.304 10.0833 19.304H16.9167C17.2944 19.304 17.6 18.9984 17.6 18.6205C17.6 18.2426 17.2944 17.937 16.9167 17.937Z" fill="#88A1AC"/>
<path d="M16.9167 21.5433H10.0833C9.70556 21.5433 9.4 21.8489 9.4 22.2268C9.4 22.6047 9.70556 22.9103 10.0833 22.9103H16.9167C17.2944 22.9103 17.6 22.6047 17.6 22.2268C17.6 21.8489 17.2944 21.5433 16.9167 21.5433Z" fill="#88A1AC"/>
</svg>
