<svg width="219" height="48" viewBox="0 0 219 48" fill="none" xmlns="http://www.w3.org/2000/svg">
<path d="M16.744 11.044C16.744 10.68 16.464 10.4 16.1 10.4H0.644C0.28 10.4 0 10.68 0 11.044V29.356C0 29.72 0.28 30 0.644 30H2.156C2.52 30 2.8 29.72 2.8 29.356V13.144H13.944V29.356C13.944 29.72 14.252 30 14.616 30H16.1C16.464 30 16.744 29.72 16.744 29.356V11.044ZM33.6335 18.268C33.6335 18.576 33.3815 18.828 33.0735 18.828H22.9655C22.6575 18.828 22.4055 18.576 22.4055 18.268V13.76C22.4055 13.452 22.6575 13.2 22.9655 13.2H33.0735C33.3815 13.2 33.6335 13.452 33.6335 13.76V18.268ZM33.0735 10.4H22.9655C21.1175 10.4 19.6055 11.912 19.6055 13.76V29.44C19.6055 29.748 19.8575 30 20.1655 30H21.8455C22.1535 30 22.4055 29.748 22.4055 29.44V22.188C22.4055 21.88 22.6575 21.628 22.9655 21.628H33.0735C34.9495 21.628 36.4335 20.116 36.4335 18.268V13.76C36.4335 11.912 34.9495 10.4 33.0735 10.4ZM53.2109 26.64C53.2109 26.948 52.9589 27.2 52.6509 27.2H42.5709C42.2629 27.2 42.0109 26.948 42.0109 26.64V13.76C42.0109 13.452 42.2629 13.2 42.5709 13.2H52.6509C52.9589 13.2 53.2109 13.452 53.2109 13.76V26.64ZM52.6509 10.4H42.5709C40.7229 10.4 39.2109 11.912 39.2109 13.76V26.64C39.2109 28.488 40.7229 30 42.5709 30H52.6509C54.4989 30 56.0109 28.488 56.0109 26.64V13.76C56.0109 11.912 54.4989 10.4 52.6509 10.4ZM78.3604 10.96C78.3604 10.652 78.1084 10.4 77.8004 10.4H75.8124C75.6444 10.4 75.5044 10.456 75.4204 10.568L68.7844 17.176C68.6724 17.288 68.5044 17.288 68.3924 17.176L61.7844 10.568C61.6724 10.456 61.5324 10.4 61.3924 10.4H59.3764C59.0684 10.4 58.8164 10.652 58.8164 10.96V29.44C58.8164 29.748 59.0684 30 59.3764 30H61.0564C61.3644 30 61.6164 29.748 61.6164 29.44V15.048C61.6164 14.796 61.9244 14.656 62.0924 14.824L67.3004 20.032C67.4124 20.144 67.5524 20.2 67.6924 20.2H69.4844C69.6244 20.2 69.7924 20.144 69.8764 20.032L75.0844 14.824C75.2804 14.656 75.5604 14.796 75.5604 15.048V29.44C75.5604 29.748 75.8124 30 76.1204 30H77.8004C78.1084 30 78.3604 29.748 78.3604 29.44V10.96ZM143.333 13.2H156.157C156.465 13.2 156.717 12.948 156.717 12.64V10.96C156.717 10.652 156.465 10.4 156.157 10.4H143.333C141.485 10.4 139.973 11.912 139.973 13.76V26.64C139.973 28.488 141.485 30 143.333 30H156.157C156.465 30 156.717 29.748 156.717 29.44V27.76C156.717 27.452 156.465 27.2 156.157 27.2H143.333C143.025 27.2 142.773 26.948 142.773 26.64V13.76C142.773 13.452 143.025 13.2 143.333 13.2ZM173.578 10.96V18.24C173.578 18.548 173.326 18.8 173.018 18.8H162.938C162.63 18.8 162.378 18.548 162.378 18.24V10.96C162.378 10.652 162.126 10.4 161.818 10.4H160.138C159.83 10.4 159.578 10.652 159.578 10.96V29.44C159.578 29.748 159.83 30 160.138 30H161.818C162.126 30 162.378 29.748 162.378 29.44V22.16C162.378 21.852 162.63 21.6 162.938 21.6H173.018C173.326 21.6 173.578 21.852 173.578 22.16V29.44C173.578 29.748 173.83 30 174.138 30H175.818C176.126 30 176.378 29.748 176.378 29.44V10.96C176.378 10.652 176.126 10.4 175.818 10.4H174.138C173.83 10.4 173.578 10.652 173.578 10.96ZM181.984 13.76C181.984 13.452 182.236 13.2 182.544 13.2H192.624C192.932 13.2 193.184 13.452 193.184 13.76V18.24C193.184 18.548 192.932 18.8 192.624 18.8H182.544C182.236 18.8 181.984 18.548 181.984 18.24V13.76ZM179.184 29.356C179.184 29.72 179.464 30 179.828 30H181.34C181.704 30 181.984 29.72 181.984 29.356V22.16C181.984 21.852 182.236 21.6 182.544 21.6H192.624C192.932 21.6 193.184 21.852 193.184 22.16V29.356C193.184 29.72 193.464 30 193.828 30H195.34C195.676 30 195.984 29.72 195.984 29.356V13.76C195.984 11.912 194.472 10.4 192.624 10.4H182.544C180.696 10.4 179.184 11.912 179.184 13.76V29.356ZM181.984 13.76C181.984 13.452 182.236 13.2 182.544 13.2H192.624C192.932 13.2 193.184 13.452 193.184 13.76V18.24C193.184 18.548 192.932 18.8 192.624 18.8H182.544C182.236 18.8 181.984 18.548 181.984 18.24V13.76ZM179.184 29.356C179.184 29.72 179.464 30 179.828 30H181.34C181.704 30 181.984 29.72 181.984 29.356V22.16C181.984 21.852 182.236 21.6 182.544 21.6H192.624C192.932 21.6 193.184 21.852 193.184 22.16V29.356C193.184 29.72 193.464 30 193.828 30H195.34C195.676 30 195.984 29.72 195.984 29.356V13.76C195.984 11.912 194.472 10.4 192.624 10.4H182.544C180.696 10.4 179.184 11.912 179.184 13.76V29.356ZM181.984 13.76C181.984 13.452 182.236 13.2 182.544 13.2H192.624C192.932 13.2 193.184 13.452 193.184 13.76V18.24C193.184 18.548 192.932 18.8 192.624 18.8H182.544C182.236 18.8 181.984 18.548 181.984 18.24V13.76ZM179.184 29.44C179.184 29.748 179.436 30 179.744 30H181.424C181.732 30 181.984 29.748 181.984 29.44V22.16C181.984 21.852 182.236 21.6 182.544 21.6H192.624C192.932 21.6 193.184 21.852 193.184 22.16V29.44C193.184 29.748 193.436 30 193.744 30H195.424C195.732 30 195.984 29.748 195.984 29.44V13.76C195.984 11.912 194.472 10.4 192.624 10.4H182.544C180.696 10.4 179.184 11.912 179.184 13.76V29.44ZM212.229 21.6C212.537 21.6 212.789 21.852 212.789 22.16V26.64C212.789 26.948 212.537 27.2 212.229 27.2H202.149C201.841 27.2 201.589 26.948 201.589 26.64V22.16C201.589 21.852 201.841 21.6 202.149 21.6H212.229ZM202.149 13.2H212.229C212.537 13.2 212.789 12.948 212.789 12.64V10.96C212.789 10.652 212.537 10.4 212.229 10.4H199.349C199.041 10.4 198.789 10.652 198.789 10.96V29.44C198.789 29.748 199.041 30 199.349 30H212.173C214.021 30 215.533 28.488 215.533 26.64V22.16C215.533 20.312 214.021 18.8 212.173 18.8H202.149C201.841 18.8 201.589 18.548 201.589 18.24V13.76C201.589 13.452 201.841 13.2 202.149 13.2Z" fill="white"/>
<path d="M86 10.1081V29.8649L93 34V14.2432L103.733 8.27027L114 14.2432V34L121 29.8649V10.1081L103.733 0L86 10.1081Z" fill="white"/>
<path d="M115.773 7L99 17.3678V37.6322L115.773 48L133 37.6322L125.747 33.8621L115.773 39.5172L105.8 33.8621V21.6092L115.773 15.4828L125.747 21.6092L133 17.3678L115.773 7Z" fill="#00A0E3"/>
</svg>
