<svg width="384" height="84" viewBox="0 0 384 84" fill="none" xmlns="http://www.w3.org/2000/svg">
<path d="M28.704 27.504C28.704 26.88 28.224 26.4 27.6 26.4H1.104C0.48 26.4 0 26.88 0 27.504V58.896C0 59.52 0.48 60 1.104 60H3.696C4.32 60 4.8 59.52 4.8 58.896V31.104H23.904V58.896C23.904 59.52 24.432 60 25.056 60H27.6C28.224 60 28.704 59.52 28.704 58.896V27.504ZM57.6574 39.888C57.6574 40.416 57.2254 40.848 56.6974 40.848H39.3694C38.8414 40.848 38.4094 40.416 38.4094 39.888V32.16C38.4094 31.632 38.8414 31.2 39.3694 31.2H56.6974C57.2254 31.2 57.6574 31.632 57.6574 32.16V39.888ZM56.6974 26.4H39.3694C36.2014 26.4 33.6094 28.992 33.6094 32.16V59.04C33.6094 59.568 34.0414 60 34.5694 60H37.4494C37.9774 60 38.4094 59.568 38.4094 59.04V46.608C38.4094 46.08 38.8414 45.648 39.3694 45.648H56.6974C59.9134 45.648 62.4574 43.056 62.4574 39.888V32.16C62.4574 28.992 59.9134 26.4 56.6974 26.4ZM91.2188 54.24C91.2188 54.768 90.7868 55.2 90.2588 55.2H72.9788C72.4508 55.2 72.0188 54.768 72.0188 54.24V32.16C72.0188 31.632 72.4508 31.2 72.9788 31.2H90.2588C90.7868 31.2 91.2188 31.632 91.2188 32.16V54.24ZM90.2588 26.4H72.9788C69.8108 26.4 67.2188 28.992 67.2188 32.16V54.24C67.2188 57.408 69.8108 60 72.9788 60H90.2588C93.4268 60 96.0188 57.408 96.0188 54.24V32.16C96.0188 28.992 93.4268 26.4 90.2588 26.4ZM134.332 27.36C134.332 26.832 133.9 26.4 133.372 26.4H129.964C129.676 26.4 129.436 26.496 129.292 26.688L117.916 38.016C117.724 38.208 117.436 38.208 117.244 38.016L105.916 26.688C105.724 26.496 105.484 26.4 105.244 26.4H101.788C101.26 26.4 100.828 26.832 100.828 27.36V59.04C100.828 59.568 101.26 60 101.788 60H104.668C105.196 60 105.628 59.568 105.628 59.04V34.368C105.628 33.936 106.156 33.696 106.444 33.984L115.372 42.912C115.564 43.104 115.804 43.2 116.044 43.2H119.116C119.356 43.2 119.644 43.104 119.788 42.912L128.716 33.984C129.052 33.696 129.532 33.936 129.532 34.368V59.04C129.532 59.568 129.964 60 130.492 60H133.372C133.9 60 134.332 59.568 134.332 59.04V27.36ZM245.713 31.2H267.697C268.225 31.2 268.657 30.768 268.657 30.24V27.36C268.657 26.832 268.225 26.4 267.697 26.4H245.713C242.545 26.4 239.953 28.992 239.953 32.16V54.24C239.953 57.408 242.545 60 245.713 60H267.697C268.225 60 268.657 59.568 268.657 59.04V56.16C268.657 55.632 268.225 55.2 267.697 55.2H245.713C245.185 55.2 244.753 54.768 244.753 54.24V32.16C244.753 31.632 245.185 31.2 245.713 31.2ZM297.562 27.36V39.84C297.562 40.368 297.131 40.8 296.603 40.8H279.323C278.795 40.8 278.363 40.368 278.363 39.84V27.36C278.363 26.832 277.931 26.4 277.403 26.4H274.523C273.995 26.4 273.562 26.832 273.562 27.36V59.04C273.562 59.568 273.995 60 274.523 60H277.403C277.931 60 278.363 59.568 278.363 59.04V46.56C278.363 46.032 278.795 45.6 279.323 45.6H296.603C297.131 45.6 297.562 46.032 297.562 46.56V59.04C297.562 59.568 297.995 60 298.523 60H301.403C301.931 60 302.363 59.568 302.363 59.04V27.36C302.363 26.832 301.931 26.4 301.403 26.4H298.523C297.995 26.4 297.562 26.832 297.562 27.36ZM311.972 32.16C311.972 31.632 312.404 31.2 312.932 31.2H330.212C330.74 31.2 331.172 31.632 331.172 32.16V39.84C331.172 40.368 330.74 40.8 330.212 40.8H312.932C312.404 40.8 311.972 40.368 311.972 39.84V32.16ZM307.172 58.896C307.172 59.52 307.652 60 308.276 60H310.868C311.492 60 311.972 59.52 311.972 58.896V46.56C311.972 46.032 312.404 45.6 312.932 45.6H330.212C330.74 45.6 331.172 46.032 331.172 46.56V58.896C331.172 59.52 331.652 60 332.276 60H334.868C335.444 60 335.972 59.52 335.972 58.896V32.16C335.972 28.992 333.38 26.4 330.212 26.4H312.932C309.764 26.4 307.172 28.992 307.172 32.16V58.896ZM311.972 32.16C311.972 31.632 312.404 31.2 312.932 31.2H330.212C330.74 31.2 331.172 31.632 331.172 32.16V39.84C331.172 40.368 330.74 40.8 330.212 40.8H312.932C312.404 40.8 311.972 40.368 311.972 39.84V32.16ZM307.172 58.896C307.172 59.52 307.652 60 308.276 60H310.868C311.492 60 311.972 59.52 311.972 58.896V46.56C311.972 46.032 312.404 45.6 312.932 45.6H330.212C330.74 45.6 331.172 46.032 331.172 46.56V58.896C331.172 59.52 331.652 60 332.276 60H334.868C335.444 60 335.972 59.52 335.972 58.896V32.16C335.972 28.992 333.38 26.4 330.212 26.4H312.932C309.764 26.4 307.172 28.992 307.172 32.16V58.896ZM311.972 32.16C311.972 31.632 312.404 31.2 312.932 31.2H330.212C330.74 31.2 331.172 31.632 331.172 32.16V39.84C331.172 40.368 330.74 40.8 330.212 40.8H312.932C312.404 40.8 311.972 40.368 311.972 39.84V32.16ZM307.172 59.04C307.172 59.568 307.604 60 308.132 60H311.012C311.54 60 311.972 59.568 311.972 59.04V46.56C311.972 46.032 312.404 45.6 312.932 45.6H330.212C330.74 45.6 331.172 46.032 331.172 46.56V59.04C331.172 59.568 331.604 60 332.132 60H335.012C335.54 60 335.972 59.568 335.972 59.04V32.16C335.972 28.992 333.38 26.4 330.212 26.4H312.932C309.764 26.4 307.172 28.992 307.172 32.16V59.04ZM363.821 45.6C364.349 45.6 364.781 46.032 364.781 46.56V54.24C364.781 54.768 364.349 55.2 363.821 55.2H346.541C346.013 55.2 345.581 54.768 345.581 54.24V46.56C345.581 46.032 346.013 45.6 346.541 45.6H363.821ZM346.541 31.2H363.821C364.349 31.2 364.781 30.768 364.781 30.24V27.36C364.781 26.832 364.349 26.4 363.821 26.4H341.741C341.213 26.4 340.781 26.832 340.781 27.36V59.04C340.781 59.568 341.213 60 341.741 60H363.725C366.893 60 369.485 57.408 369.485 54.24V46.56C369.485 43.392 366.893 40.8 363.725 40.8H346.541C346.013 40.8 345.581 40.368 345.581 39.84V32.16C345.581 31.632 346.013 31.2 346.541 31.2Z" fill="#3C4A55"/>
<path d="M147 17.6892V52.2635L159.25 59.5V24.9257L178.033 14.473L196 24.9257V59.5L208.25 52.2635V17.6892L178.033 0L147 17.6892Z" fill="#A2B8CB"/>
<path d="M199.103 12.25L169.75 30.3937V65.8563L199.103 84L229.25 65.8563L216.557 59.2586L199.103 69.1552L181.65 59.2586V37.8161L199.103 27.0948L216.557 37.8161L229.25 30.3937L199.103 12.25Z" fill="#00A0E3"/>
</svg>
