<svg width="127" height="82" viewBox="0 0 127 82" fill="none" xmlns="http://www.w3.org/2000/svg">
<g clip-path="url(#clip0_56_69)">
<path fill-rule="evenodd" clip-rule="evenodd" d="M2.6803 27.9031H50.5951L56.8314 36.9005L63.8989 27.9031H113.48V57.5083H66.4768L55.584 43.512L45.024 57.5083H2.6803V27.9031Z" fill="black"/>
<path d="M23.8986 45.4214H15.9375V38.4631H14.244V46.9484H23.8986V45.4214ZM41.887 38.4631H40.193V45.4214H31.7239V38.4631H30.0304V45.4214C30.0304 45.4214 30.0304 46.9484 31.5549 46.9484H40.3625C41.9377 46.9484 41.887 45.4214 41.887 45.4214V38.4631ZM80.37 38.4631H71.5625C70.038 38.4631 70.038 39.9901 70.038 39.9901V46.9484H71.7315V44.233H80.2005V46.9484H81.8945V39.9901C81.8945 39.9901 81.8945 38.4631 80.37 38.4631ZM71.7315 39.9901H80.2005V42.7055H71.7315V39.9901ZM101.915 46.9484L99.8824 44.233C101.576 44.233 101.576 42.7055 101.576 42.7055V39.9901C101.576 39.9901 101.576 38.4631 99.8824 38.4631H89.7199V46.9484H91.4134V44.233H98.0194L100.052 46.9484H101.915ZM99.8824 42.7055H91.4134V39.9901H99.8824V42.7055Z" fill="#FEFEFE"/>
<path d="M124.223 55.3699C124.223 55.7327 124.172 56.0647 124.072 56.3669C123.971 56.6691 123.768 56.9134 123.461 57.0996C123.155 57.2859 122.69 57.3793 122.067 57.3793H117.016C116.473 57.3793 116.058 57.2787 115.772 57.077C115.485 56.8754 115.289 56.6014 115.183 56.2535C115.078 55.9061 115.025 55.5059 115.025 55.0528C115.025 54.5992 115.08 54.199 115.191 53.8516C115.302 53.5042 115.498 53.2297 115.779 53.0281C116.061 52.8269 116.473 52.7263 117.016 52.7263H118.191V53.8593H116.985C116.634 53.8593 116.37 53.9096 116.194 54.0102C116.018 54.1107 115.902 54.2493 115.847 54.4258C115.792 54.6018 115.764 54.806 115.764 55.0374C115.764 55.2693 115.792 55.473 115.847 55.6496C115.902 55.8256 116.018 55.9641 116.194 56.0647C116.37 56.1657 116.634 56.216 116.985 56.216H122.293C122.654 56.216 122.923 56.1657 123.099 56.0647C123.275 55.9641 123.391 55.8256 123.446 55.6496C123.501 55.473 123.529 55.2693 123.529 55.0374C123.529 54.6952 123.424 54.413 123.213 54.1913C123.001 53.9701 122.695 53.8593 122.293 53.8593H120.468V54.9014H119.775V52.7263H124.057V53.6022L123.242 53.6628C123.303 53.6931 123.361 53.7259 123.416 53.7608C123.471 53.7962 123.519 53.829 123.559 53.8593C123.75 53.9901 123.909 54.1764 124.034 54.4181C124.16 54.6598 124.223 54.9769 124.223 55.3699ZM124.057 51.185H115.146V48.2546C115.146 47.7204 115.269 47.3002 115.515 46.9928C115.761 46.686 116.136 46.532 116.639 46.532H118.056C118.568 46.532 118.97 46.6783 119.262 46.9702C119.554 47.2622 119.709 47.6701 119.729 48.194C119.75 47.8615 119.86 47.6173 120.061 47.4613C120.262 47.3053 120.574 47.1668 120.996 47.0457L124.057 46.1544V47.4233L121.072 48.194C120.89 48.2443 120.72 48.3049 120.559 48.3752C120.398 48.446 120.27 48.5311 120.174 48.6322C120.079 48.7328 120.031 48.8688 120.031 49.0401V49.9766H124.057V51.185ZM119.217 49.9766V48.7985C119.217 48.4254 119.127 48.1463 118.945 47.96C118.764 47.7733 118.453 47.6804 118.011 47.6804H116.834C116.473 47.6804 116.212 47.7687 116.05 47.9447C115.889 48.1212 115.809 48.3351 115.809 48.5866V49.9766H119.217ZM124.238 42.7253C124.238 43.1783 124.185 43.576 124.079 43.9188C123.974 44.261 123.755 44.533 123.424 44.7346C123.092 44.9358 122.594 45.0363 121.931 45.0363H117.016C116.463 45.0363 116.043 44.9358 115.756 44.7346C115.47 44.533 115.276 44.2584 115.176 43.9111C115.075 43.5637 115.025 43.1635 115.025 42.7099C115.025 42.2568 115.078 41.8566 115.183 41.5092C115.289 41.1613 115.482 40.8873 115.764 40.6856C116.046 40.4845 116.463 40.3834 117.016 40.3834H121.931C122.604 40.3834 123.105 40.4845 123.431 40.6856C123.758 40.8873 123.974 41.1639 124.079 41.5164C124.185 41.8689 124.238 42.2717 124.238 42.7253ZM123.529 42.7253C123.529 42.4933 123.499 42.2896 123.438 42.1131C123.378 41.9371 123.26 41.7986 123.084 41.698C122.908 41.5969 122.645 41.5466 122.293 41.5466H116.985C116.644 41.5466 116.385 41.5969 116.209 41.698C116.033 41.7986 115.915 41.9371 115.855 42.1131C115.794 42.2896 115.764 42.4933 115.764 42.7253C115.764 42.9567 115.794 43.1583 115.855 43.3292C115.915 43.5006 116.033 43.6366 116.209 43.7371C116.385 43.8382 116.644 43.8885 116.985 43.8885H122.293C122.645 43.8885 122.908 43.8382 123.084 43.7371C123.26 43.6366 123.378 43.5006 123.438 43.3292C123.499 43.1583 123.529 42.9567 123.529 42.7253ZM124.238 36.5464C124.238 36.8686 124.213 37.1708 124.162 37.4525C124.112 37.7347 124.014 37.979 123.868 38.1852C123.723 38.392 123.507 38.5557 123.22 38.6763C122.934 38.7974 122.549 38.8579 122.067 38.8579H115.146V37.6793H122.338C122.66 37.6793 122.903 37.6265 123.069 37.5208C123.235 37.4151 123.348 37.2765 123.408 37.1051C123.469 36.9343 123.499 36.7475 123.499 36.5464C123.499 36.3447 123.469 36.1559 123.408 35.9799C123.348 35.8034 123.235 35.6628 123.069 35.5566C122.903 35.4509 122.66 35.398 122.338 35.398H115.146V34.2502H122.067C122.539 34.2502 122.921 34.3082 123.213 34.4236C123.504 34.5396 123.723 34.7007 123.868 34.907C124.014 35.1138 124.112 35.358 124.162 35.6397C124.213 35.9219 124.238 36.2241 124.238 36.5464ZM124.057 32.5728H115.146V29.6876C115.146 29.1539 115.269 28.7332 115.515 28.4264C115.761 28.119 116.136 27.9656 116.639 27.9656H118.252C118.604 27.9656 118.936 28.0133 119.247 28.1087C119.559 28.2047 119.81 28.3884 120.001 28.6603C120.192 28.9323 120.287 29.3248 120.287 29.8384V31.3496H124.057V32.5728ZM119.609 31.3496V30.2166C119.609 29.8538 119.488 29.5819 119.247 29.4008C119.006 29.2191 118.624 29.1288 118.101 29.1288H117.106C116.654 29.1288 116.324 29.2119 116.118 29.3777C115.913 29.5439 115.809 29.7533 115.809 30.0047V31.3496H119.609Z" fill="black"/>
<mask id="mask0_56_69" style="mask-type:alpha" maskUnits="userSpaceOnUse" x="25" y="-1" width="60" height="86">
<path fill-rule="evenodd" clip-rule="evenodd" d="M55.7114 46.3272L25.2667 84.6849L52.2337 41.1484L38.232 20.2996H47.0083L56.9353 35.0813L84.9567 -0.223877L60.1364 39.8476L77.0489 65.0306H68.2726L55.7114 46.3272Z" fill="#62D8D8"/>
</mask>
<g mask="url(#mask0_56_69)">
<path d="M16.5 -3.99976H90.5V91.0002H16.5V-3.99976Z" fill="#62D6D6"/>
<path fill-rule="evenodd" clip-rule="evenodd" d="M46.8753 98.6592L15.0879 78.0803L34.8599 47.4182L66.6468 67.9971L46.8753 98.6592Z" fill="url(#paint0_linear_56_69)"/>
<path fill-rule="evenodd" clip-rule="evenodd" d="M73.0615 -12.3167L102.982 10.8933L80.6715 39.7611L50.7517 16.5512L73.0615 -12.3167Z" fill="url(#paint1_linear_56_69)"/>
<path fill-rule="evenodd" clip-rule="evenodd" d="M99.2903 58.2218L76.5907 88.5311L47.3489 66.7132L70.0485 36.4044L99.2903 58.2218Z" fill="url(#paint2_linear_56_69)"/>
<path fill-rule="evenodd" clip-rule="evenodd" d="M11.1816 19.194L40.6672 -4.5658L63.6103 23.8016L34.1249 47.5609L11.1816 19.194Z" fill="url(#paint3_linear_56_69)"/>
</g>
</g>
<defs>
<linearGradient id="paint0_linear_56_69" x1="30.9818" y1="88.3698" x2="50.8087" y2="57.7435" gradientUnits="userSpaceOnUse">
<stop stop-color="#2B2A29"/>
<stop offset="0.164706" stop-color="#252325"/>
<stop offset="0.258824" stop-color="#1F1B20"/>
<stop offset="1" stop-color="#62D8D8"/>
</linearGradient>
<linearGradient id="paint1_linear_56_69" x1="88.0214" y1="-0.711727" x2="65.6595" y2="28.1157" gradientUnits="userSpaceOnUse">
<stop stop-color="#2B2A29"/>
<stop offset="0.164706" stop-color="#252325"/>
<stop offset="0.258824" stop-color="#1F1B20"/>
<stop offset="1" stop-color="#62D8D8"/>
</linearGradient>
<linearGradient id="paint2_linear_56_69" x1="87.9405" y1="73.3762" x2="58.7383" y2="51.506" gradientUnits="userSpaceOnUse">
<stop stop-color="#2B2A29"/>
<stop offset="0.164706" stop-color="#252325"/>
<stop offset="0.258824" stop-color="#1F1B20"/>
<stop offset="1" stop-color="#62D8D8"/>
</linearGradient>
<linearGradient id="paint3_linear_56_69" x1="25.9243" y1="7.31433" x2="48.8163" y2="35.7226" gradientUnits="userSpaceOnUse">
<stop stop-color="#2B2A29"/>
<stop offset="0.164706" stop-color="#252325"/>
<stop offset="0.258824" stop-color="#1F1B20"/>
<stop offset="1" stop-color="#62D8D8"/>
</linearGradient>
<clipPath id="clip0_56_69">
<rect width="127" height="82" fill="white"/>
</clipPath>
</defs>
</svg>
