<?xml version="1.0" encoding="utf-8"?>
<!-- Generator: Adobe Illustrator 23.0.1, SVG Export Plug-In . SVG Version: 6.00 Build 0)  -->
<svg version="1.1" id="图层_1" xmlns="http://www.w3.org/2000/svg" xmlns:xlink="http://www.w3.org/1999/xlink" x="0px" y="0px"
	 viewBox="0 0 112.5 43.3" style="enable-background:new 0 0 112.5 43.3;" xml:space="preserve">
<style type="text/css">
	.st0{fill:#FFFFFF;}
</style>
<g>
	<path class="st0" d="M47.9,16.2c0-2.1-2-2.5-3.4-3.2c-1.2-0.6-1.2-1-1.2-1.3c0-0.8,0.7-1.2,1.8-1.2c1,0,1.6,0.3,2.2,0.6V9.5
		c-0.7-0.3-1.4-0.4-2.6-0.4c-2.3,0-3.6,1-3.6,2.7c0,2,1.7,2.6,2.3,2.9c1.7,0.8,2.2,1.1,2.2,1.7c0,0.6-0.7,1.1-1.9,1.1
		c-0.8,0-1.9-0.3-2.7-0.5v1.7c1.1,0.4,2.4,0.4,3.1,0.4C46,19.1,47.9,18.3,47.9,16.2z"/>
	<polygon class="st0" points="110.3,9.3 110.3,13.3 106.7,13.3 106.7,9.3 104.5,9.3 104.5,18.9 106.7,18.9 106.7,14.9 110.3,14.9 
		110.3,18.9 112.5,18.9 112.5,9.3 	"/>
	<path class="st0" d="M82.3,9.1c-1.2,0-2.3,0.4-3.1,1.1c-1.2,1-1.4,2.3-1.4,3.9s0.2,2.8,1.4,3.9c0.8,0.7,1.9,1.1,3.1,1.1
		s2.3-0.4,3.1-1.1c1.2-1,1.4-2.3,1.4-3.9s-0.2-2.9-1.4-3.9C84.5,9.5,83.4,9.1,82.3,9.1z M83.8,16.8c-0.4,0.4-1,0.6-1.5,0.6
		s-1.1-0.2-1.5-0.6c-0.7-0.7-0.7-1.9-0.7-2.7c0-0.9,0-2.1,0.7-2.8c0.4-0.4,1-0.6,1.5-0.6s1.1,0.2,1.5,0.6c0.7,0.7,0.7,1.9,0.7,2.8
		C84.4,15,84.4,16.2,83.8,16.8z"/>
	<polygon class="st0" points="75.1,18.9 77.2,9.3 75.2,9.3 73.8,15.4 72.2,9.3 72.1,9.3 70.4,9.3 70.4,9.3 68.8,15.4 67.4,9.3 
		65.3,9.3 67.4,18.9 67.8,18.9 69.5,18.9 69.6,18.9 71.3,12.5 73,18.9 73,18.9 74.7,18.9 	"/>
	<polygon class="st0" points="59.7,18.9 62,18.9 62,14.9 65.2,9.3 63.1,9.3 61,13.4 59,9.3 56.8,9.3 59.7,15 	"/>
	<rect x="49" y="9.3" class="st0" width="2.2" height="9.5"/>
	<polygon class="st0" points="54.6,9.3 51.8,13.5 54.3,18.9 56.7,18.9 54.2,13.2 56.8,9.3 	"/>
	<path class="st0" d="M90.2,10.7h1.6c1,0,1.4,0.8,1.4,1.5s-0.6,1.5-2.2,2l2.4,4.6h2.4l-2.1-4c1.3-0.6,1.8-1.6,1.8-2.6
		c0-1.7-1.5-2.9-3.2-2.9h-4.2v9.5h2.1L90.2,10.7L90.2,10.7z"/>
	<polygon class="st0" points="95.6,9.3 96.3,10.9 98.6,10.9 98.6,18.9 100.8,18.9 100.8,10.9 103.7,10.9 103,9.3 	"/>
	<rect x="49.6" y="22.4" class="st0" width="1.4" height="7"/>
	<path class="st0" d="M46.6,22L46.6,22L46.6,22h-1.2h-1.1h-1.2h-0.5c-0.1,0-0.1,0-0.2,0.1L41,24.8h1.9l0.9-1.7h2.4l0.9,1.7H49
		l-1.4-2.1C47.4,22.3,47.1,22,46.6,22z"/>
	<path class="st0" d="M43.1,29.9v-3.4h3.7v1.7c0,0.1-0.1,0.2-0.2,0.2h-2.7l0.6,1.2h2.7c0.7,0,1.3-0.6,1.3-1.3v-2.7
		c0-0.1-0.1-0.2-0.2-0.2h-6.6c-0.1,0-0.2,0.1-0.2,0.2v4.5c0,1,0.8,1.9,1.9,1.9h5.4v-1.3h-4.9C43.4,30.6,43.1,30.3,43.1,29.9z"/>
	<rect x="57.8" y="30.5" class="st0" width="3.5" height="1.3"/>
	<path class="st0" d="M67.9,22h-1.7v1.2h-2.5l0.6-1.2h-1.8l-1.3,2.5h1v5.9c0,0.9,0.7,1.6,1.6,1.6h6.5v-1.3h-2.4v-1.3h2.4v-1.1h-2.4
		v-1.4h2.4v-1.2h-2.4v-1.3h2.4v-1.1h-2.4V22z M66.2,30.6h-1.9c-0.3,0-0.5-0.2-0.5-0.5v-0.7h2.5L66.2,30.6L66.2,30.6z M66.2,28.2
		h-2.5v-1.4h2.5V28.2z M66.2,25.7h-2.5v-1.3h2.5V25.7z"/>
	<path class="st0" d="M61,25.7L61,25.7c0.1-0.3-0.1-0.6-0.4-0.6h-1.5l1.6-3h-1.8l-1.5,2.8c-0.2,0.4-0.1,0.8,0.3,1
		C57.8,26,58,26,58.2,26H59l-1.2,2.2c-0.2,0.3-0.1,0.7,0.2,0.9c0.2,0.1,0.4,0.2,0.6,0.2h2.7v-1.2h-1.6L61,25.7z"/>
	<path class="st0" d="M52.2,30c0,0.3-0.3,0.6-0.6,0.6h-2.2l0.7,1.3h2c1,0,1.8-0.8,1.8-1.8v-8.2h-1.7C52.2,21.9,52.2,30,52.2,30z"/>
	<path class="st0" d="M76.1,26.7l-0.5-1.4H74l0.6,2.2c0.1,0.5,0.5,0.7,1.2,0.6h1.6v-1.2h-0.7C76.5,27,76.2,27,76.1,26.7z"/>
	<path class="st0" d="M77.5,23.6h-0.7c-0.3,0-0.6,0-0.7-0.3l-0.5-1.4h-1.7l0.8,2.3c0.2,0.5,0.4,0.6,1.1,0.6h1.6L77.5,23.6L77.5,23.6
		z"/>
	<rect x="77.9" y="24.6" class="st0" width="7.4" height="1.1"/>
	<path class="st0" d="M81.4,21.9h-1.9l-0.4,0.6c-0.1,0.2-0.2,0.2-0.4,0.2h-0.8v1.2h1.8c0.3,0,0.5-0.1,0.8-0.3h4.9v-1.2h-4.3
		L81.4,21.9z"/>
	<path class="st0" d="M77.9,27.4H83l-4.8,3c-0.2,0.2-0.4,0.4-0.4,0.7c0,0.4,0.3,0.8,0.8,0.8h6.6v-1.2h-4.7l4.7-3.1v-1.2h-7.4v1
		C77.8,27.4,77.9,27.4,77.9,27.4z"/>
	<path class="st0" d="M75.4,30.5c-0.1,0.2-0.2,0.3-0.3,0.3H74v1.1h2c0.5,0,0.9-0.2,1-0.8l0.9-2.4H76L75.4,30.5z"/>
	<path class="st0" d="M93.7,22h-2.2l-0.3,0.6h-2.1v1.5h1.3l-1.1,2.1c-0.2,0.4-0.2,0.6-0.2,0.8v0.1c0,0.6,0.5,0.9,1,0.9h4v1.2h-5v1.5
		h5v1.2l2,0.3v-1.5h4.3v-1.4h-4.3v-1.2h4.4v-1.4h-4.4v-1.8h-2v1.8h-1.9c-0.7,0-0.8-0.3-0.6-0.6l0.9-1.8h7.9v-1.6h-7L93.7,22z"/>
	<path class="st0" d="M24.1,24.9c0,4.4-4.1,8.1-9.2,8.1s-9.2-3.7-9.2-8.1V0.8C3.7,1.2,1.8,1.6,0,2.2V26c0,3.9,1.9,7.4,5,9.7l9.9,7.6
		l9.9-7.6c3.1-2.4,5-5.9,5-9.7V2.2c-1.9-0.6-3.8-1-5.7-1.4V24.9z"/>
	<path class="st0" d="M15,26.7c1.6,0,2.9-1.1,2.9-2.5V0.1C17,0,16,0,15,0s-1.9,0-2.9,0.1v24.1C12.1,25.5,13.4,26.7,15,26.7z"/>
</g>
</svg>
