<svg xmlns="http://www.w3.org/2000/svg">

    <symbol id="time" viewBox="0 0 94 130">
        <path d="M75.701,84.239 L74.317,85.166 C73.895,85.449 73.323,85.336 73.040,84.914 C72.758,84.492 72.871,83.920 73.293,83.638 L74.676,82.711 C75.509,82.153 76.010,81.233 76.016,80.250 C76.026,78.679 75.903,77.127 75.654,75.603 L72.719,76.191 C72.221,76.291 71.736,75.968 71.636,75.470 C71.536,74.971 71.860,74.487 72.358,74.387 L75.296,73.798 C74.617,70.895 73.462,68.118 71.860,65.550 L69.376,67.214 C68.954,67.497 68.383,67.384 68.100,66.962 C67.817,66.540 67.930,65.968 68.352,65.685 L70.835,64.022 C70.782,63.947 70.729,63.873 70.675,63.799 C68.945,61.440 66.858,59.396 64.503,57.722 L62.852,60.200 C62.783,60.304 62.697,60.389 62.599,60.454 C62.300,60.655 61.896,60.668 61.577,60.455 C61.154,60.174 61.040,59.602 61.321,59.180 L62.968,56.708 C60.446,55.159 57.663,54.011 54.712,53.326 L54.141,56.216 C54.092,56.465 53.946,56.671 53.751,56.802 C53.555,56.933 53.309,56.989 53.060,56.940 C52.562,56.842 52.238,56.358 52.336,55.859 L52.907,52.968 C49.920,52.477 46.908,52.477 43.984,52.950 L44.568,55.869 C44.644,56.245 44.478,56.614 44.178,56.814 C44.081,56.880 43.969,56.927 43.847,56.952 C43.349,57.052 42.864,56.729 42.764,56.230 L42.178,53.304 C39.556,53.912 37.025,54.908 34.670,56.280 C34.419,56.426 34.173,56.576 33.928,56.729 L35.592,59.212 C35.874,59.634 35.762,60.206 35.339,60.488 C34.917,60.771 34.346,60.658 34.063,60.236 L32.399,57.752 C29.929,59.523 27.803,61.653 26.074,64.068 L28.577,65.736 C29.000,66.017 29.115,66.589 28.833,67.011 C28.764,67.115 28.677,67.200 28.580,67.266 C28.280,67.467 27.876,67.479 27.557,67.267 L25.054,65.599 C23.501,68.113 22.352,70.893 21.661,73.868 L24.593,74.447 C25.092,74.546 25.416,75.030 25.318,75.528 C25.268,75.777 25.123,75.983 24.927,76.114 C24.732,76.245 24.486,76.301 24.237,76.252 L21.305,75.673 C20.818,78.639 20.819,81.636 21.310,84.608 L24.247,84.020 C24.745,83.920 25.229,84.243 25.329,84.741 C25.405,85.117 25.239,85.486 24.939,85.687 C24.842,85.752 24.730,85.800 24.608,85.824 L21.669,86.413 C22.353,89.330 23.506,92.095 25.107,94.660 L27.589,92.997 C28.011,92.714 28.583,92.827 28.866,93.249 C29.149,93.671 29.036,94.243 28.614,94.525 L26.130,96.189 C27.894,98.644 30.028,100.769 32.453,102.502 L34.113,100.011 C34.395,99.588 34.966,99.474 35.389,99.756 C35.812,100.037 35.926,100.609 35.644,101.031 L33.985,103.521 C35.301,104.334 36.691,105.038 38.144,105.624 C39.055,105.992 40.097,105.879 40.929,105.321 L42.313,104.394 C42.735,104.111 43.306,104.224 43.589,104.646 C43.872,105.068 43.759,105.640 43.337,105.923 L41.953,106.850 C40.614,107.747 38.932,107.927 37.455,107.331 C31.990,105.124 27.363,101.364 24.076,96.458 C21.778,93.028 20.253,89.243 19.544,85.208 C18.914,81.627 18.954,78.010 19.657,74.442 C19.659,74.432 19.660,74.421 19.662,74.410 C19.663,74.402 19.666,74.394 19.668,74.385 C19.727,74.090 19.789,73.795 19.856,73.501 C20.747,69.635 22.374,66.055 24.690,62.859 C26.723,60.054 29.211,57.661 32.099,55.722 C32.110,55.715 32.119,55.706 32.130,55.699 C32.141,55.692 32.152,55.686 32.163,55.679 C32.678,55.335 33.204,55.004 33.744,54.690 C36.508,53.080 39.499,51.955 42.596,51.332 C42.634,51.319 42.674,51.307 42.715,51.299 C42.759,51.290 42.803,51.285 42.847,51.283 C46.451,50.591 50.194,50.577 53.890,51.274 C53.984,51.262 54.080,51.265 54.178,51.284 C54.275,51.303 54.365,51.338 54.448,51.384 C54.457,51.386 54.466,51.387 54.475,51.389 C58.134,52.154 61.565,53.582 64.614,55.573 C64.669,55.595 64.723,55.624 64.774,55.658 C64.821,55.689 64.863,55.724 64.902,55.762 C67.690,57.629 70.150,59.971 72.159,62.711 C72.409,63.052 72.650,63.397 72.884,63.746 C72.886,63.748 72.888,63.750 72.890,63.753 C72.892,63.756 72.894,63.760 72.896,63.763 C76.183,68.671 77.894,74.347 77.856,80.262 C77.846,81.855 77.040,83.342 75.701,84.239 ZM45.532,76.264 L51.521,60.045 C51.677,59.621 52.119,59.374 52.562,59.462 C53.006,59.549 53.320,59.946 53.303,60.398 L52.673,77.675 C53.945,79.864 53.312,82.702 51.180,84.131 C48.960,85.618 45.945,85.022 44.457,82.803 C43.029,80.671 43.524,77.805 45.532,76.264 ZM47.848,75.304 C48.900,75.166 49.975,75.378 50.897,75.906 L51.255,66.077 L47.848,75.304 ZM45.986,81.778 C46.908,83.155 48.779,83.525 50.156,82.602 C51.532,81.680 51.902,79.809 50.980,78.433 C50.057,77.056 48.187,76.686 46.810,77.609 C45.433,78.531 45.064,80.402 45.986,81.778 Z"/>
        <path fill-rule="evenodd"  stroke="rgb(200, 217, 228)" stroke-width="2px" stroke-linecap="butt" stroke-linejoin="miter" fill-opacity="0" fill="rgb(200, 217, 228)"
              d="M16.586,46.347 L76.799,5.098 C84.544,-0.208 90.810,4.722 90.795,16.109 L90.747,52.493 C90.733,63.879 84.443,77.411 76.698,82.716 L16.485,123.966 C8.741,129.271 2.475,124.341 2.490,112.954 L2.537,76.571 C2.552,65.184 8.842,51.653 16.586,46.347 Z"/>
    </symbol>

    <symbol id="phone" viewBox="0 0 94 130">
        <path d="M40.757,108.294 C35.973,108.294 32.248,108.294 32.248,108.294 C29.961,108.294 28.107,106.442 28.107,104.157 L28.107,52.372 C28.107,50.088 29.961,48.235 32.248,48.235 L61.310,48.235 C63.597,48.235 65.451,50.088 65.451,52.372 C65.451,52.372 65.451,75.682 65.451,91.577 C54.823,98.946 48.280,103.283 40.757,108.294 ZM63.380,60.647 L35.354,60.647 C34.783,60.647 34.319,60.184 34.319,59.613 C34.319,59.042 34.783,58.578 35.354,58.578 L63.380,58.578 L63.380,52.372 C63.380,51.229 62.454,50.304 61.310,50.304 L32.248,50.304 C31.104,50.304 30.177,51.229 30.177,52.372 L30.177,88.882 L46.203,88.882 C46.775,88.882 47.239,89.346 47.239,89.917 C47.239,90.488 46.775,90.951 46.203,90.951 L30.177,90.951 L30.177,104.157 C30.177,105.300 31.104,106.226 32.248,106.226 C32.248,106.226 35.840,106.226 40.497,106.226 C51.229,99.228 51.197,99.272 63.380,90.541 C63.380,77.132 63.380,60.647 63.380,60.647 ZM46.779,96.020 C47.923,96.020 48.850,96.945 48.850,98.088 C48.850,99.231 47.923,100.157 46.779,100.157 C45.635,100.157 44.708,99.231 44.708,98.088 C44.708,96.945 45.635,96.020 46.779,96.020 ZM46.449,66.484 L36.020,76.902 C35.632,77.290 35.002,77.290 34.614,76.902 C34.226,76.514 34.226,75.885 34.614,75.498 L45.042,65.079 C45.431,64.691 46.060,64.691 46.448,65.079 C46.837,65.467 46.837,66.095 46.449,66.484 ZM40.236,66.483 L36.019,70.695 C35.631,71.083 35.002,71.083 34.613,70.695 C34.225,70.307 34.225,69.679 34.613,69.291 L38.830,65.078 C39.218,64.690 39.848,64.690 40.236,65.078 C40.624,65.466 40.624,66.095 40.236,66.483 ZM43.673,53.407 L49.885,53.407 C50.457,53.407 50.920,53.870 50.920,54.441 C50.920,55.012 50.457,55.475 49.885,55.475 L43.673,55.475 C43.101,55.475 42.637,55.012 42.637,54.441 C42.637,53.870 43.101,53.407 43.673,53.407 Z"/>
        <path fill-rule="evenodd"  stroke="rgb(200, 217, 228)" stroke-width="2px" stroke-linecap="butt" stroke-linejoin="miter" fill-opacity="0" fill="rgb(200, 217, 228)"
              d="M16.586,46.347 L76.799,5.098 C84.544,-0.208 90.810,4.722 90.795,16.109 L90.747,52.493 C90.733,63.879 84.443,77.411 76.698,82.716 L16.485,123.966 C8.741,129.271 2.475,124.341 2.490,112.954 L2.537,76.571 C2.552,65.184 8.842,51.653 16.586,46.347 Z"/>
    </symbol>

    <symbol id="control" viewBox="0 0 94 130">
        <path d="M62.915,60.925 L60.784,60.925 L60.784,93.511 C60.784,94.019 60.371,94.430 59.864,94.430 C59.356,94.430 58.945,94.019 58.945,93.511 L58.945,60.925 L56.814,60.925 C56.521,60.925 56.283,60.687 56.283,60.394 L56.283,58.241 C56.283,57.948 56.521,57.710 56.814,57.710 L58.945,57.710 L58.945,43.479 C58.945,42.972 59.356,42.561 59.864,42.561 C60.371,42.561 60.784,42.972 60.784,43.479 L60.784,57.710 L62.915,57.710 C63.207,57.710 63.445,57.948 63.445,58.241 L63.445,60.394 C63.445,60.687 63.207,60.925 62.915,60.925 ZM50.312,78.736 L48.180,78.736 L48.180,103.026 C48.180,103.533 47.769,103.944 47.262,103.944 C46.754,103.944 46.343,103.533 46.343,103.026 L46.343,78.736 L44.211,78.736 C43.917,78.736 43.680,78.498 43.680,78.205 L43.680,76.052 C43.680,75.759 43.917,75.521 44.211,75.521 L46.343,75.521 L46.343,54.993 C46.343,54.485 46.754,54.074 47.262,54.074 C47.769,54.074 48.180,54.485 48.180,54.993 L48.180,75.521 L50.312,75.521 C50.605,75.521 50.843,75.759 50.843,76.052 L50.843,78.205 C50.843,78.498 50.605,78.736 50.312,78.736 ZM37.710,95.979 L35.578,95.979 L35.578,110.764 C35.578,111.271 35.167,111.682 34.660,111.682 C34.152,111.682 33.740,111.271 33.740,110.764 L33.740,95.979 L31.609,95.979 C31.316,95.979 31.078,95.741 31.078,95.448 L31.078,93.295 C31.078,93.002 31.316,92.764 31.609,92.764 L33.740,92.764 L33.740,68.728 C33.740,68.220 34.152,67.809 34.660,67.809 C35.167,67.809 35.578,68.220 35.578,68.728 L35.578,92.764 L37.710,92.764 C38.003,92.764 38.241,93.002 38.241,93.295 L38.241,95.448 C38.241,95.741 38.003,95.979 37.710,95.979 Z"/>
        <path fill-rule="evenodd"  stroke="rgb(200, 217, 228)" stroke-width="2px" stroke-linecap="butt" stroke-linejoin="miter" fill-opacity="0" fill="rgb(200, 217, 228)"
              d="M16.586,46.226 L76.799,4.977 C84.544,-0.329 90.810,4.601 90.795,15.988 L90.747,52.371 C90.733,63.758 84.443,77.290 76.698,82.595 L16.485,123.844 C8.741,129.150 2.475,124.220 2.490,112.833 L2.537,76.449 C2.552,65.063 8.842,51.531 16.586,46.226 Z"/>
    </symbol>

    <symbol id="sound" viewBox="0 0 41 35">
        <path d="M37.304,27.627 C35.050,30.610 31.834,32.867 28.278,33.946 C28.104,34.000 27.981,34.031 27.917,34.031 C27.388,34.031 26.920,33.691 26.795,33.212 C26.623,32.558 26.966,31.917 27.578,31.743 C33.958,29.902 38.554,23.578 38.554,17.004 C38.554,10.479 33.958,4.133 27.578,2.310 C26.966,2.135 26.614,1.455 26.795,0.841 C26.974,0.237 27.629,-0.131 28.278,0.066 C31.847,1.150 35.071,3.430 37.304,6.386 C39.690,9.538 40.906,13.080 40.906,17.004 C40.906,20.972 39.670,24.501 37.304,27.627 ZM32.515,10.098 C34.020,12.136 34.783,14.447 34.783,17.004 C34.783,19.588 34.020,21.917 32.515,23.955 C31.011,25.992 28.998,27.398 26.498,28.173 C26.413,28.218 26.286,28.236 26.138,28.236 C25.629,28.236 25.170,27.927 25.015,27.416 C24.831,26.812 25.184,26.136 25.799,25.948 C27.790,25.338 29.406,24.232 30.609,22.589 C31.821,20.936 32.431,19.087 32.431,17.004 C32.431,14.948 31.812,13.103 30.609,11.464 C29.395,9.807 27.795,8.656 25.799,8.065 C25.188,7.881 24.841,7.245 25.015,6.636 C25.201,5.982 25.873,5.678 26.498,5.879 C28.989,6.686 31.011,8.065 32.515,10.098 ZM27.748,13.604 C28.489,14.634 28.871,15.767 28.871,17.004 C28.871,18.284 28.495,19.422 27.748,20.448 C27.012,21.460 26.051,22.145 24.845,22.548 C24.673,22.606 24.548,22.633 24.442,22.633 C23.955,22.633 23.471,22.302 23.319,21.813 C23.132,21.209 23.452,20.573 24.103,20.362 C25.551,19.901 26.540,18.540 26.540,17.004 C26.540,15.494 25.551,14.151 24.103,13.689 C23.452,13.479 23.150,12.848 23.319,12.238 C23.553,11.634 24.196,11.267 24.845,11.464 C26.062,11.835 27.006,12.574 27.748,13.604 ZM20.798,32.101 C20.523,32.101 20.289,32.016 20.078,31.850 L10.353,24.017 L2.084,24.017 C1.427,24.017 0.919,23.516 0.919,22.862 L0.919,11.213 C0.919,10.559 1.427,10.035 2.084,10.035 L10.353,10.035 L20.078,2.162 C20.465,1.849 20.879,1.835 21.328,2.037 C21.769,2.234 21.985,2.583 21.985,3.067 L21.985,30.945 C21.985,31.429 21.770,31.779 21.328,32.016 C21.219,32.074 21.032,32.101 20.798,32.101 ZM19.633,5.521 L11.518,12.113 C11.308,12.284 11.052,12.369 10.776,12.369 L3.271,12.369 L3.271,21.689 L10.776,21.689 C11.052,21.689 11.285,21.774 11.518,21.962 L19.633,28.531 L19.633,5.521 Z"/>
    </symbol>

    <symbol id="toggle" viewBox="0 0 62 18">
        <path fill-rule="evenodd"  stroke-width="2px" stroke="rgb(77, 105, 192)" fill="rgb(77, 105, 192)"
              d="M15.466,12.989 L6.139,12.994 C4.939,12.995 4.634,12.044 5.457,10.871 L8.088,7.122 C8.911,5.948 10.551,4.996 11.750,4.996 L21.077,4.990 C22.277,4.989 22.582,5.940 21.759,7.113 L19.129,10.863 C18.305,12.036 16.666,12.988 15.466,12.989 Z"/>
        <path fill-rule="evenodd"  stroke-width="2px" stroke="rgb(204, 216, 227)" fill-opacity="0" fill="rgb(204, 216, 227)"
              d="M32.844,12.989 L23.517,12.994 C22.317,12.995 22.012,12.044 22.835,10.871 L25.465,7.122 C26.289,5.948 27.928,4.996 29.128,4.996 L38.455,4.990 C39.655,4.989 39.960,5.940 39.137,7.113 L36.506,10.863 C35.683,12.036 34.043,12.988 32.844,12.989 Z"/>
        <path fill-rule="evenodd"  stroke-width="2px" stroke="rgb(204, 216, 227)" fill-opacity="0" fill="rgb(204, 216, 227)"
              d="M50.221,12.989 L40.894,12.994 C39.695,12.995 39.389,12.044 40.213,10.871 L42.843,7.122 C43.666,5.948 45.306,4.996 46.506,4.996 L55.833,4.990 C57.032,4.989 57.337,5.940 56.514,7.113 L53.884,10.863 C53.061,12.036 51.421,12.988 50.221,12.989 Z"/>
    </symbol>
</svg>
