<svg width="407" height="201" viewBox="0 0 407 201" fill="none" xmlns="http://www.w3.org/2000/svg">
<g filter="url(#filter0_d_602_2)">
<path d="M122.599 107.1C122.999 107.1 123.299 107.8 123.499 109.2C123.899 110.4 124.099 111.8 124.099 113.4C124.099 115 123.899 116.5 123.499 117.9C123.299 119.1 122.999 119.7 122.599 119.7C115.999 119.3 107.099 118.9 95.899 118.5V167.4C95.899 169.6 95.099 171 93.499 171.6L83.899 176.4C82.699 176.8 82.099 177 82.099 177C81.499 177 81.199 176.2 81.199 174.6V118.2C68.599 117.8 43.999 117.6 7.399 117.6C6.399 117.6 5.599 117.2 4.999 116.4C4.399 115.6 4.499 114.8 5.299 114L91.399 1.19999C91.799 0.799984 92.399 0.599984 93.199 0.599984C93.799 0.599984 94.399 0.799984 94.999 1.19999C95.599 1.39999 95.899 1.79999 95.899 2.39999V107.7C100.899 107.7 109.799 107.5 122.599 107.1ZM21.199 108.9C39.199 108.9 59.199 108.7 81.199 108.3V26.4L19.699 106.8C19.099 107.4 18.899 107.9 19.099 108.3C19.499 108.7 20.199 108.9 21.199 108.9Z" fill="#FFF383"/>
<path d="M206.058 123.9C194.458 123.9 183.958 121.2 174.558 115.8C165.358 110.4 158.158 103 152.958 93.6C147.758 84 145.158 73.2 145.158 61.2C145.158 49.4 147.758 38.9 152.958 29.7C158.158 20.5 165.358 13.3 174.558 8.09999C183.958 2.89999 194.558 0.299988 206.358 0.299988C217.958 0.299988 228.258 2.99999 237.258 8.39999C246.258 13.6 253.258 20.9 258.258 30.3C263.458 39.7 266.058 50.3 266.058 62.1C266.058 73.9 263.458 84.5 258.258 93.9C253.258 103.3 246.158 110.7 236.958 116.1C227.958 121.3 217.658 123.9 206.058 123.9ZM209.358 120.3C222.158 120.3 231.758 115.4 238.158 105.6C244.758 95.8 248.058 82.5 248.058 65.7C248.058 45.7 243.758 30.4 235.158 19.8C226.558 9.19999 215.858 3.89999 203.058 3.89999C190.458 3.89999 180.558 8.99999 173.358 19.2C166.358 29.4 162.858 42.6 162.858 58.8C162.858 70.4 164.758 80.9 168.558 90.3C172.358 99.7 177.758 107.1 184.758 112.5C191.758 117.7 199.958 120.3 209.358 120.3Z" fill="#FFF383"/>
<path d="M400.626 107.1C401.026 107.1 401.326 107.8 401.526 109.2C401.926 110.4 402.126 111.8 402.126 113.4C402.126 115 401.926 116.5 401.526 117.9C401.326 119.1 401.026 119.7 400.626 119.7C394.026 119.3 385.126 118.9 373.926 118.5V167.4C373.926 169.6 373.126 171 371.526 171.6L361.926 176.4C360.726 176.8 360.126 177 360.126 177C359.526 177 359.226 176.2 359.226 174.6V118.2C346.626 117.8 322.026 117.6 285.426 117.6C284.426 117.6 283.626 117.2 283.026 116.4C282.426 115.6 282.526 114.8 283.326 114L369.426 1.19999C369.826 0.799984 370.426 0.599984 371.226 0.599984C371.826 0.599984 372.426 0.799984 373.026 1.19999C373.626 1.39999 373.926 1.79999 373.926 2.39999V107.7C378.926 107.7 387.826 107.5 400.626 107.1ZM299.226 108.9C317.226 108.9 337.226 108.7 359.226 108.3V26.4L297.726 106.8C297.126 107.4 296.926 107.9 297.126 108.3C297.526 108.7 298.226 108.9 299.226 108.9Z" fill="#FFF383"/>
</g>
<defs>
<filter id="filter0_d_602_2" x="0.613281" y="0.299988" width="405.512" height="200.7" filterUnits="userSpaceOnUse" color-interpolation-filters="sRGB">
<feFlood flood-opacity="0" result="BackgroundImageFix"/>
<feColorMatrix in="SourceAlpha" type="matrix" values="0 0 0 0 0 0 0 0 0 0 0 0 0 0 0 0 0 0 127 0" result="hardAlpha"/>
<feOffset dy="20"/>
<feGaussianBlur stdDeviation="2"/>
<feComposite in2="hardAlpha" operator="out"/>
<feColorMatrix type="matrix" values="0 0 0 0 0 0 0 0 0 0 0 0 0 0 0 0 0 0 0.15 0"/>
<feBlend mode="normal" in2="BackgroundImageFix" result="effect1_dropShadow_602_2"/>
<feBlend mode="normal" in="SourceGraphic" in2="effect1_dropShadow_602_2" result="shape"/>
</filter>
</defs>
</svg>
