<svg width="73" height="54" viewBox="0 0 73 54" fill="none" xmlns="http://www.w3.org/2000/svg">
<rect width="73" height="45" rx="8" fill="#691D2B"/>
<rect x="37.1924" y="35" width="13" height="13" transform="rotate(45 37.1924 35)" fill="#691D2B"/>
<g clip-path="url(#clip0_413_2)">
<path fill-rule="evenodd" clip-rule="evenodd" d="M15.4094 29.4372C15.9518 29.0933 16.8297 26.7117 17.0498 26.0944C17.5495 24.6914 17.8846 23.8706 18.3035 22.3612L19.276 18.4426C19.489 17.5339 19.9757 15.0126 19.9757 14.1442C20.2984 13.6523 20.4612 8.42474 20.4612 7.97735C17.3096 8.7181 16.8023 8.76718 13.6264 10.3929C13.133 10.6455 12.6598 10.9407 12.2072 11.2156C10.9449 11.9812 9.6212 12.9768 8.50189 13.9528C8.43077 14.0147 8.43489 13.9872 8.36938 14.0868C8.2099 14.3307 8.32296 13.9653 8.31584 14.2488C7.35414 14.6433 5.20126 17.5818 4.66482 18.9931C3.35048 22.4507 5.64823 25.9098 7.85352 28.3363C8.09161 28.5983 10.2063 30.494 10.6484 30.6129C10.9494 30.3905 11.6854 29.1812 11.9882 28.7308C12.154 28.485 12.3251 28.3378 12.397 28.0652C11.6438 27.8624 9.86303 26.2394 9.31161 25.6897C7.20103 23.586 6.77951 20.4085 8.7179 17.7891C9.61895 16.5715 11.1351 15.4468 11.4697 15.0092C11.4836 14.9911 11.5064 14.9609 11.5225 14.9352C11.8493 14.9269 12.4034 14.4074 12.7268 14.1892C13.8985 13.3993 14.9471 12.8115 16.2929 12.3966C16.6155 12.2969 16.9023 12.3233 17.158 12.1738C17.158 14.2262 17.231 13.6934 16.9592 15.7141C16.8746 16.3427 16.4898 18.4211 16.2835 18.8541C13.8779 18.8541 11.6685 18.9523 9.1907 18.9523C9.08251 19.4216 8.7703 20.0215 8.59661 20.5086C8.44425 20.9348 8.06241 21.7299 8.02497 22.186C8.5981 22.0512 9.52686 22.2015 10.593 22.1588L15.3121 22.186C15.1264 22.5764 14.9628 23.4965 14.7921 24.0133C14.3283 25.4156 12.634 28.8618 12.5913 29.0593C12.5014 29.1529 12.5932 29.0381 12.4678 29.2171L11.5225 31.0048C12.0833 31.3042 13.5051 32.174 13.9517 32.2786C14.1976 31.8101 14.4866 31.4307 14.7591 30.9372C14.9152 30.654 14.995 30.5242 15.1492 30.2527C15.5692 29.5135 15.4652 29.6671 15.4094 29.4372ZM55.5355 26.7913C55.2974 27.2342 55.7433 27.5967 55.9245 27.8692C55.6976 28.1815 55.7627 27.9489 55.5359 28.2611C55.7773 29.3069 55.4464 29.2809 55.8268 29.535C55.4999 29.6735 55.4273 29.7226 55.05 29.7309C55.05 29.2144 55.2345 28.9377 55.0507 28.4571C55.3566 28.328 55.2106 28.5175 55.2589 27.9742C55.3012 27.4947 55.1776 26.72 55.0934 26.2579C55.0084 25.7927 54.9687 25.7504 54.8156 25.3619C54.6726 24.9984 54.6371 24.782 54.3342 24.5736C53.8315 24.2274 53.1711 24.1255 52.5351 23.9382C51.8205 23.7279 51.25 23.6656 51.0665 22.8716C51.6322 23.0045 52.473 23.5701 53.1326 23.8257C53.9928 24.1591 54.7307 24.1296 55.6328 24.3418C55.491 24.9572 54.9313 26.31 55.5355 26.7913ZM56.2161 29.5346C56.2161 29.0004 56.1513 28.9505 56.1187 28.5552C56.3576 28.4397 56.5395 28.3672 56.8963 28.3593C56.8498 27.7998 56.3557 27.6858 56.0521 27.0552C55.9754 26.8959 55.9922 26.9027 55.9424 26.7728C55.9338 26.7502 55.9245 26.7226 55.9158 26.7007C55.9072 26.6788 55.8953 26.649 55.8874 26.6294C55.8795 26.6101 55.8642 26.575 55.8574 26.5595C55.8511 26.5437 55.8402 26.5112 55.8275 26.4897C55.8275 25.6447 56.0667 25.2827 56.2161 24.6355C56.5601 24.6646 56.7125 24.8496 56.9637 25.0573C57.2059 25.2574 57.39 25.3733 57.5622 25.6296C57.7217 25.8667 57.8591 26.1548 57.9523 26.4115C58.2155 27.1353 57.9995 26.9994 58.3529 27.2814C58.0953 27.9546 57.9647 29.347 57.9647 30.221C58.3641 30.127 59.373 29.4901 60.0052 29.4372C60.0052 28.7085 59.8559 28.6115 59.811 28.0652C60.0779 27.8847 60.1628 27.8069 60.5881 27.7715C60.5563 27.3841 60.6532 27.6257 60.4679 27.3988C60.1984 27.0696 60.4032 27.2859 60.1995 27.2806C60.0427 26.8921 60.1336 27.1051 59.8944 26.7978C59.7926 26.6667 59.6994 26.5569 59.6017 26.4145C59.3958 26.1144 59.2348 25.8154 59.0327 25.5213C58.1896 24.2942 58.5423 23.8921 58.2458 23.3723C58.047 23.0242 58.2638 23.273 57.8437 23.0917C57.3751 22.8894 56.9161 22.4786 56.6829 22.0086C56.2988 21.2346 56.7338 20.3398 56.8963 19.6383C57.1074 19.7406 57.3129 19.7587 57.563 19.8475L58.7504 20.4138C59.8375 21.0594 59.9079 22.7516 59.9079 23.9495C60.2897 23.9582 60.1359 23.9227 60.3938 24.0477C60.4945 23.8366 60.7592 22.8588 60.7824 22.5779C61.3488 22.7304 61.4371 23.8257 62.0454 24.0477V21.8919C62.3034 22.0659 62.4718 22.2664 62.6998 22.5088C63.1726 23.0113 62.9046 22.8241 63.5028 22.7738C63.5028 22.1709 62.9132 20.9269 62.6242 20.4263C62.2562 19.7886 61.8201 18.8734 61.1717 18.4622C60.8797 17.5418 57.8913 17.1065 56.5073 17.7762C55.1342 15.7077 53.7375 16.0127 51.5524 16.0127C52.0017 15.6186 52.2248 15.557 52.8529 15.4619C53.3755 15.383 54.0434 15.3267 54.5644 15.3267V15.0326C54.2317 14.9431 53.7678 14.5127 53.5926 14.2488C54.1762 13.9373 55.178 13.6209 55.3214 13.0456C55.3839 12.7949 55.3757 12.4113 55.2443 12.281C55.6366 11.7804 56.6616 11.0563 56.8521 10.5681C57.0101 10.163 56.7776 9.9708 56.702 9.64309C57.2309 9.38711 57.5319 9.38711 57.9456 8.93783C58.1728 8.69091 58.6112 7.99358 58.6449 7.58545L58.0654 7.47256C58.3611 7.04216 61.0003 5.80418 61.3974 5.36396C61.6823 5.04757 61.5599 4.20488 61.5599 3.66574C60.8745 3.68122 59.7552 4.47898 58.9365 4.5477C59.1117 4.21357 59.048 4.31097 59.2992 4.03159C59.7278 3.55437 59.9764 3.31915 60.0835 2.8627C60.1572 2.54782 60.1995 2.34168 60.1995 2C59.7832 2.00944 58.5767 2.62937 58.1256 2.84797C57.4499 3.17493 56.8682 3.53209 56.1749 3.82054C53.0734 5.11138 52.6115 5.69582 48.6718 6.64007C47.7988 6.84923 47.9138 7.47068 46.8326 9.29273C46.5377 9.78958 45.8904 10.7867 46.5002 11.3534C46.5545 12.1628 47.18 12.9674 47.18 14.9344C47.1059 14.8487 47.1246 14.9106 47.0168 14.7071L46.7072 13.7455C46.5526 13.2789 46.4347 12.9028 46.2505 12.4426C46.0529 11.9488 45.9589 11.6475 45.7058 11.228C44.9815 10.0263 43.9928 9.14057 42.4625 9.38862C40.6712 9.67896 41.2889 8.56859 40.1846 8.27146C40.1846 9.04543 40.4496 9.6227 39.0188 8.8593C39.0555 9.30405 39.3745 9.77372 39.4333 10.2064C39.4744 10.5118 39.5096 10.2774 39.3588 10.5703C39.0619 11.1469 38.8867 11.6131 38.6224 12.1881C38.4461 12.5717 38.3574 12.5827 38.6059 13.0033C39.0806 13.8052 38.7381 14.8997 38.6303 16.2087C39.1881 16.5062 39.2465 16.7848 39.699 17.0902C39.9667 16.9094 40.1876 16.6625 40.2819 16.3064C40.6562 16.3378 40.5952 16.4046 41.0591 16.4046C41.1699 15.9244 41.4345 15.6374 41.4476 15.0326C41.8437 15.3252 41.6898 16.2411 41.3256 16.673C41.1931 16.8297 40.8816 17.068 40.8142 17.239C40.7214 17.4731 40.7266 17.9386 40.8648 18.0817C40.8726 18.5476 40.9729 18.7749 41.0591 19.1483C40.161 18.9372 39.1671 18.1757 38.2395 18.1572C37.2227 18.1364 37.1572 18.8462 36.7031 19.4582C36.1708 20.1756 34.9527 21.2187 34.6487 22.1879C34.3964 22.9917 33.249 23.8472 33.0921 24.4396C33.5384 24.4498 33.8487 24.5427 34.4525 24.5378C34.9785 24.5336 35.4195 24.6008 35.7152 24.5378C35.7152 23.8231 35.8125 23.5123 35.8125 22.8716C36.3179 22.8716 36.5953 23.0121 36.5714 22.5149C36.5534 22.1392 36.2333 21.7462 36.784 21.5978C36.784 22.0433 36.7522 22.6255 36.7982 23.0536C36.8648 23.6788 37.122 25.1543 37.0651 25.6961C37.0288 26.0404 36.9109 26.6294 36.8813 26.9873L39.2131 25.7134C39.0518 25.4057 38.8953 25.1516 38.7272 24.8315C38.9788 24.662 39.221 24.4834 39.3101 24.1455C38.9294 24.0432 38.2305 23.4044 38.1811 23.0547C38.1417 22.7772 38.4955 21.6605 38.5329 21.2059C38.8721 21.2856 40.4354 22.3249 40.9048 22.6353C41.2309 22.8509 41.4098 22.9898 41.7392 23.1657C41.9107 23.0502 42.1776 22.8482 42.3434 22.6972C42.6339 22.4325 42.5598 22.388 43.0023 22.2838C43.9595 22.9913 43.611 23.4304 46.364 23.0283L50.192 22.382C50.3171 22.9226 50.8213 23.7449 51.2009 24.0099C52.023 24.5846 53.5339 24.5797 54.0516 25.0546C54.4196 25.3925 54.5734 26.7623 54.6498 27.1999C54.773 27.9059 54.6614 27.7103 54.6614 28.4069L54.2728 30.5151C54.7052 30.5053 55.1275 30.366 55.6089 30.2946C56.4482 30.1696 56.4867 29.7785 56.2161 29.5346ZM39.4074 38.5501V40.4118C39.4074 40.7304 39.3232 40.4858 39.2131 40.9018H40.4762C40.4672 40.818 40.277 40.3959 40.1898 39.329C40.064 37.7927 40.3294 38.1269 40.3789 37.6681H39.1158C39.1607 38.2099 39.4074 37.9962 39.4074 38.5501ZM62.434 32.1808C59.957 32.3889 60.8689 35.5542 62.3397 35.6139C63.1528 35.6471 63.3961 35.0578 63.8917 34.9245C63.7697 34.3971 63.6776 34.2396 63.4058 34.1407C62.9727 34.5552 63.4519 34.755 63.0203 35.0385C62.2865 35.5203 61.1859 33.3418 61.6569 32.8669C62.0391 32.4814 63.1966 33.5468 62.5313 32.2786C62.9184 32.3111 62.9353 32.3949 63.1191 32.666L63.9782 33.9621C64.2571 34.388 64.1276 34.2234 64.086 34.7285C64.5948 34.6859 64.649 34.2823 65.2517 34.1407V33.8466C64.7007 33.8341 64.4102 33.358 64.2803 32.8669C65.02 32.8669 65.0975 33.2572 65.8346 33.6506C66.3808 33.2818 66.5758 33.3078 66.6121 32.8669C65.7867 33.0432 65.628 32.0536 64.6689 32.2786C64.6689 31.7353 64.5813 31.6274 64.5716 31.2011C64.761 31.1218 64.947 31.1747 65.2517 31.1029C65.175 30.813 65.2124 30.944 65.0575 30.7111C65.5494 30.7477 65.4696 30.8881 66.2 31.6164C67.1767 32.5901 66.9344 32.4923 66.9034 32.8669C67.3926 32.8257 67.9036 32.1465 67.9721 31.8867C67.3036 31.8867 67.4233 31.8709 67.3421 31.2487C67.2931 30.8745 67.2021 30.4422 67.195 30.1232C67.4754 30.3124 67.563 30.5547 67.8516 30.8341C68.5647 31.5235 68.023 31.166 68.2638 31.6908C68.6037 31.4612 69.1248 31.1286 69.2352 30.7111C68.6594 30.4709 69.401 31.2079 68.0927 29.9035C67.7943 29.6056 67.2272 29.043 67.195 28.653C67.8643 28.496 67.9691 28.9721 69.06 29.8125C69.4089 30.0817 69.4336 30.0768 69.3325 30.5151C69.7466 30.4804 69.6889 30.4079 70.2205 29.7449C70.5136 29.3794 70.727 29.1386 70.9842 28.7512C70.8157 28.4975 70.639 28.2532 70.304 28.1634C69.9764 28.6572 70.1932 28.3548 70.2729 28.7837C70.3552 29.228 70.2141 29.134 70.0127 29.4372C69.6361 29.3356 69.2393 29.0351 69.1382 28.653C69.3378 28.5568 69.6709 28.5149 69.9154 28.4571C69.8046 28.038 69.8727 28.2978 69.5624 28.0293C69.2973 27.8001 69.3763 27.7635 69.0409 27.6733C68.7489 28.2876 69.3067 27.8624 68.8466 28.5552C68.5879 28.3804 68.3281 28.1418 68.0695 27.9674C68.1885 27.7405 68.2248 27.5412 68.5183 27.4502C68.969 27.3108 68.6396 27.6839 69.2352 27.2814C69.1439 27.0269 68.9926 26.9231 68.6523 26.6936C68.3401 26.9042 67.8078 27.6922 67.4641 28.0425C67.1119 28.4016 66.3501 28.9581 66.2236 29.4372C66.4208 29.5195 66.9034 29.0978 66.9034 31.2011C66.705 31.0542 66.5773 30.8134 66.3445 30.5887C66.015 30.2708 65.9319 30.3384 65.9319 29.7309C65.2607 29.7876 65.5385 30.1931 64.7782 30.5147C64.5105 30.628 64.6041 30.5 64.3413 30.776C63.6589 31.493 64.8332 32.1004 63.9887 32.6709C63.9075 32.3632 63.8292 32.3621 63.669 32.1034C63.4324 31.7206 63.5627 31.8516 63.6001 31.3967C63.3018 31.4669 62.5396 31.8867 62.434 32.1808ZM21.7243 36.3943V36.0024C19.2588 34.6866 18.4708 37.5987 19.3614 38.4836C19.8859 39.0047 20.1898 38.8623 20.9471 39.0401C21.0733 38.7751 21.1414 38.5675 21.1414 38.1582C20.5073 38.1725 20.6435 38.5135 20.3643 38.5501C19.632 38.3783 19.7301 37.8475 19.9177 37.1203C20.1831 36.0919 20.4799 36.1006 21.0445 36.1006C21.3477 36.7379 20.7847 36.5883 21.6273 36.7862L21.7243 36.3943V36.9821H22.1129C22.2136 36.6023 22.2443 36.6004 22.6961 36.5902L22.2622 38.7985C22.0429 39.3411 22.0739 38.7479 21.9186 39.3339C22.105 39.4241 23.0098 39.6053 23.279 39.628C23.1981 38.8838 23.1401 39.7907 23.0925 39.0398C23.0828 38.8831 23.1768 38.5154 23.2217 38.2968C23.3209 37.8188 23.4732 37.2744 23.4732 36.7862C23.9685 36.8277 23.9592 36.9504 23.9592 37.4722H24.4451C24.4451 36.9799 24.5323 37.0335 24.542 36.5902C24.189 36.5608 22.1477 36.1134 21.9186 36.0024L21.7243 36.3943ZM59.7132 27.3792C59.4628 27.5597 59.4516 27.554 59.2281 27.6733C59.2356 28.0116 59.3531 28.6477 59.4224 28.9471C59.1394 29.0982 58.981 29.2314 58.5479 29.2413C58.6755 28.9724 58.7048 28.3585 58.7512 27.975C58.8268 27.3512 58.9537 27.3339 58.6449 26.7445C58.5651 25.9702 57.8628 25.0414 57.2983 24.6219C55.1544 23.0283 55.3876 24.0594 53.5518 23.4028C52.5621 23.0487 51.6569 22.5028 50.8326 21.9304C50.3871 21.6212 50.292 21.7031 49.7458 21.8307C48.9384 22.0195 48.1668 22.1362 47.3837 22.2929C43.4781 23.0748 44.0164 22.1849 43.0023 21.5C42.7489 21.6352 42.6002 21.7386 42.3622 21.9323C41.6681 22.4963 41.9594 22.7097 40.0681 21.4218C39.6897 21.164 38.7347 20.515 38.3387 20.4221C37.9228 21.0481 37.1475 22.2102 37.6843 23.336C37.8157 23.6116 38.0175 23.8963 38.2413 24.0477C38.0923 24.264 38.2256 24.1693 37.9501 24.2436C37.9879 24.7005 38.2361 25.2166 38.436 25.5175C38.0923 25.5983 37.9359 25.7614 37.6585 25.9094C37.651 25.5715 37.5896 25.5266 37.5671 25.2177C37.545 24.9206 37.5739 24.6718 37.5353 24.3679C37.4844 23.9635 37.368 23.3704 37.3635 22.8754C37.353 21.793 37.2208 20.7317 37.4032 19.6746C37.8007 17.3734 39.8978 19.932 41.8366 19.932L41.5173 18.4974C41.3907 17.9888 41.4229 18.107 41.2541 17.9722C41.4555 17.3662 40.9729 17.9997 41.8242 16.8818C42.5052 15.9874 42.1742 15.5785 42.0159 13.8716C42.0121 13.8305 41.9122 13.172 41.8867 13.1135C41.7482 12.7937 41.682 12.9651 41.2533 12.975C41.3275 13.8735 41.5951 13.5877 41.1028 14.2926C40.8625 14.6369 40.8075 15.2357 40.7678 15.7186C40.5529 15.568 40.6469 15.7024 40.5735 15.4245H39.9903C39.9547 15.8568 39.8836 16.0286 39.699 16.3064C39.1087 15.9078 39.2412 15.8372 39.3011 15.1266C39.3528 14.5195 39.4074 14.0476 39.4074 13.4646C39.4205 13.4858 39.4306 13.499 39.4362 13.5337L39.699 13.8569C39.9053 13.5726 40.0341 13.6662 40.1977 13.3857C40.2961 13.217 40.246 12.9463 40.1846 12.6808C39.8847 12.8409 39.6781 12.9882 39.4074 13.1709C38.8672 12.2285 38.9013 13.1675 39.6129 11.3202C40.1187 10.007 40.6705 11.3794 40.6705 9.44714C41.0864 9.72804 41.0437 10.0229 41.6385 10.0463C42.2016 10.0686 44.013 9.5589 45.1612 11.2873C45.6295 11.9922 45.8391 12.7167 46.0993 13.5753C46.2228 13.9834 46.3628 14.4481 46.4995 14.8374C46.6964 15.3999 46.5938 15.6204 47.3743 15.6204C47.9437 14.763 47.8217 14.5758 47.578 13.3574C47.5053 12.9942 47.219 11.663 47.0217 11.3662C46.8648 11.1295 47.0187 11.2745 46.8551 11.1589C46.8379 11.1469 46.8173 11.1318 46.7918 11.1129C46.9813 10.6002 46.5627 10.8403 47.4758 9.25573C47.6394 8.97219 47.7562 8.7785 47.9254 8.43494C48.4483 7.371 48.3061 7.34004 49.1824 7.05726C51.2436 6.39127 54.0632 5.37566 55.8926 4.51561L59.5193 2.78379C59.4115 3.2512 58.6823 3.97043 58.3678 4.36647C58.0481 4.76894 57.3227 5.40926 57.1875 5.91971L60.9767 4.35175V5.03775C60.2654 5.41719 59.5953 5.82268 58.8814 6.2561C58.5056 6.48414 58.2076 6.65215 57.849 6.88057C57.5533 7.06859 57.1317 7.39781 56.7989 7.48729V7.68324C57.1871 7.7746 57.4555 7.94261 57.8677 7.97735C56.9775 9.67367 55.3551 9.05412 55.1473 9.83904C55.5905 9.87642 55.9222 10.0414 56.313 10.1331C56.2689 10.6685 55.9559 10.8656 55.6332 11.1133L55.0051 11.6592C54.8059 11.8593 54.8684 11.6864 54.8553 11.8971C54.4009 12.0889 54.7116 12.4026 54.7587 12.975L52.6212 14.0529C52.753 14.5512 53.0558 14.4987 53.3014 14.8366C53.0525 14.8574 52.5879 14.9318 52.2828 14.9854C51.6572 15.096 51.8867 15.1149 51.4398 15.3939C51.1302 15.5868 50.9512 15.6959 50.6514 15.8893C50.2242 16.1649 50.2669 16.1807 50.3863 16.6983C52.7799 16.6983 53.7701 15.9938 55.3135 17.3149C57.3417 19.0512 55.0915 18.264 58.3802 17.9982C58.5322 17.9862 59.2614 18.0651 59.4793 18.1111C59.6369 18.1444 59.8181 18.221 59.9229 18.2584L60.3938 18.3648C60.5645 18.7571 60.3597 18.3788 60.5383 18.591C60.5383 18.5914 60.6959 18.7473 60.6985 18.7499C61.299 19.2974 62.2708 20.4991 62.3371 21.3041C62.0189 21.0892 61.874 20.7287 61.4626 20.618C61.5629 21.053 61.4588 22.135 61.5599 22.382C61.2376 22.2642 60.7682 21.5185 60.6854 21.2059H60.4911C60.481 21.6491 60.3938 21.5955 60.3938 22.0878C59.6125 20.9537 60.6566 20.6701 57.9336 19.3755C57.6341 19.2332 56.9532 18.9814 56.6047 18.9523C55.8481 20.5422 55.3296 22.0875 57.1879 23.3613C58.0923 23.9812 57.2388 23.461 58.3375 25.451C58.6303 25.9815 59.1944 27.0503 59.7132 27.3792ZM44.3627 30.2206C44.1684 30.3954 44.1092 30.8405 44.0104 31.1399C43.888 31.5111 43.7139 31.8992 43.6825 32.2786H45.6257L46.2195 30.9108C46.3718 30.5468 46.3917 30.7715 46.3063 30.4169C46.5377 30.2701 46.4074 30.3758 46.571 30.1991C46.8922 29.8517 47.2819 29.0445 48.4431 28.9471C48.3439 29.1488 48.3686 29.0638 48.3461 29.3651L48.263 29.4621C48.1874 29.5837 48.2222 29.5067 48.1627 29.643L47.2774 32.2786H49.4149L50.4436 29.612C50.5398 29.3409 50.4769 29.7272 50.484 29.4372C50.8528 29.2858 50.6203 29.387 50.9175 29.182C51.0946 29.0597 51.1186 29.0253 51.2754 28.9543C51.8148 28.7097 52.0032 28.7338 52.038 29.3387C51.8583 29.7464 51.7508 30.2678 51.6086 30.7677C51.4588 31.2929 51.281 31.7704 51.1639 32.2786C51.4558 32.1374 52.0844 32.1525 52.5276 32.1835C53.4219 32.2454 53.176 32.7064 53.766 30.5917C53.8854 30.1644 54.1175 29.7475 53.982 29.339C54.2537 29.1223 54.0392 29.3738 54.1905 29.0642C54.5285 28.374 54.3911 26.3485 52.1671 27.4117C51.7449 27.6133 51.3503 27.7639 50.9696 27.9674C50.7996 25.9079 47.6502 27.7949 47.3743 27.8692L47.4881 27.0881L45.4314 27.0855C45.1941 27.5378 45.0754 28.0467 44.886 28.593C44.6869 29.1673 44.4619 29.5852 44.3627 30.2206ZM49.0263 38.5501C49.0978 38.2409 49.1491 37.8796 49.2206 37.5704C49.2341 37.5896 49.2513 37.5987 49.2565 37.6315C49.264 37.6768 49.3168 37.7327 49.3295 37.7542L49.7065 38.4523C49.4205 38.5195 49.4097 38.5501 49.0263 38.5501ZM48.1518 40.118C48.5146 40.1097 48.908 39.9953 49.2206 39.9221V39.628H48.929V39.0401C49.1195 38.948 49.6148 38.8506 49.9004 38.8442C50.1175 39.7835 50.0899 39.0115 49.9004 39.7262C50.5211 39.7262 50.7525 39.5725 51.2608 39.5302C51.1523 39.1198 51.1639 39.3494 51.0167 39.1881C50.3332 38.4398 49.8593 36.5902 49.4149 36.5902C48.7272 36.5902 48.8844 36.7556 48.6374 38.256C48.5438 38.8265 48.5217 39.3203 48.3304 39.7103C48.1294 40.1211 48.2196 39.4943 48.1518 40.118ZM59.0334 34.1407C59.5381 34.0221 60.0052 33.7922 60.0052 35.0227C59.7496 35.0827 59.7196 35.1118 59.5193 35.2186C59.4407 34.8777 59.1884 34.4359 59.0334 34.1407ZM57.9647 34.1407V34.4344C58.5281 34.4816 58.6048 35.1559 59.1353 36.2991C59.471 37.0233 58.9264 37.081 59.3134 37.1313C59.4879 37.1539 60.0535 36.7684 60.3938 36.6884V36.3943C60.0876 36.3875 59.9465 36.5204 59.7136 35.5123C61.4188 35.1118 60.8168 33.2723 59.6739 33.5008C59.0435 33.6269 58.5999 34.0875 57.9647 34.1407ZM37.4642 39.7262C37.4642 38.9899 38.8077 39.7394 38.1781 40.4386C37.9534 40.6878 37.876 40.6077 37.4642 40.6077C37.6581 40.2004 37.4642 40.2034 37.4642 39.7262ZM38.0594 41H36.4927C36.6028 40.5839 36.687 40.8286 36.687 40.5099V39.0401C36.687 38.723 36.6649 38.5822 36.5904 38.3534C36.4519 37.9264 36.4336 38.2273 36.3954 37.7663H37.7558V38.06H37.4642V39.0401H38.047C39.48 39.0401 39.4879 40.8369 38.1369 40.9921C38.1118 40.9951 38.086 40.9977 38.0594 41ZM55.6328 35.0227C55.7264 35.3757 55.6418 35.2847 56.0218 35.3164C56.072 35.9284 56.7989 37.1626 56.7989 37.5704C56.7989 37.8241 56.7338 37.6708 56.702 38.06C57.1411 38.0234 58.2282 37.4427 58.9365 37.2762C58.7422 36.4358 58.7448 36.4271 58.3536 36.3943C58.2271 36.6597 58.318 36.5185 58.278 36.7103C58.1638 37.2589 58.3791 36.9459 57.5761 37.3744C57.4866 36.9855 57.3519 36.6099 57.1875 36.2965C58.0219 36.1002 57.3657 36.3765 58.1593 36.3943C58.0815 36.0571 57.9295 35.5055 57.6734 35.3164C57.2841 35.689 57.6438 35.8499 56.9932 35.9042C56.9618 35.524 56.842 35.2896 56.702 35.0227L57.3773 34.8127C57.5967 34.9717 57.7397 35.2711 57.9725 35.0366C58.1919 34.815 57.904 34.6772 57.8677 34.2385C57.4282 34.2755 56.3411 34.8562 55.6328 35.0227ZM27.0681 40.314C27.8363 40.314 28.6647 40.5462 29.3999 40.6077C29.4662 40.3219 29.5688 39.9391 29.5942 39.628H29.1087C29.051 40.3265 28.6441 40.1162 28.2342 40.0199C28.2342 39.4758 28.3312 39.4388 28.3312 38.942C29.2491 39.019 28.3877 39.2399 29.2057 39.432C29.2057 38.888 29.303 38.851 29.303 38.3541C28.6209 38.3696 29.0709 38.4059 28.8657 38.5184C28.8122 38.5474 28.8167 38.8215 28.5333 38.5501C28.3514 38.376 28.418 38.4606 28.4581 38.114C28.4783 37.94 28.5255 37.8633 28.5255 37.5704C28.8133 37.7093 28.7969 37.6681 29.2057 37.6681C29.4101 38.0982 29.1439 38.202 29.7885 38.256C29.7885 37.7637 29.8761 37.8173 29.8858 37.3744C29.13 37.3744 28.2668 37.0961 27.554 37.0803C27.6225 37.9128 27.8322 36.6982 27.5484 38.7404C27.5102 39.0145 27.499 39.3241 27.4481 39.6193C27.3223 40.3484 27.2261 39.7175 27.0681 40.314ZM40.6705 37.6681V37.9622C41.2496 38.1182 40.8509 38.3013 40.9763 39.4177C41.1927 41.3481 40.9494 40.1233 40.8648 40.9018C41.6307 40.9018 42.4797 40.7659 43.1966 40.7059V39.8239H42.7107C42.6961 40.499 42.5183 40.4118 41.8366 40.4118V39.3339C42.7567 39.3546 41.8673 39.6091 42.7107 39.628C42.7107 38.8083 42.653 39.025 42.6137 38.5501C42.2562 38.5803 42.2547 38.5814 42.2252 38.942H41.7392V37.9622C43.1255 37.9622 42.0945 38.3541 43.0996 38.3541L43.0023 37.4722L40.6705 37.6681ZM65.446 26.1582C65.2293 26.2284 64.3398 27.3116 63.5166 27.981L62.9282 28.5065C62.9113 28.5273 62.8896 28.5605 62.8757 28.5783C62.8619 28.5968 62.8391 28.627 62.823 28.6527C62.5168 28.6338 61.7089 29.3345 60.9771 29.7313C60.4724 30.0047 59.2408 30.574 59.0334 30.9066C58.6123 30.8032 58.582 30.9591 58.0605 31.1992C57.7573 31.3389 57.4024 31.4669 57.0906 31.593C53.5799 33.0111 50.1082 33.8338 46.3351 34.4639C44.131 34.8324 38.2293 35.3972 36.0334 35.0936L30.9393 34.744C28.9219 34.5303 28.1661 34.5254 26.0274 34.2102C25.7051 34.1626 25.2619 34.0928 24.8741 34.0006C24.2987 33.8632 24.3556 33.782 23.8191 33.995C23.3538 34.1796 22.1548 34.7187 21.7243 34.7285L24.1153 35.4531C29.711 36.7616 37.9669 36.9364 43.6735 36.3852C49.4445 35.828 56.6425 34.0176 61.6688 31.1094C62.1222 30.8466 62.0069 30.9327 62.0462 30.8088C62.7964 30.557 64.2144 29.3896 64.9287 28.8097C65.2192 28.5737 65.1518 28.5994 65.1552 28.4571C65.558 28.2917 65.9589 27.8421 66.2382 27.4921L66.8854 26.6683C67.1343 26.2801 67.0153 26.5335 67.0011 26.3013C67.7539 25.8244 68.4026 23.7453 68.5943 22.9109C68.7796 22.1033 68.8526 19.4718 68.4887 18.8187C68.3293 18.5321 68.5325 18.7605 68.2641 18.5604C68.4318 18.0556 67.6566 16.8724 67.3728 16.422L66.8068 15.8164C66.7989 15.4921 65.7141 14.4062 65.4266 14.1741C65.1555 13.9547 65.3768 14.0857 65.0578 13.9547C65.0462 13.7689 64.9032 13.6923 64.4757 13.3657L62.1742 11.7672C61.5693 11.4044 59.3621 10.078 58.8391 9.9372C58.6063 10.3808 57.9707 11.0181 57.8677 11.407C58.9361 11.6581 61.6977 13.5636 62.0043 13.7063C62.254 13.8226 62.0612 13.821 62.3371 13.7591C62.5066 14.1491 62.297 13.7772 62.4797 13.9875L64.363 15.5374C64.5038 15.6518 64.5397 15.6703 64.6906 15.7998L65.0575 16.0425C65.1492 16.5073 65.2263 16.3978 65.5142 16.7282C66.2531 17.5758 66.5406 18.4279 66.8064 18.7718C66.8873 19.6866 67.9579 21.3195 66.3535 24.5706L65.6935 25.6651C65.4689 25.9841 65.5295 25.7591 65.446 26.1582ZM25.2222 39.628C25.2885 39.3407 25.391 38.8604 25.4165 38.5501C25.8571 38.5871 26.2378 38.7053 26.1659 39.2017C26.0731 39.8417 25.7006 39.668 25.2222 39.628ZM25.4165 38.1582C25.5078 37.966 25.6044 37.4665 25.6108 37.1781C25.9518 37.3434 26.465 37.2574 26.3426 37.8101C26.2139 38.3927 25.8571 38.1952 25.4165 38.1582ZM24.1534 39.628V39.9221C25.1765 39.9221 26.9712 40.6851 26.9712 39.1379C26.9712 38.8215 26.6301 38.6516 26.4853 38.4523C27.3695 38.3779 27.977 36.6884 24.6393 36.6884C24.6959 37.377 24.9107 36.5438 24.6397 38.1586C24.5873 38.4704 24.5611 38.6433 24.5057 39.0031C24.4267 39.5136 24.5409 39.5238 24.1534 39.628ZM29.7885 40.6077C30.2591 40.7183 30.4646 40.7059 31.0516 40.7059C30.9722 39.9716 30.9453 40.8033 30.8899 40.2117L30.9546 39.2361C31.3825 39.2455 31.4087 39.3339 31.9261 39.3339C31.6457 39.9236 32.1245 40.3517 31.5375 40.5099V40.8041C32.0919 40.8041 32.2094 40.9018 32.8005 40.9018C32.7204 40.1618 32.6882 41.0559 32.6074 40.3064L32.8005 37.9622H33.0921V37.6681L31.7336 37.5507C31.807 38.2624 31.9294 37.485 31.9721 38.1272C31.9736 38.151 31.9261 38.7921 31.9261 38.942C31.5427 38.9099 31.4708 38.8442 30.9546 38.8442C31.2051 38.3175 30.8475 38.4689 31.2021 37.8199C31.3252 37.5949 31.3028 37.9604 31.3432 37.4722C30.7558 37.4722 30.5507 37.4846 30.0801 37.3744C30.1569 38.3054 30.2875 36.7394 30.1756 39.0383C30.1599 39.3584 30.1262 39.5729 30.0843 39.9259C29.9851 40.755 29.9719 39.9153 29.7885 40.6077ZM33.0921 40.9018C33.6885 40.9018 34.0116 40.9898 34.4522 41C34.3792 40.1135 34.2579 41.4568 34.2579 39.432C34.6974 39.4419 34.6442 39.5302 35.1324 39.5302C35.1324 41.6592 34.9482 40.0104 34.8411 41H36.2011C36.0173 40.3053 35.9589 41.1484 35.8986 40.317C35.8702 39.924 35.9754 39.7499 36.0016 39.4268C36.0256 39.1323 35.9709 38.7147 36.005 38.45C36.1064 37.6583 36.224 38.4527 36.2985 37.7663H34.9381C35.0148 38.4742 35.0474 37.6742 35.1937 38.282C35.2398 38.4738 35.1324 38.6739 35.1324 39.0401H34.2579C34.2579 38.3896 34.1834 38.3813 34.4039 38.0113C34.5585 37.7519 34.4432 38.168 34.5495 37.7663C34.2257 37.6096 33.7566 37.6681 33.2864 37.6681C33.3407 38.3288 33.6222 37.7055 33.41 39.2629C33.3628 39.6118 33.416 39.9036 33.3905 40.223C33.3239 41.0536 33.2771 40.2026 33.0921 40.9018ZM21.1414 21.7937C23.6185 21.7937 23.155 18.8983 21.4143 18.7801C19.3932 18.6427 19.4063 21.7937 21.1414 21.7937ZM44.8482 38.256L44.8774 38.2854C44.8755 38.2835 44.8385 38.2658 44.8482 38.256ZM46.5002 37.0803C46.3804 37.5987 46.1547 38.4179 46.1113 38.942L46.0076 38.7528C45.9817 38.7011 45.9424 38.6143 45.914 38.5535L45.3341 37.2762L44.0662 37.4386C44.2975 38.333 44.2047 36.8322 44.5139 38.9854C44.5517 39.2489 44.6371 39.6839 44.6476 39.8447C44.7037 40.7153 44.5326 39.9349 44.4596 40.6077C44.9759 40.6077 45.0477 40.542 45.4314 40.5099V40.2158C45.0294 40.1079 45.1522 40.032 45.0814 39.4909C45.032 39.1134 44.9527 38.7694 44.9455 38.4523L45.2072 38.874C45.3034 39.0654 45.3513 39.17 45.4311 39.3343C46.4433 41.4089 46.428 38.9473 46.7278 38.1922L46.7915 38.06C46.7915 38.5516 46.8371 38.7747 46.9079 39.2206C47.067 40.2215 46.8517 39.7582 46.7915 40.314L48.0594 40.1516C47.9729 39.8096 47.9703 39.9976 47.8715 39.8126L47.4896 37.7335C47.4125 36.8583 47.5914 37.6712 47.6659 36.9821C47.0981 36.9821 46.9872 37.0803 46.5002 37.0803ZM52.9124 36.2965C52.9124 36.0458 53.0663 36.2806 52.9705 36.2965C52.9693 36.2965 52.9124 36.5698 52.9124 36.2965ZM50.8722 37.3744C50.8722 38.2469 51.4057 39.3339 52.1353 39.3339C52.7533 39.3339 53.1251 39.0518 53.5926 38.942C53.5428 38.339 53.5762 38.171 53.0098 38.1582C53.0098 39.4456 51.6494 38.9544 51.6494 36.9821C51.6494 36.4528 52.4239 36.042 52.6212 36.7862C52.7814 36.7488 53.012 36.6031 53.0349 36.5993C53.3227 36.5532 52.9061 36.5653 53.1797 36.6182C53.1913 36.6204 53.2389 36.6824 53.4957 36.6884C53.4957 35.9239 53.483 36.1187 53.8843 35.9042L54.5731 38.06C54.6854 38.6245 54.5188 38.1178 54.4671 38.746L55.7253 38.3398L55.7302 38.06C55.2278 38.0181 55.1934 37.4654 54.8744 36.372C54.7707 36.0167 54.5334 35.5833 54.9227 35.6396C55.4408 35.7147 54.9489 36.0881 55.7302 35.9042C55.6957 35.4863 55.5703 35.4406 55.5359 35.0227C54.7819 35.0857 53.6799 35.6894 52.8709 35.8623C52.2431 35.9967 51.9743 35.9061 51.4918 36.2353C51.1691 36.4547 50.8722 36.8798 50.8722 37.3744ZM27.4567 26.7562C27.3111 26.7936 27.3893 26.7449 27.2493 26.8789L26.7211 27.5193C26.4295 27.8953 26.249 28.058 25.9267 28.3838C25.2304 29.0868 24.6161 29.4761 24.4016 29.6837L24.1534 30.0247C23.8139 29.9484 24.0408 29.9665 23.2591 30.3969C22.942 30.5714 22.6676 30.6959 22.3214 30.8232C20.5099 31.4899 18.4805 31.2415 16.8843 30.2029C16.62 30.0311 16.2629 29.706 15.9919 29.6331C15.7935 30.4924 14.7052 31.9317 14.5345 32.6709C15.0485 32.945 15.783 33.2546 16.3681 33.4672C17.0135 33.7016 17.6394 33.8753 18.4618 34.0014C22.254 34.5824 25.3787 33.15 27.9183 30.5883L29.0481 29.3806C29.1525 29.1586 29.1046 29.3296 29.1091 29.1431C29.5516 28.9471 29.2311 29.1729 29.5343 28.7814L30.3272 27.6329C30.4204 27.3969 30.3834 27.5668 30.3721 27.3792C31.1246 26.9023 32.6343 23.1374 32.8836 22.4658C33.222 21.5551 33.4987 20.6879 33.6761 19.6394C33.9217 18.1908 33.8891 18.3029 33.7903 17.1722C33.6978 16.1143 33.8854 16.5118 33.5784 16.3064C33.7862 15.7635 33.3467 14.5395 33.1625 14.0793C31.3177 9.46602 27.0457 6.76428 22.1675 7.64057C21.7321 7.71873 21.43 7.84709 21.0445 7.87918V11.0151C22.6916 10.6281 24.4746 10.482 26.133 10.9785C26.5665 11.108 27.1688 11.3322 27.5158 11.5437C29.1065 12.5125 29.8754 13.8864 30.2048 15.691L30.2976 16.3744C30.3598 16.6398 30.2752 16.4469 30.3718 16.5666V18.7564H24.2504C24.1366 18.9957 24.0587 19.3072 23.9715 19.5526C23.7525 20.1669 23.2265 21.4475 23.182 21.9901C25.2948 21.9901 27.5997 21.9123 29.6916 22.0878C29.6294 22.8399 29.0709 23.9899 28.7512 24.5691C28.5273 24.9742 27.5259 26.4127 27.4567 26.7562ZM8.41355 33.3565L7.53907 32.6709C8.07177 32.5456 8.35365 32.2394 8.74747 31.9298C9.6474 31.2222 9.25583 31.1543 9.87089 31.2989C9.78217 31.6338 9.74548 31.553 9.52462 31.8316L8.41355 33.3565ZM4.81867 28.4571L3.1356 28.5243C3.03752 28.5424 3.0173 28.3276 3.01468 28.6432C3.01319 28.8071 3.05886 28.781 3.16555 28.9313C3.32053 29.1491 3.44257 29.2949 3.65295 29.4372C3.73493 29.2643 3.76488 29.1201 3.84724 28.9471C4.26801 28.9471 4.32491 28.994 4.62439 28.8494C4.54764 29.1816 4.41999 29.3534 4.33277 29.7309L3.94794 29.6211C3.97751 30.0333 4.54802 30.7099 4.916 30.8088C4.916 29.9918 5.34239 29.5671 5.40153 28.8494C6.40442 28.8494 6.04017 28.764 7.05316 28.8494C7.04268 29.3398 6.54779 30.8345 6.37335 31.2011H5.79011C5.89455 30.7492 5.88969 30.3848 5.38881 30.7805C5.08484 31.0206 5.58571 30.8311 5.11029 31.0048C5.55352 32.6796 7.76405 30.7111 9.1907 30.7111C9.04732 31.3317 8.27055 31.7991 7.73485 32.0857C6.49052 32.7509 7.40842 31.7097 6.48939 32.7872C6.26329 33.0522 6.27527 32.8955 6.17906 33.2587C7.45784 33.5593 6.25318 32.131 8.1968 33.6733C8.69768 34.0712 8.54607 34.0852 8.40943 34.5292C8.28103 34.9464 8.25258 34.6338 8.51088 35.0227C8.75383 34.8584 8.89272 34.6628 9.07727 34.4088C9.40745 33.9549 9.21241 34.0988 9.09374 33.6506C9.35429 33.4747 9.96485 32.5693 10.2651 32.1865C10.4901 31.8999 10.4283 31.8867 10.9397 31.8867C10.8041 31.3748 9.34306 30.5846 9.06829 30.4139C8.75758 30.221 8.83731 30.0413 8.41355 29.9269C8.17172 30.5174 8.92304 30.0451 7.34478 30.8088C7.71015 29.2277 7.8202 29.7589 8.12193 29.6331L6.4703 27.9674C6.08173 28.2502 6.43998 27.9587 6.27601 28.3593C5.89231 28.3593 5.88182 28.3899 5.59582 28.4571L5.80396 27.776L6.27601 27.7715C6.18954 27.4437 5.59657 26.7929 5.30458 26.5954L4.81867 28.4571ZM10.9397 34.9245C10.6776 34.9245 10.5511 34.6636 10.5511 34.4344C10.5511 33.8609 11.4375 32.0529 12.1267 32.7479C12.5351 33.1598 11.7748 34.9245 10.9397 34.9245ZM9.87089 34.0425C9.87089 35.5901 12.3727 36.2799 12.9802 33.6506C13.6301 33.7896 13.349 33.1409 13.538 33.765C13.5927 33.9459 13.6013 34.4741 13.6601 34.7285C12.853 34.7467 13.0697 35.0797 12.1814 35.6868C12.1803 35.6875 11.9856 35.7219 11.9115 36.0024C12.443 36.0469 12.5063 36.2565 12.9802 36.2965C13.0581 36.0024 13.1992 35.9258 13.4074 35.6494C13.6432 35.336 13.6619 35.2295 14.146 35.2186C13.821 36.6261 13.5253 35.9986 13.3688 36.5902C13.8839 36.6337 14.1168 36.9391 14.6319 36.9821C14.6255 36.9074 14.3721 35.8472 15.0204 35.6105C15.2379 36.0005 15.1193 36.8489 15.0204 37.2762C15.552 37.3208 15.6153 37.5303 16.0892 37.5704C16.0405 36.9799 15.8859 37.4933 15.8942 36.4928C15.9009 35.7192 15.8212 35.9367 15.7006 35.4145C16.0742 35.162 16.0922 34.8671 16.5751 34.8263C16.6152 35.1982 16.5201 35.1144 16.9637 35.2186L17.1142 34.7138C17.1662 34.7512 17.1905 34.7572 17.195 34.7908L17.2815 34.9751C17.3841 35.4032 16.6417 36.5649 16.5751 37.3744C16.1951 37.4061 16.2797 37.3151 16.1862 37.6681C16.8491 37.8241 17.7974 38.3017 18.421 38.3541C18.5202 37.9241 18.6733 37.9445 18.7126 37.4722C18.0332 37.3129 18.3222 37.7663 17.9351 37.7663C17.5694 37.7663 17.7513 37.7017 17.3523 37.6681C17.3867 37.2528 17.5533 36.9818 17.6439 36.5902C18.5461 36.8024 17.5188 36.9663 18.421 37.1781C18.4603 36.7005 18.6681 36.6367 18.7126 36.1006C17.919 36.1183 18.5753 36.3943 17.7408 36.1983C17.8808 35.9314 18.001 35.697 18.0325 35.3164C19.0698 35.4036 18.5539 35.7679 19.0039 36.1006C19.3614 36.0043 19.3824 35.774 19.3925 35.3164L17.2029 34.5851C16.7945 34.4378 16.8866 34.3366 16.3804 34.3366C15.9316 34.3366 15.8204 35.1514 15.0204 35.2186C15.1181 35.0136 15.2027 34.6806 15.2926 34.5133C15.5835 33.9716 15.6471 34.5141 15.7976 33.9448C15.2945 33.9025 15.0257 33.668 14.5345 33.5525C14.5686 33.9659 14.6644 33.8843 14.5536 34.2509C14.4488 34.5972 14.3751 34.5043 14.3402 34.9245C13.8323 34.5813 14.1168 34.4575 14.0512 33.7462C13.9996 33.1866 13.6548 33.15 13.2715 32.9646L12.9802 33.3565C12.8679 32.8718 12.7451 32.6781 12.3599 32.4142C11.5689 31.8724 10.8494 32.1118 10.3253 32.8351C10.0775 33.1772 9.87089 33.4962 9.87089 34.0425ZM46.7918 11.1129L46.818 11.1793L46.7918 11.1129ZM28.7197 32.2786C29.2008 32.2786 29.2225 32.2175 29.5995 32.1861C29.921 32.1589 30.3321 32.1808 30.663 32.1808C30.8689 31.2898 31.2324 30.563 31.8553 30.0515C32.2967 29.689 33.483 29.1431 34.2579 29.1431L33.3287 31.4393C33.1936 31.7799 33.0671 31.9668 32.9948 32.2786H35.0354L36.9783 27.0855C34.9411 27.0855 33.0487 27.1292 31.3997 28.2204C30.134 29.0574 28.7197 30.6446 28.7197 32.2786ZM41.0591 30.3192C40.9205 30.9187 40.5237 31.7017 40.4762 32.2786H42.4194L44.2654 27.0855C43.6859 27.0855 43.0884 27.07 42.5115 27.0805C41.1055 27.1058 41.4925 28.2536 40.173 29.131C39.9031 29.3107 39.8477 29.339 39.4074 29.339C39.4074 28.4665 40.0202 27.901 40.0876 27.0855H38.047L36.5204 30.9349C36.3587 31.3423 36.0959 31.8924 36.0068 32.2786C36.9453 32.2786 37.5409 32.5036 38.9488 31.8165C39.8076 31.3974 40.3381 30.8058 41.0591 30.3192ZM26.1936 6.80166V6.99761C28.3787 7.5107 27.5368 8.29713 31.5109 7.75459C34.6809 7.32192 39.9521 7.26265 43.0828 7.60244L46.1113 8.07551C46.2232 7.59149 46.5826 7.08935 46.6945 6.60534C46.1191 6.32708 43.824 6.06733 43.0584 5.96086C40.8831 5.65844 36.2958 5.68299 33.9809 5.93405L26.1936 6.80166ZM35.9095 22.2838C35.2267 22.3412 35.2357 22.6976 35.1324 23.9495H34.1609C34.2751 23.518 34.9343 22.9588 35.1282 22.5734C35.2447 22.3416 35.2188 22.2336 35.3304 21.9935C35.5936 21.4268 36.3617 20.814 36.784 20.3239C36.784 20.7664 36.8615 20.6365 36.5979 20.9201C35.8444 21.7299 36.1487 21.2482 35.9095 22.2838Z" fill="url(#paint0_linear_413_2)"/>
</g>
<defs>
<linearGradient id="paint0_linear_413_2" x1="36.5949" y1="41.0045" x2="37.4178" y2="1.99576" gradientUnits="userSpaceOnUse">
<stop stop-color="#D1A743"/>
<stop offset="0.478431" stop-color="#FFF383"/>
<stop offset="1" stop-color="#DEBD55"/>
</linearGradient>
<clipPath id="clip0_413_2">
<rect width="68" height="39" fill="white" transform="translate(3 2)"/>
</clipPath>
</defs>
</svg>
