<svg width="24" height="25" viewBox="0 0 24 25" fill="none" xmlns="http://www.w3.org/2000/svg">
<path d="M1.25 1.69482L1.5774 1.80483C3.20879 2.35299 4.02449 2.62707 4.49105 3.27958C4.95761 3.93209 4.95761 4.79881 4.95761 6.53224V9.7924C4.95761 13.316 4.95761 15.0778 6.04355 16.1724C7.12949 17.2671 8.87727 17.2671 12.3728 17.2671H22.2598" stroke="#C2646E" stroke-width="1.5" stroke-linecap="round"/>
<path d="M7.6453 20.0151C8.65429 20.0151 9.47224 20.8354 9.47224 21.8472C9.47224 22.859 8.65429 23.6792 7.6453 23.6792C6.63631 23.6792 5.81836 22.859 5.81836 21.8472C5.81836 20.8354 6.63631 20.0151 7.6453 20.0151Z" stroke="#C2646E" stroke-width="1.5"/>
<path d="M18.6062 20.0152C19.6152 20.0152 20.4332 20.8355 20.4332 21.8473C20.4332 22.8591 19.6152 23.6793 18.6062 23.6793C17.5972 23.6793 16.7793 22.8591 16.7793 21.8473C16.7793 20.8355 17.5972 20.0152 18.6062 20.0152Z" stroke="#C2646E" stroke-width="1.5"/>
<path d="M4.90234 5.35889H18.7004C21.1767 5.35889 22.4149 5.35889 22.9507 6.15299C23.4864 6.94709 22.9987 8.05936 22.0232 10.2839L21.5068 11.4616C21.0514 12.5002 20.8236 13.0195 20.3709 13.3113C19.9182 13.603 19.3401 13.603 18.184 13.603H4.90234" stroke="#C2646E" stroke-width="1.5"/>
</svg>
