<svg width="69" height="5" viewBox="0 0 69 5" fill="none" xmlns="http://www.w3.org/2000/svg">
<path fill-rule="evenodd" clip-rule="evenodd" d="M2.94604 2.49313C6.54882 0.82852 7.05755 2.50549 7.05755 2.50549C6.3037 4.21131 2.94604 2.49313 2.94604 2.49313ZM2.10432 2.22943C2.27081 2.22943 2.40493 2.35304 2.40493 2.49725C2.40493 2.64559 2.27081 2.76095 2.10432 2.76095C1.93782 2.76095 1.8037 2.64559 1.8037 2.49313C1.8037 2.34892 1.94245 2.22943 2.10432 2.22943ZM9 2.49725C1.15159 -3.10227 0 2.46429 0 2.46429C1.60021 8.15034 9 2.49725 9 2.49725Z" fill="url(#paint0_linear_99_309)"/>
<path fill-rule="evenodd" clip-rule="evenodd" d="M8.99441 2.99997C9.54749 3.00277 9.99441 2.77652 10 2.50279C10 2.22627 9.55307 2.00282 9.00559 2.00003C8.45251 1.99723 8 2.22348 8 2.5C8 2.77373 8.44134 2.99997 8.99441 2.99997Z" fill="url(#paint1_linear_99_309)"/>
<path fill-rule="evenodd" clip-rule="evenodd" d="M15.9944 3C16.5475 3 17 2.77654 17 2.50001C17 2.22628 16.5587 2.00003 16.0056 2.00003C15.4525 1.99723 15.0056 2.22069 15 2.49722C15 2.77375 15.4469 2.99721 15.9944 3Z" fill="url(#paint2_linear_99_309)"/>
<path fill-rule="evenodd" clip-rule="evenodd" d="M12.9851 4C12.9851 4 9.97556 2.5 10.0001 2.49367C9.97556 2.48734 13.0047 1 13.0047 1C13.3539 1.49051 16.0044 2.50633 15.9995 2.50633C16.0437 2.52532 13.344 3.50949 12.9851 4Z" fill="url(#paint3_linear_99_309)"/>
<path fill-rule="evenodd" clip-rule="evenodd" d="M65.0813 2.50717C65.0813 2.50717 65.3615 1.50094 67.3623 2.49578C67.3623 2.49578 65.4957 3.52859 65.0813 2.50717ZM67.9976 2.49578C67.9976 2.58691 67.9266 2.65906 67.8319 2.65906C67.7411 2.66285 67.6661 2.59071 67.6661 2.50338C67.6661 2.41225 67.7411 2.3363 67.8319 2.3363C67.9226 2.3363 67.9976 2.40845 67.9976 2.49578ZM69 2.48059C69 2.48059 68.3607 -0.860844 64 2.49578C64 2.49578 68.1121 5.89038 69 2.48059Z" fill="url(#paint4_linear_99_309)"/>
<path fill-rule="evenodd" clip-rule="evenodd" d="M63.5021 2.99994C63.2275 3.00423 63 2.78107 63 2.50641C63 2.23175 63.2232 2 63.4979 2C63.7725 2 64 2.22316 64 2.50212C64 2.77678 63.7768 2.99994 63.5021 2.99994Z" fill="url(#paint5_linear_99_309)"/>
<path fill-rule="evenodd" clip-rule="evenodd" d="M16 2H63V3H16V2Z" fill="url(#paint6_linear_99_309)"/>
<defs>
<linearGradient id="paint0_linear_99_309" x1="0" y1="2.49297" x2="9" y2="2.49297" gradientUnits="userSpaceOnUse">
<stop stop-color="#FEF275"/>
<stop offset="1" stop-color="#BDA32B"/>
</linearGradient>
<linearGradient id="paint1_linear_99_309" x1="8" y1="2.49859" x2="10" y2="2.49859" gradientUnits="userSpaceOnUse">
<stop stop-color="#FEF275"/>
<stop offset="1" stop-color="#BDA32B"/>
</linearGradient>
<linearGradient id="paint2_linear_99_309" x1="15" y1="2.49859" x2="17" y2="2.49859" gradientUnits="userSpaceOnUse">
<stop stop-color="#FEF275"/>
<stop offset="1" stop-color="#BDA32B"/>
</linearGradient>
<linearGradient id="paint3_linear_99_309" x1="10" y1="2.49578" x2="16" y2="2.49578" gradientUnits="userSpaceOnUse">
<stop stop-color="#FEF275"/>
<stop offset="1" stop-color="#BDA32B"/>
</linearGradient>
<linearGradient id="paint4_linear_99_309" x1="64" y1="2.49578" x2="69" y2="2.49578" gradientUnits="userSpaceOnUse">
<stop stop-color="#FEF275"/>
<stop offset="1" stop-color="#BDA32B"/>
</linearGradient>
<linearGradient id="paint5_linear_99_309" x1="63" y1="2.49859" x2="64" y2="2.49859" gradientUnits="userSpaceOnUse">
<stop stop-color="#FEF275"/>
<stop offset="1" stop-color="#BDA32B"/>
</linearGradient>
<linearGradient id="paint6_linear_99_309" x1="16" y1="2.50141" x2="63" y2="2.50141" gradientUnits="userSpaceOnUse">
<stop stop-color="#FEF275"/>
<stop offset="1" stop-color="#BDA32B"/>
</linearGradient>
</defs>
</svg>
