<svg width="261" height="4" viewBox="0 0 261 4" fill="none" xmlns="http://www.w3.org/2000/svg">
<path fill-rule="evenodd" clip-rule="evenodd" d="M2.33731 2.01388C5.19565 0.695049 5.59927 2.02367 5.59927 2.02367C5.00118 3.37514 2.33731 2.01388 2.33731 2.01388ZM1.66951 1.80495C1.8016 1.80495 1.90801 1.90289 1.90801 2.01714C1.90801 2.13466 1.8016 2.22606 1.66951 2.22606C1.53741 2.22606 1.43101 2.13466 1.43101 2.01388C1.43101 1.89962 1.54108 1.80495 1.66951 1.80495ZM7.14035 2.01714C0.913642 -2.41921 0 1.99102 0 1.99102C1.26956 6.49593 7.14035 2.01714 7.14035 2.01714Z" fill="url(#paint0_linear_632_3)"/>
<path fill-rule="evenodd" clip-rule="evenodd" d="M7.13562 2.41542C7.57441 2.41763 7.92899 2.23839 7.93343 2.02152C7.93343 1.80244 7.57884 1.6254 7.14448 1.62319C6.70569 1.62098 6.34668 1.80022 6.34668 2.01931C6.34668 2.23617 6.69683 2.41542 7.13562 2.41542Z" fill="url(#paint1_linear_632_3)"/>
<path fill-rule="evenodd" clip-rule="evenodd" d="M12.6893 2.41544C13.1281 2.41544 13.4871 2.2384 13.4871 2.01932C13.4871 1.80244 13.137 1.62319 12.6982 1.62319C12.2594 1.62098 11.9048 1.79802 11.9004 2.0171C11.9004 2.23619 12.255 2.41323 12.6893 2.41544Z" fill="url(#paint2_linear_632_3)"/>
<path fill-rule="evenodd" clip-rule="evenodd" d="M10.3019 3.20775C10.3019 3.20775 7.91421 2.01934 7.93371 2.01433C7.91421 2.00931 10.3175 0.830933 10.3175 0.830933C10.5945 1.21955 12.6973 2.02436 12.6934 2.02436C12.7285 2.0394 10.5867 2.81913 10.3019 3.20775Z" fill="url(#paint3_linear_632_3)"/>
<path fill-rule="evenodd" clip-rule="evenodd" d="M51.6338 2.02502C51.6338 2.02502 51.856 1.22782 53.4434 2.016C53.4434 2.016 51.9625 2.83426 51.6338 2.02502ZM53.9475 2.016C53.9475 2.0882 53.8911 2.14536 53.816 2.14536C53.744 2.14836 53.6845 2.09121 53.6845 2.02202C53.6845 1.94982 53.744 1.88965 53.816 1.88965C53.888 1.88965 53.9475 1.94681 53.9475 2.016ZM54.7427 2.00397C54.7427 2.00397 54.2355 -0.643362 50.7759 2.016C50.7759 2.016 54.0383 4.70544 54.7427 2.00397Z" fill="url(#paint4_linear_632_3)"/>
<path fill-rule="evenodd" clip-rule="evenodd" d="M50.3808 2.41539C50.1629 2.41879 49.9824 2.24199 49.9824 2.02438C49.9824 1.80677 50.1595 1.62317 50.3774 1.62317C50.5953 1.62317 50.7758 1.79997 50.7758 2.02098C50.7758 2.23859 50.5987 2.41539 50.3808 2.41539Z" fill="url(#paint5_linear_632_3)"/>
<path fill-rule="evenodd" clip-rule="evenodd" d="M12.6938 1.62319H49.9824V2.41547H12.6938V1.62319Z" fill="url(#paint6_linear_632_3)"/>
<path fill-rule="evenodd" clip-rule="evenodd" d="M258.405 2.01388C255.547 0.695049 255.143 2.02367 255.143 2.02367C255.741 3.37514 258.405 2.01388 258.405 2.01388ZM259.073 1.80495C258.941 1.80495 258.835 1.90289 258.835 2.01714C258.835 2.13466 258.941 2.22606 259.073 2.22606C259.205 2.22606 259.312 2.13466 259.312 2.01388C259.312 1.89962 259.202 1.80495 259.073 1.80495ZM253.602 2.01714C259.829 -2.41921 260.743 1.99102 260.743 1.99102C259.473 6.49593 253.602 2.01714 253.602 2.01714Z" fill="url(#paint7_linear_632_3)"/>
<path fill-rule="evenodd" clip-rule="evenodd" d="M253.607 2.41542C253.168 2.41763 252.813 2.23839 252.809 2.02152C252.809 1.80244 253.163 1.6254 253.598 1.62319C254.036 1.62098 254.396 1.80022 254.396 2.01931C254.396 2.23617 254.045 2.41542 253.607 2.41542Z" fill="url(#paint8_linear_632_3)"/>
<path fill-rule="evenodd" clip-rule="evenodd" d="M248.053 2.41544C247.614 2.41544 247.255 2.2384 247.255 2.01932C247.255 1.80244 247.605 1.62319 248.044 1.62319C248.483 1.62098 248.837 1.79802 248.842 2.0171C248.842 2.23619 248.487 2.41323 248.053 2.41544Z" fill="url(#paint9_linear_632_3)"/>
<path fill-rule="evenodd" clip-rule="evenodd" d="M250.441 3.20775C250.441 3.20775 252.828 2.01934 252.809 2.01433C252.828 2.00931 250.425 0.830933 250.425 0.830933C250.148 1.21955 248.045 2.02436 248.049 2.02436C248.014 2.0394 250.156 2.81913 250.441 3.20775Z" fill="url(#paint10_linear_632_3)"/>
<path fill-rule="evenodd" clip-rule="evenodd" d="M209.109 2.02502C209.109 2.02502 208.887 1.22782 207.299 2.016C207.299 2.016 208.78 2.83426 209.109 2.02502ZM206.795 2.016C206.795 2.0882 206.852 2.14536 206.927 2.14536C206.999 2.14836 207.058 2.09121 207.058 2.02202C207.058 1.94982 206.999 1.88965 206.927 1.88965C206.855 1.88965 206.795 1.94681 206.795 2.016ZM206 2.00397C206 2.00397 206.507 -0.643362 209.967 2.016C209.967 2.016 206.704 4.70544 206 2.00397Z" fill="url(#paint11_linear_632_3)"/>
<path fill-rule="evenodd" clip-rule="evenodd" d="M210.362 2.41539C210.58 2.41879 210.76 2.24199 210.76 2.02438C210.76 1.80677 210.583 1.62317 210.365 1.62317C210.147 1.62317 209.967 1.79997 209.967 2.02098C209.967 2.23859 210.144 2.41539 210.362 2.41539Z" fill="url(#paint12_linear_632_3)"/>
<path fill-rule="evenodd" clip-rule="evenodd" d="M248.049 1.62319H210.76V2.41547H248.049V1.62319Z" fill="url(#paint13_linear_632_3)"/>
<defs>
<linearGradient id="paint0_linear_632_3" x1="0" y1="2.01375" x2="7.14035" y2="2.01375" gradientUnits="userSpaceOnUse">
<stop stop-color="#FEF275"/>
<stop offset="1" stop-color="#BDA32B"/>
</linearGradient>
<linearGradient id="paint1_linear_632_3" x1="6.34668" y1="2.01819" x2="7.93343" y2="2.01819" gradientUnits="userSpaceOnUse">
<stop stop-color="#FEF275"/>
<stop offset="1" stop-color="#BDA32B"/>
</linearGradient>
<linearGradient id="paint2_linear_632_3" x1="11.9004" y1="2.01819" x2="13.4871" y2="2.01819" gradientUnits="userSpaceOnUse">
<stop stop-color="#FEF275"/>
<stop offset="1" stop-color="#BDA32B"/>
</linearGradient>
<linearGradient id="paint3_linear_632_3" x1="7.93359" y1="2.016" x2="12.6938" y2="2.016" gradientUnits="userSpaceOnUse">
<stop stop-color="#FEF275"/>
<stop offset="1" stop-color="#BDA32B"/>
</linearGradient>
<linearGradient id="paint4_linear_632_3" x1="50.7759" y1="2.016" x2="54.7427" y2="2.016" gradientUnits="userSpaceOnUse">
<stop stop-color="#FEF275"/>
<stop offset="1" stop-color="#BDA32B"/>
</linearGradient>
<linearGradient id="paint5_linear_632_3" x1="49.9824" y1="2.01819" x2="50.7758" y2="2.01819" gradientUnits="userSpaceOnUse">
<stop stop-color="#FEF275"/>
<stop offset="1" stop-color="#BDA32B"/>
</linearGradient>
<linearGradient id="paint6_linear_632_3" x1="12.6938" y1="2.02044" x2="49.9824" y2="2.02044" gradientUnits="userSpaceOnUse">
<stop stop-color="#FEF275"/>
<stop offset="1" stop-color="#BDA32B"/>
</linearGradient>
<linearGradient id="paint7_linear_632_3" x1="260.743" y1="2.01375" x2="253.602" y2="2.01375" gradientUnits="userSpaceOnUse">
<stop stop-color="#FEF275"/>
<stop offset="1" stop-color="#BDA32B"/>
</linearGradient>
<linearGradient id="paint8_linear_632_3" x1="254.396" y1="2.01819" x2="252.809" y2="2.01819" gradientUnits="userSpaceOnUse">
<stop stop-color="#FEF275"/>
<stop offset="1" stop-color="#BDA32B"/>
</linearGradient>
<linearGradient id="paint9_linear_632_3" x1="248.842" y1="2.01819" x2="247.255" y2="2.01819" gradientUnits="userSpaceOnUse">
<stop stop-color="#FEF275"/>
<stop offset="1" stop-color="#BDA32B"/>
</linearGradient>
<linearGradient id="paint10_linear_632_3" x1="252.809" y1="2.016" x2="248.049" y2="2.016" gradientUnits="userSpaceOnUse">
<stop stop-color="#FEF275"/>
<stop offset="1" stop-color="#BDA32B"/>
</linearGradient>
<linearGradient id="paint11_linear_632_3" x1="209.967" y1="2.016" x2="206" y2="2.016" gradientUnits="userSpaceOnUse">
<stop stop-color="#FEF275"/>
<stop offset="1" stop-color="#BDA32B"/>
</linearGradient>
<linearGradient id="paint12_linear_632_3" x1="210.76" y1="2.01819" x2="209.967" y2="2.01819" gradientUnits="userSpaceOnUse">
<stop stop-color="#FEF275"/>
<stop offset="1" stop-color="#BDA32B"/>
</linearGradient>
<linearGradient id="paint13_linear_632_3" x1="248.049" y1="2.02044" x2="210.76" y2="2.02044" gradientUnits="userSpaceOnUse">
<stop stop-color="#FEF275"/>
<stop offset="1" stop-color="#BDA32B"/>
</linearGradient>
</defs>
</svg>
