<svg width="58" height="26" viewBox="0 0 58 26" fill="none" xmlns="http://www.w3.org/2000/svg">
<path fill-rule="evenodd" clip-rule="evenodd" d="M29.0079 20L27.5737 22.961H27.5897C28.1633 23.7247 28.9601 25.813 28.9601 25.813L29.0079 26L29.0557 25.813C29.0557 25.813 29.8525 23.7247 30.4262 22.961L29.0079 20Z" fill="url(#paint0_linear_106_247)"/>
<path fill-rule="evenodd" clip-rule="evenodd" d="M37.6505 5.49003C37.8069 5.41803 37.9437 5.29203 38.0023 5.07603C38.0609 4.86004 38.0414 4.59004 37.885 4.26604C37.7287 3.94204 37.3964 3.58205 36.9469 3.34805C36.4779 3.09605 35.8916 2.97005 35.3052 3.00605C35.0121 3.02405 34.6408 3.09605 34.2499 3.24005C33.859 3.38405 33.4681 3.60005 33.0968 3.88804C32.745 4.17604 32.4128 4.53604 32.1587 4.91403C31.9046 5.29203 31.7287 5.68803 31.5919 6.10203C31.4747 6.49802 31.3965 6.87602 31.377 7.23601C31.377 7.41601 31.377 7.57801 31.377 7.74001C31.3965 7.88401 31.3965 8.02801 31.416 8.17201C31.4356 8.29801 31.4747 8.424 31.4942 8.514C31.5138 8.622 31.5333 8.712 31.5724 8.784C31.631 8.928 31.6701 9 31.7287 9C31.7678 9 31.8069 8.928 31.8655 8.784C31.9242 8.64 32.0219 8.46 32.1001 8.24401C32.1587 8.13601 32.2173 8.01001 32.276 7.88401C32.3346 7.75801 32.4128 7.63201 32.4714 7.48801C32.6278 7.23602 32.8036 6.96602 33.0186 6.73202C33.2336 6.48002 33.4681 6.26402 33.7027 6.08402C33.9567 5.90403 34.2108 5.77803 34.4453 5.67003C34.6798 5.58003 34.8948 5.52603 35.0707 5.50803C35.1098 5.50803 35.1489 5.50803 35.188 5.49003C35.2466 5.49003 35.2662 5.49003 35.3052 5.49003C35.3443 5.49003 35.3639 5.49003 35.403 5.47203C35.4225 5.47203 35.4616 5.47203 35.4811 5.47203C35.6766 5.47203 35.8329 5.45403 35.9893 5.45403C36.1456 5.43603 36.302 5.43603 36.4974 5.45403C36.8883 5.49003 37.2987 5.63403 37.6505 5.49003Z" fill="url(#paint1_linear_106_247)"/>
<path fill-rule="evenodd" clip-rule="evenodd" d="M31.3773 3.45705C30.2488 5.22204 29.9563 7.6872 29.9145 8.02269C29.9145 8.03728 29.8936 8.05186 29.8727 8.05186L28.786 8.91248C28.6607 9.02917 28.389 9.02917 28.2427 8.91248L27.1561 8.05186C27.1561 8.05186 27.1352 8.03728 27.1352 8.02269C27.0934 7.6872 26.8426 5.41167 25.6724 3.45705C25.6724 3.44246 27.9084 0.627228 28.4308 0.0437601C28.4726 -0.0145867 28.5771 -0.0145867 28.6189 0.0437601C29.1204 0.627228 31.3773 3.44246 31.3773 3.45705Z" fill="url(#paint2_linear_106_247)"/>
<path fill-rule="evenodd" clip-rule="evenodd" d="M19.3988 5.49003C19.2424 5.41803 19.1056 5.29203 19.047 5.07603C18.9884 4.86004 19.0079 4.59004 19.1643 4.26604C19.3206 3.94204 19.6529 3.58205 20.1024 3.34805C20.5714 3.09605 21.1773 2.97005 21.744 3.00605C22.0372 3.02405 22.4085 3.09605 22.7994 3.24005C23.1903 3.38405 23.5812 3.60005 23.9525 3.88804C24.3043 4.17604 24.6365 4.53604 24.8906 4.91403C25.1447 5.29203 25.3206 5.68803 25.4574 6.10203C25.5746 6.49802 25.6528 6.87602 25.6723 7.23601C25.6723 7.41601 25.6723 7.57801 25.6723 7.74001C25.6528 7.88401 25.6528 8.02801 25.6333 8.17201C25.6137 8.29801 25.5942 8.424 25.5551 8.514C25.5355 8.622 25.4964 8.712 25.4769 8.784C25.4183 8.928 25.3792 9 25.3206 9C25.301 9 25.2424 8.928 25.1837 8.784C25.1056 8.64 25.0274 8.46 24.9492 8.24401C24.8906 8.13601 24.832 8.01001 24.7733 7.88401C24.7147 7.75801 24.6561 7.63201 24.5779 7.48801C24.4215 7.23602 24.2261 6.96602 24.0307 6.73202C23.8157 6.48002 23.5812 6.26402 23.3466 6.08402C23.0926 5.90403 22.8385 5.77803 22.604 5.67003C22.3694 5.58003 22.1545 5.52603 21.9786 5.50803C21.9395 5.50803 21.9004 5.50803 21.8418 5.49003C21.8222 5.49003 21.7831 5.49003 21.744 5.49003C21.705 5.49003 21.6854 5.49003 21.6463 5.47203C21.6268 5.47203 21.5877 5.47203 21.5681 5.47203C21.3727 5.47203 21.2164 5.45403 21.06 5.45403C20.9037 5.43603 20.7278 5.43603 20.5519 5.45403C20.1805 5.49003 19.7506 5.63403 19.3988 5.49003Z" fill="url(#paint3_linear_106_247)"/>
<path fill-rule="evenodd" clip-rule="evenodd" d="M23.3803 15.8182H23.4032C23.4032 15.8182 23.3803 15.8338 23.3574 15.8493C23.3574 15.8338 23.3803 15.8182 23.3803 15.8182ZM26.9311 11.3411C25.694 10.1441 23.2657 9.28905 21.0207 9.05587C18.7069 8.82269 16.3703 9.35124 14.3772 10.0508C12.0176 10.8592 9.88714 11.9007 7.66502 12.8179C5.53452 13.704 3.19785 14.5124 0.60919 14.5746C0.334288 14.5901 0.0593856 14.6834 0.0593856 14.8233C-0.0780655 14.9477 0.0364771 15.1342 0.265562 15.243C2.05243 16.098 4.59527 16.098 6.70286 15.6939C8.87917 15.2741 10.0704 13.9838 11.17 12.8024C11.2617 13.4864 11.5366 14.1548 12.43 14.6057C12.8194 14.8078 14.1023 15.1653 13.2089 14.2637C12.2925 13.2998 13.5983 12.0562 14.6979 11.2323C16.0037 10.2529 18.1571 9.80206 20.1043 9.6466C20.1731 9.6466 20.2189 9.63106 20.2647 9.63106C20.448 9.63106 20.6542 9.6466 20.8374 9.66215C24.5715 9.95752 26.9082 11.8696 27.3893 14.0305C27.7787 15.7094 27.3434 18.0568 24.7548 19.0673C23.6094 19.5181 22.1432 19.4404 20.9291 19.1916C20.7458 19.145 20.5854 19.0984 20.4251 19.0517C20.448 18.9274 20.3793 18.8496 20.1731 18.7253C19.6233 18.3833 19.4858 17.7459 19.692 17.1862C20.7 17.4661 22.0974 17.2951 23.1054 16.9997C24.457 16.5955 25.4191 15.5695 24.7548 14.8388C24.7319 14.7767 24.709 14.73 24.6402 14.6834C24.6173 14.5901 24.5257 14.5124 24.3653 14.4658C21.4789 13.5019 18.5924 14.6989 17.8593 16.5489C17.0346 18.6164 19.7607 20 22.8992 20C25.9002 20 27.5954 18.3055 28.214 16.7043C28.8783 14.9321 28.4889 12.8646 26.9311 11.3411Z" fill="url(#paint4_linear_106_247)"/>
<path fill-rule="evenodd" clip-rule="evenodd" d="M33.8461 15.8493C33.8224 15.8338 33.8224 15.8182 33.7987 15.8182C33.8224 15.8182 33.8224 15.8182 33.8224 15.8182C33.8461 15.8182 33.8461 15.8338 33.8461 15.8493ZM28.8502 16.7043C29.4658 18.3055 31.2416 20 34.3196 20C37.5634 20 40.4047 18.6164 39.5523 16.5489C38.7709 14.6989 35.7876 13.5019 32.8043 14.4658C32.6622 14.5124 32.5438 14.5901 32.5202 14.6834C32.4728 14.73 32.4255 14.7767 32.4018 14.8388C31.7151 15.5695 32.7096 16.5955 34.1065 16.9997C35.172 17.2951 36.6163 17.4661 37.6344 17.1862C37.8712 17.7459 37.7291 18.3833 37.1372 18.7253C36.9478 18.8496 36.8531 18.9274 36.8768 19.0517C36.7347 19.0984 36.5453 19.145 36.3559 19.1916C35.1247 19.4404 33.5856 19.5181 32.4255 19.0673C29.7263 18.0568 29.3001 15.7094 29.6789 14.0305C30.1761 11.8696 32.5912 9.95752 36.4506 9.66215C36.6637 9.6466 36.8531 9.63106 37.0425 9.63106C37.0899 9.63106 37.1372 9.6466 37.2082 9.6466C39.2445 9.80206 41.4701 10.2529 42.8197 11.2323C43.9562 12.0562 45.2822 13.2998 44.3351 14.2637C43.4353 15.1653 44.7376 14.8078 45.1401 14.6057C46.0872 14.1548 46.3476 13.4864 46.466 12.8024C47.5788 13.9838 48.81 15.2741 51.0594 15.6939C53.2377 16.098 55.8895 16.098 57.7127 15.243C57.9731 15.1342 58.0678 14.9477 57.9494 14.8233C57.9258 14.6834 57.6653 14.5901 57.3575 14.5746C54.682 14.5124 52.2669 13.704 50.0886 12.8179C47.7683 11.9007 45.5663 10.8592 43.1512 10.0508C41.0676 9.35124 38.6525 8.82269 36.2848 9.05587C33.9408 9.28905 31.431 10.1441 30.1761 11.3411C28.5424 12.8646 28.1636 14.9321 28.8502 16.7043Z" fill="url(#paint5_linear_106_247)"/>
<defs>
<linearGradient id="paint0_linear_106_247" x1="27.5868" y1="23.012" x2="30.4262" y2="23.012" gradientUnits="userSpaceOnUse">
<stop stop-color="#FEF275"/>
<stop offset="1" stop-color="#BDA32B"/>
</linearGradient>
<linearGradient id="paint1_linear_106_247" x1="31.4074" y1="6.01203" x2="38.0327" y2="6.01203" gradientUnits="userSpaceOnUse">
<stop stop-color="#FEF275"/>
<stop offset="1" stop-color="#BDA32B"/>
</linearGradient>
<linearGradient id="paint2_linear_106_247" x1="25.6984" y1="4.51804" x2="31.3773" y2="4.51804" gradientUnits="userSpaceOnUse">
<stop stop-color="#FEF275"/>
<stop offset="1" stop-color="#BDA32B"/>
</linearGradient>
<linearGradient id="paint3_linear_106_247" x1="19.047" y1="6.01203" x2="25.6723" y2="6.01203" gradientUnits="userSpaceOnUse">
<stop stop-color="#FEF275"/>
<stop offset="1" stop-color="#BDA32B"/>
</linearGradient>
<linearGradient id="paint4_linear_106_247" x1="0.130292" y1="14.522" x2="28.5246" y2="14.522" gradientUnits="userSpaceOnUse">
<stop stop-color="#FEF275"/>
<stop offset="1" stop-color="#BDA32B"/>
</linearGradient>
<linearGradient id="paint5_linear_106_247" x1="28.659" y1="14.522" x2="57.9998" y2="14.522" gradientUnits="userSpaceOnUse">
<stop stop-color="#FEF275"/>
<stop offset="1" stop-color="#BDA32B"/>
</linearGradient>
</defs>
</svg>
