<svg width="281" height="41" viewBox="0 0 281 41" fill="none" xmlns="http://www.w3.org/2000/svg">
<path fill-rule="evenodd" clip-rule="evenodd" d="M273.029 3.18572C273.029 3.18572 273.599 1.05346 277.67 3.17C277.67 3.17 273.876 5.35465 273.029 3.18572ZM278.961 3.17C278.961 3.36384 278.81 3.51053 278.627 3.51053C278.439 3.51053 278.287 3.36384 278.282 3.17524C278.282 2.99188 278.434 2.83471 278.622 2.83471C278.81 2.83471 278.961 2.98664 278.961 3.17ZM281 3.13333C281 3.13333 279.704 -3.94452 270.828 3.17524C270.828 3.17524 279.191 10.3631 281 3.13333Z" fill="url(#paint0_linear_96_301)"/>
<path fill-rule="evenodd" clip-rule="evenodd" d="M270.194 3.81446C269.842 3.81801 269.557 3.53034 269.557 3.1823C269.553 2.8307 269.838 2.54658 270.191 2.54303C270.543 2.53948 270.828 2.82715 270.828 3.17875C270.832 3.52679 270.547 3.81446 270.194 3.81446Z" fill="url(#paint1_linear_96_301)"/>
<path fill-rule="evenodd" clip-rule="evenodd" d="M262.567 3.81449C262.215 3.81449 261.931 3.53037 261.928 3.17876C261.928 2.83071 262.212 2.54303 262.56 2.54303C262.912 2.53948 263.199 2.82361 263.199 3.17521C263.203 3.52682 262.919 3.81094 262.567 3.81449Z" fill="url(#paint2_linear_96_301)"/>
<path fill-rule="evenodd" clip-rule="evenodd" d="M266.394 5.08596C266.394 5.08596 269.583 3.17872 269.557 3.17068C269.583 3.16263 266.373 1.27148 266.373 1.27148C266.003 1.89516 263.194 3.18677 263.2 3.18677C263.158 3.21091 266.019 4.46229 266.394 5.08596Z" fill="url(#paint3_linear_96_301)"/>
<path fill-rule="evenodd" clip-rule="evenodd" d="M178.82 3.17336C181.364 1.90843 181.72 3.18784 181.72 3.18784C181.194 4.48657 178.82 3.17336 178.82 3.17336ZM178.223 2.97059C178.343 2.97059 178.439 3.06714 178.434 3.18302C178.434 3.29406 178.338 3.38579 178.223 3.38096C178.108 3.38096 178.012 3.28923 178.012 3.17336C178.012 3.06232 178.108 2.97059 178.223 2.97059ZM183.095 3.17336C177.551 -1.09457 176.738 3.15405 176.738 3.15405C177.867 7.48956 183.095 3.17336 183.095 3.17336Z" fill="url(#paint4_linear_96_301)"/>
<path fill-rule="evenodd" clip-rule="evenodd" d="M183.728 3.81442C184.083 3.81987 184.367 3.53612 184.367 3.18689C184.372 2.83766 184.088 2.543 183.734 2.543C183.384 2.543 183.101 2.82675 183.095 3.18144C183.095 3.53067 183.379 3.81442 183.728 3.81442Z" fill="url(#paint5_linear_96_301)"/>
<path fill-rule="evenodd" clip-rule="evenodd" d="M184.367 3.81449H263.199V2.543H184.367V3.81449Z" fill="url(#paint6_linear_96_301)"/>
<path fill-rule="evenodd" clip-rule="evenodd" d="M140.658 35.6018C140.658 35.6018 140.595 35.57 140.469 35.4904C140.4 35.4639 140.332 35.4055 140.242 35.3366C140.153 35.2782 140.069 35.1933 139.963 35.0978C139.769 34.891 139.558 34.6098 139.39 34.2384C139.221 33.8618 139.1 33.395 139.042 32.8698C138.921 31.8035 139.063 30.4773 139.468 29.0131C139.679 28.2864 139.948 27.5118 140.311 26.7373C140.49 26.3501 140.695 25.9575 140.937 25.5862C141.185 25.1989 141.443 24.801 141.701 24.3926C142.743 22.764 143.907 20.9974 145.349 19.2786C146.076 18.4245 146.871 17.5917 147.76 16.8278C148.213 16.4458 148.682 16.0798 149.177 15.7456C149.677 15.4167 150.203 15.109 150.751 14.849C151.298 14.5785 151.877 14.3716 152.467 14.2018C152.767 14.1117 153.072 14.0533 153.373 13.9949C153.683 13.9472 153.989 13.8942 154.315 13.8729C155.6 13.7456 156.921 13.7509 158.211 13.9843C158.853 14.0904 159.48 14.2867 160.075 14.5414C160.669 14.7907 161.212 15.1514 161.664 15.5811C162.112 16.0108 162.454 16.5307 162.612 17.1036C162.781 17.6659 162.717 18.276 162.486 18.8171C162.449 18.9126 162.407 19.0028 162.349 19.093C162.296 19.1725 162.249 19.268 162.186 19.3529C162.054 19.512 161.938 19.6818 161.77 19.8144C161.48 20.1221 161.101 20.3502 160.722 20.5677C159.938 20.9656 159.053 21.1884 158.153 21.2998C157.253 21.3953 156.337 21.3741 155.436 21.3051C154.562 21.2202 153.699 20.9974 152.862 20.7163C151.182 20.1433 149.603 19.3476 148.113 18.5147C146.623 17.6819 145.212 16.7959 143.875 15.9259C141.201 14.1912 138.795 12.5096 136.657 11.0454C134.525 9.58127 132.656 8.33462 131.113 7.35321C129.629 6.28693 127.786 4.99784 125.549 3.66631C124.427 3.0085 123.201 2.34539 121.858 1.73532C120.51 1.13056 119.036 0.578855 117.399 0.29239C116.583 0.149158 115.725 0.0854992 114.84 0.154463C113.956 0.228732 113.05 0.446233 112.208 0.849405C111.992 0.944893 111.792 1.07221 111.587 1.18361C111.381 1.31624 111.192 1.44886 110.997 1.58679C110.813 1.74593 110.628 1.88386 110.444 2.04831C110.26 2.23398 110.076 2.41966 109.928 2.64777C109.612 3.08807 109.407 3.63978 109.36 4.1968C109.312 4.75912 109.423 5.31083 109.602 5.80949C109.981 6.80681 110.628 7.61846 111.355 8.31871C112.092 9.00834 112.94 9.6131 113.877 10.0322C114.33 10.2709 114.814 10.4301 115.293 10.6104C115.535 10.6953 115.783 10.759 116.03 10.8279L116.404 10.934C116.525 10.9659 116.651 10.9871 116.778 11.0136C117.025 11.0666 117.278 11.1144 117.53 11.1674C117.783 11.1993 118.036 11.2364 118.294 11.2735L118.673 11.3266L119.057 11.3531C119.315 11.3796 119.568 11.3955 119.826 11.4115C122.853 11.56 125.759 11.1727 128.507 10.6847C129.197 10.5627 129.876 10.4248 130.55 10.2868C130.719 10.255 130.887 10.2179 131.055 10.1807C131.234 10.1489 131.408 10.1012 131.582 10.0534C131.924 9.95792 132.256 9.85182 132.577 9.73512C133.872 9.26828 135.067 8.72188 136.236 8.18078C138.558 7.08797 140.716 5.98985 142.759 5.00314C144.796 4.02174 146.707 3.13582 148.487 2.40905C150.261 1.68227 151.904 1.10935 153.373 0.738002C154.847 0.366659 156.152 0.202207 157.216 0.255256C158.285 0.303 159.09 0.578855 159.574 0.85471C159.701 0.923674 159.806 0.992637 159.896 1.05099C159.985 1.10935 160.059 1.16239 160.111 1.21544C160.227 1.30563 160.285 1.34807 160.285 1.34807C160.285 1.34807 160.232 1.29502 160.122 1.20483C160.069 1.15178 160.001 1.09343 159.917 1.02447C159.827 0.955503 159.727 0.886539 159.606 0.806966C159.132 0.488672 158.321 0.159768 157.232 0.0483649C156.147 -0.0683429 154.799 0.0271453 153.283 0.32422C151.767 0.631904 150.072 1.12526 148.25 1.78837C146.423 2.44618 144.465 3.26313 142.38 4.18088C140.3 5.09863 138.1 6.13309 135.778 7.15693C134.614 7.6662 133.419 8.17547 132.193 8.59456C131.882 8.70066 131.577 8.79084 131.266 8.87042C131.113 8.91285 130.961 8.94999 130.808 8.97651L130.313 9.072C129.645 9.19401 128.976 9.31603 128.297 9.42743C125.585 9.87835 122.753 10.2285 119.894 10.0905C119.652 10.0693 119.41 10.0534 119.173 10.0322L118.81 10.0057L118.457 9.95792C118.22 9.92609 117.983 9.89426 117.746 9.85713C117.515 9.81469 117.283 9.77225 117.051 9.7245C116.936 9.70329 116.82 9.67676 116.709 9.65554L116.372 9.56005C116.146 9.49639 115.919 9.44335 115.698 9.36377C115.272 9.20462 114.83 9.0667 114.43 8.8545C113.598 8.49377 112.866 7.97389 112.213 7.39035C111.576 6.8015 111.029 6.10656 110.739 5.37449C110.602 5.00314 110.528 4.6318 110.549 4.28698C110.57 3.94216 110.681 3.60795 110.886 3.31618C110.981 3.16234 111.102 3.02972 111.234 2.89179C111.376 2.76447 111.539 2.62655 111.687 2.49923C111.85 2.38252 112.013 2.2552 112.176 2.1438C112.35 2.04831 112.513 1.9316 112.692 1.85203C114.108 1.11996 115.74 1.04038 117.251 1.25788C118.778 1.47008 120.215 1.95282 121.542 2.47801C122.874 3.02441 124.101 3.62917 125.233 4.23393C127.502 5.44345 129.397 6.64236 130.934 7.61846C132.419 8.68474 134.22 10.0163 136.289 11.5706C138.363 13.1249 140.7 14.8968 143.338 16.7376C144.659 17.6553 146.06 18.5837 147.566 19.4802C149.071 20.3714 150.677 21.2361 152.467 21.878C153.362 22.191 154.304 22.4563 155.31 22.5677C156.284 22.6579 157.279 22.695 158.295 22.5889C159.311 22.4775 160.343 22.2335 161.317 21.7401C161.796 21.4749 162.275 21.1884 162.681 20.7746C162.896 20.5942 163.075 20.3502 163.254 20.1274C163.339 20.0107 163.412 19.8728 163.491 19.7508C163.576 19.6288 163.633 19.4908 163.691 19.3529C164.044 18.5466 164.128 17.5917 163.881 16.7482C163.644 15.9047 163.149 15.1832 162.565 14.6262C161.97 14.0692 161.291 13.6448 160.585 13.3531C159.88 13.056 159.153 12.8491 158.432 12.7324C156.984 12.4831 155.552 12.5149 154.189 12.6793C153.846 12.7059 153.499 12.7642 153.157 12.8332C152.815 12.9074 152.478 12.9764 152.151 13.0825C151.493 13.2841 150.856 13.5334 150.261 13.8411C149.666 14.1435 149.108 14.4883 148.576 14.8596C148.05 15.2363 147.56 15.6395 147.097 16.0533C146.176 16.8967 145.37 17.7986 144.654 18.7057C143.222 20.5306 142.117 22.3714 141.143 24.0477C140.895 24.4668 140.658 24.87 140.427 25.2732C140.19 25.6816 139.99 26.106 139.821 26.5198C139.479 27.3421 139.242 28.1484 139.068 28.907C138.726 30.4348 138.652 31.8035 138.837 32.8963C138.926 33.4374 139.084 33.9149 139.279 34.2915C139.474 34.6681 139.711 34.944 139.927 35.1403C140.037 35.2252 140.132 35.3153 140.227 35.3684C140.316 35.4267 140.39 35.4798 140.458 35.5063C140.59 35.57 140.658 35.6018 140.658 35.6018Z" fill="url(#paint7_linear_96_301)"/>
<path fill-rule="evenodd" clip-rule="evenodd" d="M140.342 35.6018C140.342 35.6018 140.411 35.57 140.542 35.5063C140.611 35.4798 140.684 35.4267 140.774 35.3684C140.869 35.3153 140.963 35.2252 141.079 35.1403C141.29 34.944 141.527 34.6681 141.721 34.2915C141.916 33.9149 142.074 33.4374 142.164 32.8963C142.348 31.8035 142.274 30.4348 141.932 28.907C141.758 28.1484 141.521 27.3421 141.179 26.5198C141.011 26.106 140.816 25.6816 140.574 25.2732C140.342 24.87 140.105 24.4668 139.863 24.0477C138.884 22.3714 137.778 20.5306 136.346 18.7057C135.63 17.7986 134.825 16.8967 133.903 16.0533C133.44 15.6395 132.95 15.2363 132.424 14.8596C131.897 14.4883 131.334 14.1435 130.739 13.8411C130.144 13.5334 129.507 13.2841 128.854 13.0825C128.523 12.9764 128.186 12.9074 127.844 12.8332C127.501 12.7642 127.154 12.7059 126.812 12.6793C125.448 12.5149 124.016 12.4831 122.568 12.7324C121.847 12.8491 121.121 13.056 120.415 13.3531C119.71 13.6448 119.031 14.0692 118.441 14.6262C117.851 15.1832 117.356 15.9047 117.119 16.7482C116.872 17.5917 116.956 18.5466 117.309 19.3529C117.367 19.4908 117.425 19.6288 117.509 19.7508C117.588 19.8728 117.662 20.0107 117.746 20.1274C117.93 20.3502 118.104 20.5942 118.32 20.7746C118.725 21.1884 119.204 21.4749 119.683 21.7401C120.657 22.2335 121.694 22.4775 122.705 22.5889C123.721 22.695 124.716 22.6579 125.69 22.5677C126.696 22.4563 127.638 22.191 128.533 21.878C130.323 21.2361 131.929 20.3714 133.435 19.4802C134.94 18.5837 136.341 17.6553 137.662 16.7376C140.3 14.8968 142.637 13.1249 144.712 11.5706C146.781 10.0163 148.581 8.68474 150.066 7.61846C151.603 6.64236 153.504 5.44345 155.768 4.23393C156.9 3.62917 158.132 3.02441 159.458 2.47801C160.785 1.95282 162.222 1.47008 163.749 1.25788C165.265 1.04038 166.892 1.11996 168.308 1.85203C168.487 1.9316 168.65 2.04831 168.824 2.1438C168.987 2.2552 169.151 2.38252 169.314 2.49923C169.461 2.62655 169.624 2.76447 169.767 2.89179C169.898 3.02972 170.019 3.16234 170.114 3.31618C170.319 3.60795 170.43 3.94216 170.451 4.28698C170.472 4.6318 170.398 5.00314 170.261 5.37449C169.972 6.10656 169.424 6.8015 168.787 7.39035C168.14 7.97389 167.403 8.49377 166.571 8.8545C166.171 9.0667 165.729 9.20462 165.302 9.36377C165.081 9.44335 164.855 9.49639 164.633 9.56005L164.297 9.65554C164.181 9.67676 164.065 9.70329 163.949 9.7245C163.717 9.77225 163.486 9.81469 163.254 9.85713C163.017 9.89426 162.78 9.92609 162.543 9.95792L162.191 10.0057L161.827 10.0322C161.59 10.0534 161.348 10.0693 161.106 10.0905C158.247 10.2285 155.415 9.87835 152.704 9.42743C152.024 9.31603 151.356 9.19401 150.687 9.072L150.192 8.97651C150.04 8.94999 149.887 8.91285 149.734 8.87042C149.424 8.79084 149.118 8.70066 148.808 8.59456C147.581 8.17547 146.386 7.6662 145.222 7.15693C142.901 6.13309 140.7 5.09863 138.621 4.18088C136.541 3.26313 134.577 2.44618 132.75 1.78837C130.924 1.12526 129.234 0.631904 127.717 0.32422C126.201 0.0271453 124.853 -0.0683429 123.769 0.0483649C122.679 0.159768 121.873 0.488672 121.394 0.806966C121.273 0.886539 121.173 0.955503 121.089 1.02447C121 1.09343 120.931 1.15178 120.878 1.20483C120.768 1.29502 120.715 1.34807 120.715 1.34807C120.715 1.34807 120.773 1.30563 120.889 1.21544C120.942 1.16239 121.015 1.10935 121.105 1.05099C121.194 0.992637 121.3 0.923674 121.426 0.85471C121.916 0.578855 122.716 0.303 123.785 0.255256C124.848 0.202207 126.154 0.366659 127.628 0.738002C129.102 1.10935 130.739 1.68227 132.513 2.40905C134.293 3.13582 136.204 4.02174 138.247 5.00314C140.284 5.98985 142.448 7.08797 144.77 8.18078C145.933 8.72188 147.128 9.26828 148.423 9.73512C148.745 9.85182 149.081 9.95792 149.418 10.0534C149.592 10.1012 149.766 10.1489 149.945 10.1807C150.113 10.2179 150.282 10.255 150.456 10.2868C151.124 10.4248 151.803 10.5627 152.493 10.6847C155.241 11.1727 158.147 11.56 161.175 11.4115C161.433 11.3955 161.685 11.3796 161.943 11.3531L162.327 11.3266L162.707 11.2735C162.965 11.2364 163.217 11.1993 163.47 11.1674C163.723 11.1144 163.975 11.0666 164.223 11.0136C164.349 10.9871 164.476 10.9659 164.597 10.934L164.97 10.8279C165.218 10.759 165.465 10.6953 165.707 10.6104C166.187 10.4301 166.671 10.2709 167.124 10.0322C168.061 9.6131 168.908 9.00834 169.645 8.31871C170.372 7.61846 171.02 6.80681 171.399 5.80949C171.578 5.31083 171.688 4.75912 171.641 4.1968C171.593 3.63978 171.388 3.08807 171.077 2.64777C170.925 2.41966 170.746 2.23398 170.556 2.04831C170.372 1.88386 170.188 1.74593 170.003 1.58679C169.809 1.44886 169.619 1.31624 169.419 1.18361C169.208 1.07221 169.008 0.944893 168.798 0.849405C167.95 0.446233 167.045 0.228732 166.16 0.154463C165.281 0.0854992 164.418 0.149158 163.602 0.29239C161.964 0.578855 160.49 1.13056 159.142 1.73532C157.8 2.34539 156.573 3.0085 155.452 3.66631C153.22 4.99784 151.372 6.28693 149.887 7.35321C148.344 8.33462 146.481 9.58127 144.343 11.0454C142.206 12.5096 139.8 14.1912 137.125 15.9259C135.788 16.7959 134.377 17.6819 132.887 18.5147C131.397 19.3476 129.818 20.1433 128.138 20.7163C127.301 20.9974 126.438 21.2202 125.569 21.3051C124.664 21.3741 123.748 21.3953 122.847 21.2998C121.947 21.1884 121.063 20.9656 120.278 20.5677C119.899 20.3502 119.52 20.1221 119.231 19.8144C119.062 19.6818 118.946 19.512 118.815 19.3529C118.752 19.268 118.704 19.1725 118.651 19.093C118.594 19.0028 118.557 18.9126 118.515 18.8171C118.283 18.276 118.22 17.6659 118.388 17.1036C118.546 16.5307 118.888 16.0108 119.336 15.5811C119.789 15.1514 120.331 14.7907 120.926 14.5414C121.521 14.2867 122.147 14.0904 122.79 13.9843C124.079 13.7509 125.401 13.7456 126.685 13.8729C127.012 13.8942 127.317 13.9472 127.628 13.9949C127.933 14.0533 128.233 14.1117 128.533 14.2018C129.123 14.3716 129.702 14.5785 130.25 14.849C130.797 15.109 131.324 15.4167 131.824 15.7456C132.319 16.0798 132.787 16.4458 133.235 16.8278C134.13 17.5917 134.925 18.4245 135.651 19.2786C137.094 20.9974 138.257 22.764 139.3 24.3926C139.563 24.801 139.816 25.1989 140.063 25.5862C140.305 25.9575 140.511 26.3501 140.69 26.7373C141.053 27.5118 141.321 28.2864 141.532 29.0131C141.937 30.4773 142.079 31.8035 141.958 32.8698C141.9 33.395 141.779 33.8618 141.611 34.2384C141.448 34.6098 141.232 34.891 141.037 35.0978C140.937 35.1933 140.847 35.2782 140.758 35.3366C140.674 35.4055 140.6 35.4639 140.532 35.4904C140.411 35.57 140.342 35.6018 140.342 35.6018Z" fill="url(#paint8_linear_96_301)"/>
<path fill-rule="evenodd" clip-rule="evenodd" d="M140.489 38.6119C139.28 36.0406 140.563 35.7103 140.563 35.7103C141.852 36.2647 140.489 38.6119 140.489 38.6119ZM140.279 39.1957C140.279 39.0837 140.376 38.9893 140.489 38.9952C140.597 38.9952 140.688 39.0955 140.682 39.2134C140.682 39.3314 140.591 39.4198 140.478 39.4139C140.364 39.4139 140.273 39.3137 140.279 39.1957ZM140.586 34.3303C136.196 39.7796 140.427 40.6878 140.427 40.6878C144.788 39.6616 140.586 34.3303 140.586 34.3303Z" fill="url(#paint9_linear_96_301)"/>
<path fill-rule="evenodd" clip-rule="evenodd" d="M141.135 34.3692C141.148 33.6502 140.866 33.0725 140.519 33.0597C140.166 33.034 139.871 33.5989 139.864 34.2921C139.858 34.9854 140.134 35.5759 140.481 35.6016C140.834 35.6144 141.129 35.0624 141.135 34.3692Z" fill="url(#paint10_linear_96_301)"/>
<path fill-rule="evenodd" clip-rule="evenodd" d="M3.32967 3.17C7.40158 1.05346 7.97656 3.18572 7.97656 3.18572C7.12454 5.35465 3.32967 3.17 3.32967 3.17ZM2.37833 2.83471C2.56651 2.83471 2.71809 2.99188 2.71809 3.17524C2.71809 3.36384 2.56651 3.51053 2.37833 3.51053C2.19016 3.51053 2.03857 3.36384 2.03857 3.17C2.03857 2.98664 2.19538 2.83471 2.37833 2.83471ZM10.1719 3.17524C1.30155 -3.94452 0 3.13333 0 3.13333C1.80858 10.3631 10.1719 3.17524 10.1719 3.17524Z" fill="url(#paint11_linear_96_301)"/>
<path fill-rule="evenodd" clip-rule="evenodd" d="M10.1648 3.81446C10.868 3.81801 11.4363 3.53034 11.4434 3.1823C11.4434 2.8307 10.8751 2.54658 10.179 2.54303C9.47576 2.53948 8.90039 2.82715 8.90039 3.17875C8.90039 3.52679 9.46155 3.81446 10.1648 3.81446Z" fill="url(#paint12_linear_96_301)"/>
<path fill-rule="evenodd" clip-rule="evenodd" d="M17.7937 3.81449C18.4969 3.81449 19.0723 3.53037 19.0723 3.17876C19.0723 2.83071 18.5111 2.54303 17.8079 2.54303C17.1047 2.53948 16.5364 2.82361 16.5293 3.17521C16.5293 3.52682 17.0976 3.81094 17.7937 3.81449Z" fill="url(#paint13_linear_96_301)"/>
<path fill-rule="evenodd" clip-rule="evenodd" d="M14.6063 5.08596C14.6063 5.08596 11.4175 3.17872 11.4435 3.17068C11.4175 3.16263 14.6271 1.27148 14.6271 1.27148C14.997 1.89516 17.8055 3.18677 17.8003 3.18677C17.8471 3.21091 14.9866 4.46229 14.6063 5.08596Z" fill="url(#paint14_linear_96_301)"/>
<path fill-rule="evenodd" clip-rule="evenodd" d="M99.2796 3.18784C99.2796 3.18784 99.6359 1.90843 102.18 3.17336C102.18 3.17336 99.8065 4.48657 99.2796 3.18784ZM102.988 3.17336C102.988 3.28923 102.897 3.38096 102.777 3.38096C102.662 3.38579 102.566 3.29406 102.566 3.18302C102.566 3.06714 102.662 2.97059 102.777 2.97059C102.892 2.97059 102.988 3.06232 102.988 3.17336ZM104.262 3.15405C104.262 3.15405 103.449 -1.09457 97.9048 3.17336C97.9048 3.17336 103.133 7.48956 104.262 3.15405Z" fill="url(#paint15_linear_96_301)"/>
<path fill-rule="evenodd" clip-rule="evenodd" d="M97.2718 3.81442C96.9225 3.81987 96.6333 3.53612 96.6333 3.18689C96.6333 2.83766 96.9171 2.543 97.2663 2.543C97.6156 2.543 97.9048 2.82675 97.9048 3.18144C97.9048 3.53067 97.621 3.81442 97.2718 3.81442Z" fill="url(#paint16_linear_96_301)"/>
<path fill-rule="evenodd" clip-rule="evenodd" d="M17.8008 3.81449H96.6334V2.543H17.8008V3.81449Z" fill="url(#paint17_linear_96_301)"/>
<defs>
<linearGradient id="paint0_linear_96_301" x1="270.828" y1="3.16979" x2="281" y2="3.16979" gradientUnits="userSpaceOnUse">
<stop stop-color="#FEF275"/>
<stop offset="1" stop-color="#BDA32B"/>
</linearGradient>
<linearGradient id="paint1_linear_96_301" x1="269.557" y1="3.17696" x2="270.828" y2="3.17696" gradientUnits="userSpaceOnUse">
<stop stop-color="#FEF275"/>
<stop offset="1" stop-color="#BDA32B"/>
</linearGradient>
<linearGradient id="paint2_linear_96_301" x1="261.928" y1="3.17696" x2="263.199" y2="3.17696" gradientUnits="userSpaceOnUse">
<stop stop-color="#FEF275"/>
<stop offset="1" stop-color="#BDA32B"/>
</linearGradient>
<linearGradient id="paint3_linear_96_301" x1="263.199" y1="3.17336" x2="269.557" y2="3.17336" gradientUnits="userSpaceOnUse">
<stop stop-color="#FEF275"/>
<stop offset="1" stop-color="#BDA32B"/>
</linearGradient>
<linearGradient id="paint4_linear_96_301" x1="176.738" y1="3.17336" x2="183.095" y2="3.17336" gradientUnits="userSpaceOnUse">
<stop stop-color="#FEF275"/>
<stop offset="1" stop-color="#BDA32B"/>
</linearGradient>
<linearGradient id="paint5_linear_96_301" x1="183.095" y1="3.17696" x2="184.367" y2="3.17696" gradientUnits="userSpaceOnUse">
<stop stop-color="#FEF275"/>
<stop offset="1" stop-color="#BDA32B"/>
</linearGradient>
<linearGradient id="paint6_linear_96_301" x1="184.367" y1="3.17696" x2="263.199" y2="3.17696" gradientUnits="userSpaceOnUse">
<stop stop-color="#FEF275"/>
<stop offset="1" stop-color="#BDA32B"/>
</linearGradient>
<linearGradient id="paint7_linear_96_301" x1="109.349" y1="17.7508" x2="164.023" y2="17.7508" gradientUnits="userSpaceOnUse">
<stop stop-color="#FEF275"/>
<stop offset="1" stop-color="#BDA32B"/>
</linearGradient>
<linearGradient id="paint8_linear_96_301" x1="116.978" y1="17.7508" x2="171.652" y2="17.7508" gradientUnits="userSpaceOnUse">
<stop stop-color="#FEF275"/>
<stop offset="1" stop-color="#BDA32B"/>
</linearGradient>
<linearGradient id="paint9_linear_96_301" x1="138.593" y1="37.5001" x2="142.407" y2="37.5001" gradientUnits="userSpaceOnUse">
<stop stop-color="#FEF275"/>
<stop offset="1" stop-color="#BDA32B"/>
</linearGradient>
<linearGradient id="paint10_linear_96_301" x1="139.864" y1="34.3268" x2="141.136" y2="34.3268" gradientUnits="userSpaceOnUse">
<stop stop-color="#FEF275"/>
<stop offset="1" stop-color="#BDA32B"/>
</linearGradient>
<linearGradient id="paint11_linear_96_301" x1="0" y1="3.16979" x2="10.1719" y2="3.16979" gradientUnits="userSpaceOnUse">
<stop stop-color="#FEF275"/>
<stop offset="1" stop-color="#BDA32B"/>
</linearGradient>
<linearGradient id="paint12_linear_96_301" x1="8.90039" y1="3.17696" x2="11.4434" y2="3.17696" gradientUnits="userSpaceOnUse">
<stop stop-color="#FEF275"/>
<stop offset="1" stop-color="#BDA32B"/>
</linearGradient>
<linearGradient id="paint13_linear_96_301" x1="16.5293" y1="3.17696" x2="19.0723" y2="3.17696" gradientUnits="userSpaceOnUse">
<stop stop-color="#FEF275"/>
<stop offset="1" stop-color="#BDA32B"/>
</linearGradient>
<linearGradient id="paint14_linear_96_301" x1="11.4434" y1="3.17336" x2="17.8008" y2="3.17336" gradientUnits="userSpaceOnUse">
<stop stop-color="#FEF275"/>
<stop offset="1" stop-color="#BDA32B"/>
</linearGradient>
<linearGradient id="paint15_linear_96_301" x1="97.9048" y1="3.17336" x2="104.262" y2="3.17336" gradientUnits="userSpaceOnUse">
<stop stop-color="#FEF275"/>
<stop offset="1" stop-color="#BDA32B"/>
</linearGradient>
<linearGradient id="paint16_linear_96_301" x1="96.6333" y1="3.17696" x2="97.9048" y2="3.17696" gradientUnits="userSpaceOnUse">
<stop stop-color="#FEF275"/>
<stop offset="1" stop-color="#BDA32B"/>
</linearGradient>
<linearGradient id="paint17_linear_96_301" x1="17.8008" y1="3.17696" x2="96.6334" y2="3.17696" gradientUnits="userSpaceOnUse">
<stop stop-color="#FEF275"/>
<stop offset="1" stop-color="#BDA32B"/>
</linearGradient>
</defs>
</svg>
