<svg width="202" height="114" viewBox="0 0 202 114" fill="none" xmlns="http://www.w3.org/2000/svg">
<path fill-rule="evenodd" clip-rule="evenodd" d="M36.8651 80.201C38.4764 79.1957 41.0841 72.2341 41.738 70.4297C43.2226 66.3288 44.2179 63.9295 45.4622 59.5173L48.3513 48.063C48.9841 45.4067 50.4297 38.0368 50.4297 35.4985C51.3883 34.0605 51.872 18.78 51.872 17.4722C42.5098 19.6375 41.003 19.781 31.5684 24.5331C30.1028 25.2714 28.6972 26.1344 27.3527 26.9378C23.6029 29.176 19.6708 32.0862 16.3458 34.939C16.1345 35.12 16.1467 35.0394 15.9521 35.3308C15.4784 36.0437 15.8142 34.9754 15.7931 35.8042C12.9363 36.9575 6.54093 45.5468 4.94738 49.6721C1.04301 59.7789 7.8687 69.8901 14.4197 76.9829C15.127 77.7488 21.4089 83.29 22.7222 83.6377C23.6163 82.9876 25.8025 79.4528 26.7022 78.1362C27.1948 77.4178 27.703 76.9874 27.9165 76.1906C25.6791 75.5979 20.3891 70.8535 18.7511 69.2467C12.4814 63.0974 11.2293 53.8095 16.9874 46.1527C19.6641 42.5936 24.1678 39.3059 25.162 38.0269C25.2031 37.9739 25.271 37.8856 25.3188 37.8105C26.2896 37.7863 27.9354 36.2677 28.8962 35.6298C32.3769 33.3211 35.4917 31.6028 39.4895 30.3899C40.4481 30.0986 41.2999 30.1758 42.0594 29.7388C42.0594 35.738 42.2762 34.1808 41.4689 40.0873C41.2176 41.9248 40.0744 48.0001 39.4617 49.2659C32.3157 49.2659 25.7525 49.5529 18.3919 49.5529C18.0705 50.9247 17.1431 52.6783 16.6271 54.1019C16.1745 55.3479 15.0402 57.6721 14.929 59.0052C16.6316 58.6113 19.3905 59.0505 22.5576 58.9258L36.5759 59.0052C36.0244 60.1464 35.5384 62.8359 35.0313 64.3467C33.6535 68.4455 28.6204 78.5192 28.4937 79.0963C28.2268 79.37 28.4992 79.0345 28.1267 79.5576L25.3188 84.7832C26.9846 85.6584 31.2081 88.2011 32.5348 88.5068C33.2654 87.1372 34.1239 86.0281 34.9335 84.5857C35.3972 83.758 35.634 83.3783 36.0922 82.5848C37.3399 80.424 37.0308 80.8731 36.8651 80.201ZM156.063 72.467C155.356 73.7615 156.68 74.821 157.219 75.6178C156.545 76.5305 156.738 75.8506 156.064 76.7633C156.782 79.8203 155.799 79.7442 156.928 80.4869C155.958 80.8919 155.742 81.0354 154.621 81.0597C154.621 79.5499 155.169 78.741 154.623 77.3361C155.532 76.9587 155.098 77.5127 155.241 75.9246C155.367 74.523 155 72.2584 154.75 70.9076C154.498 69.548 154.38 69.4244 153.925 68.2888C153.5 67.226 153.394 66.5936 152.495 65.9844C151.001 64.9724 149.04 64.6745 147.15 64.1271C145.027 63.5124 143.333 63.3303 142.788 61.0094C144.468 61.3979 146.966 63.0511 148.925 63.7982C151.481 64.7727 153.672 64.6866 156.352 65.3068C155.931 67.1057 154.268 71.0599 156.063 72.467ZM158.085 80.4858C158.085 78.9242 157.893 78.7785 157.796 77.623C158.505 77.2853 159.046 77.0734 160.106 77.0503C159.968 75.4147 158.5 75.0814 157.598 73.2384C157.37 72.7727 157.42 72.7926 157.272 72.4129C157.246 72.3467 157.219 72.2661 157.193 72.2021C157.168 72.1381 157.132 72.0509 157.109 71.9936C157.085 71.9373 157.04 71.8346 157.02 71.7894C157.001 71.743 156.968 71.6481 156.931 71.5852C156.931 69.1154 157.641 68.057 158.085 66.1654C159.107 66.2504 159.56 66.7912 160.306 67.3982C161.025 67.9831 161.572 68.3219 162.084 69.0712C162.558 69.7643 162.966 70.6063 163.243 71.3568C164.024 73.4724 163.383 73.0751 164.432 73.8995C163.667 75.8672 163.279 79.9373 163.279 82.4921C164.466 82.2173 167.463 80.3556 169.341 80.201C169.341 78.0711 168.897 77.7875 168.764 76.1906C169.557 75.663 169.809 75.4357 171.072 75.3319C170.978 74.1997 171.266 74.906 170.715 74.2427C169.915 73.2803 170.523 73.9127 169.918 73.8973C169.452 72.7617 169.722 73.3841 169.012 72.4858C168.709 72.1028 168.432 71.7817 168.142 71.3656C167.531 70.4882 167.052 69.6142 166.452 68.7545C163.948 65.1678 164.995 63.9924 164.114 62.4728C163.524 61.4552 164.168 62.1825 162.92 61.6528C161.528 61.0613 160.164 59.8605 159.472 58.4866C158.331 56.2242 159.623 53.6086 160.106 51.5581C160.733 51.8572 161.343 51.9102 162.086 52.1695L165.613 53.8249C168.843 55.7121 169.052 60.6584 169.052 64.1602C170.186 64.1856 169.729 64.0818 170.495 64.4471C170.794 63.8302 171.581 60.9719 171.65 60.1508C173.332 60.5966 173.595 63.7982 175.402 64.4471V58.1455C176.168 58.6543 176.668 59.2403 177.345 59.9488C178.75 61.4177 177.954 60.8703 179.731 60.7236C179.731 58.9611 177.979 55.3247 177.121 53.8614C176.028 51.9974 174.732 49.3222 172.806 48.1204C171.939 45.4298 163.061 44.1574 158.95 46.1152C154.871 40.0685 150.722 40.9602 144.231 40.9602C145.566 39.8081 146.228 39.6282 148.094 39.3501C149.647 39.1194 151.631 38.955 153.179 38.955V38.0953C152.19 37.8337 150.812 36.5756 150.292 35.8042C152.025 34.8937 155.001 33.9689 155.427 32.287C155.613 31.5542 155.588 30.433 155.198 30.0522C156.364 28.5888 159.408 26.4721 159.974 25.0452C160.444 23.861 159.753 23.2993 159.528 22.3413C161.1 21.5931 161.994 21.5931 163.223 20.2798C163.898 19.5581 165.2 17.5197 165.3 16.3267L163.578 15.9967C164.457 14.7386 172.297 11.1199 173.477 9.8331C174.323 8.90828 173.959 6.44504 173.959 4.8691C171.923 4.91434 168.598 7.24626 166.166 7.44711C166.687 6.47043 166.498 6.75516 167.244 5.93849C168.517 4.54353 169.255 3.85599 169.573 2.52173C169.792 1.60133 169.918 0.998761 169.918 0C168.682 0.0275901 165.097 1.83971 163.757 2.47869C161.75 3.43441 160.022 4.47842 157.963 5.32157C148.749 9.09479 147.377 10.8032 135.674 13.5633C133.081 14.1747 133.422 15.9912 130.211 21.3172C129.334 22.7695 127.412 25.6842 129.223 27.3407C129.384 29.7068 131.243 32.0586 131.243 37.8083C131.022 37.5578 131.078 37.7388 130.758 37.144L129.838 34.3331C129.379 32.969 129.029 31.8699 128.481 30.5246C127.894 29.081 127.615 28.2004 126.863 26.9743C124.712 23.4615 121.775 20.8724 117.229 21.5975C111.908 22.4462 113.742 19.2005 110.462 18.332C110.462 20.5943 111.249 22.2817 106.999 20.0503C107.108 21.3503 108.055 22.7232 108.23 23.9879C108.352 24.8807 108.457 24.1954 108.009 25.0518C107.127 26.737 106.607 28.0999 105.821 29.7807C105.298 30.902 105.034 30.934 105.772 32.1634C107.183 34.5075 106.165 37.7068 105.845 41.533C107.502 42.4026 107.675 43.2171 109.02 44.1099C109.815 43.5813 110.471 42.8595 110.751 41.8188C111.863 41.9104 111.682 42.1058 113.06 42.1058C113.389 40.702 114.175 39.8633 114.214 38.0953C115.39 38.9506 114.933 41.6279 113.851 42.8904C113.458 43.3484 112.533 44.0448 112.332 44.5447C112.057 45.229 112.072 46.5897 112.483 47.008C112.506 48.3698 112.804 49.0342 113.06 50.1257C110.392 49.5087 107.439 47.2828 104.684 47.2287C101.664 47.168 101.469 49.2428 100.12 51.0317C98.5387 53.1286 94.9201 56.1778 94.0171 59.0108C93.2676 61.3603 89.8592 63.8611 89.3933 65.5927C90.7188 65.6225 91.6407 65.8939 93.4344 65.8796C94.9968 65.8675 96.3068 66.0639 97.1853 65.8796C97.1853 63.7905 97.4745 62.8822 97.4745 61.0094C98.9757 61.0094 99.7997 61.4199 99.7286 59.9665C99.6752 58.8684 98.7244 57.7196 100.36 57.2858C100.36 58.5881 100.266 60.2898 100.402 61.5413C100.6 63.3689 101.364 67.6818 101.195 69.2654C101.087 70.2719 100.737 71.9936 100.649 73.0398L107.576 69.3162C107.097 68.4168 106.632 67.674 106.133 66.7382C106.88 66.2427 107.6 65.7207 107.864 64.7329C106.733 64.4339 104.657 62.5666 104.51 61.5446C104.394 60.7335 105.444 57.469 105.556 56.1403C106.563 56.3732 111.207 59.4114 112.602 60.3185C113.57 60.9487 114.102 61.3548 115.08 61.8691C115.59 61.5314 116.382 60.941 116.875 60.4995C117.738 59.7259 117.518 59.5957 118.832 59.2911C121.676 61.3592 120.64 62.6427 128.818 61.4674L140.19 59.578C140.561 61.1584 142.059 63.562 143.187 64.3368C145.629 66.0164 150.117 66.0021 151.655 67.3904C152.748 68.3782 153.205 72.382 153.432 73.6611C153.798 75.7248 153.467 75.1532 153.467 77.1893L152.312 83.3518C153.597 83.3231 154.851 82.9159 156.281 82.7073C158.774 82.342 158.889 81.1987 158.085 80.4858ZM108.153 106.839V112.281C108.153 113.212 107.903 112.497 107.576 113.713H111.328C111.302 113.468 110.737 112.234 110.478 109.115C110.104 104.625 110.892 105.602 111.039 104.261H107.287C107.421 105.844 108.153 105.22 108.153 106.839ZM176.556 88.2209C169.198 88.829 171.906 98.0816 176.276 98.256C178.691 98.3531 179.414 96.6304 180.886 96.2408C180.524 94.6991 180.25 94.2389 179.443 93.9497C178.156 95.1615 179.58 95.7453 178.297 96.5741C176.118 97.9823 172.848 91.6145 174.247 90.2262C175.383 89.0994 178.821 92.2138 176.845 88.5068C177.995 88.6017 178.045 88.8467 178.591 89.6391L181.143 93.4277C181.972 94.6726 181.587 94.1914 181.463 95.668C182.975 95.5433 183.136 94.3636 184.926 93.9497V93.09C183.289 93.0536 182.426 91.662 182.04 90.2262C184.238 90.2262 184.468 91.3673 186.658 92.5173C188.28 91.439 188.859 91.5152 188.967 90.2262C186.515 90.7416 186.044 87.849 183.195 88.5068C183.195 86.9187 182.935 86.6031 182.906 85.3571C183.468 85.1253 184.021 85.2798 184.926 85.0702C184.698 84.2226 184.809 84.6055 184.349 83.9246C185.81 84.0317 185.573 84.4422 187.743 86.571C190.644 89.4172 189.925 89.1314 189.833 90.2262C191.286 90.1059 192.804 88.1205 193.007 87.3612C191.021 87.3612 191.377 87.3149 191.136 85.4961C190.99 84.4025 190.72 83.1388 190.699 82.2063C191.532 82.7592 191.792 83.4677 192.649 84.2844C194.768 86.2996 193.159 85.2544 193.874 86.7885C194.883 86.1175 196.431 85.1452 196.759 83.9246C195.049 83.2227 197.252 85.3769 193.365 81.564C192.479 80.6933 190.794 79.0489 190.699 77.9089C192.687 77.4498 192.998 78.8414 196.239 81.298C197.275 82.0849 197.349 82.0706 197.049 83.3518C198.278 83.2503 198.107 83.0384 199.686 81.1005C200.557 80.0322 201.191 79.3281 201.955 78.1958C201.454 77.4542 200.93 76.7402 199.934 76.4775C198.961 77.921 199.605 77.037 199.842 78.2907C200.087 79.5897 199.667 79.3148 199.069 80.201C197.95 79.9042 196.772 79.0257 196.471 77.9089C197.064 77.6274 198.054 77.505 198.78 77.3361C198.451 76.1111 198.653 76.8704 197.731 76.0857C196.944 75.4158 197.179 75.3088 196.182 75.045C195.315 76.8406 196.972 75.5979 195.605 77.623C194.837 77.1121 194.065 76.4146 193.297 75.9047C193.65 75.2415 193.758 74.6588 194.63 74.3928C195.969 73.9856 194.99 75.0759 196.759 73.8995C196.488 73.1556 196.039 72.8522 195.028 72.1812C194.101 72.797 192.519 75.1002 191.498 76.1243C190.452 77.1739 188.189 78.8006 187.813 80.201C188.399 80.4416 189.833 79.2089 189.833 85.3571C189.243 84.9278 188.864 84.2237 188.172 83.567C187.194 82.6378 186.947 82.8354 186.947 81.0597C184.953 81.2252 185.778 82.4105 183.519 83.3507C182.724 83.6818 183.002 83.3077 182.222 84.1144C180.194 86.2102 183.683 87.9859 181.174 89.6534C180.933 88.754 180.7 88.7507 180.225 87.9947C179.522 86.8756 179.909 87.2586 180.02 85.9287C179.134 86.134 176.869 87.3612 176.556 88.2209ZM55.624 100.537V99.3916C48.3002 95.5455 45.9593 104.058 48.6049 106.644C50.1628 108.167 51.0658 107.751 53.3154 108.271C53.6902 107.496 53.8926 106.889 53.8926 105.693C52.0088 105.735 52.4136 106.732 51.584 106.839C49.4089 106.337 49.7002 104.785 50.2573 102.659C51.0458 99.6532 51.9276 99.6785 53.6046 99.6785C54.5053 101.541 52.8328 101.104 55.336 101.683L55.624 100.537V102.255H56.7783C57.0775 101.145 57.1687 101.14 58.5109 101.11L57.222 107.565C56.5704 109.151 56.6627 107.417 56.2012 109.13C56.755 109.394 59.4428 109.923 60.2423 109.99C60.0021 107.814 59.8298 110.465 59.6885 108.27C59.6596 107.812 59.9387 106.737 60.0722 106.098C60.3669 104.701 60.8195 103.11 60.8195 101.683C62.2907 101.804 62.2629 102.163 62.2629 103.688H63.7063C63.7063 102.249 63.9654 102.406 63.9943 101.11C62.9457 101.024 56.8818 99.7161 56.2012 99.3916L55.624 100.537ZM168.474 74.1853C167.73 74.7128 167.696 74.6963 167.032 75.045C167.055 76.0338 167.404 77.8934 167.61 78.7686C166.769 79.21 166.298 79.5996 165.012 79.6283C165.391 78.8425 165.478 77.0481 165.616 75.9268C165.84 74.1036 166.217 74.0529 165.3 72.3302C165.063 70.0667 162.977 67.3518 161.3 66.1257C154.931 61.4674 155.624 64.4813 150.171 62.5622C147.23 61.527 144.541 59.9312 142.093 58.2581C140.769 57.3543 140.487 57.5937 138.864 57.9668C136.466 58.5186 134.174 58.8596 131.848 59.3176C120.246 61.6031 121.845 59.0019 118.832 57C118.079 57.3951 117.638 57.6975 116.931 58.2636C114.869 59.9124 115.734 60.5359 110.116 56.7716C108.992 56.0178 106.155 54.1207 104.978 53.8492C103.743 55.679 101.44 59.0759 103.035 62.3668C103.425 63.1725 104.024 64.0046 104.689 64.4471C104.247 65.0795 104.643 64.8025 103.824 65.0199C103.937 66.3552 104.674 67.8639 105.268 68.7434C104.247 68.9796 103.782 69.4564 102.958 69.889C102.936 68.9013 102.753 68.7699 102.687 67.8672C102.621 66.9986 102.707 66.2714 102.592 65.383C102.441 64.201 102.095 62.4672 102.082 61.0204C102.05 57.8564 101.658 54.7542 102.2 51.6641C103.38 44.9376 109.61 52.4167 115.369 52.4167L114.421 48.223C114.045 46.7365 114.141 47.0819 113.639 46.6879C114.237 44.9166 112.804 46.7685 115.333 43.5007C117.355 40.8863 116.372 39.6911 115.902 34.7017C115.891 34.5814 115.594 32.6567 115.518 32.4857C115.107 31.5509 114.91 32.0519 113.637 32.0806C113.857 34.7072 114.652 33.8718 113.19 35.9322C112.476 36.9387 112.312 38.689 112.194 40.1005C111.556 39.6602 111.835 40.0531 111.617 39.2408H109.885C109.779 40.5044 109.568 41.0066 109.02 41.8188C107.266 40.6534 107.66 40.4471 107.838 38.3701C107.991 36.5955 108.153 35.216 108.153 33.512C108.192 33.5738 108.222 33.6124 108.239 33.714L109.02 34.6587C109.632 33.8276 110.015 34.1013 110.501 33.2814C110.793 32.7881 110.644 31.9968 110.462 31.2209C109.571 31.6889 108.957 32.1193 108.153 32.6534C106.549 29.8988 106.65 32.6435 108.764 27.2435C110.266 23.4052 111.905 27.4168 111.905 21.7686C113.141 22.5897 113.014 23.4516 114.781 23.52C116.454 23.5851 121.835 22.0952 125.245 27.1475C126.637 29.208 127.259 31.3258 128.032 33.8354C128.399 35.0284 128.815 36.3869 129.221 37.5247C129.806 39.1691 129.501 39.8136 131.82 39.8136C133.511 37.3073 133.149 36.7599 132.425 33.1986C132.209 32.1369 131.358 28.2456 130.772 27.3782C130.306 26.6862 130.763 27.11 130.277 26.7723C130.226 26.737 130.165 26.6929 130.089 26.6377C130.652 25.139 129.409 25.8409 132.121 21.209C132.607 20.3802 132.954 19.8141 133.457 18.8098C135.01 15.6999 134.588 15.6094 137.191 14.7828C143.314 12.836 151.69 9.86732 157.124 7.35331L167.898 2.29108C167.577 3.65734 165.411 5.75971 164.477 6.91738C163.527 8.09383 161.372 9.96554 160.971 11.4576L172.227 6.87434V8.87959C170.114 9.98871 168.123 11.174 166.003 12.4409C164.886 13.1075 164.001 13.5986 162.936 14.2663C162.057 14.8159 160.805 15.7782 159.816 16.0398V16.6125C160.97 16.8796 161.767 17.3707 162.991 17.4722C160.347 22.4307 155.527 20.6197 154.91 22.9141C156.227 23.0234 157.212 23.5056 158.373 23.7738C158.242 25.3387 157.312 25.9148 156.354 26.6388L154.488 28.2346C153.896 28.8195 154.082 28.314 154.043 28.9299C152.693 29.4905 153.616 30.4076 153.756 32.0806L147.406 35.2314C147.797 36.6882 148.697 36.5348 149.427 37.5225C148.687 37.5832 147.307 37.8006 146.401 37.9573C144.543 38.2807 145.224 38.3359 143.896 39.1514C142.977 39.7154 142.445 40.0343 141.555 40.5994C140.286 41.405 140.412 41.4513 140.767 42.9644C147.878 42.9644 150.819 40.9051 155.404 44.7666C161.429 49.842 154.744 47.541 164.514 46.7641C164.965 46.7288 167.131 46.9594 167.779 47.0941C168.247 47.1912 168.785 47.4152 169.096 47.5245L170.495 47.8357C171.002 48.9823 170.394 47.8765 170.925 48.4967C170.925 48.4978 171.393 48.9536 171.4 48.9614C173.184 50.5616 176.071 54.0743 176.268 56.4272C175.323 55.7993 174.892 54.7453 173.67 54.422C173.968 55.6933 173.659 58.8563 173.959 59.578C173.002 59.2337 171.607 57.0541 171.362 56.1403H170.784C170.754 57.4359 170.495 57.2792 170.495 58.7183C168.174 55.4031 171.276 54.5743 163.187 50.79C162.297 50.374 160.275 49.6379 159.239 49.5529C156.992 54.2002 155.452 58.7172 160.972 62.4408C163.658 64.2529 161.123 62.7321 164.387 68.5492C165.256 70.0998 166.932 73.2241 168.474 74.1853ZM122.873 82.491C122.296 83.002 122.121 84.3031 121.827 85.1783C121.463 86.2631 120.946 87.3976 120.853 88.5068H126.625L128.389 84.5084C128.842 83.4445 128.901 84.1012 128.647 83.0649C129.334 82.6356 128.947 82.9446 129.433 82.4281C130.387 81.4128 131.545 79.0533 134.995 78.7686C134.7 79.3579 134.773 79.1096 134.707 79.9903L134.46 80.2739C134.235 80.6292 134.339 80.4041 134.162 80.8025L131.532 88.5068H137.881L140.937 80.712C141.223 79.9196 141.036 81.0486 141.057 80.201C142.153 79.7585 141.462 80.0543 142.345 79.455C142.871 79.0975 142.942 78.997 143.408 78.7895C145.011 78.0744 145.57 78.145 145.674 79.913C145.14 81.1049 144.821 82.629 144.398 84.0901C143.953 85.6253 143.425 87.0213 143.077 88.5068C143.944 88.094 145.811 88.1382 147.128 88.2287C149.785 88.4097 149.054 89.7571 150.807 83.5759C151.161 82.3266 151.851 81.1082 151.448 79.9141C152.256 79.2806 151.618 80.0156 152.068 79.1107C153.072 77.0933 152.664 71.1725 146.057 74.2802C144.803 74.8695 143.631 75.3099 142.5 75.9047C141.995 69.8846 132.639 75.4004 131.82 75.6178L132.158 73.3344L126.048 73.3267C125.343 74.6488 124.991 76.1365 124.428 77.7334C123.836 79.412 123.168 80.6337 122.873 82.491ZM136.727 106.839C136.94 105.935 137.092 104.879 137.304 103.975C137.344 104.031 137.395 104.058 137.411 104.154C137.433 104.286 137.59 104.449 137.628 104.512L138.748 106.553C137.898 106.749 137.866 106.839 136.727 106.839ZM134.129 111.422C135.207 111.398 136.376 111.063 137.304 110.849V109.99H136.438V108.271C137.004 108.002 138.475 107.717 139.324 107.698C139.969 110.444 139.886 108.187 139.324 110.276C141.168 110.276 141.855 109.827 143.365 109.704C143.042 108.504 143.077 109.175 142.64 108.704C140.609 106.516 139.201 101.11 137.881 101.11C135.839 101.11 136.306 101.593 135.572 105.979C135.294 107.647 135.228 109.09 134.66 110.23C134.063 111.431 134.331 109.599 134.129 111.422ZM166.454 93.9497C167.953 93.6032 169.341 92.9311 169.341 96.5277C168.581 96.7032 168.493 96.7882 167.898 97.1005C167.664 96.104 166.915 94.8128 166.454 93.9497ZM163.279 93.9497V94.8083C164.953 94.9463 165.181 96.9173 166.757 100.259C167.754 102.376 166.136 102.545 167.286 102.691C167.804 102.758 169.484 101.631 170.495 101.397V100.537C169.586 100.517 169.166 100.906 168.475 97.9591C173.54 96.7882 171.752 91.4114 168.357 92.0791C166.484 92.4477 165.166 93.7941 163.279 93.9497ZM102.381 110.276C102.381 108.124 106.372 110.315 104.501 112.359C103.834 113.087 103.604 112.853 102.381 112.853C102.957 111.663 102.381 111.671 102.381 110.276ZM104.149 114H99.495C99.822 112.784 100.072 113.499 100.072 112.568V108.271C100.072 107.344 100.007 106.933 99.7853 106.264C99.3738 105.016 99.3193 105.895 99.2059 104.548H103.247V105.406H102.381V108.271H104.112C108.369 108.271 108.392 113.523 104.379 113.977C104.305 113.986 104.228 113.993 104.149 114ZM156.352 96.5277C156.63 97.5596 156.379 97.2937 157.508 97.3864C157.657 99.1753 159.816 102.783 159.816 103.975C159.816 104.716 159.623 104.268 159.528 105.406C160.833 105.299 164.062 103.602 166.166 103.115C165.589 100.659 165.597 100.633 164.435 100.537C164.059 101.313 164.329 100.9 164.21 101.461C163.871 103.064 164.51 102.15 162.125 103.402C161.859 102.265 161.459 101.167 160.971 100.251C163.449 99.6774 161.5 100.485 163.858 100.537C163.626 99.5516 163.175 97.9393 162.414 97.3864C161.258 98.4756 162.326 98.9457 160.394 99.1047C160.3 97.9933 159.944 97.308 159.528 96.5277L161.534 95.9141C162.186 96.3788 162.611 97.2539 163.303 96.5686C163.954 95.9208 163.099 95.518 162.991 94.2356C161.686 94.3437 158.456 96.0411 156.352 96.5277ZM71.4984 111.995C73.7803 111.995 76.2412 112.673 78.4253 112.853C78.6221 112.018 78.9268 110.899 79.0024 109.99H77.5601C77.3888 112.031 76.1801 111.416 74.9624 111.135C74.9624 109.545 75.2504 109.437 75.2504 107.984C77.9771 108.209 75.4183 108.855 77.8481 109.417C77.8481 107.826 78.1372 107.718 78.1372 106.266C76.1111 106.311 77.4478 106.417 76.8384 106.746C76.6794 106.831 76.6927 107.632 75.8509 106.839C75.3104 106.33 75.5084 106.577 75.6274 105.564C75.6874 105.055 75.8275 104.831 75.8275 103.975C76.6827 104.381 76.6338 104.261 77.8481 104.261C78.4553 105.518 77.6646 105.821 79.5796 105.979C79.5796 104.54 79.8398 104.697 79.8687 103.402C77.6235 103.402 75.0591 102.589 72.9418 102.542C73.1453 104.976 73.768 101.426 72.9251 107.395C72.8117 108.196 72.7783 109.101 72.6271 109.964C72.2534 112.095 71.9677 110.251 71.4984 111.995ZM111.905 104.261V105.12C113.626 105.576 112.441 106.111 112.814 109.375C113.457 115.018 112.734 111.437 112.483 113.713C114.758 113.713 117.28 113.316 119.409 113.14V110.562H117.966C117.923 112.536 117.394 112.281 115.369 112.281V109.13C118.103 109.19 115.461 109.934 117.966 109.99C117.966 107.594 117.795 108.227 117.678 106.839C116.616 106.927 116.612 106.93 116.524 107.984H115.08V105.12C119.198 105.12 116.136 106.266 119.121 106.266L118.832 103.688L111.905 104.261ZM185.503 70.6163C184.859 70.8215 182.217 73.9878 179.772 75.9445L178.024 77.4807C177.974 77.5414 177.909 77.6385 177.868 77.6903C177.827 77.7444 177.759 77.8327 177.711 77.9078C176.802 77.8526 174.402 79.9009 172.228 81.0608C170.729 81.8598 167.07 83.524 166.454 84.4963C165.203 84.1939 165.113 84.6497 163.564 85.3516C162.663 85.7599 161.609 86.134 160.683 86.5026C150.254 90.6478 139.941 93.0525 128.733 94.8944C122.185 95.9715 104.654 97.6225 98.1306 96.7352L82.998 95.7133C77.0052 95.0887 74.76 95.0743 68.4069 94.1528C67.4494 94.0137 66.1328 93.8096 64.9807 93.5403C63.2715 93.1386 63.4405 92.9013 61.847 93.5238C60.4647 94.0634 56.9029 95.6394 55.624 95.668L62.7266 97.7859C79.3494 101.611 103.874 102.122 120.826 100.511C137.969 98.8817 159.352 93.59 174.283 85.0889C175.63 84.3208 175.287 84.5724 175.404 84.2104C177.632 83.4743 181.845 80.062 183.967 78.3669C184.829 77.6771 184.629 77.7522 184.639 77.3361C185.836 76.8527 187.027 75.5383 187.856 74.5153L189.779 72.1072C190.519 70.9727 190.165 71.7132 190.123 71.0345C192.359 69.6407 194.286 63.5631 194.856 61.1242C195.406 58.7636 195.623 51.0714 194.542 49.1622C194.068 48.3246 194.672 48.9923 193.875 48.4073C194.373 46.9318 192.07 43.4731 191.227 42.1565L189.546 40.3864C189.522 39.4384 186.3 36.2644 185.446 35.5857C184.64 34.9445 185.298 35.3274 184.35 34.9445C184.316 34.4015 183.891 34.1775 182.621 33.2229L175.784 28.5502C173.987 27.4897 167.431 23.6127 165.877 23.201C165.185 24.4978 163.297 26.3607 162.991 27.4974C166.165 28.2313 174.369 33.8012 175.279 34.2183C176.021 34.5582 175.448 34.5538 176.268 34.3728C176.772 35.5128 176.149 34.4258 176.692 35.0405L182.286 39.5708C182.704 39.9052 182.811 39.9593 183.259 40.3378L184.349 41.0474C184.621 42.406 184.851 42.0859 185.706 43.0516C187.901 45.5291 188.755 48.02 189.544 49.0254C189.785 51.6994 192.965 56.4725 188.199 65.9756L186.238 69.1749C185.571 70.1075 185.751 69.4497 185.503 70.6163ZM66.0149 109.99C66.2117 109.15 66.5164 107.746 66.5921 106.839C67.9009 106.947 69.0319 107.292 68.8184 108.744C68.5426 110.614 67.4361 110.106 66.0149 109.99ZM66.5921 105.693C66.8634 105.131 67.1503 103.671 67.1692 102.828C68.1823 103.312 69.7069 103.06 69.3432 104.676C68.9607 106.379 67.9009 105.801 66.5921 105.693ZM62.84 109.99V110.849C65.8792 110.849 71.2104 113.08 71.2104 108.557C71.2104 107.632 70.1973 107.136 69.7669 106.553C72.3936 106.335 74.1984 101.397 64.2835 101.397C64.4514 103.41 65.0897 100.974 64.2846 105.694C64.1289 106.606 64.0511 107.111 63.8865 108.163C63.6518 109.655 63.991 109.685 62.84 109.99ZM79.5796 112.853C80.9774 113.177 81.5879 113.14 83.3316 113.14C83.0958 110.994 83.0157 113.425 82.8512 111.696L83.0435 108.844C84.3146 108.872 84.3924 109.13 85.9293 109.13C85.0964 110.854 86.5187 112.105 84.775 112.568V113.427C86.4219 113.427 86.7711 113.713 88.527 113.713C88.289 111.55 88.1934 114.163 87.9532 111.973L88.527 105.12H89.3933V104.261L85.3577 103.917C85.5757 105.998 85.9393 103.725 86.0661 105.603C86.0705 105.672 85.9293 107.546 85.9293 107.984C84.7906 107.89 84.577 107.698 83.0435 107.698C83.7875 106.159 82.7255 106.601 83.7786 104.704C84.1445 104.047 84.0777 105.115 84.1978 103.688C82.4531 103.688 81.8437 103.724 80.4458 103.402C80.6738 106.124 81.0619 101.546 80.7294 108.266C80.6827 109.202 80.5826 109.828 80.4581 110.86C80.1634 113.284 80.1245 110.829 79.5796 112.853ZM89.3933 113.713C91.1648 113.713 92.1244 113.97 93.4333 114C93.2165 111.409 92.8562 115.335 92.8562 109.417C94.1617 109.445 94.0038 109.704 95.4539 109.704C95.4539 115.927 94.9068 111.107 94.5887 114H98.6288C98.0827 111.969 97.9093 114.434 97.7302 112.004C97.6457 110.855 97.9582 110.346 98.036 109.401C98.1072 108.54 97.9448 107.32 98.046 106.546C98.3474 104.232 98.6966 106.554 98.9179 104.548H94.8767C95.1047 106.617 95.2014 104.278 95.6363 106.055C95.773 106.616 95.4539 107.201 95.4539 108.271H92.8562C92.8562 106.37 92.6349 106.345 93.2899 105.264C93.7491 104.506 93.4066 105.722 93.7224 104.548C92.7605 104.09 91.3671 104.261 89.9704 104.261C90.1317 106.192 90.9679 104.37 90.3374 108.922C90.1973 109.942 90.3552 110.795 90.2796 111.729C90.0816 114.157 89.9426 111.669 89.3933 113.713ZM53.8926 57.8586C61.2509 57.8586 59.8742 49.3951 54.7033 49.0496C48.6994 48.6479 48.7383 57.8586 53.8926 57.8586ZM124.316 105.979L124.402 106.065C124.397 106.06 124.287 106.008 124.316 105.979ZM129.223 102.542C128.867 104.058 128.197 106.452 128.068 107.984L127.76 107.431C127.683 107.28 127.566 107.026 127.482 106.849L125.759 103.115L121.993 103.59C122.68 106.204 122.404 101.817 123.323 108.111C123.435 108.881 123.689 110.153 123.72 110.623C123.886 113.168 123.378 110.887 123.161 112.853C124.695 112.853 124.908 112.661 126.048 112.568V111.708C124.854 111.392 125.219 111.17 125.008 109.589C124.862 108.485 124.626 107.48 124.605 106.553L125.382 107.786C125.668 108.345 125.81 108.651 126.047 109.131C129.054 115.195 129.008 108 129.899 105.793L130.088 105.406C130.088 106.843 130.224 107.495 130.434 108.799C130.907 111.724 130.267 110.37 130.088 111.995L133.855 111.52C133.598 110.52 133.59 111.07 133.297 110.529L132.162 104.452C131.933 101.893 132.465 104.27 132.686 102.255C130.999 102.255 130.67 102.542 129.223 102.542ZM148.271 100.251C148.271 99.5185 148.728 100.205 148.444 100.251C148.44 100.251 148.271 101.05 148.271 100.251ZM142.211 103.402C142.211 105.953 143.795 109.13 145.963 109.13C147.799 109.13 148.903 108.305 150.292 107.984C150.144 106.222 150.243 105.731 148.56 105.693C148.56 109.456 144.519 108.021 144.519 102.255C144.519 100.708 146.82 99.5075 147.406 101.683C147.882 101.573 148.567 101.147 148.635 101.136C149.49 101.002 148.252 101.037 149.065 101.192C149.1 101.198 149.241 101.379 150.004 101.397C150.004 99.1621 149.966 99.7315 151.158 99.1047L153.204 105.406C153.538 107.056 153.043 105.575 152.889 107.411L156.627 106.224L156.642 105.406C155.149 105.284 155.047 103.668 154.099 100.472C153.791 99.4335 153.086 98.1666 154.243 98.331C155.782 98.5507 154.321 99.6421 156.642 99.1047C156.539 97.883 156.167 97.7494 156.064 96.5277C153.825 96.7121 150.551 98.4767 148.148 98.9822C146.283 99.3751 145.484 99.1102 144.051 100.073C143.092 100.714 142.211 101.956 142.211 103.402ZM72.6527 72.3644C72.2201 72.4736 72.4525 72.3313 72.0366 72.723L70.4675 74.5947C69.6012 75.6939 69.0652 76.1696 68.1078 77.122C66.0394 79.1769 64.2145 80.3147 63.5773 80.9217L62.84 81.9183C61.8314 81.6953 62.5053 81.7483 60.1834 83.0064C59.2415 83.5163 58.4264 83.8805 57.3977 84.2524C52.0166 86.2013 45.9882 85.4752 41.2465 82.4392C40.4614 81.937 39.4005 80.9868 38.5954 80.7738C38.006 83.2856 34.7733 87.4926 34.2662 89.6534C35.7931 90.4546 37.9749 91.3596 39.713 91.9809C41.6302 92.6663 43.4895 93.1739 45.9326 93.5425C57.1976 95.241 66.4798 91.0539 74.0238 83.5659L77.3799 80.0355C77.6902 79.3866 77.5479 79.8865 77.5612 79.3413C78.8756 78.7686 77.9237 79.4285 78.8245 78.2841L81.1798 74.9269C81.4567 74.2372 81.3466 74.7338 81.3132 74.1853C83.5484 72.7915 88.0333 61.7863 88.7739 59.823C89.7792 57.1611 90.601 54.6261 91.1281 51.5614C91.8576 47.3269 91.7608 47.6547 91.4672 44.3494C91.1926 41.2571 91.7497 42.4192 90.8378 41.8188C91.455 40.2319 90.1495 36.654 89.6023 35.3087C84.1222 21.8238 71.4316 13.9264 56.9407 16.4878C55.6474 16.7163 54.75 17.0915 53.6046 17.1853V26.3518C58.4975 25.2206 63.7942 24.7935 68.7205 26.2448C70.0082 26.6233 71.7975 27.2789 72.8284 27.8969C77.5534 30.7287 79.8375 34.7447 80.8161 40.02L81.0919 42.0175C81.2765 42.7933 81.0252 42.2294 81.3121 42.5792V48.9801H63.1281C62.79 49.6798 62.5587 50.5903 62.2996 51.3076C61.6491 53.1032 60.0866 56.8466 59.9543 58.4325C66.2307 58.4325 73.0775 58.2051 79.2915 58.7183C79.1069 60.9167 77.4478 64.2783 76.4981 65.9712C75.8331 67.1554 72.8584 71.3601 72.6527 72.3644ZM16.0833 91.6576L13.4856 89.6534C15.068 89.287 15.9054 88.392 17.0753 87.487C19.7486 85.4189 18.5854 85.2202 20.4125 85.6429C20.1489 86.6218 20.0399 86.3856 19.3838 87.2001L16.0833 91.6576ZM5.40442 77.3361L0.404704 77.5325C0.11335 77.5855 0.0533002 76.9576 0.0455159 77.8802C0.0410678 78.3591 0.176736 78.283 0.493667 78.7222C0.95405 79.359 1.31657 79.785 1.94154 80.201C2.18508 79.6956 2.27404 79.274 2.51869 78.7686C3.76862 78.7686 3.93765 78.9054 4.82728 78.4827C4.59931 79.4539 4.2201 79.956 3.961 81.0597L2.81783 80.7385C2.90568 81.9436 4.60042 83.9213 5.69355 84.2104C5.69355 81.8222 6.96016 80.5807 7.13587 78.4827C10.115 78.4827 9.033 78.2333 12.0422 78.4827C12.011 79.9163 10.5409 84.2855 10.0227 85.3571H8.29016C8.60042 84.0361 8.58596 82.9711 7.09806 84.1277C6.19508 84.8296 7.68299 84.2756 6.2707 84.7832C7.58735 89.6788 14.1539 83.9246 18.3919 83.9246C17.966 85.7389 15.6585 87.1052 14.0672 87.9428C10.3708 89.8874 13.0975 86.8436 10.3674 89.9933C9.69578 90.7681 9.73136 90.3101 9.44557 91.3717C13.2443 92.2502 9.66575 88.0753 15.4394 92.5835C16.9274 93.7467 16.477 93.7875 16.0711 95.0854C15.6897 96.3048 15.6051 95.391 16.3724 96.5277C17.0942 96.0477 17.5067 95.476 18.055 94.7333C19.0358 93.4068 18.4564 93.8272 18.1039 92.5173C18.8779 92.003 20.6916 89.3565 21.5835 88.2375C22.2518 87.3998 22.0683 87.3612 23.5873 87.3612C23.1848 85.8647 18.8445 83.5549 18.0283 83.0561C17.1053 82.4921 17.3421 81.9668 16.0833 81.6324C15.3649 83.3585 17.5968 81.9779 12.9085 84.2104C13.9938 79.5885 14.3207 81.1413 15.217 80.7738L10.3107 75.9047C9.15644 76.7313 10.2207 75.8793 9.73359 77.0503C8.59375 77.0503 8.56261 77.1397 7.71301 77.3361L8.33131 75.3452L9.73359 75.3319C9.47671 74.374 7.71524 72.4714 6.84785 71.8942L5.40442 77.3361ZM23.5873 96.2408C22.8089 96.2408 22.4331 95.4782 22.4331 94.8083C22.4331 93.132 25.0664 87.8468 27.1136 89.8785C28.3269 91.0826 26.0683 96.2408 23.5873 96.2408ZM20.4125 93.6628C20.4125 98.1865 27.8442 100.203 29.6491 92.5173C31.5796 92.9234 30.7444 91.0274 31.306 92.8516C31.4684 93.3803 31.4939 94.9242 31.6685 95.668C29.271 95.721 29.9148 96.6944 27.276 98.469C27.2726 98.4712 26.6944 98.5716 26.4742 99.3916C28.0533 99.5218 28.2412 100.134 29.6491 100.251C29.8804 99.3916 30.2996 99.1676 30.9179 98.3597C31.6185 97.4437 31.6741 97.1325 33.1119 97.1005C32.1467 101.215 31.2682 99.3806 30.8034 101.11C32.3335 101.237 33.0252 102.13 34.5554 102.255C34.5365 102.037 33.7836 98.938 35.7097 98.2461C36.3558 99.3861 36.0032 101.866 35.7097 103.115C37.2888 103.245 37.4767 103.858 38.8845 103.975C38.74 102.249 38.2807 103.75 38.3052 100.825C38.3252 98.5639 38.0883 99.1996 37.7302 97.6733C38.8401 96.935 38.8934 96.0731 40.328 95.9539C40.4469 97.0409 40.1645 96.7959 41.4823 97.1005L41.9293 95.625C42.0839 95.7343 42.1561 95.7519 42.1695 95.8501L42.4264 96.3887C42.7311 97.6402 40.5259 101.036 40.328 103.402C39.1992 103.495 39.4506 103.229 39.1726 104.261C41.142 104.716 43.9588 106.113 45.8114 106.266C46.1061 105.009 46.5609 105.069 46.6777 103.688C44.6593 103.222 45.5178 104.548 44.368 104.548C43.2815 104.548 43.822 104.359 42.6366 104.261C42.7389 103.047 43.2337 102.254 43.5028 101.11C46.1828 101.73 43.1314 102.209 45.8114 102.828C45.9282 101.432 46.5454 101.246 46.6777 99.6785C44.3202 99.7304 46.2696 100.537 43.7908 99.9644C44.2067 99.1841 44.5637 98.4988 44.6571 97.3864C47.7386 97.6413 46.2062 98.7063 47.5429 99.6785C48.6049 99.3971 48.6671 98.7239 48.6972 97.3864L42.1928 95.2487C40.9796 94.8183 41.2532 94.5225 39.7497 94.5225C38.4164 94.5225 38.0861 96.9041 35.7097 97.1005C35.9999 96.5013 36.2512 95.5279 36.5181 95.039C37.3822 93.4553 37.5712 95.0412 38.0183 93.377C36.5237 93.2534 35.7252 92.568 34.2662 92.2303C34.3674 93.4388 34.6521 93.2004 34.323 94.272C34.0116 95.284 33.7925 95.0125 33.6891 96.2408C32.1801 95.2376 33.0252 94.8757 32.8306 92.7965C32.6771 91.1609 31.653 91.0539 30.5142 90.512L29.6491 91.6576C29.3155 90.2405 28.9507 89.6744 27.8064 88.903C25.4567 87.3193 23.3193 88.019 21.7625 90.1335C21.0263 91.1333 20.4125 92.0659 20.4125 93.6628ZM130.089 26.6377L130.167 26.8319L130.089 26.6377ZM76.4047 88.5068C77.8336 88.5068 77.8981 88.328 79.018 88.2364C79.9732 88.1569 81.1942 88.2209 82.1773 88.2209C82.7889 85.6164 83.8687 83.492 85.7191 81.9966C87.0302 80.9371 90.5542 79.3413 92.8562 79.3413L90.0961 86.0535C89.6946 87.0489 89.3188 87.5952 89.1041 88.5068H95.1659L100.937 73.3267C94.8856 73.3267 89.2643 73.4547 84.3658 76.6441C80.606 79.0908 76.4047 83.7304 76.4047 88.5068ZM113.06 82.7791C112.648 84.5316 111.469 86.8205 111.328 88.5068H117.101L122.584 73.3267C120.863 73.3267 119.088 73.2815 117.374 73.3124C113.198 73.3863 114.347 76.7412 110.427 79.306C109.626 79.8313 109.461 79.9141 108.153 79.9141C108.153 77.3637 109.974 75.7105 110.174 73.3267H104.112L99.5773 84.579C99.0969 85.7698 98.3163 87.3778 98.0516 88.5068C100.839 88.5068 102.609 89.1645 106.791 87.156C109.342 85.931 110.918 84.2016 113.06 82.7791ZM68.9007 14.0356V14.6084C75.3916 16.1082 72.8906 18.407 84.696 16.8211C94.1128 15.5564 109.771 15.3831 119.071 16.3764L128.068 17.7592C128.4 16.3444 129.468 14.8766 129.8 13.4618C128.091 12.6484 121.273 11.8891 118.999 11.5779C112.537 10.6939 98.9101 10.7656 92.0333 11.4995L68.9007 14.0356ZM97.7625 59.2911C95.7341 59.4588 95.7608 60.5006 95.4539 64.1602H92.5681C92.9073 62.8988 94.8656 61.2643 95.4417 60.1375C95.7875 59.4599 95.7108 59.1443 96.0422 58.4424C96.8239 56.7859 99.1058 54.9948 100.36 53.5623C100.36 54.8557 100.59 54.4761 99.8075 55.3049C97.569 57.6721 98.4731 56.2639 97.7625 59.2911Z" fill="url(#paint0_linear_85_21)"/>
<defs>
<linearGradient id="paint0_linear_85_21" x1="99.7986" y1="114.013" x2="102.165" y2="-0.0139962" gradientUnits="userSpaceOnUse">
<stop stop-color="#D1A743"/>
<stop offset="0.478431" stop-color="#FFF383"/>
<stop offset="1" stop-color="#DEBD55"/>
</linearGradient>
</defs>
</svg>
