<svg width="36" height="61" viewBox="0 0 36 61" fill="none" xmlns="http://www.w3.org/2000/svg">
<path d="M17.5508 31.4176C8.94222 31.4176 1.79362 24.2904 1.79362 15.8542C1.79362 7.12713 8.94222 0 17.5508 0C26.451 0 33.308 7.12713 33.308 15.8542C33.308 24.2904 26.451 31.4176 17.5508 31.4176ZM17.5508 9.16166C13.9036 9.16166 11.1313 12.2143 11.1313 15.8524C11.1313 19.4905 13.9036 22.2523 17.5508 22.2523C21.3438 22.2523 23.9703 19.4887 23.9703 15.8524C23.9703 12.2161 21.3438 9.16346 17.5508 9.16346V9.16166ZM23.8245 44.3574L32.7247 52.939C34.4763 54.8299 34.4763 57.5935 32.7247 59.3389C30.8273 61.2298 27.9091 61.2298 26.451 59.3389L17.5508 50.619L8.94582 59.3461C8.07092 60.2188 6.90259 60.6551 5.59024 60.6551C4.56953 60.6551 3.4012 60.2188 2.38048 59.3461C0.628887 57.6007 0.628887 54.8371 2.38048 52.9462L11.4265 44.3646C8.157 43.3976 5.02047 42.0296 2.08885 40.2919C-0.100194 39.1283 -0.537644 36.2193 0.630687 34.0375C2.08885 31.8557 4.71535 31.2739 7.05021 32.7284C10.2139 34.6548 13.8487 35.674 17.5553 35.674C21.2618 35.674 24.8967 34.6548 28.0604 32.7284C30.4006 31.2739 33.1675 31.8557 34.4799 34.0375C35.7922 36.2193 35.209 39.1283 33.1675 40.2919C30.3898 42.0355 27.1801 43.3464 23.8245 44.3646V44.3574Z" fill="#EB671F"/>
</svg>
