<svg width="46" height="26" viewBox="0 0 46 26" fill="none" xmlns="http://www.w3.org/2000/svg">
<path fill-rule="evenodd" clip-rule="evenodd" d="M22.9245 19.7704L21.811 22.6689H21.8234C22.2688 23.4164 22.8874 25.4606 22.8874 25.4606L22.9245 25.6437L22.9616 25.4606C22.9616 25.4606 23.5802 23.4164 24.0255 22.6689L22.9245 19.7704Z" fill="url(#paint0_linear_236_1537)"/>
<path fill-rule="evenodd" clip-rule="evenodd" d="M29.6337 5.56677C29.755 5.49629 29.8612 5.37295 29.9068 5.16151C29.9523 4.95008 29.9371 4.68578 29.8157 4.36863C29.6943 4.05148 29.4364 3.69908 29.0874 3.47003C28.7233 3.22335 28.2681 3.10002 27.8129 3.13526C27.5853 3.15288 27.297 3.22335 26.9936 3.36431C26.6901 3.50527 26.3867 3.7167 26.0984 3.99862C25.8253 4.28053 25.5673 4.63293 25.3701 5.00294C25.1729 5.37295 25.0363 5.76058 24.9301 6.16583C24.839 6.55347 24.7784 6.92348 24.7632 7.27587C24.7632 7.45207 24.7632 7.61064 24.7632 7.76922C24.7784 7.91018 24.7784 8.05113 24.7935 8.19209C24.8087 8.31543 24.839 8.43877 24.8542 8.52686C24.8694 8.63258 24.8846 8.72068 24.9149 8.79116C24.9604 8.93212 24.9908 9.00259 25.0363 9.00259C25.0666 9.00259 25.097 8.93212 25.1425 8.79116C25.188 8.6502 25.2639 8.474 25.3246 8.26257C25.3701 8.15685 25.4156 8.03351 25.4611 7.91018C25.5067 7.78684 25.5673 7.6635 25.6129 7.52254C25.7342 7.27587 25.8708 7.01158 26.0377 6.78252C26.2046 6.53585 26.3867 6.32441 26.5687 6.14821C26.766 5.97202 26.9632 5.84868 27.1453 5.74296C27.3274 5.65486 27.4943 5.602 27.6308 5.58439C27.6612 5.58439 27.6915 5.58439 27.7219 5.56677C27.7674 5.56677 27.7826 5.56677 27.8129 5.56677C27.8433 5.56677 27.8584 5.56677 27.8888 5.54915C27.904 5.54915 27.9343 5.54915 27.9495 5.54915C28.1012 5.54915 28.2226 5.53153 28.344 5.53153C28.4653 5.51391 28.5867 5.51391 28.7385 5.53153C29.0419 5.56677 29.3605 5.70772 29.6337 5.56677Z" fill="url(#paint1_linear_236_1537)"/>
<path fill-rule="evenodd" clip-rule="evenodd" d="M24.7635 3.5769C23.8874 5.30461 23.6603 7.71769 23.6278 8.0461C23.6278 8.06037 23.6116 8.07465 23.5954 8.07465L22.7518 8.91709C22.6544 9.03132 22.4435 9.03132 22.33 8.91709L21.4863 8.07465C21.4863 8.07465 21.4701 8.06037 21.4701 8.0461C21.4377 7.71769 21.243 5.49023 20.3345 3.5769C20.3345 3.56262 22.0704 0.80685 22.476 0.235707C22.5084 0.178593 22.5895 0.178593 22.622 0.235707C23.0113 0.80685 24.7635 3.56262 24.7635 3.5769Z" fill="url(#paint2_linear_236_1537)"/>
<path fill-rule="evenodd" clip-rule="evenodd" d="M15.4642 5.56695C15.3428 5.49647 15.2366 5.37313 15.1911 5.1617C15.1456 4.95026 15.1607 4.68597 15.2821 4.36881C15.4035 4.05166 15.6614 3.69927 16.0104 3.47021C16.3746 3.22354 16.8449 3.1002 17.2849 3.13544C17.5125 3.15306 17.8008 3.22354 18.1043 3.36449C18.4077 3.50545 18.7112 3.71689 18.9995 3.9988C19.2726 4.28072 19.5305 4.63311 19.7278 5.00312C19.925 5.37313 20.0616 5.76076 20.1678 6.16602C20.2588 6.55365 20.3195 6.92366 20.3347 7.27605C20.3347 7.45225 20.3347 7.61083 20.3347 7.7694C20.3195 7.91036 20.3195 8.05132 20.3043 8.19227C20.2891 8.31561 20.274 8.43895 20.2436 8.52705C20.2285 8.63276 20.1981 8.72086 20.1829 8.79134C20.1374 8.9323 20.1071 9.00278 20.0616 9.00278C20.0464 9.00278 20.0009 8.9323 19.9553 8.79134C19.8947 8.65038 19.834 8.47419 19.7733 8.26275C19.7278 8.15703 19.6822 8.0337 19.6367 7.91036C19.5912 7.78702 19.5457 7.66368 19.485 7.52273C19.3636 7.27605 19.2119 7.01176 19.0601 6.7827C18.8932 6.53603 18.7112 6.32459 18.5291 6.1484C18.3319 5.9722 18.1346 5.84886 17.9525 5.74314C17.7705 5.65505 17.6036 5.60219 17.467 5.58457C17.4367 5.58457 17.4063 5.58457 17.3608 5.56695C17.3456 5.56695 17.3153 5.56695 17.2849 5.56695C17.2546 5.56695 17.2394 5.56695 17.2091 5.54933C17.1939 5.54933 17.1635 5.54933 17.1484 5.54933C16.9966 5.54933 16.8753 5.53171 16.7539 5.53171C16.6325 5.51409 16.4959 5.51409 16.3594 5.53171C16.0711 5.56695 15.7373 5.70791 15.4642 5.56695Z" fill="url(#paint3_linear_236_1537)"/>
<path fill-rule="evenodd" clip-rule="evenodd" d="M18.5551 15.6767H18.5729C18.5729 15.6767 18.5551 15.6919 18.5373 15.7071C18.5373 15.6919 18.5551 15.6767 18.5551 15.6767ZM21.3118 11.2941C20.3514 10.1224 18.4662 9.28545 16.7232 9.05719C14.9269 8.82893 13.1129 9.34632 11.5656 10.0311C9.73371 10.8224 8.0797 11.842 6.35455 12.7398C4.70054 13.6072 2.88646 14.3985 0.876754 14.4593C0.663333 14.4745 0.449913 14.5658 0.449913 14.7028C0.343202 14.8245 0.432128 15.0071 0.609978 15.1137C1.99721 15.9506 3.97135 15.9506 5.60758 15.555C7.29716 15.1441 8.22198 13.8811 9.07566 12.7246C9.1468 13.3941 9.36022 14.0485 10.0538 14.4898C10.3562 14.6876 11.3521 15.0376 10.6585 14.155C9.94713 13.2115 10.9609 11.9941 11.8146 11.1876C12.8283 10.2289 14.5001 9.78762 16.0118 9.63545C16.0652 9.63545 16.1008 9.62023 16.1363 9.62023C16.2786 9.62023 16.4387 9.63545 16.581 9.65067C19.4799 9.93979 21.294 11.8115 21.6675 13.9267C21.9698 15.5702 21.6319 17.868 19.6222 18.8571C18.7329 19.2984 17.5947 19.2223 16.6521 18.9788C16.5098 18.9332 16.3853 18.8875 16.2608 18.8419C16.2786 18.7202 16.2253 18.6441 16.0652 18.5223C15.6383 18.1875 15.5316 17.5636 15.6917 17.0158C16.4742 17.2897 17.5591 17.1223 18.3417 16.8332C19.391 16.4376 20.138 15.4332 19.6222 14.718C19.6044 14.6571 19.5866 14.6115 19.5333 14.5658C19.5155 14.4745 19.4443 14.3985 19.3198 14.3528C17.0789 13.4093 14.838 14.5811 14.2689 16.3919C13.6286 18.4158 15.7451 19.7701 18.1816 19.7701C20.5114 19.7701 21.8275 18.1115 22.3077 16.5441C22.8235 14.8093 22.5212 12.7854 21.3118 11.2941Z" fill="url(#paint4_linear_236_1537)"/>
<path fill-rule="evenodd" clip-rule="evenodd" d="M26.6803 15.7073C26.6619 15.6921 26.6619 15.6769 26.6436 15.6769C26.6619 15.6769 26.6619 15.6769 26.6619 15.6769C26.6803 15.6769 26.6803 15.6921 26.6803 15.7073ZM22.8018 16.5443C23.2797 18.1116 24.6583 19.7703 27.0479 19.7703C29.5663 19.7703 31.7721 18.416 31.1103 16.3921C30.5037 14.5812 28.1876 13.4095 25.8715 14.353C25.7612 14.3986 25.6693 14.4747 25.6509 14.566C25.6142 14.6117 25.5774 14.6573 25.559 14.7182C25.026 15.4334 25.798 16.4377 26.8825 16.8334C27.7097 17.1225 28.831 17.2899 29.6214 17.016C29.8052 17.5638 29.6949 18.1877 29.2354 18.5225C29.0883 18.6443 29.0148 18.7203 29.0332 18.8421C28.9229 18.8877 28.7758 18.9334 28.6288 18.979C27.6729 19.2225 26.4781 19.2986 25.5774 18.8573C23.4819 17.8682 23.151 15.5704 23.4451 13.9269C23.8311 11.8117 25.7061 9.93998 28.7023 9.65085C28.8677 9.63563 29.0148 9.62041 29.1619 9.62041C29.1986 9.62041 29.2354 9.63563 29.2905 9.63563C30.8714 9.7878 32.5992 10.2291 33.647 11.1878C34.5293 11.9943 35.5587 13.2117 34.8234 14.1552C34.1249 15.0378 35.1359 14.6878 35.4484 14.4899C36.1837 14.0486 36.3859 13.3943 36.4778 12.7247C37.3417 13.8812 38.2976 15.1443 40.0439 15.5551C41.735 15.9508 43.7937 15.9508 45.2091 15.1138C45.4113 15.0073 45.4849 14.8247 45.393 14.703C45.3746 14.566 45.1724 14.4747 44.9334 14.4595C42.8563 14.3986 40.9813 13.6073 39.2902 12.74C37.4888 11.8421 35.7793 10.8226 33.9043 10.0313C32.2868 9.3465 30.4118 8.82912 28.5736 9.05738C26.7538 9.28563 24.8054 10.1226 23.8311 11.2943C22.5628 12.7856 22.2687 14.8095 22.8018 16.5443Z" fill="url(#paint5_linear_236_1537)"/>
<defs>
<linearGradient id="paint0_linear_236_1537" x1="21.8212" y1="22.7188" x2="24.0255" y2="22.7188" gradientUnits="userSpaceOnUse">
<stop stop-color="#FEF275"/>
<stop offset="1" stop-color="#BDA32B"/>
</linearGradient>
<linearGradient id="paint1_linear_236_1537" x1="24.7868" y1="6.07773" x2="29.9304" y2="6.07773" gradientUnits="userSpaceOnUse">
<stop stop-color="#FEF275"/>
<stop offset="1" stop-color="#BDA32B"/>
</linearGradient>
<linearGradient id="paint2_linear_236_1537" x1="20.3547" y1="4.61547" x2="24.7635" y2="4.61547" gradientUnits="userSpaceOnUse">
<stop stop-color="#FEF275"/>
<stop offset="1" stop-color="#BDA32B"/>
</linearGradient>
<linearGradient id="paint3_linear_236_1537" x1="15.1911" y1="6.07792" x2="20.3347" y2="6.07792" gradientUnits="userSpaceOnUse">
<stop stop-color="#FEF275"/>
<stop offset="1" stop-color="#BDA32B"/>
</linearGradient>
<linearGradient id="paint4_linear_236_1537" x1="0.504961" y1="14.4079" x2="22.5489" y2="14.4079" gradientUnits="userSpaceOnUse">
<stop stop-color="#FEF275"/>
<stop offset="1" stop-color="#BDA32B"/>
</linearGradient>
<linearGradient id="paint5_linear_236_1537" x1="22.6534" y1="14.4081" x2="45.4321" y2="14.4081" gradientUnits="userSpaceOnUse">
<stop stop-color="#FEF275"/>
<stop offset="1" stop-color="#BDA32B"/>
</linearGradient>
</defs>
</svg>
