<svg width="276" height="40" viewBox="0 0 276 40" fill="none" xmlns="http://www.w3.org/2000/svg">
<path fill-rule="evenodd" clip-rule="evenodd" d="M267.973 3.28066C267.973 3.28066 268.531 1.19344 272.517 3.26527C272.517 3.26527 268.802 5.40378 267.973 3.28066ZM273.78 3.26527C273.78 3.45502 273.632 3.59861 273.453 3.59861C273.269 3.59861 273.12 3.45502 273.115 3.2704C273.115 3.09091 273.264 2.93706 273.448 2.93706C273.632 2.93706 273.78 3.08578 273.78 3.26527ZM275.776 3.22937C275.776 3.22937 274.507 -3.69897 265.819 3.2704C265.819 3.2704 274.006 10.3064 275.776 3.22937Z" fill="url(#paint0_linear_236_1489)"/>
<path fill-rule="evenodd" clip-rule="evenodd" d="M265.198 3.89609C264.853 3.89957 264.574 3.61798 264.574 3.27728C264.571 2.93311 264.85 2.655 265.195 2.65152C265.54 2.64804 265.819 2.92964 265.819 3.27381C265.822 3.6145 265.543 3.89609 265.198 3.89609Z" fill="url(#paint1_linear_236_1489)"/>
<path fill-rule="evenodd" clip-rule="evenodd" d="M257.732 3.89612C257.388 3.89612 257.11 3.618 257.106 3.27382C257.106 2.93312 257.385 2.65152 257.725 2.65152C258.069 2.64804 258.351 2.92617 258.351 3.27035C258.355 3.61452 258.076 3.89265 257.732 3.89612Z" fill="url(#paint2_linear_236_1489)"/>
<path fill-rule="evenodd" clip-rule="evenodd" d="M261.478 5.14077C261.478 5.14077 264.6 3.27381 264.574 3.26594C264.6 3.25806 261.458 1.40686 261.458 1.40686C261.096 2.01736 258.346 3.28169 258.352 3.28169C258.311 3.30532 261.111 4.53026 261.478 5.14077Z" fill="url(#paint3_linear_236_1489)"/>
<path fill-rule="evenodd" clip-rule="evenodd" d="M175.754 3.26856C178.244 2.03035 178.593 3.28274 178.593 3.28274C178.077 4.55403 175.754 3.26856 175.754 3.26856ZM175.17 3.07007C175.288 3.07007 175.381 3.16459 175.376 3.27801C175.376 3.38671 175.283 3.47651 175.17 3.47178C175.057 3.47178 174.963 3.38199 174.963 3.26856C174.963 3.15986 175.057 3.07007 175.17 3.07007ZM179.939 3.26856C174.512 -0.909211 173.716 3.24966 173.716 3.24966C174.821 7.49359 179.939 3.26856 179.939 3.26856Z" fill="url(#paint4_linear_236_1489)"/>
<path fill-rule="evenodd" clip-rule="evenodd" d="M180.559 3.89605C180.906 3.90139 181.184 3.62363 181.184 3.28178C181.189 2.93993 180.911 2.65149 180.564 2.65149C180.222 2.65149 179.944 2.92924 179.939 3.27644C179.939 3.61829 180.217 3.89605 180.559 3.89605Z" fill="url(#paint5_linear_236_1489)"/>
<path fill-rule="evenodd" clip-rule="evenodd" d="M181.184 3.89612H258.351V2.65149H181.184V3.89612Z" fill="url(#paint6_linear_236_1489)"/>
<path fill-rule="evenodd" clip-rule="evenodd" d="M138.399 35.012C138.399 35.012 138.337 34.9809 138.213 34.903C138.146 34.877 138.079 34.8199 137.992 34.7524C137.904 34.6952 137.822 34.6122 137.719 34.5187C137.528 34.3162 137.322 34.041 137.157 33.6775C136.992 33.3088 136.873 32.8518 136.817 32.3377C136.698 31.2939 136.837 29.9957 137.234 28.5625C137.44 27.8511 137.703 27.0929 138.059 26.3348C138.234 25.9557 138.435 25.5714 138.672 25.2079C138.914 24.8288 139.167 24.4394 139.419 24.0395C140.44 22.4453 141.579 20.7161 142.991 19.0336C143.702 18.1976 144.48 17.3823 145.351 16.6345C145.794 16.2607 146.253 15.9023 146.737 15.5752C147.227 15.2532 147.742 14.9521 148.278 14.6976C148.814 14.4328 149.381 14.2303 149.958 14.0641C150.252 13.9758 150.551 13.9187 150.844 13.8616C151.149 13.8148 151.447 13.7629 151.767 13.7421C153.024 13.6175 154.318 13.6227 155.581 13.8512C156.209 13.955 156.823 14.1472 157.405 14.3964C157.987 14.6405 158.518 14.9936 158.961 15.4142C159.399 15.8348 159.734 16.3437 159.889 16.9046C160.054 17.455 159.992 18.0522 159.765 18.5819C159.729 18.6753 159.688 18.7636 159.631 18.8519C159.58 18.9298 159.533 19.0232 159.471 19.1063C159.343 19.2621 159.229 19.4283 159.064 19.5581C158.781 19.8593 158.41 20.0826 158.039 20.2955C157.271 20.685 156.405 20.9031 155.524 21.0121C154.643 21.1056 153.746 21.0848 152.865 21.0173C152.009 20.9342 151.164 20.7161 150.345 20.4409C148.701 19.8801 147.155 19.1011 145.696 18.2859C144.238 17.4706 142.857 16.6034 141.548 15.7518C138.93 14.0537 136.574 12.4076 134.482 10.9743C132.395 9.54111 130.565 8.3208 129.055 7.36012C127.602 6.31636 125.798 5.0545 123.608 3.75109C122.511 3.10718 121.31 2.45808 119.996 1.8609C118.676 1.26891 117.233 0.728859 115.631 0.448446C114.832 0.308239 113.992 0.245925 113.126 0.313432C112.26 0.386131 111.374 0.599038 110.549 0.993694C110.338 1.08717 110.142 1.21179 109.941 1.32084C109.74 1.45066 109.555 1.58049 109.364 1.7155C109.184 1.87128 109.003 2.0063 108.823 2.16728C108.642 2.34903 108.462 2.53078 108.318 2.75407C108.009 3.18507 107.808 3.72513 107.761 4.27038C107.715 4.82082 107.823 5.36088 107.998 5.849C108.369 6.82526 109.003 7.61976 109.714 8.30522C110.436 8.98029 111.266 9.57227 112.183 9.98251C112.626 10.2162 113.1 10.372 113.569 10.5485C113.806 10.6316 114.049 10.6939 114.291 10.7614L114.657 10.8653C114.775 10.8964 114.899 10.9172 115.023 10.9432C115.265 10.9951 115.512 11.0418 115.759 11.0938C116.007 11.1249 116.254 11.1613 116.507 11.1976L116.878 11.2496L117.254 11.2755C117.507 11.3015 117.754 11.3171 118.006 11.3326C120.97 11.478 123.814 11.099 126.505 10.6212C127.18 10.5018 127.844 10.3668 128.504 10.2318C128.669 10.2006 128.834 10.1643 128.999 10.1279C129.174 10.0968 129.344 10.05 129.514 10.0033C129.849 9.90981 130.174 9.80595 130.488 9.69171C131.756 9.23474 132.926 8.69987 134.07 8.1702C136.343 7.10048 138.455 6.02556 140.455 5.05969C142.449 4.09901 144.32 3.23181 146.062 2.52039C147.799 1.80897 149.407 1.24814 150.844 0.884644C152.287 0.521145 153.566 0.360167 154.607 0.412096C155.653 0.458831 156.441 0.728859 156.915 0.998887C157.039 1.06639 157.142 1.1339 157.23 1.19102C157.317 1.24814 157.389 1.30007 157.441 1.352C157.554 1.44028 157.611 1.48182 157.611 1.48182C157.611 1.48182 157.56 1.42989 157.451 1.34161C157.4 1.28969 157.333 1.23256 157.25 1.16506C157.163 1.09755 157.065 1.03004 156.946 0.952151C156.482 0.640581 155.689 0.318624 154.622 0.209575C153.56 0.0953322 152.241 0.188803 150.757 0.479603C149.273 0.780788 147.613 1.26372 145.83 1.91283C144.042 2.55674 142.125 3.35644 140.084 4.2548C138.048 5.15316 135.894 6.16577 133.622 7.16798C132.483 7.6665 131.313 8.16501 130.112 8.57525C129.808 8.6791 129.509 8.76738 129.205 8.84527C129.055 8.88682 128.906 8.92317 128.757 8.94913L128.272 9.0426C127.618 9.16204 126.963 9.28147 126.298 9.39052C123.644 9.83191 120.872 10.1746 118.073 10.0396C117.836 10.0189 117.599 10.0033 117.367 9.98251L117.012 9.95654L116.666 9.90981C116.435 9.87865 116.203 9.84749 115.971 9.81114C115.744 9.7696 115.517 9.72806 115.291 9.68132C115.177 9.66055 115.064 9.63459 114.956 9.61382L114.626 9.52034C114.404 9.45803 114.182 9.4061 113.966 9.32821C113.549 9.17242 113.116 9.03741 112.724 8.8297C111.91 8.47658 111.193 7.96768 110.554 7.39647C109.931 6.82007 109.395 6.1398 109.111 5.42319C108.977 5.05969 108.905 4.69619 108.926 4.35866C108.947 4.02112 109.055 3.69397 109.256 3.40837C109.349 3.25777 109.467 3.12795 109.596 2.99294C109.735 2.86831 109.895 2.7333 110.039 2.60867C110.199 2.49443 110.359 2.3698 110.518 2.26075C110.688 2.16728 110.848 2.05303 111.023 1.97514C112.41 1.25853 114.007 1.18064 115.486 1.39354C116.981 1.60126 118.388 2.07381 119.686 2.5879C120.99 3.12276 122.191 3.71474 123.299 4.30673C125.52 5.4907 127.375 6.66428 128.88 7.61976C130.334 8.66352 132.096 9.96693 134.121 11.4884C136.152 13.0099 138.44 14.7443 141.022 16.5463C142.315 17.4446 143.686 18.3534 145.16 19.231C146.634 20.1034 148.206 20.9498 149.958 21.5781C150.834 21.8845 151.757 22.1441 152.741 22.2532C153.694 22.3415 154.668 22.3778 155.663 22.274C156.658 22.1649 157.668 21.926 158.621 21.4431C159.09 21.1835 159.559 20.9031 159.956 20.498C160.167 20.3215 160.342 20.0826 160.518 19.8645C160.6 19.7502 160.672 19.6152 160.75 19.4958C160.832 19.3764 160.889 19.2413 160.945 19.1063C161.291 18.317 161.373 17.3823 161.131 16.5566C160.899 15.731 160.415 15.0248 159.843 14.4795C159.26 13.9343 158.595 13.5188 157.905 13.2332C157.214 12.9424 156.503 12.7399 155.797 12.6257C154.38 12.3816 152.978 12.4128 151.643 12.5737C151.308 12.5997 150.968 12.6568 150.633 12.7243C150.298 12.797 149.968 12.8645 149.649 12.9684C149.005 13.1657 148.381 13.4098 147.799 13.711C147.216 14.007 146.67 14.3445 146.15 14.708C145.634 15.0767 145.155 15.4713 144.702 15.8764C143.8 16.702 143.011 17.5848 142.31 18.4728C140.909 20.2591 139.826 22.0611 138.873 23.702C138.631 24.1122 138.399 24.5069 138.172 24.9015C137.94 25.3014 137.744 25.7168 137.579 26.1219C137.244 26.9268 137.013 27.7161 136.842 28.4586C136.507 29.9542 136.435 31.2939 136.616 32.3637C136.703 32.8933 136.858 33.3607 137.049 33.7294C137.239 34.0981 137.471 34.3681 137.682 34.5602C137.791 34.6433 137.883 34.7316 137.976 34.7835C138.064 34.8406 138.136 34.8926 138.203 34.9185C138.332 34.9809 138.399 35.012 138.399 35.012Z" fill="url(#paint7_linear_236_1489)"/>
<path fill-rule="evenodd" clip-rule="evenodd" d="M138.089 35.012C138.089 35.012 138.156 34.9809 138.285 34.9185C138.352 34.8926 138.424 34.8406 138.512 34.7835C138.605 34.7316 138.697 34.6433 138.811 34.5602C139.017 34.3681 139.249 34.0981 139.439 33.7294C139.63 33.3607 139.785 32.8933 139.872 32.3637C140.053 31.2939 139.981 29.9542 139.646 28.4586C139.476 27.7161 139.244 26.9268 138.909 26.1219C138.744 25.7168 138.553 25.3014 138.316 24.9015C138.089 24.5069 137.857 24.1122 137.62 23.702C136.662 22.0611 135.58 20.2591 134.178 18.4728C133.477 17.5848 132.688 16.702 131.787 15.8764C131.333 15.4713 130.854 15.0767 130.338 14.708C129.823 14.3445 129.272 14.007 128.689 13.711C128.107 13.4098 127.483 13.1657 126.844 12.9684C126.52 12.8645 126.19 12.797 125.855 12.7243C125.52 12.6568 125.18 12.5997 124.845 12.5737C123.51 12.4128 122.108 12.3816 120.691 12.6257C119.985 12.7399 119.274 12.9424 118.583 13.2332C117.893 13.5188 117.228 13.9343 116.651 14.4795C116.074 15.0248 115.589 15.731 115.357 16.5566C115.115 17.3823 115.197 18.317 115.543 19.1063C115.599 19.2413 115.656 19.3764 115.739 19.4958C115.816 19.6152 115.888 19.7502 115.97 19.8645C116.151 20.0826 116.321 20.3215 116.532 20.498C116.929 20.9031 117.398 21.1835 117.867 21.4431C118.82 21.926 119.836 22.1649 120.825 22.274C121.82 22.3778 122.794 22.3415 123.747 22.2532C124.731 22.1441 125.654 21.8845 126.53 21.5781C128.282 20.9498 129.854 20.1034 131.328 19.231C132.802 18.3534 134.173 17.4446 135.466 16.5463C138.048 14.7443 140.336 13.0099 142.367 11.4884C144.392 9.96693 146.154 8.66352 147.608 7.61976C149.113 6.66428 150.973 5.4907 153.189 4.30673C154.297 3.71474 155.503 3.12276 156.802 2.5879C158.1 2.07381 159.507 1.60126 161.002 1.39354C162.486 1.18064 164.078 1.25853 165.465 1.97514C165.64 2.05303 165.8 2.16728 165.97 2.26075C166.129 2.3698 166.289 2.49443 166.449 2.60867C166.593 2.7333 166.753 2.86831 166.892 2.99294C167.021 3.12795 167.14 3.25777 167.232 3.40837C167.433 3.69397 167.542 4.02112 167.562 4.35866C167.583 4.69619 167.511 5.05969 167.377 5.42319C167.093 6.1398 166.557 6.82007 165.934 7.39647C165.3 7.96768 164.578 8.47658 163.764 8.8297C163.372 9.03741 162.939 9.17242 162.522 9.32821C162.306 9.4061 162.084 9.45803 161.868 9.52034L161.538 9.61382C161.424 9.63459 161.311 9.66055 161.198 9.68132C160.971 9.72806 160.744 9.7696 160.517 9.81114C160.285 9.84749 160.053 9.87865 159.822 9.90981L159.476 9.95654L159.121 9.98251C158.889 10.0033 158.652 10.0189 158.415 10.0396C155.616 10.1746 152.844 9.83191 150.19 9.39052C149.525 9.28147 148.87 9.16204 148.216 9.0426L147.731 8.94913C147.582 8.92317 147.433 8.88682 147.283 8.84527C146.979 8.76738 146.68 8.6791 146.376 8.57525C145.175 8.16501 144.005 7.6665 142.867 7.16798C140.594 6.16577 138.44 5.15316 136.404 4.2548C134.368 3.35644 132.446 2.55674 130.658 1.91283C128.87 1.26372 127.215 0.780788 125.731 0.479603C124.247 0.188803 122.928 0.0953322 121.866 0.209575C120.799 0.318624 120.011 0.640581 119.542 0.952151C119.423 1.03004 119.325 1.09755 119.243 1.16506C119.155 1.23256 119.088 1.28969 119.037 1.34161C118.929 1.42989 118.877 1.48182 118.877 1.48182C118.877 1.48182 118.934 1.44028 119.047 1.352C119.099 1.30007 119.171 1.24814 119.258 1.19102C119.346 1.1339 119.449 1.06639 119.573 0.998887C120.052 0.728859 120.835 0.458831 121.882 0.412096C122.923 0.360167 124.201 0.521145 125.644 0.884644C127.087 1.24814 128.689 1.80897 130.426 2.52039C132.168 3.23181 134.039 4.09901 136.038 5.05969C138.033 6.02556 140.151 7.10048 142.423 8.1702C143.562 8.69987 144.732 9.23474 146 9.69171C146.314 9.80595 146.644 9.90981 146.974 10.0033C147.144 10.05 147.314 10.0968 147.489 10.1279C147.654 10.1643 147.819 10.2006 147.989 10.2318C148.644 10.3668 149.308 10.5018 149.984 10.6212C152.674 11.099 155.518 11.478 158.482 11.3326C158.734 11.3171 158.982 11.3015 159.234 11.2755L159.61 11.2496L159.981 11.1976C160.234 11.1613 160.481 11.1249 160.729 11.0938C160.976 11.0418 161.223 10.9951 161.466 10.9432C161.589 10.9172 161.713 10.8964 161.831 10.8653L162.197 10.7614C162.44 10.6939 162.682 10.6316 162.919 10.5485C163.388 10.372 163.862 10.2162 164.305 9.98251C165.222 9.57227 166.052 8.98029 166.774 8.30522C167.485 7.61976 168.119 6.82526 168.49 5.849C168.665 5.36088 168.773 4.82082 168.727 4.27038C168.68 3.72513 168.479 3.18507 168.175 2.75407C168.026 2.53078 167.851 2.34903 167.665 2.16728C167.485 2.0063 167.304 1.87128 167.124 1.7155C166.933 1.58049 166.748 1.45066 166.552 1.32084C166.346 1.21179 166.15 1.08717 165.944 0.993694C165.114 0.599038 164.228 0.386131 163.362 0.313432C162.501 0.245925 161.656 0.308239 160.857 0.448446C159.255 0.728859 157.812 1.26891 156.492 1.8609C155.178 2.45808 153.978 3.10718 152.88 3.75109C150.695 5.0545 148.886 6.31636 147.433 7.36012C145.923 8.3208 144.098 9.54111 142.006 10.9743C139.914 12.4076 137.558 14.0537 134.94 15.7518C133.631 16.6034 132.25 17.4706 130.792 18.2859C129.333 19.1011 127.787 19.8801 126.143 20.4409C125.324 20.7161 124.479 20.9342 123.629 21.0173C122.742 21.0848 121.845 21.1056 120.964 21.0121C120.083 20.9031 119.217 20.685 118.449 20.2955C118.078 20.0826 117.707 19.8593 117.424 19.5581C117.259 19.4283 117.145 19.2621 117.017 19.1063C116.955 19.0232 116.908 18.9298 116.857 18.8519C116.8 18.7636 116.764 18.6753 116.723 18.5819C116.496 18.0522 116.434 17.455 116.599 16.9046C116.754 16.3437 117.089 15.8348 117.527 15.4142C117.97 14.9936 118.501 14.6405 119.083 14.3964C119.666 14.1472 120.279 13.955 120.907 13.8512C122.17 13.6227 123.464 13.6175 124.721 13.7421C125.041 13.7629 125.34 13.8148 125.644 13.8616C125.942 13.9187 126.236 13.9758 126.53 14.0641C127.107 14.2303 127.674 14.4328 128.21 14.6976C128.746 14.9521 129.261 15.2532 129.751 15.5752C130.235 15.9023 130.694 16.2607 131.132 16.6345C132.008 17.3823 132.786 18.1976 133.497 19.0336C134.91 20.7161 136.048 22.4453 137.069 24.0395C137.327 24.4394 137.574 24.8288 137.816 25.2079C138.053 25.5714 138.254 25.9557 138.429 26.3348C138.785 27.0929 139.048 27.8511 139.254 28.5625C139.651 29.9957 139.79 31.2939 139.671 32.3377C139.615 32.8518 139.496 33.3088 139.331 33.6775C139.172 34.041 138.96 34.3162 138.77 34.5187C138.672 34.6122 138.584 34.6952 138.496 34.7524C138.414 34.8199 138.342 34.877 138.275 34.903C138.156 34.9809 138.089 35.012 138.089 35.012Z" fill="url(#paint8_linear_236_1489)"/>
<path fill-rule="evenodd" clip-rule="evenodd" d="M138.233 37.9584C137.049 35.4415 138.306 35.1182 138.306 35.1182C139.568 35.6608 138.233 37.9584 138.233 37.9584ZM138.028 38.53C138.028 38.4203 138.122 38.3279 138.233 38.3337C138.339 38.3337 138.428 38.4318 138.422 38.5473C138.422 38.6627 138.333 38.7493 138.222 38.7436C138.111 38.7436 138.022 38.6454 138.028 38.53ZM138.328 33.7673C134.031 39.1015 138.172 39.9905 138.172 39.9905C142.441 38.986 138.328 33.7673 138.328 33.7673Z" fill="url(#paint9_linear_236_1489)"/>
<path fill-rule="evenodd" clip-rule="evenodd" d="M138.865 33.8053C138.878 33.1016 138.601 32.5361 138.262 32.5235C137.917 32.4984 137.627 33.0513 137.621 33.7299C137.615 34.4086 137.885 34.9866 138.224 35.0118C138.57 35.0243 138.859 34.484 138.865 33.8053Z" fill="url(#paint10_linear_236_1489)"/>
<path fill-rule="evenodd" clip-rule="evenodd" d="M3.97076 3.26527C7.95666 1.19344 8.5195 3.28066 8.5195 3.28066C7.68548 5.40378 3.97076 3.26527 3.97076 3.26527ZM3.03952 2.93706C3.22372 2.93706 3.37211 3.09091 3.37211 3.2704C3.37211 3.45502 3.22372 3.59861 3.03952 3.59861C2.85532 3.59861 2.70694 3.45502 2.70694 3.26527C2.70694 3.08578 2.86044 2.93706 3.03952 2.93706ZM10.6685 3.2704C1.98548 -3.69897 0.711426 3.22937 0.711426 3.22937C2.4818 10.3064 10.6685 3.2704 10.6685 3.2704Z" fill="url(#paint11_linear_236_1489)"/>
<path fill-rule="evenodd" clip-rule="evenodd" d="M10.6615 3.89609C11.3499 3.89957 11.9061 3.61798 11.9131 3.27728C11.9131 2.93311 11.3568 2.655 10.6754 2.65152C9.98704 2.64804 9.42383 2.92964 9.42383 3.27381C9.42383 3.6145 9.97314 3.89609 10.6615 3.89609Z" fill="url(#paint12_linear_236_1489)"/>
<path fill-rule="evenodd" clip-rule="evenodd" d="M18.1293 3.89612C18.8177 3.89612 19.3809 3.618 19.3809 3.27382C19.3809 2.93312 18.8316 2.65152 18.1432 2.65152C17.4548 2.64804 16.8986 2.92617 16.8916 3.27035C16.8916 3.61452 17.4479 3.89265 18.1293 3.89612Z" fill="url(#paint13_linear_236_1489)"/>
<path fill-rule="evenodd" clip-rule="evenodd" d="M15.0092 5.14077C15.0092 5.14077 11.8877 3.27381 11.9132 3.26594C11.8877 3.25806 15.0296 1.40686 15.0296 1.40686C15.3917 2.01736 18.1408 3.28169 18.1357 3.28169C18.1816 3.30532 15.3815 4.53026 15.0092 5.14077Z" fill="url(#paint14_linear_236_1489)"/>
<path fill-rule="evenodd" clip-rule="evenodd" d="M97.8942 3.28274C97.8942 3.28274 98.2429 2.03035 100.733 3.26856C100.733 3.26856 98.4099 4.55403 97.8942 3.28274ZM101.524 3.26856C101.524 3.38199 101.436 3.47178 101.318 3.47178C101.205 3.47651 101.111 3.38671 101.111 3.27801C101.111 3.16459 101.205 3.07007 101.318 3.07007C101.431 3.07007 101.524 3.15986 101.524 3.26856ZM102.772 3.24966C102.772 3.24966 101.976 -0.909211 96.5483 3.26856C96.5483 3.26856 101.666 7.49359 102.772 3.24966Z" fill="url(#paint15_linear_236_1489)"/>
<path fill-rule="evenodd" clip-rule="evenodd" d="M95.9287 3.89605C95.5868 3.90139 95.3037 3.62363 95.3037 3.28178C95.3037 2.93993 95.5815 2.65149 95.9234 2.65149C96.2652 2.65149 96.5483 2.92924 96.5483 3.27644C96.5483 3.61829 96.2706 3.89605 95.9287 3.89605Z" fill="url(#paint16_linear_236_1489)"/>
<path fill-rule="evenodd" clip-rule="evenodd" d="M18.1362 3.89612H95.3036V2.65149H18.1362V3.89612Z" fill="url(#paint17_linear_236_1489)"/>
<defs>
<linearGradient id="paint0_linear_236_1489" x1="265.819" y1="3.26507" x2="275.776" y2="3.26507" gradientUnits="userSpaceOnUse">
<stop stop-color="#FEF275"/>
<stop offset="1" stop-color="#BDA32B"/>
</linearGradient>
<linearGradient id="paint1_linear_236_1489" x1="264.574" y1="3.27206" x2="265.819" y2="3.27206" gradientUnits="userSpaceOnUse">
<stop stop-color="#FEF275"/>
<stop offset="1" stop-color="#BDA32B"/>
</linearGradient>
<linearGradient id="paint2_linear_236_1489" x1="257.106" y1="3.27206" x2="258.351" y2="3.27206" gradientUnits="userSpaceOnUse">
<stop stop-color="#FEF275"/>
<stop offset="1" stop-color="#BDA32B"/>
</linearGradient>
<linearGradient id="paint3_linear_236_1489" x1="258.351" y1="3.26856" x2="264.574" y2="3.26856" gradientUnits="userSpaceOnUse">
<stop stop-color="#FEF275"/>
<stop offset="1" stop-color="#BDA32B"/>
</linearGradient>
<linearGradient id="paint4_linear_236_1489" x1="173.716" y1="3.26856" x2="179.939" y2="3.26856" gradientUnits="userSpaceOnUse">
<stop stop-color="#FEF275"/>
<stop offset="1" stop-color="#BDA32B"/>
</linearGradient>
<linearGradient id="paint5_linear_236_1489" x1="179.939" y1="3.27206" x2="181.184" y2="3.27206" gradientUnits="userSpaceOnUse">
<stop stop-color="#FEF275"/>
<stop offset="1" stop-color="#BDA32B"/>
</linearGradient>
<linearGradient id="paint6_linear_236_1489" x1="181.184" y1="3.27206" x2="258.351" y2="3.27206" gradientUnits="userSpaceOnUse">
<stop stop-color="#FEF275"/>
<stop offset="1" stop-color="#BDA32B"/>
</linearGradient>
<linearGradient id="paint7_linear_236_1489" x1="107.75" y1="17.5381" x2="161.27" y2="17.5381" gradientUnits="userSpaceOnUse">
<stop stop-color="#FEF275"/>
<stop offset="1" stop-color="#BDA32B"/>
</linearGradient>
<linearGradient id="paint8_linear_236_1489" x1="115.218" y1="17.5381" x2="168.738" y2="17.5381" gradientUnits="userSpaceOnUse">
<stop stop-color="#FEF275"/>
<stop offset="1" stop-color="#BDA32B"/>
</linearGradient>
<linearGradient id="paint9_linear_236_1489" x1="136.377" y1="36.8702" x2="140.111" y2="36.8702" gradientUnits="userSpaceOnUse">
<stop stop-color="#FEF275"/>
<stop offset="1" stop-color="#BDA32B"/>
</linearGradient>
<linearGradient id="paint10_linear_236_1489" x1="137.621" y1="33.7638" x2="138.866" y2="33.7638" gradientUnits="userSpaceOnUse">
<stop stop-color="#FEF275"/>
<stop offset="1" stop-color="#BDA32B"/>
</linearGradient>
<linearGradient id="paint11_linear_236_1489" x1="0.711426" y1="3.26507" x2="10.6685" y2="3.26507" gradientUnits="userSpaceOnUse">
<stop stop-color="#FEF275"/>
<stop offset="1" stop-color="#BDA32B"/>
</linearGradient>
<linearGradient id="paint12_linear_236_1489" x1="9.42383" y1="3.27206" x2="11.9131" y2="3.27206" gradientUnits="userSpaceOnUse">
<stop stop-color="#FEF275"/>
<stop offset="1" stop-color="#BDA32B"/>
</linearGradient>
<linearGradient id="paint13_linear_236_1489" x1="16.8916" y1="3.27206" x2="19.3809" y2="3.27206" gradientUnits="userSpaceOnUse">
<stop stop-color="#FEF275"/>
<stop offset="1" stop-color="#BDA32B"/>
</linearGradient>
<linearGradient id="paint14_linear_236_1489" x1="11.9131" y1="3.26856" x2="18.1363" y2="3.26856" gradientUnits="userSpaceOnUse">
<stop stop-color="#FEF275"/>
<stop offset="1" stop-color="#BDA32B"/>
</linearGradient>
<linearGradient id="paint15_linear_236_1489" x1="96.5483" y1="3.26856" x2="102.772" y2="3.26856" gradientUnits="userSpaceOnUse">
<stop stop-color="#FEF275"/>
<stop offset="1" stop-color="#BDA32B"/>
</linearGradient>
<linearGradient id="paint16_linear_236_1489" x1="95.3037" y1="3.27206" x2="96.5483" y2="3.27206" gradientUnits="userSpaceOnUse">
<stop stop-color="#FEF275"/>
<stop offset="1" stop-color="#BDA32B"/>
</linearGradient>
<linearGradient id="paint17_linear_236_1489" x1="18.1362" y1="3.27206" x2="95.3036" y2="3.27206" gradientUnits="userSpaceOnUse">
<stop stop-color="#FEF275"/>
<stop offset="1" stop-color="#BDA32B"/>
</linearGradient>
</defs>
</svg>
