<svg width="26" height="38" viewBox="0 0 26 38" fill="none" xmlns="http://www.w3.org/2000/svg">
<path fill-rule="evenodd" clip-rule="evenodd" d="M5.86963 19.0052L2.97296 18.0656L2.97296 18.076C2.22593 18.4519 0.183013 18.9739 0.183013 18.9739L6.43319e-05 19.0052L0.183013 19.0365C0.183013 19.0365 2.22593 19.5585 2.97296 19.9344L5.86963 19.0052Z" fill="url(#paint0_linear_277_46)"/>
<path fill-rule="evenodd" clip-rule="evenodd" d="M20.0646 24.6676C20.135 24.7701 20.2583 24.8597 20.4696 24.8981C20.6809 24.9365 20.945 24.9237 21.262 24.8213C21.5789 24.7188 21.9311 24.5012 22.16 24.2067C22.4065 23.8994 22.5298 23.5152 22.4946 23.1311C22.477 22.939 22.4065 22.6957 22.2657 22.4396C22.1248 22.1835 21.9135 21.9275 21.6318 21.6842C21.35 21.4537 20.9978 21.236 20.6281 21.0696C20.2583 20.9031 19.8709 20.7879 19.4659 20.6982C19.0785 20.6214 18.7087 20.5702 18.3566 20.5574C18.1805 20.5574 18.022 20.5574 17.8635 20.5574C17.7227 20.5702 17.5818 20.5702 17.4409 20.583C17.3177 20.5958 17.1944 20.6214 17.1064 20.6342C17.0007 20.647 16.9127 20.6598 16.8422 20.6854C16.7014 20.7238 16.6309 20.7494 16.6309 20.7879C16.6309 20.8135 16.7014 20.8391 16.8422 20.8775C16.9831 20.9159 17.1592 20.9799 17.3705 21.0311C17.4761 21.0696 17.5994 21.108 17.7227 21.1464C17.8459 21.1848 17.9692 21.236 18.11 21.2744C18.3566 21.3769 18.6207 21.4921 18.8496 21.633C19.0961 21.7738 19.3074 21.9275 19.4835 22.0811C19.6596 22.2476 19.7829 22.414 19.8885 22.5677C19.9765 22.7213 20.0294 22.8622 20.047 22.9774C20.047 23.003 20.047 23.0286 20.0646 23.0543C20.0646 23.0927 20.0646 23.1055 20.0646 23.1311C20.0646 23.1567 20.0646 23.1695 20.0822 23.1951C20.0822 23.2079 20.0822 23.2335 20.0822 23.2463C20.0822 23.3744 20.0998 23.4768 20.0998 23.5792C20.1174 23.6817 20.1174 23.7841 20.0998 23.9122C20.0646 24.1683 19.9237 24.4371 20.0646 24.6676Z" fill="url(#paint1_linear_277_46)"/>
<path fill-rule="evenodd" clip-rule="evenodd" d="M22.0532 20.5574C20.3265 19.8181 17.915 19.6264 17.5868 19.599C17.5725 19.599 17.5582 19.5853 17.5582 19.5716L16.7163 18.8597C16.6022 18.7775 16.6022 18.5996 16.7163 18.5037L17.5582 17.7918C17.5582 17.7918 17.5725 17.7781 17.5868 17.7781C17.915 17.7507 20.141 17.5864 22.0532 16.8197C22.0674 16.8197 24.8215 18.2847 25.3922 18.6269C25.4493 18.6543 25.4493 18.7228 25.3922 18.7502C24.8215 19.0788 22.0674 20.5574 22.0532 20.5574Z" fill="url(#paint2_linear_277_46)"/>
<path fill-rule="evenodd" clip-rule="evenodd" d="M20.0646 12.7094C20.135 12.6069 20.2583 12.5173 20.4696 12.4789C20.6809 12.4405 20.945 12.4533 21.262 12.5557C21.5789 12.6582 21.9311 12.8758 22.16 13.1703C22.4065 13.4777 22.5298 13.8746 22.4946 14.2459C22.477 14.438 22.4065 14.6813 22.2657 14.9374C22.1248 15.1935 21.9135 15.4496 21.6318 15.6928C21.35 15.9233 20.9978 16.141 20.6281 16.3075C20.2583 16.4739 19.8709 16.5892 19.4659 16.6788C19.0785 16.7556 18.7087 16.8068 18.3566 16.8196C18.1805 16.8196 18.022 16.8196 17.8635 16.8196C17.7227 16.8068 17.5818 16.8068 17.4409 16.794C17.3177 16.7812 17.1944 16.7684 17.1064 16.7428C17.0007 16.73 16.9127 16.7044 16.8422 16.6916C16.7014 16.6532 16.6309 16.6276 16.6309 16.5892C16.6309 16.5764 16.7014 16.5379 16.8422 16.4995C16.9831 16.4483 17.1592 16.3971 17.3705 16.3459C17.4761 16.3075 17.5994 16.269 17.7227 16.2306C17.8459 16.1922 17.9692 16.1538 18.11 16.1026C18.3566 16.0002 18.6207 15.8721 18.8496 15.7441C19.0961 15.6032 19.3074 15.4496 19.4835 15.2959C19.6596 15.1294 19.7829 14.963 19.8885 14.8093C19.9765 14.6557 20.0294 14.5148 20.047 14.3996C20.047 14.374 20.047 14.3484 20.0646 14.31C20.0646 14.2971 20.0646 14.2715 20.0646 14.2459C20.0646 14.2203 20.0646 14.2075 20.0822 14.1819C20.0822 14.1691 20.0822 14.1435 20.0822 14.1307C20.0822 14.0026 20.0998 13.9002 20.0998 13.7978C20.1174 13.6953 20.1174 13.5801 20.0998 13.4649C20.0646 13.2216 19.9237 12.9399 20.0646 12.7094Z" fill="url(#paint3_linear_277_46)"/>
<path fill-rule="evenodd" clip-rule="evenodd" d="M9.96037 15.3181L9.96037 15.3331C9.96037 15.3331 9.94516 15.3181 9.92995 15.3031C9.94516 15.3031 9.96037 15.3181 9.96037 15.3181ZM14.3402 17.6445C15.5112 16.834 16.3476 15.2431 16.5757 13.7722C16.8038 12.2563 16.2868 10.7253 15.6024 9.41955C14.8116 7.87362 13.7927 6.47778 12.8955 5.02191C12.0286 3.62607 11.2378 2.09515 11.177 0.399124C11.1618 0.219016 11.0705 0.0389076 10.9337 0.0389076C10.812 -0.0511466 10.6295 0.0238985 10.5231 0.173989C9.68663 1.34469 9.68663 3.0107 10.082 4.39153C10.4926 5.81739 11.7549 6.59786 12.9107 7.31829C12.2415 7.37833 11.5876 7.55843 11.1466 8.14379C10.9489 8.39894 10.5991 9.23945 11.4811 8.65409C12.424 8.05373 13.6406 8.90925 14.4466 9.62968C15.4047 10.4852 15.8457 11.896 15.9978 13.1718C15.9978 13.2168 16.013 13.2469 16.013 13.2769C16.013 13.3969 15.9978 13.532 15.9826 13.6521C15.6937 16.0986 13.8231 17.6295 11.7093 17.9447C10.0668 18.1998 7.77046 17.9147 6.78196 16.2186C6.34094 15.4682 6.41698 14.5076 6.6603 13.7121C6.70593 13.5921 6.75155 13.487 6.79717 13.3819C6.91883 13.3969 6.99487 13.3519 7.11653 13.2168C7.4511 12.8566 8.07462 12.7666 8.62209 12.9017C8.34836 13.562 8.51564 14.4776 8.80459 15.138C9.19999 16.0235 10.2037 16.6539 10.9185 16.2186C10.9793 16.2036 11.0249 16.1886 11.0705 16.1436C11.1618 16.1286 11.2378 16.0686 11.2834 15.9635C12.2263 14.0724 11.0553 12.1812 9.24561 11.7009C7.22299 11.1606 5.8695 12.9467 5.8695 15.0029C5.8695 16.9691 7.52714 18.0798 9.09353 18.485C10.8272 18.9203 12.8498 18.6651 14.3402 17.6445Z" fill="url(#paint4_linear_277_46)"/>
<path fill-rule="evenodd" clip-rule="evenodd" d="M9.92996 22.1752C9.94516 22.1596 9.96037 22.1596 9.96037 22.1441C9.96037 22.1596 9.96037 22.1596 9.96037 22.1596C9.96037 22.1752 9.94516 22.1752 9.92996 22.1752ZM9.09353 18.902C7.52714 19.3053 5.8695 20.4688 5.8695 22.4854C5.8695 24.6106 7.22299 26.4721 9.24561 25.9137C11.0553 25.4018 12.2263 23.4472 11.2834 21.4926C11.2378 21.3995 11.1618 21.322 11.0705 21.3064C11.0249 21.2754 10.9793 21.2444 10.9185 21.2289C10.2037 20.779 9.19999 21.4305 8.80459 22.3458C8.51564 23.0439 8.34836 23.9901 8.62209 24.6572C8.07462 24.8123 7.4511 24.7192 7.11653 24.3314C6.99487 24.2073 6.91883 24.1453 6.79717 24.1608C6.75155 24.0677 6.70593 23.9436 6.6603 23.8195C6.41698 23.0128 6.34094 22.0045 6.78197 21.2444C7.77046 19.476 10.0668 19.1967 11.7093 19.4449C13.8231 19.7707 15.6937 21.353 15.9826 23.8815C15.9978 24.0212 16.013 24.1453 16.013 24.2694C16.013 24.3004 15.9978 24.3314 15.9978 24.3779C15.8457 25.712 15.4047 27.1702 14.4466 28.0544C13.6406 28.799 12.424 29.6677 11.4811 29.0472C10.5991 28.4578 10.9489 29.311 11.1466 29.5747C11.5876 30.1952 12.2415 30.3658 12.9107 30.4434C11.7549 31.1725 10.4926 31.9791 10.082 33.4528C9.68663 34.88 9.68663 36.6174 10.5231 37.8119C10.6295 37.9825 10.812 38.0446 10.9337 37.967C11.0705 37.9515 11.1618 37.7808 11.177 37.5792C11.2378 35.8263 12.0286 34.244 12.8955 32.8168C13.7927 31.2966 14.8116 29.8539 15.6024 28.2716C16.2868 26.9065 16.8038 25.3242 16.5757 23.773C16.3476 22.2372 15.5112 20.5929 14.3402 19.7707C12.8498 18.7003 10.8272 18.4521 9.09353 18.902Z" fill="url(#paint5_linear_277_46)"/>
<defs>
<linearGradient id="paint0_linear_277_46" x1="2.92308" y1="18.0741" x2="2.92308" y2="19.9344" gradientUnits="userSpaceOnUse">
<stop stop-color="#FEF275"/>
<stop offset="1" stop-color="#BDA32B"/>
</linearGradient>
<linearGradient id="paint1_linear_277_46" x1="19.5539" y1="20.5773" x2="19.5539" y2="24.918" gradientUnits="userSpaceOnUse">
<stop stop-color="#FEF275"/>
<stop offset="1" stop-color="#BDA32B"/>
</linearGradient>
<linearGradient id="paint2_linear_277_46" x1="21.0152" y1="16.8368" x2="21.0152" y2="20.5574" gradientUnits="userSpaceOnUse">
<stop stop-color="#FEF275"/>
<stop offset="1" stop-color="#BDA32B"/>
</linearGradient>
<linearGradient id="paint3_linear_277_46" x1="19.5539" y1="12.4789" x2="19.5539" y2="16.8196" gradientUnits="userSpaceOnUse">
<stop stop-color="#FEF275"/>
<stop offset="1" stop-color="#BDA32B"/>
</linearGradient>
<linearGradient id="paint4_linear_277_46" x1="11.2284" y1="0.0853633" x2="11.2284" y2="18.6885" gradientUnits="userSpaceOnUse">
<stop stop-color="#FEF275"/>
<stop offset="1" stop-color="#BDA32B"/>
</linearGradient>
<linearGradient id="paint5_linear_277_46" x1="11.2284" y1="18.7767" x2="11.2284" y2="38" gradientUnits="userSpaceOnUse">
<stop stop-color="#FEF275"/>
<stop offset="1" stop-color="#BDA32B"/>
</linearGradient>
</defs>
</svg>
