<svg width="11" height="8" viewBox="0 0 11 8" fill="none" xmlns="http://www.w3.org/2000/svg">
<path d="M0.650667 4.29877C0.291718 3.94119 0.291718 3.35999 0.650667 3.00242C1.00767 2.64678 1.58505 2.64678 1.94205 3.00242L4.85886 5.90805C5.21781 6.26563 5.21781 6.84683 4.85886 7.2044C4.50185 7.56004 3.92448 7.56004 3.56747 7.2044L0.650667 4.29877Z" fill="#FFF383"/>
<path d="M9.05796 0.651778C9.41427 0.292104 9.99494 0.290183 10.3536 0.647492C10.7109 1.0034 10.7128 1.5813 10.3579 1.93956L4.99981 7.34822C4.6435 7.7079 4.06283 7.70982 3.70415 7.35251C3.34687 6.9966 3.34496 6.4187 3.69987 6.06044L9.05796 0.651778Z" fill="#FFF383"/>
</svg>
