<svg width="26" height="850" viewBox="0 0 26 850" fill="none" xmlns="http://www.w3.org/2000/svg">
<line x1="10.5" y1="450" x2="10.5" y2="850" stroke="#641F2E"/>
<line x1="10.5" x2="10.5" y2="400" stroke="#641F2E"/>
<path fill-rule="evenodd" clip-rule="evenodd" d="M5.86914 425.005L2.97247 424.066L2.97247 424.076C2.22544 424.452 0.182525 424.974 0.182525 424.974L-0.000424161 425.005L0.182525 425.037C0.182525 425.037 2.22544 425.559 2.97247 425.934L5.86914 425.005Z" fill="url(#paint0_linear_322_507)"/>
<path fill-rule="evenodd" clip-rule="evenodd" d="M20.0641 430.668C20.1345 430.77 20.2578 430.86 20.4691 430.898C20.6804 430.937 20.9445 430.924 21.2615 430.821C21.5784 430.719 21.9306 430.501 22.1595 430.207C22.406 429.899 22.5293 429.515 22.4941 429.131C22.4765 428.939 22.406 428.696 22.2652 428.44C22.1243 428.184 21.913 427.927 21.6313 427.684C21.3495 427.454 20.9974 427.236 20.6276 427.07C20.2578 426.903 19.8704 426.788 19.4654 426.698C19.078 426.621 18.7082 426.57 18.3561 426.557C18.18 426.557 18.0215 426.557 17.863 426.557C17.7222 426.57 17.5813 426.57 17.4404 426.583C17.3172 426.596 17.1939 426.621 17.1059 426.634C17.0002 426.647 16.9122 426.66 16.8417 426.685C16.7009 426.724 16.6304 426.749 16.6304 426.788C16.6304 426.813 16.7009 426.839 16.8417 426.877C16.9826 426.916 17.1587 426.98 17.37 427.031C17.4756 427.07 17.5989 427.108 17.7222 427.146C17.8454 427.185 17.9687 427.236 18.1096 427.274C18.3561 427.377 18.6202 427.492 18.8491 427.633C19.0956 427.774 19.3069 427.927 19.483 428.081C19.6591 428.248 19.7824 428.414 19.888 428.568C19.9761 428.721 20.0289 428.862 20.0465 428.977C20.0465 429.003 20.0465 429.029 20.0641 429.054C20.0641 429.093 20.0641 429.105 20.0641 429.131C20.0641 429.157 20.0641 429.169 20.0817 429.195C20.0817 429.208 20.0817 429.234 20.0817 429.246C20.0817 429.374 20.0993 429.477 20.0993 429.579C20.1169 429.682 20.1169 429.784 20.0993 429.912C20.0641 430.168 19.9232 430.437 20.0641 430.668Z" fill="url(#paint1_linear_322_507)"/>
<path fill-rule="evenodd" clip-rule="evenodd" d="M22.0537 426.557C20.327 425.818 17.9155 425.626 17.5873 425.599C17.573 425.599 17.5587 425.585 17.5587 425.572L16.7168 424.86C16.6027 424.778 16.6027 424.6 16.7168 424.504L17.5587 423.792C17.5587 423.792 17.573 423.778 17.5873 423.778C17.9155 423.751 20.1415 423.586 22.0537 422.82C22.0679 422.82 24.822 424.285 25.3927 424.627C25.4498 424.654 25.4498 424.723 25.3927 424.75C24.822 425.079 22.0679 426.557 22.0537 426.557Z" fill="url(#paint2_linear_322_507)"/>
<path fill-rule="evenodd" clip-rule="evenodd" d="M20.0641 418.709C20.1345 418.607 20.2578 418.517 20.4691 418.479C20.6804 418.44 20.9445 418.453 21.2615 418.556C21.5784 418.658 21.9306 418.876 22.1595 419.17C22.406 419.478 22.5293 419.875 22.4941 420.246C22.4765 420.438 22.406 420.681 22.2652 420.937C22.1243 421.193 21.913 421.45 21.6313 421.693C21.3495 421.923 20.9974 422.141 20.6276 422.307C20.2578 422.474 19.8704 422.589 19.4654 422.679C19.078 422.756 18.7082 422.807 18.3561 422.82C18.18 422.82 18.0215 422.82 17.863 422.82C17.7222 422.807 17.5813 422.807 17.4404 422.794C17.3172 422.781 17.1939 422.768 17.1059 422.743C17.0002 422.73 16.9122 422.704 16.8417 422.692C16.7009 422.653 16.6304 422.628 16.6304 422.589C16.6304 422.576 16.7009 422.538 16.8417 422.5C16.9826 422.448 17.1587 422.397 17.37 422.346C17.4756 422.307 17.5989 422.269 17.7222 422.231C17.8454 422.192 17.9687 422.154 18.1096 422.103C18.3561 422 18.6202 421.872 18.8491 421.744C19.0956 421.603 19.3069 421.45 19.483 421.296C19.6591 421.129 19.7824 420.963 19.888 420.809C19.9761 420.656 20.0289 420.515 20.0465 420.4C20.0465 420.374 20.0465 420.348 20.0641 420.31C20.0641 420.297 20.0641 420.272 20.0641 420.246C20.0641 420.22 20.0641 420.208 20.0817 420.182C20.0817 420.169 20.0817 420.143 20.0817 420.131C20.0817 420.003 20.0993 419.9 20.0993 419.798C20.1169 419.695 20.1169 419.58 20.0993 419.465C20.0641 419.222 19.9232 418.94 20.0641 418.709Z" fill="url(#paint3_linear_322_507)"/>
<path fill-rule="evenodd" clip-rule="evenodd" d="M9.96086 421.318L9.96086 421.333C9.96086 421.333 9.94565 421.318 9.93044 421.303C9.94565 421.303 9.96086 421.318 9.96086 421.318ZM14.3407 423.645C15.5117 422.834 16.3481 421.243 16.5762 419.772C16.8043 418.256 16.2873 416.725 15.6029 415.42C14.8121 413.874 13.7932 412.478 12.8959 411.022C12.0291 409.626 11.2383 408.095 11.1775 406.399C11.1623 406.219 11.071 406.039 10.9342 406.039C10.8125 405.949 10.63 406.024 10.5235 406.174C9.68712 407.345 9.68712 409.011 10.0825 410.392C10.4931 411.817 11.7554 412.598 12.9112 413.318C12.242 413.378 11.5881 413.558 11.1471 414.144C10.9494 414.399 10.5996 415.239 11.4816 414.654C12.4245 414.054 13.6411 414.909 14.4471 415.63C15.4052 416.485 15.8462 417.896 15.9983 419.172C15.9983 419.217 16.0135 419.247 16.0135 419.277C16.0135 419.397 15.9983 419.532 15.9831 419.652C15.6942 422.099 13.8236 423.629 11.7097 423.945C10.0673 424.2 7.77095 423.915 6.78245 422.219C6.34143 421.468 6.41747 420.508 6.66079 419.712C6.70641 419.592 6.75204 419.487 6.79766 419.382C6.91932 419.397 6.99536 419.352 7.11702 419.217C7.45159 418.857 8.07511 418.767 8.62258 418.902C8.34884 419.562 8.51613 420.478 8.80507 421.138C9.20047 422.024 10.2042 422.654 10.9189 422.219C10.9798 422.204 11.0254 422.189 11.071 422.144C11.1623 422.129 11.2383 422.069 11.2839 421.963C12.2268 420.072 11.0558 418.181 9.2461 417.701C7.22348 417.161 5.86999 418.947 5.86999 421.003C5.86999 422.969 7.52763 424.08 9.09402 424.485C10.8277 424.92 12.8503 424.665 14.3407 423.645Z" fill="url(#paint4_linear_322_507)"/>
<path fill-rule="evenodd" clip-rule="evenodd" d="M9.93044 428.175C9.94565 428.16 9.96086 428.16 9.96086 428.144C9.96086 428.16 9.96086 428.16 9.96086 428.16C9.96086 428.175 9.94565 428.175 9.93044 428.175ZM9.09402 424.902C7.52763 425.305 5.86999 426.469 5.86999 428.485C5.86999 430.611 7.22348 432.472 9.2461 431.914C11.0558 431.402 12.2268 429.447 11.2839 427.493C11.2383 427.4 11.1623 427.322 11.071 427.306C11.0254 427.275 10.9798 427.244 10.9189 427.229C10.2042 426.779 9.20048 427.431 8.80508 428.346C8.51613 429.044 8.34884 429.99 8.62258 430.657C8.07511 430.812 7.45159 430.719 7.11702 430.331C6.99536 430.207 6.91932 430.145 6.79766 430.161C6.75204 430.068 6.70641 429.944 6.66079 429.819C6.41747 429.013 6.34143 428.005 6.78245 427.244C7.77095 425.476 10.0673 425.197 11.7097 425.445C13.8236 425.771 15.6942 427.353 15.9831 429.882C15.9983 430.021 16.0135 430.145 16.0135 430.269C16.0135 430.3 15.9983 430.331 15.9983 430.378C15.8462 431.712 15.4052 433.17 14.4471 434.054C13.6411 434.799 12.4245 435.668 11.4816 435.047C10.5996 434.458 10.9494 435.311 11.1471 435.575C11.5881 436.195 12.242 436.366 12.9112 436.443C11.7554 437.172 10.4931 437.979 10.0825 439.453C9.68712 440.88 9.68712 442.617 10.5235 443.812C10.63 443.983 10.8125 444.045 10.9342 443.967C11.071 443.951 11.1623 443.781 11.1775 443.579C11.2383 441.826 12.0291 440.244 12.8959 438.817C13.7932 437.297 14.8121 435.854 15.6029 434.272C16.2873 432.906 16.8043 431.324 16.5762 429.773C16.3481 428.237 15.5117 426.593 14.3407 425.771C12.8503 424.7 10.8277 424.452 9.09402 424.902Z" fill="url(#paint5_linear_322_507)"/>
<defs>
<linearGradient id="paint0_linear_322_507" x1="2.92259" y1="424.074" x2="2.92259" y2="425.934" gradientUnits="userSpaceOnUse">
<stop stop-color="#FEF275"/>
<stop offset="1" stop-color="#BDA32B"/>
</linearGradient>
<linearGradient id="paint1_linear_322_507" x1="19.5535" y1="426.577" x2="19.5535" y2="430.918" gradientUnits="userSpaceOnUse">
<stop stop-color="#FEF275"/>
<stop offset="1" stop-color="#BDA32B"/>
</linearGradient>
<linearGradient id="paint2_linear_322_507" x1="21.0157" y1="422.837" x2="21.0157" y2="426.557" gradientUnits="userSpaceOnUse">
<stop stop-color="#FEF275"/>
<stop offset="1" stop-color="#BDA32B"/>
</linearGradient>
<linearGradient id="paint3_linear_322_507" x1="19.5535" y1="418.479" x2="19.5535" y2="422.82" gradientUnits="userSpaceOnUse">
<stop stop-color="#FEF275"/>
<stop offset="1" stop-color="#BDA32B"/>
</linearGradient>
<linearGradient id="paint4_linear_322_507" x1="11.2289" y1="406.085" x2="11.2289" y2="424.689" gradientUnits="userSpaceOnUse">
<stop stop-color="#FEF275"/>
<stop offset="1" stop-color="#BDA32B"/>
</linearGradient>
<linearGradient id="paint5_linear_322_507" x1="11.2289" y1="424.777" x2="11.2289" y2="444" gradientUnits="userSpaceOnUse">
<stop stop-color="#FEF275"/>
<stop offset="1" stop-color="#BDA32B"/>
</linearGradient>
</defs>
</svg>
