<svg width="63" height="35" viewBox="0 0 63 35" fill="none" xmlns="http://www.w3.org/2000/svg">
<g id="on">
<path id="Vector" fill-rule="evenodd" clip-rule="evenodd" d="M20.5422 2.44004C21.3708 2.83288 23.3039 2.62847 23.9982 5.02356C24.6238 7.18107 24.5982 12.3407 24.1147 14.7424C22.7777 21.3837 17.1341 10.8796 15.7409 8.57216C15.0196 7.37728 13.7647 4.65203 13.207 3.32238C12.245 1.02806 9.93861 1.51674 7.18974 1.51674C6.15565 1.51674 5.45756 1.61137 4.48188 1.60932C2.95519 1.60563 0 1.31357 0 2.71695C0 3.79059 0.615233 4.8634 1.08919 5.79448L3.64293 10.8399C4.08913 11.6878 4.49845 12.5378 5.00266 13.373L6.39014 15.7861C10.0443 21.7523 14.4346 28.7504 21.0091 31.9828C25.9923 34.4328 28.3376 34.3832 33.8014 34.3832C34.6519 34.3832 35.7204 33.9252 36.0158 33.3415C36.3762 32.6296 36.3394 31.4515 36.4181 30.5077C36.6107 28.2089 37.7401 25.1748 40.4703 27.0505C41.7638 27.9393 43.3356 30.0096 44.516 31.175C45.1556 31.8062 45.9296 32.6329 46.6479 33.1293C47.0158 33.3837 47.6249 33.7507 48.0052 33.9109C50.2627 34.8612 52.8554 34.3824 55.6511 34.3832C57.2026 34.3836 59.9072 34.6367 61.2151 33.7913C63.2887 32.4506 61.2151 30.0547 60.0397 28.5669C59.3682 27.7173 56.7776 25.004 55.8603 24.2052C49.8559 18.9775 51.0573 19.825 57.2784 11.6194C58.5835 9.89772 62.0938 5.38649 62.0938 2.99386C62.0938 1.73958 60.7494 1.63226 59.7431 1.52658C59.2256 1.4725 59.0819 1.60604 58.5495 1.6126C56.8956 1.63308 49.3641 1.43359 48.422 1.75474C47.8134 1.96242 47.4674 2.58137 47.2201 3.15157C45.8206 6.3737 44.8665 8.59265 42.8596 11.5809C42.0472 12.7905 39.445 16.8421 37.8163 16.8421C36.6497 16.8421 36.2292 14.5445 36.2292 13.4262C36.2292 10.0345 36.416 6.94021 36.416 3.64025C36.416 2.93774 36.2623 2.20123 36.0286 1.715C35.0082 -0.409324 29.4512 0.0396281 26.8917 0.0396281C25.0431 0.0396281 22.0626 0.228876 20.9117 1.69739C20.7327 1.92637 20.5753 2.04885 20.5422 2.44004Z" fill="#6BB0EF"/>
</g>
</svg>
