<svg width="65" height="65" viewBox="0 0 65 65" fill="none" xmlns="http://www.w3.org/2000/svg">
<g filter="url(#filter0_b_2524_2)">
<path d="M0 30C0 13.4315 13.4315 0 30 0H65V35C65 51.5685 51.5685 65 35 65H0V30Z" fill="url(#paint0_linear_2524_2)" fill-opacity="0.9"/>
</g>
<path d="M21.0164 44.5654C22.1733 44.056 24.7054 42.7881 27.68 41.0572C29.7235 39.8692 31.9707 38.4655 34.1178 36.941L34.1826 36.8945C35.5079 36.5227 36.7296 36.1062 38.5491 35.5429C40.7537 35.225 42.8638 34.9256 49.0092 34.0388C49.2961 34.0165 49.8292 34.0481 49.8699 34.6003C49.8662 34.7174 49.8274 34.8308 49.7626 34.9368C49.72 35.0056 49.6626 35.0744 49.5941 35.1432C48.3484 36.3702 46.7306 38.1308 45.4793 39.2185C40.9888 40.6351 30.7323 43.1617 25.3792 44.6212C24.1575 44.9187 23.1376 45.1585 22.4287 45.3072C22.0159 45.3946 21.6698 45.4392 21.3995 45.4337L21.394 45.4374V45.4337C20.9794 45.4244 20.748 45.2979 20.7313 45.0339L20.7276 44.9782L20.7813 44.6677L21.0164 44.5654ZM28.1557 41.8808C26.8952 42.6133 24.922 43.7641 23.8854 44.3126C30.0604 43.3421 38.0012 41.0311 44.1614 39.3356C45.5719 38.1067 47.3692 35.9984 48.9148 34.5333C45.0795 35.0353 42.0642 35.3607 38.8509 35.8459C37.6903 36.2382 36.8166 36.532 35.3506 37.0376C33.2016 38.5584 30.2011 40.6909 28.1557 41.8808Z" fill="white"/>
<path d="M49.2017 38.1085C48.6649 39.897 47.8505 41.5982 46.7824 43.1376C45.7403 44.6398 44.4557 45.9895 42.9508 47.1199L42.8879 47.1664L42.8139 47.1906C37.8809 48.8266 34.6398 49.2412 29.7698 49.864L28.5555 50.0202L28.4685 49.9979C27.0507 49.6279 25.6309 49.046 24.3038 48.2875C23.0062 47.5475 21.7938 46.6384 20.7572 45.5973C20.4315 45.27 20.3074 45.0971 20.6573 44.7439C20.7776 44.6249 21.4384 44.4427 21.605 44.3907C22.475 44.3107 22.7415 44.664 23.7522 44.4446C29.0183 43.2993 39.4136 40.7448 44.3224 39.1906L49.4553 37.2663L49.2017 38.1085ZM46.0032 42.5928C46.8435 41.3825 47.5191 40.0662 48.0134 38.6867C39.3932 41.2487 30.6028 43.1264 21.8808 45.3017L21.8364 45.3165C22.7193 46.1364 23.7151 46.8578 24.7721 47.462C26.0011 48.1629 27.3117 48.7058 28.6185 49.0553L29.6513 48.9233C34.4306 48.3098 37.6236 47.9008 42.4437 46.3093C43.8393 45.2515 45.0332 43.9928 46.0032 42.5928ZM32.7944 50.0779L32.8943 49.1594L43.3377 47.7093L43.1841 48.3693C42.5584 50.3976 39.9948 50.9312 38.1641 51C36.2039 50.9703 33.9549 50.7211 33.1997 50.617L32.7222 50.5519L32.7944 50.0779ZM42.4307 48.4585L34.0493 49.9198C34.5898 50.1002 37.3219 50.2322 37.979 50.2415C39.7727 50.3958 41.7477 49.574 42.4307 48.4585ZM25.0793 14.116L27.5912 14.5715L21.207 20.4148L18.4934 22.0862L17.9881 20.993C16.2074 17.0218 21.6513 15.3635 24.9516 14.1048L25.0793 14.116ZM19.0376 20.8573L25.7142 15.1162C25.5606 15.053 25.3089 14.9619 25.1534 14.9266C23.2209 15.9417 17.4254 17.1687 19.0376 20.8573ZM13.5753 31.1032C13.6271 30.6068 13.6716 30.049 13.7123 29.521C13.8345 27.9928 13.9381 26.7081 14.3453 25.8176C14.6674 25.1148 15.0265 24.5478 15.3689 24.1034C15.8835 23.4378 16.3722 23.0363 16.648 22.8615L16.6721 22.8448L16.6646 22.8503L29.6384 15.3244L29.7439 15.3133C30.6305 15.2315 31.7782 15.237 32.8851 15.2817C34.5898 15.3505 36.215 15.5159 36.6222 15.594C37.0813 15.6851 37.8772 16.0532 38.7657 16.5422C39.7579 17.0869 40.8833 17.7878 41.7847 18.4106C42.116 18.6412 42.1864 18.8884 42.042 19.1822C41.9587 19.3514 41.8032 19.4592 41.5848 19.5522L41.4478 18.974L26.9322 25.4253L25.8956 26.4069L13.4939 31.9175L13.5753 31.1032ZM14.6582 29.5954L14.5934 30.3874C23.3098 26.5129 32.0077 22.6384 40.7685 18.8699C39.9892 18.3512 39.1045 17.812 38.3141 17.3769C37.5033 16.9307 36.8036 16.5998 36.4427 16.5292C36.0614 16.4548 34.5028 16.2986 32.848 16.2317C31.817 16.1889 30.7582 16.1815 29.9345 16.2503L17.1385 23.6721C16.9219 23.8152 16.5425 24.1369 16.1186 24.6853C15.8169 25.0776 15.4967 25.5833 15.2061 26.2173C14.8692 26.9498 14.7729 28.1583 14.6582 29.5954ZM49.0518 26.7081C49.4294 27.6135 49.6959 28.8183 49.8477 30.1011C50.0088 31.4601 50.0421 32.9159 49.9477 34.2024L49.944 34.2563C49.9273 34.5036 49.9199 34.6282 49.733 34.7918C49.5886 34.9182 49.472 34.9349 49.2443 34.9665L49.0944 34.5073L38.9638 35.8069L35.1674 37.0897L33.9105 37.8706L17.3865 43.1023L17.1829 42.9015C16.8979 42.6152 16.6554 42.327 16.4388 42.0295C16.226 41.7395 16.0353 41.4327 15.8484 41.1074C15.6392 40.7411 15.1986 39.488 14.8136 38.0918C14.5212 37.0339 14.2565 35.8757 14.138 34.9386L14.1251 34.8476C14.0843 34.5259 14.3157 34.5464 14.7581 34.6635C22.9673 31.5605 29.4385 29.1157 36.6722 26.3809C36.7981 26.3326 37.1794 25.8771 37.309 25.8343C40.3095 24.8173 43.4044 23.8264 46.7269 22.841L46.9213 23.1255C47.2026 23.5345 47.7579 24.4065 48.2355 25.2078C48.5964 25.8157 48.9185 26.3902 49.0518 26.7081ZM48.9056 30.2126C48.7649 29.0135 48.5205 27.8998 48.1763 27.0781C48.0615 26.7992 47.7635 26.2693 47.4229 25.6967C47.049 25.0665 46.627 24.3953 46.3345 23.9491L37.5792 26.5464L15.1061 35.039C15.2301 35.8831 15.467 36.8982 15.7262 37.839C16.0927 39.1683 16.4925 40.3265 16.6683 40.6333C16.8331 40.9215 17.0052 41.1985 17.2014 41.4662C17.3403 41.6577 17.4902 41.8417 17.6568 42.0221L38.5491 35.5429L49.0092 34.0388C49.0906 32.8341 49.0555 31.4787 48.9056 30.2126Z" fill="white"/>
<path d="M14.3361 22.036C14.0307 21.3611 13.5457 20.3628 13.0348 19.6042C12.2278 18.4032 7.90752 15.8115 5.92323 14.6217L5.86955 14.5901C4.67935 13.8761 3.05417 13.1789 1.96762 12.742C2.98013 14.5901 5.1273 18.2322 7.07086 19.6879C9.08476 21.1957 12.7257 21.8241 14.3361 22.036ZM13.8215 19.0725C14.7248 20.4167 15.5337 22.4097 15.5355 22.4153L15.8391 23.1441L15.058 23.0734C15.0413 23.0716 9.3513 22.5845 6.50445 20.452C3.67611 18.3326 0.540495 12.0746 0.53124 12.0579L0 11L1.11246 11.3941C1.12171 11.3979 4.32396 12.5561 6.35452 13.7739L6.4082 13.8055C8.45171 15.0307 12.8978 17.6967 13.8215 19.0725Z" fill="white"/>
<path d="M14.1232 34.7639C14.0732 34.5705 14.1343 34.3512 14.2731 34.1615C14.3601 34.0425 14.4879 33.9198 14.6322 33.8269L15.0302 33.574C16.8127 32.4418 21.6661 29.3611 25.3588 25.6409L25.4236 25.574L25.5106 25.5368C29.9216 23.6591 32.4538 22.5306 35.0878 21.3574C36.9351 20.5338 38.8342 19.6879 41.5126 18.5259L41.8643 18.6319L42.1216 18.7509C42.1216 18.7509 42.3493 19.0037 42.1438 19.3756C41.6311 20.2958 40.9073 21.469 40.0244 22.7778C39.2488 23.9305 38.3307 25.2133 37.3034 26.5557L37.2201 26.6653L36.6241 26.8922C32.7351 28.3683 30.9045 29.0637 28.3038 30.0397C25.6069 31.0493 23.1413 31.9677 18.4472 33.7153L14.2546 35.2752L14.1232 34.7639ZM26.9322 25.4253C24.2279 28.136 18.0325 32.598 15.7354 34.1336C21.6124 32.0421 32.0336 28.1415 36.3279 26.511C37.2831 25.258 38.4714 23.3839 39.2377 22.2442C39.8171 21.3853 40.8796 19.6693 41.2997 18.974C36.6537 21.0023 31.5986 23.2742 26.9322 25.4253Z" fill="white"/>
<path d="M26.525 26.736C26.6671 26.736 26.7823 26.6203 26.7823 26.4776C26.7823 26.3348 26.6671 26.2191 26.525 26.2191C26.3829 26.2191 26.2677 26.3348 26.2677 26.4776C26.2677 26.6203 26.3829 26.736 26.525 26.736Z" fill="white"/>
<path d="M25.5754 27.7846C25.7175 27.7846 25.8327 27.6689 25.8327 27.5261C25.8327 27.3834 25.7175 27.2677 25.5754 27.2677C25.4333 27.2677 25.3181 27.3834 25.3181 27.5261C25.3181 27.6689 25.4333 27.7846 25.5754 27.7846Z" fill="white"/>
<path d="M24.5925 28.8592C24.7346 28.8592 24.8498 28.7435 24.8498 28.6007C24.8498 28.458 24.7346 28.3423 24.5925 28.3423C24.4504 28.3423 24.3352 28.458 24.3352 28.6007C24.3352 28.7435 24.4504 28.8592 24.5925 28.8592Z" fill="white"/>
<path d="M23.58 29.8464C23.7221 29.8464 23.8373 29.7307 23.8373 29.588C23.8373 29.4452 23.7221 29.3295 23.58 29.3295C23.4379 29.3295 23.3227 29.4452 23.3227 29.588C23.3227 29.7307 23.4379 29.8464 23.58 29.8464Z" fill="white"/>
<path d="M22.6564 30.8633C22.7985 30.8633 22.9137 30.7477 22.9137 30.6049C22.9137 30.4622 22.7985 30.3465 22.6564 30.3465C22.5143 30.3465 22.3991 30.4622 22.3991 30.6049C22.3991 30.7477 22.5143 30.8633 22.6564 30.8633Z" fill="white"/>
<path d="M21.6142 31.9082C21.7563 31.9082 21.8715 31.7925 21.8715 31.6498C21.8715 31.5071 21.7563 31.3914 21.6142 31.3914C21.4722 31.3914 21.357 31.5071 21.357 31.6498C21.357 31.7925 21.4722 31.9082 21.6142 31.9082Z" fill="white"/>
<path d="M29.5107 25.7246C29.6528 25.7246 29.768 25.6089 29.768 25.4662C29.768 25.3235 29.6528 25.2078 29.5107 25.2078C29.3686 25.2078 29.2534 25.3235 29.2534 25.4662C29.2534 25.6089 29.3686 25.7246 29.5107 25.7246Z" fill="white"/>
<path d="M28.5592 26.7732C28.7013 26.7732 28.8165 26.6575 28.8165 26.5148C28.8165 26.372 28.7013 26.2563 28.5592 26.2563C28.4171 26.2563 28.302 26.372 28.302 26.5148C28.302 26.6575 28.4171 26.7732 28.5592 26.7732Z" fill="white"/>
<path d="M27.5782 27.8478C27.7203 27.8478 27.8355 27.7321 27.8355 27.5894C27.8355 27.4466 27.7203 27.3309 27.5782 27.3309C27.4361 27.3309 27.3209 27.4466 27.3209 27.5894C27.3209 27.7321 27.4361 27.8478 27.5782 27.8478Z" fill="white"/>
<path d="M26.5657 28.835C26.7078 28.835 26.823 28.7193 26.823 28.5766C26.823 28.4339 26.7078 28.3181 26.5657 28.3181C26.4236 28.3181 26.3084 28.4339 26.3084 28.5766C26.3084 28.7193 26.4236 28.835 26.5657 28.835Z" fill="white"/>
<path d="M25.6402 29.8501C25.7823 29.8501 25.8975 29.7344 25.8975 29.5917C25.8975 29.449 25.7823 29.3333 25.6402 29.3333C25.4981 29.3333 25.3829 29.449 25.3829 29.5917C25.3829 29.7344 25.4981 29.8501 25.6402 29.8501Z" fill="white"/>
<path d="M24.5999 30.8968C24.742 30.8968 24.8572 30.7811 24.8572 30.6384C24.8572 30.4957 24.742 30.38 24.5999 30.38C24.4578 30.38 24.3426 30.4957 24.3426 30.6384C24.3426 30.7811 24.4578 30.8968 24.5999 30.8968Z" fill="white"/>
<path d="M32.4575 24.6742C32.5996 24.6742 32.7148 24.5585 32.7148 24.4158C32.7148 24.273 32.5996 24.1573 32.4575 24.1573C32.3154 24.1573 32.2002 24.273 32.2002 24.4158C32.2002 24.5585 32.3154 24.6742 32.4575 24.6742Z" fill="white"/>
<path d="M31.5061 25.7228C31.6481 25.7228 31.7633 25.6071 31.7633 25.4643C31.7633 25.3216 31.6481 25.2059 31.5061 25.2059C31.364 25.2059 31.2488 25.3216 31.2488 25.4643C31.2488 25.6071 31.364 25.7228 31.5061 25.7228Z" fill="white"/>
<path d="M30.5232 26.7973C30.6653 26.7973 30.7805 26.6816 30.7805 26.5389C30.7805 26.3962 30.6653 26.2805 30.5232 26.2805C30.3811 26.2805 30.2659 26.3962 30.2659 26.5389C30.2659 26.6816 30.3811 26.7973 30.5232 26.7973Z" fill="white"/>
<path d="M29.5125 27.7846C29.6546 27.7846 29.7698 27.6689 29.7698 27.5261C29.7698 27.3834 29.6546 27.2677 29.5125 27.2677C29.3704 27.2677 29.2552 27.3834 29.2552 27.5261C29.2552 27.6689 29.3704 27.7846 29.5125 27.7846Z" fill="white"/>
<path d="M28.587 28.7997C28.7291 28.7997 28.8443 28.684 28.8443 28.5413C28.8443 28.3985 28.7291 28.2828 28.587 28.2828C28.4449 28.2828 28.3297 28.3985 28.3297 28.5413C28.3297 28.684 28.4449 28.7997 28.587 28.7997Z" fill="white"/>
<path d="M27.5467 29.8464C27.6888 29.8464 27.804 29.7307 27.804 29.588C27.804 29.4452 27.6888 29.3295 27.5467 29.3295C27.4046 29.3295 27.2894 29.4452 27.2894 29.588C27.2894 29.7307 27.4046 29.8464 27.5467 29.8464Z" fill="white"/>
<path d="M35.3858 23.6609C35.5279 23.6609 35.6431 23.5452 35.6431 23.4025C35.6431 23.2598 35.5279 23.1441 35.3858 23.1441C35.2437 23.1441 35.1285 23.2598 35.1285 23.4025C35.1285 23.5452 35.2437 23.6609 35.3858 23.6609Z" fill="white"/>
<path d="M34.4344 24.7114C34.5765 24.7114 34.6916 24.5957 34.6916 24.4529C34.6916 24.3102 34.5765 24.1945 34.4344 24.1945C34.2923 24.1945 34.1771 24.3102 34.1771 24.4529C34.1771 24.5957 34.2923 24.7114 34.4344 24.7114Z" fill="white"/>
<path d="M33.4515 25.7841C33.5936 25.7841 33.7088 25.6684 33.7088 25.5257C33.7088 25.383 33.5936 25.2673 33.4515 25.2673C33.3094 25.2673 33.1942 25.383 33.1942 25.5257C33.1942 25.6684 33.3094 25.7841 33.4515 25.7841Z" fill="white"/>
<path d="M32.439 26.7713C32.5811 26.7713 32.6963 26.6556 32.6963 26.5129C32.6963 26.3702 32.5811 26.2545 32.439 26.2545C32.2969 26.2545 32.1817 26.3702 32.1817 26.5129C32.1817 26.6556 32.2969 26.7713 32.439 26.7713Z" fill="white"/>
<path d="M31.5153 27.7883C31.6574 27.7883 31.7726 27.6726 31.7726 27.5299C31.7726 27.3871 31.6574 27.2714 31.5153 27.2714C31.3732 27.2714 31.258 27.3871 31.258 27.5299C31.258 27.6726 31.3732 27.7883 31.5153 27.7883Z" fill="white"/>
<path d="M30.4732 28.8331C30.6153 28.8331 30.7305 28.7174 30.7305 28.5747C30.7305 28.432 30.6153 28.3163 30.4732 28.3163C30.3311 28.3163 30.2159 28.432 30.2159 28.5747C30.2159 28.7174 30.3311 28.8331 30.4732 28.8331Z" fill="white"/>
<path d="M39.321 21.6382C39.4631 21.6382 39.5783 21.5225 39.5783 21.3797C39.5783 21.237 39.4631 21.1213 39.321 21.1213C39.1789 21.1213 39.0637 21.237 39.0637 21.3797C39.0637 21.5225 39.1789 21.6382 39.321 21.6382Z" fill="white"/>
<path d="M38.3696 22.6867C38.5117 22.6867 38.6269 22.571 38.6269 22.4283C38.6269 22.2856 38.5117 22.1699 38.3696 22.1699C38.2275 22.1699 38.1123 22.2856 38.1123 22.4283C38.1123 22.571 38.2275 22.6867 38.3696 22.6867Z" fill="white"/>
<path d="M37.3867 23.7613C37.5288 23.7613 37.644 23.6456 37.644 23.5029C37.644 23.3602 37.5288 23.2445 37.3867 23.2445C37.2446 23.2445 37.1294 23.3602 37.1294 23.5029C37.1294 23.6456 37.2446 23.7613 37.3867 23.7613Z" fill="white"/>
<path d="M36.3742 24.7485C36.5163 24.7485 36.6315 24.6328 36.6315 24.4901C36.6315 24.3474 36.5163 24.2317 36.3742 24.2317C36.2321 24.2317 36.1169 24.3474 36.1169 24.4901C36.1169 24.6328 36.2321 24.7485 36.3742 24.7485Z" fill="white"/>
<path d="M35.4506 25.7637C35.5927 25.7637 35.7078 25.648 35.7078 25.5052C35.7078 25.3625 35.5927 25.2468 35.4506 25.2468C35.3085 25.2468 35.1933 25.3625 35.1933 25.5052C35.1933 25.648 35.3085 25.7637 35.4506 25.7637Z" fill="white"/>
<path d="M34.4084 26.8104C34.5505 26.8104 34.6657 26.6947 34.6657 26.5519C34.6657 26.4092 34.5505 26.2935 34.4084 26.2935C34.2663 26.2935 34.1511 26.4092 34.1511 26.5519C34.1511 26.6947 34.2663 26.8104 34.4084 26.8104Z" fill="white"/>
<path d="M36.3927 22.6533C36.5348 22.6533 36.65 22.5376 36.65 22.3948C36.65 22.2521 36.5348 22.1364 36.3927 22.1364C36.2506 22.1364 36.1354 22.2521 36.1354 22.3948C36.1354 22.5376 36.2506 22.6533 36.3927 22.6533Z" fill="white"/>
<path d="M38.3807 24.7002C38.5228 24.7002 38.638 24.5845 38.638 24.4418C38.638 24.2991 38.5228 24.1834 38.3807 24.1834C38.2386 24.1834 38.1234 24.2991 38.1234 24.4418C38.1234 24.5845 38.2386 24.7002 38.3807 24.7002Z" fill="white"/>
<path d="M30.5805 24.4715C30.7226 24.4715 30.8378 24.3558 30.8378 24.2131C30.8378 24.0704 30.7226 23.9547 30.5805 23.9547C30.4384 23.9547 30.3233 24.0704 30.3233 24.2131C30.3233 24.3558 30.4384 24.4715 30.5805 24.4715Z" fill="white"/>
<path d="M33.4274 23.6647C33.5695 23.6647 33.6847 23.549 33.6847 23.4062C33.6847 23.2635 33.5695 23.1478 33.4274 23.1478C33.2853 23.1478 33.1701 23.2635 33.1701 23.4062C33.1701 23.549 33.2853 23.6647 33.4274 23.6647Z" fill="white"/>
<path d="M18.7433 32.9828C18.8854 32.9828 19.0006 32.8671 19.0006 32.7244C19.0006 32.5817 18.8854 32.466 18.7433 32.466C18.6012 32.466 18.486 32.5817 18.486 32.7244C18.486 32.8671 18.6012 32.9828 18.7433 32.9828Z" fill="white"/>
<path d="M19.7984 31.9472C19.9405 31.9472 20.0557 31.8315 20.0557 31.6888C20.0557 31.5461 19.9405 31.4304 19.7984 31.4304C19.6563 31.4304 19.5411 31.5461 19.5411 31.6888C19.5411 31.8315 19.6563 31.9472 19.7984 31.9472Z" fill="white"/>
<path d="M20.7036 30.9117C20.8456 30.9117 20.9608 30.796 20.9608 30.6533C20.9608 30.5105 20.8456 30.3948 20.7036 30.3948C20.5615 30.3948 20.4463 30.5105 20.4463 30.6533C20.4463 30.796 20.5615 30.9117 20.7036 30.9117Z" fill="white"/>
<path d="M21.7605 29.7497C21.9026 29.7497 22.0178 29.634 22.0178 29.4913C22.0178 29.3486 21.9026 29.2329 21.7605 29.2329C21.6184 29.2329 21.5032 29.3486 21.5032 29.4913C21.5032 29.634 21.6184 29.7497 21.7605 29.7497Z" fill="white"/>
<path d="M33.5274 27.7307C33.6695 27.7307 33.7846 27.615 33.7846 27.4722C33.7846 27.3295 33.6695 27.2138 33.5274 27.2138C33.3853 27.2138 33.2701 27.3295 33.2701 27.4722C33.2701 27.615 33.3853 27.7307 33.5274 27.7307Z" fill="white"/>
<path d="M40.2465 20.5208C40.3886 20.5208 40.5038 20.4051 40.5038 20.2624C40.5038 20.1197 40.3886 20.004 40.2465 20.004C40.1044 20.004 39.9892 20.1197 39.9892 20.2624C39.9892 20.4051 40.1044 20.5208 40.2465 20.5208Z" fill="white"/>
<path d="M37.3738 21.6698C37.5159 21.6698 37.631 21.5541 37.631 21.4113C37.631 21.2686 37.5159 21.1529 37.3738 21.1529C37.2317 21.1529 37.1165 21.2686 37.1165 21.4113C37.1165 21.5541 37.2317 21.6698 37.3738 21.6698Z" fill="white"/>
<path d="M27.8503 25.4811C27.9924 25.4811 28.1076 25.3654 28.1076 25.2226C28.1076 25.0799 27.9924 24.9642 27.8503 24.9642C27.7082 24.9642 27.593 25.0799 27.593 25.2226C27.593 25.3654 27.7082 25.4811 27.8503 25.4811Z" fill="white"/>
<path d="M34.4344 22.4934C34.5765 22.4934 34.6916 22.3777 34.6916 22.235C34.6916 22.0922 34.5765 21.9765 34.4344 21.9765C34.2923 21.9765 34.1771 22.0922 34.1771 22.235C34.1771 22.3777 34.2923 22.4934 34.4344 22.4934Z" fill="white"/>
<path d="M49.2187 34.3201C49.3601 34.3326 49.4849 34.2275 49.4973 34.0854C49.5097 33.9433 49.4051 33.8181 49.2636 33.8056C49.1221 33.7931 48.9974 33.8982 48.985 34.0403C48.9726 34.1824 49.0772 34.3077 49.2187 34.3201Z" fill="white"/>
<path d="M33.0808 38.964C33.2223 38.9764 33.347 38.8714 33.3594 38.7293C33.3718 38.5872 33.2672 38.4619 33.1258 38.4494C32.9843 38.437 32.8596 38.542 32.8471 38.6841C32.8347 38.8262 32.9394 38.9515 33.0808 38.964Z" fill="white"/>
<path d="M32.043 39.9255C32.1844 39.938 32.3092 39.8329 32.3216 39.6908C32.334 39.5487 32.2294 39.4234 32.0879 39.411C31.9464 39.3985 31.8217 39.5036 31.8093 39.6457C31.7969 39.7878 31.9015 39.9131 32.043 39.9255Z" fill="white"/>
<path d="M30.9703 40.9094C31.1118 40.9219 31.2365 40.8168 31.2489 40.6747C31.2613 40.5326 31.1567 40.4073 31.0152 40.3949C30.8738 40.3824 30.749 40.4875 30.7366 40.6296C30.7242 40.7716 30.8288 40.8969 30.9703 40.9094Z" fill="white"/>
<path d="M29.8765 41.804C30.018 41.8165 30.1427 41.7114 30.1551 41.5693C30.1676 41.4272 30.0629 41.302 29.9215 41.2895C29.78 41.277 29.6553 41.3821 29.6429 41.5242C29.6305 41.6663 29.7351 41.7916 29.8765 41.804Z" fill="white"/>
<path d="M28.8664 42.7353C29.0079 42.7477 29.1326 42.6427 29.145 42.5006C29.1575 42.3585 29.0528 42.2332 28.9114 42.2207C28.7699 42.2083 28.6452 42.3134 28.6328 42.4554C28.6204 42.5975 28.725 42.7228 28.8664 42.7353Z" fill="white"/>
<path d="M27.7388 43.6851C27.8803 43.6976 28.005 43.5925 28.0174 43.4504C28.0298 43.3083 27.9252 43.1831 27.7837 43.1706C27.6423 43.1581 27.5175 43.2632 27.5051 43.4053C27.4927 43.5474 27.5973 43.6727 27.7388 43.6851Z" fill="white"/>
<path d="M36.1422 38.2177C36.2837 38.2302 36.4084 38.1251 36.4208 37.983C36.4332 37.8409 36.3286 37.7156 36.1871 37.7032C36.0457 37.6907 35.9209 37.7958 35.9085 37.9379C35.8961 38.0799 36.0007 38.2052 36.1422 38.2177Z" fill="white"/>
<path d="M35.1042 39.1793C35.2456 39.1917 35.3704 39.0866 35.3828 38.9446C35.3952 38.8025 35.2906 38.6772 35.1491 38.6647C35.0076 38.6522 34.8829 38.7573 34.8705 38.8994C34.8581 39.0415 34.9627 39.1668 35.1042 39.1793Z" fill="white"/>
<path d="M34.0317 40.1633C34.1731 40.1758 34.2979 40.0707 34.3103 39.9286C34.3227 39.7865 34.2181 39.6612 34.0766 39.6488C33.9352 39.6363 33.8104 39.7414 33.798 39.8835C33.7856 40.0256 33.8902 40.1508 34.0317 40.1633Z" fill="white"/>
<path d="M32.9377 41.0578C33.0792 41.0702 33.2039 40.9651 33.2163 40.8231C33.2288 40.681 33.1241 40.5557 32.9827 40.5432C32.8412 40.5308 32.7165 40.6358 32.7041 40.7779C32.6917 40.92 32.7963 41.0453 32.9377 41.0578Z" fill="white"/>
<path d="M31.9278 41.989C32.0693 42.0015 32.194 41.8964 32.2064 41.7543C32.2188 41.6122 32.1142 41.4869 31.9728 41.4745C31.8313 41.462 31.7066 41.5671 31.6942 41.7092C31.6817 41.8513 31.7864 41.9765 31.9278 41.989Z" fill="white"/>
<path d="M30.8002 42.939C30.9416 42.9515 31.0664 42.8464 31.0788 42.7043C31.0912 42.5623 30.9866 42.437 30.8451 42.4245C30.7037 42.412 30.5789 42.5171 30.5665 42.6592C30.5541 42.8013 30.6587 42.9266 30.8002 42.939Z" fill="white"/>
<path d="M39.169 37.4303C39.3104 37.4428 39.4352 37.3377 39.4476 37.1956C39.46 37.0536 39.3554 36.9283 39.2139 36.9158C39.0725 36.9033 38.9477 37.0084 38.9353 37.1505C38.9229 37.2926 39.0275 37.4179 39.169 37.4303Z" fill="white"/>
<path d="M38.1309 38.3917C38.2724 38.4042 38.3971 38.2991 38.4095 38.157C38.4219 38.0149 38.3173 37.8896 38.1759 37.8772C38.0344 37.8647 37.9097 37.9698 37.8973 38.1119C37.8848 38.254 37.9895 38.3792 38.1309 38.3917Z" fill="white"/>
<path d="M37.0584 39.3758C37.1999 39.3882 37.3246 39.2832 37.3371 39.1411C37.3495 38.999 37.2449 38.8737 37.1034 38.8612C36.9619 38.8488 36.8372 38.9538 36.8248 39.0959C36.8124 39.238 36.917 39.3633 37.0584 39.3758Z" fill="white"/>
<path d="M35.9645 40.2702C36.106 40.2827 36.2307 40.1776 36.2431 40.0355C36.2555 39.8934 36.1509 39.7681 36.0094 39.7557C35.868 39.7432 35.7432 39.8483 35.7308 39.9904C35.7184 40.1325 35.823 40.2577 35.9645 40.2702Z" fill="white"/>
<path d="M34.9546 41.2015C35.0961 41.2139 35.2208 41.1089 35.2332 40.9668C35.2456 40.8247 35.141 40.6994 34.9995 40.6869C34.8581 40.6745 34.7333 40.7795 34.7209 40.9216C34.7085 41.0637 34.8131 41.189 34.9546 41.2015Z" fill="white"/>
<path d="M33.8268 42.1515C33.9682 42.164 34.093 42.0589 34.1054 41.9168C34.1178 41.7747 34.0132 41.6494 33.8717 41.637C33.7303 41.6245 33.6055 41.7296 33.5931 41.8717C33.5807 42.0137 33.6853 42.139 33.8268 42.1515Z" fill="white"/>
<path d="M42.1735 36.679C42.315 36.6915 42.4397 36.5864 42.4521 36.4443C42.4646 36.3023 42.3599 36.177 42.2185 36.1645C42.077 36.152 41.9523 36.2571 41.9399 36.3992C41.9275 36.5413 42.0321 36.6666 42.1735 36.679Z" fill="white"/>
<path d="M41.1357 37.6406C41.2771 37.6531 41.4019 37.548 41.4143 37.4059C41.4267 37.2638 41.3221 37.1385 41.1806 37.1261C41.0392 37.1136 40.9144 37.2187 40.902 37.3608C40.8896 37.5028 40.9942 37.6281 41.1357 37.6406Z" fill="white"/>
<path d="M40.063 38.6247C40.2045 38.6371 40.3292 38.532 40.3416 38.39C40.354 38.2479 40.2494 38.1226 40.108 38.1101C39.9665 38.0977 39.8418 38.2027 39.8293 38.3448C39.8169 38.4869 39.9216 38.6122 40.063 38.6247Z" fill="white"/>
<path d="M38.9692 39.5191C39.1107 39.5316 39.2355 39.4265 39.2479 39.2844C39.2603 39.1423 39.1557 39.017 39.0142 39.0046C38.8727 38.9921 38.748 39.0972 38.7356 39.2393C38.7232 39.3814 38.8278 39.5066 38.9692 39.5191Z" fill="white"/>
<path d="M37.9593 40.4504C38.1008 40.4628 38.2255 40.3578 38.2379 40.2157C38.2504 40.0736 38.1457 39.9483 38.0043 39.9358C37.8628 39.9234 37.7381 40.0284 37.7257 40.1705C37.7133 40.3126 37.8179 40.4379 37.9593 40.4504Z" fill="white"/>
<path d="M36.8315 41.4004C36.973 41.4129 37.0977 41.3078 37.1101 41.1657C37.1225 41.0236 37.0179 40.8983 36.8765 40.8859C36.735 40.8734 36.6103 40.9785 36.5978 41.1206C36.5854 41.2626 36.6901 41.3879 36.8315 41.4004Z" fill="white"/>
<path d="M46.2698 35.0082C46.4113 35.0207 46.536 34.9156 46.5484 34.7735C46.5608 34.6314 46.4562 34.5061 46.3148 34.4937C46.1733 34.4812 46.0486 34.5863 46.0362 34.7284C46.0237 34.8705 46.1284 34.9957 46.2698 35.0082Z" fill="white"/>
<path d="M45.232 35.9698C45.3734 35.9822 45.4982 35.8772 45.5106 35.7351C45.523 35.593 45.4184 35.4677 45.2769 35.4552C45.1354 35.4428 45.0107 35.5478 44.9983 35.6899C44.9859 35.832 45.0905 35.9573 45.232 35.9698Z" fill="white"/>
<path d="M44.1593 36.9538C44.3008 36.9663 44.4255 36.8612 44.4379 36.7191C44.4503 36.577 44.3457 36.4518 44.2042 36.4393C44.0628 36.4268 43.938 36.5319 43.9256 36.674C43.9132 36.8161 44.0178 36.9414 44.1593 36.9538Z" fill="white"/>
<path d="M43.0655 37.8483C43.207 37.8607 43.3317 37.7557 43.3441 37.6136C43.3566 37.4715 43.2519 37.3462 43.1105 37.3337C42.969 37.3213 42.8443 37.4263 42.8319 37.5684C42.8195 37.7105 42.9241 37.8358 43.0655 37.8483Z" fill="white"/>
<path d="M42.0554 38.7795C42.1969 38.792 42.3216 38.6869 42.334 38.5448C42.3465 38.4027 42.2418 38.2775 42.1004 38.265C41.9589 38.2525 41.8342 38.3576 41.8218 38.4997C41.8094 38.6418 41.914 38.7671 42.0554 38.7795Z" fill="white"/>
<path d="M40.9278 39.7296C41.0693 39.742 41.194 39.637 41.2064 39.4949C41.2188 39.3528 41.1142 39.2275 40.9727 39.215C40.8313 39.2026 40.7065 39.3076 40.6941 39.4497C40.6817 39.5918 40.7863 39.7171 40.9278 39.7296Z" fill="white"/>
<path d="M43.266 35.7638C43.4075 35.7762 43.5322 35.6712 43.5446 35.5291C43.557 35.387 43.4524 35.2617 43.3109 35.2492C43.1695 35.2368 43.0447 35.3418 43.0323 35.4839C43.0199 35.626 43.1245 35.7513 43.266 35.7638Z" fill="white"/>
<path d="M37.318 37.0648C37.4594 37.0773 37.5842 36.9722 37.5966 36.8301C37.609 36.688 37.5044 36.5627 37.3629 36.5503C37.2214 36.5378 37.0967 36.6429 37.0843 36.785C37.0719 36.9271 37.1765 37.0524 37.318 37.0648Z" fill="white"/>
<path d="M40.2226 36.5097C40.364 36.5221 40.4888 36.4171 40.5012 36.275C40.5136 36.1329 40.409 36.0076 40.2675 35.9951C40.1261 35.9827 40.0013 36.0877 39.9889 36.2298C39.9765 36.3719 40.0811 36.4972 40.2226 36.5097Z" fill="white"/>
<path d="M24.7846 44.5037C24.926 44.5162 25.0508 44.4111 25.0632 44.269C25.0756 44.1269 24.971 44.0017 24.8295 43.9892C24.6881 43.9767 24.5633 44.0818 24.5509 44.2239C24.5385 44.366 24.6431 44.4913 24.7846 44.5037Z" fill="white"/>
<path d="M25.9267 43.565C26.0681 43.5775 26.1929 43.4724 26.2053 43.3303C26.2177 43.1882 26.1131 43.063 25.9716 43.0505C25.8301 43.038 25.7054 43.1431 25.693 43.2852C25.6806 43.4273 25.7852 43.5526 25.9267 43.565Z" fill="white"/>
<path d="M26.9184 42.613C27.0599 42.6254 27.1846 42.5203 27.197 42.3783C27.2095 42.2362 27.1048 42.1109 26.9634 42.0984C26.8219 42.0859 26.6972 42.191 26.6848 42.3331C26.6724 42.4752 26.777 42.6005 26.9184 42.613Z" fill="white"/>
<path d="M28.0714 41.5486C28.2129 41.561 28.3376 41.456 28.35 41.3139C28.3624 41.1718 28.2578 41.0465 28.1164 41.034C27.9749 41.0216 27.8502 41.1267 27.8378 41.2687C27.8253 41.4108 27.93 41.5361 28.0714 41.5486Z" fill="white"/>
<path d="M39.9692 40.569C40.1106 40.5814 40.2354 40.4764 40.2478 40.3343C40.2602 40.1922 40.1556 40.0669 40.0141 40.0544C39.8727 40.042 39.7479 40.1471 39.7355 40.2891C39.7231 40.4312 39.8277 40.5565 39.9692 40.569Z" fill="white"/>
<path d="M34.5096 37.8299C34.6511 37.8423 34.7758 37.7373 34.7882 37.5952C34.8006 37.4531 34.696 37.3278 34.5546 37.3153C34.4131 37.3029 34.2884 37.4079 34.2759 37.55C34.2635 37.6921 34.3681 37.8174 34.5096 37.8299Z" fill="white"/>
<path d="M48.1806 35.2815C48.3221 35.294 48.4468 35.1889 48.4592 35.0468C48.4716 34.9047 48.367 34.7794 48.2256 34.767C48.0841 34.7545 47.9594 34.8596 47.9469 35.0017C47.9345 35.1438 48.0392 35.269 48.1806 35.2815Z" fill="white"/>
<path d="M47.1081 36.2656C47.2496 36.278 47.3743 36.1729 47.3868 36.0309C47.3992 35.8888 47.2945 35.7635 47.1531 35.751C47.0116 35.7386 46.8869 35.8436 46.8745 35.9857C46.8621 36.1278 46.9667 36.2531 47.1081 36.2656Z" fill="white"/>
<path d="M46.0142 37.1602C46.1557 37.1727 46.2804 37.0676 46.2928 36.9255C46.3052 36.7834 46.2006 36.6581 46.0591 36.6457C45.9177 36.6332 45.7929 36.7383 45.7805 36.8804C45.7681 37.0224 45.8727 37.1477 46.0142 37.1602Z" fill="white"/>
<path d="M45.0043 38.0915C45.1457 38.1039 45.2705 37.9988 45.2829 37.8568C45.2953 37.7147 45.1907 37.5894 45.0492 37.5769C44.9078 37.5644 44.783 37.6695 44.7706 37.8116C44.7582 37.9537 44.8628 38.079 45.0043 38.0915Z" fill="white"/>
<path d="M43.8766 39.0413C44.0181 39.0538 44.1428 38.9487 44.1553 38.8066C44.1677 38.6645 44.0631 38.5392 43.9216 38.5268C43.7801 38.5143 43.6554 38.6194 43.643 38.7615C43.6306 38.9035 43.7352 39.0288 43.8766 39.0413Z" fill="white"/>
<path d="M42.9178 39.8807C43.0593 39.8932 43.184 39.7881 43.1964 39.646C43.2088 39.5039 43.1042 39.3786 42.9628 39.3662C42.8213 39.3537 42.6966 39.4588 42.6842 39.6009C42.6717 39.743 42.7764 39.8682 42.9178 39.8807Z" fill="white"/>
<defs>
<filter id="filter0_b_2524_2" x="-4" y="-4" width="73" height="73" filterUnits="userSpaceOnUse" color-interpolation-filters="sRGB">
<feFlood flood-opacity="0" result="BackgroundImageFix"/>
<feGaussianBlur in="BackgroundImageFix" stdDeviation="2"/>
<feComposite in2="SourceAlpha" operator="in" result="effect1_backgroundBlur_2524_2"/>
<feBlend mode="normal" in="SourceGraphic" in2="effect1_backgroundBlur_2524_2" result="shape"/>
</filter>
<linearGradient id="paint0_linear_2524_2" x1="4.92424" y1="32.5" x2="64.3502" y2="32.6658" gradientUnits="userSpaceOnUse">
<stop stop-color="#FABC2A"/>
<stop offset="1" stop-color="#F75B2D"/>
</linearGradient>
</defs>
</svg>
