<svg width="140" height="45" viewBox="0 0 140 45" fill="none" xmlns="http://www.w3.org/2000/svg">
<path d="M23.529 36.8512C24.7844 36.3023 27.5322 34.9361 30.7601 33.0711C32.9777 31.791 35.4162 30.2786 37.7463 28.6359L37.8165 28.5858C39.2547 28.1852 40.5805 27.7364 42.555 27.1294C44.9473 26.7869 47.2372 26.4644 53.9059 25.5088C54.2172 25.4848 54.7957 25.5188 54.8399 26.1138C54.8359 26.24 54.7937 26.3622 54.7234 26.4764C54.6772 26.5505 54.615 26.6246 54.5406 26.6987C53.1888 28.0209 51.4332 29.918 50.0754 31.0899C45.2024 32.6163 34.0724 35.3388 28.2634 36.9113C26.9377 37.2318 25.8309 37.4902 25.0616 37.6505C24.6136 37.7447 24.238 37.7927 23.9448 37.7867L23.9387 37.7907V37.7867C23.4888 37.7767 23.2377 37.6405 23.2196 37.356L23.2156 37.2959L23.2739 36.9614L23.529 36.8512ZM31.2764 33.9585C29.9085 34.7478 27.7672 35.9878 26.6424 36.5788C33.3433 35.5331 41.9604 33.043 48.6452 31.2161C50.1758 29.8919 52.1262 27.6202 53.8035 26.0417C49.6415 26.5826 46.3694 26.9331 42.8824 27.456C41.623 27.8787 40.6749 28.1952 39.084 28.7401C36.752 30.3787 33.4959 32.6764 31.2764 33.9585Z" fill="url(#paint0_linear_442_584)"/>
<path d="M54.1148 29.8939C53.5323 31.8211 52.6485 33.654 51.4895 35.3127C50.3586 36.9313 48.9646 38.3857 47.3316 39.6037L47.2633 39.6538L47.1829 39.6798C41.8298 41.4427 38.3127 41.8894 33.0279 42.5605L31.7102 42.7287L31.6158 42.7047C30.0772 42.3061 28.5365 41.679 27.0963 40.8617C25.6883 40.0644 24.3726 39.0848 23.2477 37.963C22.8942 37.6104 22.7596 37.4241 23.1393 37.0435C23.2698 36.9153 23.9869 36.719 24.1677 36.6629C25.1118 36.5768 25.401 36.9574 26.4978 36.721C32.2124 35.487 43.493 32.7345 48.82 31.0598L54.39 28.9865L54.1148 29.8939ZM50.6438 34.7258C51.5558 33.4217 52.2889 32.0034 52.8252 30.5169C43.4709 33.2774 33.9318 35.3007 24.467 37.6445L24.4188 37.6605C25.3769 38.544 26.4576 39.3212 27.6045 39.9723C28.9383 40.7275 30.3604 41.3124 31.7785 41.6891L32.8994 41.5468C38.0857 40.8858 41.5506 40.445 46.7812 38.7303C48.2957 37.5904 49.5913 36.2342 50.6438 34.7258ZM36.3101 42.7908L36.4185 41.8012L47.7514 40.2387L47.5846 40.9499C46.9057 43.1354 44.1237 43.7103 42.1372 43.7845C40.01 43.7524 37.5695 43.484 36.7499 43.3718L36.2317 43.3017L36.3101 42.7908ZM46.7671 41.046L37.6719 42.6206C38.2585 42.8149 41.2232 42.9571 41.9363 42.9671C43.8827 43.1334 46.0259 42.248 46.7671 41.046ZM27.938 4.04201L30.6637 4.53281L23.7359 10.829L20.7912 12.6299L20.2428 11.452C18.3105 7.17309 24.2179 5.38619 27.7994 4.03L27.938 4.04201ZM21.3817 11.3058L28.6269 5.11976C28.4602 5.05165 28.187 4.95349 28.0183 4.91543C25.9213 6.0092 19.6322 7.33135 21.3817 11.3058ZM15.4542 22.3457C15.5104 21.8108 15.5586 21.2099 15.6028 20.6409C15.7354 18.9943 15.8479 17.61 16.2898 16.6505C16.6393 15.8932 17.0289 15.2822 17.4005 14.8035C17.959 14.0863 18.4892 13.6536 18.7885 13.4653L18.8146 13.4473L18.8066 13.4533L32.8853 5.34413L32.9998 5.33211C33.9619 5.24396 35.2073 5.24997 36.4085 5.29805C38.2585 5.37217 40.0221 5.55046 40.464 5.6346C40.9621 5.73276 41.8258 6.1294 42.79 6.65625C43.8666 7.24321 45.0879 7.99843 46.0661 8.66952C46.4257 8.91792 46.502 9.18435 46.3453 9.50086C46.2549 9.68316 46.0862 9.79935 45.8492 9.89951L45.7005 9.2765L29.9486 16.2278L28.8238 17.2855L15.3658 23.2231L15.4542 22.3457ZM16.6292 20.7211L16.5589 21.5744C26.0177 17.3997 35.4564 13.2249 44.9634 9.16432C44.1177 8.60541 43.1576 8.02447 42.2999 7.55571C41.4201 7.07493 40.6608 6.71835 40.2691 6.64223C39.8553 6.5621 38.164 6.39383 36.3683 6.32171C35.2495 6.27564 34.1005 6.26762 33.2067 6.34174L19.3208 14.3387C19.0858 14.493 18.674 14.8395 18.2141 15.4305C17.8866 15.8532 17.5391 16.398 17.2238 17.0812C16.8582 17.8704 16.7538 19.1725 16.6292 20.7211ZM53.9521 17.61C54.3619 18.5856 54.6511 19.8837 54.8158 21.2659C54.9906 22.7303 55.0267 24.2989 54.9243 25.6851L54.9203 25.7432C54.9022 26.0096 54.8942 26.1439 54.6913 26.3201C54.5346 26.4564 54.4081 26.4744 54.161 26.5084L53.9983 26.0136L43.0049 27.4139L38.8852 28.7962L37.5213 29.6375L19.59 35.2747L19.369 35.0583C19.0597 34.7498 18.7966 34.4393 18.5615 34.1188C18.3306 33.8063 18.1237 33.4757 17.9208 33.1252C17.6938 32.7305 17.2157 31.3803 16.7979 29.8759C16.4806 28.7361 16.1933 27.488 16.0648 26.4784L16.0507 26.3802C16.0065 26.0337 16.2576 26.0557 16.7377 26.1819C25.6461 22.8385 32.6684 20.2042 40.5182 17.2574C40.6548 17.2054 41.0686 16.7146 41.2092 16.6685C44.4652 15.5727 47.8237 14.505 51.4292 13.4433L51.6401 13.7498C51.9454 14.1905 52.548 15.13 53.0663 15.9934C53.458 16.6485 53.8075 17.2675 53.9521 17.61ZM53.7934 21.3861C53.6408 20.094 53.3756 18.8941 53.002 18.0087C52.8775 17.7082 52.5541 17.1372 52.1845 16.5202C51.7787 15.8411 51.3208 15.118 51.0034 14.6372L41.5024 17.4357L17.1153 26.5866C17.2499 27.496 17.507 28.5898 17.7882 29.6035C18.1859 31.0358 18.6198 32.2838 18.8106 32.6143C18.9894 32.9248 19.1762 33.2233 19.3891 33.5118C19.5398 33.7181 19.7025 33.9165 19.8832 34.1108L42.555 27.1294L53.9059 25.5088C53.9943 24.2107 53.9561 22.7503 53.7934 21.3861Z" fill="url(#paint1_linear_442_584)"/>
<path d="M16.2797 12.5759C15.9483 11.8487 15.422 10.7729 14.8676 9.9556C13.9918 8.6615 9.30364 5.86898 7.15036 4.5869L7.09211 4.55284C5.80054 3.7836 4.03694 3.03238 2.85786 2.56161C3.9566 4.55284 6.28664 8.47721 8.39573 10.0457C10.5812 11.6704 14.5322 12.3475 16.2797 12.5759ZM15.7213 9.38267C16.7015 10.831 17.5793 12.9785 17.5813 12.9845L17.9107 13.7698L17.0631 13.6937C17.045 13.6917 10.8704 13.1668 7.78108 10.8691C4.71185 8.58538 1.30918 1.84245 1.29914 1.82442L0.722656 0.68457L1.92986 1.10926C1.9399 1.11327 5.41488 2.36129 7.61838 3.67342L7.67663 3.70747C9.89419 5.02761 14.719 7.90027 15.7213 9.38267Z" fill="url(#paint2_linear_442_584)"/>
<path d="M16.0487 26.2901C15.9945 26.0818 16.0608 25.8454 16.2114 25.641C16.3058 25.5128 16.4444 25.3806 16.6011 25.2805L17.033 25.008C18.9673 23.788 24.234 20.4686 28.2413 16.4601L28.3116 16.388L28.406 16.348C33.1926 14.3247 35.9405 13.1087 38.7988 11.8447C40.8034 10.9572 42.8643 10.0457 45.7708 8.79372L46.1525 8.9079L46.4317 9.03611C46.4317 9.03611 46.6787 9.30855 46.4558 9.7092C45.8994 10.7008 45.114 11.9649 44.1559 13.3751C43.3142 14.6172 42.318 15.9994 41.2031 17.4457L41.1128 17.5639L40.466 17.8083C36.2458 19.3989 34.2592 20.1481 31.437 21.1998C28.5104 22.2876 25.8349 23.2772 20.7409 25.1603L16.1913 26.841L16.0487 26.2901ZM29.9486 16.2278C27.014 19.1485 20.291 23.9563 17.7983 25.611C24.1757 23.3573 35.4845 19.1545 40.1446 17.3977C41.181 16.0475 42.4706 14.0282 43.3022 12.8002C43.9309 11.8747 45.0839 10.0257 45.5398 9.2765C40.4981 11.462 35.0125 13.91 29.9486 16.2278Z" fill="url(#paint3_linear_442_584)"/>
<path d="M29.5067 17.6401C29.6609 17.6401 29.7859 17.5154 29.7859 17.3616C29.7859 17.2078 29.6609 17.0832 29.5067 17.0832C29.3525 17.0832 29.2275 17.2078 29.2275 17.3616C29.2275 17.5154 29.3525 17.6401 29.5067 17.6401Z" fill="url(#paint4_linear_442_584)"/>
<path d="M28.4763 18.7699C28.6305 18.7699 28.7555 18.6452 28.7555 18.4914C28.7555 18.3377 28.6305 18.213 28.4763 18.213C28.3221 18.213 28.1971 18.3377 28.1971 18.4914C28.1971 18.6452 28.3221 18.7699 28.4763 18.7699Z" fill="url(#paint5_linear_442_584)"/>
<path d="M27.4097 19.9278C27.5639 19.9278 27.6889 19.8031 27.6889 19.6493C27.6889 19.4955 27.5639 19.3709 27.4097 19.3709C27.2555 19.3709 27.1305 19.4955 27.1305 19.6493C27.1305 19.8031 27.2555 19.9278 27.4097 19.9278Z" fill="url(#paint6_linear_442_584)"/>
<path d="M26.311 20.9915C26.4652 20.9915 26.5902 20.8668 26.5902 20.713C26.5902 20.5593 26.4652 20.4346 26.311 20.4346C26.1568 20.4346 26.0317 20.5593 26.0317 20.713C26.0317 20.8668 26.1568 20.9915 26.311 20.9915Z" fill="url(#paint7_linear_442_584)"/>
<path d="M25.3086 22.0873C25.4628 22.0873 25.5878 21.9626 25.5878 21.8088C25.5878 21.655 25.4628 21.5304 25.3086 21.5304C25.1544 21.5304 25.0294 21.655 25.0294 21.8088C25.0294 21.9626 25.1544 22.0873 25.3086 22.0873Z" fill="url(#paint8_linear_442_584)"/>
<path d="M24.1778 23.2131C24.332 23.2131 24.457 23.0884 24.457 22.9346C24.457 22.7809 24.332 22.6562 24.1778 22.6562C24.0236 22.6562 23.8986 22.7809 23.8986 22.9346C23.8986 23.0884 24.0236 23.2131 24.1778 23.2131Z" fill="url(#paint9_linear_442_584)"/>
<path d="M32.7467 16.5503C32.9009 16.5503 33.0259 16.4256 33.0259 16.2718C33.0259 16.1181 32.9009 15.9934 32.7467 15.9934C32.5925 15.9934 32.4675 16.1181 32.4675 16.2718C32.4675 16.4256 32.5925 16.5503 32.7467 16.5503Z" fill="url(#paint10_linear_442_584)"/>
<path d="M31.7142 17.6801C31.8684 17.6801 31.9934 17.5555 31.9934 17.4017C31.9934 17.2479 31.8684 17.1232 31.7142 17.1232C31.56 17.1232 31.435 17.2479 31.435 17.4017C31.435 17.5555 31.56 17.6801 31.7142 17.6801Z" fill="url(#paint11_linear_442_584)"/>
<path d="M30.6497 18.838C30.8039 18.838 30.9289 18.7133 30.9289 18.5596C30.9289 18.4058 30.8039 18.2811 30.6497 18.2811C30.4955 18.2811 30.3705 18.4058 30.3705 18.5596C30.3705 18.7133 30.4955 18.838 30.6497 18.838Z" fill="url(#paint12_linear_442_584)"/>
<path d="M29.5509 19.9017C29.7051 19.9017 29.8301 19.7771 29.8301 19.6233C29.8301 19.4695 29.7051 19.3448 29.5509 19.3448C29.3967 19.3448 29.2717 19.4695 29.2717 19.6233C29.2717 19.7771 29.3967 19.9017 29.5509 19.9017Z" fill="url(#paint13_linear_442_584)"/>
<path d="M28.5466 20.9955C28.7008 20.9955 28.8258 20.8708 28.8258 20.7171C28.8258 20.5633 28.7008 20.4386 28.5466 20.4386C28.3924 20.4386 28.2674 20.5633 28.2674 20.7171C28.2674 20.8708 28.3924 20.9955 28.5466 20.9955Z" fill="url(#paint14_linear_442_584)"/>
<path d="M27.4177 22.1233C27.5719 22.1233 27.6969 21.9987 27.6969 21.8449C27.6969 21.6911 27.5719 21.5664 27.4177 21.5664C27.2635 21.5664 27.1385 21.6911 27.1385 21.8449C27.1385 21.9987 27.2635 22.1233 27.4177 22.1233Z" fill="url(#paint15_linear_442_584)"/>
<path d="M35.9445 15.4185C36.0987 15.4185 36.2237 15.2938 36.2237 15.14C36.2237 14.9862 36.0987 14.8616 35.9445 14.8616C35.7903 14.8616 35.6653 14.9862 35.6653 15.14C35.6653 15.2938 35.7903 15.4185 35.9445 15.4185Z" fill="url(#paint16_linear_442_584)"/>
<path d="M34.912 16.5483C35.0662 16.5483 35.1912 16.4236 35.1912 16.2698C35.1912 16.1161 35.0662 15.9914 34.912 15.9914C34.7578 15.9914 34.6328 16.1161 34.6328 16.2698C34.6328 16.4236 34.7578 16.5483 34.912 16.5483Z" fill="url(#paint17_linear_442_584)"/>
<path d="M33.8454 17.7062C33.9996 17.7062 34.1246 17.5815 34.1246 17.4277C34.1246 17.2739 33.9996 17.1493 33.8454 17.1493C33.6912 17.1493 33.5662 17.2739 33.5662 17.4277C33.5662 17.5815 33.6912 17.7062 33.8454 17.7062Z" fill="url(#paint18_linear_442_584)"/>
<path d="M32.7487 18.7699C32.9029 18.7699 33.0279 18.6452 33.0279 18.4914C33.0279 18.3377 32.9029 18.213 32.7487 18.213C32.5945 18.213 32.4695 18.3377 32.4695 18.4914C32.4695 18.6452 32.5945 18.7699 32.7487 18.7699Z" fill="url(#paint19_linear_442_584)"/>
<path d="M31.7444 19.8637C31.8986 19.8637 32.0236 19.739 32.0236 19.5852C32.0236 19.4314 31.8986 19.3068 31.7444 19.3068C31.5902 19.3068 31.4652 19.4314 31.4652 19.5852C31.4652 19.739 31.5902 19.8637 31.7444 19.8637Z" fill="url(#paint20_linear_442_584)"/>
<path d="M30.6155 20.9915C30.7697 20.9915 30.8947 20.8668 30.8947 20.713C30.8947 20.5593 30.7697 20.4346 30.6155 20.4346C30.4613 20.4346 30.3363 20.5593 30.3363 20.713C30.3363 20.8668 30.4613 20.9915 30.6155 20.9915Z" fill="url(#paint21_linear_442_584)"/>
<path d="M39.1222 14.3267C39.2764 14.3267 39.4014 14.202 39.4014 14.0482C39.4014 13.8945 39.2764 13.7698 39.1222 13.7698C38.968 13.7698 38.843 13.8945 38.843 14.0482C38.843 14.202 38.968 14.3267 39.1222 14.3267Z" fill="url(#paint22_linear_442_584)"/>
<path d="M38.0897 15.4585C38.2439 15.4585 38.3689 15.3339 38.3689 15.1801C38.3689 15.0263 38.2439 14.9016 38.0897 14.9016C37.9355 14.9016 37.8105 15.0263 37.8105 15.1801C37.8105 15.3339 37.9355 15.4585 38.0897 15.4585Z" fill="url(#paint23_linear_442_584)"/>
<path d="M37.0231 16.6144C37.1773 16.6144 37.3023 16.4897 37.3023 16.3359C37.3023 16.1822 37.1773 16.0575 37.0231 16.0575C36.8689 16.0575 36.7439 16.1822 36.7439 16.3359C36.7439 16.4897 36.8689 16.6144 37.0231 16.6144Z" fill="url(#paint24_linear_442_584)"/>
<path d="M35.9244 17.6781C36.0786 17.6781 36.2036 17.5535 36.2036 17.3997C36.2036 17.2459 36.0786 17.1212 35.9244 17.1212C35.7702 17.1212 35.6452 17.2459 35.6452 17.3997C35.6452 17.5535 35.7702 17.6781 35.9244 17.6781Z" fill="url(#paint25_linear_442_584)"/>
<path d="M34.9221 18.7739C35.0763 18.7739 35.2013 18.6492 35.2013 18.4954C35.2013 18.3417 35.0763 18.217 34.9221 18.217C34.7679 18.217 34.6429 18.3417 34.6429 18.4954C34.6429 18.6492 34.7679 18.7739 34.9221 18.7739Z" fill="url(#paint26_linear_442_584)"/>
<path d="M33.7912 19.8997C33.9454 19.8997 34.0704 19.7751 34.0704 19.6213C34.0704 19.4675 33.9454 19.3428 33.7912 19.3428C33.637 19.3428 33.512 19.4675 33.512 19.6213C33.512 19.7751 33.637 19.8997 33.7912 19.8997Z" fill="url(#paint27_linear_442_584)"/>
<path d="M43.3926 12.1472C43.5468 12.1472 43.6718 12.0225 43.6718 11.8687C43.6718 11.7149 43.5468 11.5903 43.3926 11.5903C43.2384 11.5903 43.1134 11.7149 43.1134 11.8687C43.1134 12.0225 43.2384 12.1472 43.3926 12.1472Z" fill="url(#paint28_linear_442_584)"/>
<path d="M42.3601 13.277C42.5143 13.277 42.6393 13.1523 42.6393 12.9985C42.6393 12.8448 42.5143 12.7201 42.3601 12.7201C42.2059 12.7201 42.0809 12.8448 42.0809 12.9985C42.0809 13.1523 42.2059 13.277 42.3601 13.277Z" fill="url(#paint29_linear_442_584)"/>
<path d="M41.2935 14.4349C41.4477 14.4349 41.5727 14.3102 41.5727 14.1564C41.5727 14.0026 41.4477 13.878 41.2935 13.878C41.1393 13.878 41.0143 14.0026 41.0143 14.1564C41.0143 14.3102 41.1393 14.4349 41.2935 14.4349Z" fill="url(#paint30_linear_442_584)"/>
<path d="M40.1948 15.4986C40.349 15.4986 40.474 15.3739 40.474 15.2201C40.474 15.0664 40.349 14.9417 40.1948 14.9417C40.0406 14.9417 39.9156 15.0664 39.9156 15.2201C39.9156 15.3739 40.0406 15.4986 40.1948 15.4986Z" fill="url(#paint31_linear_442_584)"/>
<path d="M39.1925 16.5924C39.3467 16.5924 39.4717 16.4677 39.4717 16.3139C39.4717 16.1601 39.3467 16.0355 39.1925 16.0355C39.0383 16.0355 38.9133 16.1601 38.9133 16.3139C38.9133 16.4677 39.0383 16.5924 39.1925 16.5924Z" fill="url(#paint32_linear_442_584)"/>
<path d="M38.0616 17.7202C38.2158 17.7202 38.3408 17.5955 38.3408 17.4417C38.3408 17.288 38.2158 17.1633 38.0616 17.1633C37.9074 17.1633 37.7824 17.288 37.7824 17.4417C37.7824 17.5955 37.9074 17.7202 38.0616 17.7202Z" fill="url(#paint33_linear_442_584)"/>
<path d="M40.2149 13.2409C40.3691 13.2409 40.4941 13.1163 40.4941 12.9625C40.4941 12.8087 40.3691 12.684 40.2149 12.684C40.0607 12.684 39.9357 12.8087 39.9357 12.9625C39.9357 13.1163 40.0607 13.2409 40.2149 13.2409Z" fill="url(#paint34_linear_442_584)"/>
<path d="M42.3722 15.4465C42.5264 15.4465 42.6514 15.3218 42.6514 15.1681C42.6514 15.0143 42.5264 14.8896 42.3722 14.8896C42.218 14.8896 42.093 15.0143 42.093 15.1681C42.093 15.3218 42.218 15.4465 42.3722 15.4465Z" fill="url(#paint35_linear_442_584)"/>
<path d="M33.9077 15.2001C34.0619 15.2001 34.1869 15.0754 34.1869 14.9217C34.1869 14.7679 34.0619 14.6432 33.9077 14.6432C33.7535 14.6432 33.6285 14.7679 33.6285 14.9217C33.6285 15.0754 33.7535 15.2001 33.9077 15.2001Z" fill="url(#paint36_linear_442_584)"/>
<path d="M36.997 14.3307C37.1512 14.3307 37.2762 14.206 37.2762 14.0522C37.2762 13.8985 37.1512 13.7738 36.997 13.7738C36.8428 13.7738 36.7178 13.8985 36.7178 14.0522C36.7178 14.206 36.8428 14.3307 36.997 14.3307Z" fill="url(#paint37_linear_442_584)"/>
<path d="M21.0623 24.371C21.2165 24.371 21.3415 24.2463 21.3415 24.0925C21.3415 23.9387 21.2165 23.8141 21.0623 23.8141C20.9081 23.8141 20.7831 23.9387 20.7831 24.0925C20.7831 24.2463 20.9081 24.371 21.0623 24.371Z" fill="url(#paint38_linear_442_584)"/>
<path d="M22.2073 23.2552C22.3615 23.2552 22.4865 23.1305 22.4865 22.9767C22.4865 22.8229 22.3615 22.6983 22.2073 22.6983C22.0531 22.6983 21.9281 22.8229 21.9281 22.9767C21.9281 23.1305 22.0531 23.2552 22.2073 23.2552Z" fill="url(#paint39_linear_442_584)"/>
<path d="M23.1895 22.1394C23.3437 22.1394 23.4687 22.0147 23.4687 21.8609C23.4687 21.7071 23.3437 21.5825 23.1895 21.5825C23.0353 21.5825 22.9103 21.7071 22.9103 21.8609C22.9103 22.0147 23.0353 22.1394 23.1895 22.1394Z" fill="url(#paint40_linear_442_584)"/>
<path d="M24.3364 20.8873C24.4906 20.8873 24.6156 20.7627 24.6156 20.6089C24.6156 20.4551 24.4906 20.3304 24.3364 20.3304C24.1822 20.3304 24.0572 20.4551 24.0572 20.6089C24.0572 20.7627 24.1822 20.8873 24.3364 20.8873Z" fill="url(#paint41_linear_442_584)"/>
<path d="M37.1055 18.7118C37.2597 18.7118 37.3847 18.5871 37.3847 18.4333C37.3847 18.2796 37.2597 18.1549 37.1055 18.1549C36.9513 18.1549 36.8263 18.2796 36.8263 18.4333C36.8263 18.5871 36.9513 18.7118 37.1055 18.7118Z" fill="url(#paint42_linear_442_584)"/>
<path d="M44.3969 10.9432C44.5511 10.9432 44.6761 10.8185 44.6761 10.6648C44.6761 10.511 44.5511 10.3863 44.3969 10.3863C44.2427 10.3863 44.1177 10.511 44.1177 10.6648C44.1177 10.8185 44.2427 10.9432 44.3969 10.9432Z" fill="url(#paint43_linear_442_584)"/>
<path d="M41.2795 12.1812C41.4337 12.1812 41.5587 12.0565 41.5587 11.9028C41.5587 11.749 41.4337 11.6243 41.2795 11.6243C41.1253 11.6243 41.0003 11.749 41.0003 11.9028C41.0003 12.0565 41.1253 12.1812 41.2795 12.1812Z" fill="url(#paint44_linear_442_584)"/>
<path d="M30.9449 16.2879C31.0991 16.2879 31.2241 16.1632 31.2241 16.0094C31.2241 15.8556 31.0991 15.731 30.9449 15.731C30.7907 15.731 30.6657 15.8556 30.6657 16.0094C30.6657 16.1632 30.7907 16.2879 30.9449 16.2879Z" fill="url(#paint45_linear_442_584)"/>
<path d="M38.0897 13.0687C38.2439 13.0687 38.3689 12.944 38.3689 12.7902C38.3689 12.6364 38.2439 12.5117 38.0897 12.5117C37.9355 12.5117 37.8105 12.6364 37.8105 12.7902C37.8105 12.944 37.9355 13.0687 38.0897 13.0687Z" fill="url(#paint46_linear_442_584)"/>
<path d="M54.1332 25.8119C54.2867 25.8254 54.4221 25.7122 54.4355 25.5591C54.449 25.406 54.3355 25.271 54.182 25.2575C54.0285 25.2441 53.8931 25.3573 53.8796 25.5104C53.8662 25.6635 53.9797 25.7985 54.1332 25.8119Z" fill="url(#paint47_linear_442_584)"/>
<path d="M36.6209 30.8157C36.7744 30.8291 36.9098 30.7159 36.9233 30.5628C36.9367 30.4097 36.8232 30.2747 36.6697 30.2612C36.5162 30.2478 36.3808 30.361 36.3673 30.5141C36.3539 30.6672 36.4674 30.8022 36.6209 30.8157Z" fill="url(#paint48_linear_442_584)"/>
<path d="M35.4947 31.8517C35.6482 31.8652 35.7835 31.7519 35.797 31.5989C35.8105 31.4458 35.6969 31.3108 35.5434 31.2973C35.3899 31.2839 35.2546 31.3971 35.2411 31.5502C35.2276 31.7033 35.3411 31.8383 35.4947 31.8517Z" fill="url(#paint49_linear_442_584)"/>
<path d="M34.3306 32.9119C34.4842 32.9253 34.6195 32.8121 34.633 32.659C34.6465 32.5059 34.5329 32.3709 34.3794 32.3574C34.2259 32.344 34.0905 32.4572 34.0771 32.6103C34.0636 32.7634 34.1771 32.8984 34.3306 32.9119Z" fill="url(#paint50_linear_442_584)"/>
<path d="M33.1437 33.8758C33.2972 33.8893 33.4326 33.776 33.4461 33.6229C33.4595 33.4698 33.346 33.3348 33.1925 33.3214C33.039 33.308 32.9036 33.4212 32.8902 33.5743C32.8767 33.7274 32.9902 33.8624 33.1437 33.8758Z" fill="url(#paint51_linear_442_584)"/>
<path d="M32.0476 34.8792C32.2011 34.8927 32.3365 34.7795 32.3499 34.6264C32.3634 34.4733 32.2499 34.3383 32.0964 34.3248C31.9429 34.3114 31.8075 34.4246 31.794 34.5777C31.7806 34.7308 31.8941 34.8658 32.0476 34.8792Z" fill="url(#paint52_linear_442_584)"/>
<path d="M30.8239 35.9027C30.9774 35.9161 31.1128 35.8029 31.1263 35.6498C31.1397 35.4967 31.0262 35.3617 30.8727 35.3483C30.7192 35.3349 30.5838 35.4481 30.5704 35.6012C30.5569 35.7543 30.6704 35.8893 30.8239 35.9027Z" fill="url(#paint53_linear_442_584)"/>
<path d="M39.943 30.0116C40.0965 30.025 40.2319 29.9118 40.2454 29.7587C40.2588 29.6056 40.1453 29.4706 39.9918 29.4571C39.8383 29.4437 39.7029 29.5569 39.6895 29.71C39.676 29.8631 39.7895 29.9981 39.943 30.0116Z" fill="url(#paint54_linear_442_584)"/>
<path d="M38.8166 31.0476C38.9701 31.0611 39.1054 30.9478 39.1189 30.7947C39.1324 30.6416 39.0189 30.5066 38.8653 30.4932C38.7118 30.4798 38.5765 30.593 38.563 30.7461C38.5495 30.8992 38.6631 31.0342 38.8166 31.0476Z" fill="url(#paint55_linear_442_584)"/>
<path d="M37.6528 32.108C37.8063 32.1214 37.9416 32.0082 37.9551 31.8551C37.9686 31.702 37.855 31.567 37.7015 31.5535C37.548 31.5401 37.4127 31.6533 37.3992 31.8064C37.3857 31.9595 37.4993 32.0945 37.6528 32.108Z" fill="url(#paint56_linear_442_584)"/>
<path d="M36.4656 33.0717C36.6192 33.0851 36.7545 32.9719 36.768 32.8188C36.7815 32.6657 36.6679 32.5307 36.5144 32.5173C36.3609 32.5039 36.2255 32.6171 36.2121 32.7702C36.1986 32.9233 36.3121 33.0583 36.4656 33.0717Z" fill="url(#paint57_linear_442_584)"/>
<path d="M35.3697 34.0751C35.5232 34.0886 35.6586 33.9753 35.6721 33.8223C35.6855 33.6692 35.572 33.5342 35.4185 33.5207C35.265 33.5073 35.1296 33.6205 35.1161 33.7736C35.1027 33.9267 35.2162 34.0617 35.3697 34.0751Z" fill="url(#paint58_linear_442_584)"/>
<path d="M34.146 35.0988C34.2996 35.1122 34.4349 34.999 34.4484 34.8459C34.4619 34.6928 34.3483 34.5578 34.1948 34.5444C34.0413 34.531 33.9059 34.6442 33.8925 34.7973C33.879 34.9504 33.9925 35.0854 34.146 35.0988Z" fill="url(#paint59_linear_442_584)"/>
<path d="M43.2276 29.1632C43.3811 29.1766 43.5165 29.0634 43.5299 28.9103C43.5434 28.7572 43.4299 28.6222 43.2764 28.6088C43.1228 28.5953 42.9875 28.7086 42.974 28.8617C42.9606 29.0147 43.0741 29.1497 43.2276 29.1632Z" fill="url(#paint60_linear_442_584)"/>
<path d="M42.1011 30.1991C42.2546 30.2125 42.39 30.0993 42.4035 29.9462C42.4169 29.7931 42.3034 29.6581 42.1499 29.6446C41.9964 29.6312 41.861 29.7444 41.8476 29.8975C41.8341 30.0506 41.9476 30.1856 42.1011 30.1991Z" fill="url(#paint61_linear_442_584)"/>
<path d="M40.9373 31.2594C41.0908 31.2728 41.2262 31.1596 41.2397 31.0065C41.2531 30.8534 41.1396 30.7184 40.9861 30.705C40.8326 30.6915 40.6972 30.8048 40.6837 30.9578C40.6703 31.1109 40.7838 31.2459 40.9373 31.2594Z" fill="url(#paint62_linear_442_584)"/>
<path d="M39.7502 32.2231C39.9037 32.2366 40.0391 32.1233 40.0525 31.9703C40.066 31.8172 39.9525 31.6822 39.799 31.6687C39.6455 31.6553 39.5101 31.7685 39.4966 31.9216C39.4832 32.0747 39.5967 32.2097 39.7502 32.2231Z" fill="url(#paint63_linear_442_584)"/>
<path d="M38.6543 33.2266C38.8078 33.24 38.9431 33.1268 38.9566 32.9737C38.9701 32.8206 38.8566 32.6856 38.703 32.6721C38.5495 32.6587 38.4142 32.7719 38.4007 32.925C38.3872 33.0781 38.5008 33.2131 38.6543 33.2266Z" fill="url(#paint64_linear_442_584)"/>
<path d="M37.4304 34.2502C37.5839 34.2637 37.7193 34.1504 37.7327 33.9973C37.7462 33.8442 37.6327 33.7092 37.4792 33.6958C37.3257 33.6824 37.1903 33.7956 37.1768 33.9487C37.1634 34.1018 37.2769 34.2368 37.4304 34.2502Z" fill="url(#paint65_linear_442_584)"/>
<path d="M46.488 28.3537C46.6416 28.3671 46.7769 28.2539 46.7904 28.1008C46.8039 27.9477 46.6903 27.8127 46.5368 27.7993C46.3833 27.7858 46.2479 27.899 46.2345 28.0521C46.221 28.2052 46.3345 28.3402 46.488 28.3537Z" fill="url(#paint66_linear_442_584)"/>
<path d="M45.3618 29.3897C45.5153 29.4032 45.6507 29.29 45.6641 29.1369C45.6776 28.9838 45.5641 28.8488 45.4106 28.8353C45.257 28.8219 45.1217 28.9351 45.1082 29.0882C45.0947 29.2413 45.2083 29.3763 45.3618 29.3897Z" fill="url(#paint67_linear_442_584)"/>
<path d="M44.1978 30.4501C44.3513 30.4635 44.4866 30.3503 44.5001 30.1972C44.5136 30.0441 44.4001 29.9091 44.2465 29.8956C44.093 29.8822 43.9577 29.9954 43.9442 30.1485C43.9307 30.3016 44.0443 30.4366 44.1978 30.4501Z" fill="url(#paint68_linear_442_584)"/>
<path d="M43.0109 31.4138C43.1644 31.4273 43.2997 31.314 43.3132 31.1609C43.3267 31.0078 43.2131 30.8728 43.0596 30.8594C42.9061 30.846 42.7708 30.9592 42.7573 31.1123C42.7438 31.2654 42.8573 31.4004 43.0109 31.4138Z" fill="url(#paint69_linear_442_584)"/>
<path d="M41.9149 32.4173C42.0684 32.4307 42.2038 32.3175 42.2173 32.1644C42.2307 32.0113 42.1172 31.8763 41.9637 31.8628C41.8102 31.8494 41.6748 31.9626 41.6614 32.1157C41.6479 32.2688 41.7614 32.4038 41.9149 32.4173Z" fill="url(#paint70_linear_442_584)"/>
<path d="M40.6911 33.4409C40.8446 33.4543 40.9799 33.3411 40.9934 33.188C41.0069 33.0349 40.8933 32.8999 40.7398 32.8865C40.5863 32.8731 40.451 32.9863 40.4375 33.1394C40.424 33.2925 40.5375 33.4275 40.6911 33.4409Z" fill="url(#paint71_linear_442_584)"/>
<path d="M50.9332 26.5533C51.0867 26.5668 51.2221 26.4536 51.2355 26.3005C51.249 26.1474 51.1355 26.0124 50.982 25.9989C50.8285 25.9855 50.6931 26.0987 50.6796 26.2518C50.6662 26.4049 50.7797 26.5399 50.9332 26.5533Z" fill="url(#paint72_linear_442_584)"/>
<path d="M49.8069 27.5894C49.9605 27.6029 50.0958 27.4896 50.1093 27.3365C50.1228 27.1834 50.0092 27.0484 49.8557 27.035C49.7022 27.0216 49.5668 27.1348 49.5534 27.2879C49.5399 27.441 49.6534 27.576 49.8069 27.5894Z" fill="url(#paint73_linear_442_584)"/>
<path d="M48.6429 28.6497C48.7964 28.6632 48.9318 28.55 48.9453 28.3969C48.9587 28.2438 48.8452 28.1088 48.6917 28.0953C48.5382 28.0819 48.4028 28.1951 48.3894 28.3482C48.3759 28.5013 48.4894 28.6363 48.6429 28.6497Z" fill="url(#paint74_linear_442_584)"/>
<path d="M47.456 29.6135C47.6095 29.6269 47.7449 29.5137 47.7584 29.3606C47.7718 29.2075 47.6583 29.0725 47.5048 29.0591C47.3513 29.0457 47.2159 29.1589 47.2024 29.312C47.189 29.4651 47.3025 29.6001 47.456 29.6135Z" fill="url(#paint75_linear_442_584)"/>
<path d="M46.3599 30.6169C46.5134 30.6304 46.6488 30.5171 46.6622 30.364C46.6757 30.211 46.5622 30.076 46.4087 30.0625C46.2551 30.0491 46.1198 30.1623 46.1063 30.3154C46.0928 30.4685 46.2064 30.6035 46.3599 30.6169Z" fill="url(#paint76_linear_442_584)"/>
<path d="M45.1362 31.6406C45.2897 31.654 45.4251 31.5408 45.4386 31.3877C45.452 31.2346 45.3385 31.0996 45.185 31.0862C45.0315 31.0728 44.8961 31.186 44.8826 31.3391C44.8692 31.4922 44.9827 31.6272 45.1362 31.6406Z" fill="url(#paint77_linear_442_584)"/>
<path d="M47.6736 27.3675C47.8271 27.3809 47.9624 27.2677 47.9759 27.1146C47.9894 26.9615 47.8758 26.8265 47.7223 26.8131C47.5688 26.7996 47.4335 26.9128 47.42 27.0659C47.4065 27.219 47.52 27.354 47.6736 27.3675Z" fill="url(#paint78_linear_442_584)"/>
<path d="M41.2189 28.7693C41.3724 28.7828 41.5078 28.6695 41.5213 28.5164C41.5347 28.3634 41.4212 28.2284 41.2677 28.2149C41.1142 28.2015 40.9788 28.3147 40.9654 28.4678C40.9519 28.6209 41.0654 28.7559 41.2189 28.7693Z" fill="url(#paint79_linear_442_584)"/>
<path d="M44.3709 28.1712C44.5244 28.1846 44.6598 28.0714 44.6733 27.9183C44.6867 27.7652 44.5732 27.6302 44.4197 27.6168C44.2662 27.6033 44.1308 27.7165 44.1174 27.8696C44.1039 28.0227 44.2174 28.1577 44.3709 28.1712Z" fill="url(#paint80_linear_442_584)"/>
<path d="M27.6181 36.7847C27.7716 36.7982 27.907 36.6849 27.9204 36.5318C27.9339 36.3788 27.8204 36.2438 27.6669 36.2303C27.5134 36.2169 27.378 36.3301 27.3645 36.4832C27.3511 36.6363 27.4646 36.7713 27.6181 36.7847Z" fill="url(#paint81_linear_442_584)"/>
<path d="M28.8574 35.7733C29.011 35.7867 29.1463 35.6735 29.1598 35.5204C29.1733 35.3673 29.0597 35.2323 28.9062 35.2189C28.7527 35.2054 28.6173 35.3187 28.6039 35.4718C28.5904 35.6249 28.7039 35.7599 28.8574 35.7733Z" fill="url(#paint82_linear_442_584)"/>
<path d="M29.9337 34.7474C30.0872 34.7609 30.2226 34.6476 30.236 34.4945C30.2495 34.3414 30.136 34.2065 29.9825 34.193C29.8289 34.1796 29.6936 34.2928 29.6801 34.4459C29.6667 34.599 29.7802 34.734 29.9337 34.7474Z" fill="url(#paint83_linear_442_584)"/>
<path d="M31.1849 33.6006C31.3384 33.614 31.4738 33.5008 31.4872 33.3477C31.5007 33.1946 31.3872 33.0596 31.2337 33.0462C31.0801 33.0327 30.9448 33.146 30.9313 33.299C30.9178 33.4521 31.0314 33.5871 31.1849 33.6006Z" fill="url(#paint84_linear_442_584)"/>
<path d="M44.0959 32.5451C44.2494 32.5585 44.3848 32.4453 44.3983 32.2922C44.4117 32.1391 44.2982 32.0041 44.1447 31.9906C43.9912 31.9772 43.8558 32.0904 43.8424 32.2435C43.8289 32.3966 43.9424 32.5316 44.0959 32.5451Z" fill="url(#paint85_linear_442_584)"/>
<path d="M38.1714 29.5937C38.3249 29.6071 38.4603 29.4939 38.4737 29.3408C38.4872 29.1877 38.3737 29.0527 38.2202 29.0393C38.0667 29.0258 37.9313 29.1391 37.9178 29.2922C37.9044 29.4452 38.0179 29.5802 38.1714 29.5937Z" fill="url(#paint86_linear_442_584)"/>
<path d="M53.0067 26.8478C53.1602 26.8613 53.2956 26.748 53.3091 26.5949C53.3225 26.4418 53.209 26.3068 53.0555 26.2934C52.902 26.28 52.7666 26.3932 52.7532 26.5463C52.7397 26.6994 52.8532 26.8344 53.0067 26.8478Z" fill="url(#paint87_linear_442_584)"/>
<path d="M51.8429 27.9081C51.9964 27.9216 52.1318 27.8083 52.1453 27.6553C52.1587 27.5022 52.0452 27.3672 51.8917 27.3537C51.7382 27.3403 51.6028 27.4535 51.5894 27.6066C51.5759 27.7597 51.6894 27.8947 51.8429 27.9081Z" fill="url(#paint88_linear_442_584)"/>
<path d="M50.6558 28.8721C50.8093 28.8855 50.9447 28.7723 50.9582 28.6192C50.9716 28.4661 50.8581 28.3311 50.7046 28.3177C50.5511 28.3043 50.4157 28.4175 50.4022 28.5706C50.3888 28.7237 50.5023 28.8587 50.6558 28.8721Z" fill="url(#paint89_linear_442_584)"/>
<path d="M49.5599 29.8755C49.7134 29.889 49.8488 29.7757 49.8622 29.6226C49.8757 29.4695 49.7622 29.3345 49.6087 29.3211C49.4551 29.3077 49.3198 29.4209 49.3063 29.574C49.2928 29.7271 49.4064 29.8621 49.5599 29.8755Z" fill="url(#paint90_linear_442_584)"/>
<path d="M48.3362 30.899C48.4897 30.9124 48.6251 30.7992 48.6385 30.6461C48.652 30.493 48.5385 30.358 48.385 30.3446C48.2315 30.3311 48.0961 30.4444 48.0826 30.5975C48.0692 30.7506 48.1827 30.8856 48.3362 30.899Z" fill="url(#paint91_linear_442_584)"/>
<path d="M47.2957 31.8035C47.4492 31.8169 47.5846 31.7037 47.5981 31.5506C47.6115 31.3975 47.498 31.2625 47.3445 31.249C47.191 31.2356 47.0556 31.3488 47.0422 31.5019C47.0287 31.655 47.1422 31.79 47.2957 31.8035Z" fill="url(#paint92_linear_442_584)"/>
<path d="M58.5252 39.0387C58.5393 38.9566 58.5875 38.9165 58.6698 38.9165H58.945C58.9872 38.9165 59.0193 38.9225 59.0374 38.9386C59.0575 38.9526 59.0615 38.9866 59.0535 39.0387L58.8365 40.1245C59.1057 40.1405 59.3287 40.1846 59.5074 40.2627C59.6862 40.3388 59.8268 40.439 59.9333 40.5612C60.0397 40.6834 60.114 40.8256 60.1562 40.9859C60.2004 41.1461 60.2225 41.3164 60.2225 41.4927C60.2225 41.8052 60.1763 42.0957 60.0839 42.3681C59.9935 42.6386 59.8589 42.8769 59.6842 43.0793C59.5074 43.2836 59.2905 43.4459 59.0274 43.5661C58.7642 43.6863 58.4649 43.7484 58.1295 43.7524L57.9186 44.8481C57.9105 44.8762 57.8965 44.9022 57.8804 44.9223C57.8623 44.9443 57.8362 44.9543 57.796 44.9543H57.4927C57.4124 44.9543 57.3782 44.9142 57.3923 44.8321L57.6012 43.7524C57.1352 43.7303 56.7857 43.6021 56.5527 43.3717C56.3177 43.1414 56.2012 42.8168 56.2012 42.4002C56.2012 42.1177 56.2393 41.8413 56.3177 41.5768C56.394 41.3104 56.5185 41.072 56.6893 40.8637C56.86 40.6553 57.079 40.4851 57.3461 40.3529C57.6133 40.2206 57.9346 40.1445 58.3083 40.1245L58.5252 39.0387ZM103.417 42.2279C103.36 42.4763 103.292 42.6967 103.212 42.885C103.133 43.0753 103.029 43.2355 102.902 43.3637C102.774 43.4939 102.617 43.5921 102.432 43.6562C102.248 43.7203 102.023 43.7524 101.758 43.7524C101.623 43.7524 101.468 43.7383 101.292 43.7103C101.117 43.6803 100.938 43.6282 100.755 43.552L100.747 43.5581L100.502 44.8181C100.492 44.8662 100.478 44.9022 100.458 44.9223C100.44 44.9443 100.404 44.9543 100.349 44.9543H100.054C100.002 44.9543 99.9698 44.9463 99.9598 44.9263C99.9518 44.9062 99.9518 44.8722 99.9598 44.8181L100.834 40.3048C100.854 40.2246 100.902 40.1826 100.978 40.1826H101.281C101.364 40.1826 101.396 40.2246 101.382 40.3048L101.324 40.5792C101.33 40.5732 101.334 40.5712 101.34 40.5712C101.402 40.5392 101.482 40.4951 101.585 40.443C101.685 40.3889 101.796 40.3388 101.916 40.2908C102.037 40.2427 102.161 40.2026 102.292 40.1686C102.422 40.1345 102.547 40.1185 102.667 40.1185C102.999 40.1185 103.232 40.2026 103.366 40.3709C103.501 40.5392 103.569 40.7876 103.569 41.1181C103.569 41.1902 103.565 41.2743 103.559 41.3665C103.551 41.4607 103.539 41.5588 103.525 41.659C103.511 41.7591 103.495 41.8593 103.475 41.9575C103.457 42.0556 103.437 42.1458 103.417 42.2279ZM102.999 41.1842C103.003 40.9538 102.967 40.8016 102.886 40.7275C102.808 40.6513 102.684 40.6153 102.515 40.6153C102.428 40.6153 102.326 40.6293 102.209 40.6573C102.091 40.6874 101.972 40.7235 101.852 40.7655C101.731 40.8096 101.619 40.8557 101.512 40.9037C101.406 40.9518 101.318 40.9919 101.245 41.0259L100.842 43.0973C101.024 43.1554 101.199 43.1975 101.368 43.2195C101.537 43.2455 101.697 43.2556 101.852 43.2556C101.987 43.2556 102.105 43.2395 102.209 43.2035C102.312 43.1674 102.404 43.1073 102.483 43.0252C102.563 42.9451 102.631 42.8389 102.69 42.7087C102.746 42.5805 102.8 42.4202 102.848 42.2279C102.866 42.1498 102.884 42.0656 102.902 41.9715C102.919 41.8773 102.935 41.7852 102.949 41.691C102.963 41.5969 102.975 41.5067 102.985 41.4166C102.995 41.3284 102.999 41.2503 102.999 41.1842ZM99.3391 43.5661C99.321 43.6482 99.2708 43.6883 99.1885 43.6883H98.8852C98.8028 43.6883 98.7707 43.6482 98.7847 43.5661L99.2106 41.4006C99.2668 41.1021 99.2688 40.8957 99.2126 40.7816C99.1583 40.6654 99.0217 40.6073 98.8048 40.6073C98.7184 40.6073 98.62 40.6233 98.5095 40.6553C98.3991 40.6854 98.2866 40.7235 98.1701 40.7655C98.0556 40.8096 97.9451 40.8557 97.8427 40.9037C97.7382 40.9518 97.6518 40.9919 97.5795 41.0259C97.5795 41.04 97.5755 41.064 97.5715 41.0981C97.5675 41.1301 97.5615 41.1682 97.5534 41.2082C97.5454 41.2503 97.5394 41.2884 97.5353 41.3284C97.5313 41.3665 97.5253 41.3945 97.5213 41.4146L97.1035 43.5661C97.0834 43.6482 97.0332 43.6883 96.9508 43.6883H96.6334C96.5611 43.6883 96.535 43.6482 96.5531 43.5661L96.987 41.3485C97.0312 41.1141 97.0292 40.9318 96.983 40.8016C96.9368 40.6734 96.8042 40.6073 96.5832 40.6073C96.5009 40.6073 96.4085 40.6213 96.308 40.6473C96.2076 40.6734 96.1012 40.7074 95.9907 40.7475C95.8802 40.7896 95.7697 40.8336 95.6593 40.8817C95.5488 40.9298 95.4463 40.9739 95.3559 41.0179L94.8578 43.5661C94.8437 43.6482 94.7955 43.6883 94.7132 43.6883H94.4099C94.3335 43.6883 94.3014 43.6482 94.3175 43.5661L94.9522 40.3048C94.9703 40.2246 95.0185 40.1826 95.0968 40.1826H95.3921C95.4785 40.1826 95.5126 40.2246 95.4925 40.3048L95.4423 40.5572H95.4564C95.5387 40.5091 95.6291 40.459 95.7276 40.4069C95.826 40.3529 95.9304 40.3048 96.0409 40.2627C96.1514 40.2186 96.2659 40.1826 96.3844 40.1545C96.5029 40.1245 96.6194 40.1105 96.7339 40.1105C96.999 40.1105 97.1959 40.1565 97.3224 40.2447C97.451 40.3328 97.5313 40.461 97.5635 40.6293C97.7804 40.4991 98.0074 40.3809 98.2464 40.2727C98.4854 40.1646 98.7265 40.1105 98.9715 40.1105C99.1925 40.1105 99.3652 40.1425 99.4918 40.2046C99.6163 40.2667 99.7047 40.3549 99.7589 40.467C99.8112 40.5792 99.8332 40.7154 99.8272 40.8737C99.8192 41.032 99.7971 41.2082 99.7589 41.4006L99.3391 43.5661ZM93.4658 43.544C93.4457 43.6402 93.3855 43.6883 93.285 43.6883H93.0761C92.9556 43.6883 92.9054 43.6402 92.9235 43.544L93.2127 42.0696H91.415L91.1257 43.544C91.1076 43.6402 91.0474 43.6883 90.9469 43.6883H90.722C90.6115 43.6883 90.5653 43.6402 90.5854 43.544L91.2121 40.3348C91.2221 40.2767 91.2422 40.2367 91.2743 40.2146C91.3065 40.1946 91.3487 40.1826 91.4009 40.1826H91.6239C91.6781 40.1826 91.7143 40.1946 91.7363 40.2146C91.7584 40.2367 91.7645 40.2767 91.7544 40.3348L91.5094 41.5869H93.3051L93.5522 40.3348C93.5602 40.2767 93.5843 40.2367 93.6205 40.2146C93.6566 40.1946 93.7008 40.1826 93.753 40.1826H93.9619C94.0162 40.1826 94.0523 40.1946 94.0744 40.2146C94.0965 40.2367 94.1025 40.2767 94.0925 40.3348L93.4658 43.544ZM87.1566 42.7387C87.1566 42.5805 87.1727 42.4202 87.2068 42.2559C87.241 42.0937 87.2771 41.9354 87.3153 41.7812C87.3494 41.6229 87.4017 41.4466 87.474 41.2523C87.5463 41.058 87.6527 40.8757 87.7954 40.7094C87.938 40.5412 88.1208 40.4009 88.3437 40.2867C88.5687 40.1746 88.8539 40.1185 89.1994 40.1185C89.348 40.1185 89.4907 40.1365 89.6252 40.1726C89.7598 40.2086 89.8783 40.2627 89.9788 40.3348C90.0792 40.4069 90.1595 40.4951 90.2178 40.6013C90.274 40.7054 90.3042 40.8276 90.3042 40.9679C90.3042 41.1682 90.26 41.3445 90.1736 41.4927C90.0892 41.6409 89.9748 41.7692 89.8362 41.8753C89.6955 41.9795 89.5369 42.0656 89.3561 42.1337C89.1773 42.1998 88.9945 42.2539 88.8077 42.292C88.6189 42.3301 88.4341 42.3581 88.2533 42.3741C88.0705 42.3922 87.9099 42.4002 87.7713 42.4002C87.7411 42.5284 87.7271 42.6446 87.7271 42.7507C87.7271 42.879 87.7532 42.9771 87.8034 43.0452C87.8536 43.1153 87.9179 43.1634 87.9962 43.1915C88.0766 43.2195 88.1649 43.2375 88.2614 43.2415C88.3618 43.2476 88.4582 43.2495 88.5526 43.2495C88.6109 43.2495 88.6812 43.2476 88.7655 43.2415C88.8499 43.2375 88.9363 43.2315 89.0287 43.2235C89.1191 43.2175 89.2115 43.2095 89.3059 43.2035C89.3983 43.1955 89.4826 43.1875 89.5529 43.1774C89.5971 43.1734 89.6313 43.1754 89.6574 43.1855C89.6835 43.1935 89.6976 43.2235 89.6976 43.2716V43.4238C89.6976 43.4919 89.6614 43.544 89.5891 43.5781C89.5027 43.6121 89.4083 43.6402 89.3079 43.6622C89.2074 43.6843 89.101 43.7003 88.9945 43.7143C88.8861 43.7263 88.7776 43.7343 88.6731 43.7383C88.5667 43.7444 88.4662 43.7464 88.3698 43.7464C88.181 43.7464 88.0143 43.7303 87.8637 43.7003C87.715 43.6682 87.5865 43.6141 87.482 43.538C87.3755 43.4599 87.2952 43.3577 87.239 43.2275C87.1847 43.0973 87.1566 42.935 87.1566 42.7387ZM89.7478 41.058C89.7478 40.8977 89.6895 40.7816 89.571 40.7154C89.4525 40.6493 89.3119 40.6153 89.1492 40.6153C88.9182 40.6153 88.7294 40.6513 88.5868 40.7255C88.4421 40.7996 88.3236 40.8917 88.2312 41.0019C88.1408 41.1121 88.0726 41.2263 88.0304 41.3485C87.9862 41.4707 87.95 41.5768 87.9219 41.667L87.8496 41.9474C87.946 41.9474 88.0605 41.9414 88.1931 41.9294C88.3256 41.9174 88.4602 41.8994 88.6008 41.8753C88.7394 41.8513 88.878 41.8192 89.0146 41.7792C89.1532 41.7371 89.2757 41.683 89.3842 41.6169C89.4907 41.5508 89.579 41.4707 89.6473 41.3825C89.7136 41.2904 89.7478 41.1822 89.7478 41.058ZM86.082 43.7103C86.0137 43.6803 85.9373 43.6282 85.855 43.552C85.7706 43.4739 85.7184 43.3738 85.6983 43.2495H85.6782C85.6099 43.2876 85.5195 43.3357 85.403 43.3938C85.2885 43.4519 85.162 43.508 85.0234 43.5621C84.8868 43.6181 84.7462 43.6642 84.6016 43.7023C84.457 43.7403 84.3224 43.7604 84.1978 43.7604C83.9628 43.7604 83.7801 43.7263 83.6535 43.6602C83.525 43.5921 83.4366 43.5 83.3864 43.3818C83.3361 43.2656 83.314 43.1254 83.3241 42.9611C83.3341 42.7988 83.3582 42.6205 83.3964 42.4282L83.8082 40.3048C83.8283 40.2246 83.8785 40.1826 83.9588 40.1826H84.2621C84.3445 40.1826 84.3786 40.2246 84.3646 40.3048L83.9448 42.4362C83.9106 42.6045 83.8945 42.7407 83.8945 42.8469C83.8945 42.9511 83.9106 43.0352 83.9448 43.0973C83.9789 43.1614 84.0311 43.2035 84.1014 43.2275C84.1697 43.2516 84.2621 43.2636 84.3786 43.2636C84.465 43.2636 84.5695 43.2476 84.692 43.2135C84.8145 43.1794 84.937 43.1414 85.0596 43.0973C85.1821 43.0552 85.3006 43.0092 85.4111 42.9611C85.5216 42.913 85.6059 42.8749 85.6622 42.8469L86.1603 40.3048C86.1804 40.2246 86.2306 40.1826 86.313 40.1826H86.6082C86.6906 40.1826 86.7207 40.2246 86.7026 40.3048L86.1965 42.8749C86.1724 43.0052 86.1824 43.1013 86.2266 43.1634C86.2688 43.2255 86.323 43.2776 86.3853 43.3217C86.4475 43.3637 86.5018 43.4098 86.55 43.4539C86.5982 43.5 86.6123 43.5701 86.5942 43.6662L86.3993 44.5096C86.3893 44.5717 86.3732 44.6118 86.3531 44.6318C86.331 44.6498 86.3049 44.6598 86.2768 44.6598H86.088C86.0498 44.6598 86.0197 44.6498 85.9976 44.6318C85.9775 44.6118 85.9735 44.5717 85.9876 44.5096L86.082 43.7103ZM82.9284 41.4787C82.9123 41.5368 82.8721 41.5648 82.8059 41.5648H80.8494C80.7771 41.5648 80.749 41.5368 80.763 41.4787L80.8193 41.1842C80.8293 41.1441 80.8434 41.1201 80.8595 41.1081C80.8775 41.0961 80.9037 41.09 80.9418 41.09H82.8982C82.9324 41.09 82.9585 41.0961 82.9746 41.1081C82.9906 41.1201 82.9947 41.1441 82.9846 41.1842L82.9284 41.4787ZM80.524 40.5932C80.51 40.6313 80.4858 40.6553 80.4517 40.6614C80.4176 40.6694 80.3754 40.6694 80.3232 40.6654C80.1785 40.6513 80.0178 40.6353 79.8431 40.6193C79.6663 40.6013 79.5117 40.5932 79.3771 40.5932C79.2124 40.5932 79.0718 40.6153 78.9552 40.6573C78.8367 40.7014 78.7343 40.7735 78.6479 40.8737C78.5616 40.9739 78.4872 41.1081 78.427 41.2743C78.3667 41.4426 78.3125 41.651 78.2643 41.8994C78.2422 42.0396 78.2221 42.1638 78.208 42.276C78.194 42.3882 78.1859 42.4943 78.1859 42.5885C78.1819 42.8369 78.2321 43.0112 78.3406 43.1053C78.4491 43.2015 78.6218 43.2495 78.8568 43.2495C78.9151 43.2495 78.9854 43.2476 79.0697 43.2415C79.1541 43.2375 79.2425 43.2315 79.3369 43.2235C79.4313 43.2175 79.5237 43.2095 79.6141 43.2035C79.7065 43.1955 79.7888 43.1875 79.8612 43.1774C79.9033 43.1734 79.9375 43.1754 79.9656 43.1855C79.9917 43.1935 80.0038 43.2235 80.0038 43.2716V43.4238C80.0038 43.4919 79.9676 43.544 79.8953 43.5781C79.7467 43.6422 79.5679 43.6843 79.359 43.7103C79.1501 43.7343 78.9532 43.7464 78.7705 43.7464C78.5294 43.7464 78.3346 43.7163 78.1819 43.6562C78.0313 43.5961 77.9108 43.518 77.8204 43.4218C77.732 43.3257 77.6717 43.2155 77.6376 43.0913C77.6034 42.9671 77.5874 42.8389 77.5874 42.7087C77.5874 42.5885 77.5974 42.4543 77.6155 42.302C77.6356 42.1518 77.6597 42.0035 77.6878 41.8593C77.732 41.6289 77.7862 41.4086 77.8505 41.1982C77.9148 40.9879 78.0112 40.8016 78.1357 40.6393C78.2603 40.4791 78.425 40.3508 78.6258 40.2547C78.8287 40.1585 79.0918 40.1105 79.4193 40.1105C79.4916 40.1105 79.5799 40.1125 79.6804 40.1185C79.7808 40.1225 79.8833 40.1305 79.9857 40.1425C80.0901 40.1565 80.1906 40.1726 80.289 40.1946C80.3874 40.2146 80.4738 40.2427 80.5461 40.2767C80.5803 40.2908 80.5983 40.3128 80.6003 40.3408C80.6024 40.3709 80.5983 40.3989 80.5883 40.427L80.524 40.5932ZM74.0581 42.7387C74.0581 42.5805 74.0742 42.4202 74.1084 42.2559C74.1425 42.0937 74.1787 41.9354 74.2168 41.7812C74.249 41.6229 74.3032 41.4466 74.3755 41.2523C74.4478 41.058 74.5543 40.8757 74.6969 40.7094C74.8375 40.5412 75.0203 40.4009 75.2453 40.2867C75.4682 40.1746 75.7535 40.1185 76.101 40.1185C76.2496 40.1185 76.3902 40.1365 76.5268 40.1726C76.6614 40.2086 76.7779 40.2627 76.8803 40.3348C76.9807 40.4069 77.0591 40.4951 77.1173 40.6013C77.1756 40.7054 77.2037 40.8276 77.2037 40.9679C77.2037 41.1682 77.1615 41.3445 77.0752 41.4927C76.9888 41.6409 76.8763 41.7692 76.7357 41.8753C76.5971 41.9795 76.4384 42.0656 76.2576 42.1337C76.0789 42.1998 75.8941 42.2539 75.7072 42.292C75.5204 42.3301 75.3356 42.3581 75.1529 42.3741C74.9701 42.3922 74.8114 42.4002 74.6708 42.4002C74.6427 42.5284 74.6266 42.6446 74.6266 42.7507C74.6266 42.879 74.6527 42.9771 74.7029 43.0452C74.7531 43.1153 74.8174 43.1634 74.8978 43.1915C74.9761 43.2195 75.0665 43.2375 75.1629 43.2415C75.2613 43.2476 75.3598 43.2495 75.4542 43.2495C75.5124 43.2495 75.5827 43.2476 75.6671 43.2415C75.7514 43.2375 75.8378 43.2315 75.9302 43.2235C76.0206 43.2175 76.113 43.2095 76.2054 43.2035C76.2998 43.1955 76.3822 43.1875 76.4545 43.1774C76.4967 43.1734 76.5328 43.1754 76.5589 43.1855C76.585 43.1935 76.5971 43.2235 76.5971 43.2716V43.4238C76.5971 43.4919 76.5609 43.544 76.4906 43.5781C76.4022 43.6121 76.3098 43.6402 76.2074 43.6622C76.107 43.6843 76.0025 43.7003 75.8941 43.7143C75.7856 43.7263 75.6791 43.7343 75.5727 43.7383C75.4682 43.7444 75.3658 43.7464 75.2694 43.7464C75.0826 43.7464 74.9138 43.7303 74.7652 43.7003C74.6145 43.6682 74.488 43.6141 74.3815 43.538C74.2771 43.4599 74.1967 43.3577 74.1405 43.2275C74.0843 43.0973 74.0581 42.935 74.0581 42.7387ZM76.6493 41.058C76.6493 40.8977 76.5891 40.7816 76.4726 40.7154C76.354 40.6493 76.2134 40.6153 76.0487 40.6153C75.8177 40.6153 75.6309 40.6513 75.4863 40.7255C75.3417 40.7996 75.2252 40.8917 75.1328 41.0019C75.0424 41.1121 74.9741 41.2263 74.9299 41.3485C74.8877 41.4707 74.8516 41.5768 74.8234 41.667L74.7511 41.9474C74.8475 41.9474 74.96 41.9414 75.0926 41.9294C75.2252 41.9174 75.3618 41.8994 75.5004 41.8753C75.641 41.8513 75.7796 41.8192 75.9162 41.7792C76.0527 41.7371 76.1753 41.683 76.2837 41.6169C76.3922 41.5508 76.4806 41.4707 76.5469 41.3825C76.6152 41.2904 76.6493 41.1822 76.6493 41.058ZM73.0839 43.544C73.0639 43.6402 73.0036 43.6883 72.9032 43.6883H72.6943C72.5737 43.6883 72.5235 43.6402 72.5416 43.544L72.8309 42.0696H71.0331L70.7439 43.544C70.7258 43.6402 70.6655 43.6883 70.5651 43.6883H70.3401C70.2296 43.6883 70.1834 43.6402 70.2035 43.544L70.8322 40.3348C70.8403 40.2767 70.8624 40.2367 70.8925 40.2146C70.9246 40.1946 70.9668 40.1826 71.019 40.1826H71.242C71.2962 40.1826 71.3324 40.1946 71.3545 40.2146C71.3766 40.2367 71.3826 40.2767 71.3726 40.3348L71.1275 41.5869H72.9253L73.1703 40.3348C73.1804 40.2767 73.2025 40.2367 73.2386 40.2146C73.2748 40.1946 73.319 40.1826 73.3712 40.1826H73.5801C73.6343 40.1826 73.6705 40.1946 73.6926 40.2146C73.7147 40.2367 73.7207 40.2767 73.7106 40.3348L73.0839 43.544ZM69.3378 43.5661C69.3177 43.6482 69.2675 43.6883 69.1851 43.6883H68.8818C68.8015 43.6883 68.7673 43.6482 68.7814 43.5661L69.2072 41.4006C69.2655 41.1021 69.2655 40.8957 69.2113 40.7816C69.155 40.6654 69.0204 40.6073 68.8035 40.6073C68.7171 40.6073 68.6187 40.6233 68.5082 40.6553C68.3957 40.6854 68.2832 40.7235 68.1688 40.7655C68.0523 40.8096 67.9438 40.8557 67.8393 40.9037C67.7369 40.9518 67.6485 40.9919 67.5762 41.0259C67.5762 41.04 67.5742 41.064 67.5682 41.0981C67.5642 41.1301 67.5581 41.1682 67.5521 41.2082C67.5441 41.2503 67.538 41.2884 67.532 41.3284C67.528 41.3665 67.524 41.3945 67.518 41.4146L67.1002 43.5661C67.0801 43.6482 67.0298 43.6883 66.9475 43.6883H66.6301C66.5578 43.6883 66.5317 43.6482 66.5518 43.5661L66.9836 41.3485C67.0278 41.1141 67.0258 40.9318 66.9816 40.8016C66.9354 40.6734 66.8009 40.6073 66.5799 40.6073C66.4996 40.6073 66.4072 40.6213 66.3067 40.6473C66.2043 40.6734 66.0998 40.7074 65.9894 40.7475C65.8789 40.7896 65.7664 40.8336 65.6559 40.8817C65.5454 40.9298 65.445 40.9739 65.3526 41.0179L64.8545 43.5661C64.8404 43.6482 64.7922 43.6883 64.7119 43.6883H64.4085C64.3302 43.6883 64.3001 43.6482 64.3141 43.5661L64.9489 40.3048C64.969 40.2246 65.0172 40.1826 65.0935 40.1826H65.3888C65.4751 40.1826 65.5093 40.2246 65.4912 40.3048L65.439 40.5572H65.4551C65.5354 40.5091 65.6258 40.459 65.7242 40.4069C65.8247 40.3529 65.9291 40.3048 66.0396 40.2627C66.1501 40.2186 66.2645 40.1826 66.3811 40.1545C66.4996 40.1245 66.6161 40.1105 66.7326 40.1105C66.9957 40.1105 67.1925 40.1565 67.3191 40.2447C67.4476 40.3328 67.528 40.461 67.5621 40.6293C67.7791 40.4991 68.0061 40.3809 68.2431 40.2727C68.4821 40.1646 68.7231 40.1105 68.9702 40.1105C69.1912 40.1105 69.3639 40.1425 69.4884 40.2046C69.613 40.2667 69.7034 40.3549 69.7556 40.467C69.8098 40.5792 69.8319 40.7154 69.8239 40.8737C69.8179 41.032 69.7938 41.2082 69.7556 41.4006L69.3378 43.5661ZM63.5047 43.5661C63.4906 43.6482 63.4424 43.6883 63.362 43.6883H63.0648C62.9784 43.6883 62.9442 43.6482 62.9643 43.5661L63.0145 43.2996C63.0145 43.2956 63.0105 43.2976 63.0005 43.3076C62.9322 43.3457 62.8478 43.3898 62.7434 43.4439C62.6409 43.4959 62.5284 43.546 62.4059 43.5921C62.2814 43.6362 62.1548 43.6762 62.0223 43.7103C61.8897 43.7444 61.7611 43.7604 61.6366 43.7604C61.4016 43.7604 61.2188 43.7263 61.0923 43.6602C60.9637 43.5921 60.8753 43.5 60.8251 43.3818C60.7749 43.2656 60.7528 43.1254 60.7628 42.9611C60.7729 42.7988 60.797 42.6205 60.8351 42.4282L61.2469 40.3048C61.267 40.2246 61.3172 40.1826 61.3976 40.1826H61.7009C61.7832 40.1826 61.8174 40.2246 61.8033 40.3048L61.3835 42.4362C61.3494 42.6045 61.3333 42.7407 61.3333 42.8469C61.3333 42.9511 61.3494 43.0352 61.3835 43.0973C61.4177 43.1614 61.4699 43.2035 61.5382 43.2275C61.6085 43.2516 61.7009 43.2636 61.8174 43.2636C61.9038 43.2636 62.0082 43.2476 62.1307 43.2135C62.2533 43.1794 62.3758 43.1414 62.4983 43.0973C62.6208 43.0552 62.7373 43.0092 62.8498 42.9611C62.9603 42.913 63.0447 42.8749 63.1009 42.8469L63.5991 40.3048C63.6191 40.2246 63.6694 40.1826 63.7517 40.1826H64.047C64.1293 40.1826 64.1595 40.2246 64.1414 40.3048L63.5047 43.5661ZM58.2159 40.6213C57.9547 40.6213 57.7338 40.6754 57.547 40.7836C57.3622 40.8917 57.2115 41.03 57.093 41.1982C56.9745 41.3665 56.8881 41.5528 56.8339 41.7551C56.7777 41.9595 56.7495 42.1578 56.7495 42.3501C56.7495 42.931 57.0649 43.2375 57.6956 43.2716L58.2159 40.6213ZM58.2219 43.2716C58.4629 43.2656 58.6738 43.2175 58.8546 43.1233C59.0354 43.0292 59.186 42.903 59.3086 42.7447C59.4311 42.5865 59.5235 42.4042 59.5838 42.1938C59.644 41.9855 59.6741 41.7672 59.6741 41.5368C59.6741 41.4066 59.6581 41.2864 59.63 41.1762C59.6018 41.066 59.5516 40.9699 59.4813 40.8877C59.413 40.8076 59.3166 40.7415 59.1961 40.6934C59.0776 40.6453 58.9249 40.6213 58.7421 40.6213L58.2219 43.2716Z" fill="url(#paint93_linear_442_584)"/>
<path fill-rule="evenodd" clip-rule="evenodd" d="M118.506 20.5588H126.994L126.446 21.939C126.084 22.8485 125.395 23.5596 124.451 23.6297L120.287 23.9402C120.173 23.9402 120.093 23.9923 120.058 24.0584C120.022 24.1285 120.038 24.2147 120.125 24.2708L124.562 27.496C125.667 28.3374 125.5 30.2665 124.63 31.2841C123.76 32.3038 123.009 32.4961 122.123 32.4881H113.125L113.699 31.0498C114.061 30.1403 114.752 29.4091 115.692 29.359L120.297 29.1086C120.398 29.1086 120.506 29.0445 120.524 28.9383C120.54 28.8522 120.488 28.8021 120.432 28.7601L116.067 25.5529C114.97 24.6955 114.922 23.0228 115.999 21.7627C116.672 20.9734 117.62 20.5527 118.506 20.5588ZM62.657 28.2392L61.9058 32.4881H58.7281C58.6116 32.4881 58.5332 32.3939 58.5533 32.2778L60.1422 23.2892C60.4073 21.7887 61.8575 20.5588 63.362 20.5588C65.907 20.5588 68.452 20.5588 70.9949 20.5588L70.324 22.2495C69.9625 23.159 69.2635 23.9402 68.3294 23.9402C66.6924 23.9402 65.0553 23.9402 63.4163 23.9402L63.1672 25.3525C66.7747 25.3525 65.7744 25.3525 69.382 25.3525L68.9059 26.5505C68.5444 27.4579 67.8454 28.2392 66.9113 28.2392C64.3061 28.2392 65.2622 28.2392 62.657 28.2392ZM78.8608 32.4881H81.8276C81.9441 32.4881 82.0566 32.3939 82.0767 32.2778L83.5511 23.9402H85.5898C86.5239 23.9402 87.2229 23.159 87.5844 22.2495L88.2573 20.5588C84.7201 20.5588 81.1849 20.5588 77.6496 20.5588C77.5331 20.5588 77.4206 20.6549 77.3985 20.7711L76.8763 23.7299C76.8562 23.8461 76.9345 23.9402 77.051 23.9402H82.5829C82.613 23.9402 82.6371 23.9623 82.6391 23.9903C82.6431 24.0184 82.6251 24.0464 82.5969 24.0524L80.4417 24.5492C80.2006 24.6053 80.0078 24.8056 79.9656 25.042L78.6861 32.2778C78.666 32.3939 78.7443 32.4881 78.8608 32.4881ZM70.4506 32.2778C70.4285 32.3939 70.5068 32.4881 70.6233 32.4881H73.5901C73.7066 32.4881 73.8191 32.3939 73.8392 32.2778L75.9483 20.3544L74.1867 20.727C73.2406 20.9274 72.3568 21.4863 72.1921 22.4178L70.4506 32.2778ZM109.848 24.6414L110.18 23.9402H105.451L105.068 26.0396L109.396 25.04C109.605 24.9919 109.756 24.8357 109.848 24.6414ZM104.634 28.5738L104.477 29.357H109.971C110.897 29.357 111.327 30.1383 111.367 31.0478L111.429 32.4881C108.886 32.4881 105.833 32.4881 103.288 32.4881C101.784 32.4881 100.767 31.2601 101.034 29.7577C101.414 27.6022 101.796 25.4467 102.177 23.2892C102.442 21.7887 103.893 20.5588 105.397 20.5588H113.743C113.976 20.5588 114.157 20.7511 114.091 20.9814L112.663 26.0336C112.464 26.7909 111.889 27.474 110.811 27.6362L104.634 28.5738ZM131.182 20.5588H139.671L139.121 21.939C138.759 22.8485 138.07 23.5596 137.128 23.6297L132.964 23.9402C132.85 23.9402 132.767 23.9923 132.733 24.0584C132.697 24.1285 132.713 24.2147 132.801 24.2708L137.238 27.496C138.341 28.3374 138.177 30.2665 137.307 31.2841C136.437 32.3038 135.684 32.4961 134.798 32.4881H125.801L126.374 31.0498C126.735 30.1403 127.426 29.4091 128.368 29.359L132.974 29.1086C133.075 29.1086 133.181 29.0445 133.201 28.9383C133.215 28.8522 133.163 28.8021 133.109 28.7601L128.742 25.5529C127.647 24.6955 127.599 23.0228 128.674 21.7627C129.346 20.9734 130.297 20.5527 131.182 20.5588ZM92.7146 20.5588L95.5488 26.4523L95.5608 26.4784L95.6733 26.7107L95.7115 26.7869L96.541 28.5056C96.5531 28.5317 96.5832 28.5437 96.6093 28.5357C96.6375 28.5257 96.6535 28.4996 96.6475 28.4716L96.2096 26.0857L96.8584 22.4178C97.0231 21.4863 97.9049 20.9274 98.851 20.727L100.613 20.3544L98.4674 32.4881H96.6696C95.0265 32.4881 94.5244 31.8551 94.1548 31.0738L92.0517 26.6386L91.6138 25.7331H91.6118L91.1819 24.8437C91.1699 24.8177 91.1418 24.8056 91.1137 24.8137C91.0855 24.8237 91.0695 24.8517 91.0755 24.8778L91.5174 27.2837L91.5254 27.2797L90.6416 32.2778C90.6215 32.3939 90.5091 32.4881 90.3926 32.4881H87.2148L89.2858 20.7711C89.3079 20.6549 89.4184 20.5588 89.5349 20.5588H92.7146Z" fill="url(#paint94_linear_442_584)"/>
<path fill-rule="evenodd" clip-rule="evenodd" d="M73.2547 16.414C73.2346 16.5302 73.3129 16.6264 73.4294 16.6264H76.3942C76.5107 16.6264 76.6232 16.5302 76.6453 16.414L78.7524 4.49271L76.9908 4.86531C76.0447 5.06564 75.1629 5.62454 74.9982 6.55405L73.2547 16.414ZM64.6375 13.2449H70.2196C71.1536 13.2449 71.5754 14.0262 71.6156 14.9356L71.6919 16.6264H63.1772C61.6707 16.6264 60.6564 15.3964 60.9215 13.896L62.0665 7.42747C62.3316 5.92503 63.7798 4.69704 65.2863 4.69704H73.801L73.1281 6.38778C72.7666 7.29525 72.0676 8.07652 71.1335 8.07652H65.3406L64.4648 13.0346C64.4427 13.1507 64.521 13.2449 64.6375 13.2449ZM121.621 4.69704H130.11L129.561 6.07728C129.2 6.98675 128.511 7.6979 127.567 7.76802L123.403 8.07652C123.29 8.07652 123.208 8.13061 123.174 8.19671C123.138 8.26683 123.154 8.35096 123.24 8.40705L127.677 11.6323C128.782 12.4757 128.615 14.4028 127.746 15.4224C126.876 16.4421 126.125 16.6324 125.239 16.6264H116.242L116.814 15.186C117.176 14.2766 117.867 13.5474 118.807 13.4953L123.413 13.2449C123.515 13.2449 123.622 13.1808 123.64 13.0766C123.656 12.9905 123.604 12.9404 123.549 12.8963L119.183 9.68913C118.054 8.88783 118.038 7.16103 119.114 5.90099C119.787 5.11171 120.735 4.68903 121.621 4.69704ZM111.968 13.2449L113.159 6.50597C113.323 5.57446 114.205 5.01556 115.153 4.81523L116.913 4.44263L115.242 13.896C114.977 15.3964 113.528 16.6264 112.022 16.6264H105.99C104.485 16.6264 103.471 15.3964 103.736 13.896C104.248 10.9993 104.76 8.10056 105.273 5.20386C105.323 4.92341 105.59 4.69704 105.871 4.69704H108.243C108.529 4.69704 108.712 4.92942 108.663 5.20386C108.189 7.88421 107.715 10.5646 107.241 13.2449H111.968ZM98.9896 9.18832L99.3933 8.07652H94.667L94.209 10.5866L98.5377 9.58697C98.7466 9.53889 98.9173 9.38865 98.9896 9.18832ZM93.8475 12.71L93.1545 16.6264H89.9768C89.8603 16.6264 89.7819 16.5302 89.802 16.414L91.3909 7.42747C91.658 5.92503 93.1063 4.69704 94.6107 4.69704H102.957C103.19 4.69704 103.37 4.88735 103.306 5.11973L101.876 10.1699C101.677 10.9271 101.105 11.6102 100.024 11.7745L98.2826 12.0389L102.005 16.2618C102.057 16.3219 102.061 16.41 102.015 16.4922C101.966 16.5743 101.882 16.6264 101.794 16.6264H98.612C97.927 16.6264 97.3124 16.4641 96.9348 15.9633L94.4219 12.6239L93.8475 12.71ZM81.6649 16.6264H84.6317C84.7482 16.6264 84.8607 16.5302 84.8808 16.414L86.3551 8.07652H88.396C89.328 8.07652 90.027 7.29525 90.3885 6.38778L91.0614 4.69704C87.5262 4.69704 83.9889 4.69704 80.4537 4.69704C80.3372 4.69704 80.2247 4.79119 80.2046 4.90738L79.6804 7.86618C79.6603 7.98237 79.7386 8.07652 79.8551 8.07652H85.389C85.4171 8.07652 85.4412 8.09855 85.4452 8.1266C85.4492 8.15665 85.4292 8.18269 85.401 8.1887L83.2478 8.68551C83.0067 8.7416 82.8119 8.94192 82.7717 9.18031L81.4922 16.414C81.4701 16.5302 81.5484 16.6264 81.6649 16.6264Z" fill="url(#paint95_linear_442_584)"/>
<defs>
<linearGradient id="paint0_linear_442_584" x1="19.7467" y1="32.3499" x2="58.3711" y2="17.6496" gradientUnits="userSpaceOnUse">
<stop stop-color="#F75B2D"/>
<stop offset="1" stop-color="#FABC2A"/>
</linearGradient>
<linearGradient id="paint1_linear_442_584" x1="19.7467" y1="32.3499" x2="58.3711" y2="17.6496" gradientUnits="userSpaceOnUse">
<stop stop-color="#F75B2D"/>
<stop offset="1" stop-color="#FABC2A"/>
</linearGradient>
<linearGradient id="paint2_linear_442_584" x1="19.7467" y1="32.3499" x2="58.3711" y2="17.6496" gradientUnits="userSpaceOnUse">
<stop stop-color="#F75B2D"/>
<stop offset="1" stop-color="#FABC2A"/>
</linearGradient>
<linearGradient id="paint3_linear_442_584" x1="19.7467" y1="32.3499" x2="58.3711" y2="17.6496" gradientUnits="userSpaceOnUse">
<stop stop-color="#F75B2D"/>
<stop offset="1" stop-color="#FABC2A"/>
</linearGradient>
<linearGradient id="paint4_linear_442_584" x1="19.7467" y1="32.3499" x2="58.3711" y2="17.6496" gradientUnits="userSpaceOnUse">
<stop stop-color="#F75B2D"/>
<stop offset="1" stop-color="#FABC2A"/>
</linearGradient>
<linearGradient id="paint5_linear_442_584" x1="19.7467" y1="32.3499" x2="58.3711" y2="17.6496" gradientUnits="userSpaceOnUse">
<stop stop-color="#F75B2D"/>
<stop offset="1" stop-color="#FABC2A"/>
</linearGradient>
<linearGradient id="paint6_linear_442_584" x1="19.7467" y1="32.3499" x2="58.3711" y2="17.6496" gradientUnits="userSpaceOnUse">
<stop stop-color="#F75B2D"/>
<stop offset="1" stop-color="#FABC2A"/>
</linearGradient>
<linearGradient id="paint7_linear_442_584" x1="19.7467" y1="32.3499" x2="58.3711" y2="17.6496" gradientUnits="userSpaceOnUse">
<stop stop-color="#F75B2D"/>
<stop offset="1" stop-color="#FABC2A"/>
</linearGradient>
<linearGradient id="paint8_linear_442_584" x1="19.7467" y1="32.3499" x2="58.3711" y2="17.6496" gradientUnits="userSpaceOnUse">
<stop stop-color="#F75B2D"/>
<stop offset="1" stop-color="#FABC2A"/>
</linearGradient>
<linearGradient id="paint9_linear_442_584" x1="19.7467" y1="32.3499" x2="58.3711" y2="17.6496" gradientUnits="userSpaceOnUse">
<stop stop-color="#F75B2D"/>
<stop offset="1" stop-color="#FABC2A"/>
</linearGradient>
<linearGradient id="paint10_linear_442_584" x1="19.7467" y1="32.3499" x2="58.3711" y2="17.6496" gradientUnits="userSpaceOnUse">
<stop stop-color="#F75B2D"/>
<stop offset="1" stop-color="#FABC2A"/>
</linearGradient>
<linearGradient id="paint11_linear_442_584" x1="19.7467" y1="32.3499" x2="58.3711" y2="17.6496" gradientUnits="userSpaceOnUse">
<stop stop-color="#F75B2D"/>
<stop offset="1" stop-color="#FABC2A"/>
</linearGradient>
<linearGradient id="paint12_linear_442_584" x1="19.7467" y1="32.3499" x2="58.3711" y2="17.6496" gradientUnits="userSpaceOnUse">
<stop stop-color="#F75B2D"/>
<stop offset="1" stop-color="#FABC2A"/>
</linearGradient>
<linearGradient id="paint13_linear_442_584" x1="19.7467" y1="32.3499" x2="58.3711" y2="17.6496" gradientUnits="userSpaceOnUse">
<stop stop-color="#F75B2D"/>
<stop offset="1" stop-color="#FABC2A"/>
</linearGradient>
<linearGradient id="paint14_linear_442_584" x1="19.7467" y1="32.3499" x2="58.3711" y2="17.6496" gradientUnits="userSpaceOnUse">
<stop stop-color="#F75B2D"/>
<stop offset="1" stop-color="#FABC2A"/>
</linearGradient>
<linearGradient id="paint15_linear_442_584" x1="19.7467" y1="32.3499" x2="58.3711" y2="17.6496" gradientUnits="userSpaceOnUse">
<stop stop-color="#F75B2D"/>
<stop offset="1" stop-color="#FABC2A"/>
</linearGradient>
<linearGradient id="paint16_linear_442_584" x1="19.7467" y1="32.3499" x2="58.3711" y2="17.6496" gradientUnits="userSpaceOnUse">
<stop stop-color="#F75B2D"/>
<stop offset="1" stop-color="#FABC2A"/>
</linearGradient>
<linearGradient id="paint17_linear_442_584" x1="19.7467" y1="32.3499" x2="58.3711" y2="17.6496" gradientUnits="userSpaceOnUse">
<stop stop-color="#F75B2D"/>
<stop offset="1" stop-color="#FABC2A"/>
</linearGradient>
<linearGradient id="paint18_linear_442_584" x1="19.7467" y1="32.3499" x2="58.3711" y2="17.6496" gradientUnits="userSpaceOnUse">
<stop stop-color="#F75B2D"/>
<stop offset="1" stop-color="#FABC2A"/>
</linearGradient>
<linearGradient id="paint19_linear_442_584" x1="19.7467" y1="32.3499" x2="58.3711" y2="17.6496" gradientUnits="userSpaceOnUse">
<stop stop-color="#F75B2D"/>
<stop offset="1" stop-color="#FABC2A"/>
</linearGradient>
<linearGradient id="paint20_linear_442_584" x1="19.7467" y1="32.3499" x2="58.3711" y2="17.6496" gradientUnits="userSpaceOnUse">
<stop stop-color="#F75B2D"/>
<stop offset="1" stop-color="#FABC2A"/>
</linearGradient>
<linearGradient id="paint21_linear_442_584" x1="19.7467" y1="32.3499" x2="58.3711" y2="17.6496" gradientUnits="userSpaceOnUse">
<stop stop-color="#F75B2D"/>
<stop offset="1" stop-color="#FABC2A"/>
</linearGradient>
<linearGradient id="paint22_linear_442_584" x1="19.7467" y1="32.3499" x2="58.3711" y2="17.6496" gradientUnits="userSpaceOnUse">
<stop stop-color="#F75B2D"/>
<stop offset="1" stop-color="#FABC2A"/>
</linearGradient>
<linearGradient id="paint23_linear_442_584" x1="19.7467" y1="32.3499" x2="58.3711" y2="17.6496" gradientUnits="userSpaceOnUse">
<stop stop-color="#F75B2D"/>
<stop offset="1" stop-color="#FABC2A"/>
</linearGradient>
<linearGradient id="paint24_linear_442_584" x1="19.7467" y1="32.3499" x2="58.3711" y2="17.6496" gradientUnits="userSpaceOnUse">
<stop stop-color="#F75B2D"/>
<stop offset="1" stop-color="#FABC2A"/>
</linearGradient>
<linearGradient id="paint25_linear_442_584" x1="19.7467" y1="32.3499" x2="58.3711" y2="17.6496" gradientUnits="userSpaceOnUse">
<stop stop-color="#F75B2D"/>
<stop offset="1" stop-color="#FABC2A"/>
</linearGradient>
<linearGradient id="paint26_linear_442_584" x1="19.7467" y1="32.3499" x2="58.3711" y2="17.6496" gradientUnits="userSpaceOnUse">
<stop stop-color="#F75B2D"/>
<stop offset="1" stop-color="#FABC2A"/>
</linearGradient>
<linearGradient id="paint27_linear_442_584" x1="19.7467" y1="32.3499" x2="58.3711" y2="17.6496" gradientUnits="userSpaceOnUse">
<stop stop-color="#F75B2D"/>
<stop offset="1" stop-color="#FABC2A"/>
</linearGradient>
<linearGradient id="paint28_linear_442_584" x1="19.7467" y1="32.3499" x2="58.3711" y2="17.6496" gradientUnits="userSpaceOnUse">
<stop stop-color="#F75B2D"/>
<stop offset="1" stop-color="#FABC2A"/>
</linearGradient>
<linearGradient id="paint29_linear_442_584" x1="19.7467" y1="32.3499" x2="58.3711" y2="17.6496" gradientUnits="userSpaceOnUse">
<stop stop-color="#F75B2D"/>
<stop offset="1" stop-color="#FABC2A"/>
</linearGradient>
<linearGradient id="paint30_linear_442_584" x1="19.7467" y1="32.3499" x2="58.3711" y2="17.6496" gradientUnits="userSpaceOnUse">
<stop stop-color="#F75B2D"/>
<stop offset="1" stop-color="#FABC2A"/>
</linearGradient>
<linearGradient id="paint31_linear_442_584" x1="19.7467" y1="32.3499" x2="58.3711" y2="17.6496" gradientUnits="userSpaceOnUse">
<stop stop-color="#F75B2D"/>
<stop offset="1" stop-color="#FABC2A"/>
</linearGradient>
<linearGradient id="paint32_linear_442_584" x1="19.7467" y1="32.3499" x2="58.3711" y2="17.6496" gradientUnits="userSpaceOnUse">
<stop stop-color="#F75B2D"/>
<stop offset="1" stop-color="#FABC2A"/>
</linearGradient>
<linearGradient id="paint33_linear_442_584" x1="19.7467" y1="32.3499" x2="58.3711" y2="17.6496" gradientUnits="userSpaceOnUse">
<stop stop-color="#F75B2D"/>
<stop offset="1" stop-color="#FABC2A"/>
</linearGradient>
<linearGradient id="paint34_linear_442_584" x1="19.7467" y1="32.3499" x2="58.3711" y2="17.6496" gradientUnits="userSpaceOnUse">
<stop stop-color="#F75B2D"/>
<stop offset="1" stop-color="#FABC2A"/>
</linearGradient>
<linearGradient id="paint35_linear_442_584" x1="19.7467" y1="32.3499" x2="58.3711" y2="17.6496" gradientUnits="userSpaceOnUse">
<stop stop-color="#F75B2D"/>
<stop offset="1" stop-color="#FABC2A"/>
</linearGradient>
<linearGradient id="paint36_linear_442_584" x1="19.7467" y1="32.3499" x2="58.3711" y2="17.6496" gradientUnits="userSpaceOnUse">
<stop stop-color="#F75B2D"/>
<stop offset="1" stop-color="#FABC2A"/>
</linearGradient>
<linearGradient id="paint37_linear_442_584" x1="19.7467" y1="32.3499" x2="58.3711" y2="17.6496" gradientUnits="userSpaceOnUse">
<stop stop-color="#F75B2D"/>
<stop offset="1" stop-color="#FABC2A"/>
</linearGradient>
<linearGradient id="paint38_linear_442_584" x1="19.7467" y1="32.3499" x2="58.3711" y2="17.6496" gradientUnits="userSpaceOnUse">
<stop stop-color="#F75B2D"/>
<stop offset="1" stop-color="#FABC2A"/>
</linearGradient>
<linearGradient id="paint39_linear_442_584" x1="19.7467" y1="32.3499" x2="58.3711" y2="17.6496" gradientUnits="userSpaceOnUse">
<stop stop-color="#F75B2D"/>
<stop offset="1" stop-color="#FABC2A"/>
</linearGradient>
<linearGradient id="paint40_linear_442_584" x1="19.7467" y1="32.3499" x2="58.3711" y2="17.6496" gradientUnits="userSpaceOnUse">
<stop stop-color="#F75B2D"/>
<stop offset="1" stop-color="#FABC2A"/>
</linearGradient>
<linearGradient id="paint41_linear_442_584" x1="19.7467" y1="32.3499" x2="58.3711" y2="17.6496" gradientUnits="userSpaceOnUse">
<stop stop-color="#F75B2D"/>
<stop offset="1" stop-color="#FABC2A"/>
</linearGradient>
<linearGradient id="paint42_linear_442_584" x1="19.7467" y1="32.3499" x2="58.3711" y2="17.6496" gradientUnits="userSpaceOnUse">
<stop stop-color="#F75B2D"/>
<stop offset="1" stop-color="#FABC2A"/>
</linearGradient>
<linearGradient id="paint43_linear_442_584" x1="19.7467" y1="32.3499" x2="58.3711" y2="17.6496" gradientUnits="userSpaceOnUse">
<stop stop-color="#F75B2D"/>
<stop offset="1" stop-color="#FABC2A"/>
</linearGradient>
<linearGradient id="paint44_linear_442_584" x1="19.7467" y1="32.3499" x2="58.3711" y2="17.6496" gradientUnits="userSpaceOnUse">
<stop stop-color="#F75B2D"/>
<stop offset="1" stop-color="#FABC2A"/>
</linearGradient>
<linearGradient id="paint45_linear_442_584" x1="19.7467" y1="32.3499" x2="58.3711" y2="17.6496" gradientUnits="userSpaceOnUse">
<stop stop-color="#F75B2D"/>
<stop offset="1" stop-color="#FABC2A"/>
</linearGradient>
<linearGradient id="paint46_linear_442_584" x1="19.7467" y1="32.3499" x2="58.3711" y2="17.6496" gradientUnits="userSpaceOnUse">
<stop stop-color="#F75B2D"/>
<stop offset="1" stop-color="#FABC2A"/>
</linearGradient>
<linearGradient id="paint47_linear_442_584" x1="19.7467" y1="32.3499" x2="58.3711" y2="17.6496" gradientUnits="userSpaceOnUse">
<stop stop-color="#F75B2D"/>
<stop offset="1" stop-color="#FABC2A"/>
</linearGradient>
<linearGradient id="paint48_linear_442_584" x1="19.7467" y1="32.3499" x2="58.3711" y2="17.6496" gradientUnits="userSpaceOnUse">
<stop stop-color="#F75B2D"/>
<stop offset="1" stop-color="#FABC2A"/>
</linearGradient>
<linearGradient id="paint49_linear_442_584" x1="19.7467" y1="32.3499" x2="58.3711" y2="17.6496" gradientUnits="userSpaceOnUse">
<stop stop-color="#F75B2D"/>
<stop offset="1" stop-color="#FABC2A"/>
</linearGradient>
<linearGradient id="paint50_linear_442_584" x1="19.7467" y1="32.3499" x2="58.3711" y2="17.6496" gradientUnits="userSpaceOnUse">
<stop stop-color="#F75B2D"/>
<stop offset="1" stop-color="#FABC2A"/>
</linearGradient>
<linearGradient id="paint51_linear_442_584" x1="19.7467" y1="32.3499" x2="58.3711" y2="17.6496" gradientUnits="userSpaceOnUse">
<stop stop-color="#F75B2D"/>
<stop offset="1" stop-color="#FABC2A"/>
</linearGradient>
<linearGradient id="paint52_linear_442_584" x1="19.7467" y1="32.3499" x2="58.3711" y2="17.6496" gradientUnits="userSpaceOnUse">
<stop stop-color="#F75B2D"/>
<stop offset="1" stop-color="#FABC2A"/>
</linearGradient>
<linearGradient id="paint53_linear_442_584" x1="19.7467" y1="32.3499" x2="58.3711" y2="17.6496" gradientUnits="userSpaceOnUse">
<stop stop-color="#F75B2D"/>
<stop offset="1" stop-color="#FABC2A"/>
</linearGradient>
<linearGradient id="paint54_linear_442_584" x1="19.7467" y1="32.3499" x2="58.3711" y2="17.6496" gradientUnits="userSpaceOnUse">
<stop stop-color="#F75B2D"/>
<stop offset="1" stop-color="#FABC2A"/>
</linearGradient>
<linearGradient id="paint55_linear_442_584" x1="19.7467" y1="32.3499" x2="58.3711" y2="17.6496" gradientUnits="userSpaceOnUse">
<stop stop-color="#F75B2D"/>
<stop offset="1" stop-color="#FABC2A"/>
</linearGradient>
<linearGradient id="paint56_linear_442_584" x1="19.7467" y1="32.3499" x2="58.3711" y2="17.6496" gradientUnits="userSpaceOnUse">
<stop stop-color="#F75B2D"/>
<stop offset="1" stop-color="#FABC2A"/>
</linearGradient>
<linearGradient id="paint57_linear_442_584" x1="19.7467" y1="32.3499" x2="58.3711" y2="17.6496" gradientUnits="userSpaceOnUse">
<stop stop-color="#F75B2D"/>
<stop offset="1" stop-color="#FABC2A"/>
</linearGradient>
<linearGradient id="paint58_linear_442_584" x1="19.7467" y1="32.3499" x2="58.3711" y2="17.6496" gradientUnits="userSpaceOnUse">
<stop stop-color="#F75B2D"/>
<stop offset="1" stop-color="#FABC2A"/>
</linearGradient>
<linearGradient id="paint59_linear_442_584" x1="19.7467" y1="32.3499" x2="58.3711" y2="17.6496" gradientUnits="userSpaceOnUse">
<stop stop-color="#F75B2D"/>
<stop offset="1" stop-color="#FABC2A"/>
</linearGradient>
<linearGradient id="paint60_linear_442_584" x1="19.7467" y1="32.3499" x2="58.3711" y2="17.6496" gradientUnits="userSpaceOnUse">
<stop stop-color="#F75B2D"/>
<stop offset="1" stop-color="#FABC2A"/>
</linearGradient>
<linearGradient id="paint61_linear_442_584" x1="19.7467" y1="32.3499" x2="58.3711" y2="17.6496" gradientUnits="userSpaceOnUse">
<stop stop-color="#F75B2D"/>
<stop offset="1" stop-color="#FABC2A"/>
</linearGradient>
<linearGradient id="paint62_linear_442_584" x1="19.7467" y1="32.3499" x2="58.3711" y2="17.6496" gradientUnits="userSpaceOnUse">
<stop stop-color="#F75B2D"/>
<stop offset="1" stop-color="#FABC2A"/>
</linearGradient>
<linearGradient id="paint63_linear_442_584" x1="19.7467" y1="32.3499" x2="58.3711" y2="17.6496" gradientUnits="userSpaceOnUse">
<stop stop-color="#F75B2D"/>
<stop offset="1" stop-color="#FABC2A"/>
</linearGradient>
<linearGradient id="paint64_linear_442_584" x1="19.7467" y1="32.3499" x2="58.3711" y2="17.6496" gradientUnits="userSpaceOnUse">
<stop stop-color="#F75B2D"/>
<stop offset="1" stop-color="#FABC2A"/>
</linearGradient>
<linearGradient id="paint65_linear_442_584" x1="19.7467" y1="32.3499" x2="58.3711" y2="17.6496" gradientUnits="userSpaceOnUse">
<stop stop-color="#F75B2D"/>
<stop offset="1" stop-color="#FABC2A"/>
</linearGradient>
<linearGradient id="paint66_linear_442_584" x1="19.7467" y1="32.3499" x2="58.3711" y2="17.6496" gradientUnits="userSpaceOnUse">
<stop stop-color="#F75B2D"/>
<stop offset="1" stop-color="#FABC2A"/>
</linearGradient>
<linearGradient id="paint67_linear_442_584" x1="19.7467" y1="32.3499" x2="58.3711" y2="17.6496" gradientUnits="userSpaceOnUse">
<stop stop-color="#F75B2D"/>
<stop offset="1" stop-color="#FABC2A"/>
</linearGradient>
<linearGradient id="paint68_linear_442_584" x1="19.7467" y1="32.3499" x2="58.3711" y2="17.6496" gradientUnits="userSpaceOnUse">
<stop stop-color="#F75B2D"/>
<stop offset="1" stop-color="#FABC2A"/>
</linearGradient>
<linearGradient id="paint69_linear_442_584" x1="19.7467" y1="32.3499" x2="58.3711" y2="17.6496" gradientUnits="userSpaceOnUse">
<stop stop-color="#F75B2D"/>
<stop offset="1" stop-color="#FABC2A"/>
</linearGradient>
<linearGradient id="paint70_linear_442_584" x1="19.7467" y1="32.3499" x2="58.3711" y2="17.6496" gradientUnits="userSpaceOnUse">
<stop stop-color="#F75B2D"/>
<stop offset="1" stop-color="#FABC2A"/>
</linearGradient>
<linearGradient id="paint71_linear_442_584" x1="19.7467" y1="32.3499" x2="58.3711" y2="17.6496" gradientUnits="userSpaceOnUse">
<stop stop-color="#F75B2D"/>
<stop offset="1" stop-color="#FABC2A"/>
</linearGradient>
<linearGradient id="paint72_linear_442_584" x1="19.7467" y1="32.3499" x2="58.3711" y2="17.6496" gradientUnits="userSpaceOnUse">
<stop stop-color="#F75B2D"/>
<stop offset="1" stop-color="#FABC2A"/>
</linearGradient>
<linearGradient id="paint73_linear_442_584" x1="19.7467" y1="32.3499" x2="58.3711" y2="17.6496" gradientUnits="userSpaceOnUse">
<stop stop-color="#F75B2D"/>
<stop offset="1" stop-color="#FABC2A"/>
</linearGradient>
<linearGradient id="paint74_linear_442_584" x1="19.7467" y1="32.3499" x2="58.3711" y2="17.6496" gradientUnits="userSpaceOnUse">
<stop stop-color="#F75B2D"/>
<stop offset="1" stop-color="#FABC2A"/>
</linearGradient>
<linearGradient id="paint75_linear_442_584" x1="19.7467" y1="32.3499" x2="58.3711" y2="17.6496" gradientUnits="userSpaceOnUse">
<stop stop-color="#F75B2D"/>
<stop offset="1" stop-color="#FABC2A"/>
</linearGradient>
<linearGradient id="paint76_linear_442_584" x1="19.7467" y1="32.3499" x2="58.3711" y2="17.6496" gradientUnits="userSpaceOnUse">
<stop stop-color="#F75B2D"/>
<stop offset="1" stop-color="#FABC2A"/>
</linearGradient>
<linearGradient id="paint77_linear_442_584" x1="19.7467" y1="32.3499" x2="58.3711" y2="17.6496" gradientUnits="userSpaceOnUse">
<stop stop-color="#F75B2D"/>
<stop offset="1" stop-color="#FABC2A"/>
</linearGradient>
<linearGradient id="paint78_linear_442_584" x1="19.7467" y1="32.3499" x2="58.3711" y2="17.6496" gradientUnits="userSpaceOnUse">
<stop stop-color="#F75B2D"/>
<stop offset="1" stop-color="#FABC2A"/>
</linearGradient>
<linearGradient id="paint79_linear_442_584" x1="19.7467" y1="32.3499" x2="58.3711" y2="17.6496" gradientUnits="userSpaceOnUse">
<stop stop-color="#F75B2D"/>
<stop offset="1" stop-color="#FABC2A"/>
</linearGradient>
<linearGradient id="paint80_linear_442_584" x1="19.7467" y1="32.3499" x2="58.3711" y2="17.6496" gradientUnits="userSpaceOnUse">
<stop stop-color="#F75B2D"/>
<stop offset="1" stop-color="#FABC2A"/>
</linearGradient>
<linearGradient id="paint81_linear_442_584" x1="19.7467" y1="32.3499" x2="58.3711" y2="17.6496" gradientUnits="userSpaceOnUse">
<stop stop-color="#F75B2D"/>
<stop offset="1" stop-color="#FABC2A"/>
</linearGradient>
<linearGradient id="paint82_linear_442_584" x1="19.7467" y1="32.3499" x2="58.3711" y2="17.6496" gradientUnits="userSpaceOnUse">
<stop stop-color="#F75B2D"/>
<stop offset="1" stop-color="#FABC2A"/>
</linearGradient>
<linearGradient id="paint83_linear_442_584" x1="19.7467" y1="32.3499" x2="58.3711" y2="17.6496" gradientUnits="userSpaceOnUse">
<stop stop-color="#F75B2D"/>
<stop offset="1" stop-color="#FABC2A"/>
</linearGradient>
<linearGradient id="paint84_linear_442_584" x1="19.7467" y1="32.3499" x2="58.3711" y2="17.6496" gradientUnits="userSpaceOnUse">
<stop stop-color="#F75B2D"/>
<stop offset="1" stop-color="#FABC2A"/>
</linearGradient>
<linearGradient id="paint85_linear_442_584" x1="19.7467" y1="32.3499" x2="58.3711" y2="17.6496" gradientUnits="userSpaceOnUse">
<stop stop-color="#F75B2D"/>
<stop offset="1" stop-color="#FABC2A"/>
</linearGradient>
<linearGradient id="paint86_linear_442_584" x1="19.7467" y1="32.3499" x2="58.3711" y2="17.6496" gradientUnits="userSpaceOnUse">
<stop stop-color="#F75B2D"/>
<stop offset="1" stop-color="#FABC2A"/>
</linearGradient>
<linearGradient id="paint87_linear_442_584" x1="19.7467" y1="32.3499" x2="58.3711" y2="17.6496" gradientUnits="userSpaceOnUse">
<stop stop-color="#F75B2D"/>
<stop offset="1" stop-color="#FABC2A"/>
</linearGradient>
<linearGradient id="paint88_linear_442_584" x1="19.7467" y1="32.3499" x2="58.3711" y2="17.6496" gradientUnits="userSpaceOnUse">
<stop stop-color="#F75B2D"/>
<stop offset="1" stop-color="#FABC2A"/>
</linearGradient>
<linearGradient id="paint89_linear_442_584" x1="19.7467" y1="32.3499" x2="58.3711" y2="17.6496" gradientUnits="userSpaceOnUse">
<stop stop-color="#F75B2D"/>
<stop offset="1" stop-color="#FABC2A"/>
</linearGradient>
<linearGradient id="paint90_linear_442_584" x1="19.7467" y1="32.3499" x2="58.3711" y2="17.6496" gradientUnits="userSpaceOnUse">
<stop stop-color="#F75B2D"/>
<stop offset="1" stop-color="#FABC2A"/>
</linearGradient>
<linearGradient id="paint91_linear_442_584" x1="19.7467" y1="32.3499" x2="58.3711" y2="17.6496" gradientUnits="userSpaceOnUse">
<stop stop-color="#F75B2D"/>
<stop offset="1" stop-color="#FABC2A"/>
</linearGradient>
<linearGradient id="paint92_linear_442_584" x1="19.7467" y1="32.3499" x2="58.3711" y2="17.6496" gradientUnits="userSpaceOnUse">
<stop stop-color="#F75B2D"/>
<stop offset="1" stop-color="#FABC2A"/>
</linearGradient>
<linearGradient id="paint93_linear_442_584" x1="62.5246" y1="24.6985" x2="138.835" y2="25.1372" gradientUnits="userSpaceOnUse">
<stop stop-color="#FABC2A"/>
<stop offset="1" stop-color="#F75B2D"/>
</linearGradient>
<linearGradient id="paint94_linear_442_584" x1="62.5246" y1="24.6985" x2="138.835" y2="25.1372" gradientUnits="userSpaceOnUse">
<stop stop-color="#FABC2A"/>
<stop offset="1" stop-color="#F75B2D"/>
</linearGradient>
<linearGradient id="paint95_linear_442_584" x1="62.5246" y1="24.6985" x2="138.835" y2="25.1372" gradientUnits="userSpaceOnUse">
<stop stop-color="#FABC2A"/>
<stop offset="1" stop-color="#F75B2D"/>
</linearGradient>
</defs>
</svg>
