<svg width="1342" height="517" viewBox="0 0 1342 517" fill="none" xmlns="http://www.w3.org/2000/svg">
<g filter="url(#filter0_b_946_18)">
<mask id="path-1-outside-1_946_18" maskUnits="userSpaceOnUse" x="543.125" y="441.4" width="467" height="76" fill="black">
<rect fill="white" x="543.125" y="441.4" width="467" height="76"/>
<path d="M574.117 451.558C574.25 450.78 574.706 450.4 575.486 450.4H578.09C578.489 450.4 578.793 450.457 578.964 450.609C579.154 450.742 579.192 451.065 579.116 451.558L577.063 461.846C579.611 461.998 581.72 462.415 583.412 463.156C585.104 463.877 586.434 464.826 587.442 465.984C588.449 467.142 589.153 468.49 589.552 470.008C589.97 471.527 590.179 473.14 590.179 474.81C590.179 477.771 589.742 480.524 588.867 483.105C588.012 485.668 586.738 487.926 585.085 489.844C583.412 491.78 581.359 493.317 578.869 494.456C576.379 495.595 573.547 496.183 570.373 496.221L568.377 506.604C568.301 506.87 568.168 507.117 568.016 507.306C567.845 507.515 567.597 507.61 567.217 507.61H564.347C563.587 507.61 563.264 507.23 563.397 506.452L565.374 496.221C560.964 496.013 557.656 494.798 555.451 492.615C553.227 490.432 552.125 487.357 552.125 483.409C552.125 480.732 552.486 478.113 553.227 475.608C553.95 473.083 555.128 470.824 556.744 468.85C558.36 466.876 560.432 465.263 562.96 464.01C565.488 462.757 568.529 462.036 572.064 461.846L574.117 451.558ZM998.926 481.776C998.394 484.13 997.748 486.218 996.987 488.002C996.246 489.806 995.258 491.324 994.06 492.539C992.843 493.773 991.361 494.703 989.612 495.31C987.863 495.918 985.735 496.221 983.226 496.221C981.952 496.221 980.488 496.088 978.816 495.823C977.162 495.538 975.47 495.044 973.741 494.323L973.664 494.38L971.346 506.319C971.25 506.775 971.117 507.117 970.927 507.306C970.756 507.515 970.414 507.61 969.901 507.61H967.107C966.613 507.61 966.308 507.534 966.213 507.344C966.137 507.155 966.137 506.832 966.213 506.319L974.482 463.554C974.672 462.795 975.128 462.396 975.85 462.396H978.721C979.5 462.396 979.804 462.795 979.671 463.554L979.12 466.155C979.177 466.098 979.215 466.079 979.272 466.079C979.861 465.775 980.621 465.358 981.591 464.864C982.541 464.352 983.587 463.877 984.727 463.421C985.868 462.966 987.046 462.586 988.282 462.264C989.517 461.941 990.696 461.789 991.836 461.789C994.972 461.789 997.177 462.586 998.451 464.181C999.724 465.775 1000.37 468.129 1000.37 471.261C1000.37 471.944 1000.33 472.741 1000.28 473.614C1000.2 474.507 1000.09 475.437 999.953 476.386C999.819 477.335 999.667 478.284 999.477 479.214C999.306 480.144 999.116 480.998 998.926 481.776ZM994.972 471.887C995.01 469.704 994.668 468.262 993.908 467.559C993.167 466.838 991.988 466.496 990.391 466.496C989.574 466.496 988.605 466.629 987.502 466.895C986.381 467.18 985.259 467.521 984.119 467.92C982.978 468.338 981.914 468.774 980.907 469.23C979.899 469.685 979.063 470.065 978.378 470.388L974.558 490.014C976.288 490.565 977.941 490.963 979.538 491.172C981.135 491.419 982.655 491.514 984.119 491.514C985.392 491.514 986.514 491.362 987.502 491.02C988.472 490.679 989.346 490.109 990.087 489.331C990.848 488.572 991.494 487.566 992.045 486.332C992.577 485.117 993.091 483.599 993.547 481.776C993.718 481.036 993.889 480.239 994.06 479.347C994.212 478.455 994.364 477.582 994.497 476.689C994.63 475.797 994.744 474.943 994.839 474.089C994.934 473.254 994.972 472.514 994.972 471.887ZM960.34 494.456C960.169 495.234 959.694 495.614 958.914 495.614H956.044C955.265 495.614 954.961 495.234 955.094 494.456L959.123 473.937C959.656 471.109 959.675 469.154 959.142 468.072C958.629 466.971 957.337 466.421 955.284 466.421C954.466 466.421 953.535 466.572 952.49 466.876C951.444 467.161 950.38 467.521 949.277 467.92C948.194 468.338 947.148 468.774 946.179 469.23C945.191 469.685 944.373 470.065 943.689 470.388C943.689 470.521 943.651 470.748 943.613 471.071C943.575 471.375 943.518 471.735 943.442 472.115C943.366 472.514 943.309 472.874 943.271 473.254C943.233 473.614 943.176 473.88 943.138 474.07L939.184 494.456C938.994 495.234 938.519 495.614 937.739 495.614H934.736C934.052 495.614 933.805 495.234 933.976 494.456L938.082 473.444C938.5 471.223 938.481 469.496 938.044 468.262C937.606 467.047 936.352 466.421 934.261 466.421C933.482 466.421 932.607 466.553 931.657 466.8C930.707 467.047 929.699 467.37 928.654 467.749C927.608 468.148 926.563 468.565 925.517 469.021C924.472 469.477 923.503 469.894 922.647 470.312L917.933 494.456C917.8 495.234 917.344 495.614 916.565 495.614H913.694C912.972 495.614 912.668 495.234 912.82 494.456L918.827 463.554C918.998 462.795 919.454 462.396 920.195 462.396H922.989C923.807 462.396 924.13 462.795 923.94 463.554L923.464 465.946H923.598C924.377 465.49 925.232 465.016 926.164 464.522C927.095 464.01 928.083 463.554 929.129 463.156C930.174 462.738 931.258 462.396 932.379 462.131C933.501 461.846 934.603 461.713 935.687 461.713C938.196 461.713 940.058 462.15 941.256 462.985C942.472 463.82 943.233 465.035 943.537 466.629C945.59 465.396 947.738 464.276 950 463.251C952.262 462.226 954.542 461.713 956.861 461.713C958.952 461.713 960.587 462.017 961.785 462.605C962.963 463.194 963.799 464.029 964.313 465.092C964.807 466.155 965.016 467.446 964.959 468.945C964.883 470.445 964.674 472.115 964.313 473.937L960.34 494.456ZM904.761 494.247C904.571 495.158 904 495.614 903.05 495.614H901.073C899.933 495.614 899.457 495.158 899.629 494.247L902.366 480.277H885.354L882.616 494.247C882.445 495.158 881.875 495.614 880.925 495.614H878.796C877.75 495.614 877.313 495.158 877.503 494.247L883.434 463.839C883.529 463.289 883.719 462.909 884.023 462.7C884.327 462.51 884.726 462.396 885.22 462.396H887.33C887.844 462.396 888.186 462.51 888.395 462.7C888.604 462.909 888.661 463.289 888.566 463.839L886.247 475.702H903.24L905.578 463.839C905.654 463.289 905.882 462.909 906.224 462.7C906.566 462.51 906.985 462.396 907.479 462.396H909.456C909.969 462.396 910.311 462.51 910.52 462.7C910.729 462.909 910.786 463.289 910.691 463.839L904.761 494.247ZM845.057 486.617C845.057 485.117 845.209 483.599 845.532 482.042C845.855 480.505 846.197 479.005 846.558 477.544C846.881 476.044 847.376 474.374 848.06 472.533C848.744 470.691 849.752 468.964 851.101 467.389C852.451 465.794 854.18 464.465 856.29 463.384C858.419 462.321 861.118 461.789 864.388 461.789C865.794 461.789 867.144 461.96 868.417 462.302C869.691 462.643 870.812 463.156 871.763 463.839C872.713 464.522 873.474 465.358 874.025 466.364C874.557 467.351 874.842 468.509 874.842 469.837C874.842 471.735 874.424 473.406 873.607 474.81C872.808 476.215 871.725 477.43 870.413 478.436C869.083 479.423 867.581 480.239 865.87 480.884C864.179 481.511 862.449 482.023 860.681 482.384C858.894 482.745 857.146 483.01 855.435 483.162C853.705 483.333 852.185 483.409 850.873 483.409C850.588 484.624 850.455 485.725 850.455 486.731C850.455 487.945 850.702 488.876 851.177 489.521C851.652 490.185 852.261 490.641 853.002 490.907C853.762 491.172 854.599 491.343 855.511 491.381C856.461 491.438 857.374 491.457 858.267 491.457C858.818 491.457 859.484 491.438 860.282 491.381C861.08 491.343 861.898 491.286 862.772 491.21C863.627 491.153 864.502 491.077 865.395 491.02C866.27 490.944 867.068 490.869 867.733 490.774C868.151 490.736 868.474 490.755 868.722 490.85C868.969 490.926 869.102 491.21 869.102 491.666V493.108C869.102 493.754 868.76 494.247 868.075 494.57C867.258 494.893 866.365 495.158 865.414 495.367C864.464 495.576 863.456 495.728 862.449 495.861C861.423 495.975 860.396 496.05 859.408 496.088C858.4 496.145 857.45 496.164 856.537 496.164C854.751 496.164 853.173 496.012 851.747 495.728C850.341 495.424 849.124 494.912 848.136 494.19C847.129 493.45 846.368 492.482 845.836 491.248C845.323 490.014 845.057 488.477 845.057 486.617ZM869.577 470.691C869.577 469.173 869.026 468.072 867.904 467.446C866.783 466.819 865.452 466.496 863.913 466.496C861.727 466.496 859.94 466.838 858.59 467.54C857.222 468.243 856.1 469.116 855.226 470.16C854.371 471.204 853.724 472.286 853.325 473.444C852.907 474.602 852.565 475.608 852.299 476.462L851.614 479.119C852.527 479.119 853.61 479.062 854.865 478.948C856.119 478.834 857.393 478.664 858.723 478.436C860.035 478.208 861.346 477.904 862.639 477.525C863.951 477.126 865.11 476.614 866.137 475.987C867.144 475.361 867.98 474.602 868.627 473.766C869.254 472.893 869.577 471.868 869.577 470.691ZM834.887 495.823C834.241 495.538 833.519 495.044 832.74 494.323C831.941 493.583 831.447 492.634 831.257 491.457H831.067C830.421 491.818 829.565 492.273 828.463 492.824C827.379 493.374 826.182 493.906 824.87 494.418C823.578 494.95 822.247 495.386 820.879 495.747C819.51 496.107 818.236 496.297 817.058 496.297C814.834 496.297 813.104 495.975 811.907 495.348C810.69 494.703 809.854 493.83 809.379 492.71C808.904 491.609 808.694 490.28 808.789 488.724C808.885 487.186 809.113 485.497 809.474 483.675L813.37 463.554C813.56 462.795 814.036 462.396 814.796 462.396H817.666C818.446 462.396 818.769 462.795 818.636 463.554L814.663 483.751C814.34 485.345 814.188 486.636 814.188 487.642C814.188 488.629 814.34 489.426 814.663 490.014C814.986 490.622 815.48 491.02 816.146 491.248C816.792 491.476 817.666 491.59 818.769 491.59C819.586 491.59 820.574 491.438 821.734 491.115C822.893 490.793 824.053 490.432 825.212 490.014C826.372 489.616 827.493 489.179 828.539 488.724C829.584 488.268 830.383 487.907 830.915 487.642L835.629 463.554C835.819 462.795 836.294 462.396 837.073 462.396H839.867C840.647 462.396 840.932 462.795 840.761 463.554L835.971 487.907C835.743 489.141 835.838 490.052 836.256 490.641C836.655 491.229 837.168 491.723 837.758 492.14C838.347 492.539 838.86 492.975 839.316 493.393C839.772 493.83 839.905 494.494 839.734 495.405L837.891 503.396C837.796 503.985 837.644 504.364 837.453 504.554C837.244 504.725 836.997 504.82 836.731 504.82H834.944C834.583 504.82 834.298 504.725 834.089 504.554C833.899 504.364 833.861 503.985 833.994 503.396L834.887 495.823ZM805.045 474.677C804.893 475.228 804.513 475.494 803.885 475.494H785.372C784.687 475.494 784.421 475.228 784.554 474.677L785.087 471.887C785.182 471.508 785.315 471.28 785.467 471.166C785.638 471.052 785.885 470.995 786.246 470.995H804.76C805.083 470.995 805.33 471.052 805.482 471.166C805.634 471.28 805.672 471.508 805.577 471.887L805.045 474.677ZM782.292 466.288C782.159 466.648 781.931 466.876 781.608 466.933C781.285 467.009 780.886 467.009 780.392 466.971C779.023 466.838 777.502 466.686 775.849 466.534C774.176 466.364 772.712 466.288 771.439 466.288C769.88 466.288 768.55 466.496 767.447 466.895C766.326 467.313 765.356 467.996 764.539 468.945C763.722 469.894 763.018 471.166 762.448 472.741C761.878 474.336 761.365 476.31 760.908 478.664C760.699 479.992 760.509 481.169 760.376 482.232C760.243 483.295 760.167 484.301 760.167 485.193C760.129 487.547 760.604 489.198 761.631 490.09C762.657 491.001 764.292 491.457 766.516 491.457C767.067 491.457 767.732 491.438 768.531 491.381C769.329 491.343 770.165 491.286 771.059 491.21C771.952 491.153 772.826 491.077 773.682 491.02C774.556 490.944 775.335 490.869 776.02 490.774C776.419 490.736 776.742 490.755 777.008 490.85C777.255 490.926 777.369 491.21 777.369 491.666V493.108C777.369 493.754 777.027 494.247 776.343 494.57C774.936 495.177 773.245 495.576 771.268 495.823C769.291 496.05 767.428 496.164 765.698 496.164C763.417 496.164 761.574 495.88 760.129 495.31C758.703 494.741 757.563 494 756.708 493.089C755.871 492.178 755.301 491.134 754.978 489.957C754.655 488.781 754.503 487.566 754.503 486.332C754.503 485.193 754.598 483.921 754.769 482.479C754.959 481.055 755.187 479.651 755.453 478.284C755.871 476.101 756.385 474.013 756.993 472.02C757.601 470.027 758.513 468.262 759.692 466.724C760.87 465.206 762.429 463.991 764.33 463.08C766.25 462.169 768.74 461.713 771.838 461.713C772.522 461.713 773.359 461.732 774.309 461.789C775.259 461.827 776.229 461.903 777.198 462.017C778.187 462.15 779.137 462.302 780.068 462.51C781 462.7 781.817 462.966 782.501 463.289C782.825 463.421 782.996 463.63 783.015 463.896C783.034 464.181 782.996 464.446 782.901 464.712L782.292 466.288ZM721.106 486.617C721.106 485.117 721.258 483.599 721.581 482.042C721.904 480.505 722.246 479.005 722.607 477.544C722.912 476.044 723.425 474.374 724.109 472.533C724.793 470.691 725.801 468.964 727.15 467.389C728.481 465.794 730.211 464.465 732.339 463.384C734.449 462.321 737.148 461.789 740.437 461.789C741.843 461.789 743.174 461.96 744.467 462.302C745.74 462.643 746.843 463.156 747.812 463.839C748.762 464.522 749.504 465.358 750.055 466.364C750.606 467.351 750.872 468.509 750.872 469.837C750.872 471.735 750.473 473.406 749.656 474.81C748.838 476.215 747.774 477.43 746.443 478.436C745.132 479.423 743.63 480.239 741.919 480.884C740.228 481.511 738.479 482.023 736.711 482.384C734.944 482.745 733.195 483.01 731.465 483.162C729.735 483.333 728.234 483.409 726.903 483.409C726.637 484.624 726.485 485.725 726.485 486.731C726.485 487.945 726.732 488.876 727.207 489.521C727.682 490.185 728.291 490.641 729.051 490.907C729.792 491.172 730.648 491.343 731.56 491.381C732.492 491.438 733.423 491.457 734.316 491.457C734.868 491.457 735.533 491.438 736.331 491.381C737.129 491.343 737.947 491.286 738.821 491.21C739.677 491.153 740.551 491.077 741.425 491.02C742.319 490.944 743.098 490.869 743.782 490.774C744.181 490.736 744.524 490.755 744.771 490.85C745.018 490.926 745.132 491.21 745.132 491.666V493.108C745.132 493.754 744.79 494.247 744.124 494.57C743.288 494.893 742.414 495.158 741.444 495.367C740.494 495.576 739.505 495.728 738.479 495.861C737.453 495.975 736.445 496.05 735.438 496.088C734.449 496.145 733.48 496.164 732.568 496.164C730.8 496.164 729.203 496.012 727.797 495.728C726.371 495.424 725.173 494.912 724.166 494.19C723.178 493.45 722.417 492.482 721.885 491.248C721.353 490.014 721.106 488.477 721.106 486.617ZM745.626 470.691C745.626 469.173 745.056 468.072 743.953 467.446C742.832 466.819 741.501 466.496 739.943 466.496C737.757 466.496 735.989 466.838 734.62 467.54C733.252 468.243 732.149 469.116 731.275 470.16C730.42 471.204 729.773 472.286 729.355 473.444C728.956 474.602 728.614 475.608 728.348 476.462L727.664 479.119C728.576 479.119 729.64 479.062 730.895 478.948C732.149 478.834 733.442 478.664 734.753 478.436C736.084 478.208 737.396 477.904 738.688 477.525C739.981 477.126 741.14 476.614 742.167 475.987C743.193 475.361 744.029 474.602 744.657 473.766C745.303 472.893 745.626 471.868 745.626 470.691ZM711.887 494.247C711.697 495.158 711.127 495.614 710.176 495.614H708.199C707.059 495.614 706.584 495.158 706.755 494.247L709.492 480.277H692.48L689.743 494.247C689.572 495.158 689.001 495.614 688.051 495.614H685.922C684.877 495.614 684.439 495.158 684.629 494.247L690.579 463.839C690.655 463.289 690.864 462.909 691.149 462.7C691.453 462.51 691.852 462.396 692.347 462.396H694.457C694.97 462.396 695.312 462.51 695.521 462.7C695.73 462.909 695.787 463.289 695.692 463.839L693.373 475.702H710.385L712.704 463.839C712.799 463.289 713.008 462.909 713.351 462.7C713.693 462.51 714.111 462.396 714.605 462.396H716.582C717.095 462.396 717.437 462.51 717.646 462.7C717.855 462.909 717.912 463.289 717.817 463.839L711.887 494.247ZM676.437 494.456C676.247 495.234 675.772 495.614 674.992 495.614H672.122C671.362 495.614 671.039 495.234 671.172 494.456L675.202 473.937C675.753 471.109 675.753 469.154 675.24 468.072C674.707 466.971 673.434 466.421 671.381 466.421C670.564 466.421 669.632 466.572 668.587 466.876C667.522 467.161 666.458 467.521 665.374 467.92C664.272 468.338 663.246 468.774 662.257 469.23C661.288 469.685 660.451 470.065 659.767 470.388C659.767 470.521 659.748 470.748 659.691 471.071C659.653 471.375 659.596 471.735 659.539 472.115C659.463 472.514 659.406 472.874 659.349 473.254C659.311 473.614 659.273 473.88 659.216 474.07L655.262 494.456C655.072 495.234 654.597 495.614 653.818 495.614H650.814C650.13 495.614 649.883 495.234 650.073 494.456L654.16 473.444C654.578 471.223 654.559 469.496 654.141 468.262C653.704 467.047 652.43 466.421 650.339 466.421C649.579 466.421 648.704 466.553 647.754 466.8C646.785 467.047 645.796 467.37 644.751 467.749C643.705 468.148 642.641 468.565 641.595 469.021C640.55 469.477 639.6 469.894 638.725 470.312L634.011 494.456C633.878 495.234 633.422 495.614 632.662 495.614H629.791C629.05 495.614 628.765 495.234 628.898 494.456L634.905 463.554C635.095 462.795 635.551 462.396 636.273 462.396H639.067C639.885 462.396 640.208 462.795 640.037 463.554L639.543 465.946H639.695C640.455 465.49 641.31 465.016 642.242 464.522C643.192 464.01 644.181 463.554 645.226 463.156C646.271 462.738 647.355 462.396 648.457 462.131C649.579 461.846 650.681 461.713 651.784 461.713C654.274 461.713 656.137 462.15 657.334 462.985C658.551 463.82 659.311 465.035 659.634 466.629C661.687 465.396 663.835 464.276 666.078 463.251C668.34 462.226 670.621 461.713 672.959 461.713C675.049 461.713 676.684 462.017 677.863 462.605C679.041 463.194 679.897 464.029 680.391 465.092C680.904 466.155 681.113 467.446 681.037 468.945C680.98 470.445 680.752 472.115 680.391 473.937L676.437 494.456ZM621.238 494.456C621.105 495.234 620.649 495.614 619.888 495.614H617.075C616.258 495.614 615.935 495.234 616.125 494.456L616.6 491.931C616.6 491.894 616.562 491.913 616.467 492.007C615.821 492.368 615.022 492.786 614.034 493.298C613.065 493.792 612 494.266 610.841 494.703C609.662 495.12 608.465 495.5 607.21 495.823C605.956 496.145 604.739 496.297 603.561 496.297C601.337 496.297 599.607 495.975 598.409 495.348C597.193 494.703 596.356 493.83 595.881 492.71C595.406 491.609 595.197 490.28 595.292 488.724C595.387 487.186 595.615 485.497 595.976 483.675L599.873 463.554C600.063 462.795 600.538 462.396 601.299 462.396H604.169C604.948 462.396 605.271 462.795 605.138 463.554L601.166 483.751C600.842 485.345 600.69 486.636 600.69 487.642C600.69 488.629 600.842 489.426 601.166 490.014C601.489 490.622 601.983 491.02 602.629 491.248C603.294 491.476 604.169 491.59 605.271 491.59C606.089 491.59 607.077 491.438 608.236 491.115C609.396 490.793 610.555 490.432 611.715 490.014C612.874 489.616 613.977 489.179 615.041 488.724C616.087 488.268 616.885 487.907 617.417 487.642L622.131 463.554C622.321 462.795 622.797 462.396 623.576 462.396H626.37C627.149 462.396 627.435 462.795 627.263 463.554L621.238 494.456ZM571.19 466.553C568.719 466.553 566.628 467.066 564.86 468.091C563.112 469.116 561.686 470.426 560.565 472.02C559.443 473.614 558.626 475.38 558.112 477.297C557.58 479.233 557.314 481.112 557.314 482.934C557.314 488.439 560.298 491.343 566.267 491.666L571.19 466.553ZM571.247 491.666C573.528 491.609 575.524 491.153 577.234 490.261C578.945 489.369 580.371 488.173 581.53 486.674C582.69 485.174 583.564 483.447 584.134 481.454C584.705 479.48 584.99 477.411 584.99 475.228C584.99 473.994 584.838 472.855 584.572 471.811C584.305 470.767 583.83 469.856 583.165 469.078C582.519 468.319 581.606 467.692 580.466 467.237C579.344 466.781 577.9 466.553 576.17 466.553L571.247 491.666Z"/>
</mask>
<path d="M574.117 451.558C574.25 450.78 574.706 450.4 575.486 450.4H578.09C578.489 450.4 578.793 450.457 578.964 450.609C579.154 450.742 579.192 451.065 579.116 451.558L577.063 461.846C579.611 461.998 581.72 462.415 583.412 463.156C585.104 463.877 586.434 464.826 587.442 465.984C588.449 467.142 589.153 468.49 589.552 470.008C589.97 471.527 590.179 473.14 590.179 474.81C590.179 477.771 589.742 480.524 588.867 483.105C588.012 485.668 586.738 487.926 585.085 489.844C583.412 491.78 581.359 493.317 578.869 494.456C576.379 495.595 573.547 496.183 570.373 496.221L568.377 506.604C568.301 506.87 568.168 507.117 568.016 507.306C567.845 507.515 567.597 507.61 567.217 507.61H564.347C563.587 507.61 563.264 507.23 563.397 506.452L565.374 496.221C560.964 496.013 557.656 494.798 555.451 492.615C553.227 490.432 552.125 487.357 552.125 483.409C552.125 480.732 552.486 478.113 553.227 475.608C553.95 473.083 555.128 470.824 556.744 468.85C558.36 466.876 560.432 465.263 562.96 464.01C565.488 462.757 568.529 462.036 572.064 461.846L574.117 451.558ZM998.926 481.776C998.394 484.13 997.748 486.218 996.987 488.002C996.246 489.806 995.258 491.324 994.06 492.539C992.843 493.773 991.361 494.703 989.612 495.31C987.863 495.918 985.735 496.221 983.226 496.221C981.952 496.221 980.488 496.088 978.816 495.823C977.162 495.538 975.47 495.044 973.741 494.323L973.664 494.38L971.346 506.319C971.25 506.775 971.117 507.117 970.927 507.306C970.756 507.515 970.414 507.61 969.901 507.61H967.107C966.613 507.61 966.308 507.534 966.213 507.344C966.137 507.155 966.137 506.832 966.213 506.319L974.482 463.554C974.672 462.795 975.128 462.396 975.85 462.396H978.721C979.5 462.396 979.804 462.795 979.671 463.554L979.12 466.155C979.177 466.098 979.215 466.079 979.272 466.079C979.861 465.775 980.621 465.358 981.591 464.864C982.541 464.352 983.587 463.877 984.727 463.421C985.868 462.966 987.046 462.586 988.282 462.264C989.517 461.941 990.696 461.789 991.836 461.789C994.972 461.789 997.177 462.586 998.451 464.181C999.724 465.775 1000.37 468.129 1000.37 471.261C1000.37 471.944 1000.33 472.741 1000.28 473.614C1000.2 474.507 1000.09 475.437 999.953 476.386C999.819 477.335 999.667 478.284 999.477 479.214C999.306 480.144 999.116 480.998 998.926 481.776ZM994.972 471.887C995.01 469.704 994.668 468.262 993.908 467.559C993.167 466.838 991.988 466.496 990.391 466.496C989.574 466.496 988.605 466.629 987.502 466.895C986.381 467.18 985.259 467.521 984.119 467.92C982.978 468.338 981.914 468.774 980.907 469.23C979.899 469.685 979.063 470.065 978.378 470.388L974.558 490.014C976.288 490.565 977.941 490.963 979.538 491.172C981.135 491.419 982.655 491.514 984.119 491.514C985.392 491.514 986.514 491.362 987.502 491.02C988.472 490.679 989.346 490.109 990.087 489.331C990.848 488.572 991.494 487.566 992.045 486.332C992.577 485.117 993.091 483.599 993.547 481.776C993.718 481.036 993.889 480.239 994.06 479.347C994.212 478.455 994.364 477.582 994.497 476.689C994.63 475.797 994.744 474.943 994.839 474.089C994.934 473.254 994.972 472.514 994.972 471.887ZM960.34 494.456C960.169 495.234 959.694 495.614 958.914 495.614H956.044C955.265 495.614 954.961 495.234 955.094 494.456L959.123 473.937C959.656 471.109 959.675 469.154 959.142 468.072C958.629 466.971 957.337 466.421 955.284 466.421C954.466 466.421 953.535 466.572 952.49 466.876C951.444 467.161 950.38 467.521 949.277 467.92C948.194 468.338 947.148 468.774 946.179 469.23C945.191 469.685 944.373 470.065 943.689 470.388C943.689 470.521 943.651 470.748 943.613 471.071C943.575 471.375 943.518 471.735 943.442 472.115C943.366 472.514 943.309 472.874 943.271 473.254C943.233 473.614 943.176 473.88 943.138 474.07L939.184 494.456C938.994 495.234 938.519 495.614 937.739 495.614H934.736C934.052 495.614 933.805 495.234 933.976 494.456L938.082 473.444C938.5 471.223 938.481 469.496 938.044 468.262C937.606 467.047 936.352 466.421 934.261 466.421C933.482 466.421 932.607 466.553 931.657 466.8C930.707 467.047 929.699 467.37 928.654 467.749C927.608 468.148 926.563 468.565 925.517 469.021C924.472 469.477 923.503 469.894 922.647 470.312L917.933 494.456C917.8 495.234 917.344 495.614 916.565 495.614H913.694C912.972 495.614 912.668 495.234 912.82 494.456L918.827 463.554C918.998 462.795 919.454 462.396 920.195 462.396H922.989C923.807 462.396 924.13 462.795 923.94 463.554L923.464 465.946H923.598C924.377 465.49 925.232 465.016 926.164 464.522C927.095 464.01 928.083 463.554 929.129 463.156C930.174 462.738 931.258 462.396 932.379 462.131C933.501 461.846 934.603 461.713 935.687 461.713C938.196 461.713 940.058 462.15 941.256 462.985C942.472 463.82 943.233 465.035 943.537 466.629C945.59 465.396 947.738 464.276 950 463.251C952.262 462.226 954.542 461.713 956.861 461.713C958.952 461.713 960.587 462.017 961.785 462.605C962.963 463.194 963.799 464.029 964.313 465.092C964.807 466.155 965.016 467.446 964.959 468.945C964.883 470.445 964.674 472.115 964.313 473.937L960.34 494.456ZM904.761 494.247C904.571 495.158 904 495.614 903.05 495.614H901.073C899.933 495.614 899.457 495.158 899.629 494.247L902.366 480.277H885.354L882.616 494.247C882.445 495.158 881.875 495.614 880.925 495.614H878.796C877.75 495.614 877.313 495.158 877.503 494.247L883.434 463.839C883.529 463.289 883.719 462.909 884.023 462.7C884.327 462.51 884.726 462.396 885.22 462.396H887.33C887.844 462.396 888.186 462.51 888.395 462.7C888.604 462.909 888.661 463.289 888.566 463.839L886.247 475.702H903.24L905.578 463.839C905.654 463.289 905.882 462.909 906.224 462.7C906.566 462.51 906.985 462.396 907.479 462.396H909.456C909.969 462.396 910.311 462.51 910.52 462.7C910.729 462.909 910.786 463.289 910.691 463.839L904.761 494.247ZM845.057 486.617C845.057 485.117 845.209 483.599 845.532 482.042C845.855 480.505 846.197 479.005 846.558 477.544C846.881 476.044 847.376 474.374 848.06 472.533C848.744 470.691 849.752 468.964 851.101 467.389C852.451 465.794 854.18 464.465 856.29 463.384C858.419 462.321 861.118 461.789 864.388 461.789C865.794 461.789 867.144 461.96 868.417 462.302C869.691 462.643 870.812 463.156 871.763 463.839C872.713 464.522 873.474 465.358 874.025 466.364C874.557 467.351 874.842 468.509 874.842 469.837C874.842 471.735 874.424 473.406 873.607 474.81C872.808 476.215 871.725 477.43 870.413 478.436C869.083 479.423 867.581 480.239 865.87 480.884C864.179 481.511 862.449 482.023 860.681 482.384C858.894 482.745 857.146 483.01 855.435 483.162C853.705 483.333 852.185 483.409 850.873 483.409C850.588 484.624 850.455 485.725 850.455 486.731C850.455 487.945 850.702 488.876 851.177 489.521C851.652 490.185 852.261 490.641 853.002 490.907C853.762 491.172 854.599 491.343 855.511 491.381C856.461 491.438 857.374 491.457 858.267 491.457C858.818 491.457 859.484 491.438 860.282 491.381C861.08 491.343 861.898 491.286 862.772 491.21C863.627 491.153 864.502 491.077 865.395 491.02C866.27 490.944 867.068 490.869 867.733 490.774C868.151 490.736 868.474 490.755 868.722 490.85C868.969 490.926 869.102 491.21 869.102 491.666V493.108C869.102 493.754 868.76 494.247 868.075 494.57C867.258 494.893 866.365 495.158 865.414 495.367C864.464 495.576 863.456 495.728 862.449 495.861C861.423 495.975 860.396 496.05 859.408 496.088C858.4 496.145 857.45 496.164 856.537 496.164C854.751 496.164 853.173 496.012 851.747 495.728C850.341 495.424 849.124 494.912 848.136 494.19C847.129 493.45 846.368 492.482 845.836 491.248C845.323 490.014 845.057 488.477 845.057 486.617ZM869.577 470.691C869.577 469.173 869.026 468.072 867.904 467.446C866.783 466.819 865.452 466.496 863.913 466.496C861.727 466.496 859.94 466.838 858.59 467.54C857.222 468.243 856.1 469.116 855.226 470.16C854.371 471.204 853.724 472.286 853.325 473.444C852.907 474.602 852.565 475.608 852.299 476.462L851.614 479.119C852.527 479.119 853.61 479.062 854.865 478.948C856.119 478.834 857.393 478.664 858.723 478.436C860.035 478.208 861.346 477.904 862.639 477.525C863.951 477.126 865.11 476.614 866.137 475.987C867.144 475.361 867.98 474.602 868.627 473.766C869.254 472.893 869.577 471.868 869.577 470.691ZM834.887 495.823C834.241 495.538 833.519 495.044 832.74 494.323C831.941 493.583 831.447 492.634 831.257 491.457H831.067C830.421 491.818 829.565 492.273 828.463 492.824C827.379 493.374 826.182 493.906 824.87 494.418C823.578 494.95 822.247 495.386 820.879 495.747C819.51 496.107 818.236 496.297 817.058 496.297C814.834 496.297 813.104 495.975 811.907 495.348C810.69 494.703 809.854 493.83 809.379 492.71C808.904 491.609 808.694 490.28 808.789 488.724C808.885 487.186 809.113 485.497 809.474 483.675L813.37 463.554C813.56 462.795 814.036 462.396 814.796 462.396H817.666C818.446 462.396 818.769 462.795 818.636 463.554L814.663 483.751C814.34 485.345 814.188 486.636 814.188 487.642C814.188 488.629 814.34 489.426 814.663 490.014C814.986 490.622 815.48 491.02 816.146 491.248C816.792 491.476 817.666 491.59 818.769 491.59C819.586 491.59 820.574 491.438 821.734 491.115C822.893 490.793 824.053 490.432 825.212 490.014C826.372 489.616 827.493 489.179 828.539 488.724C829.584 488.268 830.383 487.907 830.915 487.642L835.629 463.554C835.819 462.795 836.294 462.396 837.073 462.396H839.867C840.647 462.396 840.932 462.795 840.761 463.554L835.971 487.907C835.743 489.141 835.838 490.052 836.256 490.641C836.655 491.229 837.168 491.723 837.758 492.14C838.347 492.539 838.86 492.975 839.316 493.393C839.772 493.83 839.905 494.494 839.734 495.405L837.891 503.396C837.796 503.985 837.644 504.364 837.453 504.554C837.244 504.725 836.997 504.82 836.731 504.82H834.944C834.583 504.82 834.298 504.725 834.089 504.554C833.899 504.364 833.861 503.985 833.994 503.396L834.887 495.823ZM805.045 474.677C804.893 475.228 804.513 475.494 803.885 475.494H785.372C784.687 475.494 784.421 475.228 784.554 474.677L785.087 471.887C785.182 471.508 785.315 471.28 785.467 471.166C785.638 471.052 785.885 470.995 786.246 470.995H804.76C805.083 470.995 805.33 471.052 805.482 471.166C805.634 471.28 805.672 471.508 805.577 471.887L805.045 474.677ZM782.292 466.288C782.159 466.648 781.931 466.876 781.608 466.933C781.285 467.009 780.886 467.009 780.392 466.971C779.023 466.838 777.502 466.686 775.849 466.534C774.176 466.364 772.712 466.288 771.439 466.288C769.88 466.288 768.55 466.496 767.447 466.895C766.326 467.313 765.356 467.996 764.539 468.945C763.722 469.894 763.018 471.166 762.448 472.741C761.878 474.336 761.365 476.31 760.908 478.664C760.699 479.992 760.509 481.169 760.376 482.232C760.243 483.295 760.167 484.301 760.167 485.193C760.129 487.547 760.604 489.198 761.631 490.09C762.657 491.001 764.292 491.457 766.516 491.457C767.067 491.457 767.732 491.438 768.531 491.381C769.329 491.343 770.165 491.286 771.059 491.21C771.952 491.153 772.826 491.077 773.682 491.02C774.556 490.944 775.335 490.869 776.02 490.774C776.419 490.736 776.742 490.755 777.008 490.85C777.255 490.926 777.369 491.21 777.369 491.666V493.108C777.369 493.754 777.027 494.247 776.343 494.57C774.936 495.177 773.245 495.576 771.268 495.823C769.291 496.05 767.428 496.164 765.698 496.164C763.417 496.164 761.574 495.88 760.129 495.31C758.703 494.741 757.563 494 756.708 493.089C755.871 492.178 755.301 491.134 754.978 489.957C754.655 488.781 754.503 487.566 754.503 486.332C754.503 485.193 754.598 483.921 754.769 482.479C754.959 481.055 755.187 479.651 755.453 478.284C755.871 476.101 756.385 474.013 756.993 472.02C757.601 470.027 758.513 468.262 759.692 466.724C760.87 465.206 762.429 463.991 764.33 463.08C766.25 462.169 768.74 461.713 771.838 461.713C772.522 461.713 773.359 461.732 774.309 461.789C775.259 461.827 776.229 461.903 777.198 462.017C778.187 462.15 779.137 462.302 780.068 462.51C781 462.7 781.817 462.966 782.501 463.289C782.825 463.421 782.996 463.63 783.015 463.896C783.034 464.181 782.996 464.446 782.901 464.712L782.292 466.288ZM721.106 486.617C721.106 485.117 721.258 483.599 721.581 482.042C721.904 480.505 722.246 479.005 722.607 477.544C722.912 476.044 723.425 474.374 724.109 472.533C724.793 470.691 725.801 468.964 727.15 467.389C728.481 465.794 730.211 464.465 732.339 463.384C734.449 462.321 737.148 461.789 740.437 461.789C741.843 461.789 743.174 461.96 744.467 462.302C745.74 462.643 746.843 463.156 747.812 463.839C748.762 464.522 749.504 465.358 750.055 466.364C750.606 467.351 750.872 468.509 750.872 469.837C750.872 471.735 750.473 473.406 749.656 474.81C748.838 476.215 747.774 477.43 746.443 478.436C745.132 479.423 743.63 480.239 741.919 480.884C740.228 481.511 738.479 482.023 736.711 482.384C734.944 482.745 733.195 483.01 731.465 483.162C729.735 483.333 728.234 483.409 726.903 483.409C726.637 484.624 726.485 485.725 726.485 486.731C726.485 487.945 726.732 488.876 727.207 489.521C727.682 490.185 728.291 490.641 729.051 490.907C729.792 491.172 730.648 491.343 731.56 491.381C732.492 491.438 733.423 491.457 734.316 491.457C734.868 491.457 735.533 491.438 736.331 491.381C737.129 491.343 737.947 491.286 738.821 491.21C739.677 491.153 740.551 491.077 741.425 491.02C742.319 490.944 743.098 490.869 743.782 490.774C744.181 490.736 744.524 490.755 744.771 490.85C745.018 490.926 745.132 491.21 745.132 491.666V493.108C745.132 493.754 744.79 494.247 744.124 494.57C743.288 494.893 742.414 495.158 741.444 495.367C740.494 495.576 739.505 495.728 738.479 495.861C737.453 495.975 736.445 496.05 735.438 496.088C734.449 496.145 733.48 496.164 732.568 496.164C730.8 496.164 729.203 496.012 727.797 495.728C726.371 495.424 725.173 494.912 724.166 494.19C723.178 493.45 722.417 492.482 721.885 491.248C721.353 490.014 721.106 488.477 721.106 486.617ZM745.626 470.691C745.626 469.173 745.056 468.072 743.953 467.446C742.832 466.819 741.501 466.496 739.943 466.496C737.757 466.496 735.989 466.838 734.62 467.54C733.252 468.243 732.149 469.116 731.275 470.16C730.42 471.204 729.773 472.286 729.355 473.444C728.956 474.602 728.614 475.608 728.348 476.462L727.664 479.119C728.576 479.119 729.64 479.062 730.895 478.948C732.149 478.834 733.442 478.664 734.753 478.436C736.084 478.208 737.396 477.904 738.688 477.525C739.981 477.126 741.14 476.614 742.167 475.987C743.193 475.361 744.029 474.602 744.657 473.766C745.303 472.893 745.626 471.868 745.626 470.691ZM711.887 494.247C711.697 495.158 711.127 495.614 710.176 495.614H708.199C707.059 495.614 706.584 495.158 706.755 494.247L709.492 480.277H692.48L689.743 494.247C689.572 495.158 689.001 495.614 688.051 495.614H685.922C684.877 495.614 684.439 495.158 684.629 494.247L690.579 463.839C690.655 463.289 690.864 462.909 691.149 462.7C691.453 462.51 691.852 462.396 692.347 462.396H694.457C694.97 462.396 695.312 462.51 695.521 462.7C695.73 462.909 695.787 463.289 695.692 463.839L693.373 475.702H710.385L712.704 463.839C712.799 463.289 713.008 462.909 713.351 462.7C713.693 462.51 714.111 462.396 714.605 462.396H716.582C717.095 462.396 717.437 462.51 717.646 462.7C717.855 462.909 717.912 463.289 717.817 463.839L711.887 494.247ZM676.437 494.456C676.247 495.234 675.772 495.614 674.992 495.614H672.122C671.362 495.614 671.039 495.234 671.172 494.456L675.202 473.937C675.753 471.109 675.753 469.154 675.24 468.072C674.707 466.971 673.434 466.421 671.381 466.421C670.564 466.421 669.632 466.572 668.587 466.876C667.522 467.161 666.458 467.521 665.374 467.92C664.272 468.338 663.246 468.774 662.257 469.23C661.288 469.685 660.451 470.065 659.767 470.388C659.767 470.521 659.748 470.748 659.691 471.071C659.653 471.375 659.596 471.735 659.539 472.115C659.463 472.514 659.406 472.874 659.349 473.254C659.311 473.614 659.273 473.88 659.216 474.07L655.262 494.456C655.072 495.234 654.597 495.614 653.818 495.614H650.814C650.13 495.614 649.883 495.234 650.073 494.456L654.16 473.444C654.578 471.223 654.559 469.496 654.141 468.262C653.704 467.047 652.43 466.421 650.339 466.421C649.579 466.421 648.704 466.553 647.754 466.8C646.785 467.047 645.796 467.37 644.751 467.749C643.705 468.148 642.641 468.565 641.595 469.021C640.55 469.477 639.6 469.894 638.725 470.312L634.011 494.456C633.878 495.234 633.422 495.614 632.662 495.614H629.791C629.05 495.614 628.765 495.234 628.898 494.456L634.905 463.554C635.095 462.795 635.551 462.396 636.273 462.396H639.067C639.885 462.396 640.208 462.795 640.037 463.554L639.543 465.946H639.695C640.455 465.49 641.31 465.016 642.242 464.522C643.192 464.01 644.181 463.554 645.226 463.156C646.271 462.738 647.355 462.396 648.457 462.131C649.579 461.846 650.681 461.713 651.784 461.713C654.274 461.713 656.137 462.15 657.334 462.985C658.551 463.82 659.311 465.035 659.634 466.629C661.687 465.396 663.835 464.276 666.078 463.251C668.34 462.226 670.621 461.713 672.959 461.713C675.049 461.713 676.684 462.017 677.863 462.605C679.041 463.194 679.897 464.029 680.391 465.092C680.904 466.155 681.113 467.446 681.037 468.945C680.98 470.445 680.752 472.115 680.391 473.937L676.437 494.456ZM621.238 494.456C621.105 495.234 620.649 495.614 619.888 495.614H617.075C616.258 495.614 615.935 495.234 616.125 494.456L616.6 491.931C616.6 491.894 616.562 491.913 616.467 492.007C615.821 492.368 615.022 492.786 614.034 493.298C613.065 493.792 612 494.266 610.841 494.703C609.662 495.12 608.465 495.5 607.21 495.823C605.956 496.145 604.739 496.297 603.561 496.297C601.337 496.297 599.607 495.975 598.409 495.348C597.193 494.703 596.356 493.83 595.881 492.71C595.406 491.609 595.197 490.28 595.292 488.724C595.387 487.186 595.615 485.497 595.976 483.675L599.873 463.554C600.063 462.795 600.538 462.396 601.299 462.396H604.169C604.948 462.396 605.271 462.795 605.138 463.554L601.166 483.751C600.842 485.345 600.69 486.636 600.69 487.642C600.69 488.629 600.842 489.426 601.166 490.014C601.489 490.622 601.983 491.02 602.629 491.248C603.294 491.476 604.169 491.59 605.271 491.59C606.089 491.59 607.077 491.438 608.236 491.115C609.396 490.793 610.555 490.432 611.715 490.014C612.874 489.616 613.977 489.179 615.041 488.724C616.087 488.268 616.885 487.907 617.417 487.642L622.131 463.554C622.321 462.795 622.797 462.396 623.576 462.396H626.37C627.149 462.396 627.435 462.795 627.263 463.554L621.238 494.456ZM571.19 466.553C568.719 466.553 566.628 467.066 564.86 468.091C563.112 469.116 561.686 470.426 560.565 472.02C559.443 473.614 558.626 475.38 558.112 477.297C557.58 479.233 557.314 481.112 557.314 482.934C557.314 488.439 560.298 491.343 566.267 491.666L571.19 466.553ZM571.247 491.666C573.528 491.609 575.524 491.153 577.234 490.261C578.945 489.369 580.371 488.173 581.53 486.674C582.69 485.174 583.564 483.447 584.134 481.454C584.705 479.48 584.99 477.411 584.99 475.228C584.99 473.994 584.838 472.855 584.572 471.811C584.305 470.767 583.83 469.856 583.165 469.078C582.519 468.319 581.606 467.692 580.466 467.237C579.344 466.781 577.9 466.553 576.17 466.553L571.247 491.666Z" fill="url(#paint0_linear_946_18)"/>
<path d="M574.117 451.558C574.25 450.78 574.706 450.4 575.486 450.4H578.09C578.489 450.4 578.793 450.457 578.964 450.609C579.154 450.742 579.192 451.065 579.116 451.558L577.063 461.846C579.611 461.998 581.72 462.415 583.412 463.156C585.104 463.877 586.434 464.826 587.442 465.984C588.449 467.142 589.153 468.49 589.552 470.008C589.97 471.527 590.179 473.14 590.179 474.81C590.179 477.771 589.742 480.524 588.867 483.105C588.012 485.668 586.738 487.926 585.085 489.844C583.412 491.78 581.359 493.317 578.869 494.456C576.379 495.595 573.547 496.183 570.373 496.221L568.377 506.604C568.301 506.87 568.168 507.117 568.016 507.306C567.845 507.515 567.597 507.61 567.217 507.61H564.347C563.587 507.61 563.264 507.23 563.397 506.452L565.374 496.221C560.964 496.013 557.656 494.798 555.451 492.615C553.227 490.432 552.125 487.357 552.125 483.409C552.125 480.732 552.486 478.113 553.227 475.608C553.95 473.083 555.128 470.824 556.744 468.85C558.36 466.876 560.432 465.263 562.96 464.01C565.488 462.757 568.529 462.036 572.064 461.846L574.117 451.558ZM998.926 481.776C998.394 484.13 997.748 486.218 996.987 488.002C996.246 489.806 995.258 491.324 994.06 492.539C992.843 493.773 991.361 494.703 989.612 495.31C987.863 495.918 985.735 496.221 983.226 496.221C981.952 496.221 980.488 496.088 978.816 495.823C977.162 495.538 975.47 495.044 973.741 494.323L973.664 494.38L971.346 506.319C971.25 506.775 971.117 507.117 970.927 507.306C970.756 507.515 970.414 507.61 969.901 507.61H967.107C966.613 507.61 966.308 507.534 966.213 507.344C966.137 507.155 966.137 506.832 966.213 506.319L974.482 463.554C974.672 462.795 975.128 462.396 975.85 462.396H978.721C979.5 462.396 979.804 462.795 979.671 463.554L979.12 466.155C979.177 466.098 979.215 466.079 979.272 466.079C979.861 465.775 980.621 465.358 981.591 464.864C982.541 464.352 983.587 463.877 984.727 463.421C985.868 462.966 987.046 462.586 988.282 462.264C989.517 461.941 990.696 461.789 991.836 461.789C994.972 461.789 997.177 462.586 998.451 464.181C999.724 465.775 1000.37 468.129 1000.37 471.261C1000.37 471.944 1000.33 472.741 1000.28 473.614C1000.2 474.507 1000.09 475.437 999.953 476.386C999.819 477.335 999.667 478.284 999.477 479.214C999.306 480.144 999.116 480.998 998.926 481.776ZM994.972 471.887C995.01 469.704 994.668 468.262 993.908 467.559C993.167 466.838 991.988 466.496 990.391 466.496C989.574 466.496 988.605 466.629 987.502 466.895C986.381 467.18 985.259 467.521 984.119 467.92C982.978 468.338 981.914 468.774 980.907 469.23C979.899 469.685 979.063 470.065 978.378 470.388L974.558 490.014C976.288 490.565 977.941 490.963 979.538 491.172C981.135 491.419 982.655 491.514 984.119 491.514C985.392 491.514 986.514 491.362 987.502 491.02C988.472 490.679 989.346 490.109 990.087 489.331C990.848 488.572 991.494 487.566 992.045 486.332C992.577 485.117 993.091 483.599 993.547 481.776C993.718 481.036 993.889 480.239 994.06 479.347C994.212 478.455 994.364 477.582 994.497 476.689C994.63 475.797 994.744 474.943 994.839 474.089C994.934 473.254 994.972 472.514 994.972 471.887ZM960.34 494.456C960.169 495.234 959.694 495.614 958.914 495.614H956.044C955.265 495.614 954.961 495.234 955.094 494.456L959.123 473.937C959.656 471.109 959.675 469.154 959.142 468.072C958.629 466.971 957.337 466.421 955.284 466.421C954.466 466.421 953.535 466.572 952.49 466.876C951.444 467.161 950.38 467.521 949.277 467.92C948.194 468.338 947.148 468.774 946.179 469.23C945.191 469.685 944.373 470.065 943.689 470.388C943.689 470.521 943.651 470.748 943.613 471.071C943.575 471.375 943.518 471.735 943.442 472.115C943.366 472.514 943.309 472.874 943.271 473.254C943.233 473.614 943.176 473.88 943.138 474.07L939.184 494.456C938.994 495.234 938.519 495.614 937.739 495.614H934.736C934.052 495.614 933.805 495.234 933.976 494.456L938.082 473.444C938.5 471.223 938.481 469.496 938.044 468.262C937.606 467.047 936.352 466.421 934.261 466.421C933.482 466.421 932.607 466.553 931.657 466.8C930.707 467.047 929.699 467.37 928.654 467.749C927.608 468.148 926.563 468.565 925.517 469.021C924.472 469.477 923.503 469.894 922.647 470.312L917.933 494.456C917.8 495.234 917.344 495.614 916.565 495.614H913.694C912.972 495.614 912.668 495.234 912.82 494.456L918.827 463.554C918.998 462.795 919.454 462.396 920.195 462.396H922.989C923.807 462.396 924.13 462.795 923.94 463.554L923.464 465.946H923.598C924.377 465.49 925.232 465.016 926.164 464.522C927.095 464.01 928.083 463.554 929.129 463.156C930.174 462.738 931.258 462.396 932.379 462.131C933.501 461.846 934.603 461.713 935.687 461.713C938.196 461.713 940.058 462.15 941.256 462.985C942.472 463.82 943.233 465.035 943.537 466.629C945.59 465.396 947.738 464.276 950 463.251C952.262 462.226 954.542 461.713 956.861 461.713C958.952 461.713 960.587 462.017 961.785 462.605C962.963 463.194 963.799 464.029 964.313 465.092C964.807 466.155 965.016 467.446 964.959 468.945C964.883 470.445 964.674 472.115 964.313 473.937L960.34 494.456ZM904.761 494.247C904.571 495.158 904 495.614 903.05 495.614H901.073C899.933 495.614 899.457 495.158 899.629 494.247L902.366 480.277H885.354L882.616 494.247C882.445 495.158 881.875 495.614 880.925 495.614H878.796C877.75 495.614 877.313 495.158 877.503 494.247L883.434 463.839C883.529 463.289 883.719 462.909 884.023 462.7C884.327 462.51 884.726 462.396 885.22 462.396H887.33C887.844 462.396 888.186 462.51 888.395 462.7C888.604 462.909 888.661 463.289 888.566 463.839L886.247 475.702H903.24L905.578 463.839C905.654 463.289 905.882 462.909 906.224 462.7C906.566 462.51 906.985 462.396 907.479 462.396H909.456C909.969 462.396 910.311 462.51 910.52 462.7C910.729 462.909 910.786 463.289 910.691 463.839L904.761 494.247ZM845.057 486.617C845.057 485.117 845.209 483.599 845.532 482.042C845.855 480.505 846.197 479.005 846.558 477.544C846.881 476.044 847.376 474.374 848.06 472.533C848.744 470.691 849.752 468.964 851.101 467.389C852.451 465.794 854.18 464.465 856.29 463.384C858.419 462.321 861.118 461.789 864.388 461.789C865.794 461.789 867.144 461.96 868.417 462.302C869.691 462.643 870.812 463.156 871.763 463.839C872.713 464.522 873.474 465.358 874.025 466.364C874.557 467.351 874.842 468.509 874.842 469.837C874.842 471.735 874.424 473.406 873.607 474.81C872.808 476.215 871.725 477.43 870.413 478.436C869.083 479.423 867.581 480.239 865.87 480.884C864.179 481.511 862.449 482.023 860.681 482.384C858.894 482.745 857.146 483.01 855.435 483.162C853.705 483.333 852.185 483.409 850.873 483.409C850.588 484.624 850.455 485.725 850.455 486.731C850.455 487.945 850.702 488.876 851.177 489.521C851.652 490.185 852.261 490.641 853.002 490.907C853.762 491.172 854.599 491.343 855.511 491.381C856.461 491.438 857.374 491.457 858.267 491.457C858.818 491.457 859.484 491.438 860.282 491.381C861.08 491.343 861.898 491.286 862.772 491.21C863.627 491.153 864.502 491.077 865.395 491.02C866.27 490.944 867.068 490.869 867.733 490.774C868.151 490.736 868.474 490.755 868.722 490.85C868.969 490.926 869.102 491.21 869.102 491.666V493.108C869.102 493.754 868.76 494.247 868.075 494.57C867.258 494.893 866.365 495.158 865.414 495.367C864.464 495.576 863.456 495.728 862.449 495.861C861.423 495.975 860.396 496.05 859.408 496.088C858.4 496.145 857.45 496.164 856.537 496.164C854.751 496.164 853.173 496.012 851.747 495.728C850.341 495.424 849.124 494.912 848.136 494.19C847.129 493.45 846.368 492.482 845.836 491.248C845.323 490.014 845.057 488.477 845.057 486.617ZM869.577 470.691C869.577 469.173 869.026 468.072 867.904 467.446C866.783 466.819 865.452 466.496 863.913 466.496C861.727 466.496 859.94 466.838 858.59 467.54C857.222 468.243 856.1 469.116 855.226 470.16C854.371 471.204 853.724 472.286 853.325 473.444C852.907 474.602 852.565 475.608 852.299 476.462L851.614 479.119C852.527 479.119 853.61 479.062 854.865 478.948C856.119 478.834 857.393 478.664 858.723 478.436C860.035 478.208 861.346 477.904 862.639 477.525C863.951 477.126 865.11 476.614 866.137 475.987C867.144 475.361 867.98 474.602 868.627 473.766C869.254 472.893 869.577 471.868 869.577 470.691ZM834.887 495.823C834.241 495.538 833.519 495.044 832.74 494.323C831.941 493.583 831.447 492.634 831.257 491.457H831.067C830.421 491.818 829.565 492.273 828.463 492.824C827.379 493.374 826.182 493.906 824.87 494.418C823.578 494.95 822.247 495.386 820.879 495.747C819.51 496.107 818.236 496.297 817.058 496.297C814.834 496.297 813.104 495.975 811.907 495.348C810.69 494.703 809.854 493.83 809.379 492.71C808.904 491.609 808.694 490.28 808.789 488.724C808.885 487.186 809.113 485.497 809.474 483.675L813.37 463.554C813.56 462.795 814.036 462.396 814.796 462.396H817.666C818.446 462.396 818.769 462.795 818.636 463.554L814.663 483.751C814.34 485.345 814.188 486.636 814.188 487.642C814.188 488.629 814.34 489.426 814.663 490.014C814.986 490.622 815.48 491.02 816.146 491.248C816.792 491.476 817.666 491.59 818.769 491.59C819.586 491.59 820.574 491.438 821.734 491.115C822.893 490.793 824.053 490.432 825.212 490.014C826.372 489.616 827.493 489.179 828.539 488.724C829.584 488.268 830.383 487.907 830.915 487.642L835.629 463.554C835.819 462.795 836.294 462.396 837.073 462.396H839.867C840.647 462.396 840.932 462.795 840.761 463.554L835.971 487.907C835.743 489.141 835.838 490.052 836.256 490.641C836.655 491.229 837.168 491.723 837.758 492.14C838.347 492.539 838.86 492.975 839.316 493.393C839.772 493.83 839.905 494.494 839.734 495.405L837.891 503.396C837.796 503.985 837.644 504.364 837.453 504.554C837.244 504.725 836.997 504.82 836.731 504.82H834.944C834.583 504.82 834.298 504.725 834.089 504.554C833.899 504.364 833.861 503.985 833.994 503.396L834.887 495.823ZM805.045 474.677C804.893 475.228 804.513 475.494 803.885 475.494H785.372C784.687 475.494 784.421 475.228 784.554 474.677L785.087 471.887C785.182 471.508 785.315 471.28 785.467 471.166C785.638 471.052 785.885 470.995 786.246 470.995H804.76C805.083 470.995 805.33 471.052 805.482 471.166C805.634 471.28 805.672 471.508 805.577 471.887L805.045 474.677ZM782.292 466.288C782.159 466.648 781.931 466.876 781.608 466.933C781.285 467.009 780.886 467.009 780.392 466.971C779.023 466.838 777.502 466.686 775.849 466.534C774.176 466.364 772.712 466.288 771.439 466.288C769.88 466.288 768.55 466.496 767.447 466.895C766.326 467.313 765.356 467.996 764.539 468.945C763.722 469.894 763.018 471.166 762.448 472.741C761.878 474.336 761.365 476.31 760.908 478.664C760.699 479.992 760.509 481.169 760.376 482.232C760.243 483.295 760.167 484.301 760.167 485.193C760.129 487.547 760.604 489.198 761.631 490.09C762.657 491.001 764.292 491.457 766.516 491.457C767.067 491.457 767.732 491.438 768.531 491.381C769.329 491.343 770.165 491.286 771.059 491.21C771.952 491.153 772.826 491.077 773.682 491.02C774.556 490.944 775.335 490.869 776.02 490.774C776.419 490.736 776.742 490.755 777.008 490.85C777.255 490.926 777.369 491.21 777.369 491.666V493.108C777.369 493.754 777.027 494.247 776.343 494.57C774.936 495.177 773.245 495.576 771.268 495.823C769.291 496.05 767.428 496.164 765.698 496.164C763.417 496.164 761.574 495.88 760.129 495.31C758.703 494.741 757.563 494 756.708 493.089C755.871 492.178 755.301 491.134 754.978 489.957C754.655 488.781 754.503 487.566 754.503 486.332C754.503 485.193 754.598 483.921 754.769 482.479C754.959 481.055 755.187 479.651 755.453 478.284C755.871 476.101 756.385 474.013 756.993 472.02C757.601 470.027 758.513 468.262 759.692 466.724C760.87 465.206 762.429 463.991 764.33 463.08C766.25 462.169 768.74 461.713 771.838 461.713C772.522 461.713 773.359 461.732 774.309 461.789C775.259 461.827 776.229 461.903 777.198 462.017C778.187 462.15 779.137 462.302 780.068 462.51C781 462.7 781.817 462.966 782.501 463.289C782.825 463.421 782.996 463.63 783.015 463.896C783.034 464.181 782.996 464.446 782.901 464.712L782.292 466.288ZM721.106 486.617C721.106 485.117 721.258 483.599 721.581 482.042C721.904 480.505 722.246 479.005 722.607 477.544C722.912 476.044 723.425 474.374 724.109 472.533C724.793 470.691 725.801 468.964 727.15 467.389C728.481 465.794 730.211 464.465 732.339 463.384C734.449 462.321 737.148 461.789 740.437 461.789C741.843 461.789 743.174 461.96 744.467 462.302C745.74 462.643 746.843 463.156 747.812 463.839C748.762 464.522 749.504 465.358 750.055 466.364C750.606 467.351 750.872 468.509 750.872 469.837C750.872 471.735 750.473 473.406 749.656 474.81C748.838 476.215 747.774 477.43 746.443 478.436C745.132 479.423 743.63 480.239 741.919 480.884C740.228 481.511 738.479 482.023 736.711 482.384C734.944 482.745 733.195 483.01 731.465 483.162C729.735 483.333 728.234 483.409 726.903 483.409C726.637 484.624 726.485 485.725 726.485 486.731C726.485 487.945 726.732 488.876 727.207 489.521C727.682 490.185 728.291 490.641 729.051 490.907C729.792 491.172 730.648 491.343 731.56 491.381C732.492 491.438 733.423 491.457 734.316 491.457C734.868 491.457 735.533 491.438 736.331 491.381C737.129 491.343 737.947 491.286 738.821 491.21C739.677 491.153 740.551 491.077 741.425 491.02C742.319 490.944 743.098 490.869 743.782 490.774C744.181 490.736 744.524 490.755 744.771 490.85C745.018 490.926 745.132 491.21 745.132 491.666V493.108C745.132 493.754 744.79 494.247 744.124 494.57C743.288 494.893 742.414 495.158 741.444 495.367C740.494 495.576 739.505 495.728 738.479 495.861C737.453 495.975 736.445 496.05 735.438 496.088C734.449 496.145 733.48 496.164 732.568 496.164C730.8 496.164 729.203 496.012 727.797 495.728C726.371 495.424 725.173 494.912 724.166 494.19C723.178 493.45 722.417 492.482 721.885 491.248C721.353 490.014 721.106 488.477 721.106 486.617ZM745.626 470.691C745.626 469.173 745.056 468.072 743.953 467.446C742.832 466.819 741.501 466.496 739.943 466.496C737.757 466.496 735.989 466.838 734.62 467.54C733.252 468.243 732.149 469.116 731.275 470.16C730.42 471.204 729.773 472.286 729.355 473.444C728.956 474.602 728.614 475.608 728.348 476.462L727.664 479.119C728.576 479.119 729.64 479.062 730.895 478.948C732.149 478.834 733.442 478.664 734.753 478.436C736.084 478.208 737.396 477.904 738.688 477.525C739.981 477.126 741.14 476.614 742.167 475.987C743.193 475.361 744.029 474.602 744.657 473.766C745.303 472.893 745.626 471.868 745.626 470.691ZM711.887 494.247C711.697 495.158 711.127 495.614 710.176 495.614H708.199C707.059 495.614 706.584 495.158 706.755 494.247L709.492 480.277H692.48L689.743 494.247C689.572 495.158 689.001 495.614 688.051 495.614H685.922C684.877 495.614 684.439 495.158 684.629 494.247L690.579 463.839C690.655 463.289 690.864 462.909 691.149 462.7C691.453 462.51 691.852 462.396 692.347 462.396H694.457C694.97 462.396 695.312 462.51 695.521 462.7C695.73 462.909 695.787 463.289 695.692 463.839L693.373 475.702H710.385L712.704 463.839C712.799 463.289 713.008 462.909 713.351 462.7C713.693 462.51 714.111 462.396 714.605 462.396H716.582C717.095 462.396 717.437 462.51 717.646 462.7C717.855 462.909 717.912 463.289 717.817 463.839L711.887 494.247ZM676.437 494.456C676.247 495.234 675.772 495.614 674.992 495.614H672.122C671.362 495.614 671.039 495.234 671.172 494.456L675.202 473.937C675.753 471.109 675.753 469.154 675.24 468.072C674.707 466.971 673.434 466.421 671.381 466.421C670.564 466.421 669.632 466.572 668.587 466.876C667.522 467.161 666.458 467.521 665.374 467.92C664.272 468.338 663.246 468.774 662.257 469.23C661.288 469.685 660.451 470.065 659.767 470.388C659.767 470.521 659.748 470.748 659.691 471.071C659.653 471.375 659.596 471.735 659.539 472.115C659.463 472.514 659.406 472.874 659.349 473.254C659.311 473.614 659.273 473.88 659.216 474.07L655.262 494.456C655.072 495.234 654.597 495.614 653.818 495.614H650.814C650.13 495.614 649.883 495.234 650.073 494.456L654.16 473.444C654.578 471.223 654.559 469.496 654.141 468.262C653.704 467.047 652.43 466.421 650.339 466.421C649.579 466.421 648.704 466.553 647.754 466.8C646.785 467.047 645.796 467.37 644.751 467.749C643.705 468.148 642.641 468.565 641.595 469.021C640.55 469.477 639.6 469.894 638.725 470.312L634.011 494.456C633.878 495.234 633.422 495.614 632.662 495.614H629.791C629.05 495.614 628.765 495.234 628.898 494.456L634.905 463.554C635.095 462.795 635.551 462.396 636.273 462.396H639.067C639.885 462.396 640.208 462.795 640.037 463.554L639.543 465.946H639.695C640.455 465.49 641.31 465.016 642.242 464.522C643.192 464.01 644.181 463.554 645.226 463.156C646.271 462.738 647.355 462.396 648.457 462.131C649.579 461.846 650.681 461.713 651.784 461.713C654.274 461.713 656.137 462.15 657.334 462.985C658.551 463.82 659.311 465.035 659.634 466.629C661.687 465.396 663.835 464.276 666.078 463.251C668.34 462.226 670.621 461.713 672.959 461.713C675.049 461.713 676.684 462.017 677.863 462.605C679.041 463.194 679.897 464.029 680.391 465.092C680.904 466.155 681.113 467.446 681.037 468.945C680.98 470.445 680.752 472.115 680.391 473.937L676.437 494.456ZM621.238 494.456C621.105 495.234 620.649 495.614 619.888 495.614H617.075C616.258 495.614 615.935 495.234 616.125 494.456L616.6 491.931C616.6 491.894 616.562 491.913 616.467 492.007C615.821 492.368 615.022 492.786 614.034 493.298C613.065 493.792 612 494.266 610.841 494.703C609.662 495.12 608.465 495.5 607.21 495.823C605.956 496.145 604.739 496.297 603.561 496.297C601.337 496.297 599.607 495.975 598.409 495.348C597.193 494.703 596.356 493.83 595.881 492.71C595.406 491.609 595.197 490.28 595.292 488.724C595.387 487.186 595.615 485.497 595.976 483.675L599.873 463.554C600.063 462.795 600.538 462.396 601.299 462.396H604.169C604.948 462.396 605.271 462.795 605.138 463.554L601.166 483.751C600.842 485.345 600.69 486.636 600.69 487.642C600.69 488.629 600.842 489.426 601.166 490.014C601.489 490.622 601.983 491.02 602.629 491.248C603.294 491.476 604.169 491.59 605.271 491.59C606.089 491.59 607.077 491.438 608.236 491.115C609.396 490.793 610.555 490.432 611.715 490.014C612.874 489.616 613.977 489.179 615.041 488.724C616.087 488.268 616.885 487.907 617.417 487.642L622.131 463.554C622.321 462.795 622.797 462.396 623.576 462.396H626.37C627.149 462.396 627.435 462.795 627.263 463.554L621.238 494.456ZM571.19 466.553C568.719 466.553 566.628 467.066 564.86 468.091C563.112 469.116 561.686 470.426 560.565 472.02C559.443 473.614 558.626 475.38 558.112 477.297C557.58 479.233 557.314 481.112 557.314 482.934C557.314 488.439 560.298 491.343 566.267 491.666L571.19 466.553ZM571.247 491.666C573.528 491.609 575.524 491.153 577.234 490.261C578.945 489.369 580.371 488.173 581.53 486.674C582.69 485.174 583.564 483.447 584.134 481.454C584.705 479.48 584.99 477.411 584.99 475.228C584.99 473.994 584.838 472.855 584.572 471.811C584.305 470.767 583.83 469.856 583.165 469.078C582.519 468.319 581.606 467.692 580.466 467.237C579.344 466.781 577.9 466.553 576.17 466.553L571.247 491.666Z" stroke="white" stroke-opacity="0.9" stroke-width="18" mask="url(#path-1-outside-1_946_18)"/>
</g>
<path fill-rule="evenodd" clip-rule="evenodd" d="M1141.71 276.455H1222.04L1216.85 289.533C1213.43 298.151 1206.91 304.889 1197.98 305.553L1158.57 308.495C1157.49 308.495 1156.73 308.989 1156.41 309.615C1156.06 310.28 1156.22 311.096 1157.03 311.627L1199.02 342.187C1209.48 350.16 1207.9 368.439 1199.67 378.081C1191.44 387.743 1184.33 389.565 1175.95 389.489H1090.79L1096.23 375.86C1099.65 367.243 1106.19 360.315 1115.08 359.84L1158.67 357.467C1159.62 357.467 1160.64 356.86 1160.81 355.854C1160.97 355.038 1160.47 354.563 1159.94 354.165L1118.64 323.775C1108.26 315.651 1107.8 299.802 1117.99 287.863C1124.36 280.384 1133.33 276.398 1141.71 276.455ZM613.215 349.229L606.106 389.489H576.035C574.933 389.489 574.191 388.597 574.381 387.496L589.417 302.327C591.926 288.109 605.649 276.455 619.886 276.455C643.969 276.455 668.053 276.455 692.117 276.455L685.768 292.475C682.347 301.093 675.732 308.495 666.893 308.495C651.402 308.495 635.91 308.495 620.4 308.495L618.043 321.877C652.181 321.877 642.715 321.877 676.853 321.877L672.348 333.228C668.927 341.827 662.312 349.229 653.473 349.229C628.82 349.229 637.868 349.229 613.215 349.229ZM766.552 389.489H794.627C795.729 389.489 796.793 388.597 796.984 387.496L810.935 308.495H830.228C839.067 308.495 845.682 301.093 849.103 292.475L855.471 276.455C821.998 276.455 788.544 276.455 755.09 276.455C753.988 276.455 752.923 277.366 752.714 278.467L747.772 306.502C747.582 307.603 748.323 308.495 749.426 308.495H801.774C802.059 308.495 802.287 308.704 802.306 308.97C802.344 309.236 802.173 309.501 801.907 309.558L781.511 314.266C779.23 314.797 777.405 316.695 777.006 318.935L764.898 387.496C764.708 388.597 765.449 389.489 766.552 389.489ZM686.965 387.496C686.756 388.597 687.498 389.489 688.6 389.489H716.675C717.777 389.489 718.842 388.597 719.032 387.496L738.99 274.519L722.32 278.049C713.368 279.947 705.004 285.243 703.445 294.07L686.965 387.496ZM1059.79 315.139L1062.92 308.495H1018.18L1014.55 328.388L1055.51 318.916C1057.49 318.461 1058.91 316.98 1059.79 315.139ZM1010.44 352.399L1008.96 359.821H1060.95C1069.71 359.821 1073.78 367.224 1074.16 375.841L1074.75 389.489C1050.68 389.489 1021.79 389.489 997.708 389.489C983.471 389.489 973.853 377.853 976.381 363.617C979.973 343.193 983.585 322.769 987.196 302.327C989.705 288.109 1003.43 276.455 1017.67 276.455H1096.64C1098.85 276.455 1100.56 278.277 1099.93 280.46L1086.42 328.331C1084.54 335.506 1079.1 341.979 1068.89 343.516L1010.44 352.399ZM1261.67 276.455H1342L1336.79 289.533C1333.37 298.151 1326.85 304.889 1317.93 305.553L1278.53 308.495C1277.45 308.495 1276.67 308.989 1276.35 309.615C1276 310.28 1276.16 311.096 1276.99 311.627L1318.98 342.187C1329.42 350.16 1327.86 368.439 1319.63 378.081C1311.4 387.743 1304.27 389.565 1295.89 389.489H1210.75L1216.17 375.86C1219.59 367.243 1226.13 360.315 1235.04 359.84L1278.63 357.467C1279.58 357.467 1280.58 356.86 1280.77 355.854C1280.91 355.038 1280.41 354.563 1279.9 354.165L1238.58 323.775C1228.22 315.651 1227.76 299.802 1237.93 287.863C1244.3 280.384 1253.29 276.398 1261.67 276.455ZM897.65 276.455L924.47 332.298L924.584 332.545L925.648 334.747L926.01 335.468L933.86 351.754C933.974 352.001 934.259 352.115 934.506 352.039C934.772 351.944 934.924 351.697 934.867 351.431L930.724 328.825L936.863 294.07C938.422 285.243 946.766 279.947 955.719 278.049L972.389 274.519L962.448 330.742L952.089 389.489H935.076C919.528 389.489 914.776 383.491 911.278 376.088L891.377 334.063L887.233 325.484H887.214L883.147 317.056C883.033 316.809 882.766 316.695 882.5 316.771C882.234 316.866 882.082 317.132 882.139 317.379L886.321 340.175L886.397 340.137L878.033 387.496C877.843 388.597 876.779 389.489 875.676 389.489H845.606L865.203 278.467C865.412 277.366 866.458 276.455 867.56 276.455H897.65Z" fill="#FEFEFE"/>
<path fill-rule="evenodd" clip-rule="evenodd" d="M713.502 237.182C713.312 238.283 714.053 239.194 715.156 239.194H743.212C744.314 239.194 745.378 238.283 745.588 237.182L765.527 124.224L748.857 127.755C739.904 129.653 731.56 134.949 730.001 143.756L713.502 237.182ZM631.958 207.154H684.781C693.62 207.154 697.611 214.557 697.992 223.174L698.714 239.194H618.139C603.883 239.194 594.284 227.54 596.793 213.323L607.628 152.032C610.137 137.796 623.842 126.16 638.098 126.16H718.672L712.305 142.181C708.883 150.779 702.268 158.182 693.43 158.182H638.611L630.323 205.161C630.114 206.262 630.855 207.154 631.958 207.154ZM1171.19 126.16H1251.52L1246.33 139.239C1242.91 147.856 1236.39 154.595 1227.46 155.259L1188.05 158.182C1186.99 158.182 1186.21 158.695 1185.89 159.321C1185.55 159.985 1185.7 160.782 1186.52 161.314L1228.5 191.874C1238.96 199.865 1237.38 218.125 1229.15 227.787C1220.92 237.448 1213.81 239.251 1205.43 239.194H1120.29L1125.71 225.547C1129.13 216.929 1135.67 210.02 1144.56 209.527L1188.15 207.154C1189.12 207.154 1190.13 206.547 1190.3 205.56C1190.45 204.743 1189.96 204.269 1189.44 203.851L1148.12 173.462C1137.44 165.869 1137.28 149.508 1147.47 137.568C1153.84 130.09 1162.81 126.085 1171.19 126.16ZM1079.84 207.154L1091.11 143.301C1092.67 134.474 1101.02 129.178 1109.99 127.28L1126.64 123.75L1110.83 213.323C1108.32 227.54 1094.61 239.194 1080.36 239.194H1023.27C1009.04 239.194 999.439 227.54 1001.95 213.323C1006.79 185.876 1011.64 158.41 1016.49 130.963C1016.96 128.305 1019.49 126.16 1022.15 126.16H1044.6C1047.3 126.16 1049.03 128.362 1048.57 130.963C1044.09 156.36 1039.6 181.757 1035.12 207.154H1079.84ZM957.032 168.717L960.853 158.182H916.127L911.793 181.966L952.755 172.494C954.732 172.038 956.348 170.615 957.032 168.717ZM908.372 202.086L907.478 207.154L901.814 239.194H871.743C870.641 239.194 869.9 238.283 870.09 237.182L885.125 152.032C887.653 137.796 901.358 126.16 915.595 126.16H994.573C996.778 126.16 998.488 127.964 997.88 130.166L984.346 178.018C982.465 185.193 977.047 191.665 966.821 193.222L950.341 195.727L985.563 235.74C986.057 236.309 986.095 237.145 985.658 237.923C985.202 238.701 984.404 239.194 983.567 239.194H953.459C946.977 239.194 941.16 237.657 937.587 232.912L913.808 201.27L908.372 202.086ZM793.088 239.194H821.163C822.266 239.194 823.33 238.283 823.52 237.182L837.472 158.182H856.784C865.604 158.182 872.219 150.779 875.64 142.181L882.008 126.16C848.554 126.16 815.081 126.16 781.627 126.16C780.524 126.16 779.46 127.053 779.27 128.153L774.309 156.189C774.118 157.29 774.86 158.182 775.962 158.182H828.329C828.595 158.182 828.823 158.391 828.861 158.657C828.899 158.941 828.709 159.188 828.443 159.245L808.067 163.952C805.786 164.484 803.942 166.382 803.562 168.641L791.454 237.182C791.245 238.283 791.986 239.194 793.088 239.194Z" fill="#FEFEFE"/>
<path fill-rule="evenodd" clip-rule="evenodd" d="M133.854 88.2357C139.1 95.9801 144.08 106.173 147.217 113.063C130.68 110.899 93.2911 104.484 72.6104 89.0898C52.652 74.2274 30.6028 37.0429 20.2055 18.1754C31.3631 22.6361 48.0521 29.7541 60.2742 37.0429L60.8255 37.3656C81.202 49.5137 125.567 75.9737 133.854 88.2357ZM159.534 116.936C159.515 116.879 151.208 96.5305 141.932 82.807C132.447 68.7608 86.7903 41.5415 65.8055 29.0328L65.2543 28.7101C44.9413 16.5985 13.2101 5.06339 11.496 4.4403L11.4238 4.41394L0 0.389893L5.45528 11.1903C5.45724 11.1938 5.47276 11.2242 5.50154 11.2807C6.87284 13.9701 38.3469 75.6973 66.794 96.8912C95.6302 118.366 152.873 123.497 154.591 123.651L154.63 123.655L162.651 124.376L159.534 116.936ZM480.406 328.502C491.373 312.785 499.737 295.417 505.249 277.157L507.853 268.559L475.72 280.535C482.038 274.5 488.785 267.616 495.281 260.988L495.282 260.987C500.19 255.98 504.954 251.119 509.281 246.882C509.984 246.18 510.573 245.477 511.01 244.775C511.613 243.795 511.997 242.752 512.093 241.676C512.681 240.632 512.757 239.519 512.868 237.87L512.871 237.828L512.909 237.277C513.879 224.142 513.536 209.28 511.883 195.404C510.324 182.307 507.587 170.007 503.709 160.763C502.341 157.518 499.033 151.652 495.327 145.446C490.423 137.265 484.72 128.362 481.831 124.186L479.835 121.282C448.446 130.538 419.035 139.841 390.537 149.355C398.101 139.229 404.974 129.552 411.007 120.637C420.074 107.274 427.506 95.2967 432.771 85.901C434.881 82.1047 432.543 79.5232 432.543 79.5232L432.07 79.3054C431.573 78.169 430.592 77.0926 429.084 76.0496C419.827 69.6909 408.27 62.5349 398.082 56.9734C388.958 51.9813 380.785 48.223 376.071 47.2929C371.889 46.4956 355.2 44.8063 337.694 44.104C326.327 43.6484 314.542 43.5915 305.437 44.4267L304.354 44.5406L223.883 90.9508L283.331 36.8531L257.537 32.2027L256.226 32.0888C253.725 33.037 251.104 34.0075 248.402 35.008C214.488 47.5665 167.781 64.8623 184.718 102.415L188.796 111.187L171.127 121.377L171.203 121.32L170.956 121.491C168.124 123.275 163.106 127.375 157.821 134.171C154.305 138.707 150.617 144.496 147.31 151.671C143.128 160.764 142.064 173.88 140.809 189.482C140.391 194.873 139.935 200.567 139.403 205.635L138.566 213.949L239.252 169.469C205.793 198.37 169.524 221.275 154.428 230.808L154.343 230.862L150.256 233.443C148.773 234.392 147.462 235.645 146.569 236.86C145.162 238.77 144.533 240.976 145.009 242.93C144.991 243.204 145.004 243.514 145.048 243.864L145.181 244.794C146.398 254.361 149.116 266.186 152.119 276.986C156.073 291.241 160.597 304.035 162.745 307.774C164.664 311.096 166.622 314.228 168.808 317.189C171.032 320.226 173.522 323.168 176.449 326.091L178.54 328.141L325.958 281.737C311.743 290.968 297.572 299.559 284.245 307.262C253.7 324.933 227.697 337.879 215.817 343.08L213.403 344.124L213.401 344.134C212.818 344.404 212.368 344.665 212.127 344.902C208.535 348.508 209.808 350.273 213.154 353.614C223.798 364.244 236.248 373.526 249.573 381.08C263.202 388.825 277.781 394.766 292.341 398.543L293.234 398.771L305.703 397.176C317.012 395.739 327.464 394.41 337.456 393.02L336.762 399.359L336.021 404.2L340.925 404.864C348.68 405.927 371.775 408.47 391.905 408.774C410.703 408.072 437.029 402.624 443.454 381.915L445.032 375.177L407.928 380.302L400.113 381.381C412.419 378.323 425.343 374.6 439.652 369.881L440.413 369.635L441.059 369.16C456.513 357.619 469.704 343.839 480.406 328.502ZM372.859 158.823C365.246 161.684 357.711 164.516 350.227 167.329C298.892 186.56 213.183 218.318 161.585 236.575C182.488 222.681 234.828 185.326 265.798 157.742L265.92 157.689L267.099 156.578C270.568 153.459 273.747 150.473 276.56 147.671C276.561 147.669 276.563 147.668 276.564 147.666L423.544 82.7206C418.907 90.315 408.636 106.778 402.929 115.189C400.888 118.207 398.556 121.728 396.05 125.513C388.892 136.322 380.313 149.276 373.048 158.751C372.986 158.775 372.922 158.799 372.859 158.823ZM264.352 147.795C263.563 148.129 262.767 148.466 261.966 148.805L261.072 149.185L260.983 149.277C229.115 163.297 197.266 177.374 165.399 191.458L165.398 191.459L165.397 191.46C160.217 193.749 155.038 196.038 149.857 198.328L150.522 190.242L150.526 190.202C151.703 175.547 152.692 163.224 156.149 155.752C159.133 149.28 162.421 144.117 165.52 140.112C169.873 134.512 173.769 131.229 175.993 129.767L307.395 53.9933C315.854 53.291 326.726 53.3669 337.314 53.8035C354.307 54.4868 370.311 56.0812 374.227 56.8405C377.934 57.5618 385.119 60.9405 393.444 65.496C401.496 69.9022 410.501 75.3544 418.457 80.6112C407.291 85.4453 397.465 89.7388 388.388 93.7289C346.953 111.582 305.635 129.639 264.352 147.795ZM455.144 288.204C411.079 302.076 323.964 323.75 266.612 336.796C259.317 338.176 252.19 339.418 245.279 340.498C255.23 335.263 273.586 324.654 286.512 317.184L286.65 317.104C287.502 316.611 288.33 316.133 289.13 315.67C309.449 303.919 338.945 283.162 360.826 267.764L363.014 266.224C376.268 261.679 384.807 258.811 394.792 255.457C396.149 255.001 397.533 254.536 398.958 254.057C403.938 253.309 408.87 252.599 413.793 251.914L473.281 244.327C482.514 243.184 492.128 241.98 502.305 240.656C495.243 247.311 487.669 255.267 480.161 263.153L480.161 263.153C471.449 272.303 462.827 281.36 455.195 288.185L455.144 288.204ZM503.272 235.607L410.56 248.861C405.674 249.558 401.116 250.21 396.537 250.866L395.86 250.963L395.858 250.963L351.922 264.51C351.622 264.594 351.321 264.678 351.02 264.762L350.958 264.807L181.315 317.113C179.605 315.272 178.065 313.393 176.639 311.438C174.625 308.704 172.857 305.876 171.165 302.934C169.359 299.802 165.254 287.977 161.49 274.405C158.829 264.8 156.396 254.437 155.122 245.819L385.898 159.112L475.806 132.595C478.809 137.151 483.143 144.003 486.982 150.438C490.48 156.284 493.54 161.694 494.719 164.541C498.254 172.931 500.763 184.3 502.208 196.543C503.747 209.47 504.108 223.307 503.272 235.607ZM254.382 372.653C243.885 366.686 233.975 359.602 225.133 351.57C226.724 351.353 228.456 351.045 230.32 350.653C237.6 349.135 248.073 346.686 260.619 343.649C279.678 338.483 304.789 332.007 331.388 325.148C334.057 324.459 336.742 323.767 339.437 323.072C390.907 310.772 442.264 298.066 493.046 283.06C487.971 297.145 481.033 310.583 472.403 322.94C462.443 337.233 450.183 350.084 435.851 360.884C386.399 377.118 353.624 381.301 304.619 387.555L304.618 387.555L304.487 387.572L293.88 388.92C280.461 385.351 267.003 379.809 254.382 372.653ZM349.65 397.746L435.718 382.827C428.704 394.215 408.422 402.605 390.004 401.03C383.256 400.935 355.2 399.587 349.65 397.746ZM264.057 42.4147L195.495 101.029C182.177 70.7358 218.083 56.7043 242.967 46.9799C249.017 44.6154 254.416 42.5056 258.298 40.4786C259.894 40.8392 262.479 41.7693 264.057 42.4147Z" fill="#FEFEFE"/>
<path d="M272.384 161.048C273.843 161.048 275.026 159.867 275.026 158.41C275.026 156.953 273.843 155.771 272.384 155.771C270.925 155.771 269.742 156.953 269.742 158.41C269.742 159.867 270.925 161.048 272.384 161.048Z" fill="#FEFEFE"/>
<path d="M262.634 171.754C264.093 171.754 265.276 170.572 265.276 169.115C265.276 167.658 264.093 166.477 262.634 166.477C261.175 166.477 259.992 167.658 259.992 169.115C259.992 170.572 261.175 171.754 262.634 171.754Z" fill="#FEFEFE"/>
<path d="M252.541 182.725C254 182.725 255.183 181.544 255.183 180.087C255.183 178.629 254 177.448 252.541 177.448C251.081 177.448 249.898 178.629 249.898 180.087C249.898 181.544 251.081 182.725 252.541 182.725Z" fill="#FEFEFE"/>
<path d="M242.142 192.804C243.601 192.804 244.784 191.623 244.784 190.166C244.784 188.708 243.601 187.527 242.142 187.527C240.683 187.527 239.5 188.708 239.5 190.166C239.5 191.623 240.683 192.804 242.142 192.804Z" fill="#FEFEFE"/>
<path d="M232.658 203.187C234.117 203.187 235.3 202.006 235.3 200.548C235.3 199.091 234.117 197.91 232.658 197.91C231.199 197.91 230.016 199.091 230.016 200.548C230.016 202.006 231.199 203.187 232.658 203.187Z" fill="#FEFEFE"/>
<path d="M221.955 213.854C223.414 213.854 224.597 212.673 224.597 211.216C224.597 209.759 223.414 208.578 221.955 208.578C220.495 208.578 219.312 209.759 219.312 211.216C219.312 212.673 220.495 213.854 221.955 213.854Z" fill="#FEFEFE"/>
<path d="M303.044 150.722C304.504 150.722 305.687 149.541 305.687 148.084C305.687 146.627 304.504 145.446 303.044 145.446C301.585 145.446 300.402 146.627 300.402 148.084C300.402 149.541 301.585 150.722 303.044 150.722Z" fill="#FEFEFE"/>
<path d="M293.275 161.428C294.734 161.428 295.917 160.247 295.917 158.789C295.917 157.332 294.734 156.151 293.275 156.151C291.816 156.151 290.633 157.332 290.633 158.789C290.633 160.247 291.816 161.428 293.275 161.428Z" fill="#FEFEFE"/>
<path d="M283.201 172.399C284.66 172.399 285.843 171.218 285.843 169.761C285.843 168.304 284.66 167.122 283.201 167.122C281.742 167.122 280.559 168.304 280.559 169.761C280.559 171.218 281.742 172.399 283.201 172.399Z" fill="#FEFEFE"/>
<path d="M272.802 182.478C274.261 182.478 275.444 181.297 275.444 179.84C275.444 178.383 274.261 177.201 272.802 177.201C271.343 177.201 270.16 178.383 270.16 179.84C270.16 181.297 271.343 182.478 272.802 182.478Z" fill="#FEFEFE"/>
<path d="M263.298 192.842C264.758 192.842 265.94 191.661 265.94 190.204C265.94 188.746 264.758 187.565 263.298 187.565C261.839 187.565 260.656 188.746 260.656 190.204C260.656 191.661 261.839 192.842 263.298 192.842Z" fill="#FEFEFE"/>
<path d="M252.615 203.529C254.074 203.529 255.257 202.347 255.257 200.89C255.257 199.433 254.074 198.252 252.615 198.252C251.156 198.252 249.973 199.433 249.973 200.89C249.973 202.347 251.156 203.529 252.615 203.529Z" fill="#FEFEFE"/>
<path d="M333.302 139.998C334.761 139.998 335.944 138.817 335.944 137.359C335.944 135.902 334.761 134.721 333.302 134.721C331.843 134.721 330.66 135.902 330.66 137.359C330.66 138.817 331.843 139.998 333.302 139.998Z" fill="#FEFEFE"/>
<path d="M323.533 150.703C324.992 150.703 326.175 149.522 326.175 148.065C326.175 146.608 324.992 145.427 323.533 145.427C322.074 145.427 320.891 146.608 320.891 148.065C320.891 149.522 322.074 150.703 323.533 150.703Z" fill="#FEFEFE"/>
<path d="M313.439 161.675C314.898 161.675 316.081 160.493 316.081 159.036C316.081 157.579 314.898 156.398 313.439 156.398C311.98 156.398 310.797 157.579 310.797 159.036C310.797 160.493 311.98 161.675 313.439 161.675Z" fill="#FEFEFE"/>
<path d="M303.064 171.754C304.523 171.754 305.706 170.572 305.706 169.115C305.706 167.658 304.523 166.477 303.064 166.477C301.605 166.477 300.422 167.658 300.422 169.115C300.422 170.572 301.605 171.754 303.064 171.754Z" fill="#FEFEFE"/>
<path d="M293.56 182.118C295.019 182.118 296.202 180.936 296.202 179.479C296.202 178.022 295.019 176.841 293.56 176.841C292.101 176.841 290.918 178.022 290.918 179.479C290.918 180.936 292.101 182.118 293.56 182.118Z" fill="#FEFEFE"/>
<path d="M282.877 192.804C284.336 192.804 285.519 191.623 285.519 190.166C285.519 188.708 284.336 187.527 282.877 187.527C281.417 187.527 280.234 188.708 280.234 190.166C280.234 191.623 281.417 192.804 282.877 192.804Z" fill="#FEFEFE"/>
<path d="M363.376 129.653C364.836 129.653 366.019 128.472 366.019 127.015C366.019 125.557 364.836 124.376 363.376 124.376C361.917 124.376 360.734 125.557 360.734 127.015C360.734 128.472 361.917 129.653 363.376 129.653Z" fill="#FEFEFE"/>
<path d="M353.603 140.377C355.062 140.377 356.245 139.196 356.245 137.739C356.245 136.282 355.062 135.101 353.603 135.101C352.144 135.101 350.961 136.282 350.961 137.739C350.961 139.196 352.144 140.377 353.603 140.377Z" fill="#FEFEFE"/>
<path d="M343.513 151.33C344.972 151.33 346.155 150.148 346.155 148.691C346.155 147.234 344.972 146.053 343.513 146.053C342.054 146.053 340.871 147.234 340.871 148.691C340.871 150.148 342.054 151.33 343.513 151.33Z" fill="#FEFEFE"/>
<path d="M333.115 161.409C334.574 161.409 335.757 160.228 335.757 158.77C335.757 157.313 334.574 156.132 333.115 156.132C331.656 156.132 330.473 157.313 330.473 158.77C330.473 160.228 331.656 161.409 333.115 161.409Z" fill="#FEFEFE"/>
<path d="M323.63 171.792C325.09 171.792 326.272 170.61 326.272 169.153C326.272 167.696 325.09 166.515 323.63 166.515C322.171 166.515 320.988 167.696 320.988 169.153C320.988 170.61 322.171 171.792 323.63 171.792Z" fill="#FEFEFE"/>
<path d="M312.927 182.459C314.386 182.459 315.569 181.278 315.569 179.821C315.569 178.364 314.386 177.182 312.927 177.182C311.468 177.182 310.285 178.364 310.285 179.821C310.285 181.278 311.468 182.459 312.927 182.459Z" fill="#FEFEFE"/>
<path d="M403.787 109.001C405.246 109.001 406.429 107.82 406.429 106.363C406.429 104.906 405.246 103.724 403.787 103.724C402.327 103.724 401.145 104.906 401.145 106.363C401.145 107.82 402.327 109.001 403.787 109.001Z" fill="#FEFEFE"/>
<path d="M394.017 119.707C395.476 119.707 396.659 118.526 396.659 117.068C396.659 115.611 395.476 114.43 394.017 114.43C392.558 114.43 391.375 115.611 391.375 117.068C391.375 118.526 392.558 119.707 394.017 119.707Z" fill="#FEFEFE"/>
<path d="M383.923 130.678C385.383 130.678 386.565 129.497 386.565 128.04C386.565 126.582 385.383 125.401 383.923 125.401C382.464 125.401 381.281 126.582 381.281 128.04C381.281 129.497 382.464 130.678 383.923 130.678Z" fill="#FEFEFE"/>
<path d="M373.525 140.757C374.984 140.757 376.167 139.576 376.167 138.119C376.167 136.662 374.984 135.48 373.525 135.48C372.066 135.48 370.883 136.662 370.883 138.119C370.883 139.576 372.066 140.757 373.525 140.757Z" fill="#FEFEFE"/>
<path d="M364.041 151.121C365.5 151.121 366.683 149.94 366.683 148.483C366.683 147.025 365.5 145.844 364.041 145.844C362.581 145.844 361.398 147.025 361.398 148.483C361.398 149.94 362.581 151.121 364.041 151.121Z" fill="#FEFEFE"/>
<path d="M353.337 161.807C354.797 161.807 355.98 160.626 355.98 159.169C355.98 157.712 354.797 156.531 353.337 156.531C351.878 156.531 350.695 157.712 350.695 159.169C350.695 160.626 351.878 161.807 353.337 161.807Z" fill="#FEFEFE"/>
<path d="M373.716 119.365C375.176 119.365 376.358 118.184 376.358 116.727C376.358 115.27 375.176 114.088 373.716 114.088C372.257 114.088 371.074 115.27 371.074 116.727C371.074 118.184 372.257 119.365 373.716 119.365Z" fill="#FEFEFE"/>
<path d="M394.13 140.264C395.59 140.264 396.772 139.082 396.772 137.625C396.772 136.168 395.59 134.987 394.13 134.987C392.671 134.987 391.488 136.168 391.488 137.625C391.488 139.082 392.671 140.264 394.13 140.264Z" fill="#FEFEFE"/>
<path d="M314.029 137.929C315.488 137.929 316.671 136.748 316.671 135.29C316.671 133.833 315.488 132.652 314.029 132.652C312.57 132.652 311.387 133.833 311.387 135.29C311.387 136.748 312.57 137.929 314.029 137.929Z" fill="#FEFEFE"/>
<path d="M343.263 129.691C344.722 129.691 345.905 128.51 345.905 127.053C345.905 125.595 344.722 124.414 343.263 124.414C341.804 124.414 340.621 125.595 340.621 127.053C340.621 128.51 341.804 129.691 343.263 129.691Z" fill="#FEFEFE"/>
<path d="M192.474 224.826C193.933 224.826 195.116 223.644 195.116 222.187C195.116 220.73 193.933 219.549 192.474 219.549C191.015 219.549 189.832 220.73 189.832 222.187C189.832 223.644 191.015 224.826 192.474 224.826Z" fill="#FEFEFE"/>
<path d="M203.31 214.253C204.769 214.253 205.952 213.072 205.952 211.615C205.952 210.157 204.769 208.976 203.31 208.976C201.851 208.976 200.668 210.157 200.668 211.615C200.668 213.072 201.851 214.253 203.31 214.253Z" fill="#FEFEFE"/>
<path d="M212.603 203.68C214.062 203.68 215.245 202.499 215.245 201.042C215.245 199.585 214.062 198.404 212.603 198.404C211.144 198.404 209.961 199.585 209.961 201.042C209.961 202.499 211.144 203.68 212.603 203.68Z" fill="#FEFEFE"/>
<path d="M223.459 191.817C224.918 191.817 226.101 190.636 226.101 189.179C226.101 187.721 224.918 186.54 223.459 186.54C221.999 186.54 220.816 187.721 220.816 189.179C220.816 190.636 221.999 191.817 223.459 191.817Z" fill="#FEFEFE"/>
<path d="M344.291 171.203C345.75 171.203 346.933 170.022 346.933 168.565C346.933 167.108 345.75 165.926 344.291 165.926C342.831 165.926 341.648 167.108 341.648 168.565C341.648 170.022 342.831 171.203 344.291 171.203Z" fill="#FEFEFE"/>
<path d="M413.291 97.5935C414.75 97.5935 415.933 96.4122 415.933 94.9551C415.933 93.4979 414.75 92.3167 413.291 92.3167C411.831 92.3167 410.648 93.4979 410.648 94.9551C410.648 96.4122 411.831 97.5935 413.291 97.5935Z" fill="#FEFEFE"/>
<path d="M383.791 109.324C385.25 109.324 386.433 108.143 386.433 106.686C386.433 105.228 385.25 104.047 383.791 104.047C382.331 104.047 381.148 105.228 381.148 106.686C381.148 108.143 382.331 109.324 383.791 109.324Z" fill="#FEFEFE"/>
<path d="M285.994 148.236C287.453 148.236 288.636 147.055 288.636 145.597C288.636 144.14 287.453 142.959 285.994 142.959C284.534 142.959 283.352 144.14 283.352 145.597C283.352 147.055 284.534 148.236 285.994 148.236Z" fill="#FEFEFE"/>
<path d="M353.603 117.733C355.062 117.733 356.245 116.551 356.245 115.094C356.245 113.637 355.062 112.456 353.603 112.456C352.144 112.456 350.961 113.637 350.961 115.094C350.961 116.551 352.144 117.733 353.603 117.733Z" fill="#FEFEFE"/>
<path d="M339.708 285.89C341.161 286.017 342.441 284.945 342.569 283.494C342.696 282.043 341.622 280.764 340.169 280.637C338.717 280.51 337.436 281.582 337.308 283.033C337.181 284.484 338.255 285.763 339.708 285.89Z" fill="#FEFEFE"/>
<path d="M329.048 295.707C330.5 295.835 331.781 294.762 331.909 293.311C332.036 291.861 330.962 290.581 329.509 290.454C328.057 290.327 326.776 291.4 326.648 292.85C326.521 294.301 327.595 295.58 329.048 295.707Z" fill="#FEFEFE"/>
<path d="M318.032 305.752C319.485 305.88 320.766 304.807 320.893 303.356C321.021 301.905 319.946 300.626 318.494 300.499C317.041 300.372 315.76 301.445 315.633 302.895C315.505 304.346 316.579 305.625 318.032 305.752Z" fill="#FEFEFE"/>
<path d="M306.802 314.886C308.254 315.013 309.535 313.941 309.663 312.49C309.79 311.039 308.716 309.76 307.263 309.633C305.81 309.506 304.529 310.578 304.402 312.029C304.275 313.48 305.349 314.759 306.802 314.886Z" fill="#FEFEFE"/>
<path d="M296.43 324.394C297.883 324.521 299.164 323.448 299.292 321.998C299.419 320.547 298.345 319.268 296.892 319.141C295.439 319.013 294.158 320.086 294.031 321.537C293.904 322.987 294.978 324.267 296.43 324.394Z" fill="#FEFEFE"/>
<path d="M284.848 334.091C286.301 334.219 287.582 333.146 287.71 331.695C287.837 330.245 286.763 328.965 285.31 328.838C283.857 328.711 282.576 329.784 282.449 331.234C282.321 332.685 283.396 333.964 284.848 334.091Z" fill="#FEFEFE"/>
<path d="M371.145 278.271C372.598 278.398 373.879 277.325 374.006 275.875C374.134 274.424 373.06 273.145 371.607 273.018C370.154 272.891 368.873 273.963 368.746 275.414C368.618 276.865 369.693 278.144 371.145 278.271Z" fill="#FEFEFE"/>
<path d="M360.485 288.088C361.938 288.215 363.219 287.143 363.346 285.692C363.474 284.241 362.399 282.962 360.947 282.835C359.494 282.708 358.213 283.781 358.086 285.231C357.958 286.682 359.033 287.961 360.485 288.088Z" fill="#FEFEFE"/>
<path d="M349.47 298.135C350.922 298.262 352.203 297.19 352.331 295.739C352.458 294.288 351.384 293.009 349.931 292.882C348.478 292.755 347.197 293.827 347.07 295.278C346.943 296.729 348.017 298.008 349.47 298.135Z" fill="#FEFEFE"/>
<path d="M338.239 307.267C339.692 307.394 340.973 306.321 341.1 304.871C341.228 303.42 340.153 302.141 338.701 302.014C337.248 301.886 335.967 302.959 335.84 304.41C335.712 305.861 336.786 307.14 338.239 307.267Z" fill="#FEFEFE"/>
<path d="M327.868 316.775C329.321 316.902 330.602 315.829 330.729 314.379C330.856 312.928 329.782 311.649 328.33 311.522C326.877 311.394 325.596 312.467 325.468 313.918C325.341 315.368 326.415 316.647 327.868 316.775Z" fill="#FEFEFE"/>
<path d="M316.286 326.474C317.739 326.602 319.02 325.529 319.147 324.078C319.274 322.627 318.2 321.348 316.747 321.221C315.295 321.094 314.014 322.167 313.886 323.617C313.759 325.068 314.833 326.347 316.286 326.474Z" fill="#FEFEFE"/>
<path d="M402.227 270.232C403.68 270.36 404.961 269.287 405.088 267.836C405.216 266.386 404.142 265.106 402.689 264.979C401.236 264.852 399.955 265.925 399.828 267.375C399.7 268.826 400.775 270.105 402.227 270.232Z" fill="#FEFEFE"/>
<path d="M391.567 280.048C393.02 280.175 394.301 279.102 394.428 277.652C394.556 276.201 393.481 274.922 392.029 274.794C390.576 274.667 389.295 275.74 389.168 277.191C389.04 278.641 390.115 279.92 391.567 280.048Z" fill="#FEFEFE"/>
<path d="M380.552 290.095C382.004 290.222 383.285 289.149 383.413 287.698C383.54 286.248 382.466 284.969 381.013 284.841C379.56 284.714 378.279 285.787 378.152 287.237C378.025 288.688 379.099 289.967 380.552 290.095Z" fill="#FEFEFE"/>
<path d="M369.321 299.226C370.774 299.354 372.055 298.281 372.182 296.83C372.31 295.38 371.235 294.101 369.783 293.973C368.33 293.846 367.049 294.919 366.922 296.369C366.794 297.82 367.868 299.099 369.321 299.226Z" fill="#FEFEFE"/>
<path d="M358.95 308.734C360.403 308.861 361.684 307.789 361.811 306.338C361.939 304.887 360.864 303.608 359.412 303.481C357.959 303.354 356.678 304.427 356.55 305.877C356.423 307.328 357.497 308.607 358.95 308.734Z" fill="#FEFEFE"/>
<path d="M347.368 318.434C348.821 318.561 350.102 317.488 350.229 316.038C350.356 314.587 349.282 313.308 347.83 313.18C346.377 313.053 345.096 314.126 344.968 315.577C344.841 317.027 345.915 318.306 347.368 318.434Z" fill="#FEFEFE"/>
<path d="M433.079 262.562C434.532 262.689 435.813 261.617 435.94 260.166C436.067 258.715 434.993 257.436 433.54 257.309C432.088 257.182 430.807 258.254 430.679 259.705C430.552 261.156 431.626 262.435 433.079 262.562Z" fill="#FEFEFE"/>
<path d="M422.423 272.379C423.875 272.506 425.156 271.434 425.284 269.983C425.411 268.532 424.337 267.253 422.884 267.126C421.432 266.999 420.151 268.072 420.023 269.522C419.896 270.973 420.97 272.252 422.423 272.379Z" fill="#FEFEFE"/>
<path d="M411.407 282.426C412.86 282.553 414.141 281.481 414.268 280.03C414.396 278.579 413.321 277.3 411.869 277.173C410.416 277.046 409.135 278.118 409.008 279.569C408.88 281.02 409.954 282.299 411.407 282.426Z" fill="#FEFEFE"/>
<path d="M400.177 291.558C401.629 291.685 402.91 290.612 403.038 289.162C403.165 287.711 402.091 286.432 400.638 286.305C399.185 286.178 397.904 287.25 397.777 288.701C397.65 290.152 398.724 291.431 400.177 291.558Z" fill="#FEFEFE"/>
<path d="M389.805 301.066C391.258 301.193 392.539 300.12 392.667 298.67C392.794 297.219 391.72 295.94 390.267 295.813C388.814 295.685 387.533 296.758 387.406 298.209C387.279 299.659 388.353 300.938 389.805 301.066Z" fill="#FEFEFE"/>
<path d="M378.223 310.765C379.676 310.893 380.957 309.82 381.085 308.369C381.212 306.918 380.138 305.639 378.685 305.512C377.232 305.385 375.951 306.458 375.824 307.908C375.696 309.359 376.771 310.638 378.223 310.765Z" fill="#FEFEFE"/>
<path d="M475.145 245.504C476.598 245.631 477.879 244.558 478.006 243.107C478.134 241.657 477.06 240.378 475.607 240.25C474.154 240.123 472.873 241.196 472.746 242.646C472.618 244.097 473.693 245.376 475.145 245.504Z" fill="#FEFEFE"/>
<path d="M464.485 255.321C465.938 255.448 467.219 254.375 467.346 252.924C467.474 251.474 466.399 250.195 464.947 250.067C463.494 249.94 462.213 251.013 462.086 252.464C461.958 253.914 463.033 255.193 464.485 255.321Z" fill="#FEFEFE"/>
<path d="M453.47 265.367C454.922 265.495 456.203 264.422 456.331 262.971C456.458 261.521 455.384 260.242 453.931 260.114C452.478 259.987 451.197 261.06 451.07 262.51C450.943 263.961 452.017 265.24 453.47 265.367Z" fill="#FEFEFE"/>
<path d="M442.239 274.499C443.692 274.627 444.973 273.554 445.1 272.103C445.228 270.653 444.153 269.373 442.701 269.246C441.248 269.119 439.967 270.192 439.84 271.642C439.712 273.093 440.786 274.372 442.239 274.499Z" fill="#FEFEFE"/>
<path d="M431.868 284.007C433.321 284.134 434.602 283.062 434.729 281.611C434.856 280.16 433.782 278.881 432.33 278.754C430.877 278.627 429.596 279.7 429.468 281.15C429.341 282.601 430.415 283.88 431.868 284.007Z" fill="#FEFEFE"/>
<path d="M420.286 293.707C421.739 293.834 423.02 292.761 423.147 291.311C423.274 289.86 422.2 288.581 420.747 288.453C419.295 288.326 418.014 289.399 417.886 290.85C417.759 292.3 418.833 293.579 420.286 293.707Z" fill="#FEFEFE"/>
<path d="M444.298 253.218C445.75 253.345 447.031 252.272 447.159 250.821C447.286 249.371 446.212 248.092 444.759 247.964C443.307 247.837 442.026 248.91 441.898 250.36C441.771 251.811 442.845 253.09 444.298 253.218Z" fill="#FEFEFE"/>
<path d="M383.22 266.501C384.672 266.628 385.953 265.555 386.081 264.105C386.208 262.654 385.134 261.375 383.681 261.247C382.228 261.12 380.947 262.193 380.82 263.644C380.693 265.094 381.767 266.373 383.22 266.501Z" fill="#FEFEFE"/>
<path d="M413.044 260.833C414.496 260.96 415.777 259.887 415.905 258.437C416.032 256.986 414.958 255.707 413.505 255.58C412.053 255.452 410.772 256.525 410.644 257.976C410.517 259.426 411.591 260.706 413.044 260.833Z" fill="#FEFEFE"/>
<path d="M254.513 342.449C255.965 342.576 257.246 341.503 257.374 340.053C257.501 338.602 256.427 337.323 254.974 337.196C253.521 337.068 252.24 338.141 252.113 339.592C251.986 341.043 253.06 342.322 254.513 342.449Z" fill="#FEFEFE"/>
<path d="M266.239 332.865C267.692 332.993 268.973 331.92 269.1 330.469C269.228 329.018 268.153 327.739 266.701 327.612C265.248 327.485 263.967 328.558 263.84 330.008C263.712 331.459 264.786 332.738 266.239 332.865Z" fill="#FEFEFE"/>
<path d="M276.427 323.145C277.879 323.272 279.16 322.199 279.288 320.749C279.415 319.298 278.341 318.019 276.888 317.892C275.435 317.764 274.154 318.837 274.027 320.288C273.9 321.739 274.974 323.018 276.427 323.145Z" fill="#FEFEFE"/>
<path d="M288.266 312.278C289.719 312.405 291 311.333 291.127 309.882C291.255 308.431 290.181 307.152 288.728 307.025C287.275 306.898 285.994 307.97 285.867 309.421C285.739 310.872 286.814 312.151 288.266 312.278Z" fill="#FEFEFE"/>
<path d="M410.442 302.277C411.895 302.404 413.176 301.331 413.303 299.881C413.431 298.43 412.356 297.151 410.904 297.024C409.451 296.896 408.17 297.969 408.043 299.42C407.915 300.87 408.99 302.15 410.442 302.277Z" fill="#FEFEFE"/>
<path d="M354.38 274.312C355.832 274.439 357.113 273.366 357.241 271.915C357.368 270.465 356.294 269.186 354.841 269.058C353.389 268.931 352.108 270.004 351.98 271.454C351.853 272.905 352.927 274.184 354.38 274.312Z" fill="#FEFEFE"/>
<path d="M494.766 248.294C496.219 248.421 497.5 247.348 497.627 245.898C497.755 244.447 496.681 243.168 495.228 243.041C493.775 242.913 492.494 243.986 492.367 245.437C492.239 246.887 493.314 248.167 494.766 248.294Z" fill="#FEFEFE"/>
<path d="M483.755 258.341C485.207 258.468 486.488 257.395 486.616 255.944C486.743 254.494 485.669 253.215 484.216 253.087C482.764 252.96 481.483 254.033 481.355 255.484C481.228 256.934 482.302 258.213 483.755 258.341Z" fill="#FEFEFE"/>
<path d="M472.52 267.474C473.973 267.602 475.254 266.529 475.381 265.078C475.509 263.628 474.435 262.348 472.982 262.221C471.529 262.094 470.248 263.167 470.121 264.617C469.993 266.068 471.068 267.347 472.52 267.474Z" fill="#FEFEFE"/>
<path d="M462.149 276.982C463.602 277.109 464.883 276.037 465.01 274.586C465.138 273.135 464.063 271.856 462.611 271.729C461.158 271.602 459.877 272.675 459.75 274.125C459.622 275.576 460.697 276.855 462.149 276.982Z" fill="#FEFEFE"/>
<path d="M450.567 286.68C452.02 286.807 453.301 285.734 453.428 284.284C453.556 282.833 452.481 281.554 451.029 281.427C449.576 281.299 448.295 282.372 448.168 283.823C448.04 285.273 449.115 286.553 450.567 286.68Z" fill="#FEFEFE"/>
<path d="M440.723 295.25C442.176 295.377 443.457 294.304 443.585 292.854C443.712 291.403 442.638 290.124 441.185 289.997C439.732 289.869 438.451 290.942 438.324 292.393C438.196 293.843 439.271 295.123 440.723 295.25Z" fill="#FEFEFE"/>
<path d="M505.427 238.479C506.879 238.606 508.16 237.533 508.288 236.082C508.415 234.632 507.341 233.353 505.888 233.225C504.435 233.098 503.154 234.171 503.027 235.621C502.9 237.072 503.974 238.351 505.427 238.479Z" fill="#FEFEFE"/>
<defs>
<filter id="filter0_b_946_18" x="539.125" y="437.4" width="474.246" height="83.2099" filterUnits="userSpaceOnUse" color-interpolation-filters="sRGB">
<feFlood flood-opacity="0" result="BackgroundImageFix"/>
<feGaussianBlur in="BackgroundImageFix" stdDeviation="2"/>
<feComposite in2="SourceAlpha" operator="in" result="effect1_backgroundBlur_946_18"/>
<feBlend mode="normal" in="SourceGraphic" in2="effect1_backgroundBlur_946_18" result="shape"/>
</filter>
<linearGradient id="paint0_linear_946_18" x1="586.083" y1="479.005" x2="995.697" y2="487.96" gradientUnits="userSpaceOnUse">
<stop stop-color="#FABC2A"/>
<stop offset="1" stop-color="#F75B2D"/>
</linearGradient>
</defs>
</svg>
