<svg width="1103" height="353" viewBox="0 0 1103 353" fill="none" xmlns="http://www.w3.org/2000/svg">
<path d="M180.919 287.702C190.878 283.34 212.676 272.485 238.283 257.665C255.874 247.494 275.219 235.477 293.703 222.424L294.26 222.026C305.669 218.843 316.186 215.277 331.85 210.454C350.828 207.732 368.993 205.17 421.895 197.577C424.365 197.386 428.954 197.657 429.304 202.384C429.273 203.387 428.938 204.358 428.38 205.265C428.014 205.854 427.52 206.443 426.93 207.032C416.206 217.538 402.28 232.611 391.508 241.923C352.851 254.052 264.559 275.684 218.476 288.179C207.96 290.726 199.18 292.779 193.077 294.053C189.524 294.801 186.544 295.183 184.218 295.135L184.17 295.167V295.135C180.6 295.056 178.609 293.973 178.465 291.713L178.433 291.235L178.895 288.577L180.919 287.702ZM242.378 264.717C231.527 270.988 214.541 280.841 205.617 285.537C258.775 277.228 327.133 257.443 380.163 242.926C392.305 232.405 407.777 214.354 421.082 201.811C388.066 206.109 362.109 208.894 334.447 213.049C324.456 216.407 316.935 218.922 304.315 223.252C285.815 236.272 259.986 254.53 242.378 264.717Z" fill="#3A4B55"/>
<path d="M423.552 232.42C418.931 247.733 411.92 262.298 402.726 275.477C393.755 288.338 382.696 299.895 369.742 309.572L369.2 309.97L368.562 310.177C326.097 324.185 298.196 327.734 256.273 333.066L245.82 334.404L245.071 334.212C232.865 331.045 220.644 326.063 209.219 319.568C198.049 313.233 187.612 305.45 178.688 296.536C175.884 293.734 174.816 292.254 177.828 289.23C178.864 288.211 184.552 286.651 185.986 286.206C193.475 285.521 195.77 288.545 204.47 286.667C249.803 276.862 339.291 254.991 381.549 241.684L425.735 225.21L423.552 232.42ZM396.017 270.813C403.252 260.451 409.068 249.182 413.322 237.371C339.116 259.305 263.443 275.382 188.36 294.005L187.978 294.132C195.579 301.152 204.151 307.328 213.25 312.501C223.83 318.502 235.112 323.15 246.362 326.142L255.253 325.012C296.396 319.759 323.882 316.258 365.376 302.632C377.39 293.575 387.668 282.799 396.017 270.813ZM282.31 334.897L283.17 327.034L373.072 314.618L371.749 320.269C366.364 337.635 344.294 342.203 328.535 342.792C311.661 342.537 292.3 340.404 285.799 339.513L281.688 338.956L282.31 334.897ZM365.264 321.033L293.113 333.544C297.766 335.088 321.285 336.218 326.942 336.298C342.382 337.619 359.384 330.583 365.264 321.033ZM215.895 27.0058L237.518 30.9055L182.56 80.9341L159.201 95.2439L154.85 85.8844C139.522 51.8847 186.385 37.6864 214.796 26.9103L215.895 27.0058ZM163.885 84.7224L221.361 35.5694C220.038 35.0282 217.871 34.2482 216.532 33.9458C199.897 42.6367 150.006 53.1422 163.885 84.7224ZM116.863 172.443C117.309 168.194 117.691 163.418 118.042 158.898C119.094 145.814 119.986 134.815 123.492 127.19C126.264 121.173 129.355 116.319 132.303 112.514C136.733 106.816 140.94 103.378 143.314 101.881L143.521 101.738L143.457 101.786L255.141 37.3521L256.05 37.2566C263.682 36.5562 273.562 36.604 283.09 36.986C297.766 37.575 311.756 38.9916 315.262 39.6601C319.214 40.4401 326.065 43.5917 333.714 47.778C342.255 52.4418 351.943 58.4427 359.703 63.7751C362.555 65.7488 363.161 67.8659 361.918 70.3808C361.201 71.8293 359.862 72.7525 357.982 73.5484L356.803 68.5981L231.845 123.832L222.922 132.236L116.162 179.415L116.863 172.443ZM126.184 159.534L125.627 166.315C200.662 133.143 275.538 99.9714 350.955 67.7067C344.247 63.2657 336.63 58.6497 329.826 54.925C322.847 51.1048 316.824 48.2715 313.716 47.6666C310.434 47.0299 297.017 45.6929 282.772 45.1198C273.896 44.7537 264.782 44.6901 257.691 45.279L147.537 108.821C145.672 110.047 142.406 112.801 138.757 117.496C136.159 120.855 133.403 125.185 130.901 130.612C128.001 136.884 127.172 147.23 126.184 159.534ZM422.261 134.815C425.512 142.566 427.807 152.881 429.113 163.864C430.499 175.5 430.786 187.963 429.974 198.978L429.942 199.439C429.798 201.557 429.735 202.623 428.125 204.024C426.882 205.106 425.879 205.249 423.919 205.52L422.628 201.588L335.419 212.715L302.738 223.698L291.918 230.383L149.672 275.175L147.919 273.456C145.465 271.004 143.378 268.537 141.513 265.99C139.681 263.507 138.04 260.881 136.43 258.095C134.63 254.96 130.837 244.231 127.523 232.277C125.005 223.22 122.727 213.304 121.707 205.281L121.595 204.501C121.245 201.748 123.237 201.923 127.045 202.925C197.714 176.359 253.421 155.428 315.692 132.013C316.776 131.599 320.058 127.7 321.174 127.333C347.003 118.627 373.646 110.143 402.248 101.706L403.921 104.142C406.343 107.644 411.123 115.109 415.234 121.969C418.342 127.174 421.114 132.093 422.261 134.815ZM421.003 164.819C419.792 154.552 417.688 145.018 414.724 137.982C413.736 135.595 411.171 131.058 408.239 126.156C405.02 120.76 401.387 115.013 398.87 111.193L323.5 133.43L130.041 206.141C131.108 213.367 133.148 222.058 135.379 230.112C138.534 241.493 141.975 251.41 143.489 254.036C144.907 256.504 146.389 258.875 148.078 261.167C149.273 262.807 150.564 264.383 151.998 265.927L331.85 210.454L421.895 197.577C422.596 187.263 422.293 175.659 421.003 164.819Z" fill="#3A4B55"/>
<path d="M123.412 94.8141C120.783 89.0361 116.608 80.4884 112.21 73.9941C105.263 63.7114 68.0717 41.5225 50.99 31.3353L50.528 31.0647C40.2821 24.9524 26.2917 18.9834 16.9383 15.2428C25.6544 31.0647 44.1383 62.247 60.8694 74.7104C78.206 87.6194 109.549 92.9995 123.412 94.8141ZM118.982 69.4417C126.758 80.95 133.721 98.0135 133.737 98.0613L136.351 104.301L129.626 103.696C129.483 103.68 80.5005 99.5097 55.9934 81.2524C31.6457 63.1065 4.65284 9.52841 4.57317 9.38515L0 0.328125L9.57657 3.70262C9.65624 3.73446 37.2227 13.651 54.7028 24.077L55.1649 24.3476C72.7564 34.8372 111.031 57.6628 118.982 69.4417Z" fill="#3A4B55"/>
<path d="M121.579 203.785C121.149 202.13 121.675 200.251 122.87 198.628C123.619 197.609 124.718 196.558 125.961 195.763L129.387 193.598C144.732 183.904 186.512 157.529 218.301 125.678L218.859 125.105L219.608 124.787C257.579 108.71 279.378 99.0481 302.052 89.0042C317.955 81.9528 334.304 74.7104 357.361 64.762L360.388 65.6693L362.603 66.688C362.603 66.688 364.563 68.8527 362.794 72.0362C358.38 79.9154 352.15 89.9593 344.549 101.165C337.873 111.034 329.969 122.017 321.126 133.509L320.409 134.449L315.278 136.39C281.8 149.029 266.041 154.982 243.653 163.339C220.436 171.982 199.212 179.845 158.802 194.807L122.711 208.162L121.579 203.785ZM231.845 123.832C208.565 147.039 155.233 185.241 135.458 198.389C186.05 180.482 275.761 147.087 312.728 133.127C320.951 122.399 331.18 106.354 337.777 96.5968C342.765 89.243 351.911 74.5512 355.528 68.5981C315.533 85.964 272.016 105.415 231.845 123.832Z" fill="#3A4B55"/>
<path d="M228.34 135.053C229.563 135.053 230.555 134.063 230.555 132.841C230.555 131.619 229.563 130.628 228.34 130.628C227.117 130.628 226.125 131.619 226.125 132.841C226.125 134.063 227.117 135.053 228.34 135.053Z" fill="#3A4B55"/>
<path d="M220.165 144.031C221.389 144.031 222.38 143.04 222.38 141.818C222.38 140.596 221.389 139.606 220.165 139.606C218.942 139.606 217.951 140.596 217.951 141.818C217.951 143.04 218.942 144.031 220.165 144.031Z" fill="#3A4B55"/>
<path d="M211.704 153.231C212.928 153.231 213.919 152.241 213.919 151.019C213.919 149.797 212.928 148.806 211.704 148.806C210.481 148.806 209.489 149.797 209.489 151.019C209.489 152.241 210.481 153.231 211.704 153.231Z" fill="#3A4B55"/>
<path d="M202.988 161.683C204.211 161.683 205.203 160.693 205.203 159.471C205.203 158.249 204.211 157.258 202.988 157.258C201.765 157.258 200.773 158.249 200.773 159.471C200.773 160.693 201.765 161.683 202.988 161.683Z" fill="#3A4B55"/>
<path d="M195.037 170.39C196.26 170.39 197.252 169.4 197.252 168.178C197.252 166.956 196.26 165.965 195.037 165.965C193.814 165.965 192.822 166.956 192.822 168.178C192.822 169.4 193.814 170.39 195.037 170.39Z" fill="#3A4B55"/>
<path d="M186.066 179.336C187.289 179.336 188.281 178.345 188.281 177.123C188.281 175.901 187.289 174.911 186.066 174.911C184.843 174.911 183.851 175.901 183.851 177.123C183.851 178.345 184.843 179.336 186.066 179.336Z" fill="#3A4B55"/>
<path d="M254.042 126.394C255.265 126.394 256.257 125.404 256.257 124.182C256.257 122.96 255.265 121.969 254.042 121.969C252.819 121.969 251.827 122.96 251.827 124.182C251.827 125.404 252.819 126.394 254.042 126.394Z" fill="#3A4B55"/>
<path d="M245.852 135.372C247.075 135.372 248.067 134.381 248.067 133.159C248.067 131.937 247.075 130.947 245.852 130.947C244.628 130.947 243.637 131.937 243.637 133.159C243.637 134.381 244.628 135.372 245.852 135.372Z" fill="#3A4B55"/>
<path d="M237.406 144.572C238.63 144.572 239.621 143.581 239.621 142.36C239.621 141.138 238.63 140.147 237.406 140.147C236.183 140.147 235.192 141.138 235.192 142.36C235.192 143.581 236.183 144.572 237.406 144.572Z" fill="#3A4B55"/>
<path d="M228.69 153.024C229.914 153.024 230.905 152.034 230.905 150.812C230.905 149.59 229.914 148.599 228.69 148.599C227.467 148.599 226.476 149.59 226.476 150.812C226.476 152.034 227.467 153.024 228.69 153.024Z" fill="#3A4B55"/>
<path d="M220.723 161.715C221.946 161.715 222.938 160.725 222.938 159.503C222.938 158.281 221.946 157.29 220.723 157.29C219.5 157.29 218.508 158.281 218.508 159.503C218.508 160.725 219.5 161.715 220.723 161.715Z" fill="#3A4B55"/>
<path d="M211.768 170.677C212.991 170.677 213.983 169.686 213.983 168.464C213.983 167.242 212.991 166.252 211.768 166.252C210.545 166.252 209.553 167.242 209.553 168.464C209.553 169.686 210.545 170.677 211.768 170.677Z" fill="#3A4B55"/>
<path d="M279.41 117.401C280.633 117.401 281.624 116.41 281.624 115.188C281.624 113.966 280.633 112.976 279.41 112.976C278.186 112.976 277.195 113.966 277.195 115.188C277.195 116.41 278.186 117.401 279.41 117.401Z" fill="#3A4B55"/>
<path d="M271.219 126.378C272.443 126.378 273.434 125.388 273.434 124.166C273.434 122.944 272.443 121.953 271.219 121.953C269.996 121.953 269.004 122.944 269.004 124.166C269.004 125.388 269.996 126.378 271.219 126.378Z" fill="#3A4B55"/>
<path d="M262.758 135.579C263.981 135.579 264.973 134.588 264.973 133.366C264.973 132.144 263.981 131.154 262.758 131.154C261.535 131.154 260.543 132.144 260.543 133.366C260.543 134.588 261.535 135.579 262.758 135.579Z" fill="#3A4B55"/>
<path d="M254.058 144.031C255.281 144.031 256.273 143.04 256.273 141.818C256.273 140.596 255.281 139.606 254.058 139.606C252.835 139.606 251.843 140.596 251.843 141.818C251.843 143.04 252.835 144.031 254.058 144.031Z" fill="#3A4B55"/>
<path d="M246.091 152.722C247.314 152.722 248.306 151.731 248.306 150.509C248.306 149.287 247.314 148.297 246.091 148.297C244.868 148.297 243.876 149.287 243.876 150.509C243.876 151.731 244.868 152.722 246.091 152.722Z" fill="#3A4B55"/>
<path d="M237.136 161.683C238.359 161.683 239.35 160.693 239.35 159.471C239.35 158.249 238.359 157.258 237.136 157.258C235.912 157.258 234.921 158.249 234.921 159.471C234.921 160.693 235.912 161.683 237.136 161.683Z" fill="#3A4B55"/>
<path d="M304.618 108.726C305.841 108.726 306.833 107.735 306.833 106.513C306.833 105.291 305.841 104.301 304.618 104.301C303.395 104.301 302.403 105.291 302.403 106.513C302.403 107.735 303.395 108.726 304.618 108.726Z" fill="#3A4B55"/>
<path d="M296.428 117.719C297.651 117.719 298.642 116.729 298.642 115.507C298.642 114.285 297.651 113.294 296.428 113.294C295.204 113.294 294.213 114.285 294.213 115.507C294.213 116.729 295.204 117.719 296.428 117.719Z" fill="#3A4B55"/>
<path d="M287.966 126.904C289.19 126.904 290.181 125.913 290.181 124.691C290.181 123.469 289.19 122.479 287.966 122.479C286.743 122.479 285.751 123.469 285.751 124.691C285.751 125.913 286.743 126.904 287.966 126.904Z" fill="#3A4B55"/>
<path d="M279.25 135.356C280.473 135.356 281.465 134.365 281.465 133.143C281.465 131.921 280.473 130.931 279.25 130.931C278.027 130.931 277.035 131.921 277.035 133.143C277.035 134.365 278.027 135.356 279.25 135.356Z" fill="#3A4B55"/>
<path d="M271.299 144.063C272.522 144.063 273.514 143.072 273.514 141.85C273.514 140.628 272.522 139.638 271.299 139.638C270.076 139.638 269.084 140.628 269.084 141.85C269.084 143.072 270.076 144.063 271.299 144.063Z" fill="#3A4B55"/>
<path d="M262.328 153.008C263.551 153.008 264.543 152.018 264.543 150.796C264.543 149.574 263.551 148.583 262.328 148.583C261.105 148.583 260.113 149.574 260.113 150.796C260.113 152.018 261.105 153.008 262.328 153.008Z" fill="#3A4B55"/>
<path d="M338.494 91.4078C339.717 91.4078 340.709 90.4172 340.709 89.1952C340.709 87.9733 339.717 86.9827 338.494 86.9827C337.271 86.9827 336.279 87.9733 336.279 89.1952C336.279 90.4172 337.271 91.4078 338.494 91.4078Z" fill="#3A4B55"/>
<path d="M330.304 100.385C331.527 100.385 332.519 99.3946 332.519 98.1727C332.519 96.9507 331.527 95.9601 330.304 95.9601C329.081 95.9601 328.089 96.9507 328.089 98.1727C328.089 99.3946 329.081 100.385 330.304 100.385Z" fill="#3A4B55"/>
<path d="M321.843 109.585C323.066 109.585 324.058 108.595 324.058 107.373C324.058 106.151 323.066 105.16 321.843 105.16C320.62 105.16 319.628 106.151 319.628 107.373C319.628 108.595 320.62 109.585 321.843 109.585Z" fill="#3A4B55"/>
<path d="M313.127 118.038C314.35 118.038 315.342 117.047 315.342 115.825C315.342 114.603 314.35 113.613 313.127 113.613C311.903 113.613 310.912 114.603 310.912 115.825C310.912 117.047 311.903 118.038 313.127 118.038Z" fill="#3A4B55"/>
<path d="M305.175 126.729C306.399 126.729 307.39 125.738 307.39 124.516C307.39 123.294 306.399 122.304 305.175 122.304C303.952 122.304 302.961 123.294 302.961 124.516C302.961 125.738 303.952 126.729 305.175 126.729Z" fill="#3A4B55"/>
<path d="M296.204 135.69C297.428 135.69 298.419 134.7 298.419 133.478C298.419 132.256 297.428 131.265 296.204 131.265C294.981 131.265 293.99 132.256 293.99 133.478C293.99 134.7 294.981 135.69 296.204 135.69Z" fill="#3A4B55"/>
<path d="M313.286 100.099C314.509 100.099 315.501 99.1081 315.501 97.8862C315.501 96.6642 314.509 95.6736 313.286 95.6736C312.063 95.6736 311.071 96.6642 311.071 97.8862C311.071 99.1081 312.063 100.099 313.286 100.099Z" fill="#3A4B55"/>
<path d="M330.4 117.624C331.623 117.624 332.615 116.633 332.615 115.411C332.615 114.189 331.623 113.199 330.4 113.199C329.176 113.199 328.185 114.189 328.185 115.411C328.185 116.633 329.176 117.624 330.4 117.624Z" fill="#3A4B55"/>
<path d="M263.252 115.666C264.475 115.666 265.467 114.675 265.467 113.453C265.467 112.231 264.475 111.241 263.252 111.241C262.029 111.241 261.037 112.231 261.037 113.453C261.037 114.675 262.029 115.666 263.252 115.666Z" fill="#3A4B55"/>
<path d="M287.759 108.758C288.982 108.758 289.974 107.767 289.974 106.545C289.974 105.323 288.982 104.333 287.759 104.333C286.536 104.333 285.544 105.323 285.544 106.545C285.544 107.767 286.536 108.758 287.759 108.758Z" fill="#3A4B55"/>
<path d="M161.352 188.536C162.575 188.536 163.567 187.545 163.567 186.324C163.567 185.102 162.575 184.111 161.352 184.111C160.128 184.111 159.137 185.102 159.137 186.324C159.137 187.545 160.128 188.536 161.352 188.536Z" fill="#3A4B55"/>
<path d="M170.434 179.67C171.658 179.67 172.649 178.679 172.649 177.457C172.649 176.236 171.658 175.245 170.434 175.245C169.211 175.245 168.219 176.236 168.219 177.457C168.219 178.679 169.211 179.67 170.434 179.67Z" fill="#3A4B55"/>
<path d="M178.226 170.804C179.449 170.804 180.441 169.813 180.441 168.591C180.441 167.37 179.449 166.379 178.226 166.379C177.003 166.379 176.011 167.37 176.011 168.591C176.011 169.813 177.003 170.804 178.226 170.804Z" fill="#3A4B55"/>
<path d="M187.325 160.856C188.548 160.856 189.54 159.865 189.54 158.643C189.54 157.421 188.548 156.431 187.325 156.431C186.101 156.431 185.11 157.421 185.11 158.643C185.11 159.865 186.101 160.856 187.325 160.856Z" fill="#3A4B55"/>
<path d="M288.62 143.569C289.843 143.569 290.835 142.579 290.835 141.357C290.835 140.135 289.843 139.144 288.62 139.144C287.396 139.144 286.405 140.135 286.405 141.357C286.405 142.579 287.396 143.569 288.62 143.569Z" fill="#3A4B55"/>
<path d="M346.461 81.8414C347.685 81.8414 348.676 80.8508 348.676 79.6288C348.676 78.4069 347.685 77.4163 346.461 77.4163C345.238 77.4163 344.247 78.4069 344.247 79.6288C344.247 80.8508 345.238 81.8414 346.461 81.8414Z" fill="#3A4B55"/>
<path d="M321.731 91.6784C322.955 91.6784 323.946 90.6878 323.946 89.4658C323.946 88.2439 322.955 87.2533 321.731 87.2533C320.508 87.2533 319.516 88.2439 319.516 89.4658C319.516 90.6878 320.508 91.6784 321.731 91.6784Z" fill="#3A4B55"/>
<path d="M239.749 124.309C240.972 124.309 241.964 123.319 241.964 122.097C241.964 120.875 240.972 119.884 239.749 119.884C238.526 119.884 237.534 120.875 237.534 122.097C237.534 123.319 238.526 124.309 239.749 124.309Z" fill="#3A4B55"/>
<path d="M296.428 98.7298C297.651 98.7298 298.642 97.7392 298.642 96.5173C298.642 95.2953 297.651 94.3047 296.428 94.3047C295.204 94.3047 294.213 95.2953 294.213 96.5173C294.213 97.7392 295.204 98.7298 296.428 98.7298Z" fill="#3A4B55"/>
<path d="M423.698 199.986C424.916 200.092 425.99 199.193 426.096 197.976C426.203 196.76 425.303 195.687 424.085 195.58C422.867 195.474 421.793 196.373 421.686 197.59C421.58 198.806 422.48 199.879 423.698 199.986Z" fill="#3A4B55"/>
<path d="M284.776 239.744C285.993 239.851 287.067 238.951 287.174 237.735C287.281 236.518 286.38 235.446 285.163 235.339C283.945 235.232 282.871 236.132 282.764 237.348C282.657 238.565 283.558 239.638 284.776 239.744Z" fill="#3A4B55"/>
<path d="M275.841 247.977C277.059 248.084 278.133 247.184 278.24 245.967C278.346 244.751 277.446 243.678 276.228 243.572C275.01 243.465 273.936 244.364 273.83 245.581C273.723 246.797 274.623 247.87 275.841 247.977Z" fill="#3A4B55"/>
<path d="M266.607 256.4C267.825 256.507 268.899 255.607 269.006 254.391C269.113 253.174 268.212 252.102 266.994 251.995C265.776 251.888 264.703 252.788 264.596 254.004C264.489 255.221 265.389 256.294 266.607 256.4Z" fill="#3A4B55"/>
<path d="M257.192 264.06C258.409 264.167 259.483 263.267 259.59 262.05C259.697 260.834 258.796 259.761 257.578 259.655C256.361 259.548 255.287 260.447 255.18 261.664C255.073 262.88 255.974 263.953 257.192 264.06Z" fill="#3A4B55"/>
<path d="M248.496 272.033C249.714 272.14 250.788 271.24 250.895 270.023C251.001 268.807 250.101 267.734 248.883 267.628C247.665 267.521 246.592 268.42 246.485 269.637C246.378 270.853 247.278 271.926 248.496 272.033Z" fill="#3A4B55"/>
<path d="M238.789 280.165C240.007 280.272 241.081 279.372 241.187 278.156C241.294 276.939 240.394 275.867 239.176 275.76C237.958 275.653 236.884 276.553 236.777 277.769C236.671 278.986 237.571 280.058 238.789 280.165Z" fill="#3A4B55"/>
<path d="M311.13 233.355C312.347 233.462 313.421 232.562 313.528 231.346C313.635 230.129 312.734 229.056 311.516 228.95C310.299 228.843 309.225 229.743 309.118 230.959C309.011 232.176 309.912 233.248 311.13 233.355Z" fill="#3A4B55"/>
<path d="M302.193 241.588C303.411 241.694 304.485 240.795 304.592 239.578C304.699 238.362 303.798 237.289 302.58 237.182C301.363 237.076 300.289 237.975 300.182 239.192C300.075 240.408 300.976 241.481 302.193 241.588Z" fill="#3A4B55"/>
<path d="M292.961 250.013C294.179 250.119 295.253 249.22 295.36 248.003C295.466 246.787 294.566 245.714 293.348 245.607C292.13 245.501 291.056 246.4 290.95 247.617C290.843 248.833 291.743 249.906 292.961 250.013Z" fill="#3A4B55"/>
<path d="M283.544 257.671C284.762 257.777 285.835 256.878 285.942 255.661C286.049 254.445 285.149 253.372 283.931 253.265C282.713 253.159 281.639 254.058 281.532 255.275C281.426 256.491 282.326 257.564 283.544 257.671Z" fill="#3A4B55"/>
<path d="M274.85 265.644C276.068 265.75 277.142 264.851 277.249 263.634C277.355 262.418 276.455 261.345 275.237 261.238C274.019 261.132 272.945 262.031 272.839 263.248C272.732 264.464 273.632 265.537 274.85 265.644Z" fill="#3A4B55"/>
<path d="M265.143 273.777C266.361 273.884 267.434 272.984 267.541 271.768C267.648 270.552 266.748 269.479 265.53 269.372C264.312 269.265 263.238 270.165 263.131 271.382C263.024 272.598 263.925 273.671 265.143 273.777Z" fill="#3A4B55"/>
<path d="M337.185 226.614C338.403 226.721 339.477 225.821 339.584 224.605C339.691 223.388 338.79 222.315 337.572 222.209C336.355 222.102 335.281 223.002 335.174 224.218C335.067 225.435 335.968 226.507 337.185 226.614Z" fill="#3A4B55"/>
<path d="M328.249 234.845C329.467 234.952 330.541 234.052 330.648 232.836C330.755 231.619 329.854 230.546 328.636 230.44C327.419 230.333 326.345 231.233 326.238 232.449C326.131 233.666 327.032 234.738 328.249 234.845Z" fill="#3A4B55"/>
<path d="M319.017 243.27C320.235 243.377 321.309 242.477 321.415 241.261C321.522 240.044 320.622 238.971 319.404 238.865C318.186 238.758 317.112 239.658 317.005 240.874C316.899 242.091 317.799 243.163 319.017 243.27Z" fill="#3A4B55"/>
<path d="M309.6 250.928C310.818 251.035 311.891 250.135 311.998 248.918C312.105 247.702 311.204 246.629 309.987 246.523C308.769 246.416 307.695 247.316 307.588 248.532C307.481 249.749 308.382 250.821 309.6 250.928Z" fill="#3A4B55"/>
<path d="M300.906 258.901C302.124 259.008 303.198 258.108 303.304 256.892C303.411 255.675 302.511 254.602 301.293 254.496C300.075 254.389 299.001 255.289 298.894 256.505C298.788 257.722 299.688 258.794 300.906 258.901Z" fill="#3A4B55"/>
<path d="M291.197 267.035C292.415 267.141 293.489 266.242 293.596 265.025C293.702 263.809 292.802 262.736 291.584 262.629C290.366 262.523 289.292 263.422 289.186 264.639C289.079 265.855 289.979 266.928 291.197 267.035Z" fill="#3A4B55"/>
<path d="M363.05 220.182C364.268 220.288 365.342 219.389 365.449 218.172C365.555 216.956 364.655 215.883 363.437 215.776C362.219 215.67 361.145 216.569 361.039 217.786C360.932 219.002 361.832 220.075 363.05 220.182Z" fill="#3A4B55"/>
<path d="M354.116 228.414C355.333 228.521 356.407 227.621 356.514 226.405C356.621 225.188 355.72 224.116 354.503 224.009C353.285 223.902 352.211 224.802 352.104 226.018C351.997 227.235 352.898 228.308 354.116 228.414Z" fill="#3A4B55"/>
<path d="M344.882 236.839C346.1 236.946 347.173 236.046 347.28 234.83C347.387 233.613 346.486 232.541 345.269 232.434C344.051 232.327 342.977 233.227 342.87 234.443C342.763 235.66 343.664 236.733 344.882 236.839Z" fill="#3A4B55"/>
<path d="M335.466 244.497C336.684 244.604 337.758 243.704 337.865 242.488C337.971 241.271 337.071 240.199 335.853 240.092C334.635 239.985 333.561 240.885 333.455 242.101C333.348 243.318 334.248 244.39 335.466 244.497Z" fill="#3A4B55"/>
<path d="M326.772 252.47C327.99 252.577 329.064 251.677 329.171 250.461C329.278 249.244 328.377 248.172 327.159 248.065C325.941 247.958 324.868 248.858 324.761 250.074C324.654 251.291 325.555 252.364 326.772 252.47Z" fill="#3A4B55"/>
<path d="M317.063 260.604C318.281 260.711 319.355 259.811 319.462 258.595C319.569 257.378 318.668 256.306 317.45 256.199C316.233 256.092 315.159 256.992 315.052 258.208C314.945 259.425 315.846 260.497 317.063 260.604Z" fill="#3A4B55"/>
<path d="M398.313 205.877C399.531 205.983 400.605 205.084 400.711 203.867C400.818 202.651 399.918 201.578 398.7 201.471C397.482 201.365 396.408 202.264 396.301 203.481C396.195 204.697 397.095 205.77 398.313 205.877Z" fill="#3A4B55"/>
<path d="M389.379 214.109C390.596 214.216 391.67 213.316 391.777 212.1C391.884 210.883 390.983 209.811 389.765 209.704C388.548 209.597 387.474 210.497 387.367 211.713C387.26 212.93 388.161 214.003 389.379 214.109Z" fill="#3A4B55"/>
<path d="M380.145 222.534C381.362 222.641 382.436 221.741 382.543 220.525C382.65 219.308 381.749 218.236 380.531 218.129C379.314 218.022 378.24 218.922 378.133 220.138C378.026 221.355 378.927 222.428 380.145 222.534Z" fill="#3A4B55"/>
<path d="M370.729 230.192C371.947 230.299 373.021 229.399 373.127 228.183C373.234 226.966 372.334 225.894 371.116 225.787C369.898 225.68 368.824 226.58 368.717 227.796C368.611 229.013 369.511 230.086 370.729 230.192Z" fill="#3A4B55"/>
<path d="M362.034 238.165C363.251 238.272 364.325 237.372 364.432 236.156C364.539 234.939 363.638 233.867 362.42 233.76C361.203 233.653 360.129 234.553 360.022 235.769C359.915 236.986 360.816 238.059 362.034 238.165Z" fill="#3A4B55"/>
<path d="M352.326 246.299C353.544 246.406 354.618 245.506 354.725 244.29C354.832 243.073 353.931 242.001 352.713 241.894C351.495 241.787 350.422 242.687 350.315 243.903C350.208 245.12 351.109 246.192 352.326 246.299Z" fill="#3A4B55"/>
<path d="M372.455 212.346C373.672 212.452 374.746 211.553 374.853 210.336C374.96 209.12 374.059 208.047 372.842 207.94C371.624 207.834 370.55 208.733 370.443 209.95C370.336 211.166 371.237 212.239 372.455 212.346Z" fill="#3A4B55"/>
<path d="M321.251 223.485C322.469 223.591 323.543 222.692 323.649 221.475C323.756 220.259 322.856 219.186 321.638 219.079C320.42 218.973 319.346 219.872 319.24 221.089C319.133 222.305 320.033 223.378 321.251 223.485Z" fill="#3A4B55"/>
<path d="M346.255 218.732C347.473 218.838 348.547 217.939 348.654 216.722C348.761 215.506 347.86 214.433 346.642 214.326C345.424 214.22 344.351 215.119 344.244 216.336C344.137 217.552 345.038 218.625 346.255 218.732Z" fill="#3A4B55"/>
<path d="M213.358 287.174C214.575 287.28 215.649 286.381 215.756 285.164C215.863 283.948 214.962 282.875 213.745 282.768C212.527 282.662 211.453 283.561 211.346 284.778C211.239 285.994 212.14 287.067 213.358 287.174Z" fill="#3A4B55"/>
<path d="M223.189 279.137C224.407 279.243 225.481 278.344 225.588 277.127C225.694 275.911 224.794 274.838 223.576 274.732C222.358 274.625 221.285 275.524 221.178 276.741C221.071 277.957 221.971 279.03 223.189 279.137Z" fill="#3A4B55"/>
<path d="M231.727 270.985C232.945 271.092 234.018 270.193 234.125 268.976C234.232 267.76 233.332 266.687 232.114 266.58C230.896 266.473 229.822 267.373 229.715 268.59C229.608 269.806 230.509 270.879 231.727 270.985Z" fill="#3A4B55"/>
<path d="M241.652 261.873C242.87 261.979 243.944 261.08 244.051 259.863C244.158 258.647 243.257 257.574 242.039 257.467C240.821 257.361 239.748 258.26 239.641 259.477C239.534 260.693 240.435 261.766 241.652 261.873Z" fill="#3A4B55"/>
<path d="M344.074 253.486C345.292 253.593 346.365 252.693 346.472 251.476C346.579 250.26 345.679 249.187 344.461 249.081C343.243 248.974 342.169 249.873 342.062 251.09C341.956 252.306 342.856 253.379 344.074 253.486Z" fill="#3A4B55"/>
<path d="M297.075 230.035C298.293 230.141 299.367 229.242 299.474 228.025C299.581 226.809 298.68 225.736 297.462 225.629C296.245 225.523 295.171 226.422 295.064 227.639C294.957 228.855 295.858 229.928 297.075 230.035Z" fill="#3A4B55"/>
<path d="M414.762 208.217C415.98 208.323 417.054 207.424 417.16 206.207C417.267 204.991 416.367 203.918 415.149 203.811C413.931 203.705 412.857 204.604 412.75 205.821C412.644 207.037 413.544 208.11 414.762 208.217Z" fill="#3A4B55"/>
<path d="M405.53 216.642C406.747 216.748 407.821 215.849 407.928 214.632C408.035 213.416 407.134 212.343 405.917 212.236C404.699 212.13 403.625 213.029 403.518 214.246C403.411 215.462 404.312 216.535 405.53 216.642Z" fill="#3A4B55"/>
<path d="M396.112 224.301C397.33 224.408 398.404 223.508 398.511 222.292C398.618 221.075 397.717 220.003 396.499 219.896C395.282 219.789 394.208 220.689 394.101 221.905C393.994 223.122 394.895 224.194 396.112 224.301Z" fill="#3A4B55"/>
<path d="M387.419 232.274C388.636 232.381 389.71 231.481 389.817 230.265C389.924 229.048 389.023 227.976 387.805 227.869C386.588 227.762 385.514 228.662 385.407 229.878C385.3 231.095 386.201 232.167 387.419 232.274Z" fill="#3A4B55"/>
<path d="M377.711 240.406C378.929 240.513 380.003 239.614 380.11 238.397C380.217 237.181 379.316 236.108 378.098 236.001C376.88 235.894 375.807 236.794 375.7 238.011C375.593 239.227 376.494 240.3 377.711 240.406Z" fill="#3A4B55"/>
<path d="M369.457 247.593C370.675 247.7 371.749 246.8 371.856 245.584C371.963 244.367 371.062 243.295 369.844 243.188C368.626 243.081 367.553 243.981 367.446 245.197C367.339 246.414 368.24 247.486 369.457 247.593Z" fill="#3A4B55"/>
<path d="M458.545 305.084C458.657 304.431 459.039 304.113 459.693 304.113H461.876C462.21 304.113 462.465 304.161 462.609 304.288C462.768 304.399 462.8 304.67 462.736 305.084L461.015 313.711C463.15 313.838 464.919 314.189 466.337 314.809C467.756 315.414 468.871 316.21 469.715 317.181C470.56 318.152 471.15 319.282 471.484 320.556C471.835 321.829 472.01 323.182 472.01 324.583C472.01 327.066 471.644 329.374 470.911 331.539C470.193 333.688 469.126 335.582 467.74 337.189C466.337 338.813 464.616 340.102 462.529 341.057C460.442 342.012 458.067 342.506 455.406 342.538L453.733 351.244C453.67 351.467 453.558 351.674 453.431 351.833C453.287 352.008 453.08 352.088 452.761 352.088H450.355C449.718 352.088 449.447 351.77 449.558 351.117L451.216 342.538C447.519 342.362 444.746 341.344 442.898 339.513C441.034 337.683 440.109 335.104 440.109 331.793C440.109 329.549 440.412 327.352 441.034 325.251C441.639 323.134 442.627 321.24 443.981 319.585C445.336 317.929 447.073 316.576 449.192 315.526C451.311 314.475 453.861 313.87 456.825 313.711L458.545 305.084ZM814.663 330.424C814.217 332.398 813.675 334.149 813.038 335.645C812.416 337.158 811.588 338.431 810.584 339.45C809.564 340.484 808.321 341.264 806.855 341.774C805.389 342.283 803.605 342.538 801.501 342.538C800.434 342.538 799.207 342.426 797.805 342.203C796.418 341.965 795 341.551 793.55 340.946L793.486 340.994L791.542 351.006C791.463 351.388 791.351 351.674 791.192 351.833C791.048 352.008 790.762 352.088 790.331 352.088H787.989C787.575 352.088 787.32 352.024 787.24 351.865C787.176 351.706 787.176 351.435 787.24 351.006L794.172 315.144C794.331 314.507 794.713 314.173 795.319 314.173H797.725C798.378 314.173 798.633 314.507 798.522 315.144L798.06 317.324C798.107 317.277 798.139 317.261 798.187 317.261C798.681 317.006 799.318 316.656 800.131 316.242C800.928 315.812 801.804 315.414 802.76 315.032C803.716 314.65 804.704 314.332 805.74 314.061C806.776 313.791 807.764 313.663 808.72 313.663C811.349 313.663 813.197 314.332 814.265 315.669C815.332 317.006 815.874 318.98 815.874 321.606C815.874 322.179 815.842 322.848 815.794 323.58C815.731 324.328 815.635 325.108 815.524 325.904C815.412 326.7 815.285 327.496 815.125 328.276C814.982 329.056 814.823 329.772 814.663 330.424ZM811.349 322.131C811.381 320.301 811.094 319.091 810.457 318.502C809.835 317.897 808.847 317.611 807.509 317.611C806.823 317.611 806.011 317.722 805.087 317.945C804.146 318.184 803.206 318.47 802.25 318.805C801.294 319.155 800.402 319.521 799.557 319.903C798.713 320.285 798.012 320.603 797.438 320.874L794.235 337.333C795.685 337.794 797.072 338.128 798.41 338.304C799.749 338.51 801.023 338.59 802.25 338.59C803.318 338.59 804.258 338.463 805.087 338.176C805.899 337.89 806.632 337.412 807.254 336.76C807.891 336.123 808.433 335.279 808.895 334.245C809.341 333.226 809.771 331.952 810.154 330.424C810.297 329.804 810.441 329.135 810.584 328.387C810.711 327.639 810.839 326.907 810.95 326.159C811.062 325.41 811.158 324.694 811.237 323.978C811.317 323.277 811.349 322.657 811.349 322.131ZM782.316 341.057C782.173 341.71 781.775 342.028 781.121 342.028H778.715C778.062 342.028 777.807 341.71 777.918 341.057L781.297 323.85C781.743 321.479 781.759 319.839 781.313 318.932C780.882 318.009 779.799 317.547 778.078 317.547C777.393 317.547 776.612 317.675 775.736 317.929C774.859 318.168 773.967 318.47 773.043 318.805C772.134 319.155 771.258 319.521 770.445 319.903C769.617 320.285 768.931 320.603 768.358 320.874C768.358 320.985 768.326 321.176 768.294 321.447C768.262 321.702 768.214 322.004 768.151 322.322C768.087 322.657 768.039 322.959 768.007 323.277C767.975 323.58 767.928 323.803 767.896 323.962L764.581 341.057C764.422 341.71 764.024 342.028 763.37 342.028H760.853C760.279 342.028 760.072 341.71 760.215 341.057L763.657 323.437C764.008 321.574 763.992 320.126 763.625 319.091C763.259 318.072 762.207 317.547 760.454 317.547C759.801 317.547 759.068 317.659 758.271 317.866C757.475 318.072 756.63 318.343 755.754 318.661C754.877 318.996 754.001 319.346 753.125 319.728C752.248 320.11 751.436 320.46 750.718 320.81L746.767 341.057C746.655 341.71 746.273 342.028 745.619 342.028H743.213C742.608 342.028 742.353 341.71 742.48 341.057L747.516 315.144C747.659 314.507 748.041 314.173 748.663 314.173H751.005C751.69 314.173 751.961 314.507 751.802 315.144L751.404 317.149H751.515C752.168 316.767 752.886 316.369 753.666 315.955C754.447 315.526 755.276 315.144 756.152 314.809C757.028 314.459 757.937 314.173 758.877 313.95C759.817 313.711 760.741 313.6 761.649 313.6C763.753 313.6 765.314 313.966 766.318 314.666C767.338 315.367 767.975 316.385 768.23 317.722C769.951 316.688 771.752 315.749 773.648 314.889C775.544 314.029 777.456 313.6 779.4 313.6C781.153 313.6 782.523 313.854 783.527 314.348C784.515 314.841 785.216 315.542 785.647 316.433C786.061 317.324 786.236 318.407 786.188 319.664C786.125 320.922 785.949 322.322 785.647 323.85L782.316 341.057ZM735.724 340.882C735.565 341.646 735.087 342.028 734.29 342.028H732.633C731.677 342.028 731.279 341.646 731.422 340.882L733.716 329.167H719.455L717.161 340.882C717.017 341.646 716.539 342.028 715.742 342.028H713.958C713.081 342.028 712.715 341.646 712.874 340.882L717.846 315.382C717.925 314.921 718.085 314.602 718.34 314.427C718.595 314.268 718.929 314.173 719.344 314.173H721.112C721.543 314.173 721.829 314.268 722.005 314.427C722.18 314.602 722.228 314.921 722.148 315.382L720.204 325.331H734.449L736.409 315.382C736.473 314.921 736.664 314.602 736.951 314.427C737.238 314.268 737.589 314.173 738.003 314.173H739.66C740.09 314.173 740.377 314.268 740.552 314.427C740.728 314.602 740.775 314.921 740.696 315.382L735.724 340.882ZM685.674 334.483C685.674 333.226 685.802 331.952 686.073 330.647C686.344 329.358 686.63 328.1 686.933 326.875C687.204 325.617 687.618 324.217 688.192 322.673C688.766 321.129 689.61 319.68 690.741 318.359C691.873 317.022 693.323 315.908 695.091 315C696.876 314.109 699.139 313.663 701.88 313.663C703.059 313.663 704.19 313.807 705.258 314.093C706.325 314.38 707.265 314.809 708.062 315.382C708.859 315.955 709.496 316.656 709.958 317.499C710.404 318.327 710.643 319.298 710.643 320.412C710.643 322.004 710.293 323.405 709.608 324.583C708.939 325.761 708.03 326.779 706.931 327.623C705.815 328.451 704.557 329.135 703.122 329.676C701.704 330.202 700.254 330.631 698.772 330.934C697.274 331.236 695.809 331.459 694.374 331.586C692.924 331.73 691.65 331.793 690.55 331.793C690.311 332.812 690.2 333.735 690.2 334.579C690.2 335.598 690.407 336.378 690.805 336.919C691.203 337.476 691.713 337.858 692.335 338.081C692.972 338.304 693.673 338.447 694.438 338.479C695.235 338.526 696 338.542 696.749 338.542C697.211 338.542 697.768 338.526 698.438 338.479C699.107 338.447 699.792 338.399 700.525 338.335C701.242 338.288 701.975 338.224 702.724 338.176C703.457 338.113 704.126 338.049 704.684 337.969C705.035 337.937 705.305 337.953 705.513 338.033C705.72 338.097 705.831 338.335 705.831 338.717V339.927C705.831 340.468 705.544 340.882 704.971 341.153C704.286 341.423 703.537 341.646 702.74 341.821C701.943 341.996 701.099 342.124 700.254 342.235C699.394 342.331 698.533 342.394 697.705 342.426C696.86 342.474 696.064 342.49 695.299 342.49C693.801 342.49 692.478 342.362 691.283 342.124C690.104 341.869 689.084 341.439 688.256 340.834C687.411 340.214 686.774 339.402 686.328 338.367C685.897 337.333 685.674 336.043 685.674 334.483ZM706.23 321.129C706.23 319.855 705.768 318.932 704.827 318.407C703.887 317.881 702.772 317.611 701.481 317.611C699.649 317.611 698.151 317.897 697.02 318.486C695.872 319.075 694.932 319.807 694.199 320.683C693.482 321.558 692.94 322.466 692.606 323.437C692.255 324.408 691.968 325.251 691.745 325.967L691.172 328.196C691.936 328.196 692.845 328.148 693.896 328.053C694.948 327.957 696.016 327.814 697.131 327.623C698.231 327.432 699.33 327.177 700.414 326.859C701.513 326.525 702.485 326.095 703.346 325.57C704.19 325.044 704.891 324.408 705.433 323.707C705.959 322.975 706.23 322.115 706.23 321.129ZM677.149 342.203C676.608 341.965 676.002 341.551 675.349 340.946C674.68 340.325 674.265 339.529 674.106 338.542H673.947C673.405 338.845 672.688 339.227 671.764 339.688C670.855 340.15 669.851 340.596 668.752 341.025C667.668 341.471 666.553 341.837 665.406 342.14C664.258 342.442 663.191 342.601 662.203 342.601C660.339 342.601 658.889 342.331 657.885 341.805C656.865 341.264 656.164 340.532 655.765 339.593C655.367 338.67 655.192 337.555 655.271 336.25C655.351 334.961 655.542 333.544 655.845 332.016L659.112 315.144C659.271 314.507 659.669 314.173 660.307 314.173H662.713C663.366 314.173 663.637 314.507 663.525 315.144L660.195 332.08C659.924 333.417 659.797 334.499 659.797 335.343C659.797 336.171 659.924 336.839 660.195 337.333C660.466 337.842 660.88 338.176 661.438 338.367C661.98 338.558 662.713 338.654 663.637 338.654C664.322 338.654 665.151 338.526 666.123 338.256C667.095 337.985 668.067 337.683 669.039 337.333C670.011 336.998 670.951 336.632 671.827 336.25C672.704 335.868 673.373 335.566 673.819 335.343L677.771 315.144C677.93 314.507 678.329 314.173 678.982 314.173H681.324C681.977 314.173 682.217 314.507 682.073 315.144L678.058 335.566C677.866 336.6 677.946 337.364 678.297 337.858C678.631 338.351 679.061 338.765 679.555 339.115C680.049 339.45 680.48 339.816 680.862 340.166C681.244 340.532 681.356 341.089 681.213 341.853L679.667 348.554C679.587 349.048 679.46 349.366 679.3 349.525C679.125 349.669 678.918 349.748 678.695 349.748H677.197C676.894 349.748 676.655 349.669 676.48 349.525C676.321 349.366 676.289 349.048 676.4 348.554L677.149 342.203ZM652.132 324.471C652.005 324.933 651.686 325.156 651.16 325.156H635.64C635.067 325.156 634.844 324.933 634.955 324.471L635.401 322.131C635.481 321.813 635.593 321.622 635.72 321.527C635.863 321.431 636.071 321.383 636.373 321.383H651.893C652.164 321.383 652.371 321.431 652.499 321.527C652.626 321.622 652.658 321.813 652.579 322.131L652.132 324.471ZM633.059 317.436C632.947 317.738 632.756 317.929 632.485 317.977C632.214 318.041 631.88 318.041 631.465 318.009C630.318 317.897 629.043 317.77 627.657 317.643C626.255 317.499 625.028 317.436 623.96 317.436C622.654 317.436 621.538 317.611 620.614 317.945C619.674 318.295 618.861 318.868 618.176 319.664C617.491 320.46 616.901 321.527 616.423 322.848C615.945 324.185 615.515 325.84 615.133 327.814C614.957 328.928 614.798 329.915 614.687 330.806C614.575 331.698 614.511 332.541 614.511 333.29C614.479 335.263 614.878 336.648 615.738 337.396C616.599 338.16 617.969 338.542 619.833 338.542C620.296 338.542 620.853 338.526 621.522 338.479C622.192 338.447 622.893 338.399 623.642 338.335C624.391 338.288 625.124 338.224 625.841 338.176C626.574 338.113 627.227 338.049 627.801 337.969C628.135 337.937 628.406 337.953 628.629 338.033C628.836 338.097 628.932 338.335 628.932 338.717V339.927C628.932 340.468 628.645 340.882 628.071 341.153C626.892 341.662 625.474 341.996 623.817 342.203C622.16 342.394 620.598 342.49 619.148 342.49C617.236 342.49 615.69 342.251 614.479 341.774C613.284 341.296 612.328 340.675 611.611 339.911C610.91 339.147 610.432 338.272 610.161 337.285C609.89 336.298 609.763 335.279 609.763 334.245C609.763 333.29 609.842 332.223 609.986 331.013C610.145 329.82 610.336 328.642 610.56 327.496C610.91 325.665 611.34 323.914 611.85 322.243C612.36 320.572 613.125 319.091 614.113 317.802C615.101 316.528 616.407 315.51 618.001 314.746C619.61 313.982 621.698 313.6 624.295 313.6C624.869 313.6 625.57 313.616 626.366 313.663C627.163 313.695 627.976 313.759 628.788 313.854C629.617 313.966 630.414 314.093 631.195 314.268C631.975 314.427 632.661 314.65 633.234 314.921C633.505 315.032 633.649 315.207 633.664 315.43C633.68 315.669 633.648 315.892 633.569 316.115L633.059 317.436ZM581.766 334.483C581.766 333.226 581.894 331.952 582.164 330.647C582.435 329.358 582.722 328.1 583.025 326.875C583.28 325.617 583.71 324.217 584.284 322.673C584.857 321.129 585.702 319.68 586.833 318.359C587.949 317.022 589.399 315.908 591.183 315C592.952 314.109 595.215 313.663 597.971 313.663C599.151 313.663 600.266 313.807 601.349 314.093C602.417 314.38 603.341 314.809 604.154 315.382C604.951 315.955 605.572 316.656 606.034 317.499C606.496 318.327 606.719 319.298 606.719 320.412C606.719 322.004 606.385 323.405 605.7 324.583C605.014 325.761 604.122 326.779 603.007 327.623C601.907 328.451 600.648 329.135 599.214 329.676C597.796 330.202 596.33 330.631 594.848 330.934C593.366 331.236 591.9 331.459 590.45 331.586C589 331.73 587.742 331.793 586.626 331.793C586.403 332.812 586.276 333.735 586.276 334.579C586.276 335.598 586.483 336.378 586.881 336.919C587.279 337.476 587.789 337.858 588.427 338.081C589.048 338.304 589.765 338.447 590.53 338.479C591.311 338.526 592.092 338.542 592.841 338.542C593.303 338.542 593.86 338.526 594.53 338.479C595.199 338.447 595.884 338.399 596.617 338.335C597.334 338.288 598.067 338.224 598.8 338.176C599.549 338.113 600.202 338.049 600.776 337.969C601.11 337.937 601.397 337.953 601.604 338.033C601.812 338.097 601.907 338.335 601.907 338.717V339.927C601.907 340.468 601.62 340.882 601.063 341.153C600.362 341.423 599.629 341.646 598.816 341.821C598.019 341.996 597.191 342.124 596.33 342.235C595.47 342.331 594.625 342.394 593.781 342.426C592.952 342.474 592.139 342.49 591.375 342.49C589.893 342.49 588.554 342.362 587.375 342.124C586.18 341.869 585.176 341.439 584.332 340.834C583.503 340.214 582.866 339.402 582.419 338.367C581.973 337.333 581.766 336.043 581.766 334.483ZM602.321 321.129C602.321 319.855 601.843 318.932 600.919 318.407C599.979 317.881 598.864 317.611 597.557 317.611C595.725 317.611 594.243 317.897 593.095 318.486C591.948 319.075 591.024 319.807 590.291 320.683C589.574 321.558 589.032 322.466 588.682 323.437C588.347 324.408 588.06 325.251 587.837 325.967L587.263 328.196C588.028 328.196 588.921 328.148 589.972 328.053C591.024 327.957 592.108 327.814 593.207 327.623C594.322 327.432 595.422 327.177 596.505 326.859C597.589 326.525 598.561 326.095 599.421 325.57C600.282 325.044 600.983 324.408 601.509 323.707C602.051 322.975 602.321 322.115 602.321 321.129ZM574.038 340.882C573.879 341.646 573.401 342.028 572.604 342.028H570.947C569.991 342.028 569.592 341.646 569.736 340.882L572.03 329.167H557.769L555.474 340.882C555.331 341.646 554.853 342.028 554.056 342.028H552.272C551.395 342.028 551.029 341.646 551.188 340.882L556.175 315.382C556.239 314.921 556.414 314.602 556.653 314.427C556.908 314.268 557.243 314.173 557.657 314.173H559.426C559.856 314.173 560.143 314.268 560.318 314.427C560.494 314.602 560.542 314.921 560.462 315.382L558.518 325.331H572.779L574.723 315.382C574.803 314.921 574.978 314.602 575.265 314.427C575.552 314.268 575.902 314.173 576.317 314.173H577.974C578.404 314.173 578.691 314.268 578.866 314.427C579.041 314.602 579.089 314.921 579.009 315.382L574.038 340.882ZM544.32 341.057C544.161 341.71 543.763 342.028 543.109 342.028H540.703C540.066 342.028 539.795 341.71 539.906 341.057L543.285 323.85C543.747 321.479 543.747 319.839 543.316 318.932C542.87 318.009 541.803 317.547 540.082 317.547C539.397 317.547 538.616 317.675 537.739 317.929C536.847 318.168 535.955 318.47 535.046 318.805C534.122 319.155 533.262 319.521 532.433 319.903C531.621 320.285 530.919 320.603 530.346 320.874C530.346 320.985 530.33 321.176 530.282 321.447C530.25 321.702 530.202 322.004 530.155 322.322C530.091 322.657 530.043 322.959 529.995 323.277C529.963 323.58 529.932 323.803 529.884 323.962L526.569 341.057C526.41 341.71 526.012 342.028 525.358 342.028H522.841C522.267 342.028 522.06 341.71 522.219 341.057L525.645 323.437C525.996 321.574 525.98 320.126 525.629 319.091C525.263 318.072 524.195 317.547 522.442 317.547C521.805 317.547 521.072 317.659 520.275 317.866C519.463 318.072 518.634 318.343 517.758 318.661C516.881 318.996 515.989 319.346 515.113 319.728C514.236 320.11 513.439 320.46 512.706 320.81L508.755 341.057C508.643 341.71 508.261 342.028 507.623 342.028H505.217C504.596 342.028 504.357 341.71 504.468 341.057L509.504 315.144C509.663 314.507 510.045 314.173 510.651 314.173H512.993C513.678 314.173 513.949 314.507 513.806 315.144L513.392 317.149H513.519C514.157 316.767 514.874 316.369 515.654 315.955C516.451 315.526 517.28 315.144 518.156 314.809C519.032 314.459 519.941 314.173 520.865 313.95C521.805 313.711 522.729 313.6 523.653 313.6C525.741 313.6 527.302 313.966 528.306 314.666C529.326 315.367 529.963 316.385 530.234 317.722C531.955 316.688 533.756 315.749 535.636 314.889C537.532 314.029 539.444 313.6 541.404 313.6C543.157 313.6 544.527 313.854 545.515 314.348C546.503 314.841 547.22 315.542 547.635 316.433C548.065 317.324 548.24 318.407 548.176 319.664C548.129 320.922 547.937 322.322 547.635 323.85L544.32 341.057ZM498.047 341.057C497.935 341.71 497.553 342.028 496.915 342.028H494.557C493.872 342.028 493.601 341.71 493.76 341.057L494.159 338.94C494.159 338.908 494.127 338.924 494.047 339.004C493.506 339.306 492.836 339.656 492.008 340.086C491.195 340.5 490.303 340.898 489.331 341.264C488.343 341.614 487.339 341.933 486.287 342.203C485.236 342.474 484.216 342.601 483.228 342.601C481.364 342.601 479.914 342.331 478.91 341.805C477.89 341.264 477.189 340.532 476.79 339.593C476.392 338.67 476.217 337.555 476.296 336.25C476.376 334.961 476.567 333.544 476.87 332.016L480.137 315.144C480.296 314.507 480.694 314.173 481.332 314.173H483.738C484.391 314.173 484.662 314.507 484.55 315.144L481.22 332.08C480.949 333.417 480.822 334.499 480.822 335.343C480.822 336.171 480.949 336.839 481.22 337.333C481.491 337.842 481.905 338.176 482.447 338.367C483.005 338.558 483.738 338.654 484.662 338.654C485.347 338.654 486.176 338.526 487.148 338.256C488.12 337.985 489.092 337.683 490.064 337.333C491.036 336.998 491.96 336.632 492.852 336.25C493.729 335.868 494.398 335.566 494.844 335.343L498.796 315.144C498.955 314.507 499.353 314.173 500.007 314.173H502.349C503.002 314.173 503.241 314.507 503.098 315.144L498.047 341.057ZM456.092 317.659C454.02 317.659 452.267 318.088 450.785 318.948C449.319 319.807 448.124 320.906 447.184 322.243C446.244 323.58 445.559 325.06 445.129 326.668C444.683 328.291 444.459 329.867 444.459 331.395C444.459 336.011 446.961 338.447 451.965 338.717L456.092 317.659ZM456.139 338.717C458.052 338.67 459.725 338.288 461.159 337.539C462.593 336.791 463.788 335.789 464.76 334.531C465.732 333.274 466.465 331.825 466.943 330.154C467.421 328.498 467.66 326.763 467.66 324.933C467.66 323.898 467.532 322.943 467.309 322.068C467.086 321.192 466.688 320.428 466.13 319.776C465.588 319.139 464.824 318.614 463.868 318.232C462.927 317.85 461.716 317.659 460.266 317.659L456.139 338.717Z" fill="url(#paint0_linear_946_222)"/>
<path fill-rule="evenodd" clip-rule="evenodd" d="M934.362 158.245H1001.7L997.351 169.212C994.483 176.439 989.017 182.09 981.528 182.647L948.496 185.114C947.588 185.114 946.951 185.528 946.68 186.053C946.393 186.61 946.52 187.295 947.206 187.74L982.405 213.367C991.168 220.053 989.846 235.381 982.946 243.467C976.047 251.569 970.087 253.097 963.06 253.034H891.674L896.231 241.605C899.099 234.378 904.581 228.569 912.038 228.171L948.576 226.181C949.373 226.181 950.233 225.672 950.376 224.828C950.504 224.144 950.09 223.746 949.643 223.411L915.018 197.928C906.318 191.115 905.935 177.824 914.476 167.812C919.814 161.54 927.335 158.198 934.362 158.245ZM491.322 219.273L485.363 253.034H460.155C459.231 253.034 458.609 252.286 458.768 251.362L471.373 179.941C473.476 168.019 484.981 158.245 496.915 158.245C517.104 158.245 537.293 158.245 557.466 158.245L552.144 171.68C549.276 178.906 543.731 185.114 536.321 185.114C523.335 185.114 510.348 185.114 497.346 185.114L495.37 196.336C523.988 196.336 516.053 196.336 544.671 196.336L540.894 205.854C538.026 213.065 532.481 219.273 525.072 219.273C504.405 219.273 511.989 219.273 491.322 219.273ZM619.865 253.034H643.4C644.324 253.034 645.217 252.286 645.376 251.362L657.072 185.114H673.245C680.655 185.114 686.2 178.906 689.068 171.68L694.406 158.245C666.346 158.245 638.301 158.245 610.257 158.245C609.333 158.245 608.44 159.009 608.265 159.933L604.122 183.443C603.963 184.366 604.584 185.114 605.508 185.114H649.392C649.631 185.114 649.822 185.289 649.838 185.512C649.87 185.735 649.726 185.958 649.503 186.005L632.406 189.953C630.493 190.399 628.964 191.99 628.629 193.869L618.479 251.362C618.32 252.286 618.941 253.034 619.865 253.034ZM553.148 251.362C552.973 252.286 553.594 253.034 554.518 253.034H578.053C578.978 253.034 579.87 252.286 580.029 251.362L596.76 156.622L582.786 159.582C575.281 161.174 568.27 165.615 566.963 173.017L553.148 251.362ZM865.685 190.685L868.314 185.114H830.805L827.761 201.795L862.1 193.853C863.757 193.471 864.952 192.229 865.685 190.685ZM824.319 221.931L823.076 228.155H866.657C874.003 228.155 877.413 234.363 877.732 241.589L878.225 253.034C858.053 253.034 833.832 253.034 813.643 253.034C801.709 253.034 793.646 243.276 795.765 231.338C798.777 214.211 801.804 197.084 804.832 179.941C806.935 168.019 818.44 158.245 830.374 158.245H896.582C898.43 158.245 899.864 159.773 899.339 161.604L888.009 201.748C886.432 207.765 881.875 213.192 873.318 214.482L824.319 221.931ZM1034.92 158.245H1102.26L1097.9 169.212C1095.03 176.439 1089.56 182.09 1082.09 182.647L1049.06 185.114C1048.15 185.114 1047.5 185.528 1047.23 186.053C1046.94 186.61 1047.07 187.295 1047.77 187.74L1082.97 213.367C1091.71 220.053 1090.41 235.381 1083.51 243.467C1076.61 251.569 1070.63 253.097 1063.61 253.034H992.236L996.777 241.605C999.645 234.378 1005.13 228.569 1012.6 228.171L1049.14 226.181C1049.93 226.181 1050.78 225.672 1050.94 224.828C1051.05 224.144 1050.64 223.746 1050.21 223.411L1015.56 197.928C1006.88 191.115 1006.5 177.824 1015.02 167.812C1020.36 161.54 1027.9 158.198 1034.92 158.245ZM729.765 158.245L752.248 205.074L752.344 205.281L753.236 207.128L753.539 207.733L760.12 221.39C760.215 221.597 760.454 221.692 760.662 221.629C760.885 221.549 761.012 221.342 760.964 221.119L757.491 202.162L762.637 173.017C763.944 165.615 770.939 161.174 778.444 159.582L792.419 156.622L775.401 253.034H761.14C748.105 253.034 744.122 248.004 741.19 241.796L724.506 206.555L721.033 199.36H721.017L717.607 192.293C717.511 192.086 717.288 191.99 717.065 192.054C716.842 192.134 716.714 192.356 716.762 192.563L720.268 211.68L720.332 211.648L713.32 251.362C713.161 252.286 712.269 253.034 711.345 253.034H686.136L702.565 159.933C702.74 159.009 703.616 158.245 704.541 158.245H729.765Z" fill="url(#paint1_linear_946_222)"/>
<path fill-rule="evenodd" clip-rule="evenodd" d="M575.392 125.312C575.233 126.235 575.854 126.999 576.779 126.999H600.298C601.222 126.999 602.114 126.235 602.29 125.312L619.005 30.5874L605.03 33.548C597.525 35.1398 590.53 39.5808 589.223 46.9664L575.392 125.312ZM507.034 100.131H551.315C558.725 100.131 562.071 106.339 562.39 113.565L562.995 126.999H495.45C483.499 126.999 475.452 117.226 477.555 105.304L486.638 53.9065C488.741 41.9684 500.23 32.211 512.181 32.211H579.727L574.388 45.6453C571.52 52.8559 565.975 59.0637 558.566 59.0637H512.611L505.663 98.4594C505.488 99.3826 506.11 100.131 507.034 100.131ZM959.076 32.211H1026.42L1022.07 43.1781C1019.2 50.4046 1013.73 56.0553 1006.24 56.6124L973.21 59.0637C972.318 59.0637 971.665 59.4935 971.394 60.0188C971.107 60.5759 971.234 61.2444 971.92 61.6901L1007.12 87.3172C1015.88 94.0184 1014.56 109.331 1007.66 117.433C1000.76 125.535 994.801 127.047 987.774 126.999H916.404L920.946 115.555C923.814 108.328 929.295 102.534 936.753 102.12L973.29 100.131C974.103 100.131 974.947 99.6214 975.091 98.7937C975.218 98.1092 974.804 97.7113 974.374 97.3611L939.732 71.8773C930.777 65.5103 930.65 51.7894 939.19 41.7773C944.528 35.5059 952.049 32.1473 959.076 32.211ZM882.496 100.131L891.945 46.5844C893.252 39.1828 900.247 34.7418 907.768 33.1501L921.726 30.1895L908.469 105.304C906.366 117.226 894.877 126.999 882.926 126.999H835.075C823.14 126.999 815.093 117.226 817.197 105.304C821.26 82.2873 825.323 59.2547 829.387 36.2381C829.785 34.0096 831.904 32.211 834.135 32.211H852.954C855.216 32.211 856.666 34.0574 856.284 36.2381C852.523 57.5356 848.763 78.8332 845.002 100.131H882.496ZM779.544 67.8979L782.747 59.0637H745.253L741.62 79.0083L775.959 71.0655C777.616 70.6834 778.97 69.4896 779.544 67.8979ZM738.752 95.8808L733.254 126.999H708.046C707.122 126.999 706.501 126.235 706.66 125.312L719.264 53.9065C721.383 41.9684 732.872 32.211 744.807 32.211H811.014C812.863 32.211 814.297 33.7231 813.787 35.5696L802.441 75.6974C800.864 81.7142 796.323 87.1421 787.75 88.4473L773.935 90.5484L803.461 124.102C803.876 124.58 803.908 125.28 803.541 125.933C803.159 126.586 802.489 126.999 801.788 126.999H776.548C771.114 126.999 766.239 125.71 763.243 121.731L743.309 95.1963L738.752 95.8808ZM642.11 126.999H665.645C666.569 126.999 667.461 126.235 667.621 125.312L679.316 59.0637H695.506C702.899 59.0637 708.445 52.8559 711.313 45.6453L716.651 32.211C688.606 32.211 660.546 32.211 632.501 32.211C631.577 32.211 630.685 32.9591 630.525 33.8823L626.366 57.3924C626.207 58.3156 626.829 59.0637 627.753 59.0637H671.652C671.875 59.0637 672.066 59.2388 672.098 59.4616C672.13 59.7004 671.971 59.9073 671.748 59.9551L654.666 63.9026C652.754 64.3483 651.208 65.94 650.89 67.8342L640.739 125.312C640.564 126.235 641.185 126.999 642.11 126.999Z" fill="url(#paint2_linear_946_222)"/>
<defs>
<linearGradient id="paint0_linear_946_222" x1="490.273" y1="191.139" x2="1095.63" y2="194.613" gradientUnits="userSpaceOnUse">
<stop stop-color="#FABC2A"/>
<stop offset="1" stop-color="#F75B2D"/>
</linearGradient>
<linearGradient id="paint1_linear_946_222" x1="490.273" y1="191.139" x2="1095.63" y2="194.613" gradientUnits="userSpaceOnUse">
<stop stop-color="#FABC2A"/>
<stop offset="1" stop-color="#F75B2D"/>
</linearGradient>
<linearGradient id="paint2_linear_946_222" x1="490.273" y1="191.139" x2="1095.63" y2="194.613" gradientUnits="userSpaceOnUse">
<stop stop-color="#FABC2A"/>
<stop offset="1" stop-color="#F75B2D"/>
</linearGradient>
</defs>
</svg>
