<svg width="250" height="38" viewBox="0 0 250 38" fill="none" xmlns="http://www.w3.org/2000/svg">
<path d="M18.9621 31.5172C20.0059 31.0504 22.2906 29.8885 24.9744 28.3024C26.8182 27.2137 28.8457 25.9275 30.783 24.5305L30.8415 24.4879C32.0372 24.1472 33.1395 23.7656 34.7812 23.2493C36.7703 22.958 38.6742 22.6837 44.2188 21.8711C44.4777 21.8506 44.9587 21.8796 44.9954 22.3856C44.9921 22.4929 44.957 22.5968 44.8986 22.694C44.8601 22.757 44.8084 22.82 44.7466 22.8831C43.6226 24.0075 42.163 25.6208 41.034 26.6175C36.9824 27.9157 27.7284 30.2309 22.8985 31.5683C21.7963 31.8409 20.8761 32.0606 20.2364 32.1969C19.864 32.277 19.5517 32.3179 19.3078 32.3128L19.3028 32.3162V32.3128C18.9287 32.3043 18.72 32.1884 18.705 31.9465L18.7016 31.8954L18.75 31.6109L18.9621 31.5172ZM25.4037 29.0571C24.2663 29.7283 22.486 30.7829 21.5508 31.2855C27.1222 30.3962 34.2868 28.2785 39.8449 26.7248C41.1175 25.5987 42.7391 23.6667 44.1337 22.3243C40.6732 22.7842 37.9527 23.0824 35.0534 23.527C34.0063 23.8865 33.218 24.1557 31.8953 24.6191C29.9563 26.0127 27.2491 27.9668 25.4037 29.0571Z" fill="white"/>
<path d="M44.3925 25.6004C43.9082 27.2393 43.1734 28.7982 42.2097 30.2088C41.2695 31.5853 40.1104 32.8222 38.7526 33.858L38.6959 33.9006L38.6291 33.9227C34.1783 35.422 31.254 35.8019 26.86 36.3726L25.7644 36.5157L25.6859 36.4953C24.4066 36.1562 23.1257 35.623 21.9282 34.9279C20.7575 34.2498 19.6636 33.4168 18.7283 32.4627C18.4344 32.1629 18.3225 32.0044 18.6381 31.6807C18.7467 31.5717 19.3429 31.4047 19.4932 31.357C20.2782 31.2838 20.5187 31.6075 21.4305 31.4064C26.1819 30.357 35.5611 28.0162 39.9902 26.5919L44.6213 24.8286L44.3925 25.6004ZM41.5066 29.7096C42.2648 28.6005 42.8744 27.3943 43.3203 26.1302C35.5427 28.4779 27.6115 30.1986 19.7421 32.1918L19.702 32.2055C20.4986 32.9568 21.3971 33.6178 22.3507 34.1715C23.4597 34.8138 24.6421 35.3112 25.8212 35.6315L26.7531 35.5106C31.0652 34.9483 33.9461 34.5735 38.295 33.1152C39.5543 32.1458 40.6315 30.9925 41.5066 29.7096ZM29.5889 36.5685L29.6791 35.7269L39.1017 34.3981L38.9631 35.0029C38.3986 36.8615 36.0855 37.3505 34.4338 37.4135C32.6652 37.3863 30.636 37.158 29.9546 37.0626L29.5238 37.003L29.5889 36.5685ZM38.2834 35.0846L30.7212 36.4237C31.2089 36.589 33.6739 36.7099 34.2668 36.7184C35.8851 36.8598 37.6671 36.1068 38.2834 35.0846ZM22.628 3.61473L24.8943 4.03212L19.1342 9.38671L16.6858 10.9183L16.2299 9.91654C14.6233 6.27754 19.535 4.75788 22.5127 3.6045L22.628 3.61473ZM17.1768 9.79218L23.2008 4.53129C23.0622 4.47337 22.8351 4.38989 22.6948 4.35752C20.9512 5.28771 15.7222 6.41213 17.1768 9.79218ZM12.2484 19.181C12.2952 18.7261 12.3352 18.215 12.372 17.7312C12.4822 16.3308 12.5757 15.1536 12.9432 14.3375C13.2338 13.6935 13.5577 13.1739 13.8667 12.7668C14.331 12.1569 14.7719 11.7889 15.0207 11.6287L15.0425 11.6134L15.0358 11.6185L26.7414 4.7221L26.8366 4.71188C27.6366 4.63692 28.672 4.64203 29.6707 4.68292C31.2089 4.74595 32.6752 4.89758 33.0426 4.96913C33.4568 5.05261 34.1749 5.38993 34.9766 5.83799C35.8717 6.33717 36.8872 6.97944 37.7005 7.55017C37.9994 7.76142 38.0629 7.98801 37.9326 8.25718C37.8575 8.41222 37.7172 8.51103 37.5201 8.59621L37.3965 8.06638L24.2997 13.9781L23.3645 14.8776L12.1749 19.9272L12.2484 19.181ZM13.2254 17.7994L13.1669 18.5251C21.0314 14.9747 28.8791 11.4243 36.7836 7.97097C36.0805 7.49565 35.2822 7.00159 34.5691 6.60294C33.8376 6.19406 33.2063 5.89081 32.8806 5.82607C32.5366 5.75792 31.1304 5.61482 29.6373 5.55348C28.7071 5.5143 27.7518 5.50749 27.0086 5.57052L15.4633 12.3715C15.2679 12.5027 14.9255 12.7974 14.5431 13.3C14.2709 13.6595 13.9819 14.1229 13.7197 14.7038C13.4158 15.3751 13.3289 16.4824 13.2254 17.7994ZM44.2572 15.1536C44.5979 15.9833 44.8384 17.0872 44.9754 18.2627C45.1207 19.5081 45.1507 20.8421 45.0656 22.021L45.0622 22.0704C45.0472 22.297 45.0405 22.4111 44.8718 22.5611C44.7416 22.6769 44.6364 22.6923 44.4309 22.7212L44.2957 22.3004L35.1553 23.4913L31.7299 24.6668L30.596 25.3823L15.6871 30.1764L15.5034 29.9924C15.2462 29.7301 15.0274 29.466 14.832 29.1934C14.64 28.9276 14.4679 28.6465 14.2993 28.3484C14.1105 28.0128 13.7131 26.8645 13.3657 25.5851C13.1018 24.6157 12.863 23.5543 12.7561 22.6957L12.7444 22.6122C12.7077 22.3174 12.9164 22.3362 13.3156 22.4435C20.7224 19.6001 26.561 17.3598 33.0877 14.8537C33.2013 14.8094 33.5453 14.392 33.6622 14.3529C36.3694 13.421 39.1618 12.5129 42.1596 11.61L42.335 11.8706C42.5888 12.2454 43.0899 13.0445 43.5207 13.7787C43.8464 14.3358 44.137 14.8623 44.2572 15.1536ZM44.1253 18.365C43.9984 17.2661 43.7779 16.2456 43.4673 15.4926C43.3638 15.2371 43.0949 14.7515 42.7876 14.2268C42.4502 13.6493 42.0694 13.0342 41.8056 12.6254L33.9061 15.0054L13.6296 22.7877C13.7415 23.5611 13.9552 24.4913 14.189 25.3534C14.5197 26.5715 14.8805 27.6329 15.0391 27.914C15.1877 28.178 15.3431 28.4319 15.5201 28.6772C15.6454 28.8527 15.7806 29.0213 15.9309 29.1866L34.7812 23.2493L44.2188 21.8711C44.2923 20.7671 44.2606 19.5252 44.1253 18.365Z" fill="white"/>
<path d="M12.9348 10.8723C12.6592 10.2539 12.2217 9.339 11.7607 8.64391C11.0326 7.54335 7.1346 5.16846 5.34427 4.07812L5.29584 4.04916C4.22197 3.39495 2.75564 2.75608 1.7753 2.35572C2.68884 4.04916 4.62613 7.38662 6.37972 8.72058C8.19678 10.1022 11.4818 10.6781 12.9348 10.8723ZM12.4705 8.15667C13.2855 9.38841 14.0154 11.2147 14.017 11.2198L14.2909 11.8877L13.5861 11.8229C13.5711 11.8212 8.43727 11.3749 5.86868 9.42078C3.31679 7.47861 0.487665 1.74411 0.479314 1.72878L0 0.759399L1.00372 1.12057C1.01207 1.12398 3.90132 2.18536 5.7334 3.30125L5.78183 3.33021C7.62561 4.45292 11.6371 6.89596 12.4705 8.15667Z" fill="white"/>
<path d="M12.7427 22.5355C12.6977 22.3583 12.7528 22.1573 12.878 21.9835C12.9565 21.8745 13.0718 21.7621 13.202 21.6769L13.5611 21.4452C15.1694 20.4076 19.5483 17.5847 22.8802 14.1757L22.9386 14.1143L23.0171 14.0803C26.9969 12.3596 29.2816 11.3255 31.6581 10.2505C33.3249 9.49574 35.0384 8.72058 37.455 7.65579L37.7723 7.7529L38.0044 7.86194C38.0044 7.86194 38.2099 8.09363 38.0245 8.43436C37.5619 9.27767 36.9089 10.3527 36.1122 11.5521C35.4125 12.6083 34.5841 13.7838 33.6572 15.0139L33.5821 15.1144L33.0443 15.3222C29.5354 16.6749 27.8837 17.3121 25.5373 18.2065C23.104 19.1316 20.8794 19.9732 16.6441 21.5747L12.8613 23.004L12.7427 22.5355ZM24.2997 13.9781C21.8597 16.462 16.27 20.5508 14.1974 21.958C19.4999 20.0414 28.9025 16.4671 32.7771 14.973C33.6388 13.8247 34.711 12.1074 35.4025 11.0631C35.9252 10.276 36.8838 8.70354 37.2629 8.06637C33.071 9.92506 28.51 12.0069 24.2997 13.9781Z" fill="white"/>
<path d="M23.9323 15.1791C24.0605 15.1791 24.1645 15.0731 24.1645 14.9423C24.1645 14.8115 24.0605 14.7055 23.9323 14.7055C23.8041 14.7055 23.7002 14.8115 23.7002 14.9423C23.7002 15.0731 23.8041 15.1791 23.9323 15.1791Z" fill="white"/>
<path d="M23.0756 16.14C23.2038 16.14 23.3077 16.034 23.3077 15.9032C23.3077 15.7724 23.2038 15.6664 23.0756 15.6664C22.9474 15.6664 22.8434 15.7724 22.8434 15.9032C22.8434 16.034 22.9474 16.14 23.0756 16.14Z" fill="white"/>
<path d="M22.1887 17.1247C22.317 17.1247 22.4209 17.0187 22.4209 16.8879C22.4209 16.7571 22.317 16.6511 22.1887 16.6511C22.0605 16.6511 21.9566 16.7571 21.9566 16.8879C21.9566 17.0187 22.0605 17.1247 22.1887 17.1247Z" fill="white"/>
<path d="M21.2752 18.0293C21.4034 18.0293 21.5074 17.9233 21.5074 17.7925C21.5074 17.6618 21.4034 17.5557 21.2752 17.5557C21.147 17.5557 21.0431 17.6618 21.0431 17.7925C21.0431 17.9233 21.147 18.0293 21.2752 18.0293Z" fill="white"/>
<path d="M20.4418 18.9612C20.57 18.9612 20.674 18.8552 20.674 18.7244C20.674 18.5937 20.57 18.4876 20.4418 18.4876C20.3136 18.4876 20.2097 18.5937 20.2097 18.7244C20.2097 18.8552 20.3136 18.9612 20.4418 18.9612Z" fill="white"/>
<path d="M19.5016 19.9187C19.6298 19.9187 19.7337 19.8127 19.7337 19.6819C19.7337 19.5511 19.6298 19.4451 19.5016 19.4451C19.3734 19.4451 19.2694 19.5511 19.2694 19.6819C19.2694 19.8127 19.3734 19.9187 19.5016 19.9187Z" fill="white"/>
<path d="M26.6262 14.2523C26.7544 14.2523 26.8583 14.1463 26.8583 14.0155C26.8583 13.8848 26.7544 13.7787 26.6262 13.7787C26.498 13.7787 26.394 13.8848 26.394 14.0155C26.394 14.1463 26.498 14.2523 26.6262 14.2523Z" fill="white"/>
<path d="M25.7677 15.2132C25.8959 15.2132 25.9999 15.1072 25.9999 14.9764C25.9999 14.8456 25.8959 14.7396 25.7677 14.7396C25.6395 14.7396 25.5356 14.8456 25.5356 14.9764C25.5356 15.1072 25.6395 15.2132 25.7677 15.2132Z" fill="white"/>
<path d="M24.8826 16.1979C25.0108 16.1979 25.1147 16.0919 25.1147 15.9611C25.1147 15.8303 25.0108 15.7243 24.8826 15.7243C24.7544 15.7243 24.6505 15.8303 24.6505 15.9611C24.6505 16.0919 24.7544 16.1979 24.8826 16.1979Z" fill="white"/>
<path d="M23.9691 17.1026C24.0973 17.1026 24.2012 16.9965 24.2012 16.8658C24.2012 16.735 24.0973 16.6289 23.9691 16.6289C23.8408 16.6289 23.7369 16.735 23.7369 16.8658C23.7369 16.9965 23.8408 17.1026 23.9691 17.1026Z" fill="white"/>
<path d="M23.134 18.0328C23.2622 18.0328 23.3662 17.9267 23.3662 17.7959C23.3662 17.6652 23.2622 17.5591 23.134 17.5591C23.0058 17.5591 22.9019 17.6652 22.9019 17.7959C22.9019 17.9267 23.0058 18.0328 23.134 18.0328Z" fill="white"/>
<path d="M22.1954 18.9919C22.3236 18.9919 22.4276 18.8859 22.4276 18.7551C22.4276 18.6243 22.3236 18.5183 22.1954 18.5183C22.0672 18.5183 21.9633 18.6243 21.9633 18.7551C21.9633 18.8859 22.0672 18.9919 22.1954 18.9919Z" fill="white"/>
<path d="M29.2849 13.2898C29.4131 13.2898 29.5171 13.1838 29.5171 13.053C29.5171 12.9222 29.4131 12.8162 29.2849 12.8162C29.1567 12.8162 29.0528 12.9222 29.0528 13.053C29.0528 13.1838 29.1567 13.2898 29.2849 13.2898Z" fill="white"/>
<path d="M28.4265 14.2506C28.5547 14.2506 28.6587 14.1446 28.6587 14.0138C28.6587 13.883 28.5547 13.777 28.4265 13.777C28.2983 13.777 28.1944 13.883 28.1944 14.0138C28.1944 14.1446 28.2983 14.2506 28.4265 14.2506Z" fill="white"/>
<path d="M27.5397 15.2354C27.6679 15.2354 27.7718 15.1293 27.7718 14.9985C27.7718 14.8678 27.6679 14.7617 27.5397 14.7617C27.4115 14.7617 27.3076 14.8678 27.3076 14.9985C27.3076 15.1293 27.4115 15.2354 27.5397 15.2354Z" fill="white"/>
<path d="M26.6278 16.14C26.756 16.14 26.86 16.034 26.86 15.9032C26.86 15.7724 26.756 15.6664 26.6278 15.6664C26.4996 15.6664 26.3957 15.7724 26.3957 15.9032C26.3957 16.034 26.4996 16.14 26.6278 16.14Z" fill="white"/>
<path d="M25.7928 17.0702C25.921 17.0702 26.0249 16.9642 26.0249 16.8334C26.0249 16.7026 25.921 16.5966 25.7928 16.5966C25.6646 16.5966 25.5606 16.7026 25.5606 16.8334C25.5606 16.9642 25.6646 17.0702 25.7928 17.0702Z" fill="white"/>
<path d="M24.8542 18.0293C24.9824 18.0293 25.0863 17.9233 25.0863 17.7925C25.0863 17.6618 24.9824 17.5557 24.8542 17.5557C24.726 17.5557 24.6221 17.6618 24.6221 17.7925C24.6221 17.9233 24.726 18.0293 24.8542 18.0293Z" fill="white"/>
<path d="M31.927 12.3613C32.0552 12.3613 32.1592 12.2553 32.1592 12.1245C32.1592 11.9937 32.0552 11.8877 31.927 11.8877C31.7988 11.8877 31.6949 11.9937 31.6949 12.1245C31.6949 12.2553 31.7988 12.3613 31.927 12.3613Z" fill="white"/>
<path d="M31.0686 13.3239C31.1968 13.3239 31.3007 13.2178 31.3007 13.087C31.3007 12.9563 31.1968 12.8502 31.0686 12.8502C30.9404 12.8502 30.8364 12.9563 30.8364 13.087C30.8364 13.2178 30.9404 13.3239 31.0686 13.3239Z" fill="white"/>
<path d="M30.1818 14.3069C30.31 14.3069 30.4139 14.2008 30.4139 14.0701C30.4139 13.9393 30.31 13.8332 30.1818 13.8332C30.0536 13.8332 29.9496 13.9393 29.9496 14.0701C29.9496 14.2008 30.0536 14.3069 30.1818 14.3069Z" fill="white"/>
<path d="M29.2682 15.2115C29.3964 15.2115 29.5004 15.1055 29.5004 14.9747C29.5004 14.8439 29.3964 14.7379 29.2682 14.7379C29.14 14.7379 29.0361 14.8439 29.0361 14.9747C29.0361 15.1055 29.14 15.2115 29.2682 15.2115Z" fill="white"/>
<path d="M28.4349 16.1434C28.5631 16.1434 28.667 16.0374 28.667 15.9066C28.667 15.7758 28.5631 15.6698 28.4349 15.6698C28.3067 15.6698 28.2027 15.7758 28.2027 15.9066C28.2027 16.0374 28.3067 16.1434 28.4349 16.1434Z" fill="white"/>
<path d="M27.4946 17.1009C27.6228 17.1009 27.7267 16.9948 27.7267 16.864C27.7267 16.7333 27.6228 16.6272 27.4946 16.6272C27.3664 16.6272 27.2625 16.7333 27.2625 16.864C27.2625 16.9948 27.3664 17.1009 27.4946 17.1009Z" fill="white"/>
<path d="M35.4776 10.5077C35.6058 10.5077 35.7098 10.4017 35.7098 10.2709C35.7098 10.1401 35.6058 10.0341 35.4776 10.0341C35.3494 10.0341 35.2455 10.1401 35.2455 10.2709C35.2455 10.4017 35.3494 10.5077 35.4776 10.5077Z" fill="white"/>
<path d="M34.6192 11.4686C34.7474 11.4686 34.8513 11.3626 34.8513 11.2318C34.8513 11.101 34.7474 10.995 34.6192 10.995C34.491 10.995 34.387 11.101 34.387 11.2318C34.387 11.3626 34.491 11.4686 34.6192 11.4686Z" fill="white"/>
<path d="M33.7324 12.4533C33.8606 12.4533 33.9645 12.3473 33.9645 12.2165C33.9645 12.0857 33.8606 11.9797 33.7324 11.9797C33.6042 11.9797 33.5002 12.0857 33.5002 12.2165C33.5002 12.3473 33.6042 12.4533 33.7324 12.4533Z" fill="white"/>
<path d="M32.8188 13.3579C32.947 13.3579 33.051 13.2519 33.051 13.1211C33.051 12.9903 32.947 12.8843 32.8188 12.8843C32.6906 12.8843 32.5867 12.9903 32.5867 13.1211C32.5867 13.2519 32.6906 13.3579 32.8188 13.3579Z" fill="white"/>
<path d="M31.9855 14.2881C32.1137 14.2881 32.2176 14.1821 32.2176 14.0513C32.2176 13.9205 32.1137 13.8145 31.9855 13.8145C31.8573 13.8145 31.7533 13.9205 31.7533 14.0513C31.7533 14.1821 31.8573 14.2881 31.9855 14.2881Z" fill="white"/>
<path d="M31.0452 15.2473C31.1734 15.2473 31.2773 15.1413 31.2773 15.0105C31.2773 14.8797 31.1734 14.7737 31.0452 14.7737C30.917 14.7737 30.8131 14.8797 30.8131 15.0105C30.8131 15.1413 30.917 15.2473 31.0452 15.2473Z" fill="white"/>
<path d="M32.8355 11.4379C32.9637 11.4379 33.0677 11.3319 33.0677 11.2011C33.0677 11.0703 32.9637 10.9643 32.8355 10.9643C32.7073 10.9643 32.6034 11.0703 32.6034 11.2011C32.6034 11.3319 32.7073 11.4379 32.8355 11.4379Z" fill="white"/>
<path d="M34.6292 13.3136C34.7574 13.3136 34.8613 13.2076 34.8613 13.0768C34.8613 12.946 34.7574 12.84 34.6292 12.84C34.501 12.84 34.3971 12.946 34.3971 13.0768C34.3971 13.2076 34.501 13.3136 34.6292 13.3136Z" fill="white"/>
<path d="M27.5915 13.1041C27.7197 13.1041 27.8236 12.9981 27.8236 12.8673C27.8236 12.7365 27.7197 12.6305 27.5915 12.6305C27.4633 12.6305 27.3593 12.7365 27.3593 12.8673C27.3593 12.9981 27.4633 13.1041 27.5915 13.1041Z" fill="white"/>
<path d="M30.1601 12.3647C30.2883 12.3647 30.3922 12.2587 30.3922 12.1279C30.3922 11.9971 30.2883 11.8911 30.1601 11.8911C30.0319 11.8911 29.9279 11.9971 29.9279 12.1279C29.9279 12.2587 30.0319 12.3647 30.1601 12.3647Z" fill="white"/>
<path d="M16.9113 20.9034C17.0395 20.9034 17.1434 20.7974 17.1434 20.6666C17.1434 20.5358 17.0395 20.4298 16.9113 20.4298C16.7831 20.4298 16.6791 20.5358 16.6791 20.6666C16.6791 20.7974 16.7831 20.9034 16.9113 20.9034Z" fill="white"/>
<path d="M17.8632 19.9545C17.9914 19.9545 18.0954 19.8485 18.0954 19.7177C18.0954 19.5869 17.9914 19.4809 17.8632 19.4809C17.735 19.4809 17.6311 19.5869 17.6311 19.7177C17.6311 19.8485 17.735 19.9545 17.8632 19.9545Z" fill="white"/>
<path d="M18.6799 19.0055C18.8081 19.0055 18.912 18.8995 18.912 18.7687C18.912 18.6379 18.8081 18.5319 18.6799 18.5319C18.5517 18.5319 18.4478 18.6379 18.4478 18.7687C18.4478 18.8995 18.5517 19.0055 18.6799 19.0055Z" fill="white"/>
<path d="M19.6335 17.9408C19.7617 17.9408 19.8657 17.8347 19.8657 17.7039C19.8657 17.5732 19.7617 17.4671 19.6335 17.4671C19.5053 17.4671 19.4014 17.5732 19.4014 17.7039C19.4014 17.8347 19.5053 17.9408 19.6335 17.9408Z" fill="white"/>
<path d="M30.2502 16.0906C30.3785 16.0906 30.4824 15.9846 30.4824 15.8538C30.4824 15.723 30.3785 15.617 30.2502 15.617C30.122 15.617 30.0181 15.723 30.0181 15.8538C30.0181 15.9846 30.122 16.0906 30.2502 16.0906Z" fill="white"/>
<path d="M36.3127 9.48382C36.4409 9.48382 36.5448 9.37779 36.5448 9.24701C36.5448 9.11622 36.4409 9.0102 36.3127 9.0102C36.1844 9.0102 36.0805 9.11622 36.0805 9.24701C36.0805 9.37779 36.1844 9.48382 36.3127 9.48382Z" fill="white"/>
<path d="M33.7207 10.5367C33.8489 10.5367 33.9528 10.4307 33.9528 10.2999C33.9528 10.1691 33.8489 10.0631 33.7207 10.0631C33.5925 10.0631 33.4885 10.1691 33.4885 10.2999C33.4885 10.4307 33.5925 10.5367 33.7207 10.5367Z" fill="white"/>
<path d="M25.1281 14.0292C25.2563 14.0292 25.3602 13.9231 25.3602 13.7924C25.3602 13.6616 25.2563 13.5555 25.1281 13.5555C24.9999 13.5555 24.896 13.6616 24.896 13.7924C24.896 13.9231 24.9999 14.0292 25.1281 14.0292Z" fill="white"/>
<path d="M31.0686 11.2914C31.1968 11.2914 31.3007 11.1854 31.3007 11.0546C31.3007 10.9238 31.1968 10.8178 31.0686 10.8178C30.9404 10.8178 30.8364 10.9238 30.8364 11.0546C30.8364 11.1854 30.9404 11.2914 31.0686 11.2914Z" fill="white"/>
<path d="M44.4078 22.1289C44.5355 22.1403 44.648 22.044 44.6592 21.9138C44.6704 21.7836 44.576 21.6688 44.4484 21.6574C44.3207 21.646 44.2082 21.7422 44.197 21.8724C44.1858 22.0026 44.2802 22.1175 44.4078 22.1289Z" fill="white"/>
<path d="M29.8474 26.3843C29.975 26.3957 30.0875 26.2994 30.0987 26.1692C30.1099 26.039 30.0155 25.9242 29.8879 25.9128C29.7603 25.9013 29.6477 25.9976 29.6365 26.1278C29.6253 26.258 29.7197 26.3728 29.8474 26.3843Z" fill="white"/>
<path d="M28.9109 27.2654C29.0386 27.2768 29.1511 27.1805 29.1623 27.0503C29.1735 26.9201 29.0791 26.8053 28.9515 26.7939C28.8239 26.7825 28.7113 26.8788 28.7001 27.009C28.6889 27.1392 28.7833 27.254 28.9109 27.2654Z" fill="white"/>
<path d="M27.9431 28.167C28.0708 28.1784 28.1833 28.0821 28.1945 27.9519C28.2057 27.8217 28.1113 27.7069 27.9837 27.6955C27.856 27.684 27.7435 27.7803 27.7323 27.9105C27.7211 28.0407 27.8155 28.1555 27.9431 28.167Z" fill="white"/>
<path d="M26.9563 28.9868C27.0839 28.9982 27.1965 28.9019 27.2076 28.7717C27.2188 28.6415 27.1245 28.5267 26.9968 28.5153C26.8692 28.5039 26.7566 28.6001 26.7454 28.7303C26.7342 28.8605 26.8286 28.9753 26.9563 28.9868Z" fill="white"/>
<path d="M26.0449 29.8401C26.1725 29.8516 26.2851 29.7553 26.2963 29.6251C26.3075 29.4949 26.2131 29.3801 26.0855 29.3686C25.9578 29.3572 25.8453 29.4535 25.8341 29.5837C25.8229 29.7139 25.9173 29.8287 26.0449 29.8401Z" fill="white"/>
<path d="M25.0275 30.7105C25.1551 30.722 25.2677 30.6257 25.2789 30.4955C25.2901 30.3653 25.1957 30.2505 25.068 30.239C24.9404 30.2276 24.8279 30.3239 24.8167 30.4541C24.8055 30.5843 24.8999 30.6991 25.0275 30.7105Z" fill="white"/>
<path d="M32.6095 25.7004C32.7371 25.7118 32.8497 25.6156 32.8609 25.4854C32.8721 25.3552 32.7777 25.2403 32.6501 25.2289C32.5224 25.2175 32.4099 25.3138 32.3987 25.444C32.3875 25.5742 32.4819 25.689 32.6095 25.7004Z" fill="white"/>
<path d="M31.6729 26.5815C31.8006 26.593 31.9131 26.4967 31.9243 26.3665C31.9355 26.2363 31.8411 26.1215 31.7135 26.1101C31.5858 26.0986 31.4733 26.1949 31.4621 26.3251C31.4509 26.4553 31.5453 26.5701 31.6729 26.5815Z" fill="white"/>
<path d="M30.7053 27.4833C30.8329 27.4947 30.9455 27.3984 30.9567 27.2682C30.9679 27.138 30.8735 27.0232 30.7458 27.0118C30.6182 27.0004 30.5056 27.0967 30.4944 27.2269C30.4832 27.3571 30.5776 27.4719 30.7053 27.4833Z" fill="white"/>
<path d="M29.7183 28.3029C29.8459 28.3143 29.9584 28.2181 29.9696 28.0879C29.9808 27.9577 29.8864 27.8428 29.7588 27.8314C29.6312 27.82 29.5186 27.9163 29.5074 28.0465C29.4962 28.1767 29.5906 28.2915 29.7183 28.3029Z" fill="white"/>
<path d="M28.8071 29.1563C28.9347 29.1677 29.0472 29.0714 29.0584 28.9412C29.0696 28.811 28.9752 28.6962 28.8476 28.6848C28.72 28.6734 28.6074 28.7696 28.5962 28.8999C28.585 29.0301 28.6794 29.1449 28.8071 29.1563Z" fill="white"/>
<path d="M27.7896 30.0269C27.9173 30.0383 28.0298 29.942 28.041 29.8118C28.0522 29.6816 27.9578 29.5668 27.8302 29.5554C27.7026 29.5439 27.59 29.6402 27.5788 29.7704C27.5676 29.9006 27.662 30.0154 27.7896 30.0269Z" fill="white"/>
<path d="M35.3404 24.9789C35.4681 24.9903 35.5806 24.8941 35.5918 24.7639C35.603 24.6337 35.5086 24.5188 35.381 24.5074C35.2533 24.496 35.1408 24.5923 35.1296 24.7225C35.1184 24.8527 35.2128 24.9675 35.3404 24.9789Z" fill="white"/>
<path d="M34.4038 25.8599C34.5315 25.8713 34.644 25.775 34.6552 25.6448C34.6664 25.5146 34.572 25.3998 34.4444 25.3884C34.3168 25.377 34.2042 25.4733 34.193 25.6035C34.1818 25.7337 34.2762 25.8485 34.4038 25.8599Z" fill="white"/>
<path d="M33.4362 26.7616C33.5638 26.7731 33.6764 26.6768 33.6876 26.5466C33.6988 26.4164 33.6044 26.3015 33.4767 26.2901C33.3491 26.2787 33.2366 26.375 33.2254 26.5052C33.2142 26.6354 33.3086 26.7502 33.4362 26.7616Z" fill="white"/>
<path d="M32.4492 27.5813C32.5768 27.5927 32.6894 27.4964 32.7006 27.3662C32.7118 27.236 32.6174 27.1212 32.4897 27.1098C32.3621 27.0983 32.2495 27.1946 32.2383 27.3248C32.2272 27.455 32.3215 27.5698 32.4492 27.5813Z" fill="white"/>
<path d="M31.538 28.4346C31.6656 28.446 31.7782 28.3497 31.7894 28.2195C31.8006 28.0893 31.7062 27.9745 31.5785 27.9631C31.4509 27.9517 31.3383 28.048 31.3272 28.1782C31.316 28.3084 31.4103 28.4232 31.538 28.4346Z" fill="white"/>
<path d="M30.5204 29.3052C30.648 29.3166 30.7606 29.2203 30.7718 29.0901C30.783 28.9599 30.6886 28.8451 30.5609 28.8337C30.4333 28.8223 30.3208 28.9185 30.3096 29.0487C30.2984 29.179 30.3928 29.2938 30.5204 29.3052Z" fill="white"/>
<path d="M38.0513 24.2905C38.1789 24.3019 38.2915 24.2056 38.3027 24.0754C38.3139 23.9452 38.2195 23.8304 38.0919 23.819C37.9642 23.8076 37.8517 23.9038 37.8405 24.034C37.8293 24.1642 37.9237 24.2791 38.0513 24.2905Z" fill="white"/>
<path d="M37.1149 25.1716C37.2425 25.183 37.3551 25.0867 37.3663 24.9565C37.3775 24.8263 37.2831 24.7115 37.1554 24.7001C37.0278 24.6887 36.9153 24.785 36.9041 24.9152C36.8929 25.0454 36.9873 25.1602 37.1149 25.1716Z" fill="white"/>
<path d="M36.1471 26.0733C36.2747 26.0848 36.3873 25.9885 36.3985 25.8583C36.4097 25.7281 36.3153 25.6133 36.1876 25.6019C36.06 25.5904 35.9474 25.6867 35.9362 25.8169C35.9251 25.9471 36.0194 26.0619 36.1471 26.0733Z" fill="white"/>
<path d="M35.1602 26.893C35.2879 26.9044 35.4004 26.8081 35.4116 26.6779C35.4228 26.5477 35.3284 26.4329 35.2008 26.4215C35.0731 26.4101 34.9606 26.5063 34.9494 26.6365C34.9382 26.7667 35.0326 26.8816 35.1602 26.893Z" fill="white"/>
<path d="M34.249 27.7463C34.3767 27.7578 34.4892 27.6615 34.5004 27.5313C34.5116 27.4011 34.4172 27.2863 34.2896 27.2748C34.1619 27.2634 34.0494 27.3597 34.0382 27.4899C34.027 27.6201 34.1214 27.7349 34.249 27.7463Z" fill="white"/>
<path d="M33.2314 28.6169C33.3591 28.6283 33.4716 28.532 33.4828 28.4018C33.494 28.2716 33.3996 28.1568 33.272 28.1454C33.1444 28.134 33.0318 28.2303 33.0206 28.3605C33.0094 28.4907 33.1038 28.6055 33.2314 28.6169Z" fill="white"/>
<path d="M41.7472 22.7594C41.8748 22.7708 41.9874 22.6745 41.9986 22.5443C42.0098 22.4141 41.9154 22.2993 41.7878 22.2879C41.6601 22.2765 41.5476 22.3728 41.5364 22.503C41.5252 22.6332 41.6196 22.748 41.7472 22.7594Z" fill="white"/>
<path d="M40.8108 23.6405C40.9384 23.652 41.051 23.5557 41.0622 23.4255C41.0734 23.2953 40.979 23.1805 40.8513 23.169C40.7237 23.1576 40.6112 23.2539 40.6 23.3841C40.5888 23.5143 40.6832 23.6291 40.8108 23.6405Z" fill="white"/>
<path d="M39.843 24.5423C39.9706 24.5537 40.0832 24.4574 40.0944 24.3272C40.1056 24.197 40.0112 24.0822 39.8835 24.0708C39.7559 24.0594 39.6433 24.1556 39.6321 24.2858C39.6209 24.416 39.7153 24.5309 39.843 24.5423Z" fill="white"/>
<path d="M38.8561 25.3619C38.9838 25.3733 39.0963 25.277 39.1075 25.1468C39.1187 25.0166 39.0243 24.9018 38.8967 24.8904C38.769 24.879 38.6565 24.9753 38.6453 25.1055C38.6341 25.2357 38.7285 25.3505 38.8561 25.3619Z" fill="white"/>
<path d="M37.9448 26.2153C38.0724 26.2267 38.1849 26.1304 38.1961 26.0002C38.2073 25.87 38.1129 25.7552 37.9853 25.7438C37.8577 25.7323 37.7451 25.8286 37.7339 25.9588C37.7227 26.089 37.8171 26.2038 37.9448 26.2153Z" fill="white"/>
<path d="M36.9273 27.0858C37.055 27.0973 37.1675 27.001 37.1787 26.8708C37.1899 26.7406 37.0955 26.6258 36.9679 26.6143C36.8403 26.6029 36.7277 26.6992 36.7165 26.8294C36.7053 26.9596 36.7997 27.0744 36.9273 27.0858Z" fill="white"/>
<path d="M39.037 23.4518C39.1646 23.4632 39.2772 23.3669 39.2884 23.2367C39.2996 23.1065 39.2052 22.9917 39.0775 22.9803C38.9499 22.9688 38.8374 23.0651 38.8262 23.1953C38.815 23.3255 38.9094 23.4403 39.037 23.4518Z" fill="white"/>
<path d="M33.6703 24.644C33.798 24.6554 33.9105 24.5591 33.9217 24.4289C33.9329 24.2987 33.8385 24.1839 33.7109 24.1725C33.5833 24.1611 33.4707 24.2573 33.4595 24.3875C33.4483 24.5177 33.5427 24.6326 33.6703 24.644Z" fill="white"/>
<path d="M36.291 24.1353C36.4187 24.1467 36.5312 24.0504 36.5424 23.9202C36.5536 23.79 36.4592 23.6752 36.3316 23.6638C36.204 23.6524 36.0914 23.7486 36.0802 23.8788C36.069 24.009 36.1634 24.1238 36.291 24.1353Z" fill="white"/>
<path d="M22.362 31.4606C22.4897 31.4721 22.6022 31.3758 22.6134 31.2456C22.6246 31.1154 22.5302 31.0006 22.4026 30.9891C22.2749 30.9777 22.1624 31.074 22.1512 31.2042C22.14 31.3344 22.2344 31.4492 22.362 31.4606Z" fill="white"/>
<path d="M23.3925 30.6005C23.5201 30.6119 23.6327 30.5156 23.6439 30.3854C23.6551 30.2552 23.5607 30.1404 23.433 30.129C23.3054 30.1175 23.1928 30.2138 23.1816 30.344C23.1704 30.4742 23.2648 30.589 23.3925 30.6005Z" fill="white"/>
<path d="M24.2873 29.728C24.4149 29.7395 24.5275 29.6432 24.5387 29.513C24.5499 29.3828 24.4555 29.268 24.3279 29.2565C24.2002 29.2451 24.0877 29.3414 24.0765 29.4716C24.0653 29.6018 24.1597 29.7166 24.2873 29.728Z" fill="white"/>
<path d="M25.3276 28.7527C25.4552 28.7641 25.5678 28.6678 25.579 28.5376C25.5902 28.4074 25.4958 28.2926 25.3682 28.2812C25.2405 28.2698 25.128 28.3661 25.1168 28.4963C25.1056 28.6265 25.2 28.7413 25.3276 28.7527Z" fill="white"/>
<path d="M36.0624 27.855C36.19 27.8665 36.3026 27.7702 36.3138 27.64C36.325 27.5098 36.2306 27.395 36.103 27.3835C35.9753 27.3721 35.8628 27.4684 35.8516 27.5986C35.8404 27.7288 35.9348 27.8436 36.0624 27.855Z" fill="white"/>
<path d="M31.1365 25.345C31.2641 25.3565 31.3767 25.2602 31.3879 25.13C31.3991 24.9998 31.3047 24.885 31.177 24.8735C31.0494 24.8621 30.9369 24.9584 30.9257 25.0886C30.9145 25.2188 31.0089 25.3336 31.1365 25.345Z" fill="white"/>
<path d="M43.4712 23.0098C43.5989 23.0213 43.7114 22.925 43.7226 22.7948C43.7338 22.6646 43.6394 22.5498 43.5118 22.5383C43.3841 22.5269 43.2716 22.6232 43.2604 22.7534C43.2492 22.8836 43.3436 22.9984 43.4712 23.0098Z" fill="white"/>
<path d="M42.5036 23.9116C42.6312 23.923 42.7438 23.8267 42.755 23.6965C42.7662 23.5663 42.6718 23.4515 42.5441 23.4401C42.4165 23.4287 42.304 23.525 42.2928 23.6551C42.2816 23.7854 42.376 23.9002 42.5036 23.9116Z" fill="white"/>
<path d="M41.5166 24.7314C41.6442 24.7428 41.7568 24.6465 41.7679 24.5163C41.7791 24.3861 41.6848 24.2713 41.5571 24.2599C41.4295 24.2485 41.3169 24.3447 41.3057 24.475C41.2945 24.6052 41.3889 24.72 41.5166 24.7314Z" fill="white"/>
<path d="M40.6054 25.5847C40.733 25.5962 40.8456 25.4999 40.8567 25.3697C40.8679 25.2395 40.7736 25.1247 40.6459 25.1132C40.5183 25.1018 40.4057 25.1981 40.3945 25.3283C40.3833 25.4585 40.4777 25.5733 40.6054 25.5847Z" fill="white"/>
<path d="M39.588 26.4551C39.7156 26.4666 39.8281 26.3703 39.8393 26.2401C39.8505 26.1099 39.7561 25.9951 39.6285 25.9836C39.5009 25.9722 39.3883 26.0685 39.3771 26.1987C39.3659 26.3289 39.4603 26.4437 39.588 26.4551Z" fill="white"/>
<path d="M38.7228 27.2243C38.8505 27.2358 38.963 27.1395 38.9742 27.0093C38.9854 26.8791 38.891 26.7643 38.7634 26.7528C38.6358 26.7414 38.5232 26.8377 38.512 26.9679C38.5008 27.0981 38.5952 27.2129 38.7228 27.2243Z" fill="white"/>
<path fill-rule="evenodd" clip-rule="evenodd" d="M70.7712 27.1606C70.7465 27.3074 70.8431 27.4289 70.9867 27.4289H74.6426C74.7863 27.4289 74.925 27.3074 74.9522 27.1606L77.5505 12.1009L75.3783 12.5716C74.2116 12.8246 73.1243 13.5307 72.9212 14.7049L70.7712 27.1606ZM60.1453 23.1572H67.0286C68.1804 23.1572 68.7005 24.1441 68.7501 25.293L68.8442 27.4289H58.3446C56.487 27.4289 55.2361 25.8751 55.5631 23.9796L56.9749 15.8082C57.3019 13.9103 59.0877 12.359 60.9454 12.359H71.4449L70.6152 14.4948C70.1693 15.6412 69.3074 16.6281 68.1556 16.6281H61.0123L59.9323 22.8914C59.9051 23.0382 60.0017 23.1572 60.1453 23.1572ZM130.412 12.359H140.88L140.204 14.1026C139.758 15.2515 138.908 16.1499 137.744 16.2384L132.609 16.6281C132.471 16.6281 132.369 16.6965 132.327 16.78C132.282 16.8686 132.302 16.9748 132.409 17.0457L137.88 21.12C139.243 22.1854 139.037 24.6199 137.964 25.908C136.892 27.196 135.966 27.4364 134.873 27.4289H123.779L124.485 25.6093C124.931 24.4604 125.783 23.5393 126.942 23.4735L132.622 23.1572C132.748 23.1572 132.879 23.0762 132.902 22.9446C132.922 22.8358 132.857 22.7725 132.79 22.7168L127.405 18.6653C126.013 17.6531 125.994 15.4717 127.321 13.8799C128.151 12.8828 129.32 12.3489 130.412 12.359ZM118.508 23.1572L119.977 14.6441C120.18 13.4674 121.268 12.7614 122.437 12.5083L124.607 12.0376L122.546 23.9796C122.219 25.8751 120.433 27.4289 118.575 27.4289H111.137C109.282 27.4289 108.031 25.8751 108.358 23.9796C108.99 20.3203 109.621 16.6585 110.253 12.9992C110.315 12.6449 110.644 12.359 110.991 12.359H113.916C114.268 12.359 114.493 12.6525 114.434 12.9992C113.849 16.3852 113.265 19.7712 112.68 23.1572H118.508ZM102.505 18.0326L103.003 16.6281H97.175L96.6102 19.799L101.948 18.5362C102.206 18.4755 102.416 18.2857 102.505 18.0326ZM96.1644 22.4815L95.3099 27.4289H91.3914C91.2477 27.4289 91.1511 27.3074 91.1759 27.1606L93.1351 15.8082C93.4646 13.9103 95.2504 12.359 97.1056 12.359H107.397C107.684 12.359 107.907 12.5994 107.828 12.893L106.065 19.2727C105.819 20.2292 105.113 21.0922 103.781 21.2997L101.633 21.6337L106.223 26.9683C106.287 27.0442 106.292 27.1555 106.235 27.2593C106.176 27.3631 106.072 27.4289 105.963 27.4289H102.04C101.195 27.4289 100.437 27.2239 99.9714 26.5912L96.8728 22.3727L96.1644 22.4815ZM81.142 27.4289H84.8004C84.944 27.4289 85.0827 27.3074 85.1075 27.1606L86.9256 16.6281H89.4421C90.5914 16.6281 91.4533 15.6412 91.8992 14.4948L92.7289 12.359C88.3696 12.359 84.0078 12.359 79.6484 12.359C79.5048 12.359 79.3661 12.4779 79.3413 12.6247L78.6948 16.3624C78.6701 16.5092 78.7667 16.6281 78.9103 16.6281H85.7342C85.7688 16.6281 85.7986 16.656 85.8035 16.6914C85.8085 16.7294 85.7837 16.7623 85.749 16.7699L83.0938 17.3975C82.7966 17.4683 82.5563 17.7214 82.5068 18.0225L80.929 27.1606C80.9017 27.3074 80.9983 27.4289 81.142 27.4289Z" fill="url(#paint0_linear_2579_2)"/>
<path fill-rule="evenodd" clip-rule="evenodd" d="M223.901 12.325H234.369L233.693 14.0686C233.247 15.2175 232.397 16.1159 231.233 16.2044L226.098 16.5967C225.957 16.5967 225.858 16.6625 225.816 16.746C225.771 16.8346 225.791 16.9434 225.898 17.0142L231.369 21.0886C232.732 22.1514 232.526 24.5884 231.453 25.874C230.381 27.162 229.455 27.405 228.362 27.3949H217.266L217.974 25.5779C218.42 24.429 219.272 23.5053 220.431 23.442L226.111 23.1257C226.235 23.1257 226.368 23.0447 226.391 22.9106C226.41 22.8018 226.346 22.7385 226.277 22.6854L220.894 18.6338C219.542 17.5507 219.483 15.4377 220.81 13.8459C221.64 12.8488 222.809 12.3174 223.901 12.325ZM155.034 22.0274L154.107 27.3949H150.189C150.045 27.3949 149.949 27.2759 149.973 27.1291L151.933 15.7742C152.26 13.8788 154.048 12.325 155.903 12.325C159.041 12.325 162.18 12.325 165.315 12.325L164.488 14.4608C164.042 15.6097 163.18 16.5967 162.029 16.5967C160.01 16.5967 157.991 16.5967 155.97 16.5967L155.663 18.3808C160.111 18.3808 158.878 18.3808 163.326 18.3808L162.739 19.8941C162.294 21.0405 161.432 22.0274 160.28 22.0274C157.067 22.0274 158.246 22.0274 155.034 22.0274ZM175.015 27.3949H178.673C178.817 27.3949 178.956 27.2759 178.98 27.1291L180.798 16.5967H183.312C184.464 16.5967 185.326 15.6097 185.772 14.4608L186.602 12.325C182.24 12.325 177.881 12.325 173.521 12.325C173.378 12.325 173.239 12.4465 173.212 12.5932L172.568 16.331C172.543 16.4777 172.64 16.5967 172.783 16.5967H179.605C179.642 16.5967 179.671 16.6245 179.674 16.66C179.679 16.6954 179.657 16.7308 179.622 16.7384L176.964 17.366C176.667 17.4369 176.429 17.6899 176.377 17.9885L174.799 27.1291C174.775 27.2759 174.871 27.3949 175.015 27.3949ZM164.644 27.1291C164.617 27.2759 164.713 27.3949 164.857 27.3949H168.515C168.659 27.3949 168.798 27.2759 168.823 27.1291L171.423 12.0669L169.251 12.5376C168.085 12.7906 166.995 13.4967 166.792 14.6734L164.644 27.1291ZM213.226 17.4824L213.635 16.5967H207.804L207.331 19.2488L212.669 17.986C212.926 17.9253 213.112 17.7279 213.226 17.4824ZM206.796 22.45L206.603 23.4395H213.377C214.519 23.4395 215.049 24.4264 215.098 25.5753L215.175 27.3949C212.04 27.3949 208.275 27.3949 205.136 27.3949C203.281 27.3949 202.028 25.8436 202.357 23.9456C202.825 21.2227 203.296 18.4997 203.767 15.7742C204.094 13.8788 205.882 12.325 207.737 12.325H218.029C218.316 12.325 218.539 12.5679 218.457 12.859L216.696 19.2412C216.451 20.1978 215.742 21.0607 214.412 21.2657L206.796 22.45ZM239.533 12.325H250L249.322 14.0686C248.876 15.2175 248.026 16.1159 246.865 16.2044L241.73 16.5967C241.589 16.5967 241.487 16.6625 241.445 16.746C241.401 16.8346 241.42 16.9434 241.529 17.0142L247.001 21.0886C248.361 22.1514 248.158 24.5884 247.085 25.874C246.013 27.162 245.084 27.405 243.991 27.3949H232.897L233.603 25.5779C234.049 24.429 234.901 23.5053 236.063 23.442L241.742 23.1257C241.866 23.1257 241.998 23.0447 242.022 22.9106C242.04 22.8018 241.975 22.7385 241.908 22.6854L236.524 18.6338C235.174 17.5507 235.114 15.4377 236.439 13.8459C237.269 12.8488 238.441 12.3174 239.533 12.325ZM192.098 12.325L195.593 19.7701L195.608 19.803L195.746 20.0965L195.794 20.1927L196.816 22.364C196.831 22.3969 196.869 22.4121 196.901 22.4019C196.935 22.3893 196.955 22.3564 196.948 22.321L196.408 19.307L197.208 14.6734C197.411 13.4967 198.498 12.7906 199.665 12.5376L201.837 12.0669L199.192 27.3949H196.975C194.949 27.3949 194.33 26.5952 193.874 25.6082L191.281 20.0054L190.741 18.8616H190.738L190.208 17.738C190.193 17.7051 190.159 17.6899 190.124 17.7C190.089 17.7127 190.069 17.7481 190.077 17.781L190.622 20.8203L190.632 20.8152L189.542 27.1291C189.517 27.2759 189.378 27.3949 189.235 27.3949H185.316L187.87 12.5932C187.897 12.4465 188.033 12.325 188.177 12.325H192.098Z" fill="url(#paint1_linear_2579_2)"/>
<path d="M57.3775 29.9406C57.3948 29.8368 57.4543 29.7862 57.5558 29.7862H57.8952C57.9472 29.7862 57.9868 29.7938 58.0091 29.8141C58.0339 29.8318 58.0388 29.8748 58.0289 29.9406L57.7614 31.3122C58.0933 31.3325 58.3682 31.3881 58.5887 31.4868C58.8091 31.583 58.9825 31.7095 59.1138 31.8639C59.2451 32.0182 59.3367 32.1979 59.3887 32.4004C59.4432 32.6028 59.4705 32.8179 59.4705 33.0406C59.4705 33.4354 59.4135 33.8023 59.2996 34.1465C59.1881 34.4881 59.0221 34.7893 58.8067 35.0449C58.5887 35.303 58.3212 35.508 57.9967 35.6598C57.6722 35.8117 57.3032 35.8901 56.8895 35.8952L56.6295 37.2794C56.6196 37.3148 56.6022 37.3477 56.5824 37.373C56.5601 37.4009 56.5279 37.4135 56.4784 37.4135H56.1044C56.0053 37.4135 55.9632 37.3629 55.9805 37.2592L56.2381 35.8952C55.6635 35.8673 55.2325 35.7054 54.9452 35.4143C54.6554 35.1233 54.5117 34.7134 54.5117 34.187C54.5117 33.8302 54.5588 33.4809 54.6554 33.1469C54.7495 32.8103 54.9031 32.5092 55.1136 32.246C55.3241 31.9828 55.5941 31.7677 55.9235 31.6007C56.253 31.4337 56.6493 31.3375 57.11 31.3122L57.3775 29.9406ZM112.734 33.9694C112.664 34.2832 112.58 34.5615 112.481 34.7994C112.384 35.0398 112.256 35.2423 112.1 35.4042C111.941 35.5687 111.748 35.6927 111.52 35.7737C111.292 35.8547 111.015 35.8952 110.688 35.8952C110.522 35.8952 110.331 35.8775 110.113 35.842C109.898 35.8041 109.677 35.7383 109.452 35.6421L109.442 35.6497L109.14 37.2415C109.127 37.3022 109.11 37.3477 109.085 37.373C109.063 37.4009 109.018 37.4135 108.951 37.4135H108.587C108.523 37.4135 108.483 37.4034 108.471 37.3781C108.461 37.3528 108.461 37.3098 108.471 37.2415L109.548 31.54C109.573 31.4387 109.633 31.3856 109.727 31.3856H110.101C110.202 31.3856 110.242 31.4387 110.225 31.54L110.153 31.8867C110.16 31.8791 110.165 31.8765 110.173 31.8765C110.249 31.836 110.348 31.7804 110.475 31.7146C110.599 31.6462 110.735 31.583 110.883 31.5222C111.032 31.4615 111.186 31.4109 111.347 31.3679C111.508 31.3249 111.661 31.3046 111.81 31.3046C112.218 31.3046 112.506 31.4109 112.672 31.6235C112.838 31.836 112.922 32.1498 112.922 32.5674C112.922 32.6585 112.917 32.7648 112.91 32.8812C112.9 33.0001 112.885 33.1241 112.867 33.2507C112.85 33.3772 112.83 33.5037 112.805 33.6277C112.783 33.7517 112.758 33.8656 112.734 33.9694ZM112.218 32.6509C112.223 32.3599 112.179 32.1676 112.08 32.0739C111.983 31.9778 111.83 31.9322 111.622 31.9322C111.515 31.9322 111.389 31.9499 111.245 31.9854C111.099 32.0233 110.953 32.0689 110.804 32.122C110.656 32.1777 110.517 32.2359 110.386 32.2966C110.254 32.3573 110.145 32.408 110.056 32.451L109.558 35.0677C109.784 35.141 109.999 35.1942 110.207 35.222C110.415 35.2549 110.613 35.2676 110.804 35.2676C110.97 35.2676 111.116 35.2473 111.245 35.2018C111.371 35.1562 111.485 35.0803 111.582 34.9765C111.681 34.8753 111.765 34.7412 111.837 34.5767C111.906 34.4147 111.973 34.2123 112.033 33.9694C112.055 33.8707 112.077 33.7644 112.1 33.6454C112.119 33.5265 112.139 33.4101 112.157 33.2912C112.174 33.1722 112.189 33.0583 112.201 32.9445C112.213 32.8331 112.218 32.7344 112.218 32.6509ZM107.706 35.6598C107.683 35.7636 107.621 35.8142 107.52 35.8142H107.146C107.044 35.8142 107.005 35.7636 107.022 35.6598L107.547 32.9242C107.616 32.5471 107.619 32.2865 107.55 32.1422C107.483 31.9955 107.314 31.9221 107.047 31.9221C106.94 31.9221 106.819 31.9423 106.683 31.9828C106.546 32.0208 106.408 32.0689 106.264 32.122C106.123 32.1777 105.987 32.2359 105.86 32.2966C105.731 32.3573 105.625 32.408 105.536 32.451C105.536 32.4687 105.531 32.4991 105.526 32.5421C105.521 32.5826 105.513 32.6307 105.504 32.6813C105.494 32.7344 105.486 32.7825 105.481 32.8331C105.476 32.8812 105.469 32.9166 105.464 32.9419L104.949 35.6598C104.924 35.7636 104.862 35.8142 104.761 35.8142H104.369C104.28 35.8142 104.248 35.7636 104.27 35.6598L104.805 32.8584C104.86 32.5623 104.857 32.332 104.8 32.1676C104.743 32.0056 104.58 31.9221 104.307 31.9221C104.206 31.9221 104.092 31.9398 103.968 31.9727C103.844 32.0056 103.713 32.0486 103.577 32.0992C103.44 32.1524 103.304 32.208 103.168 32.2688C103.032 32.3295 102.905 32.3852 102.794 32.4409L102.18 35.6598C102.162 35.7636 102.103 35.8142 102.001 35.8142H101.627C101.533 35.8142 101.493 35.7636 101.513 35.6598L102.296 31.54C102.318 31.4387 102.378 31.3856 102.474 31.3856H102.838C102.945 31.3856 102.987 31.4387 102.962 31.54L102.9 31.8588H102.918C103.019 31.7981 103.131 31.7348 103.252 31.669C103.373 31.6007 103.502 31.54 103.638 31.4868C103.775 31.4311 103.916 31.3856 104.062 31.3502C104.208 31.3122 104.352 31.2945 104.493 31.2945C104.82 31.2945 105.063 31.3527 105.219 31.464C105.377 31.5754 105.476 31.7373 105.516 31.9499C105.783 31.7854 106.063 31.6361 106.358 31.4995C106.653 31.3628 106.95 31.2945 107.252 31.2945C107.525 31.2945 107.738 31.335 107.894 31.4134C108.047 31.4919 108.156 31.6032 108.223 31.7449C108.288 31.8867 108.315 32.0587 108.307 32.2587C108.298 32.4586 108.27 32.6813 108.223 32.9242L107.706 35.6598ZM100.463 35.632C100.438 35.7534 100.364 35.8142 100.24 35.8142H99.9826C99.834 35.8142 99.772 35.7534 99.7943 35.632L100.151 33.7694H97.9342L97.5775 35.632C97.5552 35.7534 97.4809 35.8142 97.3571 35.8142H97.0797C96.9434 35.8142 96.8865 35.7534 96.9112 35.632L97.684 31.5779C97.6964 31.5045 97.7212 31.4539 97.7608 31.4261C97.8004 31.4008 97.8524 31.3856 97.9168 31.3856H98.1918C98.2587 31.3856 98.3033 31.4008 98.3305 31.4261C98.3577 31.4539 98.3652 31.5045 98.3528 31.5779L98.0506 33.1596H100.265L100.57 31.5779C100.58 31.5045 100.609 31.4539 100.654 31.4261C100.698 31.4008 100.753 31.3856 100.817 31.3856H101.075C101.142 31.3856 101.186 31.4008 101.214 31.4261C101.241 31.4539 101.248 31.5045 101.236 31.5779L100.463 35.632ZM92.6832 34.6147C92.6832 34.4147 92.703 34.2123 92.7451 34.0048C92.7872 33.7998 92.8318 33.5999 92.8788 33.405C92.921 33.2051 92.9854 32.9824 93.0745 32.7369C93.1637 32.4915 93.295 32.2612 93.4708 32.0511C93.6467 31.8386 93.8721 31.6614 94.147 31.5172C94.4244 31.3755 94.7761 31.3046 95.2022 31.3046C95.3855 31.3046 95.5613 31.3274 95.7273 31.3729C95.8932 31.4185 96.0394 31.4868 96.1632 31.5779C96.2871 31.669 96.3861 31.7804 96.458 31.9145C96.5273 32.0461 96.5645 32.2005 96.5645 32.3776C96.5645 32.6307 96.51 32.8534 96.4035 33.0406C96.2994 33.2279 96.1583 33.3898 95.9874 33.524C95.814 33.6556 95.6183 33.7644 95.3954 33.8504C95.1749 33.9339 94.9495 34.0023 94.7192 34.0503C94.4863 34.0984 94.2585 34.1339 94.0356 34.1541C93.8102 34.1769 93.612 34.187 93.4411 34.187C93.4039 34.349 93.3866 34.4957 93.3866 34.6299C93.3866 34.7918 93.4188 34.9158 93.4807 35.0019C93.5426 35.0904 93.6219 35.1512 93.7185 35.1866C93.8176 35.222 93.9266 35.2448 94.0455 35.2499C94.1693 35.2575 94.2882 35.26 94.4046 35.26C94.4764 35.26 94.5631 35.2575 94.6672 35.2499C94.7712 35.2448 94.8777 35.2372 94.9916 35.2271C95.1031 35.2195 95.217 35.2094 95.3335 35.2018C95.4474 35.1916 95.5514 35.1815 95.6381 35.1689C95.6926 35.1638 95.7347 35.1663 95.7669 35.179C95.7991 35.1891 95.8164 35.2271 95.8164 35.2878V35.4801C95.8164 35.5662 95.7719 35.632 95.6827 35.675C95.5762 35.718 95.4598 35.7534 95.3359 35.7813C95.2121 35.8091 95.0808 35.8294 94.9495 35.8471C94.8158 35.8623 94.682 35.8724 94.5532 35.8774C94.4219 35.885 94.2981 35.8876 94.1792 35.8876C93.9464 35.8876 93.7408 35.8673 93.555 35.8294C93.3717 35.7889 93.2132 35.7206 93.0844 35.6244C92.9532 35.5257 92.8541 35.3966 92.7847 35.2321C92.7178 35.0676 92.6832 34.8627 92.6832 34.6147ZM95.8784 32.4915C95.8784 32.289 95.8065 32.1422 95.6604 32.0587C95.5143 31.9752 95.3409 31.9322 95.1402 31.9322C94.8554 31.9322 94.6226 31.9778 94.4467 32.0714C94.2684 32.165 94.1222 32.2814 94.0083 32.4206C93.8968 32.5598 93.8126 32.704 93.7606 32.8584C93.7061 33.0128 93.6615 33.1469 93.6269 33.2608L93.5377 33.6151C93.6566 33.6151 93.7978 33.6075 93.9612 33.5923C94.1247 33.5771 94.2907 33.5543 94.4641 33.524C94.635 33.4936 94.8059 33.4531 94.9743 33.4025C95.1452 33.3494 95.2963 33.281 95.43 33.1975C95.5613 33.114 95.6703 33.0128 95.7545 32.9014C95.8363 32.785 95.8784 32.6484 95.8784 32.4915ZM91.358 35.842C91.2738 35.8041 91.1797 35.7383 91.0781 35.6421C90.9741 35.5434 90.9097 35.4169 90.8849 35.26H90.8602C90.776 35.3081 90.6645 35.3688 90.5208 35.4422C90.3797 35.5156 90.2236 35.5864 90.0527 35.6547C89.8843 35.7256 89.7109 35.7838 89.5326 35.8319C89.3542 35.88 89.1883 35.9053 89.0347 35.9053C88.7449 35.9053 88.5195 35.8623 88.3635 35.7788C88.2049 35.6927 88.096 35.5763 88.034 35.427C87.9721 35.2802 87.9449 35.1031 87.9572 34.8956C87.9696 34.6906 87.9994 34.4654 88.0464 34.2224L88.5542 31.54C88.579 31.4387 88.6409 31.3856 88.74 31.3856H89.114C89.2155 31.3856 89.2576 31.4387 89.2403 31.54L88.7226 34.2325C88.6805 34.4451 88.6607 34.6172 88.6607 34.7513C88.6607 34.8829 88.6805 34.9892 88.7226 35.0677C88.7647 35.1486 88.8291 35.2018 88.9158 35.2321C89 35.2625 89.114 35.2777 89.2576 35.2777C89.3641 35.2777 89.4929 35.2574 89.644 35.2144C89.7951 35.1714 89.9462 35.1233 90.0973 35.0677C90.2484 35.0145 90.3945 34.9563 90.5307 34.8956C90.667 34.8348 90.771 34.7867 90.8404 34.7513L91.4546 31.54C91.4794 31.4387 91.5413 31.3856 91.6429 31.3856H92.007C92.1085 31.3856 92.1457 31.4387 92.1234 31.54L91.4992 34.7867C91.4695 34.9512 91.4819 35.0727 91.5364 35.1512C91.5884 35.2296 91.6553 35.2954 91.732 35.3511C91.8088 35.4042 91.8757 35.4624 91.9351 35.5181C91.9946 35.5763 92.0119 35.6649 91.9896 35.7863L91.7494 36.8517C91.737 36.9302 91.7172 36.9808 91.6924 37.0061C91.6652 37.0289 91.633 37.0415 91.5983 37.0415H91.3655C91.3184 37.0415 91.2812 37.0289 91.254 37.0061C91.2292 36.9808 91.2243 36.9302 91.2416 36.8517L91.358 35.842ZM87.4693 33.0229C87.4495 33.0963 87.4 33.1317 87.3182 33.1317H84.9057C84.8165 33.1317 84.7819 33.0963 84.7992 33.0229L84.8686 32.6509C84.8809 32.6003 84.8983 32.5699 84.9181 32.5547C84.9404 32.5396 84.9726 32.532 85.0197 32.532H87.4321C87.4743 32.532 87.5065 32.5396 87.5263 32.5547C87.5461 32.5699 87.551 32.6003 87.5387 32.6509L87.4693 33.0229ZM84.5045 31.9044C84.4871 31.9524 84.4574 31.9828 84.4153 31.9904C84.3732 32.0005 84.3212 32.0005 84.2568 31.9955C84.0784 31.9778 83.8803 31.9575 83.6648 31.9373C83.4468 31.9145 83.2561 31.9044 83.0901 31.9044C82.887 31.9044 82.7137 31.9322 82.57 31.9854C82.4239 32.041 82.2975 32.1321 82.191 32.2587C82.0845 32.3852 81.9929 32.5547 81.9186 32.7648C81.8443 32.9774 81.7774 33.2405 81.718 33.5543C81.6907 33.7315 81.6659 33.8884 81.6486 34.0301C81.6313 34.1718 81.6213 34.3059 81.6213 34.4249C81.6164 34.7387 81.6783 34.9588 81.8121 35.0778C81.9458 35.1992 82.1588 35.26 82.4486 35.26C82.5205 35.26 82.6072 35.2575 82.7112 35.2499C82.8152 35.2448 82.9242 35.2372 83.0406 35.2271C83.157 35.2195 83.271 35.2094 83.3824 35.2018C83.4964 35.1916 83.5979 35.1815 83.6871 35.1689C83.7391 35.1638 83.7812 35.1663 83.8159 35.179C83.8481 35.1891 83.8629 35.2271 83.8629 35.2878V35.4801C83.8629 35.5662 83.8184 35.632 83.7292 35.675C83.5459 35.756 83.3255 35.8091 83.0679 35.842C82.8103 35.8724 82.5675 35.8876 82.3421 35.8876C82.0449 35.8876 81.8046 35.8496 81.6164 35.7737C81.4306 35.6978 81.282 35.5991 81.1706 35.4776C81.0616 35.3561 80.9873 35.217 80.9452 35.0601C80.9031 34.9032 80.8832 34.7412 80.8832 34.5767C80.8832 34.4249 80.9179 34.063 80.9179 34.063C80.9427 33.8732 80.9724 33.6859 81.0071 33.5037C81.0616 33.2127 81.1284 32.9343 81.2077 32.6686C81.287 32.4029 81.4059 32.1675 81.5594 31.9626C81.713 31.7601 81.9161 31.5982 82.1638 31.4767C82.414 31.3552 82.7384 31.2945 83.1422 31.2945C83.2313 31.2945 83.3403 31.297 83.4642 31.3046C83.588 31.3097 83.7143 31.3198 83.8406 31.335C83.9694 31.3527 84.0933 31.3729 84.2147 31.4008C84.336 31.4261 84.4425 31.4615 84.5317 31.5045C84.5738 31.5222 84.5961 31.5501 84.5986 31.5855C84.6011 31.6235 84.5961 31.6589 84.5837 31.6943L84.5045 31.9044ZM76.5313 34.6147C76.5313 34.4147 76.5511 34.2123 76.5932 34.0048C76.6354 33.7998 76.6799 33.5999 76.727 33.405C76.7666 33.2051 76.8335 32.9824 76.9227 32.7369C77.0118 32.4915 77.1431 32.2612 77.319 32.0511C77.4924 31.8386 77.7178 31.6614 77.9952 31.5172C78.2701 31.3755 78.6218 31.3046 79.0503 31.3046C79.2336 31.3046 79.407 31.3274 79.5754 31.3729C79.7414 31.4185 79.885 31.4868 80.0114 31.5779C80.1352 31.669 80.2318 31.7804 80.3036 31.9145C80.3755 32.0461 80.4101 32.2005 80.4101 32.3776C80.4101 32.6307 80.3581 32.8534 80.2516 33.0406C80.1451 33.2279 80.0064 33.3898 79.833 33.524C79.6621 33.6556 79.4665 33.7644 79.2435 33.8504C79.0231 33.9339 78.7952 34.0023 78.5649 34.0503C78.3345 34.0984 78.1066 34.1339 77.8812 34.1541C77.6558 34.1769 77.4602 34.187 77.2868 34.187C77.2521 34.349 77.2323 34.4957 77.2323 34.6299C77.2323 34.7918 77.2645 34.9158 77.3264 35.0019C77.3883 35.0904 77.4676 35.1512 77.5667 35.1866C77.6633 35.222 77.7747 35.2448 77.8936 35.2499C78.015 35.2575 78.1364 35.26 78.2528 35.26C78.3246 35.26 78.4113 35.2575 78.5153 35.2499C78.6193 35.2448 78.7259 35.2372 78.8398 35.2271C78.9513 35.2195 79.0652 35.2094 79.1791 35.2018C79.2955 35.1916 79.3971 35.1815 79.4863 35.1689C79.5383 35.1638 79.5829 35.1663 79.6151 35.179C79.6473 35.1891 79.6621 35.2271 79.6621 35.2878V35.4801C79.6621 35.5662 79.6175 35.632 79.5308 35.675C79.4219 35.718 79.3079 35.7534 79.1816 35.7813C79.0578 35.8091 78.929 35.8294 78.7952 35.8471C78.6615 35.8623 78.5302 35.8724 78.3989 35.8774C78.2701 35.885 78.1438 35.8876 78.0249 35.8876C77.7945 35.8876 77.5865 35.8673 77.4032 35.8294C77.2174 35.7889 77.0614 35.7206 76.9301 35.6244C76.8013 35.5257 76.7022 35.3966 76.6329 35.2321C76.5635 35.0676 76.5313 34.8627 76.5313 34.6147ZM79.7265 32.4915C79.7265 32.289 79.6522 32.1422 79.5086 32.0587C79.3624 31.9752 79.189 31.9322 78.9859 31.9322C78.7011 31.9322 78.4707 31.9778 78.2924 32.0714C78.1141 32.165 77.9704 32.2814 77.8565 32.4206C77.745 32.5598 77.6608 32.704 77.6063 32.8584C77.5543 33.0128 77.5097 33.1469 77.475 33.2608L77.3859 33.6151C77.5047 33.6151 77.6435 33.6075 77.8069 33.5923C77.9704 33.5771 78.1388 33.5543 78.3097 33.524C78.4831 33.4936 78.654 33.4531 78.8225 33.4025C78.9909 33.3494 79.142 33.281 79.2757 33.1975C79.4095 33.114 79.5185 33.0128 79.6002 32.9014C79.6844 32.785 79.7265 32.6484 79.7265 32.4915ZM75.33 35.632C75.3053 35.7534 75.231 35.8142 75.1071 35.8142H74.8495C74.7009 35.8142 74.639 35.7534 74.6613 35.632L75.0179 33.7694H72.8011L72.4444 35.632C72.4222 35.7534 72.3479 35.8142 72.224 35.8142H71.9466C71.8104 35.8142 71.7534 35.7534 71.7782 35.632L72.5534 31.5779C72.5633 31.5045 72.5906 31.4539 72.6277 31.4261C72.6674 31.4008 72.7194 31.3856 72.7838 31.3856H73.0587C73.1256 31.3856 73.1702 31.4008 73.1974 31.4261C73.2247 31.4539 73.2321 31.5045 73.2197 31.5779L72.9175 33.1596H75.1344L75.4365 31.5779C75.4489 31.5045 75.4762 31.4539 75.5208 31.4261C75.5653 31.4008 75.6198 31.3856 75.6842 31.3856H75.9418C76.0087 31.3856 76.0533 31.4008 76.0805 31.4261C76.1078 31.4539 76.1152 31.5045 76.1028 31.5779L75.33 35.632ZM70.7106 35.6598C70.6859 35.7636 70.6239 35.8142 70.5224 35.8142H70.1484C70.0493 35.8142 70.0072 35.7636 70.0245 35.6598L70.5496 32.9242C70.6215 32.5471 70.6215 32.2865 70.5546 32.1422C70.4852 31.9955 70.3193 31.9221 70.0518 31.9221C69.9453 31.9221 69.8239 31.9423 69.6877 31.9828C69.549 32.0208 69.4102 32.0689 69.2691 32.122C69.1254 32.1777 68.9917 32.2359 68.8629 32.2966C68.7365 32.3573 68.6276 32.408 68.5384 32.451C68.5384 32.4687 68.5359 32.4991 68.5285 32.5421C68.5235 32.5826 68.5161 32.6307 68.5087 32.6813C68.4988 32.7344 68.4913 32.7825 68.4839 32.8331C68.4789 32.8812 68.474 32.9166 68.4665 32.9419L67.9514 35.6598C67.9266 35.7636 67.8647 35.8142 67.7631 35.8142H67.3718C67.2826 35.8142 67.2504 35.7636 67.2752 35.6598L67.8077 32.8584C67.8622 32.5623 67.8597 32.332 67.8052 32.1676C67.7483 32.0056 67.5823 31.9221 67.3098 31.9221C67.2108 31.9221 67.0968 31.9398 66.973 31.9727C66.8467 32.0056 66.7179 32.0486 66.5816 32.0992C66.4454 32.1524 66.3067 32.208 66.1705 32.2688C66.0342 32.3295 65.9104 32.3852 65.7965 32.4409L65.1822 35.6598C65.1649 35.7636 65.1054 35.8142 65.0063 35.8142H64.6323C64.5357 35.8142 64.4986 35.7636 64.5159 35.6598L65.2986 31.54C65.3234 31.4387 65.3828 31.3856 65.4769 31.3856H65.841C65.9475 31.3856 65.9897 31.4387 65.9674 31.54L65.903 31.8588H65.9228C66.0219 31.7981 66.1333 31.7348 66.2547 31.669C66.3785 31.6007 66.5073 31.54 66.6436 31.4868C66.7798 31.4311 66.921 31.3856 67.0646 31.3502C67.2108 31.3122 67.3544 31.2945 67.4981 31.2945C67.8226 31.2945 68.0653 31.3527 68.2213 31.464C68.3799 31.5754 68.4789 31.7373 68.521 31.9499C68.7886 31.7854 69.0684 31.6361 69.3607 31.4995C69.6555 31.3628 69.9527 31.2945 70.2574 31.2945C70.5298 31.2945 70.7428 31.335 70.8964 31.4134C71.05 31.4919 71.1614 31.6032 71.2258 31.7449C71.2927 31.8867 71.3199 32.0587 71.31 32.2587C71.3026 32.4586 71.2729 32.6813 71.2258 32.9242L70.7106 35.6598ZM63.5177 35.6598C63.5004 35.7636 63.4409 35.8142 63.3419 35.8142H62.9753C62.8688 35.8142 62.8267 35.7636 62.8514 35.6598L62.9134 35.3232C62.9134 35.3182 62.9084 35.3207 62.896 35.3334C62.8118 35.3814 62.7078 35.4371 62.579 35.5054C62.4527 35.5712 62.3139 35.6345 62.1628 35.6927C62.0093 35.7484 61.8532 35.799 61.6898 35.842C61.5263 35.885 61.3678 35.9053 61.2142 35.9053C60.9244 35.9053 60.699 35.8623 60.543 35.7788C60.3844 35.6927 60.2755 35.5763 60.2135 35.427C60.1516 35.2802 60.1244 35.1031 60.1367 34.8956C60.1491 34.6906 60.1789 34.4654 60.2259 34.2224L60.7337 31.54C60.7585 31.4387 60.8204 31.3856 60.9194 31.3856H61.2935C61.395 31.3856 61.4371 31.4387 61.4198 31.54L60.9021 34.2325C60.86 34.4451 60.8402 34.6172 60.8402 34.7513C60.8402 34.8829 60.86 34.9892 60.9021 35.0677C60.9442 35.1486 61.0086 35.2018 61.0928 35.2321C61.1795 35.2625 61.2935 35.2777 61.4371 35.2777C61.5436 35.2777 61.6724 35.2574 61.8235 35.2144C61.9746 35.1714 62.1257 35.1233 62.2768 35.0677C62.4279 35.0145 62.5715 34.9563 62.7103 34.8956C62.8465 34.8348 62.9505 34.7867 63.0199 34.7513L63.6341 31.54C63.6589 31.4387 63.7208 31.3856 63.8224 31.3856H64.1865C64.288 31.3856 64.3252 31.4387 64.3029 31.54L63.5177 35.6598ZM56.996 31.9398C56.6741 31.9398 56.4016 32.0081 56.1712 32.1448C55.9434 32.2814 55.7576 32.456 55.6115 32.6686C55.4653 32.8812 55.3588 33.1165 55.2919 33.3721C55.2226 33.6303 55.1879 33.8808 55.1879 34.1237C55.1879 34.8576 55.5768 35.2448 56.3545 35.2878L56.996 31.9398ZM57.0035 35.2878C57.3007 35.2802 57.5608 35.2195 57.7837 35.1005C58.0066 34.9816 58.1924 34.8222 58.3435 34.6223C58.4946 34.4223 58.6085 34.1921 58.6828 33.9263C58.7571 33.6632 58.7943 33.3873 58.7943 33.0963C58.7943 32.9318 58.7745 32.78 58.7398 32.6408C58.7051 32.5016 58.6432 32.3801 58.5565 32.2764C58.4723 32.1751 58.3534 32.0916 58.2048 32.0309C58.0586 31.9702 57.8704 31.9398 57.645 31.9398L57.0035 35.2878Z" fill="url(#paint2_linear_2579_2)"/>
<defs>
<linearGradient id="paint0_linear_2579_2" x1="62.3092" y1="11.8252" x2="156.408" y2="12.3533" gradientUnits="userSpaceOnUse">
<stop stop-color="#FABC2A"/>
<stop offset="1" stop-color="#F75B2D"/>
</linearGradient>
<linearGradient id="paint1_linear_2579_2" x1="62.3092" y1="11.8252" x2="156.408" y2="12.3533" gradientUnits="userSpaceOnUse">
<stop stop-color="#FABC2A"/>
<stop offset="1" stop-color="#F75B2D"/>
</linearGradient>
<linearGradient id="paint2_linear_2579_2" x1="62.3092" y1="11.8252" x2="156.408" y2="12.3533" gradientUnits="userSpaceOnUse">
<stop stop-color="#FABC2A"/>
<stop offset="1" stop-color="#F75B2D"/>
</linearGradient>
</defs>
</svg>
