<svg width="67" height="530" viewBox="0 0 67 530" fill="none" xmlns="http://www.w3.org/2000/svg">
<path fill-rule="evenodd" clip-rule="evenodd" d="M50.4245 388.215C50.7392 388.27 50.9996 388.056 50.9996 387.738V379.644C50.9996 379.326 50.7392 379.019 50.4245 378.959L18.1356 373.206L19.1448 378.016C19.6874 380.598 21.2012 383.006 23.7188 383.455L50.4245 388.215ZM41.8409 411.74V396.501C41.8409 393.951 43.957 392.8 46.4203 392.69L50.9996 392.482V415.727C50.9996 419.84 47.6682 422.609 43.6043 421.885L26.0844 418.759C22.0151 418.035 18.6891 414.082 18.6891 409.969L18.6891 386.724L23.2684 388.561C25.7263 389.548 27.8424 391.456 27.8424 394.006V409.821L41.2712 412.212C41.5859 412.272 41.8409 412.058 41.8409 411.74ZM18.6891 256.174V233L22.4274 234.497C24.8907 235.484 26.8169 237.365 27.0068 239.942L27.8424 251.31C27.8424 251.617 27.9889 251.842 28.1679 251.935C28.3578 252.034 28.5857 251.99 28.7376 251.754L37.4731 239.641C39.7574 236.625 44.977 237.08 47.7387 239.454C50.5005 241.829 51.0159 243.88 50.9996 246.298V270.859L47.0985 269.296C44.6352 268.309 42.6602 266.423 42.5191 263.857L41.8409 251.282C41.8409 251.003 41.6673 250.712 41.3851 250.663C41.1518 250.619 41.0162 250.762 40.8968 250.91L32.2101 262.831C30.0398 265.913 25.3628 265.957 21.95 263.018C19.8122 261.181 18.6674 258.592 18.6891 256.174ZM41.8409 282.528L23.5886 279.277C21.0656 278.827 19.5518 276.42 19.0092 273.831L18 269.028L43.6043 273.59C47.6682 274.314 50.9996 278.268 50.9996 282.38V298.848C50.9996 302.955 47.6682 305.724 43.6043 305.001C35.7586 303.602 27.9075 302.204 20.0618 300.806C19.3022 300.668 18.6891 299.939 18.6891 299.171V292.695C18.6891 291.917 19.3185 291.417 20.0618 291.549C27.3215 292.843 34.5812 294.137 41.8409 295.432L41.8409 282.528ZM30.8537 317.958L27.8424 316.856V329.759L34.6409 331.01L31.9334 319.192C31.8032 318.622 31.3963 318.156 30.8537 317.958ZM40.3922 331.997L50.9996 333.888V342.564C50.9996 342.882 50.7392 343.096 50.4245 343.041L26.0844 338.703C22.0151 337.974 18.6891 334.02 18.6891 329.913V307.128C18.6891 306.492 19.2045 305.999 19.8339 306.174L33.5123 310.078C35.5633 310.621 37.4135 312.184 37.8584 315.134L38.5746 319.889L50.0121 309.727C50.1749 309.585 50.4136 309.574 50.6361 309.7C50.8586 309.832 50.9996 310.062 50.9996 310.303V318.989C50.9996 320.859 50.5601 322.537 49.2037 323.568L40.1589 330.428L40.3922 331.997ZM50.9996 365.255V357.156C50.9996 356.838 50.7392 356.531 50.4245 356.476L27.8424 352.451V346.879C27.8424 344.335 25.7263 342.427 23.2684 341.44L18.6891 339.602C18.6891 349.254 18.6891 358.911 18.6891 368.562C18.6891 368.88 18.9441 369.187 19.2588 369.242L27.2727 370.673C27.5874 370.728 27.8424 370.514 27.8424 370.196V355.088C27.8424 355.012 27.9021 354.946 27.978 354.935C28.0594 354.924 28.1299 354.979 28.1462 355.055L29.4918 360.934C29.6437 361.592 30.1863 362.124 30.832 362.234L50.4245 365.727C50.7392 365.787 50.9996 365.573 50.9996 365.255Z" fill="url(#paint0_linear_2457_3)"/>
<path fill-rule="evenodd" clip-rule="evenodd" d="M18.5557 62.6611V39.5354L22.3095 41.0293C24.7829 42.0143 26.717 43.8913 26.9077 46.4632L27.7522 57.8072C27.7522 58.1191 27.8938 58.338 28.0736 58.431C28.2643 58.5295 28.4986 58.4857 28.6511 58.2504L37.4226 46.1622C39.7108 43.1525 44.9574 43.6067 47.725 45.9762C50.4981 48.3457 51.0211 50.3923 50.9993 52.8056V77.3213L47.0876 75.7562C44.6141 74.7712 42.6256 72.8887 42.4894 70.3277L41.8083 57.7798C41.8083 57.5062 41.634 57.2107 41.3453 57.1615C41.111 57.1177 40.9748 57.26 40.8604 57.4132L32.1379 69.3044C29.8061 72.2922 25.2569 72.4236 21.83 69.4904C19.6835 67.6572 18.5394 65.0743 18.5557 62.6611ZM39.4439 214.812L50.9993 216.858V225.515C50.9993 225.833 50.7433 226.046 50.4273 225.991L25.9815 221.663C21.9009 220.941 18.5557 216.99 18.5557 212.891C18.5557 205.957 18.5557 199.024 18.5557 192.096L23.1539 193.924C25.6274 194.909 27.7522 196.813 27.7522 199.358C27.7522 203.818 27.7522 208.278 27.7522 212.743L31.5931 213.422C31.5931 203.593 31.5931 206.319 31.5931 196.49L34.8511 197.787C37.3191 198.772 39.4439 200.677 39.4439 203.221C39.4439 210.319 39.4439 207.714 39.4439 214.812ZM50.9993 170.667V162.584C50.9993 162.267 50.7433 161.961 50.4273 161.906L27.7522 157.889V152.335C27.7522 149.79 25.6274 147.886 23.1539 146.901L18.5557 145.068C18.5557 154.704 18.5557 164.336 18.5557 173.967C18.5557 174.284 18.8172 174.59 19.1332 174.651L27.1801 176.073C27.4961 176.128 27.7522 175.915 27.7522 175.597V160.527C27.7522 160.445 27.8121 160.379 27.8884 160.374C27.9646 160.363 28.0409 160.412 28.0573 160.489L29.4084 166.36C29.5609 167.017 30.1058 167.542 30.7486 167.657L50.4273 171.143C50.7433 171.198 50.9993 170.984 50.9993 170.667ZM50.4273 193.579C50.7433 193.639 50.9993 193.426 50.9993 193.109V185.026C50.9993 184.709 50.7433 184.402 50.4273 184.348L18 178.602L19.0133 183.401C19.5582 185.978 21.0782 188.386 23.6116 188.835L50.4273 193.579ZM29.659 86.2465L27.7522 85.3436V98.2253L33.4618 99.2704L30.7432 87.4778C30.6124 86.9086 30.1875 86.4982 29.659 86.2465ZM40.3537 100.452L42.4839 100.879L42.4839 85.9127C42.4839 83.39 44.6087 82.2189 47.0821 82.1095L50.9993 81.9398C50.9993 88.8677 50.9993 97.1855 50.9993 104.119C50.9993 108.218 47.6596 110.987 43.5735 110.259C37.7113 109.224 31.8492 108.185 25.9815 107.145C21.9009 106.423 18.5557 102.472 18.5557 98.373L18.5557 75.6358C18.5557 75.001 19.0787 74.5085 19.7053 74.6891L33.4455 78.5799C35.5049 79.1216 37.3627 80.6866 37.804 83.6252L40.3537 100.452ZM18.5557 28.1257V4.99994L22.3095 6.49933C24.7829 7.48434 26.717 9.36134 26.9077 11.9278L27.7522 23.2718C27.7522 23.5837 27.8938 23.8081 28.0736 23.9011C28.2643 23.9996 28.4986 23.9558 28.6511 23.7151L37.4226 11.6269C39.7108 8.6226 44.9574 9.0713 47.725 11.4408C50.4981 13.8103 51.0211 15.8624 50.9994 18.2756L50.9993 42.7859L47.0876 41.2263C44.6141 40.2413 42.6256 38.3588 42.4894 35.7923L41.8083 23.2444C41.8083 22.9708 41.634 22.6808 41.3453 22.6261C41.111 22.5878 40.9748 22.7301 40.8604 22.8778L32.1379 34.7745C29.8061 37.7569 25.2569 37.8882 21.83 34.9605C19.6835 33.1273 18.5394 30.539 18.5557 28.1257ZM18.5557 132.925L34.5841 125.203L34.6549 125.171L35.2869 124.864L35.494 124.76L40.1685 122.5C40.2393 122.467 40.272 122.385 40.2502 122.314C40.2229 122.237 40.1521 122.194 40.0758 122.21L33.5871 123.403L23.6116 121.636C21.0782 121.187 19.5582 118.785 19.0133 116.207L18 111.408L50.9993 117.252V122.15C50.9993 126.626 49.2777 127.994 47.153 129.001L35.0908 134.731L32.6282 135.924V135.929L30.2093 137.1C30.1384 137.133 30.1057 137.21 30.1275 137.286C30.1548 137.363 30.2311 137.407 30.3019 137.39L36.8451 136.186L36.8342 136.164L50.4273 138.572C50.7433 138.627 50.9993 138.933 50.9993 139.251V147.908L19.1332 142.266C18.8172 142.206 18.5557 141.905 18.5557 141.587V132.925Z" fill="url(#paint1_linear_2457_3)"/>
<path fill-rule="evenodd" clip-rule="evenodd" d="M14.4121 507.277C15.6826 506.416 17.3549 505.599 18.4853 505.084C18.1303 507.797 17.0778 513.931 14.5522 517.324C12.1139 520.599 6.01334 524.216 2.91792 525.922C3.64973 524.091 4.81752 521.353 6.01334 519.348L6.06628 519.258C8.05931 515.915 12.4004 508.636 14.4121 507.277ZM19.1206 503.064C19.1113 503.067 15.773 504.43 13.5215 505.951C11.217 507.507 6.75139 514.998 4.69919 518.441L4.64625 518.531C2.65921 521.864 0.766735 527.07 0.664515 527.351L0.660191 527.363L0 529.237L1.77193 528.342L1.78676 528.334C2.22799 528.109 12.355 522.946 15.8321 518.279C19.3554 513.548 20.1972 504.156 20.2224 503.875L20.223 503.868L20.3414 502.552L19.1206 503.064ZM53.8305 450.421C51.252 448.621 48.4026 447.249 45.4069 446.345L43.9962 445.918L45.9613 451.19C44.9712 450.154 43.8418 449.047 42.7546 447.981L42.7541 447.981L42.754 447.98C41.9325 447.175 41.135 446.394 40.4398 445.684C40.3246 445.568 40.2094 445.472 40.0942 445.4C39.9335 445.301 39.7627 445.238 39.5863 445.222C39.4148 445.126 39.2322 445.113 38.9613 445.095L38.9544 445.094L38.8641 445.088C36.7092 444.929 34.2708 444.985 31.9944 445.257C29.8457 445.512 27.8277 445.961 26.3112 446.598C25.7786 446.822 24.8164 447.365 23.7981 447.973C22.4559 448.777 20.9954 449.713 20.3103 450.187L19.8338 450.514C21.3522 455.664 22.8786 460.489 24.4395 465.165C22.7782 463.924 21.1906 462.796 19.728 461.806C17.5357 460.319 15.5707 459.099 14.0292 458.236C13.4064 457.889 12.9829 458.273 12.9829 458.273L12.9471 458.351C12.7607 458.432 12.584 458.593 12.4129 458.841C11.3697 460.359 10.1957 462.255 9.28322 463.927C8.46421 465.424 7.84762 466.765 7.69503 467.538C7.56423 468.224 7.28708 470.962 7.17186 473.834C7.09712 475.699 7.08778 477.633 7.2248 479.126L7.24348 479.304L14.8576 492.506L5.98227 482.753L5.21931 486.985L5.20063 487.2C5.35601 487.61 5.51503 488.039 5.67897 488.482L5.67948 488.483L5.67955 488.484C7.73992 494.048 10.5775 501.71 16.7384 498.932L18.1775 498.263L19.8494 501.161L19.84 501.149L19.8681 501.189C20.1608 501.654 20.8334 502.477 21.9483 503.344C22.6926 503.921 23.6424 504.526 24.8195 505.069C26.3112 505.755 28.463 505.93 31.0228 506.135C31.9072 506.204 32.8414 506.279 33.6729 506.366L35.0369 506.503L27.7392 489.984C32.4809 495.474 36.2388 501.424 37.8028 503.901L37.8117 503.915L38.2352 504.585C38.3909 504.829 38.5964 505.044 38.7957 505.19C39.109 505.421 39.4707 505.524 39.7913 505.446C39.8362 505.449 39.8872 505.447 39.9447 505.44L40.0973 505.418C41.6668 505.219 43.6069 504.773 45.3788 504.28C47.7175 503.631 49.8164 502.889 50.4299 502.537C50.9749 502.222 51.4887 501.9 51.9745 501.542C52.4728 501.177 52.9555 500.768 53.435 500.288L53.7714 499.945L46.1584 475.76C47.6727 478.092 49.0821 480.417 50.3458 482.603C53.245 487.615 55.3689 491.881 56.2221 493.83L56.3934 494.226L56.3952 494.226C56.4396 494.322 56.4824 494.395 56.5211 494.435C57.1128 495.024 57.4024 494.815 57.9505 494.266C59.6944 492.52 61.2172 490.478 62.4566 488.291C63.7272 486.056 64.7019 483.664 65.3216 481.275L65.359 481.128L65.0974 479.083C64.8615 477.227 64.6434 475.513 64.4155 473.873L65.4555 473.987L66.2496 474.109L66.3586 473.304C66.533 472.032 66.9503 468.243 67.0001 464.94C66.8849 461.856 65.9911 457.537 62.5936 456.483L61.4881 456.224L62.3289 462.312L62.5059 463.594C62.0043 461.575 61.3934 459.454 60.6193 457.107L60.5788 456.982L60.501 456.876C58.6076 454.341 56.3467 452.176 53.8305 450.421ZM25.981 468.034C26.4699 469.334 26.9536 470.621 27.4339 471.899C30.5933 480.334 35.768 494.302 38.749 502.727C36.4695 499.297 30.3407 490.71 25.8153 485.629L25.8067 485.61L25.6291 485.421C25.1155 484.85 24.6239 484.326 24.1625 483.863C24.1612 483.86 24.1599 483.858 24.1587 483.855L13.5072 459.749C14.7531 460.51 17.4542 462.195 18.8343 463.132C19.3293 463.466 19.9071 463.849 20.528 464.26C22.3013 465.435 24.4264 466.842 25.981 468.034ZM24.1877 485.876C24.2412 486.003 24.2951 486.13 24.3494 486.258L24.4117 486.405L24.4265 486.419C26.7265 491.647 29.0359 496.872 31.3466 502.1L31.3469 502.101L31.3471 502.101L32.474 504.651L31.1474 504.542L31.1409 504.541C28.7365 504.348 26.7149 504.186 25.489 503.619C24.4271 503.129 23.5801 502.59 22.923 502.081C22.0044 501.367 21.4656 500.728 21.2258 500.363L8.79431 478.805C8.67908 477.417 8.69154 475.634 8.76317 473.897C8.87527 471.109 9.13686 468.483 9.26142 467.841C9.37976 467.232 9.93407 466.054 10.6815 464.688C11.4044 463.367 12.2989 461.889 13.1614 460.584C13.9513 462.409 14.6532 464.015 15.3056 465.499C18.2385 472.307 21.205 479.094 24.1877 485.876ZM47.2193 454.565C49.4948 461.794 53.0504 476.084 55.1908 485.494C55.4173 486.691 55.6213 487.862 55.7986 488.996C54.9398 487.364 53.1994 484.352 51.9738 482.232L51.7253 481.802C49.7974 478.468 46.392 473.629 43.8658 470.04L43.8657 470.039L43.6131 469.68C42.8673 467.506 42.3967 466.105 41.8463 464.466L41.617 463.783C41.4946 462.969 41.3784 462.161 41.2663 461.356L40.0182 451.57C39.8314 450.061 39.6347 448.49 39.4184 446.828C40.5103 447.987 41.8155 449.229 43.1093 450.461C44.6106 451.891 46.0966 453.305 47.2163 454.557L47.2193 454.565ZM32.1813 446.844C34.302 446.591 36.5721 446.532 38.5901 446.669L38.6001 446.739L38.6006 446.743C39.5424 453.307 40.0871 457.128 40.4959 459.996L40.7262 461.611L41.1094 464.292L41.1923 464.561L43.3306 471.496L43.3733 471.648L43.3809 471.659L51.9621 499.49C51.66 499.771 51.3517 500.023 51.0309 500.257C50.5825 500.588 50.1185 500.878 49.6358 501.155C49.122 501.451 47.1819 502.125 44.9553 502.742C43.3796 503.179 41.6793 503.578 40.2655 503.787L26.0402 465.926L21.6898 451.175C22.4372 450.683 23.5614 449.972 24.6171 449.342C25.5762 448.768 26.4638 448.266 26.9309 448.073C28.3073 447.493 30.1727 447.081 32.1813 446.844ZM61.0739 487.503C60.0951 489.225 58.9328 490.851 57.6151 492.301C57.5795 492.04 57.529 491.756 57.4646 491.45C57.2155 490.256 56.8138 488.538 56.3155 486.48C55.468 483.353 54.4056 479.233 53.2803 474.869L52.941 473.554C50.9227 465.108 48.8377 456.68 46.3754 448.347C48.686 449.18 50.8908 450.318 52.9181 451.734C55.263 453.368 57.3713 455.379 59.1432 457.73C61.8065 465.844 62.4927 471.221 63.5189 479.261L63.5216 479.282L63.7427 481.022C63.1573 483.224 62.248 485.432 61.0739 487.503ZM65.1908 471.873L62.7431 457.752C64.6116 458.903 65.988 462.23 65.7295 465.252C65.714 466.359 65.4929 470.962 65.1908 471.873ZM6.8947 485.915L16.5111 497.164C11.5411 499.348 9.23908 493.458 7.64368 489.375L7.64366 489.375C7.25575 488.383 6.90962 487.497 6.57706 486.86C6.63623 486.598 6.78882 486.174 6.8947 485.915Z" fill="#FEFEFE"/>
<path d="M26.3579 484.549C26.3579 484.31 26.1641 484.116 25.925 484.116C25.686 484.116 25.4922 484.31 25.4922 484.549C25.4922 484.789 25.686 484.983 25.925 484.983C26.1641 484.983 26.3579 484.789 26.3579 484.549Z" fill="#FEFEFE"/>
<path d="M28.1143 486.149C28.1143 485.91 27.9205 485.716 27.6814 485.716C27.4423 485.716 27.2485 485.91 27.2485 486.149C27.2485 486.388 27.4423 486.583 27.6814 486.583C27.9205 486.583 28.1143 486.388 28.1143 486.149Z" fill="#FEFEFE"/>
<path d="M29.9141 487.805C29.9141 487.566 29.7203 487.371 29.4812 487.371C29.2421 487.371 29.0483 487.566 29.0483 487.805C29.0483 488.044 29.2421 488.238 29.4812 488.238C29.7203 488.238 29.9141 488.044 29.9141 487.805Z" fill="#FEFEFE"/>
<path d="M31.5679 489.511C31.5679 489.271 31.3741 489.077 31.135 489.077C30.8959 489.077 30.7021 489.271 30.7021 489.511C30.7021 489.75 30.8959 489.944 31.135 489.944C31.3741 489.944 31.5679 489.75 31.5679 489.511Z" fill="#FEFEFE"/>
<path d="M33.271 491.067C33.271 490.828 33.0772 490.633 32.8381 490.633C32.5991 490.633 32.4053 490.828 32.4053 491.067C32.4053 491.306 32.5991 491.5 32.8381 491.5C33.0772 491.5 33.271 491.306 33.271 491.067Z" fill="#FEFEFE"/>
<path d="M35.0215 492.823C35.0215 492.583 34.8277 492.389 34.5886 492.389C34.3496 492.389 34.1558 492.583 34.1558 492.823C34.1558 493.062 34.3496 493.256 34.5886 493.256C34.8277 493.256 35.0215 493.062 35.0215 492.823Z" fill="#FEFEFE"/>
<path d="M24.6636 479.519C24.6636 479.28 24.4698 479.086 24.2307 479.086C23.9916 479.086 23.7979 479.28 23.7979 479.519C23.7979 479.759 23.9916 479.953 24.2307 479.953C24.4698 479.953 24.6636 479.759 24.6636 479.519Z" fill="#FEFEFE"/>
<path d="M26.4199 481.122C26.4199 480.883 26.2261 480.689 25.9871 480.689C25.748 480.689 25.5542 480.883 25.5542 481.122C25.5542 481.361 25.748 481.556 25.9871 481.556C26.2261 481.556 26.4199 481.361 26.4199 481.122Z" fill="#FEFEFE"/>
<path d="M28.2202 482.775C28.2202 482.536 28.0264 482.341 27.7874 482.341C27.5483 482.341 27.3545 482.536 27.3545 482.775C27.3545 483.014 27.5483 483.208 27.7874 483.208C28.0264 483.208 28.2202 483.014 28.2202 482.775Z" fill="#FEFEFE"/>
<path d="M29.8735 484.481C29.8735 484.241 29.6797 484.047 29.4407 484.047C29.2016 484.047 29.0078 484.241 29.0078 484.481C29.0078 484.72 29.2016 484.914 29.4407 484.914C29.6797 484.914 29.8735 484.72 29.8735 484.481Z" fill="#FEFEFE"/>
<path d="M31.5742 486.04C31.5742 485.801 31.3804 485.606 31.1414 485.606C30.9023 485.606 30.7085 485.801 30.7085 486.04C30.7085 486.279 30.9023 486.473 31.1414 486.473C31.3804 486.473 31.5742 486.279 31.5742 486.04Z" fill="#FEFEFE"/>
<path d="M33.3271 487.792C33.3271 487.553 33.1333 487.359 32.8943 487.359C32.6552 487.359 32.4614 487.553 32.4614 487.792C32.4614 488.032 32.6552 488.226 32.8943 488.226C33.1333 488.226 33.3271 488.032 33.3271 487.792Z" fill="#FEFEFE"/>
<path d="M22.9043 474.555C22.9043 474.315 22.7105 474.121 22.4714 474.121C22.2324 474.121 22.0386 474.315 22.0386 474.555C22.0386 474.794 22.2324 474.988 22.4714 474.988C22.7105 474.988 22.9043 474.794 22.9043 474.555Z" fill="#FEFEFE"/>
<path d="M24.6606 476.157C24.6606 475.918 24.4668 475.724 24.2278 475.724C23.9887 475.724 23.7949 475.918 23.7949 476.157C23.7949 476.397 23.9887 476.591 24.2278 476.591C24.4668 476.591 24.6606 476.397 24.6606 476.157Z" fill="#FEFEFE"/>
<path d="M26.4604 477.813C26.4604 477.574 26.2666 477.38 26.0276 477.38C25.7885 477.38 25.5947 477.574 25.5947 477.813C25.5947 478.053 25.7885 478.247 26.0276 478.247C26.2666 478.247 26.4604 478.053 26.4604 477.813Z" fill="#FEFEFE"/>
<path d="M28.1143 479.516C28.1143 479.277 27.9205 479.083 27.6814 479.083C27.4423 479.083 27.2485 479.277 27.2485 479.516C27.2485 479.756 27.4423 479.95 27.6814 479.95C27.9205 479.95 28.1143 479.756 28.1143 479.516Z" fill="#FEFEFE"/>
<path d="M29.8145 481.075C29.8145 480.836 29.6207 480.642 29.3816 480.642C29.1425 480.642 28.9487 480.836 28.9487 481.075C28.9487 481.315 29.1425 481.509 29.3816 481.509C29.6207 481.509 29.8145 481.315 29.8145 481.075Z" fill="#FEFEFE"/>
<path d="M31.5679 482.828C31.5679 482.588 31.3741 482.394 31.135 482.394C30.8959 482.394 30.7021 482.588 30.7021 482.828C30.7021 483.067 30.8959 483.261 31.135 483.261C31.3741 483.261 31.5679 483.067 31.5679 482.828Z" fill="#FEFEFE"/>
<path d="M21.207 469.621C21.207 469.382 21.0132 469.188 20.7742 469.188C20.5351 469.188 20.3413 469.382 20.3413 469.621C20.3413 469.861 20.5351 470.055 20.7742 470.055C21.0132 470.055 21.207 469.861 21.207 469.621Z" fill="#FEFEFE"/>
<path d="M22.9663 471.224C22.9663 470.985 22.7725 470.791 22.5334 470.791C22.2944 470.791 22.1006 470.985 22.1006 471.224C22.1006 471.463 22.2944 471.657 22.5334 471.657C22.7725 471.657 22.9663 471.463 22.9663 471.224Z" fill="#FEFEFE"/>
<path d="M24.7632 472.88C24.7632 472.641 24.5694 472.447 24.3303 472.447C24.0913 472.447 23.8975 472.641 23.8975 472.88C23.8975 473.119 24.0913 473.313 24.3303 473.313C24.5694 473.313 24.7632 473.119 24.7632 472.88Z" fill="#FEFEFE"/>
<path d="M26.417 474.586C26.417 474.346 26.2232 474.152 25.9841 474.152C25.7451 474.152 25.5513 474.346 25.5513 474.586C25.5513 474.825 25.7451 475.019 25.9841 475.019C26.2232 475.019 26.417 474.825 26.417 474.586Z" fill="#FEFEFE"/>
<path d="M28.1206 476.142C28.1206 475.902 27.9268 475.708 27.6877 475.708C27.4487 475.708 27.2549 475.902 27.2549 476.142C27.2549 476.381 27.4487 476.575 27.6877 476.575C27.9268 476.575 28.1206 476.381 28.1206 476.142Z" fill="#FEFEFE"/>
<path d="M29.8706 477.898C29.8706 477.658 29.6768 477.464 29.4377 477.464C29.1987 477.464 29.0049 477.658 29.0049 477.898C29.0049 478.137 29.1987 478.331 29.4377 478.331C29.6768 478.331 29.8706 478.137 29.8706 477.898Z" fill="#FEFEFE"/>
<path d="M17.8188 462.991C17.8188 462.752 17.625 462.558 17.386 462.558C17.1469 462.558 16.9531 462.752 16.9531 462.991C16.9531 463.231 17.1469 463.425 17.386 463.425C17.625 463.425 17.8188 463.231 17.8188 462.991Z" fill="#FEFEFE"/>
<path d="M19.5752 464.594C19.5752 464.355 19.3814 464.161 19.1423 464.161C18.9033 464.161 18.7095 464.355 18.7095 464.594C18.7095 464.834 18.9033 465.028 19.1423 465.028C19.3814 465.028 19.5752 464.834 19.5752 464.594Z" fill="#FEFEFE"/>
<path d="M21.375 466.25C21.375 466.011 21.1812 465.817 20.9421 465.817C20.7031 465.817 20.5093 466.011 20.5093 466.25C20.5093 466.489 20.7031 466.683 20.9421 466.683C21.1812 466.683 21.375 466.489 21.375 466.25Z" fill="#FEFEFE"/>
<path d="M23.0288 467.956C23.0288 467.717 22.835 467.522 22.5959 467.522C22.3569 467.522 22.1631 467.717 22.1631 467.956C22.1631 468.195 22.3569 468.389 22.5959 468.389C22.835 468.389 23.0288 468.195 23.0288 467.956Z" fill="#FEFEFE"/>
<path d="M24.729 469.512C24.729 469.273 24.5352 469.079 24.2961 469.079C24.0571 469.079 23.8633 469.273 23.8633 469.512C23.8633 469.751 24.0571 469.945 24.2961 469.945C24.5352 469.945 24.729 469.751 24.729 469.512Z" fill="#FEFEFE"/>
<path d="M26.4824 471.268C26.4824 471.028 26.2886 470.834 26.0496 470.834C25.8105 470.834 25.6167 471.028 25.6167 471.268C25.6167 471.507 25.8105 471.701 26.0496 471.701C26.2886 471.701 26.4824 471.507 26.4824 471.268Z" fill="#FEFEFE"/>
<path d="M19.519 467.925C19.519 467.685 19.3252 467.491 19.0862 467.491C18.8471 467.491 18.6533 467.685 18.6533 467.925C18.6533 468.164 18.8471 468.358 19.0862 468.358C19.3252 468.358 19.519 468.164 19.519 467.925Z" fill="#FEFEFE"/>
<path d="M22.9478 464.575C22.9478 464.336 22.754 464.142 22.5149 464.142C22.2758 464.142 22.082 464.336 22.082 464.575C22.082 464.815 22.2758 465.009 22.5149 465.009C22.754 465.009 22.9478 464.815 22.9478 464.575Z" fill="#FEFEFE"/>
<path d="M22.5649 477.717C22.5649 477.477 22.3711 477.283 22.1321 477.283C21.893 477.283 21.6992 477.477 21.6992 477.717C21.6992 477.956 21.893 478.15 22.1321 478.15C22.3711 478.15 22.5649 477.956 22.5649 477.717Z" fill="#FEFEFE"/>
<path d="M21.2134 472.921C21.2134 472.681 21.0196 472.487 20.7805 472.487C20.5415 472.487 20.3477 472.681 20.3477 472.921C20.3477 473.16 20.5415 473.354 20.7805 473.354C21.0196 473.354 21.2134 473.16 21.2134 472.921Z" fill="#FEFEFE"/>
<path d="M36.8213 497.659C36.8213 497.42 36.6275 497.226 36.3884 497.226C36.1494 497.226 35.9556 497.42 35.9556 497.659C35.9556 497.899 36.1494 498.093 36.3884 498.093C36.6275 498.093 36.8213 497.899 36.8213 497.659Z" fill="#FEFEFE"/>
<path d="M35.0869 495.882C35.0869 495.642 34.8931 495.448 34.6541 495.448C34.415 495.448 34.2212 495.642 34.2212 495.882C34.2212 496.121 34.415 496.315 34.6541 496.315C34.8931 496.315 35.0869 496.121 35.0869 495.882Z" fill="#FEFEFE"/>
<path d="M33.352 494.357C33.352 494.117 33.1583 493.923 32.9192 493.923C32.6801 493.923 32.4863 494.117 32.4863 494.357C32.4863 494.596 32.6801 494.79 32.9192 494.79C33.1583 494.79 33.352 494.596 33.352 494.357Z" fill="#FEFEFE"/>
<path d="M31.4058 492.576C31.4058 492.337 31.212 492.143 30.9729 492.143C30.7338 492.143 30.54 492.337 30.54 492.576C30.54 492.816 30.7338 493.01 30.9729 493.01C31.212 493.01 31.4058 492.816 31.4058 492.576Z" fill="#FEFEFE"/>
<path d="M28.0239 472.752C28.0239 472.513 27.8301 472.319 27.5911 472.319C27.352 472.319 27.1582 472.513 27.1582 472.752C27.1582 472.991 27.352 473.186 27.5911 473.186C27.8301 473.186 28.0239 472.991 28.0239 472.752Z" fill="#FEFEFE"/>
<path d="M15.9473 461.432C15.9473 461.193 15.7535 460.999 15.5144 460.999C15.2753 460.999 15.0815 461.193 15.0815 461.432C15.0815 461.671 15.2753 461.865 15.5144 461.865C15.7535 461.865 15.9473 461.671 15.9473 461.432Z" fill="#FEFEFE"/>
<path d="M17.8716 466.272C17.8716 466.032 17.6778 465.838 17.4387 465.838C17.1997 465.838 17.0059 466.032 17.0059 466.272C17.0059 466.511 17.1997 466.705 17.4387 466.705C17.6778 466.705 17.8716 466.511 17.8716 466.272Z" fill="#FEFEFE"/>
<path d="M24.2559 482.316C24.2559 482.077 24.0621 481.883 23.823 481.883C23.5839 481.883 23.3901 482.077 23.3901 482.316C23.3901 482.556 23.5839 482.75 23.823 482.75C24.0621 482.75 24.2559 482.556 24.2559 482.316Z" fill="#FEFEFE"/>
<path d="M19.2515 471.224C19.2515 470.985 19.0577 470.791 18.8186 470.791C18.5795 470.791 18.3857 470.985 18.3857 471.224C18.3857 471.463 18.5795 471.657 18.8186 471.657C19.0577 471.657 19.2515 471.463 19.2515 471.224Z" fill="#FEFEFE"/>
<path d="M46.8396 473.504C46.8605 473.266 46.6845 473.056 46.4465 473.035C46.2085 473.014 45.9986 473.19 45.9777 473.429C45.9569 473.667 46.1329 473.877 46.3709 473.898C46.6089 473.919 46.8187 473.743 46.8396 473.504Z" fill="#FEFEFE"/>
<path d="M48.4504 475.253C48.4713 475.015 48.2953 474.804 48.0573 474.784C47.8193 474.763 47.6095 474.939 47.5886 475.177C47.5677 475.416 47.7437 475.626 47.9817 475.647C48.2197 475.668 48.4296 475.491 48.4504 475.253Z" fill="#FEFEFE"/>
<path d="M50.0979 477.06C50.1188 476.822 49.9428 476.612 49.7048 476.591C49.4668 476.57 49.2569 476.746 49.236 476.984C49.2152 477.223 49.3912 477.433 49.6292 477.454C49.8672 477.475 50.077 477.298 50.0979 477.06Z" fill="#FEFEFE"/>
<path d="M51.5969 478.903C51.6178 478.664 51.4418 478.454 51.2038 478.433C50.9658 478.412 50.756 478.589 50.7351 478.827C50.7142 479.065 50.8902 479.275 51.1282 479.296C51.3662 479.317 51.576 479.141 51.5969 478.903Z" fill="#FEFEFE"/>
<path d="M53.1565 480.605C53.1774 480.366 53.0014 480.156 52.7634 480.135C52.5254 480.114 52.3155 480.29 52.2946 480.529C52.2738 480.767 52.4498 480.977 52.6878 480.998C52.9258 481.019 53.1356 480.843 53.1565 480.605Z" fill="#FEFEFE"/>
<path d="M54.7478 482.504C54.7687 482.266 54.5927 482.056 54.3547 482.035C54.1167 482.014 53.9068 482.19 53.886 482.428C53.8651 482.667 54.0411 482.877 54.2791 482.898C54.5171 482.919 54.7269 482.743 54.7478 482.504Z" fill="#FEFEFE"/>
<path d="M45.5896 468.347C45.6105 468.108 45.4345 467.898 45.1965 467.877C44.9585 467.856 44.7486 468.033 44.7277 468.271C44.7069 468.509 44.8829 468.719 45.1209 468.74C45.3589 468.761 45.5687 468.585 45.5896 468.347Z" fill="#FEFEFE"/>
<path d="M47.2004 470.096C47.2213 469.857 47.0453 469.647 46.8073 469.626C46.5693 469.605 46.3595 469.782 46.3386 470.02C46.3177 470.258 46.4937 470.468 46.7317 470.489C46.9697 470.51 47.1796 470.334 47.2004 470.096Z" fill="#FEFEFE"/>
<path d="M48.8484 471.902C48.8693 471.664 48.6933 471.454 48.4553 471.433C48.2173 471.412 48.0074 471.588 47.9865 471.827C47.9657 472.065 48.1417 472.275 48.3797 472.296C48.6176 472.317 48.8275 472.141 48.8484 471.902Z" fill="#FEFEFE"/>
<path d="M50.3469 473.745C50.3678 473.507 50.1918 473.297 49.9538 473.276C49.7158 473.255 49.506 473.431 49.4851 473.67C49.4642 473.908 49.6402 474.118 49.8782 474.139C50.1162 474.16 50.326 473.984 50.3469 473.745Z" fill="#FEFEFE"/>
<path d="M51.9065 475.447C51.9274 475.208 51.7514 474.998 51.5134 474.977C51.2754 474.957 51.0655 475.133 51.0446 475.371C51.0238 475.609 51.1998 475.82 51.4378 475.84C51.6758 475.861 51.8856 475.685 51.9065 475.447Z" fill="#FEFEFE"/>
<path d="M53.4978 477.347C53.5187 477.108 53.3427 476.898 53.1047 476.877C52.8667 476.856 52.6568 477.033 52.636 477.271C52.6151 477.509 52.7911 477.719 53.0291 477.74C53.2671 477.761 53.4769 477.585 53.4978 477.347Z" fill="#FEFEFE"/>
<path d="M44.2708 463.247C44.2916 463.009 44.1156 462.799 43.8776 462.778C43.6396 462.757 43.4298 462.933 43.4089 463.172C43.388 463.41 43.564 463.62 43.802 463.641C44.04 463.662 44.2499 463.486 44.2708 463.247Z" fill="#FEFEFE"/>
<path d="M45.8811 464.996C45.902 464.758 45.726 464.548 45.488 464.527C45.25 464.506 45.0401 464.682 45.0193 464.921C44.9984 465.159 45.1744 465.369 45.4124 465.39C45.6504 465.411 45.8602 465.235 45.8811 464.996Z" fill="#FEFEFE"/>
<path d="M47.5291 466.803C47.5499 466.565 47.3739 466.355 47.1359 466.334C46.8979 466.313 46.6881 466.489 46.6672 466.727C46.6463 466.966 46.8223 467.176 47.0603 467.197C47.2983 467.218 47.5082 467.041 47.5291 466.803Z" fill="#FEFEFE"/>
<path d="M49.0276 468.646C49.0485 468.408 48.8725 468.198 48.6345 468.177C48.3965 468.156 48.1866 468.332 48.1657 468.57C48.1449 468.809 48.3209 469.019 48.5589 469.04C48.7968 469.061 49.0067 468.884 49.0276 468.646Z" fill="#FEFEFE"/>
<path d="M50.5876 470.348C50.6085 470.109 50.4325 469.899 50.1945 469.878C49.9565 469.857 49.7467 470.034 49.7258 470.272C49.7049 470.51 49.8809 470.72 50.1189 470.741C50.3569 470.762 50.5668 470.586 50.5876 470.348Z" fill="#FEFEFE"/>
<path d="M52.179 472.248C52.1998 472.009 52.0238 471.799 51.7858 471.778C51.5478 471.757 51.338 471.934 51.3171 472.172C51.2962 472.41 51.4722 472.62 51.7102 472.641C51.9482 472.662 52.1581 472.486 52.179 472.248Z" fill="#FEFEFE"/>
<path d="M43.0124 458.186C43.0333 457.947 42.8573 457.737 42.6193 457.716C42.3813 457.695 42.1715 457.872 42.1506 458.11C42.1297 458.348 42.3057 458.558 42.5437 458.579C42.7817 458.6 42.9916 458.424 43.0124 458.186Z" fill="#FEFEFE"/>
<path d="M44.6228 459.934C44.6437 459.696 44.4677 459.486 44.2297 459.465C43.9917 459.444 43.7818 459.62 43.761 459.858C43.7401 460.097 43.9161 460.307 44.1541 460.328C44.3921 460.349 44.6019 460.172 44.6228 459.934Z" fill="#FEFEFE"/>
<path d="M46.2712 461.741C46.2921 461.503 46.1161 461.293 45.8781 461.272C45.6401 461.251 45.4303 461.427 45.4094 461.666C45.3885 461.904 45.5645 462.114 45.8025 462.135C46.0405 462.156 46.2504 461.98 46.2712 461.741Z" fill="#FEFEFE"/>
<path d="M47.7693 463.584C47.7902 463.346 47.6142 463.135 47.3762 463.114C47.1382 463.094 46.9283 463.27 46.9074 463.508C46.8866 463.746 47.0626 463.957 47.3006 463.978C47.5385 463.998 47.7484 463.822 47.7693 463.584Z" fill="#FEFEFE"/>
<path d="M49.3293 465.285C49.3502 465.047 49.1742 464.837 48.9362 464.816C48.6982 464.795 48.4884 464.971 48.4675 465.21C48.4466 465.448 48.6226 465.658 48.8606 465.679C49.0986 465.7 49.3085 465.524 49.3293 465.285Z" fill="#FEFEFE"/>
<path d="M50.9207 467.185C50.9415 466.947 50.7655 466.737 50.5275 466.716C50.2895 466.695 50.0797 466.871 50.0588 467.11C50.0379 467.348 50.2139 467.558 50.4519 467.579C50.6899 467.6 50.8998 467.424 50.9207 467.185Z" fill="#FEFEFE"/>
<path d="M40.2136 451.284C40.2345 451.046 40.0585 450.836 39.8205 450.815C39.5825 450.794 39.3727 450.97 39.3518 451.209C39.3309 451.447 39.5069 451.657 39.7449 451.678C39.9829 451.699 40.1927 451.523 40.2136 451.284Z" fill="#FEFEFE"/>
<path d="M41.8245 453.033C41.8453 452.795 41.6693 452.584 41.4313 452.563C41.1933 452.543 40.9835 452.719 40.9626 452.957C40.9417 453.195 41.1177 453.406 41.3557 453.427C41.5937 453.447 41.8036 453.271 41.8245 453.033Z" fill="#FEFEFE"/>
<path d="M43.4724 454.84C43.4933 454.602 43.3173 454.392 43.0793 454.371C42.8413 454.35 42.6314 454.526 42.6106 454.764C42.5897 455.003 42.7657 455.213 43.0037 455.234C43.2417 455.255 43.4515 455.078 43.4724 454.84Z" fill="#FEFEFE"/>
<path d="M44.9709 456.683C44.9918 456.444 44.8158 456.234 44.5778 456.213C44.3398 456.192 44.13 456.369 44.1091 456.607C44.0882 456.845 44.2642 457.055 44.5022 457.076C44.7402 457.097 44.9501 456.921 44.9709 456.683Z" fill="#FEFEFE"/>
<path d="M46.5305 458.384C46.5514 458.146 46.3754 457.936 46.1374 457.915C45.8994 457.894 45.6895 458.07 45.6687 458.309C45.6478 458.547 45.8238 458.757 46.0618 458.778C46.2998 458.799 46.5096 458.623 46.5305 458.384Z" fill="#FEFEFE"/>
<path d="M48.1223 460.284C48.1432 460.046 47.9672 459.836 47.7292 459.815C47.4912 459.794 47.2813 459.97 47.2605 460.209C47.2396 460.447 47.4156 460.657 47.6536 460.678C47.8916 460.699 48.1014 460.523 48.1223 460.284Z" fill="#FEFEFE"/>
<path d="M41.4792 456.345C41.5001 456.107 41.3241 455.897 41.0861 455.876C40.8481 455.855 40.6383 456.031 40.6174 456.269C40.5965 456.508 40.7725 456.718 41.0105 456.739C41.2485 456.76 41.4584 456.583 41.4792 456.345Z" fill="#FEFEFE"/>
<path d="M43.6584 466.366C43.6793 466.128 43.5033 465.918 43.2653 465.897C43.0273 465.876 42.8175 466.052 42.7966 466.29C42.7757 466.529 42.9517 466.739 43.1897 466.76C43.4277 466.781 43.6376 466.604 43.6584 466.366Z" fill="#FEFEFE"/>
<path d="M42.7283 461.472C42.7491 461.234 42.5731 461.024 42.3352 461.003C42.0972 460.982 41.8873 461.158 41.8664 461.397C41.8455 461.635 42.0215 461.845 42.2595 461.866C42.4975 461.887 42.7074 461.711 42.7283 461.472Z" fill="#FEFEFE"/>
<path d="M56.1189 487.481C56.1398 487.243 55.9638 487.033 55.7258 487.012C55.4878 486.991 55.2779 487.167 55.257 487.406C55.2362 487.644 55.4122 487.854 55.6502 487.875C55.8882 487.896 56.098 487.72 56.1189 487.481Z" fill="#FEFEFE"/>
<path d="M54.5461 485.557C54.567 485.319 54.391 485.109 54.153 485.088C53.915 485.067 53.7052 485.243 53.6843 485.482C53.6634 485.72 53.8394 485.93 54.0774 485.951C54.3154 485.972 54.5253 485.796 54.5461 485.557Z" fill="#FEFEFE"/>
<path d="M52.9514 483.886C52.9723 483.648 52.7963 483.438 52.5583 483.417C52.3203 483.396 52.1104 483.572 52.0896 483.811C52.0687 484.049 52.2447 484.259 52.4827 484.28C52.7207 484.301 52.9305 484.125 52.9514 483.886Z" fill="#FEFEFE"/>
<path d="M51.1692 481.944C51.1901 481.706 51.0141 481.496 50.7761 481.475C50.5381 481.454 50.3282 481.63 50.3073 481.868C50.2865 482.107 50.4625 482.317 50.7005 482.338C50.9385 482.359 51.1483 482.182 51.1692 481.944Z" fill="#FEFEFE"/>
<path d="M49.5281 461.899C49.549 461.661 49.3729 461.451 49.135 461.43C48.897 461.409 48.6871 461.585 48.6662 461.824C48.6453 462.062 48.8213 462.272 49.0593 462.293C49.2973 462.314 49.5072 462.138 49.5281 461.899Z" fill="#FEFEFE"/>
<path d="M44.9402 471.097C44.9611 470.859 44.7851 470.649 44.5471 470.628C44.3091 470.607 44.0992 470.783 44.0783 471.022C44.0575 471.26 44.2335 471.47 44.4715 471.491C44.7094 471.512 44.9193 471.336 44.9402 471.097Z" fill="#FEFEFE"/>
<path d="M40.6716 448.065C40.6925 447.827 40.5165 447.617 40.2785 447.596C40.0405 447.575 39.8307 447.751 39.8098 447.989C39.7889 448.228 39.9649 448.438 40.2029 448.459C40.4409 448.48 40.6507 448.303 40.6716 448.065Z" fill="#FEFEFE"/>
<path d="M42.3196 449.872C42.3405 449.634 42.1645 449.423 41.9265 449.403C41.6885 449.382 41.4786 449.558 41.4577 449.796C41.4368 450.035 41.6129 450.245 41.8508 450.266C42.0888 450.287 42.2987 450.11 42.3196 449.872Z" fill="#FEFEFE"/>
<path d="M43.8186 451.715C43.8395 451.477 43.6635 451.267 43.4255 451.246C43.1875 451.225 42.9776 451.401 42.9568 451.639C42.9359 451.878 43.1119 452.088 43.3499 452.109C43.5879 452.13 43.7977 451.953 43.8186 451.715Z" fill="#FEFEFE"/>
<path d="M45.3782 453.416C45.3991 453.178 45.223 452.968 44.9851 452.947C44.7471 452.926 44.5372 453.102 44.5163 453.341C44.4954 453.579 44.6714 453.789 44.9094 453.81C45.1474 453.831 45.3573 453.655 45.3782 453.416Z" fill="#FEFEFE"/>
<path d="M46.969 455.316C46.9899 455.078 46.8139 454.868 46.5759 454.847C46.3379 454.826 46.128 455.002 46.1071 455.24C46.0863 455.479 46.2623 455.689 46.5003 455.71C46.7383 455.731 46.9481 455.555 46.969 455.316Z" fill="#FEFEFE"/>
<path d="M48.3752 456.932C48.3961 456.693 48.2201 456.483 47.9821 456.462C47.7441 456.441 47.5343 456.617 47.5134 456.856C47.4925 457.094 47.6685 457.304 47.9065 457.325C48.1445 457.346 48.3544 457.17 48.3752 456.932Z" fill="#FEFEFE"/>
<path d="M39.0613 446.316C39.0822 446.078 38.9062 445.868 38.6682 445.847C38.4302 445.826 38.2203 446.002 38.1994 446.241C38.1785 446.479 38.3546 446.689 38.5925 446.71C38.8305 446.731 39.0404 446.555 39.0613 446.316Z" fill="#FEFEFE"/>
<defs>
<linearGradient id="paint0_linear_2457_3" x1="94.5" y1="422" x2="-107.541" y2="126.82" gradientUnits="userSpaceOnUse">
<stop stop-color="#FABC2A"/>
<stop offset="1" stop-color="#F75B2D"/>
</linearGradient>
<linearGradient id="paint1_linear_2457_3" x1="94.5" y1="422" x2="-107.541" y2="126.82" gradientUnits="userSpaceOnUse">
<stop stop-color="#FABC2A"/>
<stop offset="1" stop-color="#F75B2D"/>
</linearGradient>
</defs>
</svg>
