<svg width="15" height="8" viewBox="0 0 15 8" fill="none" xmlns="http://www.w3.org/2000/svg">
<path d="M0.499539 0.603306C0.444917 0.65634 0.401562 0.719437 0.371975 0.788955C0.342389 0.858474 0.327156 0.933039 0.327156 1.00835C0.327156 1.08366 0.342389 1.15823 0.371975 1.22774C0.401562 1.29726 0.444917 1.36036 0.499539 1.41339L7.08636 7.83125C7.14054 7.88472 7.20499 7.92716 7.27601 7.95613C7.34702 7.98509 7.42319 8 7.50013 8C7.57706 8 7.65323 7.98509 7.72425 7.95613C7.79526 7.92716 7.85972 7.88472 7.91389 7.83125L14.5543 1.35992C14.6089 1.30689 14.6523 1.24379 14.6819 1.17427C14.7115 1.10476 14.7267 1.03019 14.7267 0.954879C14.7267 0.879569 14.7115 0.805003 14.6819 0.735485C14.6523 0.665966 14.6089 0.60287 14.5543 0.549836C14.5001 0.496365 14.4357 0.453925 14.3647 0.424962C14.2936 0.396 14.2175 0.381088 14.1405 0.381088C14.0636 0.381088 13.9874 0.396 13.9164 0.424962C13.8454 0.453925 13.7809 0.496365 13.7268 0.549836L7.50013 6.62183L1.32707 0.603306C1.2729 0.549836 1.20844 0.507395 1.13743 0.478433C1.06641 0.44947 0.990238 0.434559 0.913306 0.434559C0.836373 0.434559 0.760202 0.44947 0.689186 0.478433C0.61817 0.507395 0.553715 0.549836 0.499539 0.603306Z" fill="#90A2AB"/>
</svg>
