<svg width="131" height="784" viewBox="0 0 131 784" fill="none" xmlns="http://www.w3.org/2000/svg">
<path opacity="0.7" d="M129 767.35L129 783.85L24 783.85L24 740.35L39 740.35L39 767.35L129 767.35ZM48.15 714.065L104.85 714.065C112.35 714.065 115.2 710.765 115.2 705.515C115.2 700.265 112.35 696.965 104.85 696.965L48.15 696.965C40.65 696.965 37.8 700.265 37.8 705.515C37.8 710.765 40.65 714.065 48.15 714.065ZM103.8 730.565L49.2 730.565C32.4 730.565 22.8 721.715 22.8 705.515C22.8 689.315 32.4 680.465 49.2 680.465L103.8 680.465C120.6 680.465 130.2 689.315 130.2 705.515C130.2 721.715 120.6 730.565 103.8 730.565ZM89.85 637.492L89.85 621.892L103.8 621.892C120.6 621.892 130.2 630.292 130.2 646.492C130.2 662.692 120.6 671.092 103.8 671.092L49.2 671.092C32.4 671.092 22.8 662.692 22.8 646.492C22.8 630.292 32.4 621.892 49.2 621.892L59.4 621.892L59.4 637.492L48.15 637.492C40.65 637.492 37.8 640.792 37.8 646.042C37.8 651.292 40.65 654.592 48.15 654.592L104.85 654.592C112.35 654.592 115.05 651.292 115.05 646.042C115.05 640.792 112.35 637.492 104.85 637.492L89.85 637.492ZM39 616.681L24 616.681L24 565.681L39 565.681L39 582.931L129 582.931L129 599.431L39 599.431L39 616.681ZM39 541.914L68.25 541.914L68.25 519.264L83.25 519.264L83.25 541.914L114 541.914L114 513.414L129 513.414L129 558.414L24 558.414L24 513.414L39 513.414L39 541.914ZM24 478.289C24 461.189 31.95 453.839 48.15 453.839L51.9 453.839C62.7 453.839 69.6 457.139 73.05 464.489C76.5 455.639 84.45 452.189 95.55 452.189L104.1 452.189C120.3 452.189 129 460.739 129 477.239L129 503.189L24 503.189L24 478.289ZM81.75 479.339L81.75 486.689L114 486.689L114 477.239C114 471.689 111.45 468.689 103.65 468.689L94.5 468.689C84.75 468.689 81.75 471.839 81.75 479.339ZM39 478.739L39 486.689L66.75 486.689L66.75 480.239C66.75 474.089 64.05 470.339 55.65 470.339L49.8 470.339C42.3 470.339 39 472.889 39 478.739ZM48.15 427.102L104.85 427.102C112.35 427.102 115.2 423.802 115.2 418.552C115.2 413.302 112.35 410.002 104.85 410.002L48.15 410.002C40.65 410.002 37.8 413.302 37.8 418.552C37.8 423.802 40.65 427.102 48.15 427.102ZM103.8 443.602L49.2 443.602C32.4 443.602 22.8 434.752 22.8 418.552C22.8 402.352 32.4 393.502 49.2 393.502L103.8 393.502C120.6 393.502 130.2 402.352 130.2 418.552C130.2 434.752 120.6 443.602 103.8 443.602ZM129 365.829L129 382.779L24 382.779L24 368.079L90.45 368.079L67.35 362.079L24 348.579L24 330.429L129 330.429L129 345.279L55.05 345.279L80.85 352.029L129 365.829ZM0.599995 348.879C6.15 349.329 7.5 351.879 7.5 356.379C7.5 360.729 6.15 362.979 0.599995 363.429L0.599995 373.629C10.8 373.329 17.25 367.929 17.25 356.379C17.25 344.679 10.8 338.829 0.599996 338.829L0.599995 348.879ZM24 270.282C24 253.182 31.95 245.832 48.15 245.832L51.9 245.832C62.7 245.832 69.6 249.132 73.05 256.482C76.5 247.632 84.45 244.182 95.55 244.182L104.1 244.182C120.3 244.182 129 252.732 129 269.232L129 295.182L24 295.182L24 270.282ZM81.75 271.332L81.75 278.682L114 278.682L114 269.232C114 263.682 111.45 260.682 103.65 260.682L94.5 260.682C84.75 260.682 81.75 263.832 81.75 271.332ZM39 270.732L39 278.682L66.75 278.682L66.75 272.232C66.75 266.082 64.05 262.332 55.65 262.332L49.8 262.332C42.3 262.332 39 264.882 39 270.732ZM80.85 203.494L129 217.294L129 234.244L24 234.244L24 219.544L90.45 219.544L67.35 213.544L24 200.044L24 181.894L129 181.894L129 196.744L55.05 196.744L80.85 203.494ZM55.65 138.43L49.8 138.43C40.35 138.43 37.8 141.73 37.8 146.98C37.8 152.23 40.65 155.68 48.15 155.68L56.7 155.68L56.7 170.83L48.9 170.83C32.1 170.83 22.8 162.73 22.8 146.53C22.8 130.33 32.4 121.93 49.2 121.93L51.9 121.93C63.15 121.93 70.2 125.53 73.5 133.48C77.1 125.23 84.9 121.93 95.55 121.93L103.8 121.93C120.6 121.93 130.2 130.33 130.2 146.53C130.2 162.73 120.6 171.13 103.8 171.13L92.25 171.13L92.25 155.53L104.85 155.53C112.35 155.53 115.2 152.23 115.2 146.98C115.2 141.73 112.65 138.43 103.35 138.43L95.1 138.43C85.35 138.43 81.75 141.73 81.75 149.23L81.75 153.28L66.75 153.28L66.75 148.33C66.75 142.18 64.05 138.43 55.65 138.43ZM80.85 80.0078L129 93.8078L129 110.758L24 110.758L24 96.0578L90.45 96.0578L67.35 90.0578L24 76.5578L24 58.4078L129 58.4078L129 73.2578L55.05 73.2578L80.85 80.0078ZM39 51.5441L24 51.5441L24 0.544137L39 0.544138L39 17.7941L129 17.7941L129 34.2941L39 34.2941L39 51.5441Z" fill="url(#paint0_linear_112_434)"/>
<defs>
<linearGradient id="paint0_linear_112_434" x1="91.5" y1="730.076" x2="106.411" y2="7.20919" gradientUnits="userSpaceOnUse">
<stop stop-color="#FABC2A"/>
<stop offset="1" stop-color="#F75B2D"/>
</linearGradient>
</defs>
</svg>
