<svg width="156" height="107" viewBox="0 0 156 107" fill="none" xmlns="http://www.w3.org/2000/svg">
<path fill-rule="evenodd" clip-rule="evenodd" d="M31.6284 94.793C30.0027 94.793 28.683 96.0949 28.683 97.6991C28.683 99.3067 30.0027 100.608 31.6284 100.608C33.2553 100.608 34.5732 99.3067 34.5732 97.6991C34.5732 96.0949 33.2553 94.793 31.6284 94.793ZM151.47 92.659C153.401 92.659 154.813 93.7263 155.739 94.793V89.6397C154.222 88.624 152.394 88.2174 150.805 88.2174C145.923 88.2174 141.681 91.6692 141.681 97.6075C141.681 103.294 145.536 107 150.881 107C152.423 107 154.119 106.769 155.739 105.68V100.626C154.813 101.567 153.35 102.558 151.47 102.558C148.593 102.558 146.87 100.452 146.87 97.7601C146.87 94.8411 148.696 92.659 151.47 92.659ZM142.233 88.7261H136.321L130.897 96.1865V88.7261H125.861L125.862 106.492H130.897V98.8508L136.113 106.492H142.414L135.396 97.3288L142.233 88.7261ZM110.986 99.3859V88.7261H106.128V106.492H111.063L118.029 95.8315V106.492H122.886V88.7261H117.95L110.986 99.3859ZM96.3885 96.7192H94.9518V92.6349H96.3885C98.5478 92.6349 98.855 93.7756 98.855 94.6645C98.855 95.4255 98.6245 96.7192 96.3885 96.7192ZM97.4926 88.7261H89.9118V106.492H94.9518V100.626H97.4926C102.583 100.626 104.048 97.1276 104.048 94.6645C104.048 92.2272 102.609 88.7261 97.4926 88.7261ZM74.9036 92.9882H78.8592V106.492H83.8986V92.9882H87.8553V88.7261H74.9036V92.9882ZM60.9454 99.3859V88.7261H56.089V106.492H61.025L67.9872 95.8315V106.492H72.8459V88.7261H67.9123L60.9454 99.3859ZM45.9366 102.936H43.7785V99.207H45.9366C47.5309 99.207 48.4566 99.6646 48.4566 101.062C48.4566 102.482 47.5059 102.936 45.9366 102.936ZM46.4262 95.6537H43.7785V92.9882H52.0283V88.7261H38.7415L38.7409 106.492L46.4262 106.492C47.7353 106.492 53.4936 106.541 53.4936 100.985C53.4936 95.6285 47.7881 95.6537 46.4262 95.6537ZM10.547 97.6075C10.547 103.294 14.4021 107 19.7475 107C21.2912 107 22.987 106.769 24.6068 105.68V100.626C23.6787 101.567 22.214 102.558 20.3387 102.558C17.4592 102.558 15.7384 100.452 15.7384 97.7601C15.7384 94.8411 17.5626 92.659 20.3387 92.659C22.2657 92.659 23.6787 93.7263 24.6068 94.793V89.6397C23.0869 88.624 21.2639 88.2174 19.6702 88.2174C14.7865 88.2174 10.547 91.6692 10.547 97.6075ZM0 92.8116H2.75172V106.492H7.40426V88.7261H0V92.8116Z" fill="white"/>
<path fill-rule="evenodd" clip-rule="evenodd" d="M77.9995 0C75.392 0 72.8561 0.289132 70.4127 0.823871V34.5238C70.4127 38.6536 73.8286 42.0216 78.0194 42.0216C82.2082 42.0216 85.6231 38.6536 85.6231 34.5259C85.6231 30.5589 82.4784 27.3028 78.5252 27.0437V21.0424C85.8302 21.3036 91.7085 27.2603 91.7085 34.5259C91.7085 41.9563 85.5589 48.0208 78.0194 48.0208C70.4768 48.0208 64.3283 41.9563 64.3283 34.5238V2.73069C63.4641 3.09237 62.6199 3.49342 61.7924 3.92453V34.5238C61.7935 43.3315 69.0837 50.5142 78.0194 50.5142C86.9562 50.5142 94.2433 43.3315 94.2433 34.5259C94.2433 25.8841 87.2306 18.8071 78.5252 18.5407V12.5415C90.5803 12.8099 100.326 22.5824 100.326 34.5259C100.326 46.6384 90.3049 56.5134 78.0194 56.5134C65.7309 56.5134 55.707 46.6384 55.707 34.5238V7.90398C47.9478 14.2286 43 23.7928 43 34.4979C43 53.5506 58.6698 69 78.0005 69C97.3344 69 113 53.5506 113 34.4979C113 15.4453 97.3344 0 77.9995 0Z" fill="url(#paint0_linear_832_541)"/>
<defs>
<linearGradient id="paint0_linear_832_541" x1="108.916" y1="-4.4872e-06" x2="43.4225" y2="69.8017" gradientUnits="userSpaceOnUse">
<stop stop-color="#350836" stop-opacity="0.92"/>
<stop offset="1" stop-color="#DF5DE1" stop-opacity="0.42"/>
</linearGradient>
</defs>
</svg>
