<svg width="107" height="109" viewBox="0 0 107 109" fill="none" xmlns="http://www.w3.org/2000/svg">
<path fill-rule="evenodd" clip-rule="evenodd" d="M53.366 8.66741C47.1429 8.66741 42.0805 13.7296 42.0805 19.9547C42.0805 26.1782 47.1429 31.2401 53.366 31.2401C59.5888 31.2401 64.6514 26.1782 64.6514 19.9547C64.6514 13.7296 59.5891 8.66741 53.366 8.66741ZM53.366 33.4184C60.7895 33.4184 66.8303 27.3781 66.8303 19.9547C66.8303 12.5292 60.7895 6.48896 53.366 6.48896C45.9425 6.48896 39.9028 12.5292 39.9028 19.9547C39.903 27.3781 45.9425 33.4184 53.366 33.4184ZM104.553 72.9923V14.2282C104.553 11.2266 102.112 8.78263 99.1078 8.78263H68.1189C68.843 9.73607 69.4732 10.7573 70.0006 11.8321H99.1078C100.43 11.8321 101.505 12.9082 101.505 14.2282V67.1092C101.505 68.4311 100.43 69.5052 99.1078 69.5052H7.62433C6.30195 69.5052 5.22832 68.4311 5.22832 67.1092V14.2282C5.22832 12.9082 6.30195 11.8321 7.62433 11.8321H36.7315C37.259 10.7573 37.8892 9.73607 38.6133 8.78263H7.62433C4.623 8.78263 2.17885 11.2266 2.17885 14.2282V72.9923C2.17885 75.9963 4.623 78.4381 7.62433 78.4381H99.1078C102.112 78.4381 104.553 75.9966 104.553 72.9923ZM65.7361 94.1714C66.4615 95.4411 67.324 96.4913 68.3042 97.3146H38.4279C39.4083 96.491 40.2707 95.4411 40.996 94.1714C42.8368 90.9583 43.8211 86.4015 43.9298 80.6161H62.8017C62.911 86.4015 63.8953 90.9583 65.7361 94.1714ZM78.7681 99.4926C80.5607 99.4926 82.0184 100.95 82.0184 102.743V104.906C82.0177 105.194 81.9028 105.471 81.6987 105.675C81.4947 105.879 81.2181 105.994 80.9295 105.995H25.8038C25.515 105.994 25.2381 105.879 25.0338 105.675C24.8295 105.471 24.7144 105.195 24.7138 104.906V102.743C24.7138 100.95 26.1714 99.4926 27.9641 99.4926H78.7681ZM93.353 47.1762C93.353 48.9772 91.8902 50.4434 90.0864 50.4434C88.2846 50.4434 86.8187 48.9774 86.8187 47.1762C86.8187 45.3748 88.2846 43.9087 90.0864 43.9087C91.8902 43.9087 93.353 45.3748 93.353 47.1762ZM71.7266 54.7998C73.5273 54.7998 74.9932 56.266 74.9932 58.0669C74.9932 59.8709 73.5273 61.3345 71.7266 61.3345C69.9248 61.3345 68.4589 59.8707 68.4589 58.0669C68.4591 56.266 69.9248 54.7998 71.7266 54.7998ZM53.366 46.0871C55.1678 46.0871 56.6337 47.5529 56.6337 49.3543C56.6337 51.1556 55.1678 52.6218 53.366 52.6218C51.565 52.6218 50.0982 51.1556 50.0982 49.3543C50.0985 47.5529 51.5653 46.0871 53.366 46.0871ZM35.0064 54.7998C36.8073 54.7998 38.273 56.266 38.273 58.0669C38.273 59.8709 36.8071 61.3345 35.0064 61.3345C33.2046 61.3345 31.7387 59.8707 31.7387 58.0669C31.7389 56.266 33.2046 54.7998 35.0064 54.7998ZM16.646 43.9087C18.4478 43.9087 19.9137 45.3748 19.9137 47.1762C19.9137 48.9772 18.4478 50.4434 16.646 50.4434C14.8431 50.4434 13.3793 48.9774 13.3793 47.1762C13.3791 45.3748 14.8431 43.9087 16.646 43.9087ZM35.4612 24.6641C35.0562 23.1272 34.8513 21.5444 34.8517 19.955C34.8509 17.9329 35.1834 15.9246 35.8361 14.0108H7.62433C7.51259 14.0108 7.40608 14.1175 7.40608 14.2284V67.1094C7.40608 67.2227 7.51259 67.327 7.62433 67.327H99.1078C99.2196 67.327 99.3261 67.2225 99.3261 67.1094V14.2282C99.3261 14.1173 99.2196 14.0106 99.1078 14.0106H70.8959C71.5487 15.9244 71.8813 17.9327 71.8804 19.9547C71.8804 21.5821 71.6674 23.1591 71.2709 24.6639L90.2975 30.8851C90.5139 30.9565 90.7025 31.0938 90.837 31.2777C90.9715 31.4617 91.0451 31.6832 91.0474 31.911L91.1313 41.8331C93.6368 42.3208 95.5319 44.5314 95.5319 47.1762C95.5319 50.1798 93.0899 52.6218 90.0864 52.6218C87.0851 52.6218 84.6409 50.1798 84.6409 47.1762C84.6409 44.5619 86.4919 42.3733 88.9535 41.8503L88.8757 32.7126L70.5889 26.7336C69.5072 29.4738 67.7904 31.896 65.6168 33.8194L72.5844 42.7063C72.7344 42.8987 72.8156 43.1358 72.8148 43.3798V52.7329C75.2989 53.2382 77.1725 55.4383 77.1725 58.0672C77.1725 61.0711 74.7303 63.5127 71.727 63.5127C68.7246 63.5127 66.2816 61.0709 66.2816 58.0672C66.2816 55.4383 68.1561 53.2382 70.6371 52.7329V43.7545L63.9049 35.1657C61.1905 37.0495 57.9535 38.2305 54.4553 38.4355V44.0202C56.9384 44.5256 58.8119 46.7256 58.8119 49.3547C58.8119 52.3587 56.3677 54.8002 53.3664 54.8002C50.3651 54.8002 47.9209 52.3585 47.9209 49.3547C47.9209 46.7258 49.7944 44.5258 52.2775 44.0202V38.4355C48.7793 38.2305 45.5423 37.0497 42.8287 35.1657L36.0957 43.7545V52.7329C38.5789 53.2382 40.4523 55.4383 40.4523 58.0672C40.4523 61.0711 38.0082 63.5127 35.0068 63.5127C32.0025 63.5127 29.5614 61.0709 29.5614 58.0672C29.5614 55.4383 31.4348 53.2382 33.9169 52.7329V43.3798C33.9169 43.1359 33.9979 42.898 34.1484 42.7063L41.116 33.8194C38.9242 31.8813 37.2204 29.4537 36.1428 26.7336L17.8579 32.7126L17.7791 41.8503C20.2406 42.3752 22.0917 44.5619 22.0917 47.1762C22.0917 50.1798 19.6475 52.6218 16.6462 52.6218C13.6427 52.6218 11.2007 50.1798 11.2007 47.1762C11.2007 44.5317 13.0957 42.3208 15.6013 41.8331L15.6852 31.911C15.6875 31.6829 15.7613 31.4612 15.8962 31.2772C16.0311 31.0931 16.2202 30.956 16.4371 30.8851L35.4612 24.6641ZM53.366 3.61828C44.3567 3.61828 37.0295 10.946 37.0295 19.955C37.0295 28.9621 44.3567 36.2917 53.366 36.2917C62.3732 36.2917 69.7024 28.9621 69.7024 19.955C69.7024 10.9458 62.3732 3.61828 53.366 3.61828ZM99.1078 6.60463H66.1757C62.8474 3.40917 58.3353 1.44049 53.3662 1.44049C48.3979 1.44049 43.8847 3.40917 40.5567 6.60463H7.62433C3.42042 6.60463 0 10.0264 0 14.2282V72.9923C0 77.1963 3.42042 80.6159 7.62433 80.6159H41.7499C41.6126 87.3163 40.1016 97.3144 32.3207 97.3144H27.9641C24.9708 97.3144 22.536 99.7497 22.536 102.742V104.906C22.536 106.706 24.0017 108.173 25.8038 108.173H80.9297C82.7304 108.173 84.1963 106.706 84.1963 104.906V102.742C84.1963 99.7497 81.7616 97.3144 78.7683 97.3144H74.4115C66.6314 97.3144 65.1195 87.3163 64.9823 80.6159H99.1078C103.312 80.6159 106.732 77.1963 106.732 72.9923V14.2282C106.732 10.0264 103.312 6.60463 99.1078 6.60463Z" fill="url(#paint0_linear_836_566)"/>
<path d="M54.9049 21.1619H51.8411V22.7034H56.5605V23.9974H51.8411V26.2619H50.0904V23.9974H48.4728V22.7034H50.0904V21.1619H48.4728V19.5634H50.0904V12.9411H54.9049C56.0594 12.9411 57.0426 13.3471 57.8545 14.159C58.6665 14.9582 59.0724 15.9288 59.0724 17.0705C59.0724 18.2123 58.6665 19.1828 57.8545 19.9821C57.0553 20.7687 56.0721 21.1619 54.9049 21.1619ZM51.8411 14.5967V19.5634H54.9049C55.5646 19.5634 56.1291 19.3224 56.5985 18.8403C57.0806 18.3455 57.3217 17.7556 57.3217 17.0705C57.3217 16.3855 57.087 15.8019 56.6176 15.3198C56.1482 14.8377 55.5773 14.5967 54.9049 14.5967H51.8411Z" fill="#B749B9"/>
<g filter="url(#filter0_b_836_566)">
<path d="M7.5 67V14H36C32 21 38.5 38.5 53.5 38.5C68.5 38.5 74.5 22 71 14H99V67H7.5Z" fill="url(#paint1_linear_836_566)" fill-opacity="0.5"/>
</g>
<circle cx="53.5" cy="19.5" r="18" stroke="#A841AA" stroke-width="3"/>
<defs>
<filter id="filter0_b_836_566" x="3.5" y="10" width="99.5" height="61" filterUnits="userSpaceOnUse" color-interpolation-filters="sRGB">
<feFlood flood-opacity="0" result="BackgroundImageFix"/>
<feGaussianBlur in="BackgroundImageFix" stdDeviation="2"/>
<feComposite in2="SourceAlpha" operator="in" result="effect1_backgroundBlur_836_566"/>
<feBlend mode="normal" in="SourceGraphic" in2="effect1_backgroundBlur_836_566" result="shape"/>
</filter>
<linearGradient id="paint0_linear_836_566" x1="97.2173" y1="-3.93749" x2="17.7887" y2="111.896" gradientUnits="userSpaceOnUse">
<stop stop-color="#DF5DE1"/>
<stop offset="1" stop-color="#350836"/>
</linearGradient>
<linearGradient id="paint1_linear_836_566" x1="53.25" y1="14" x2="53.25" y2="67" gradientUnits="userSpaceOnUse">
<stop/>
<stop offset="1" stop-opacity="0"/>
</linearGradient>
</defs>
</svg>
