<svg width="133" height="101" viewBox="0 0 133 101" fill="none" xmlns="http://www.w3.org/2000/svg">
<g id="Group">
<path id="Vector" d="M66.4202 82.9316C68.2345 91.3859 75.3483 98.0606 84.4015 98.9113C85.048 98.9713 85.6892 99 86.3227 99C96.6949 99 105.555 91.0911 106.541 80.5441L107.005 75.5941M78.2548 40.4801C79.0707 39.3972 80.3819 38.7005 81.7817 38.8075C84.0548 38.9797 85.7362 40.9837 85.5276 43.246L86.002 38.1813C86.2106 35.9163 88.236 34.262 90.5039 34.5177C92.6857 34.7604 94.2889 36.8844 94.0855 39.0737L93.6241 44.0053M93.6241 44.0053C93.8353 41.743 95.8607 40.0835 98.1286 40.3392C100.308 40.5845 101.914 42.7085 101.708 44.9003L101.246 49.8294M93.6241 44.0053L91.8722 62.7238M101.246 49.8294C101.457 47.5671 103.483 45.9102 105.751 46.1659C107.935 46.4111 109.536 48.5326 109.332 50.7218L107.854 66.5005M101.246 49.8294L99.9692 63.4831M85.5263 43.2463L83.7751 61.9647M74.746 71.1548L74.6727 71.9389L79.49 75.6901C80.7607 76.6786 81.7618 77.9719 82.4007 79.4504C83.0396 80.9289 83.2956 82.5448 83.1451 84.1486L82.9126 86.6186M68.4979 71.1687V72.7995C68.4979 86.9552 57.0335 98.4312 42.8919 98.4312H42.8893C36.8052 98.4312 31.2164 96.3072 26.824 92.7584M17.2833 71.1687V72.7995C17.2833 77.572 18.5867 82.0418 20.8598 85.8697M17.2833 71.1687L11.5516 71.1692C6.27635 71.1692 2 66.8886 2 61.6083C2 56.3277 6.27635 52.0471 11.5516 52.0471L17.2823 52.0471M17.2833 71.1687L17.2823 52.0471M17.2823 52.0471C17.2823 52.0471 46.4058 51.723 56.7061 39.8405C56.7061 39.8405 59.1181 49.1614 68.4987 52.0471M68.4987 52.0471L68.4989 71.1692H74.2298C79.5048 71.1692 83.7811 66.8886 83.7814 61.6083C83.7814 56.3277 79.505 52.0471 74.2298 52.0471L68.4987 52.0471ZM7.52633 52.0473V37.3984C7.52633 26.3165 12.6147 16.4219 20.5809 9.93243M28.3281 5.13122C32.77 3.11941 37.6993 2 42.8893 2H42.8919C62.4216 2 78.2549 17.8492 78.2549 37.3984V52.0473" stroke="url(#paint0_linear_814_481)" stroke-width="3" stroke-linecap="round"/>
<g id="Vector_2" filter="url(#filter0_f_814_481)">
<path d="M108 20C118.907 20 127.749 28.8509 127.749 39.769M108 27.9076C114.544 27.9076 119.849 33.2182 119.849 39.769M108 35.8153C110.181 35.8153 111.95 37.5855 111.95 39.769" stroke="url(#paint1_linear_814_481)" stroke-width="3" stroke-linecap="round"/>
</g>
</g>
<defs>
<filter id="filter0_f_814_481" x="103.5" y="15.5" width="28.749" height="28.769" filterUnits="userSpaceOnUse" color-interpolation-filters="sRGB">
<feFlood flood-opacity="0" result="BackgroundImageFix"/>
<feBlend mode="normal" in="SourceGraphic" in2="BackgroundImageFix" result="shape"/>
<feGaussianBlur stdDeviation="1.5" result="effect1_foregroundBlur_814_481"/>
</filter>
<linearGradient id="paint0_linear_814_481" x1="95.4221" y1="9.55328" x2="85.8235" y2="125.437" gradientUnits="userSpaceOnUse">
<stop stop-color="#DF5DE1"/>
<stop offset="1" stop-color="#350836"/>
</linearGradient>
<linearGradient id="paint1_linear_814_481" x1="91.6165" y1="4.57951" x2="82.0179" y2="120.463" gradientUnits="userSpaceOnUse">
<stop stop-color="#DF5DE1"/>
<stop offset="1" stop-color="#350836"/>
</linearGradient>
</defs>
</svg>
