<svg width="108" height="95" viewBox="0 0 108 95" fill="none" xmlns="http://www.w3.org/2000/svg">
<path d="M91.0654 2H102.587C104.472 2 106 3.52622 106 5.40995V89.6908C106 91.5746 104.472 93.1008 102.587 93.1008H38.762M2 30.4358V5.40995C2 3.52622 3.52757 2 5.41296 2H83.7415M2 37.7533V89.6908C2 91.5746 3.52757 93.1008 5.41296 93.1008H31.4381M105.432 15.3064H2.5675M20.7882 43.5598H13.8365M27.7512 50.5165V57.3701M58.5731 50.5165V34.0897C58.5731 33.8125 58.6833 33.5466 58.8795 33.3506C59.0757 33.1545 59.3419 33.0444 59.6193 33.0444H68.4234M68.9362 50.3975V28.752C68.9362 28.4713 69.0456 28.202 69.2404 28.0034C69.4352 27.8049 69.6994 27.6933 69.9748 27.6933H78.6808M70.0996 58.3168H93.9028C94.4732 58.3168 94.9362 57.8505 94.9362 57.276V52.1801C94.9362 51.6034 94.4732 51.1392 93.9028 51.1392H53.927C53.3566 51.1392 52.8936 51.6034 52.8936 52.1801V57.276C52.8936 57.8505 53.3566 58.3168 53.927 58.3168H62.8659M65.4604 72.0077L58.1107 79.4097M70.3592 72.0077L77.7089 79.4097M89.9574 72.0077L82.608 79.4097M13.0638 66.5987H17.2793M13.0638 75.7087H17.2793M13.0638 84.8189H17.2793M24.6078 66.5987H54.2543M24.6078 75.7087H39.2651M24.6078 84.8189H45.5469M34.5047 43.5598C34.5047 47.2863 31.481 50.3074 27.7512 50.3074C24.0214 50.3074 20.9977 47.2863 20.9977 43.5598C20.9977 39.8331 24.0214 36.8123 27.7512 36.8123V28.9211C19.6593 28.9211 13.0995 35.4751 13.0995 43.5598C13.0995 51.6446 19.6593 58.1986 27.7512 58.1986C35.8431 58.1986 42.4028 51.6446 42.4028 43.5598H34.5047ZM40.783 37.2871H48.6811C48.6811 29.2023 42.1214 22.6483 34.0295 22.6483V30.5395C37.7593 30.5395 40.783 33.5604 40.783 37.2871ZM89.4043 51.1392H79.1702V23.4874C79.1702 23.2066 79.2796 22.9373 79.4744 22.7387C79.6692 22.5402 79.9334 22.4287 80.2089 22.4287H88.1132C88.4556 22.4287 88.784 22.5673 89.0261 22.8141C89.2682 23.0609 89.4043 23.3956 89.4043 23.7446V51.1392ZM58.4255 82.0583C58.4255 83.5829 57.1872 84.8189 55.6596 84.8189C54.132 84.8189 52.8936 83.5829 52.8936 82.0583C52.8936 80.5336 54.132 79.2976 55.6596 79.2976C57.1872 79.2976 58.4255 80.5336 58.4255 82.0583ZM70.5957 69.6354C70.5957 71.3125 69.3574 72.6721 67.8298 72.6721C66.3022 72.6721 65.0638 71.3125 65.0638 69.6354C65.0638 67.9583 66.3022 66.5987 67.8298 66.5987C69.3574 66.5987 70.5957 67.9583 70.5957 69.6354ZM83.3191 82.0583C83.3191 83.5829 81.957 84.8189 80.2766 84.8189C78.5962 84.8189 77.234 83.5829 77.234 82.0583C77.234 80.5336 78.5962 79.2976 80.2766 79.2976C81.957 79.2976 83.3191 80.5336 83.3191 82.0583ZM94.9362 69.6354C94.9362 71.3125 93.6978 72.6721 92.1702 72.6721C90.6426 72.6721 89.4043 71.3125 89.4043 69.6354C89.4043 67.9583 90.6426 66.5987 92.1702 66.5987C93.6978 66.5987 94.9362 67.9583 94.9362 69.6354Z" stroke="url(#paint0_linear_825_519)" stroke-width="2.5" stroke-miterlimit="10" stroke-linecap="round" stroke-linejoin="round"/>
<g filter="url(#filter0_b_825_519)">
<path d="M6 61H58L48.5 89H6V61Z" fill="url(#paint1_linear_825_519)" fill-opacity="0.5"/>
</g>
<defs>
<filter id="filter0_b_825_519" x="2" y="57" width="60" height="36" filterUnits="userSpaceOnUse" color-interpolation-filters="sRGB">
<feFlood flood-opacity="0" result="BackgroundImageFix"/>
<feGaussianBlur in="BackgroundImageFix" stdDeviation="2"/>
<feComposite in2="SourceAlpha" operator="in" result="effect1_backgroundBlur_825_519"/>
<feBlend mode="normal" in="SourceGraphic" in2="effect1_backgroundBlur_825_519" result="shape"/>
</filter>
<linearGradient id="paint0_linear_825_519" x1="84.2785" y1="-8.15872" x2="40.1811" y2="108.301" gradientUnits="userSpaceOnUse">
<stop stop-color="#DF5DE1"/>
<stop offset="1" stop-color="#350836"/>
</linearGradient>
<linearGradient id="paint1_linear_825_519" x1="31.5" y1="61" x2="31.5" y2="89" gradientUnits="userSpaceOnUse">
<stop/>
<stop offset="1" stop-opacity="0"/>
</linearGradient>
</defs>
</svg>
