<svg width="126" height="111" viewBox="0 0 126 111" fill="none" xmlns="http://www.w3.org/2000/svg">
<path d="M68.9748 56.2211L68.593 54.1781C68.4783 53.5643 68.1429 53.0137 67.6501 52.6303C67.1573 52.2469 66.5411 52.0572 65.9179 52.097C64.9221 52.1607 63.9915 51.6324 63.5074 50.7597C63.1201 50.0613 62.6833 49.3913 62.2005 48.7551C61.5955 47.9584 61.4857 46.8916 61.9475 46.0041C62.2357 45.4502 62.3117 44.8092 62.1601 44.2035C62.0085 43.5977 61.6404 43.0685 61.1252 42.7156L59.4107 41.5408C58.8956 41.1879 58.2691 41.0358 57.6496 41.1132C57.03 41.1906 56.4602 41.492 56.0477 41.9608C55.3866 42.7119 54.3517 42.9954 53.3902 42.7191C52.6226 42.4986 51.8401 42.3332 51.0489 42.224C50.0604 42.0879 49.2318 41.4107 48.9315 40.459C48.7436 39.8636 48.3442 39.3576 47.8087 39.0365C47.2733 38.7154 46.6388 38.6014 46.025 38.7161L43.9818 39.098C43.368 39.2126 42.8175 39.5481 42.4341 40.0409C42.0508 40.5337 41.8611 41.1499 41.9009 41.773C41.9644 42.7688 41.4364 43.6994 40.5637 44.1832C39.8653 44.5708 39.1954 45.0076 38.5591 45.4904C37.7621 46.0951 36.6956 46.2049 35.8081 45.7434C35.2542 45.4551 34.6131 45.3792 34.0074 45.5307C33.4016 45.6823 32.8723 46.0503 32.5193 46.5654L31.3448 48.2803C30.9918 48.7953 30.8397 49.4218 30.9171 50.0414C30.9944 50.6609 31.296 51.2308 31.7647 51.6432C32.5156 52.3041 32.7991 53.339 32.5231 54.3007C32.3025 55.0683 32.137 55.8508 32.028 56.642C31.8918 57.6305 31.2147 58.4591 30.263 58.7595C29.6676 58.9473 29.1615 59.3467 28.8404 59.8821C28.5193 60.4176 28.4053 61.0521 28.5201 61.6659L28.9019 63.7089C29.0165 64.3227 29.3519 64.8733 29.8447 65.2567C30.3376 65.6402 30.9538 65.8298 31.5769 65.79C32.5727 65.7265 33.5034 66.2545 33.9872 67.127C34.3746 67.8256 34.8114 68.4956 35.2944 69.1319C35.8991 69.9286 36.0089 70.9953 35.5471 71.8828C35.2589 72.4367 35.1832 73.0777 35.3347 73.6834C35.4862 74.2892 35.8543 74.8184 36.3694 75.1713L38.0842 76.3461C38.5993 76.699 39.2258 76.8511 39.8453 76.7738C40.4649 76.6964 41.0347 76.3949 41.4472 75.9262C42.108 75.1751 43.1429 74.8918 44.1046 75.1678C44.8723 75.3884 45.6547 75.5538 46.446 75.6627C47.4345 75.7988 48.2628 76.476 48.5632 77.4277C48.7511 78.0231 49.1505 78.5292 49.686 78.8504C50.2215 79.1715 50.856 79.2855 51.4698 79.1708L53.5128 78.789C54.1266 78.6743 54.6771 78.3389 55.0605 77.8462C55.4439 77.3534 55.6336 76.7373 55.5939 76.1142C55.5303 75.1184 56.0582 74.1876 56.9309 73.7035C57.6295 73.3162 58.2994 72.8795 58.9356 72.3965C59.7326 71.7918 60.7993 71.6818 61.6868 72.1438C62.2407 72.432 62.8817 72.5076 63.4874 72.356C64.0931 72.2044 64.6224 71.8364 64.9753 71.3213L66.1501 69.6067C66.503 69.0916 66.6551 68.4652 66.5777 67.8456C66.5004 67.226 66.1989 66.6562 65.7302 66.2437C64.9791 65.5826 64.6955 64.548 64.9718 63.5863C65.1923 62.8186 65.3577 62.0362 65.4667 61.2449C65.6028 60.2564 66.28 59.4281 67.2316 59.1275C67.8271 58.9396 68.3331 58.5402 68.6543 58.0048C68.9754 57.4693 69.0894 56.8348 68.9748 56.2211Z" stroke="url(#paint0_linear_832_560)" stroke-width="2.5" stroke-miterlimit="10" stroke-linecap="round" stroke-linejoin="round"/>
<path d="M51.1246 68.2426C45.9832 69.3739 40.9665 65.9373 40.1651 60.7352C39.4395 56.0237 42.5415 51.4966 47.1976 50.4718C52.3389 49.3405 57.3556 52.777 58.157 57.9794C58.8829 62.6909 55.7806 67.218 51.1246 68.2426Z" stroke="url(#paint1_linear_832_560)" stroke-width="2.5" stroke-miterlimit="10" stroke-linecap="round" stroke-linejoin="round"/>
<g filter="url(#filter0_b_832_560)">
<path d="M19 84.5V33L67 32L68 33L71.5 34.5L72.5 37L74 40.5L72.5 45L74.5 48L77.5 50L81.5 49L86 50L89 53L91.5 55.5H97L99 52L103.5 49H107.5V58V84.5H19Z" fill="url(#paint2_linear_832_560)" fill-opacity="0.5"/>
</g>
<path d="M43.369 94.1072V97.8305C43.369 99.8866 45.0445 101.554 47.1113 101.554H79.3411C81.4079 101.554 83.0833 99.8866 83.0833 97.8305V94.1072M70.7885 22.9524H16.7146C13.1575 22.9524 10.2738 25.8405 10.2738 29.4032V94.1072H117.006V34.695M58.4034 32.0536H20.2487C19.7975 32.0536 19.3649 32.2305 19.0458 32.5454C18.7268 32.8603 18.5476 33.2874 18.5476 33.7327V83.3269C18.5476 83.7722 18.7268 84.1993 19.0458 84.5142C19.3649 84.8291 19.7975 85.006 20.2487 85.006H106.204C106.655 85.006 107.088 84.8291 107.407 84.5142C107.726 84.1993 107.905 83.7722 107.905 83.3269V58.2755M112.693 109H13.7596C7.26496 109 2 103.71 2 97.1833C2 95.4844 3.37063 94.1072 5.06131 94.1072H121.391C123.082 94.1072 124.452 95.4844 124.452 97.1833C124.452 103.71 119.187 109 112.693 109ZM118.915 23.9537C117.585 23.7946 116.462 22.8982 116.042 21.6455C115.691 20.5997 115.262 19.5808 114.759 18.597C114.463 18.0179 114.341 17.3679 114.407 16.723C114.472 16.078 114.723 15.4648 115.129 14.9548L115.13 14.9531C115.654 14.2947 115.914 13.4704 115.863 12.6356C115.812 11.8009 115.452 11.0135 114.852 10.4222L112.852 8.45296C112.252 7.86156 111.453 7.50713 110.606 7.45662C109.758 7.4061 108.921 7.66299 108.253 8.17877L108.251 8.17976C107.734 8.57992 107.111 8.82672 106.456 8.89131C105.802 8.9559 105.142 8.83562 104.554 8.54452C103.555 8.04909 102.521 7.62667 101.459 7.28068C100.188 6.86631 99.2776 5.76017 99.116 4.45042C99.0136 3.62029 98.6059 2.85583 97.9705 2.30131C97.335 1.74679 96.5155 1.44059 95.6666 1.44049H92.8393C91.9904 1.44059 91.1709 1.74679 90.5355 2.30131C89.9 2.85583 89.4926 3.62029 89.3902 4.45042C89.2286 5.76017 88.3184 6.86631 87.0469 7.28068C85.9853 7.62662 84.951 8.04905 83.9523 8.54452C83.3643 8.83559 82.7044 8.95588 82.0497 8.89133C81.3949 8.82679 80.7723 8.58007 80.2546 8.18L80.2531 8.17877C79.5848 7.66303 78.7479 7.40616 77.9005 7.45667C77.0531 7.50719 76.2538 7.86159 75.6535 8.45296L73.6545 10.4222C73.0541 11.0135 72.6944 11.8008 72.643 12.6356C72.5917 13.4703 72.8524 14.2947 73.3759 14.9531L73.3771 14.9548C73.7833 15.4647 74.0338 16.078 74.0994 16.7229C74.1649 17.3679 74.0429 18.0179 73.7474 18.597C73.2444 19.5808 72.8155 20.5997 72.4644 21.6455C72.0438 22.8982 70.9208 23.7946 69.5913 23.9537C68.7485 24.0547 67.9724 24.456 67.4095 25.082C66.8466 25.708 66.5357 26.5154 66.5357 27.3516V30.1365C66.5357 30.9728 66.8466 31.7801 67.4095 32.4061C67.9724 33.0321 68.7485 33.4334 69.5913 33.5344C70.9208 33.6936 72.0438 34.5899 72.4644 35.8427C72.8155 36.8885 73.2444 37.9074 73.7474 38.8911C74.0429 39.4702 74.1649 40.1202 74.0994 40.7652C74.0338 41.4101 73.7833 42.0234 73.3771 42.5333L73.3759 42.535C72.8524 43.1934 72.5917 44.0178 72.643 44.8525C72.6944 45.6873 73.0541 46.4747 73.6545 47.066L75.6535 49.0352C76.2538 49.6264 77.0531 49.9808 77.9005 50.0313C78.7479 50.0819 79.5847 49.8252 80.2531 49.3096L80.2546 49.3081C80.7723 48.908 81.3949 48.6613 82.0497 48.5968C82.7044 48.5322 83.3643 48.6525 83.9523 48.9436C84.9509 49.4392 85.9853 49.8616 87.0469 50.2074C88.3184 50.6218 89.2286 51.728 89.3902 53.0377C89.4926 53.8678 89.9 54.6323 90.5355 55.1868C91.1709 55.7413 91.9904 56.0475 92.8393 56.0476H95.6666C96.5155 56.0475 97.335 55.7413 97.9705 55.1868C98.6059 54.6323 99.0133 53.8678 99.1158 53.0377C99.2774 51.728 100.188 50.6218 101.459 50.2074C102.521 49.8616 103.555 49.4391 104.554 48.9436C105.142 48.6525 105.801 48.5322 106.456 48.5968C107.111 48.6613 107.734 48.908 108.251 49.3081L108.253 49.3096C108.921 49.8251 109.758 50.0819 110.606 50.0313C111.453 49.9807 112.252 49.6264 112.852 49.0352L114.852 47.066C115.452 46.4746 115.812 45.6872 115.863 44.8525C115.914 44.0178 115.654 43.1934 115.13 42.535L115.129 42.5333C114.723 42.0234 114.472 41.4101 114.407 40.7652C114.341 40.1202 114.463 39.4702 114.759 38.8911C115.262 37.9074 115.691 36.8885 116.042 35.8427C116.462 34.5899 117.585 33.6936 118.915 33.5344C119.758 33.4334 120.534 33.032 121.097 32.406C121.659 31.78 121.97 30.9727 121.97 30.1365V27.3516C121.97 26.5154 121.66 25.708 121.097 25.082C120.534 24.456 119.758 24.0546 118.915 23.9537ZM95.0999 41.9752C87.4461 42.2195 81.1912 35.9647 81.4355 28.3108C81.6568 21.3795 87.3021 15.7342 94.2334 15.5129C101.887 15.2686 108.142 21.5235 107.898 29.1773C107.677 36.1086 102.031 41.7539 95.0999 41.9752Z" stroke="url(#paint3_linear_832_560)" stroke-width="2.5" stroke-miterlimit="10" stroke-linecap="round" stroke-linejoin="round"/>
<defs>
<filter id="filter0_b_832_560" x="15" y="28" width="96.5" height="60.5" filterUnits="userSpaceOnUse" color-interpolation-filters="sRGB">
<feFlood flood-opacity="0" result="BackgroundImageFix"/>
<feGaussianBlur in="BackgroundImageFix" stdDeviation="2"/>
<feComposite in2="SourceAlpha" operator="in" result="effect1_backgroundBlur_832_560"/>
<feBlend mode="normal" in="SourceGraphic" in2="effect1_backgroundBlur_832_560" result="shape"/>
</filter>
<linearGradient id="paint0_linear_832_560" x1="113.696" y1="1.44049" x2="37.9911" y2="125.134" gradientUnits="userSpaceOnUse">
<stop stop-color="#DF5DE1"/>
<stop offset="1" stop-color="#350836"/>
</linearGradient>
<linearGradient id="paint1_linear_832_560" x1="113.696" y1="1.44049" x2="37.9911" y2="125.134" gradientUnits="userSpaceOnUse">
<stop stop-color="#DF5DE1"/>
<stop offset="1" stop-color="#350836"/>
</linearGradient>
<linearGradient id="paint2_linear_832_560" x1="63.25" y1="32" x2="63.25" y2="84.5" gradientUnits="userSpaceOnUse">
<stop/>
<stop offset="1" stop-opacity="0"/>
</linearGradient>
<linearGradient id="paint3_linear_832_560" x1="113.696" y1="1.44049" x2="37.9911" y2="125.134" gradientUnits="userSpaceOnUse">
<stop stop-color="#DF5DE1"/>
<stop offset="1" stop-color="#350836"/>
</linearGradient>
</defs>
</svg>
