<svg width="121" height="122" viewBox="0 0 121 122" fill="none" xmlns="http://www.w3.org/2000/svg">
<path d="M67.6486 114.309L66.5861 117.488C66.4962 117.762 66.3218 118.001 66.088 118.169C65.8542 118.338 65.573 118.428 65.2847 118.427H52.7681C52.4799 118.428 52.1989 118.337 51.9652 118.169C51.7314 118 51.557 117.762 51.4667 117.488L50.407 114.309H47.5132L48.8613 118.359C49.135 119.179 49.66 119.892 50.3617 120.397C51.0634 120.902 51.9062 121.173 52.7708 121.173H65.2875C67.061 121.173 68.6342 120.042 69.1943 118.359L70.5423 114.309H67.6486Z" fill="url(#paint0_linear_836_574)"/>
<path d="M115.31 115.682H61.7732C61.4092 115.682 61.06 115.537 60.8026 115.28C60.5451 115.022 60.4005 114.673 60.4005 114.309C60.4005 113.945 60.5451 113.596 60.8026 113.338C61.06 113.081 61.4092 112.936 61.7732 112.936H115.31V101.955C115.31 101.591 115.455 101.242 115.712 100.984C115.97 100.727 116.319 100.582 116.683 100.582C117.047 100.582 117.396 100.727 117.653 100.984C117.911 101.242 118.056 101.591 118.056 101.955V112.936C118.056 113.665 117.766 114.363 117.251 114.878C116.737 115.393 116.038 115.682 115.31 115.682ZM56.2823 112.936H2.74548V44.3014H6.86369V41.556H2.74548C2.01733 41.556 1.31901 41.8453 0.804132 42.3601C0.289255 42.875 0 43.5733 0 44.3014V112.936C0 113.665 0.289255 114.363 0.804132 114.878C1.31901 115.393 2.01733 115.682 2.74548 115.682H56.2823C56.6464 115.682 56.9955 115.537 57.253 115.28C57.5104 115.022 57.655 114.673 57.655 114.309C57.655 113.945 57.5104 113.596 57.253 113.338C56.9955 113.081 56.6464 112.936 56.2823 112.936Z" fill="url(#paint1_linear_836_574)"/>
<path d="M34.3185 99.2094H28.8275C28.4634 99.2094 28.1143 99.0648 27.8568 98.8074C27.5994 98.5499 27.4548 98.2008 27.4548 97.8367V78.6189C27.4548 78.2549 27.5994 77.9057 27.8568 77.6483C28.1143 77.3908 28.4634 77.2462 28.8275 77.2462H34.3185C34.6825 77.2462 35.0317 77.3908 35.2891 77.6483C35.5466 77.9057 35.6912 78.2549 35.6912 78.6189V97.8367C35.6912 98.2008 35.5466 98.5499 35.2891 98.8074C35.0317 99.0648 34.6825 99.2094 34.3185 99.2094ZM30.2003 96.464H32.9457V79.9916H30.2003V96.464ZM20.5911 99.2094H15.1001C14.7361 99.2094 14.3869 99.0648 14.1295 98.8074C13.872 98.5499 13.7274 98.2008 13.7274 97.8367V86.8551C13.7274 86.4911 13.872 86.1419 14.1295 85.8845C14.3869 85.627 14.7361 85.4824 15.1001 85.4824H20.5911C20.9552 85.4824 21.3043 85.627 21.5618 85.8845C21.8192 86.1419 21.9638 86.4911 21.9638 86.8551V97.8367C21.9638 98.2008 21.8192 98.5499 21.5618 98.8074C21.3043 99.0648 20.9552 99.2094 20.5911 99.2094ZM16.4729 96.464H19.2183V88.2278H16.4729V96.464ZM102.955 52.5376H94.719C94.3549 52.5376 94.0057 52.393 93.7483 52.1356C93.4909 51.8781 93.3462 51.529 93.3462 51.1649C93.3462 50.8008 93.4909 50.4517 93.7483 50.1943C94.0057 49.9368 94.3549 49.7922 94.719 49.7922H102.955C103.319 49.7922 103.669 49.9368 103.926 50.1943C104.184 50.4517 104.328 50.8008 104.328 51.1649C104.328 51.529 104.184 51.8781 103.926 52.1356C103.669 52.393 103.319 52.5376 102.955 52.5376ZM102.955 60.7738H90.6008C90.2367 60.7738 89.8875 60.6292 89.6301 60.3718C89.3726 60.1143 89.228 59.7652 89.228 59.4011C89.228 59.037 89.3726 58.6879 89.6301 58.4305C89.8875 58.173 90.2367 58.0284 90.6008 58.0284H102.955C103.319 58.0284 103.669 58.173 103.926 58.4305C104.184 58.6879 104.328 59.037 104.328 59.4011C104.328 59.7652 104.184 60.1143 103.926 60.3718C103.669 60.6292 103.319 60.7738 102.955 60.7738ZM86.4825 85.4824H70.0097C69.6456 85.4824 69.2964 85.3378 69.039 85.0804C68.7816 84.8229 68.6369 84.4738 68.6369 84.1097C68.6369 83.7457 68.7816 83.3965 69.039 83.1391C69.2964 82.8816 69.6456 82.737 70.0097 82.737H86.4825C86.8466 82.737 87.1958 82.8816 87.4532 83.1391C87.7106 83.3965 87.8553 83.7457 87.8553 84.1097C87.8553 84.4738 87.7106 84.8229 87.4532 85.0804C87.1958 85.3378 86.8466 85.4824 86.4825 85.4824ZM94.719 93.7186H70.0097C69.6456 93.7186 69.2964 93.574 69.039 93.3166C68.7816 93.0591 68.6369 92.71 68.6369 92.3459C68.6369 91.9819 68.7816 91.6327 69.039 91.3753C69.2964 91.1178 69.6456 90.9732 70.0097 90.9732H94.719C95.083 90.9732 95.4322 91.1178 95.6896 91.3753C95.9471 91.6327 96.0917 91.9819 96.0917 92.3459C96.0917 92.71 95.9471 93.0591 95.6896 93.3166C95.4322 93.574 95.083 93.7186 94.719 93.7186ZM110.86 101.167C109.761 101.167 108.726 100.739 107.947 99.9617L86.5924 78.6107C85.8208 77.8376 85.3875 76.79 85.3875 75.6978C85.3875 74.6056 85.8208 73.558 86.5924 72.7849L92.4155 66.9619C93.9695 65.408 96.6847 65.408 98.2387 66.9619L119.593 88.3157C120.364 89.0883 120.798 90.1354 120.798 91.2272C120.798 92.3189 120.364 93.3661 119.593 94.1387L113.77 99.9617C113.388 100.345 112.935 100.649 112.435 100.856C111.936 101.062 111.4 101.168 110.86 101.167ZM95.3285 68.4966C95.1481 68.4963 94.9694 68.5315 94.8026 68.6003C94.6359 68.6691 94.4843 68.7701 94.3566 68.8975L88.5334 74.7204C88.2766 74.9787 88.1324 75.3281 88.1324 75.6923C88.1324 76.0565 88.2766 76.4059 88.5334 76.6642L109.888 98.0152C110.149 98.2647 110.497 98.404 110.858 98.404C111.22 98.404 111.567 98.2647 111.829 98.0152L117.652 92.1922C117.909 91.9348 118.054 91.5857 118.054 91.2217C118.054 90.8577 117.909 90.5086 117.652 90.2512L96.2976 68.8975C96.1703 68.7703 96.0192 68.6694 95.8529 68.6006C95.6866 68.5318 95.5084 68.4965 95.3285 68.4966Z" fill="url(#paint2_linear_836_574)"/>
<path d="M59.0278 77.2462C37.8327 77.2462 20.5911 60.0051 20.5911 38.8106C20.5911 17.6161 37.8327 0.375 59.0278 0.375C80.2228 0.375 97.4645 17.6161 97.4645 38.8106C97.4645 47.5959 94.4252 56.1835 88.9041 62.9948C88.7924 63.1401 88.6528 63.2615 88.4936 63.3519C88.3343 63.4423 88.1585 63.5 87.9766 63.5214C87.7947 63.5429 87.6103 63.5277 87.4343 63.4768C87.2584 63.426 87.0944 63.3404 86.952 63.2251C86.8097 63.1099 86.6918 62.9673 86.6054 62.8058C86.519 62.6443 86.4657 62.4671 86.4489 62.2847C86.432 62.1024 86.4518 61.9184 86.5071 61.7438C86.5624 61.5692 86.652 61.4074 86.7708 61.268C91.9084 54.9102 94.7134 46.9846 94.719 38.8106C94.719 19.1316 78.7074 3.1204 59.0278 3.1204C39.3482 3.1204 23.3366 19.1316 23.3366 38.8106C23.3366 58.4896 39.3482 74.5008 59.0278 74.5008C67.9314 74.5008 76.4615 71.2036 83.0397 65.2159C83.3091 64.9705 83.665 64.8422 84.029 64.8592C84.393 64.8762 84.7354 65.0371 84.9808 65.3065C85.2262 65.5759 85.3545 65.9317 85.3375 66.2957C85.3205 66.6597 85.1596 67.0021 84.8902 67.2475C77.818 73.6889 68.5939 77.2551 59.0278 77.2462Z" fill="url(#paint3_linear_836_574)"/>
<path d="M111.192 104.7H67.2642C65.8475 104.7 62.7067 104.7 60.4005 106.153V73.0595C59.942 73.0787 59.4917 73.1281 59.0278 73.1281V40.8038C58.1371 42.2727 57.6626 43.9562 57.655 45.6741V111.564C57.655 111.928 57.7996 112.277 58.0571 112.534C58.3145 112.792 58.6637 112.936 59.0278 112.936C59.3918 112.936 59.741 112.792 59.9984 112.534C60.2559 112.277 60.4005 111.928 60.4005 111.564C60.4005 109.093 61.5673 107.446 67.2642 107.446H111.192C111.556 107.446 111.905 107.301 112.163 107.044C112.42 106.786 112.565 106.437 112.565 106.073C112.565 105.709 112.42 105.36 112.163 105.102C111.905 104.845 111.556 104.7 111.192 104.7ZM109.819 36.0652H95.9517C96.0258 36.9739 96.0917 37.8827 96.0917 38.8106H109.819V74.5008C109.819 74.8649 109.964 75.214 110.221 75.4715C110.479 75.7289 110.828 75.8735 111.192 75.8735C111.556 75.8735 111.905 75.7289 112.163 75.4715C112.42 75.214 112.565 74.8649 112.565 74.5008V38.8106C112.565 38.0825 112.275 37.3842 111.76 36.8693C111.246 36.3545 110.547 36.0652 109.819 36.0652Z" fill="url(#paint4_linear_836_574)"/>
<path d="M59.0278 74.5008C58.6637 74.5008 58.3145 74.3562 58.0571 74.0988C57.7996 73.8413 57.655 73.4922 57.655 73.1281V40.1833C57.655 34.8847 61.9654 30.5744 67.2642 30.5744H89.9116C90.2757 30.5744 90.6249 30.719 90.8823 30.9765C91.1397 31.2339 91.2844 31.583 91.2844 31.9471C91.2844 32.3112 91.1397 32.6603 90.8823 32.9178C90.6249 33.1752 90.2757 33.3198 89.9116 33.3198H67.2642C65.4443 33.3213 63.6993 34.0448 62.4124 35.3317C61.1256 36.6185 60.402 38.3634 60.4005 40.1833V73.1281C60.4005 73.4922 60.2559 73.8413 59.9984 74.0988C59.741 74.3562 59.3918 74.5008 59.0278 74.5008Z" fill="url(#paint5_linear_836_574)"/>
<path d="M59.0278 72.9881C58.6736 73.043 58.3249 73.0375 57.9708 73.0732C57.8637 73.0705 57.7621 73.0512 57.655 73.0485V106.153C55.3488 104.7 52.208 104.7 50.7913 104.7H8.23643V38.8106H21.9638C21.9638 37.8827 22.0297 36.9739 22.1038 36.0652H8.23643C7.50829 36.0652 6.80996 36.3545 6.29509 36.8693C5.78021 37.3842 5.49095 38.0825 5.49095 38.8106V104.7C5.49095 105.428 5.78021 106.127 6.29509 106.642C6.80996 107.156 7.50829 107.446 8.23643 107.446H50.7913C56.4882 107.446 57.655 109.093 57.655 111.564C57.655 111.928 57.7996 112.277 58.0571 112.534C58.3145 112.792 58.6637 112.936 59.0278 112.936C59.3918 112.936 59.741 112.792 59.9984 112.534C60.2559 112.277 60.4005 111.928 60.4005 111.564V74.5008C60.4005 72.7163 59.0278 72.9881 59.0278 72.9881Z" fill="url(#paint6_linear_836_574)"/>
<path d="M59.0278 74.3608C58.6637 74.3608 58.3145 74.2162 58.0571 73.9587C57.7997 73.7013 57.655 73.3522 57.655 72.9881L57.655 40.1833C57.655 36.3974 54.5773 33.3198 50.7913 33.3198H28.1439C27.7798 33.3198 27.4307 33.1752 27.1732 32.9178C26.9158 32.6603 26.7712 32.3112 26.7712 31.9471C26.7712 31.583 26.9158 31.2339 27.1732 30.9765C27.4307 30.719 27.7798 30.5744 28.1439 30.5744H50.7913C56.0901 30.5744 60.4005 34.8847 60.4005 40.1833L60.4005 72.9881C60.4005 73.3522 60.2559 73.7013 59.9984 73.9587C59.741 74.2162 59.3918 74.3608 59.0278 74.3608ZM46.6731 74.1137V96.464H43.9276V73.076L41.1822 71.7554V97.8367C41.1822 98.2008 41.3268 98.5499 41.5842 98.8074C41.8417 99.0648 42.1908 99.2094 42.5549 99.2094H48.0459C48.4099 99.2094 48.7591 99.0648 49.0165 98.8074C49.274 98.5499 49.4186 98.2008 49.4186 97.8367V74.7232L46.6731 74.1137Z" fill="url(#paint7_linear_836_574)"/>
<path d="M48.0459 70.3827C47.6818 70.3827 47.3326 70.2381 47.0752 69.9807C46.8177 69.7232 46.6731 69.3741 46.6731 69.01V49.7922H41.1822V64.8919C41.1822 65.256 41.0375 65.6051 40.7801 65.8626C40.5227 66.12 40.1735 66.2646 39.8094 66.2646C39.4453 66.2646 39.0962 66.12 38.8387 65.8626C38.5813 65.6051 38.4367 65.256 38.4367 64.8919V48.4195C38.4367 48.0554 38.5813 47.7063 38.8387 47.4489C39.0962 47.1914 39.4453 47.0468 39.8094 47.0468H48.0459C48.4099 47.0468 48.7591 47.1914 49.0165 47.4489C49.274 47.7063 49.4186 48.0554 49.4186 48.4195V69.01C49.4186 69.3741 49.274 69.7232 49.0165 69.9807C48.7591 70.2381 48.4099 70.3827 48.0459 70.3827ZM86.4825 55.283H70.0097C69.6456 55.283 69.2964 55.1384 69.039 54.881C68.7816 54.6235 68.6369 54.2744 68.6369 53.9103C68.6369 53.5462 68.7816 53.1971 69.039 52.9397C69.2964 52.6822 69.6456 52.5376 70.0097 52.5376H86.4825C86.8466 52.5376 87.1958 52.6822 87.4532 52.9397C87.7106 53.1971 87.8553 53.5462 87.8553 53.9103C87.8553 54.2744 87.7106 54.6235 87.4532 54.881C87.1958 55.1384 86.8466 55.283 86.4825 55.283ZM89.228 47.0468H70.0097C69.6456 47.0468 69.2964 46.9022 69.039 46.6448C68.7816 46.3873 68.6369 46.0382 68.6369 45.6741C68.6369 45.31 68.7816 44.9609 69.039 44.7035C69.2964 44.446 69.6456 44.3014 70.0097 44.3014H89.228C89.5921 44.3014 89.9412 44.446 90.1987 44.7035C90.4561 44.9609 90.6008 45.31 90.6008 45.6741C90.6008 46.0382 90.4561 46.3873 90.1987 46.6448C89.9412 46.9022 89.5921 47.0468 89.228 47.0468ZM60.6037 41.556H57.8856C58.3743 42.3934 58.723 43.3131 58.8877 44.3014H59.662C59.8102 43.3158 60.1369 42.3961 60.6037 41.556ZM115.31 41.556H111.702V44.3014H115.31V79.9916C115.31 80.3557 115.455 80.7048 115.712 80.9623C115.97 81.2197 116.319 81.3643 116.683 81.3643C117.047 81.3643 117.396 81.2197 117.653 80.9623C117.911 80.7048 118.056 80.3557 118.056 79.9916V44.3014C118.056 43.5733 117.766 42.875 117.251 42.3601C116.737 41.8453 116.038 41.556 115.31 41.556ZM81.925 66.174C81.2167 66.7698 80.4754 67.3161 79.7204 67.8542L86.8889 75.0197C86.993 74.5434 87.2256 74.1047 87.5615 73.7513L90.4745 70.8384L88.5334 72.7794L81.925 66.174ZM85.8373 62.3195L92.4155 68.8975L93.3874 67.9256C93.7408 67.5897 94.1795 67.3571 94.6558 67.253L87.5725 60.1698C87.0179 60.9111 86.4414 61.6304 85.8373 62.3195Z" fill="url(#paint8_linear_836_574)"/>
<defs>
<linearGradient id="paint0_linear_836_574" x1="117.074" y1="16.5089" x2="17.7887" y2="132.342" gradientUnits="userSpaceOnUse">
<stop stop-color="#DF5DE1"/>
<stop offset="1" stop-color="#350836"/>
</linearGradient>
<linearGradient id="paint1_linear_836_574" x1="117.074" y1="16.5089" x2="17.7887" y2="132.342" gradientUnits="userSpaceOnUse">
<stop stop-color="#DF5DE1"/>
<stop offset="1" stop-color="#350836"/>
</linearGradient>
<linearGradient id="paint2_linear_836_574" x1="117.074" y1="16.5089" x2="17.7887" y2="132.342" gradientUnits="userSpaceOnUse">
<stop stop-color="#DF5DE1"/>
<stop offset="1" stop-color="#350836"/>
</linearGradient>
<linearGradient id="paint3_linear_836_574" x1="117.074" y1="16.5089" x2="17.7887" y2="132.342" gradientUnits="userSpaceOnUse">
<stop stop-color="#DF5DE1"/>
<stop offset="1" stop-color="#350836"/>
</linearGradient>
<linearGradient id="paint4_linear_836_574" x1="117.074" y1="16.5089" x2="17.7887" y2="132.342" gradientUnits="userSpaceOnUse">
<stop stop-color="#DF5DE1"/>
<stop offset="1" stop-color="#350836"/>
</linearGradient>
<linearGradient id="paint5_linear_836_574" x1="117.074" y1="16.5089" x2="17.7887" y2="132.342" gradientUnits="userSpaceOnUse">
<stop stop-color="#DF5DE1"/>
<stop offset="1" stop-color="#350836"/>
</linearGradient>
<linearGradient id="paint6_linear_836_574" x1="117.074" y1="16.5089" x2="17.7887" y2="132.342" gradientUnits="userSpaceOnUse">
<stop stop-color="#DF5DE1"/>
<stop offset="1" stop-color="#350836"/>
</linearGradient>
<linearGradient id="paint7_linear_836_574" x1="117.074" y1="16.5089" x2="17.7887" y2="132.342" gradientUnits="userSpaceOnUse">
<stop stop-color="#DF5DE1"/>
<stop offset="1" stop-color="#350836"/>
</linearGradient>
<linearGradient id="paint8_linear_836_574" x1="117.074" y1="16.5089" x2="17.7887" y2="132.342" gradientUnits="userSpaceOnUse">
<stop stop-color="#DF5DE1"/>
<stop offset="1" stop-color="#350836"/>
</linearGradient>
</defs>
</svg>
