<svg width="127" height="107" viewBox="0 0 127 107" fill="none" xmlns="http://www.w3.org/2000/svg">
<path d="M51.6564 84.3514C52.6627 84.3514 53.4785 83.5351 53.4785 82.5282C53.4785 81.5213 52.6627 80.705 51.6564 80.705C50.6501 80.705 49.8344 81.5213 49.8344 82.5282C49.8344 83.5351 50.6501 84.3514 51.6564 84.3514Z" fill="url(#paint0_linear_1011_4)"/>
<path d="M32.8347 20.3525C32.8347 19.9288 32.6665 19.5224 32.3671 19.2228C32.0676 18.9232 31.6615 18.7549 31.238 18.7549H10.7258C10.3023 18.7549 9.89618 18.9232 9.59675 19.2228C9.29732 19.5224 9.1291 19.9288 9.1291 20.3525V36.4603C9.1291 37.3437 9.8429 38.0579 10.7258 38.0579H31.238C32.1209 38.0579 32.8347 37.3437 32.8347 36.4603V20.3525ZM29.6414 34.8439H12.3224V21.9313H29.6414V34.8439ZM32.8347 44.3544C32.8347 43.9307 32.6665 43.5244 32.3671 43.2247C32.0676 42.9251 31.6615 42.7568 31.238 42.7568H10.7258C10.3023 42.7568 9.89618 42.9251 9.59675 43.2247C9.29732 43.5244 9.1291 43.9307 9.1291 44.3544C9.1291 44.7781 9.29732 45.1845 9.59675 45.4841C9.89618 45.7837 10.3023 45.9521 10.7258 45.9521H31.238C32.1209 45.9521 32.8347 45.2378 32.8347 44.3544ZM10.7258 49.9367C10.3023 49.9367 9.89618 50.105 9.59675 50.4046C9.29732 50.7043 9.1291 51.1106 9.1291 51.5343C9.1291 51.958 9.29732 52.3644 9.59675 52.664C9.89618 52.9636 10.3023 53.132 10.7258 53.132H25.1332C25.5567 53.132 25.9628 52.9636 26.2622 52.664C26.5616 52.3644 26.7298 51.958 26.7298 51.5343C26.7298 51.1106 26.5616 50.7043 26.2622 50.4046C25.9628 50.105 25.5567 49.9367 25.1332 49.9367H10.7258ZM60.5601 44.3544C60.5601 43.9307 60.3919 43.5244 60.0925 43.2247C59.793 42.9251 59.3869 42.7568 58.9634 42.7568H38.4512C38.0277 42.7568 37.6216 42.9251 37.3222 43.2247C37.0227 43.5244 36.8545 43.9307 36.8545 44.3544C36.8545 44.7781 37.0227 45.1845 37.3222 45.4841C37.6216 45.7837 38.0277 45.9521 38.4512 45.9521H58.9634C59.8463 45.9521 60.5601 45.2378 60.5601 44.3544ZM38.4512 49.9367C38.0277 49.9367 37.6216 50.105 37.3222 50.4046C37.0227 50.7043 36.8545 51.1106 36.8545 51.5343C36.8545 51.958 37.0227 52.3644 37.3222 52.664C37.6216 52.9636 38.0277 53.132 38.4512 53.132H52.8586C53.2821 53.132 53.6882 52.9636 53.9876 52.664C54.287 52.3644 54.4553 51.958 54.4553 51.5343C54.4553 51.1106 54.287 50.7043 53.9876 50.4046C53.6882 50.105 53.2821 49.9367 52.8586 49.9367H38.4512ZM60.5601 20.3525C60.5601 19.9288 60.3919 19.5224 60.0925 19.2228C59.793 18.9232 59.3869 18.7549 58.9634 18.7549H38.4512C38.0277 18.7549 37.6216 18.9232 37.3222 19.2228C37.0227 19.5224 36.8545 19.9288 36.8545 20.3525V36.4603C36.8545 37.3437 37.5683 38.0579 38.4512 38.0579H58.9634C59.8463 38.0579 60.5601 37.3437 60.5601 36.4603V20.3525ZM57.3668 34.8439H40.0478V21.9313H57.3668V34.8439Z" fill="url(#paint1_linear_1011_4)"/>
<path d="M103.313 46.0084C103.313 45.7986 103.272 45.5909 103.191 45.3971C103.111 45.2032 102.993 45.0271 102.845 44.8787C102.697 44.7304 102.521 44.6127 102.327 44.5324C102.133 44.4521 101.926 44.4108 101.716 44.4108C101.507 44.4108 101.299 44.4521 101.105 44.5324C100.911 44.6127 100.735 44.7304 100.587 44.8787C100.439 45.0271 100.321 45.2032 100.241 45.3971C100.161 45.5909 100.12 45.7986 100.12 46.0084V74.3333H3.19331V18.5105C3.19331 15.0334 6.01093 12.1952 9.486 12.1952H93.8081C94.4467 12.1952 95.1042 12.308 95.8367 12.5712C96.6632 12.8531 97.5837 12.402 97.8654 11.575C98.1472 10.748 97.6964 9.827 96.8699 9.54507C95.7992 9.18796 94.8036 9 93.8081 9H9.486C4.264 9 0 13.2666 0 18.5105V81.1749C0 86.4189 4.264 90.6855 9.486 90.6855H38.9959L36.554 96.5121H29.5475C28.1818 96.5487 26.8844 97.1172 25.9314 98.0966C24.9784 99.0761 24.4451 100.389 24.4451 101.756C24.4451 103.123 24.9784 104.436 25.9314 105.415C26.8844 106.395 28.1818 106.963 29.5475 107H73.7841C75.1498 106.963 76.4472 106.395 77.4002 105.415C78.3532 104.436 78.8865 103.123 78.8865 101.756C78.8865 100.389 78.3532 99.0761 77.4002 98.0966C76.4472 97.1172 75.1498 96.5487 73.7841 96.5121H66.7777L64.3357 90.6855H93.8268C99.0488 90.6855 103.313 86.4377 103.313 81.2125V46.0084ZM75.8316 101.775C75.8316 102.903 74.9112 103.824 73.7841 103.824H29.5475C28.4204 103.824 27.5 102.903 27.5 101.775C27.5 100.647 28.4204 99.7261 29.5475 99.7261H73.7841C74.9112 99.7261 75.8316 100.647 75.8316 101.775ZM63.3026 96.5309H40.0102L42.4522 90.7043H60.8607L63.3026 96.5309ZM100.12 81.2313C100.12 84.6897 97.3019 87.509 93.8268 87.509H9.486C6.01093 87.509 3.19331 84.6709 3.19331 81.1937V77.5474H100.12V81.2313Z" fill="url(#paint2_linear_1011_4)"/>
<g filter="url(#filter0_b_1011_4)">
<rect x="4" y="13" width="95" height="61" rx="5" fill="url(#paint3_linear_1011_4)" fill-opacity="0.5"/>
</g>
<path d="M123.697 2.94405C122.711 1.94932 121.525 1.17412 120.219 0.669124C118.912 0.164126 117.514 -0.059309 116.115 0.0134233C114.716 0.0861556 113.348 0.453417 112.101 1.09121C110.854 1.729 109.755 2.62296 108.877 3.71467L84.6639 33.0357C79.9867 32.0208 75.8541 34.1071 72.9614 39.0879C71.9095 40.8923 71.1957 42.9974 70.8388 45.3468C70.2565 49.0871 69.0918 52.32 67.251 55.2145C66.9505 55.7032 66.9129 56.3046 67.1759 56.8121C67.4388 57.3196 67.9648 57.6391 68.5283 57.6579C69.336 57.6955 70.1438 57.6955 70.9139 57.6955C80.2684 57.6955 86.8053 55.4776 90.3367 51.117C93.0792 47.7151 93.2295 43.9747 93.0416 41.9448L122.758 17.7737C123.855 16.904 124.757 15.8142 125.408 14.5744C126.058 13.3345 126.442 11.9722 126.534 10.575C126.74 7.73692 125.688 4.95518 123.697 2.94405ZM91.8582 29.3518L97.0802 34.577L91.708 38.9375L87.4627 34.6709L91.8582 29.3518ZM87.8384 49.1435C85.0208 52.6019 79.3292 54.4439 71.3084 54.5002C72.6233 51.8689 73.5061 49.0119 73.9945 45.8167C74.2951 43.862 74.8774 42.1328 75.7227 40.6855C77.5635 37.5279 79.8176 35.949 82.4474 35.949C83.086 35.949 83.7623 36.043 84.4573 36.231L89.8295 41.6441C90.0174 42.7906 90.2804 46.1738 87.8384 49.1435ZM120.805 15.2739L120.786 15.2927L99.5597 32.5658L93.8869 26.8896L111.356 5.74459C112.558 4.24095 114.343 3.31996 116.278 3.20719C118.212 3.09442 120.072 3.82744 121.424 5.19952C122.777 6.57159 123.491 8.45115 123.378 10.3683C123.265 12.2854 122.326 14.071 120.805 15.2739Z" fill="url(#paint4_linear_1011_4)"/>
<defs>
<filter id="filter0_b_1011_4" x="0" y="9" width="103" height="69" filterUnits="userSpaceOnUse" color-interpolation-filters="sRGB">
<feFlood flood-opacity="0" result="BackgroundImageFix"/>
<feGaussianBlur in="BackgroundImageFix" stdDeviation="2"/>
<feComposite in2="SourceAlpha" operator="in" result="effect1_backgroundBlur_1011_4"/>
<feBlend mode="normal" in="SourceGraphic" in2="effect1_backgroundBlur_1011_4" result="shape"/>
</filter>
<linearGradient id="paint0_linear_1011_4" x1="78" y1="-5" x2="18.239" y2="126.109" gradientUnits="userSpaceOnUse">
<stop stop-color="#DF5DE1"/>
<stop offset="1" stop-color="#350836"/>
</linearGradient>
<linearGradient id="paint1_linear_1011_4" x1="78" y1="-5" x2="18.239" y2="126.109" gradientUnits="userSpaceOnUse">
<stop stop-color="#DF5DE1"/>
<stop offset="1" stop-color="#350836"/>
</linearGradient>
<linearGradient id="paint2_linear_1011_4" x1="78" y1="-5" x2="18.239" y2="126.109" gradientUnits="userSpaceOnUse">
<stop stop-color="#DF5DE1"/>
<stop offset="1" stop-color="#350836"/>
</linearGradient>
<linearGradient id="paint3_linear_1011_4" x1="51.5" y1="13" x2="51.5" y2="74" gradientUnits="userSpaceOnUse">
<stop/>
<stop offset="1" stop-opacity="0"/>
</linearGradient>
<linearGradient id="paint4_linear_1011_4" x1="84.5596" y1="-14.082" x2="24.7985" y2="117.027" gradientUnits="userSpaceOnUse">
<stop stop-color="#DF5DE1"/>
<stop offset="1" stop-color="#350836"/>
</linearGradient>
</defs>
</svg>
