<svg width="85" height="83" viewBox="0 0 85 83" fill="none" xmlns="http://www.w3.org/2000/svg">
<path d="M39.8501 11C39.8501 11 48.4839 11.7849 59.4723 22.7733C70.4608 33.7618 71.2456 42.3955 71.2456 42.3955" stroke="#A131A5" stroke-width="2.5" stroke-linecap="round"/>
<path d="M42.4658 24.0816C42.4658 24.0816 46.1286 25.1281 51.6229 30.6223C57.1171 36.1166 58.1636 39.7794 58.1636 39.7794" stroke="#A131A5" stroke-width="2.5" stroke-linecap="round"/>
<path d="M45.7726 59.2004L45.0476 58.5117L45.7726 59.2004ZM47.4578 57.4262L48.1829 58.1149L47.4578 57.4262ZM56.3994 56.1853L55.9006 57.052L56.3994 56.1853ZM63.4683 60.2541L62.9694 61.1208L63.4683 60.2541ZM65.4602 73.0059L66.1852 73.6946L65.4602 73.0059ZM60.2042 78.5395L59.4791 77.8509L60.2042 78.5395ZM55.3022 81.1632L55.4004 82.1584L55.3022 81.1632ZM18.8168 64.5579L19.5419 63.8692L18.8168 64.5579ZM1.01068 29.3737L0.0121213 29.4273L0.0121214 29.4273L1.01068 29.3737ZM24.9668 35.0613L25.6919 35.7499L24.9668 35.0613ZM25.5467 24.6642L26.3632 24.0869L25.5467 24.6642ZM20.881 18.0653L20.0645 18.6426V18.6426L20.881 18.0653ZM9.36736 16.9517L10.0924 17.6404L9.36736 16.9517ZM3.55984 23.0659L2.83478 22.3773L2.83478 22.3773L3.55984 23.0659ZM30.8335 51.9066L31.5586 51.2179L30.8335 51.9066ZM46.4977 59.8891L48.1829 58.1149L46.7327 56.7376L45.0476 58.5117L46.4977 59.8891ZM55.9006 57.052L62.9694 61.1208L63.9672 59.3874L56.8983 55.3186L55.9006 57.052ZM64.7351 72.3173L59.4791 77.8509L60.9292 79.2282L66.1852 73.6946L64.7351 72.3173ZM55.204 80.168C49.4343 80.7375 35.0115 80.1558 19.5419 63.8692L18.0918 65.2466C34.0483 82.0459 49.1123 82.779 55.4004 82.1584L55.204 80.168ZM19.5419 63.8692C4.89606 48.4499 2.33065 35.3081 2.00925 29.3201L0.0121214 29.4273C0.357812 35.8678 3.10323 49.4665 18.0918 65.2466L19.5419 63.8692ZM24.6307 36.8672L25.6919 35.7499L24.2418 34.3726L23.1805 35.4898L24.6307 36.8672ZM26.3632 24.0869L21.6976 17.488L20.0645 18.6426L24.7302 25.2415L26.3632 24.0869ZM8.64231 16.263L2.83478 22.3773L4.2849 23.7546L10.0924 17.6404L8.64231 16.263ZM23.9056 36.1785C23.1805 35.4898 23.1796 35.4908 23.1787 35.4918C23.1783 35.4922 23.1774 35.4932 23.1767 35.4939C23.1753 35.4953 23.1739 35.4968 23.1725 35.4984C23.1695 35.5016 23.1664 35.505 23.163 35.5088C23.1562 35.5162 23.1485 35.5249 23.1399 35.5347C23.1228 35.5544 23.1023 35.5788 23.0791 35.6081C23.0328 35.6667 22.9755 35.7448 22.9125 35.8432C22.7864 36.0404 22.638 36.318 22.5084 36.682C22.2472 37.4161 22.0745 38.4681 22.2801 39.8709C22.688 42.6551 24.5753 46.7698 30.1085 52.5953L31.5586 51.2179C26.1583 45.5324 24.5816 41.7831 24.2589 39.581C24.0992 38.4906 24.2445 37.769 24.3927 37.3525C24.4679 37.1413 24.547 36.9996 24.5972 36.9212C24.6223 36.8818 24.6405 36.8581 24.6474 36.8493C24.6509 36.8449 24.6516 36.8442 24.649 36.8472C24.6477 36.8487 24.6455 36.8511 24.6425 36.8545C24.641 36.8561 24.6393 36.858 24.6373 36.8602C24.6363 36.8612 24.6353 36.8623 24.6341 36.8635C24.6336 36.8641 24.6327 36.865 24.6325 36.8653C24.6316 36.8663 24.6307 36.8672 23.9056 36.1785ZM30.1085 52.5953C35.6357 58.4144 39.5581 60.4211 42.2429 60.8572C43.6006 61.0777 44.6254 60.8927 45.3429 60.6097C45.6975 60.4698 45.9672 60.3099 46.1577 60.1748C46.2528 60.1073 46.3281 60.0461 46.3844 59.9967C46.4126 59.972 46.436 59.9502 46.4549 59.9321C46.4643 59.923 46.4725 59.9148 46.4797 59.9076C46.4832 59.904 46.4865 59.9007 46.4895 59.8976C46.491 59.896 46.4925 59.8946 46.4938 59.8931C46.4945 59.8924 46.4955 59.8914 46.4958 59.8911C46.4968 59.8901 46.4977 59.8891 45.7726 59.2004C45.0476 58.5117 45.0485 58.5108 45.0494 58.5098C45.0497 58.5095 45.0505 58.5086 45.0511 58.508C45.0522 58.5069 45.0533 58.5058 45.0543 58.5047C45.0563 58.5026 45.0581 58.5008 45.0597 58.4992C45.0629 58.4959 45.0653 58.4936 45.0668 58.4922C45.0698 58.4893 45.0694 58.4898 45.0655 58.4932C45.0578 58.5 45.0364 58.5181 45.0007 58.5434C44.9294 58.594 44.8007 58.6736 44.609 58.7492C44.2338 58.8972 43.5738 59.0471 42.5635 58.883C40.512 58.5499 36.9649 56.9097 31.5586 51.2179L30.1085 52.5953ZM21.6976 17.488C18.5404 13.0227 12.3469 12.3628 8.64231 16.263L10.0924 17.6404C12.8592 14.7275 17.5757 15.1225 20.0645 18.6426L21.6976 17.488ZM2.00925 29.3201C1.89728 27.234 2.81681 25.3003 4.2849 23.7546L2.83478 22.3773C1.09408 24.2099 -0.136656 26.6554 0.0121213 29.4273L2.00925 29.3201ZM59.4791 77.8509C58.2522 79.1425 56.8021 80.0103 55.204 80.168L55.4004 82.1584C57.6163 81.9396 59.4832 80.7506 60.9292 79.2282L59.4791 77.8509ZM25.6919 35.7499C28.6542 32.6312 28.9031 27.6792 26.3632 24.0869L24.7302 25.2415C26.7519 28.101 26.508 31.9867 24.2418 34.3726L25.6919 35.7499ZM62.9694 61.1208C66.9676 63.422 67.8215 69.0678 64.7351 72.3173L66.1852 73.6946C70.1946 69.4735 69.048 62.3119 63.9672 59.3874L62.9694 61.1208ZM48.1829 58.1149C50.1869 56.0051 53.3105 55.5611 55.9006 57.052L56.8983 55.3186C53.5271 53.3782 49.3878 53.9422 46.7327 56.7376L48.1829 58.1149Z" fill="url(#paint0_linear_812_377)"/>
<g filter="url(#filter0_b_812_377)">
<path d="M60.8052 51.3231L58.781 53.4542C58.781 53.4542 53.9695 58.5198 40.8361 44.6929C27.7027 30.8659 32.5142 25.8003 32.5142 25.8003L33.789 24.4583C36.9292 21.1522 37.2252 15.8443 34.4855 11.9693L28.8811 4.04273C25.4902 -0.753335 18.9376 -1.38689 15.0509 2.70507L8.07489 10.0495C6.14768 12.0785 4.85623 14.7087 5.01283 17.6264C5.41349 25.0909 8.60318 41.1513 26.4016 59.8897C45.2762 79.7611 62.986 80.5508 70.2279 79.836C72.5186 79.6099 74.5108 78.3746 76.1161 76.6845L82.4296 70.0375C86.6914 65.5507 85.4898 57.8585 80.037 54.7199L71.5459 49.8325C67.9655 47.7717 63.6034 48.3771 60.8052 51.3231Z" fill="url(#paint1_linear_812_377)" fill-opacity="0.2"/>
</g>
<defs>
<filter id="filter0_b_812_377" x="0" y="-5" width="90" height="90" filterUnits="userSpaceOnUse" color-interpolation-filters="sRGB">
<feFlood flood-opacity="0" result="BackgroundImageFix"/>
<feGaussianBlur in="BackgroundImageFix" stdDeviation="2.5"/>
<feComposite in2="SourceAlpha" operator="in" result="effect1_backgroundBlur_812_377"/>
<feBlend mode="normal" in="SourceGraphic" in2="effect1_backgroundBlur_812_377" result="shape"/>
</filter>
<linearGradient id="paint0_linear_812_377" x1="34.3" y1="14.6997" x2="34.3" y2="81.2997" gradientUnits="userSpaceOnUse">
<stop stop-color="#DF5DE1"/>
<stop offset="1" stop-color="#350836"/>
</linearGradient>
<linearGradient id="paint1_linear_812_377" x1="45" y1="-29.2537" x2="45" y2="80" gradientUnits="userSpaceOnUse">
<stop stop-color="#FF6BC0"/>
<stop offset="1" stop-color="#C603CA"/>
</linearGradient>
</defs>
</svg>
