<svg width="100" height="90" viewBox="0 0 100 90" fill="none" xmlns="http://www.w3.org/2000/svg">
<path d="M65.6588 89.9062C64.5784 89.9062 63.3932 89.5514 62.1113 88.8446L33.0782 67.4091C32.753 67.1699 32.5542 66.7963 32.5327 66.3932C32.5139 65.9901 32.6751 65.6004 32.9761 65.329L67.3654 34.3824C67.9163 33.8852 68.7655 33.9282 69.2627 34.4818C69.7599 35.0328 69.7142 35.882 69.1633 36.3792L35.9995 66.2266L63.5572 86.5871C64.2855 86.9768 65.5164 87.4713 66.3925 87.0655C67.2847 86.657 67.7255 85.3535 67.9405 84.3323L79.6983 28.9241C80.1552 27.0939 79.9348 25.6212 79.1205 24.9439C78.4997 24.4279 77.5752 24.3903 76.5754 24.8418L7.46367 51.4964C5.34323 52.3484 4.67673 53.2245 4.68748 53.5147C4.69554 53.7055 5.15242 54.2323 6.51498 54.6489L23.6478 59.997L42.4576 48.129C43.0865 47.7366 43.9142 47.922 44.3093 48.5482C44.7044 49.1744 44.5189 50.0049 43.89 50.3999L24.5562 62.5985C24.2229 62.8081 23.8117 62.8618 23.4382 62.7463L5.72217 57.2154C2.57779 56.2533 2.04029 54.5548 2.00267 53.6276C1.94892 52.3564 2.6826 50.5182 6.48273 48.997L75.538 22.3693C77.4112 21.5147 79.4215 21.6974 80.8432 22.8826C82.4906 24.2559 83.0281 26.68 82.3186 29.5315L70.5715 84.8886C70.077 87.2482 69.0504 88.8043 67.5159 89.5084C66.938 89.7745 66.3199 89.9062 65.6588 89.9062Z" fill="url(#paint0_linear_808_366)"/>
<path d="M65.6588 89.9062C64.5784 89.9062 63.3932 89.5514 62.1113 88.8446L44.0513 75.5173C43.4547 75.0765 43.3257 74.2327 43.7691 73.6387C44.2099 73.0421 45.0537 72.9131 45.6477 73.3565L63.5572 86.5871C64.2855 86.9768 65.5164 87.4713 66.3925 87.0655C67.2847 86.657 67.7255 85.3535 67.9405 84.3323L79.6983 28.9241C80.1552 27.0939 79.9348 25.6212 79.1205 24.9439C78.4997 24.4279 77.5752 24.3903 76.5754 24.8418L7.46367 51.4964C5.34323 52.3484 4.67673 53.2245 4.68748 53.5147C4.69554 53.7055 5.15242 54.2323 6.51498 54.6489L24.2364 60.1797C24.661 60.3114 24.9915 60.6473 25.1232 61.072L31.2158 81.1234C31.3797 81.5722 31.506 82.0183 31.6162 82.4053C31.7022 82.7117 31.8097 83.0933 31.8823 83.2062C31.8715 83.1928 32.0865 83.2573 32.659 83.26C33.8603 83.26 34.3172 82.8112 35.2309 81.9216L39.6922 77.584C40.2243 77.0626 41.0735 77.0787 41.5922 77.6108C42.1082 78.143 42.0975 78.9949 41.5654 79.5109L37.1794 83.7706C36.099 84.8268 34.9541 85.9448 32.659 85.9448C30.0252 85.9448 29.4931 84.7784 29.0282 83.1337C28.9341 82.8004 28.8266 82.4161 28.6654 81.9727L22.7582 62.534L5.72217 57.2154C2.57779 56.2533 2.04029 54.5548 2.00267 53.6276C1.94892 52.3564 2.6826 50.5182 6.48273 48.997L75.538 22.3693C77.4112 21.5147 79.4215 21.6974 80.8432 22.8826C82.4906 24.2559 83.0281 26.68 82.3186 29.5315L70.5715 84.8886C70.077 87.2482 69.0504 88.8043 67.5159 89.5084C66.938 89.7745 66.3199 89.9062 65.6588 89.9062Z" fill="url(#paint1_linear_808_366)"/>
<g filter="url(#filter0_b_808_366)">
<path fill-rule="evenodd" clip-rule="evenodd" d="M92.5886 0.100969L4.0756 28.8927C1.5667 30.3755 -2.70235 34.5407 3.02908 37.87C8.45313 41.0207 13.6905 43.9949 18.8146 46.9048C21.2048 48.2621 23.5704 49.6054 25.9188 50.9462L74.8383 17.4353C76.5365 16.0668 78.9716 16.2532 80.2774 17.8516C81.5831 19.4499 81.265 21.855 79.5668 23.2235L37.7486 57.797C48.5013 64.145 59.1567 70.8551 70.4662 79.0743C73.4073 81.2239 79.7478 83.6193 81.5807 76.0044C83.4137 68.3896 93.8276 28.8513 98.8054 10.034C100.206 6.29032 100.924 -0.937487 92.5886 0.100969Z" fill="url(#paint2_linear_808_366)" fill-opacity="0.2"/>
</g>
<defs>
<filter id="filter0_b_808_366" x="-4.82178" y="-5" width="109.49" height="91.2054" filterUnits="userSpaceOnUse" color-interpolation-filters="sRGB">
<feFlood flood-opacity="0" result="BackgroundImageFix"/>
<feGaussianBlur in="BackgroundImageFix" stdDeviation="2.5"/>
<feComposite in2="SourceAlpha" operator="in" result="effect1_backgroundBlur_808_366"/>
<feBlend mode="normal" in="SourceGraphic" in2="effect1_backgroundBlur_808_366" result="shape"/>
</filter>
<linearGradient id="paint0_linear_808_366" x1="42.3123" y1="21.8388" x2="42.3123" y2="89.9062" gradientUnits="userSpaceOnUse">
<stop stop-color="#DF5DE1"/>
<stop offset="1" stop-color="#360C37"/>
</linearGradient>
<linearGradient id="paint1_linear_808_366" x1="42.3123" y1="21.8388" x2="42.3123" y2="89.9062" gradientUnits="userSpaceOnUse">
<stop stop-color="#DF5DE1"/>
<stop offset="1" stop-color="#360C37"/>
</linearGradient>
<linearGradient id="paint2_linear_808_366" x1="65" y1="0.838714" x2="65" y2="76.8387" gradientUnits="userSpaceOnUse">
<stop stop-color="#ED28ED"/>
<stop offset="1" stop-color="#761076"/>
</linearGradient>
</defs>
</svg>
