<svg width="288" height="198" viewBox="0 0 288 198" fill="none" xmlns="http://www.w3.org/2000/svg">
<g filter="url(#filter0_b_804_74)">
<path fill-rule="evenodd" clip-rule="evenodd" d="M115.911 96.2313L95.2306 65.3772H0V134.257H92.2742L115.911 96.2313ZM134.257 93.2292L151.616 65.3772H258.674V134.257H161.942L134.257 93.2292ZM31.255 106.142H49.8236V109.693H27.3051V89.9614H31.255V106.142ZM87.8291 89.9614H91.7803V106.142C91.7803 106.142 91.8986 109.693 88.2245 109.693H67.6815C64.1257 109.693 64.1257 106.142 64.1257 106.142V89.9614H68.0757V106.142H87.8291V89.9614ZM160.996 89.9614H181.539C185.095 89.9614 185.095 93.5123 185.095 93.5123V109.693H181.144V103.379H161.39V109.693H157.44V93.5123C157.44 93.5123 157.44 89.9614 160.996 89.9614ZM181.144 93.5123H161.39V99.8267H181.144V93.5123ZM227.051 103.379L231.791 109.693H227.446L222.705 103.379H207.297V109.693H203.347V89.9614H227.051C231.002 89.9614 231.002 93.5123 231.002 93.5123V99.8267C231.002 99.8267 231.002 103.379 227.051 103.379ZM207.297 99.8267H227.051V93.5123H207.297V99.8267Z" fill="black" fill-opacity="0.9"/>
</g>
<g filter="url(#filter1_b_804_74)">
<path d="M287.964 129.277C287.964 130.12 287.847 130.892 287.613 131.595C287.378 132.298 286.903 132.866 286.188 133.299C285.474 133.732 284.389 133.949 282.936 133.949H271.155C269.889 133.949 268.921 133.716 268.254 133.247C267.585 132.778 267.129 132.141 266.881 131.332C266.635 130.524 266.512 129.593 266.512 128.539C266.512 127.485 266.641 126.554 266.899 125.746C267.157 124.938 267.615 124.3 268.27 123.831C268.927 123.363 269.889 123.13 271.155 123.13H273.897V125.764H271.084C270.264 125.764 269.649 125.881 269.238 126.115C268.828 126.349 268.558 126.671 268.429 127.081C268.3 127.491 268.236 127.966 268.236 128.504C268.236 129.043 268.3 129.517 268.429 129.927C268.558 130.336 268.828 130.659 269.238 130.892C269.649 131.128 270.264 131.244 271.084 131.244H283.464C284.307 131.244 284.934 131.128 285.345 130.892C285.754 130.659 286.024 130.336 286.153 129.927C286.282 129.517 286.347 129.043 286.347 128.504C286.347 127.708 286.101 127.052 285.609 126.536C285.115 126.022 284.401 125.764 283.464 125.764H279.208V128.188H277.591V123.13H287.577V125.166L285.678 125.307C285.819 125.378 285.954 125.454 286.083 125.535C286.212 125.617 286.323 125.694 286.417 125.764C286.863 126.068 287.232 126.502 287.525 127.064C287.818 127.626 287.964 128.363 287.964 129.277ZM287.577 119.545H266.794V112.731C266.794 111.489 267.081 110.512 267.655 109.797C268.23 109.083 269.103 108.725 270.276 108.725H273.581C274.776 108.725 275.714 109.066 276.395 109.744C277.075 110.423 277.438 111.372 277.484 112.59C277.532 111.817 277.79 111.249 278.258 110.886C278.728 110.524 279.454 110.201 280.439 109.92L287.577 107.847V110.798L280.615 112.59C280.192 112.707 279.794 112.848 279.419 113.011C279.044 113.176 278.744 113.374 278.522 113.609C278.299 113.843 278.188 114.159 278.188 114.558V116.735H287.577V119.545ZM276.289 116.735V113.996C276.289 113.128 276.078 112.479 275.656 112.046C275.234 111.612 274.508 111.396 273.476 111.396H270.732C269.889 111.396 269.28 111.601 268.903 112.01C268.528 112.421 268.341 112.918 268.341 113.503V116.735H276.289ZM288 99.8732C288 100.927 287.877 101.852 287.63 102.649C287.384 103.444 286.874 104.077 286.101 104.546C285.327 105.013 284.166 105.247 282.619 105.247H271.155C269.865 105.247 268.887 105.013 268.218 104.546C267.55 104.077 267.099 103.438 266.865 102.631C266.629 101.823 266.512 100.892 266.512 99.8374C266.512 98.7838 266.635 97.8532 266.881 97.0454C267.129 96.2364 267.579 95.5992 268.236 95.1303C268.893 94.6626 269.865 94.4275 271.155 94.4275H282.619C284.19 94.4275 285.357 94.6626 286.118 95.1303C286.88 95.5992 287.384 96.2424 287.63 97.0621C287.877 97.8818 288 98.8185 288 99.8732ZM286.347 99.8732C286.347 99.3339 286.276 98.8602 286.135 98.4498C285.995 98.0405 285.72 97.7183 285.309 97.4845C284.899 97.2494 284.284 97.1325 283.464 97.1325H271.084C270.288 97.1325 269.683 97.2494 269.274 97.4845C268.863 97.7183 268.587 98.0405 268.447 98.4498C268.306 98.8602 268.236 99.3339 268.236 99.8732C268.236 100.411 268.306 100.88 268.447 101.278C268.587 101.676 268.863 101.992 269.274 102.226C269.683 102.461 270.288 102.578 271.084 102.578H283.464C284.284 102.578 284.899 102.461 285.309 102.226C285.72 101.992 285.995 101.676 286.135 101.278C286.276 100.88 286.347 100.411 286.347 99.8732ZM288 85.5049C288 86.2542 287.941 86.957 287.823 87.6121C287.706 88.2683 287.478 88.8363 287.138 89.3159C286.798 89.7968 286.294 90.1774 285.625 90.4578C284.958 90.7394 284.061 90.8802 282.936 90.8802H266.794V88.1394H283.569C284.319 88.1394 284.887 88.0165 285.274 87.7708C285.661 87.525 285.924 87.2028 286.065 86.8043C286.206 86.4069 286.276 85.9726 286.276 85.5049C286.276 85.036 286.206 84.5969 286.065 84.1876C285.924 83.7772 285.661 83.4502 285.274 83.2032C284.887 82.9574 284.319 82.8345 283.569 82.8345H266.794V80.1654H282.936C284.037 80.1654 284.928 80.3002 285.609 80.5687C286.288 80.8384 286.798 81.213 287.138 81.6927C287.478 82.1735 287.706 82.7415 287.823 83.3965C287.941 84.0528 288 84.7556 288 85.5049ZM287.577 76.2649H266.794V69.5556C266.794 68.3147 267.081 67.3363 267.655 66.6227C268.23 65.908 269.103 65.5513 270.276 65.5513H274.038C274.859 65.5513 275.633 65.6622 276.359 65.8842C277.087 66.1073 277.672 66.5345 278.117 67.1668C278.563 67.7992 278.786 68.712 278.786 69.9064V73.4203H287.577V76.2649ZM277.204 73.4203V70.7858C277.204 69.9422 276.922 69.3098 276.359 68.8886C275.797 68.4662 274.905 68.2562 273.687 68.2562H271.365C270.311 68.2562 269.542 68.4495 269.062 68.8349C268.582 69.2215 268.341 69.7083 268.341 70.293V73.4203H277.204Z" fill="black"/>
</g>
<g filter="url(#filter2_b_804_74)">
<path fill-rule="evenodd" clip-rule="evenodd" d="M124.025 108.249L53.0151 197.446L115.911 96.2313L83.2557 47.725H103.726L126.88 82.0983L192.238 0L134.346 93.1818L173.793 151.742H153.323L124.025 108.249Z" fill="black" fill-opacity="0.32"/>
</g>
<defs>
<filter id="filter0_b_804_74" x="-25" y="40.3772" width="308.674" height="118.88" filterUnits="userSpaceOnUse" color-interpolation-filters="sRGB">
<feFlood flood-opacity="0" result="BackgroundImageFix"/>
<feGaussianBlur in="BackgroundImageFix" stdDeviation="12.5"/>
<feComposite in2="SourceAlpha" operator="in" result="effect1_backgroundBlur_804_74"/>
<feBlend mode="normal" in="SourceGraphic" in2="effect1_backgroundBlur_804_74" result="shape"/>
</filter>
<filter id="filter1_b_804_74" x="241.512" y="40.5513" width="71.4878" height="118.398" filterUnits="userSpaceOnUse" color-interpolation-filters="sRGB">
<feFlood flood-opacity="0" result="BackgroundImageFix"/>
<feGaussianBlur in="BackgroundImageFix" stdDeviation="12.5"/>
<feComposite in2="SourceAlpha" operator="in" result="effect1_backgroundBlur_804_74"/>
<feBlend mode="normal" in="SourceGraphic" in2="effect1_backgroundBlur_804_74" result="shape"/>
</filter>
<filter id="filter2_b_804_74" x="28.0151" y="-25" width="189.223" height="247.446" filterUnits="userSpaceOnUse" color-interpolation-filters="sRGB">
<feFlood flood-opacity="0" result="BackgroundImageFix"/>
<feGaussianBlur in="BackgroundImageFix" stdDeviation="12.5"/>
<feComposite in2="SourceAlpha" operator="in" result="effect1_backgroundBlur_804_74"/>
<feBlend mode="normal" in="SourceGraphic" in2="effect1_backgroundBlur_804_74" result="shape"/>
</filter>
</defs>
</svg>
