<svg width="1168" height="900" viewBox="0 0 1168 900" fill="none" xmlns="http://www.w3.org/2000/svg">
<g filter="url(#filter0_b_302_93)">
<ellipse cx="878.5" cy="188" rx="180.5" ry="180" fill="white" fill-opacity="0.4"/>
</g>
<circle cx="184" cy="184" r="183.5" transform="matrix(-1 0 0 1 1066 8)" stroke="url(#paint0_linear_302_93)"/>
<circle cx="184" cy="184" r="183.5" transform="matrix(-1 0 0 1 1045 0)" stroke="url(#paint1_linear_302_93)"/>
<g filter="url(#filter1_d_302_93)">
<path d="M761.3 174V99.6H805.3V174H785.3V117.5H781.3V174H761.3ZM837.382 146.5H827.882V174H807.982V99.6H837.182C841.515 99.6 844.982 100.867 847.582 103.4C850.182 105.867 851.482 109.733 851.482 115V130.8C851.482 135.8 850.149 139.667 847.482 142.4C844.815 145.133 841.449 146.5 837.382 146.5ZM827.882 114.3V131.1H829.282C830.215 131.1 830.815 130.9 831.082 130.5C831.415 130.033 831.582 129.233 831.582 128.1V117.2C831.582 116.133 831.415 115.4 831.082 115C830.815 114.533 830.215 114.3 829.282 114.3H827.882ZM874.281 174L873.381 164.8H866.081L865.181 174H847.981L857.681 99.6H882.781L893.581 174H874.281ZM869.681 128.5L867.781 148.1H871.681L869.681 128.5ZM919.51 174V139.7L912.21 174H894.21V99.6H912.21V133.8L919.51 99.6H937.51V174H919.51ZM916.41 98H915.91C911.51 98 908.11 96.8333 905.71 94.5C903.377 92.1667 902.21 89.2 902.21 85.6V84.5H913.71V85.4C913.71 87.2 914.51 88.1 916.11 88.1H916.21C917.877 88.1 918.71 87.2 918.71 85.4V84.5H930.11V85.6C930.11 89.2 928.91 92.1667 926.51 94.5C924.177 96.8333 920.81 98 916.41 98ZM964.809 155V141.8H984.409V155.7C984.409 161.167 982.742 165.767 979.409 169.5C976.142 173.233 971.175 175.1 964.509 175.1H961.209C947.142 175.1 940.109 167.8 940.109 153.2V119.9C940.109 113.3 941.809 108.1 945.209 104.3C948.609 100.433 953.909 98.5 961.109 98.5H964.409C971.075 98.5 976.075 100.133 979.409 103.4C982.742 106.667 984.409 111.2 984.409 117V128.9H964.809V117.8C964.809 115.8 964.142 114.8 962.809 114.8C961.475 114.8 960.809 115.8 960.809 117.8V155C960.809 157.2 961.475 158.3 962.809 158.3C964.142 158.3 964.809 157.2 964.809 155ZM787 266V209.5H783C783 229.233 782.833 241.733 782.5 247C781.967 254.467 780.333 259.5 777.6 262.1C774.867 264.7 770.1 266 763.3 266H760.5V247.5H761.3C762.567 247.5 763.433 247.133 763.9 246.4C764.367 245.667 764.667 244.367 764.8 242.5C765.267 233.5 765.5 216.533 765.5 191.6H807V266H787ZM834.94 266V231.7L827.64 266H809.64V191.6H827.64V225.8L834.94 191.6H852.94V266H834.94ZM880.238 247V233.8H899.838V247.7C899.838 253.167 898.172 257.767 894.838 261.5C891.572 265.233 886.605 267.1 879.938 267.1H876.638C862.572 267.1 855.538 259.8 855.538 245.2V211.9C855.538 205.3 857.238 200.1 860.638 196.3C864.038 192.433 869.338 190.5 876.538 190.5H879.838C886.505 190.5 891.505 192.133 894.838 195.4C898.172 198.667 899.838 203.2 899.838 209V220.9H880.238V209.8C880.238 207.8 879.572 206.8 878.238 206.8C876.905 206.8 876.238 207.8 876.238 209.8V247C876.238 249.2 876.905 250.3 878.238 250.3C879.572 250.3 880.238 249.2 880.238 247ZM901.332 191.6H939.232V209.5H930.232V266H910.332V209.5H901.332V191.6Z" fill="white"/>
</g>
<g filter="url(#filter2_b_302_93)">
<ellipse cx="781.5" cy="524" rx="224.5" ry="224" fill="white" fill-opacity="0.4"/>
</g>
<circle cx="229" cy="229" r="228.5" transform="matrix(-1 0 0 1 1015 300)" stroke="url(#paint2_linear_302_93)"/>
<circle cx="229" cy="229" r="228.5" transform="matrix(-1 0 0 1 989 290)" stroke="url(#paint3_linear_302_93)"/>
<g filter="url(#filter3_d_302_93)">
<path d="M645.3 497V422.6H679.1V440.5H664.8V497H645.3ZM710.835 469.5H701.335V497H681.435V422.6H710.635C714.968 422.6 718.435 423.867 721.035 426.4C723.635 428.867 724.935 432.733 724.935 438V453.8C724.935 458.8 723.602 462.667 720.935 465.4C718.268 468.133 714.902 469.5 710.835 469.5ZM701.335 437.3V454.1H702.735C703.668 454.1 704.268 453.9 704.535 453.5C704.868 453.033 705.035 452.233 705.035 451.1V440.2C705.035 439.133 704.868 438.4 704.535 438C704.268 437.533 703.668 437.3 702.735 437.3H701.335ZM747.734 497L746.834 487.8H739.534L738.634 497H721.434L731.134 422.6H756.234L767.034 497H747.734ZM743.134 451.5L741.234 471.1H745.134L743.134 451.5ZM789.494 421.6H809.494V427.8H818.594C822.927 427.8 826.394 429.067 828.994 431.6C831.594 434.067 832.894 437.933 832.894 443.2V474.8C832.894 479.8 831.56 483.667 828.894 486.4C826.227 489.133 822.86 490.5 818.794 490.5H809.494V498H789.494V490.5H780.194C776.127 490.5 772.76 489.133 770.094 486.4C767.427 483.667 766.094 479.8 766.094 474.8V443.2C766.094 438 767.36 434.133 769.894 431.6C772.494 429.067 775.994 427.8 780.394 427.8H789.494V421.6ZM789.494 442.5H788.294C787.36 442.5 786.727 442.733 786.394 443.2C786.127 443.6 785.994 444.333 785.994 445.4V472.1C785.994 473.233 786.127 474.033 786.394 474.5C786.727 474.9 787.36 475.1 788.294 475.1H789.494V442.5ZM809.494 442.5V475.1H810.694C811.627 475.1 812.227 474.9 812.494 474.5C812.827 474.033 812.994 473.233 812.994 472.1V445.4C812.994 444.333 812.827 443.6 812.494 443.2C812.227 442.733 811.627 442.5 810.694 442.5H809.494ZM860.541 497V462.7L853.241 497H835.241V422.6H853.241V456.8L860.541 422.6H878.541V497H860.541ZM906.94 497L901.14 469.7V497H881.14V422.6H901.14V446.5L907.74 422.6H927.64L918.14 455L927.74 497H906.94ZM674.8 561.5H665.3V589H645.4V514.6H674.6C678.933 514.6 682.4 515.867 685 518.4C687.6 520.867 688.9 524.733 688.9 530V545.8C688.9 550.8 687.567 554.667 684.9 557.4C682.233 560.133 678.867 561.5 674.8 561.5ZM665.3 529.3V546.1H666.7C667.633 546.1 668.233 545.9 668.5 545.5C668.833 545.033 669 544.233 669 543.1V532.2C669 531.133 668.833 530.4 668.5 530C668.233 529.533 667.633 529.3 666.7 529.3H665.3ZM711.699 589L710.799 579.8H703.499L702.599 589H685.399L695.099 514.6H720.199L730.999 589H711.699ZM707.099 543.5L705.199 563.1H709.099L707.099 543.5ZM731.528 589V514.6H770.628V532.5H751.428V541.6H760.928C764.995 541.6 768.361 542.967 771.028 545.7C773.695 548.433 775.028 552.3 775.028 557.3V573.6C775.028 578.867 773.728 582.767 771.128 585.3C768.528 587.767 765.061 589 760.728 589H731.528ZM751.428 574.3H752.828C753.761 574.3 754.361 574.1 754.628 573.7C754.961 573.233 755.128 572.467 755.128 571.4V560C755.128 558.867 754.961 558.1 754.628 557.7C754.361 557.233 753.761 557 752.828 557H751.428V574.3ZM822.941 536.7V567.6C822.941 574.8 821.007 580.367 817.141 584.3C813.274 588.167 808.141 590.1 801.741 590.1H798.241C791.374 590.1 786.107 588.167 782.441 584.3C778.774 580.433 776.941 574.867 776.941 567.6V536.7C776.941 521.233 784.041 513.5 798.241 513.5H801.641C808.841 513.5 814.174 515.567 817.641 519.7C821.174 523.767 822.941 529.433 822.941 536.7ZM802.341 569.4V534.3C802.341 532.033 801.541 530.9 799.941 530.9C798.407 530.9 797.641 532.033 797.641 534.3V569.4C797.641 571.467 798.407 572.5 799.941 572.5C801.541 572.5 802.341 571.467 802.341 569.4ZM824.297 514.6H862.197V532.5H853.197V589H833.297V532.5H824.297V514.6ZM883.85 540.6H893.35C897.417 540.6 900.783 541.967 903.45 544.7C906.117 547.433 907.45 551.3 907.45 556.3V573.6C907.45 578.867 906.15 582.767 903.55 585.3C900.95 587.767 897.483 589 893.15 589H863.95V514.6H883.85V540.6ZM883.85 574.3H885.25C886.183 574.3 886.783 574.1 887.05 573.7C887.383 573.233 887.55 572.467 887.55 571.4V559C887.55 557.867 887.383 557.1 887.05 556.7C886.783 556.233 886.183 556 885.25 556H883.85V574.3ZM929.65 514.6V589H909.65V514.6H929.65Z" fill="white"/>
</g>
<g filter="url(#filter4_b_302_93)">
<ellipse cx="294.627" cy="624.293" rx="264.244" ry="263.324" fill="white" fill-opacity="0.4"/>
</g>
<circle cx="269.308" cy="269.308" r="268.808" transform="matrix(-1 0 0 1 569 360.969)" stroke="url(#paint4_linear_302_93)"/>
<circle cx="269.308" cy="269.308" r="268.808" transform="matrix(-1 0 0 1 538.617 349)" stroke="url(#paint5_linear_302_93)"/>
<g filter="url(#filter5_d_302_93)">
<path d="M85.3 656V581.6H129.3V656H109.3V599.5H105.3V656H85.3ZM177.882 603.7V634.6C177.882 641.8 175.949 647.367 172.082 651.3C168.215 655.167 163.082 657.1 156.682 657.1H153.182C146.315 657.1 141.049 655.167 137.382 651.3C133.715 647.433 131.882 641.867 131.882 634.6V603.7C131.882 588.233 138.982 580.5 153.182 580.5H156.582C163.782 580.5 169.115 582.567 172.582 586.7C176.115 590.767 177.882 596.433 177.882 603.7ZM157.282 636.4V601.3C157.282 599.033 156.482 597.9 154.882 597.9C153.349 597.9 152.582 599.033 152.582 601.3V636.4C152.582 638.467 153.349 639.5 154.882 639.5C156.482 639.5 157.282 638.467 157.282 636.4ZM209.624 628.5H200.124V656H180.224V581.6H209.424C213.758 581.6 217.224 582.867 219.824 585.4C222.424 587.867 223.724 591.733 223.724 597V612.8C223.724 617.8 222.391 621.667 219.724 624.4C217.058 627.133 213.691 628.5 209.624 628.5ZM200.124 596.3V613.1H201.524C202.458 613.1 203.058 612.9 203.324 612.5C203.658 612.033 203.824 611.233 203.824 610.1V599.2C203.824 598.133 203.658 597.4 203.324 597C203.058 596.533 202.458 596.3 201.524 596.3H200.124ZM225.332 581.6H263.232V599.5H254.232V656H234.332V599.5H225.332V581.6ZM287.599 580.6H307.599V586.8H316.699C321.033 586.8 324.499 588.067 327.099 590.6C329.699 593.067 330.999 596.933 330.999 602.2V633.8C330.999 638.8 329.666 642.667 326.999 645.4C324.333 648.133 320.966 649.5 316.899 649.5H307.599V657H287.599V649.5H278.299C274.233 649.5 270.866 648.133 268.199 645.4C265.533 642.667 264.199 638.8 264.199 633.8V602.2C264.199 597 265.466 593.133 267.999 590.6C270.599 588.067 274.099 586.8 278.499 586.8H287.599V580.6ZM287.599 601.5H286.399C285.466 601.5 284.833 601.733 284.499 602.2C284.233 602.6 284.099 603.333 284.099 604.4V631.1C284.099 632.233 284.233 633.033 284.499 633.5C284.833 633.9 285.466 634.1 286.399 634.1H287.599V601.5ZM307.599 601.5V634.1H308.799C309.733 634.1 310.333 633.9 310.599 633.5C310.933 633.033 311.099 632.233 311.099 631.1V604.4C311.099 603.333 310.933 602.6 310.599 602.2C310.333 601.733 309.733 601.5 308.799 601.5H307.599ZM379.347 603.7V634.6C379.347 641.8 377.414 647.367 373.547 651.3C369.68 655.167 364.547 657.1 358.147 657.1H354.647C347.78 657.1 342.514 655.167 338.847 651.3C335.18 647.433 333.347 641.867 333.347 634.6V603.7C333.347 588.233 340.447 580.5 354.647 580.5H358.047C365.247 580.5 370.58 582.567 374.047 586.7C377.58 590.767 379.347 596.433 379.347 603.7ZM358.747 636.4V601.3C358.747 599.033 357.947 597.9 356.347 597.9C354.814 597.9 354.047 599.033 354.047 601.3V636.4C354.047 638.467 354.814 639.5 356.347 639.5C357.947 639.5 358.747 638.467 358.747 636.4ZM407.289 656V599.5H403.289C403.289 619.233 403.122 631.733 402.789 637C402.256 644.467 400.622 649.5 397.889 652.1C395.156 654.7 390.389 656 383.589 656H380.789V637.5H381.589C382.856 637.5 383.722 637.133 384.189 636.4C384.656 635.667 384.956 634.367 385.089 632.5C385.556 623.5 385.789 606.533 385.789 581.6H427.289V656H407.289ZM455.229 656V621.7L447.929 656H429.929V581.6H447.929V615.8L455.229 581.6H473.229V656H455.229ZM521.827 603.7V634.6C521.827 641.8 519.894 647.367 516.027 651.3C512.161 655.167 507.027 657.1 500.627 657.1H497.127C490.261 657.1 484.994 655.167 481.327 651.3C477.661 647.433 475.827 641.867 475.827 634.6V603.7C475.827 588.233 482.927 580.5 497.127 580.5H500.527C507.727 580.5 513.061 582.567 516.527 586.7C520.061 590.767 521.827 596.433 521.827 603.7ZM501.227 636.4V601.3C501.227 599.033 500.427 597.9 498.827 597.9C497.294 597.9 496.527 599.033 496.527 601.3V636.4C496.527 638.467 497.294 639.5 498.827 639.5C500.427 639.5 501.227 638.467 501.227 636.4Z" fill="white"/>
</g>
<g filter="url(#filter6_b_302_93)">
<ellipse cx="415.627" cy="283.293" rx="264.244" ry="263.324" fill="white" fill-opacity="0.4"/>
</g>
<circle cx="269.308" cy="269.308" r="268.808" transform="matrix(-1 0 0 1 690 19.9692)" stroke="url(#paint6_linear_302_93)"/>
<circle cx="269.308" cy="269.308" r="268.808" transform="matrix(-1 0 0 1 659.617 8)" stroke="url(#paint7_linear_302_93)"/>
<g filter="url(#filter7_d_302_93)">
<path d="M250.501 208.4L230.551 307.55C229.651 312.15 227.901 315.4 225.301 317.3C222.801 319.1 220.051 320 217.051 320H193.501V296.75H201.151C202.151 296.75 202.801 296.6 203.101 296.3C203.401 295.9 203.601 295.2 203.701 294.2V293.6C203.701 291.9 203.301 289.5 202.501 286.4L185.551 208.4H214.651L219.001 251.15L222.001 208.4H250.501ZM293.281 291.5V271.7H322.681V292.55C322.681 300.75 320.181 307.65 315.181 313.25C310.281 318.85 302.831 321.65 292.831 321.65H287.881C266.781 321.65 256.231 310.7 256.231 288.8V238.85C256.231 228.95 258.781 221.15 263.881 215.45C268.981 209.65 276.931 206.75 287.731 206.75H292.681C302.681 206.75 310.181 209.2 315.181 214.1C320.181 219 322.681 225.8 322.681 234.5V252.35H293.281V235.7C293.281 232.7 292.281 231.2 290.281 231.2C288.281 231.2 287.281 232.7 287.281 235.7V291.5C287.281 294.8 288.281 296.45 290.281 296.45C292.281 296.45 293.281 294.8 293.281 291.5ZM371.111 320V235.25H365.111C365.111 264.85 364.861 283.6 364.361 291.5C363.561 302.7 361.111 310.25 357.011 314.15C352.911 318.05 345.761 320 335.561 320H331.361V292.25H332.561C334.461 292.25 335.761 291.7 336.461 290.6C337.161 289.5 337.611 287.55 337.811 284.75C338.511 271.25 338.861 245.8 338.861 208.4H401.111V320H371.111ZM474.071 208.4L454.121 307.55C453.221 312.15 451.471 315.4 448.871 317.3C446.371 319.1 443.621 320 440.621 320H417.071V296.75H424.721C425.721 296.75 426.371 296.6 426.671 296.3C426.971 295.9 427.171 295.2 427.271 294.2V293.6C427.271 291.9 426.871 289.5 426.071 286.4L409.121 208.4H438.221L442.571 251.15L445.571 208.4H474.071ZM481.999 320V208.4H532.699V235.25H511.249V320H481.999ZM580.752 320V268.55L569.802 320H542.802V208.4H569.802V259.7L580.752 208.4H607.752V320H580.752Z" fill="white" fill-opacity="0.95" shape-rendering="crispEdges"/>
</g>
<defs>
<filter id="filter0_b_302_93" x="694" y="4" width="369" height="368" filterUnits="userSpaceOnUse" color-interpolation-filters="sRGB">
<feFlood flood-opacity="0" result="BackgroundImageFix"/>
<feGaussianBlur in="BackgroundImageFix" stdDeviation="2"/>
<feComposite in2="SourceAlpha" operator="in" result="effect1_backgroundBlur_302_93"/>
<feBlend mode="normal" in="SourceGraphic" in2="effect1_backgroundBlur_302_93" result="shape"/>
</filter>
<filter id="filter1_d_302_93" x="735.5" y="59.5" width="273.908" height="232.6" filterUnits="userSpaceOnUse" color-interpolation-filters="sRGB">
<feFlood flood-opacity="0" result="BackgroundImageFix"/>
<feColorMatrix in="SourceAlpha" type="matrix" values="0 0 0 0 0 0 0 0 0 0 0 0 0 0 0 0 0 0 127 0" result="hardAlpha"/>
<feOffset/>
<feGaussianBlur stdDeviation="12.5"/>
<feComposite in2="hardAlpha" operator="out"/>
<feColorMatrix type="matrix" values="0 0 0 0 0.8125 0 0 0 0 0.789028 0 0 0 0 0.758333 0 0 0 1 0"/>
<feBlend mode="normal" in2="BackgroundImageFix" result="effect1_dropShadow_302_93"/>
<feBlend mode="normal" in="SourceGraphic" in2="effect1_dropShadow_302_93" result="shape"/>
</filter>
<filter id="filter2_b_302_93" x="553" y="296" width="457" height="456" filterUnits="userSpaceOnUse" color-interpolation-filters="sRGB">
<feFlood flood-opacity="0" result="BackgroundImageFix"/>
<feGaussianBlur in="BackgroundImageFix" stdDeviation="2"/>
<feComposite in2="SourceAlpha" operator="in" result="effect1_backgroundBlur_302_93"/>
<feBlend mode="normal" in="SourceGraphic" in2="effect1_backgroundBlur_302_93" result="shape"/>
</filter>
<filter id="filter3_d_302_93" x="620.301" y="396.6" width="334.35" height="218.5" filterUnits="userSpaceOnUse" color-interpolation-filters="sRGB">
<feFlood flood-opacity="0" result="BackgroundImageFix"/>
<feColorMatrix in="SourceAlpha" type="matrix" values="0 0 0 0 0 0 0 0 0 0 0 0 0 0 0 0 0 0 127 0" result="hardAlpha"/>
<feOffset/>
<feGaussianBlur stdDeviation="12.5"/>
<feComposite in2="hardAlpha" operator="out"/>
<feColorMatrix type="matrix" values="0 0 0 0 0.8125 0 0 0 0 0.789028 0 0 0 0 0.758333 0 0 0 1 0"/>
<feBlend mode="normal" in2="BackgroundImageFix" result="effect1_dropShadow_302_93"/>
<feBlend mode="normal" in="SourceGraphic" in2="effect1_dropShadow_302_93" result="shape"/>
</filter>
<filter id="filter4_b_302_93" x="26.3828" y="356.969" width="536.488" height="534.647" filterUnits="userSpaceOnUse" color-interpolation-filters="sRGB">
<feFlood flood-opacity="0" result="BackgroundImageFix"/>
<feGaussianBlur in="BackgroundImageFix" stdDeviation="2"/>
<feComposite in2="SourceAlpha" operator="in" result="effect1_backgroundBlur_302_93"/>
<feBlend mode="normal" in="SourceGraphic" in2="effect1_backgroundBlur_302_93" result="shape"/>
</filter>
<filter id="filter5_d_302_93" x="60.3008" y="555.5" width="486.527" height="126.6" filterUnits="userSpaceOnUse" color-interpolation-filters="sRGB">
<feFlood flood-opacity="0" result="BackgroundImageFix"/>
<feColorMatrix in="SourceAlpha" type="matrix" values="0 0 0 0 0 0 0 0 0 0 0 0 0 0 0 0 0 0 127 0" result="hardAlpha"/>
<feOffset/>
<feGaussianBlur stdDeviation="12.5"/>
<feComposite in2="hardAlpha" operator="out"/>
<feColorMatrix type="matrix" values="0 0 0 0 0.8125 0 0 0 0 0.789028 0 0 0 0 0.758333 0 0 0 1 0"/>
<feBlend mode="normal" in2="BackgroundImageFix" result="effect1_dropShadow_302_93"/>
<feBlend mode="normal" in="SourceGraphic" in2="effect1_dropShadow_302_93" result="shape"/>
</filter>
<filter id="filter6_b_302_93" x="147.383" y="15.9692" width="536.488" height="534.647" filterUnits="userSpaceOnUse" color-interpolation-filters="sRGB">
<feFlood flood-opacity="0" result="BackgroundImageFix"/>
<feGaussianBlur in="BackgroundImageFix" stdDeviation="2"/>
<feComposite in2="SourceAlpha" operator="in" result="effect1_backgroundBlur_302_93"/>
<feBlend mode="normal" in="SourceGraphic" in2="effect1_backgroundBlur_302_93" result="shape"/>
</filter>
<filter id="filter7_d_302_93" x="125.551" y="150.75" width="542.201" height="234.9" filterUnits="userSpaceOnUse" color-interpolation-filters="sRGB">
<feFlood flood-opacity="0" result="BackgroundImageFix"/>
<feColorMatrix in="SourceAlpha" type="matrix" values="0 0 0 0 0 0 0 0 0 0 0 0 0 0 0 0 0 0 127 0" result="hardAlpha"/>
<feOffset dy="4"/>
<feGaussianBlur stdDeviation="30"/>
<feComposite in2="hardAlpha" operator="out"/>
<feColorMatrix type="matrix" values="0 0 0 0 0 0 0 0 0 0 0 0 0 0 0 0 0 0 0.15 0"/>
<feBlend mode="normal" in2="BackgroundImageFix" result="effect1_dropShadow_302_93"/>
<feBlend mode="normal" in="SourceGraphic" in2="effect1_dropShadow_302_93" result="shape"/>
</filter>
<linearGradient id="paint0_linear_302_93" x1="273.985" y1="16.1168" x2="184" y2="368" gradientUnits="userSpaceOnUse">
<stop stop-color="#F3E9DD"/>
<stop offset="1" stop-color="white"/>
</linearGradient>
<linearGradient id="paint1_linear_302_93" x1="273.985" y1="16.1168" x2="184" y2="368" gradientUnits="userSpaceOnUse">
<stop stop-color="#F3E9DD"/>
<stop offset="1" stop-color="white"/>
</linearGradient>
<linearGradient id="paint2_linear_302_93" x1="340.993" y1="20.0584" x2="229" y2="458" gradientUnits="userSpaceOnUse">
<stop stop-color="#F3E9DD"/>
<stop offset="1" stop-color="white"/>
</linearGradient>
<linearGradient id="paint3_linear_302_93" x1="340.993" y1="20.0584" x2="229" y2="458" gradientUnits="userSpaceOnUse">
<stop stop-color="#F3E9DD"/>
<stop offset="1" stop-color="white"/>
</linearGradient>
<linearGradient id="paint4_linear_302_93" x1="401.014" y1="23.589" x2="269.308" y2="538.617" gradientUnits="userSpaceOnUse">
<stop stop-color="#F3E9DD"/>
<stop offset="1" stop-color="white"/>
</linearGradient>
<linearGradient id="paint5_linear_302_93" x1="401.014" y1="23.589" x2="269.308" y2="538.617" gradientUnits="userSpaceOnUse">
<stop stop-color="#F3E9DD"/>
<stop offset="1" stop-color="white"/>
</linearGradient>
<linearGradient id="paint6_linear_302_93" x1="401.014" y1="23.589" x2="269.308" y2="538.617" gradientUnits="userSpaceOnUse">
<stop stop-color="#F3E9DD"/>
<stop offset="1" stop-color="white"/>
</linearGradient>
<linearGradient id="paint7_linear_302_93" x1="401.014" y1="23.589" x2="269.308" y2="538.617" gradientUnits="userSpaceOnUse">
<stop stop-color="#F3E9DD"/>
<stop offset="1" stop-color="white"/>
</linearGradient>
</defs>
</svg>
