<svg width="797" height="487" viewBox="0 0 797 487" fill="none" xmlns="http://www.w3.org/2000/svg">
<g filter="url(#filter0_b_408_2)">
<rect x="74" width="648.598" height="78" rx="39" fill="white" fill-opacity="0.2"/>
</g>
<g filter="url(#filter1_b_408_2)">
<rect x="74" y="98" width="648.598" height="78" rx="39" fill="white" fill-opacity="0.2"/>
</g>
<g filter="url(#filter2_b_408_2)">
<rect x="74" y="196" width="648.598" height="78" rx="39" fill="white" fill-opacity="0.2"/>
</g>
<path d="M125.41 49V30.94L112.99 49H111.61V28H113.2V46.06L125.59 28H127V49H125.41ZM151.196 28V49H149.606V30.34L141.836 43.24H141.566L133.796 30.34V49H132.206V28H134.186L141.686 40.42L149.186 28H151.196ZM169.995 28V49H168.405V40.39H162.645L156.705 49H154.905L160.875 40.33C159.355 40.13 158.075 39.45 157.035 38.29C156.015 37.13 155.505 35.77 155.505 34.21C155.505 32.49 156.105 31.03 157.305 29.83C158.525 28.61 159.985 28 161.685 28H169.995ZM161.685 38.89H168.405V29.5H161.685C160.425 29.5 159.345 29.96 158.445 30.88C157.545 31.8 157.095 32.91 157.095 34.21C157.095 35.49 157.545 36.59 158.445 37.51C159.345 38.43 160.425 38.89 161.685 38.89Z" fill="white"/>
<path d="M124.51 126V127.5H117.91V147H116.29V127.5H109.69V126H124.51ZM129.401 145.5H139.901V147H127.811V126H139.751V127.5H129.401V135.66H139.001V137.16H129.401V145.5ZM141.737 147V145.59C143.217 145.77 144.337 145.3 145.097 144.18C145.877 143.04 146.267 141.01 146.267 138.09V126H159.557V147H157.937V127.5H147.857V138.12C147.857 141.48 147.337 143.85 146.297 145.23C145.277 146.59 143.757 147.18 141.737 147ZM166.345 145.5H176.845V147H164.755V126H176.695V127.5H166.345V135.66H175.945V137.16H166.345V145.5ZM198.421 130.65C200.321 132.05 201.271 134 201.271 136.5C201.271 139 200.321 140.96 198.421 142.38C196.541 143.78 194.071 144.53 191.011 144.63V147H189.391V144.63C186.331 144.53 183.851 143.78 181.951 142.38C180.071 140.96 179.131 139 179.131 136.5C179.131 134 180.071 132.05 181.951 130.65C183.851 129.23 186.331 128.47 189.391 128.37V126H191.011V128.37C194.071 128.47 196.541 129.23 198.421 130.65ZM183.061 131.7C181.521 132.84 180.751 134.44 180.751 136.5C180.751 138.56 181.521 140.16 183.061 141.3C184.621 142.44 186.731 143.06 189.391 143.16V129.84C186.731 129.94 184.621 130.56 183.061 131.7ZM191.011 143.16C193.671 143.06 195.771 142.44 197.311 141.3C198.871 140.16 199.651 138.56 199.651 136.5C199.651 134.44 198.871 132.84 197.311 131.7C195.771 130.56 193.671 129.94 191.011 129.84V143.16ZM222.172 144.18C220.072 146.28 217.512 147.33 214.492 147.33C211.472 147.33 208.912 146.28 206.812 144.18C204.712 142.06 203.662 139.5 203.662 136.5C203.662 133.5 204.712 130.95 206.812 128.85C208.912 126.73 211.472 125.67 214.492 125.67C217.512 125.67 220.072 126.73 222.172 128.85C224.272 130.95 225.322 133.5 225.322 136.5C225.322 139.5 224.272 142.06 222.172 144.18ZM207.922 143.1C209.722 144.9 211.912 145.8 214.492 145.8C217.072 145.8 219.252 144.9 221.032 143.1C222.832 141.28 223.732 139.08 223.732 136.5C223.732 133.92 222.832 131.73 221.032 129.93C219.252 128.11 217.072 127.2 214.492 127.2C211.912 127.2 209.722 128.11 207.922 129.93C206.142 131.73 205.252 133.92 205.252 136.5C205.252 139.08 206.142 141.28 207.922 143.1ZM243.154 126H244.744V147H243.154V136.95H230.944V147H229.354V126H230.944V135.45H243.154V126Z" fill="white"/>
<path d="M125.86 245H123.73L113.2 234.65V245H111.61V224H113.2V233.78L123.43 224H125.56L114.94 234.2L125.86 245ZM144.301 242.18C142.201 244.28 139.641 245.33 136.621 245.33C133.601 245.33 131.041 244.28 128.941 242.18C126.841 240.06 125.791 237.5 125.791 234.5C125.791 231.5 126.841 228.95 128.941 226.85C131.041 224.73 133.601 223.67 136.621 223.67C139.641 223.67 142.201 224.73 144.301 226.85C146.401 228.95 147.451 231.5 147.451 234.5C147.451 237.5 146.401 240.06 144.301 242.18ZM130.051 241.1C131.851 242.9 134.041 243.8 136.621 243.8C139.201 243.8 141.381 242.9 143.161 241.1C144.961 239.28 145.861 237.08 145.861 234.5C145.861 231.92 144.961 229.73 143.161 227.93C141.381 226.11 139.201 225.2 136.621 225.2C134.041 225.2 131.851 226.11 130.051 227.93C128.271 229.73 127.381 231.92 127.381 234.5C127.381 237.08 128.271 239.28 130.051 241.1ZM170.473 224V245H168.883V226.34L161.113 239.24H160.843L153.073 226.34V245H151.483V224H153.463L160.963 236.42L168.463 224H170.473ZM194.672 224V245H193.082V226.34L185.312 239.24H185.042L177.272 226.34V245H175.682V224H177.662L185.162 236.42L192.662 224H194.672ZM201.471 243.5H211.971V245H199.881V224H211.821V225.5H201.471V233.66H211.071V235.16H201.471V243.5ZM229.678 224H231.268V245H229.678V234.95H217.468V245H215.878V224H217.468V233.45H229.678V224ZM249.373 224V225.5H242.773V245H241.153V225.5H234.553V224H249.373ZM265.31 245L263.27 239.66H252.74L250.7 245H249.02L257.18 224H258.86L266.99 245H265.31ZM253.34 238.16H262.7L258.02 225.95L253.34 238.16ZM277.188 224C279.068 224 280.628 224.62 281.868 225.86C283.108 227.1 283.728 228.65 283.728 230.51C283.728 232.37 283.108 233.92 281.868 235.16C280.628 236.38 279.068 236.99 277.188 236.99H271.638V245H270.048V224H277.188ZM277.188 235.49C278.628 235.49 279.808 235.02 280.728 234.08C281.668 233.14 282.138 231.95 282.138 230.51C282.138 229.05 281.668 227.85 280.728 226.91C279.808 225.97 278.628 225.5 277.188 225.5H271.638V235.49H277.188ZM301.455 245V226.94L289.035 245H287.655V224H289.245V242.06L301.635 224H303.045V245H301.455ZM312.121 221.39V220.07H319.711V221.39H312.121ZM322.051 245V226.94L309.631 245H308.251V224H309.841V242.06L322.231 224H323.641V245H322.051Z" fill="white"/>
<g filter="url(#filter3_d_408_2)">
<rect x="78" y="311" width="645" height="78" rx="39" fill="url(#paint0_linear_408_2)"/>
</g>
<path d="M337.92 345.08V357.44C337.92 360.32 337.147 362.547 335.6 364.12C334.053 365.667 332 366.44 329.44 366.44H328.04C325.293 366.44 323.187 365.667 321.72 364.12C320.253 362.573 319.52 360.347 319.52 357.44V345.08C319.52 338.893 322.36 335.8 328.04 335.8H329.4C332.28 335.8 334.413 336.627 335.8 338.28C337.213 339.907 337.92 342.173 337.92 345.08ZM329.68 358.16V344.12C329.68 343.213 329.36 342.76 328.72 342.76C328.107 342.76 327.8 343.213 327.8 344.12V358.16C327.8 358.987 328.107 359.4 328.72 359.4C329.36 359.4 329.68 358.987 329.68 358.16ZM338.463 336.24H353.623V343.4H350.023V366H342.063V343.4H338.463V336.24ZM354.364 366V336.24H371.964V366H363.964V343.4H362.364V366H354.364ZM384.797 355H380.997V366H373.037V336.24H384.717C386.45 336.24 387.837 336.747 388.877 337.76C389.917 338.747 390.437 340.293 390.437 342.4V348.72C390.437 350.72 389.903 352.267 388.837 353.36C387.77 354.453 386.423 355 384.797 355ZM380.997 342.12V348.84H381.557C381.93 348.84 382.17 348.76 382.277 348.6C382.41 348.413 382.477 348.093 382.477 347.64V343.28C382.477 342.853 382.41 342.56 382.277 342.4C382.17 342.213 381.93 342.12 381.557 342.12H380.997ZM399.556 366L399.196 362.32H396.276L395.916 366H389.036L392.916 336.24H402.956L407.276 366H399.556ZM397.716 347.8L396.956 355.64H398.516L397.716 347.8ZM407.608 366V336.24H419.728C421.408 336.24 422.714 336.72 423.648 337.68C424.608 338.64 425.088 340.133 425.088 342.16V344.68C425.088 346.093 424.741 347.2 424.048 348C423.381 348.8 422.701 349.333 422.008 349.6C424.514 350.4 425.768 352.24 425.768 355.12V358.88C425.768 361.2 425.248 362.973 424.208 364.2C423.194 365.4 421.714 366 419.768 366H407.608ZM416.448 353.12H415.608V360.12H416.448C416.821 360.12 417.061 360.027 417.168 359.84C417.301 359.653 417.368 359.347 417.368 358.92V354.32C417.368 353.52 417.061 353.12 416.448 353.12ZM416.208 341.92H415.608V347.56H416.208C416.821 347.56 417.128 347.16 417.128 346.36V343.08C417.128 342.653 417.061 342.36 416.928 342.2C416.821 342.013 416.581 341.92 416.208 341.92ZM436.554 366V352.28L433.634 366H426.434V336.24H433.634V349.92L436.554 336.24H443.754V366H436.554ZM444.673 336.24H459.833V343.4H456.233V366H448.273V343.4H444.673V336.24ZM468.495 346.64H472.295C473.921 346.64 475.268 347.187 476.335 348.28C477.401 349.373 477.935 350.92 477.935 352.92V359.84C477.935 361.947 477.415 363.507 476.375 364.52C475.335 365.507 473.948 366 472.215 366H460.535V336.24H468.495V346.64ZM468.495 360.12H469.055C469.428 360.12 469.668 360.04 469.775 359.88C469.908 359.693 469.975 359.387 469.975 358.96V354C469.975 353.547 469.908 353.24 469.775 353.08C469.668 352.893 469.428 352.8 469.055 352.8H468.495V360.12Z" fill="white"/>
<path d="M7.632 409H8.82V418H7.632V414.076H2.448V418H1.26V409H2.448V412.924H7.632V409ZM19.0723 409H20.2603V418H19.0723V416.236C18.2443 417.556 17.0323 418.216 15.4363 418.216C14.1523 418.216 13.0543 417.76 12.1423 416.848C11.2423 415.936 10.7923 414.82 10.7923 413.5C10.7923 412.18 11.2423 411.064 12.1423 410.152C13.0543 409.24 14.1523 408.784 15.4363 408.784C17.0323 408.784 18.2443 409.444 19.0723 410.764V409ZM13.0063 416.038C13.6903 416.722 14.5303 417.064 15.5263 417.064C16.5223 417.064 17.3623 416.722 18.0463 416.038C18.7303 415.342 19.0723 414.496 19.0723 413.5C19.0723 412.504 18.7303 411.664 18.0463 410.98C17.3623 410.284 16.5223 409.936 15.5263 409.936C14.5303 409.936 13.6903 410.284 13.0063 410.98C12.3223 411.664 11.9803 412.504 11.9803 413.5C11.9803 414.496 12.3223 415.342 13.0063 416.038ZM33.2876 418H31.8476L28.1756 413.662V418H26.9876V413.662L23.3156 418H21.8756L25.9076 413.32L22.0556 409H23.4956L26.9876 412.996V409H28.1756V412.996L31.6676 409H33.1076L29.2556 413.32L33.2876 418ZM41.4565 409H42.4645V418H41.2765V411.07L35.9125 418H34.9045V409H36.0925V415.93L41.4565 409ZM53.7968 409V418H52.6088V410.818L49.4588 415.93H49.3148L46.1648 410.818V418H44.9768V409H46.3448L49.3868 413.932L52.4288 409H53.7968ZM64.0547 409H65.2427V418H64.0547V416.236C63.2267 417.556 62.0147 418.216 60.4187 418.216C59.1347 418.216 58.0367 417.76 57.1247 416.848C56.2247 415.936 55.7747 414.82 55.7747 413.5C55.7747 412.18 56.2247 411.064 57.1247 410.152C58.0367 409.24 59.1347 408.784 60.4187 408.784C62.0147 408.784 63.2267 409.444 64.0547 410.764V409ZM57.9887 416.038C58.6727 416.722 59.5127 417.064 60.5087 417.064C61.5047 417.064 62.3447 416.722 63.0287 416.038C63.7127 415.342 64.0547 414.496 64.0547 413.5C64.0547 412.504 63.7127 411.664 63.0287 410.98C62.3447 410.284 61.5047 409.936 60.5087 409.936C59.5127 409.936 58.6727 410.284 57.9887 410.98C57.3047 411.664 56.9627 412.504 56.9627 413.5C56.9627 414.496 57.3047 415.342 57.9887 416.038ZM74.238 409V418H73.05V414.544H71.502L68.73 418H67.218L70.062 414.508C69.342 414.4 68.748 414.1 68.28 413.608C67.812 413.116 67.578 412.51 67.578 411.79C67.578 410.974 67.866 410.308 68.442 409.792C69.03 409.264 69.744 409 70.584 409H74.238ZM70.584 413.428H73.05V410.152H70.584C70.08 410.152 69.648 410.302 69.288 410.602C68.94 410.902 68.766 411.298 68.766 411.79C68.766 412.282 68.94 412.678 69.288 412.978C69.648 413.278 70.08 413.428 70.584 413.428ZM88.53 418H86.946L82.446 413.662V418H81.258V409H82.446V412.978L86.73 409H88.35L83.706 413.32L88.53 418ZM96.5246 409H97.7126V418H96.5246V414.076H91.3406V418H90.1526V409H91.3406V412.924H96.5246V409ZM107.767 416.866C106.855 417.766 105.739 418.216 104.419 418.216C103.099 418.216 101.977 417.766 101.053 416.866C100.141 415.954 99.6848 414.832 99.6848 413.5C99.6848 412.168 100.141 411.052 101.053 410.152C101.977 409.24 103.099 408.784 104.419 408.784C105.739 408.784 106.855 409.24 107.767 410.152C108.691 411.052 109.153 412.168 109.153 413.5C109.153 414.832 108.691 415.954 107.767 416.866ZM101.899 416.038C102.583 416.722 103.423 417.064 104.419 417.064C105.415 417.064 106.255 416.722 106.939 416.038C107.623 415.342 107.965 414.496 107.965 413.5C107.965 412.504 107.623 411.664 106.939 410.98C106.255 410.284 105.415 409.936 104.419 409.936C103.423 409.936 102.583 410.284 101.899 410.98C101.215 411.664 100.873 412.504 100.873 413.5C100.873 414.496 101.215 415.342 101.899 416.038ZM118.701 409V418H117.513V410.152H112.329V418H111.141V409H118.701ZM128.485 418H126.901L122.401 413.662V418H121.213V409H122.401V412.978L126.685 409H128.305L123.661 413.32L128.485 418ZM136.236 409H137.496L133.644 418.828C133.296 419.716 132.798 420.412 132.15 420.916C131.514 421.432 130.8 421.66 130.008 421.6V420.484C131.088 420.604 131.91 419.98 132.474 418.612L132.708 418.054L128.676 409H129.936L133.32 416.542L136.236 409ZM146.888 409.198L144.908 412.438L146.888 415.678H145.412L143.432 412.438L145.412 409.198H146.888ZM149.768 409.198L147.788 412.438L149.768 415.678H148.292L146.312 412.438L148.292 409.198H149.768ZM159.288 416.866C158.376 417.766 157.26 418.216 155.94 418.216C154.62 418.216 153.498 417.766 152.574 416.866C151.662 415.954 151.206 414.832 151.206 413.5C151.206 412.168 151.662 411.052 152.574 410.152C153.498 409.24 154.62 408.784 155.94 408.784C157.26 408.784 158.376 409.24 159.288 410.152C160.212 411.052 160.674 412.168 160.674 413.5C160.674 414.832 160.212 415.954 159.288 416.866ZM153.42 416.038C154.104 416.722 154.944 417.064 155.94 417.064C156.936 417.064 157.776 416.722 158.46 416.038C159.144 415.342 159.486 414.496 159.486 413.5C159.486 412.504 159.144 411.664 158.46 410.98C157.776 410.284 156.936 409.936 155.94 409.936C154.944 409.936 154.104 410.284 153.42 410.98C152.736 411.664 152.394 412.504 152.394 413.5C152.394 414.496 152.736 415.342 153.42 416.038ZM166.856 418.216C165.5 418.216 164.372 417.766 163.472 416.866C162.572 415.954 162.122 414.832 162.122 413.5C162.122 412.168 162.572 411.052 163.472 410.152C164.372 409.24 165.5 408.784 166.856 408.784C167.744 408.784 168.542 409 169.25 409.432C169.958 409.852 170.474 410.422 170.798 411.142L169.826 411.7C169.586 411.16 169.196 410.734 168.656 410.422C168.128 410.098 167.528 409.936 166.856 409.936C165.86 409.936 165.02 410.284 164.336 410.98C163.652 411.664 163.31 412.504 163.31 413.5C163.31 414.496 163.652 415.342 164.336 416.038C165.02 416.722 165.86 417.064 166.856 417.064C167.528 417.064 168.128 416.908 168.656 416.596C169.184 416.272 169.598 415.84 169.898 415.3L170.888 415.876C170.516 416.596 169.97 417.166 169.25 417.586C168.53 418.006 167.732 418.216 166.856 418.216ZM178.898 409V410.152H175.712V418H174.524V410.152H171.338V409H178.898ZM187.734 409H188.922V418H187.734V416.236C186.906 417.556 185.694 418.216 184.098 418.216C182.814 418.216 181.716 417.76 180.804 416.848C179.904 415.936 179.454 414.82 179.454 413.5C179.454 412.18 179.904 411.064 180.804 410.152C181.716 409.24 182.814 408.784 184.098 408.784C185.694 408.784 186.906 409.444 187.734 410.764V409ZM181.668 416.038C182.352 416.722 183.192 417.064 184.188 417.064C185.184 417.064 186.024 416.722 186.708 416.038C187.392 415.342 187.734 414.496 187.734 413.5C187.734 412.504 187.392 411.664 186.708 410.98C186.024 410.284 185.184 409.936 184.188 409.936C183.192 409.936 182.352 410.284 181.668 410.98C180.984 411.664 180.642 412.504 180.642 413.5C180.642 414.496 180.984 415.342 181.668 416.038ZM197.162 413.374C198.146 413.734 198.638 414.436 198.638 415.48C198.638 416.212 198.392 416.818 197.9 417.298C197.42 417.766 196.724 418 195.812 418H191.438V409H195.452C196.328 409 197.006 409.228 197.486 409.684C197.966 410.128 198.206 410.704 198.206 411.412C198.206 412.312 197.858 412.966 197.162 413.374ZM195.452 410.152H192.626V412.888H195.452C196.496 412.888 197.018 412.42 197.018 411.484C197.018 411.064 196.88 410.74 196.604 410.512C196.34 410.272 195.956 410.152 195.452 410.152ZM195.812 416.848C196.34 416.848 196.742 416.722 197.018 416.47C197.306 416.218 197.45 415.864 197.45 415.408C197.45 414.988 197.306 414.658 197.018 414.418C196.742 414.166 196.34 414.04 195.812 414.04H192.626V416.848H195.812ZM206.99 409H207.998V418H206.81V411.07L201.446 418H200.438V409H201.626V415.93L206.99 409ZM216.99 409V410.152H213.804V418H212.616V410.152H209.43V409H216.99ZM222.092 412.42C222.932 412.42 223.64 412.684 224.216 413.212C224.804 413.728 225.098 414.394 225.098 415.21C225.098 416.026 224.804 416.698 224.216 417.226C223.64 417.742 222.932 418 222.092 418H218.438V409H219.626V412.42H222.092ZM222.092 416.848C222.596 416.848 223.022 416.698 223.37 416.398C223.73 416.098 223.91 415.702 223.91 415.21C223.91 414.718 223.73 414.322 223.37 414.022C223.022 413.722 222.596 413.572 222.092 413.572H219.626V416.848H222.092ZM236.037 413.374C237.081 413.77 237.603 414.49 237.603 415.534C237.603 416.278 237.309 416.914 236.721 417.442C236.145 417.958 235.317 418.216 234.237 418.216C232.425 418.216 231.237 417.496 230.673 416.056L231.681 415.462C232.053 416.53 232.905 417.064 234.237 417.064C234.933 417.064 235.467 416.914 235.839 416.614C236.223 416.314 236.415 415.93 236.415 415.462C236.415 415.042 236.259 414.7 235.947 414.436C235.635 414.172 235.215 414.04 234.687 414.04H233.373V412.888H234.327C234.843 412.888 235.245 412.762 235.533 412.51C235.833 412.246 235.983 411.886 235.983 411.43C235.983 410.998 235.809 410.644 235.461 410.368C235.113 410.08 234.645 409.936 234.057 409.936C232.929 409.936 232.179 410.386 231.807 411.286L230.817 410.71C231.417 409.426 232.497 408.784 234.057 408.784C235.005 408.784 235.761 409.036 236.325 409.54C236.889 410.032 237.171 410.638 237.171 411.358C237.171 412.282 236.793 412.954 236.037 413.374ZM247.148 409H248.336V418H247.148V416.236C246.32 417.556 245.108 418.216 243.512 418.216C242.228 418.216 241.13 417.76 240.218 416.848C239.318 415.936 238.868 414.82 238.868 413.5C238.868 412.18 239.318 411.064 240.218 410.152C241.13 409.24 242.228 408.784 243.512 408.784C245.108 408.784 246.32 409.444 247.148 410.764V409ZM241.082 416.038C241.766 416.722 242.606 417.064 243.602 417.064C244.598 417.064 245.438 416.722 246.122 416.038C246.806 415.342 247.148 414.496 247.148 413.5C247.148 412.504 246.806 411.664 246.122 410.98C245.438 410.284 244.598 409.936 243.602 409.936C242.606 409.936 241.766 410.284 241.082 410.98C240.398 411.664 240.056 412.504 240.056 413.5C240.056 414.496 240.398 415.342 241.082 416.038ZM257.332 409V418H256.144V414.544H254.596L251.824 418H250.312L253.156 414.508C252.436 414.4 251.842 414.1 251.374 413.608C250.906 413.116 250.672 412.51 250.672 411.79C250.672 410.974 250.96 410.308 251.536 409.792C252.124 409.264 252.838 409 253.678 409H257.332ZM253.678 413.428H256.144V410.152H253.678C253.174 410.152 252.742 410.302 252.382 410.602C252.034 410.902 251.86 411.298 251.86 411.79C251.86 412.282 252.034 412.678 252.382 412.978C252.742 413.278 253.174 413.428 253.678 413.428ZM265.576 413.374C266.56 413.734 267.052 414.436 267.052 415.48C267.052 416.212 266.806 416.818 266.314 417.298C265.834 417.766 265.138 418 264.226 418H259.852V409H263.866C264.742 409 265.42 409.228 265.9 409.684C266.38 410.128 266.62 410.704 266.62 411.412C266.62 412.312 266.272 412.966 265.576 413.374ZM263.866 410.152H261.04V412.888H263.866C264.91 412.888 265.432 412.42 265.432 411.484C265.432 411.064 265.294 410.74 265.018 410.512C264.754 410.272 264.37 410.152 263.866 410.152ZM264.226 416.848C264.754 416.848 265.156 416.722 265.432 416.47C265.72 416.218 265.864 415.864 265.864 415.408C265.864 414.988 265.72 414.658 265.432 414.418C265.156 414.166 264.754 414.04 264.226 414.04H261.04V416.848H264.226ZM276.124 418H274.54L270.04 413.662V418H268.852V409H270.04V412.978L274.324 409H275.944L271.3 413.32L276.124 418ZM283.875 409H285.135L281.283 418.828C280.935 419.716 280.437 420.412 279.789 420.916C279.153 421.432 278.439 421.66 277.647 421.6V420.484C278.727 420.604 279.549 419.98 280.113 418.612L280.347 418.054L276.315 409H277.575L280.959 416.542L283.875 409ZM287.502 409.198L289.482 412.438L287.502 415.678H286.026L288.006 412.438L286.026 409.198H287.502ZM290.382 409.198L292.362 412.438L290.382 415.678H288.906L290.886 412.438L288.906 409.198H290.382ZM296.865 416.47L295.785 420.52H294.705L295.425 416.47H296.865ZM309.433 413.374C310.417 413.734 310.909 414.436 310.909 415.48C310.909 416.212 310.663 416.818 310.171 417.298C309.691 417.766 308.995 418 308.083 418H303.709V409H307.723C308.599 409 309.277 409.228 309.757 409.684C310.237 410.128 310.477 410.704 310.477 411.412C310.477 412.312 310.129 412.966 309.433 413.374ZM307.723 410.152H304.897V412.888H307.723C308.767 412.888 309.289 412.42 309.289 411.484C309.289 411.064 309.151 410.74 308.875 410.512C308.611 410.272 308.227 410.152 307.723 410.152ZM308.083 416.848C308.611 416.848 309.013 416.722 309.289 416.47C309.577 416.218 309.721 415.864 309.721 415.408C309.721 414.988 309.577 414.658 309.289 414.418C309.013 414.166 308.611 414.04 308.083 414.04H304.897V416.848H308.083ZM316.363 412.42C317.203 412.42 317.911 412.684 318.487 413.212C319.075 413.728 319.369 414.394 319.369 415.21C319.369 416.026 319.075 416.698 318.487 417.226C317.911 417.742 317.203 418 316.363 418H312.709V409H313.897V412.42H316.363ZM320.629 409H321.817V418H320.629V409ZM316.363 416.848C316.867 416.848 317.293 416.698 317.641 416.398C318.001 416.098 318.181 415.702 318.181 415.21C318.181 414.718 318.001 414.322 317.641 414.022C317.293 413.722 316.867 413.572 316.363 413.572H313.897V416.848H316.363ZM336.406 409V418H335.218V410.152H330.034V418H328.846V409H336.406ZM343.742 408.784C345.026 408.784 346.118 409.24 347.018 410.152C347.93 411.064 348.386 412.18 348.386 413.5C348.386 414.82 347.93 415.936 347.018 416.848C346.118 417.76 345.026 418.216 343.742 418.216C342.146 418.216 340.934 417.556 340.106 416.236V421.6H338.918V409H340.106V410.764C340.934 409.444 342.146 408.784 343.742 408.784ZM341.132 416.038C341.816 416.722 342.656 417.064 343.652 417.064C344.648 417.064 345.488 416.722 346.172 416.038C346.856 415.342 347.198 414.496 347.198 413.5C347.198 412.504 346.856 411.664 346.172 410.98C345.488 410.284 344.648 409.936 343.652 409.936C342.656 409.936 341.816 410.284 341.132 410.98C340.448 411.664 340.106 412.504 340.106 413.5C340.106 414.496 340.448 415.342 341.132 416.038ZM356.914 409H357.922V418H356.734V411.07L351.37 418H350.362V409H351.55V415.93L356.914 409ZM366.806 409H367.994V418H366.806V414.076H361.622V418H360.434V409H361.622V412.924H366.806V409ZM377.058 409H378.066V418H376.878V411.07L371.514 418H370.506V409H371.694V415.93L377.058 409ZM389.398 409V418H388.21V410.818L385.06 415.93H384.916L381.766 410.818V418H380.578V409H381.946L384.988 413.932L388.03 409H389.398ZM399.656 409H400.844V418H399.656V416.236C398.828 417.556 397.616 418.216 396.02 418.216C394.736 418.216 393.638 417.76 392.726 416.848C391.826 415.936 391.376 414.82 391.376 413.5C391.376 412.18 391.826 411.064 392.726 410.152C393.638 409.24 394.736 408.784 396.02 408.784C397.616 408.784 398.828 409.444 399.656 410.764V409ZM393.59 416.038C394.274 416.722 395.114 417.064 396.11 417.064C397.106 417.064 397.946 416.722 398.63 416.038C399.314 415.342 399.656 414.496 399.656 413.5C399.656 412.504 399.314 411.664 398.63 410.98C397.946 410.284 397.106 409.936 396.11 409.936C395.114 409.936 394.274 410.284 393.59 410.98C392.906 411.664 392.564 412.504 392.564 413.5C392.564 414.496 392.906 415.342 393.59 416.038ZM407.518 408.784C408.85 408.784 409.924 409.258 410.74 410.206C411.568 411.142 411.982 412.252 411.982 413.536C411.982 413.668 411.97 413.854 411.946 414.094H404.044C404.164 415.006 404.548 415.732 405.196 416.272C405.856 416.8 406.666 417.064 407.626 417.064C408.31 417.064 408.898 416.926 409.39 416.65C409.894 416.362 410.272 415.99 410.524 415.534L411.568 416.146C411.172 416.782 410.632 417.286 409.948 417.658C409.264 418.03 408.484 418.216 407.608 418.216C406.192 418.216 405.04 417.772 404.152 416.884C403.264 415.996 402.82 414.868 402.82 413.5C402.82 412.156 403.258 411.034 404.134 410.134C405.01 409.234 406.138 408.784 407.518 408.784ZM407.518 409.936C406.582 409.936 405.796 410.218 405.16 410.782C404.536 411.334 404.164 412.054 404.044 412.942H410.758C410.638 411.994 410.272 411.256 409.66 410.728C409.048 410.2 408.334 409.936 407.518 409.936ZM420 409V410.152H416.814V418H415.626V410.152H412.44V409H420ZM425.254 408.784C426.586 408.784 427.66 409.258 428.476 410.206C429.304 411.142 429.718 412.252 429.718 413.536C429.718 413.668 429.706 413.854 429.682 414.094H421.78C421.9 415.006 422.284 415.732 422.932 416.272C423.592 416.8 424.402 417.064 425.362 417.064C426.046 417.064 426.634 416.926 427.126 416.65C427.63 416.362 428.008 415.99 428.26 415.534L429.304 416.146C428.908 416.782 428.368 417.286 427.684 417.658C427 418.03 426.22 418.216 425.344 418.216C423.928 418.216 422.776 417.772 421.888 416.884C421 415.996 420.556 414.868 420.556 413.5C420.556 412.156 420.994 411.034 421.87 410.134C422.746 409.234 423.874 408.784 425.254 408.784ZM425.254 409.936C424.318 409.936 423.532 410.218 422.896 410.782C422.272 411.334 421.9 412.054 421.78 412.942H428.494C428.374 411.994 428.008 411.256 427.396 410.728C426.784 410.2 426.07 409.936 425.254 409.936ZM442.588 409H443.848L439.996 418.828C439.648 419.716 439.15 420.412 438.502 420.916C437.866 421.432 437.152 421.66 436.36 421.6V420.484C437.44 420.604 438.262 419.98 438.826 418.612L439.06 418.054L435.028 409H436.288L439.672 416.542L442.588 409ZM449.126 418.216C447.77 418.216 446.642 417.766 445.742 416.866C444.842 415.954 444.392 414.832 444.392 413.5C444.392 412.168 444.842 411.052 445.742 410.152C446.642 409.24 447.77 408.784 449.126 408.784C450.014 408.784 450.812 409 451.52 409.432C452.228 409.852 452.744 410.422 453.068 411.142L452.096 411.7C451.856 411.16 451.466 410.734 450.926 410.422C450.398 410.098 449.798 409.936 449.126 409.936C448.13 409.936 447.29 410.284 446.606 410.98C445.922 411.664 445.58 412.504 445.58 413.5C445.58 414.496 445.922 415.342 446.606 416.038C447.29 416.722 448.13 417.064 449.126 417.064C449.798 417.064 450.398 416.908 450.926 416.596C451.454 416.272 451.868 415.84 452.168 415.3L453.158 415.876C452.786 416.596 452.24 417.166 451.52 417.586C450.8 418.006 450.002 418.216 449.126 418.216ZM462.068 409V418H460.88V410.152H456.812V414.166C456.812 415.666 456.524 416.698 455.948 417.262C455.384 417.826 454.604 418.072 453.608 418V416.884C454.292 416.956 454.796 416.794 455.12 416.398C455.456 416.002 455.624 415.258 455.624 414.166V409H462.068ZM472.126 416.866C471.214 417.766 470.098 418.216 468.778 418.216C467.458 418.216 466.336 417.766 465.412 416.866C464.5 415.954 464.044 414.832 464.044 413.5C464.044 412.168 464.5 411.052 465.412 410.152C466.336 409.24 467.458 408.784 468.778 408.784C470.098 408.784 471.214 409.24 472.126 410.152C473.05 411.052 473.512 412.168 473.512 413.5C473.512 414.832 473.05 415.954 472.126 416.866ZM466.258 416.038C466.942 416.722 467.782 417.064 468.778 417.064C469.774 417.064 470.614 416.722 471.298 416.038C471.982 415.342 472.324 414.496 472.324 413.5C472.324 412.504 471.982 411.664 471.298 410.98C470.614 410.284 469.774 409.936 468.778 409.936C467.782 409.936 466.942 410.284 466.258 410.98C465.574 411.664 465.232 412.504 465.232 413.5C465.232 414.496 465.574 415.342 466.258 416.038ZM481.224 413.374C482.208 413.734 482.7 414.436 482.7 415.48C482.7 416.212 482.454 416.818 481.962 417.298C481.482 417.766 480.786 418 479.874 418H475.5V409H479.514C480.39 409 481.068 409.228 481.548 409.684C482.028 410.128 482.268 410.704 482.268 411.412C482.268 412.312 481.92 412.966 481.224 413.374ZM479.514 410.152H476.688V412.888H479.514C480.558 412.888 481.08 412.42 481.08 411.484C481.08 411.064 480.942 410.74 480.666 410.512C480.402 410.272 480.018 410.152 479.514 410.152ZM479.874 416.848C480.402 416.848 480.804 416.722 481.08 416.47C481.368 416.218 481.512 415.864 481.512 415.408C481.512 414.988 481.368 414.658 481.08 414.418C480.804 414.166 480.402 414.04 479.874 414.04H476.688V416.848H479.874ZM491.052 409H492.06V418H490.872V411.07L485.508 418H484.5V409H485.688V415.93L491.052 409ZM501.053 409V418H499.865V414.544H498.317L495.545 418H494.033L496.877 414.508C496.157 414.4 495.563 414.1 495.095 413.608C494.627 413.116 494.393 412.51 494.393 411.79C494.393 410.974 494.681 410.308 495.257 409.792C495.845 409.264 496.559 409 497.399 409H501.053ZM497.399 413.428H499.865V410.152H497.399C496.895 410.152 496.463 410.302 496.103 410.602C495.755 410.902 495.581 411.298 495.581 411.79C495.581 412.282 495.755 412.678 496.103 412.978C496.463 413.278 496.895 413.428 497.399 413.428ZM515.633 409V418H514.445V410.152H509.261V418H508.073V409H515.633ZM522.303 408.784C523.635 408.784 524.709 409.258 525.525 410.206C526.353 411.142 526.767 412.252 526.767 413.536C526.767 413.668 526.755 413.854 526.731 414.094H518.829C518.949 415.006 519.333 415.732 519.981 416.272C520.641 416.8 521.451 417.064 522.411 417.064C523.095 417.064 523.683 416.926 524.175 416.65C524.679 416.362 525.057 415.99 525.309 415.534L526.353 416.146C525.957 416.782 525.417 417.286 524.733 417.658C524.049 418.03 523.269 418.216 522.393 418.216C520.977 418.216 519.825 417.772 518.937 416.884C518.049 415.996 517.605 414.868 517.605 413.5C517.605 412.156 518.043 411.034 518.919 410.134C519.795 409.234 520.923 408.784 522.303 408.784ZM522.303 409.936C521.367 409.936 520.581 410.218 519.945 410.782C519.321 411.334 518.949 412.054 518.829 412.942H525.543C525.423 411.994 525.057 411.256 524.445 410.728C523.833 410.2 523.119 409.936 522.303 409.936ZM533.48 408.784C534.764 408.784 535.856 409.24 536.756 410.152C537.668 411.064 538.124 412.18 538.124 413.5C538.124 414.82 537.668 415.936 536.756 416.848C535.856 417.76 534.764 418.216 533.48 418.216C531.884 418.216 530.672 417.556 529.844 416.236V421.6H528.656V409H529.844V410.764C530.672 409.444 531.884 408.784 533.48 408.784ZM530.87 416.038C531.554 416.722 532.394 417.064 533.39 417.064C534.386 417.064 535.226 416.722 535.91 416.038C536.594 415.342 536.936 414.496 536.936 413.5C536.936 412.504 536.594 411.664 535.91 410.98C535.226 410.284 534.386 409.936 533.39 409.936C532.394 409.936 531.554 410.284 530.87 410.98C530.186 411.664 529.844 412.504 529.844 413.5C529.844 414.496 530.186 415.342 530.87 416.038ZM544.258 408.784C545.59 408.784 546.664 409.258 547.48 410.206C548.308 411.142 548.722 412.252 548.722 413.536C548.722 413.668 548.71 413.854 548.686 414.094H540.784C540.904 415.006 541.288 415.732 541.936 416.272C542.596 416.8 543.406 417.064 544.366 417.064C545.05 417.064 545.638 416.926 546.13 416.65C546.634 416.362 547.012 415.99 547.264 415.534L548.308 416.146C547.912 416.782 547.372 417.286 546.688 417.658C546.004 418.03 545.224 418.216 544.348 418.216C542.932 418.216 541.78 417.772 540.892 416.884C540.004 415.996 539.56 414.868 539.56 413.5C539.56 412.156 539.998 411.034 540.874 410.134C541.75 409.234 542.878 408.784 544.258 408.784ZM544.258 409.936C543.322 409.936 542.536 410.218 541.9 410.782C541.276 411.334 540.904 412.054 540.784 412.942H547.498C547.378 411.994 547.012 411.256 546.4 410.728C545.788 410.2 545.074 409.936 544.258 409.936ZM557.82 416.848H559.08V420.412H557.892V418H550.548V420.412H549.36V416.848H550.458C551.07 416.044 551.376 414.91 551.376 413.446V409H557.82V416.848ZM551.898 416.848H556.632V410.152H552.564V413.446C552.564 414.826 552.342 415.96 551.898 416.848ZM568.266 409H569.454V418H568.266V416.236C567.438 417.556 566.226 418.216 564.63 418.216C563.346 418.216 562.248 417.76 561.336 416.848C560.436 415.936 559.986 414.82 559.986 413.5C559.986 412.18 560.436 411.064 561.336 410.152C562.248 409.24 563.346 408.784 564.63 408.784C566.226 408.784 567.438 409.444 568.266 410.764V409ZM562.2 416.038C562.884 416.722 563.724 417.064 564.72 417.064C565.716 417.064 566.556 416.722 567.24 416.038C567.924 415.342 568.266 414.496 568.266 413.5C568.266 412.504 567.924 411.664 567.24 410.98C566.556 410.284 565.716 409.936 564.72 409.936C563.724 409.936 562.884 410.284 562.2 410.98C561.516 411.664 561.174 412.504 561.174 413.5C561.174 414.496 561.516 415.342 562.2 416.038ZM577.801 409H578.989V418H577.801V414.58C577.105 414.94 576.247 415.12 575.227 415.12C574.051 415.12 573.151 414.85 572.527 414.31C571.915 413.758 571.609 412.948 571.609 411.88V409H572.797V411.88C572.797 412.636 572.995 413.182 573.391 413.518C573.787 413.842 574.387 414.004 575.191 414.004C576.127 414.004 576.997 413.83 577.801 413.482V409ZM588.066 409H589.074V418H587.886V411.07L582.522 418H581.514V409H582.702V415.93L588.066 409ZM602.566 409H603.826L599.974 418.828C599.626 419.716 599.128 420.412 598.48 420.916C597.844 421.432 597.13 421.66 596.338 421.6V420.484C597.418 420.604 598.24 419.98 598.804 418.612L599.038 418.054L595.006 409H596.266L599.65 416.542L602.566 409ZM612.534 418H610.95L606.45 413.662V418H605.262V409H606.45V412.978L610.734 409H612.354L607.71 413.32L612.534 418ZM621 409H622.188V418H621V416.236C620.172 417.556 618.96 418.216 617.364 418.216C616.08 418.216 614.982 417.76 614.07 416.848C613.17 415.936 612.72 414.82 612.72 413.5C612.72 412.18 613.17 411.064 614.07 410.152C614.982 409.24 616.08 408.784 617.364 408.784C618.96 408.784 620.172 409.444 621 410.764V409ZM614.934 416.038C615.618 416.722 616.458 417.064 617.454 417.064C618.45 417.064 619.29 416.722 619.974 416.038C620.658 415.342 621 414.496 621 413.5C621 412.504 620.658 411.664 619.974 410.98C619.29 410.284 618.45 409.936 617.454 409.936C616.458 409.936 615.618 410.284 614.934 410.98C614.25 411.664 613.908 412.504 613.908 413.5C613.908 414.496 614.25 415.342 614.934 416.038ZM629.347 413.374C630.391 413.77 630.913 414.49 630.913 415.534C630.913 416.278 630.619 416.914 630.031 417.442C629.455 417.958 628.627 418.216 627.547 418.216C625.735 418.216 624.547 417.496 623.983 416.056L624.991 415.462C625.363 416.53 626.215 417.064 627.547 417.064C628.243 417.064 628.777 416.914 629.149 416.614C629.533 416.314 629.725 415.93 629.725 415.462C629.725 415.042 629.569 414.7 629.257 414.436C628.945 414.172 628.525 414.04 627.997 414.04H626.683V412.888H627.637C628.153 412.888 628.555 412.762 628.843 412.51C629.143 412.246 629.293 411.886 629.293 411.43C629.293 410.998 629.119 410.644 628.771 410.368C628.423 410.08 627.955 409.936 627.367 409.936C626.239 409.936 625.489 410.386 625.117 411.286L624.127 410.71C624.727 409.426 625.807 408.784 627.367 408.784C628.315 408.784 629.071 409.036 629.635 409.54C630.199 410.032 630.481 410.638 630.481 411.358C630.481 412.282 630.103 412.954 629.347 413.374ZM640.459 409H641.647V418H640.459V416.236C639.631 417.556 638.419 418.216 636.823 418.216C635.539 418.216 634.441 417.76 633.529 416.848C632.629 415.936 632.179 414.82 632.179 413.5C632.179 412.18 632.629 411.064 633.529 410.152C634.441 409.24 635.539 408.784 636.823 408.784C638.419 408.784 639.631 409.444 640.459 410.764V409ZM634.393 416.038C635.077 416.722 635.917 417.064 636.913 417.064C637.909 417.064 638.749 416.722 639.433 416.038C640.117 415.342 640.459 414.496 640.459 413.5C640.459 412.504 640.117 411.664 639.433 410.98C638.749 410.284 637.909 409.936 636.913 409.936C635.917 409.936 635.077 410.284 634.393 410.98C633.709 411.664 633.367 412.504 633.367 413.5C633.367 414.496 633.709 415.342 634.393 416.038ZM650.534 409H651.722V418H650.534V414.076H645.35V418H644.162V409H645.35V412.924H650.534V409ZM660.607 409H661.795V418H660.607V414.076H655.423V418H654.235V409H655.423V412.924H660.607V409ZM671.849 416.866C670.937 417.766 669.821 418.216 668.501 418.216C667.181 418.216 666.059 417.766 665.135 416.866C664.223 415.954 663.767 414.832 663.767 413.5C663.767 412.168 664.223 411.052 665.135 410.152C666.059 409.24 667.181 408.784 668.501 408.784C669.821 408.784 670.937 409.24 671.849 410.152C672.773 411.052 673.235 412.168 673.235 413.5C673.235 414.832 672.773 415.954 671.849 416.866ZM665.981 416.038C666.665 416.722 667.505 417.064 668.501 417.064C669.497 417.064 670.337 416.722 671.021 416.038C671.705 415.342 672.047 414.496 672.047 413.5C672.047 412.504 671.705 411.664 671.021 410.98C670.337 410.284 669.497 409.936 668.501 409.936C667.505 409.936 666.665 410.284 665.981 410.98C665.297 411.664 664.955 412.504 664.955 413.5C664.955 414.496 665.297 415.342 665.981 416.038ZM676.663 407.56V406.516H681.343V407.56H676.663ZM681.775 409H682.783V418H681.595V411.07L676.231 418H675.223V409H676.411V415.93L681.775 409ZM696.347 409H697.355V418H696.167V411.07L690.803 418H689.795V409H690.983V415.93L696.347 409ZM706.239 409H707.427V418H706.239V414.076H701.055V418H699.867V409H701.055V412.924H706.239V409ZM718.724 410.296C719.588 411.172 720.02 412.24 720.02 413.5C720.02 414.76 719.588 415.828 718.724 416.704C717.86 417.58 716.72 418.078 715.304 418.198V421.6H714.116V418.198C712.7 418.078 711.56 417.58 710.696 416.704C709.832 415.828 709.4 414.76 709.4 413.5C709.4 412.24 709.832 411.172 710.696 410.296C711.56 409.42 712.7 408.922 714.116 408.802V405.4H715.304V408.802C716.72 408.922 717.86 409.42 718.724 410.296ZM711.542 411.124C710.906 411.772 710.588 412.564 710.588 413.5C710.588 414.436 710.906 415.234 711.542 415.894C712.178 416.542 713.036 416.92 714.116 417.028V409.972C713.036 410.08 712.178 410.464 711.542 411.124ZM715.304 417.028C716.384 416.92 717.242 416.542 717.878 415.894C718.514 415.234 718.832 414.436 718.832 413.5C718.832 412.564 718.514 411.772 717.878 411.124C717.242 410.464 716.384 410.08 715.304 409.972V417.028ZM729.54 416.866C728.628 417.766 727.512 418.216 726.192 418.216C724.872 418.216 723.75 417.766 722.826 416.866C721.914 415.954 721.458 414.832 721.458 413.5C721.458 412.168 721.914 411.052 722.826 410.152C723.75 409.24 724.872 408.784 726.192 408.784C727.512 408.784 728.628 409.24 729.54 410.152C730.464 411.052 730.926 412.168 730.926 413.5C730.926 414.832 730.464 415.954 729.54 416.866ZM723.672 416.038C724.356 416.722 725.196 417.064 726.192 417.064C727.188 417.064 728.028 416.722 728.712 416.038C729.396 415.342 729.738 414.496 729.738 413.5C729.738 412.504 729.396 411.664 728.712 410.98C728.028 410.284 727.188 409.936 726.192 409.936C725.196 409.936 724.356 410.284 723.672 410.98C722.988 411.664 722.646 412.504 722.646 413.5C722.646 414.496 722.988 415.342 723.672 416.038ZM737.738 408.784C739.022 408.784 740.114 409.24 741.014 410.152C741.926 411.064 742.382 412.18 742.382 413.5C742.382 414.82 741.926 415.936 741.014 416.848C740.114 417.76 739.022 418.216 737.738 418.216C736.142 418.216 734.93 417.556 734.102 416.236V421.6H732.914V409H734.102V410.764C734.93 409.444 736.142 408.784 737.738 408.784ZM735.128 416.038C735.812 416.722 736.652 417.064 737.648 417.064C738.644 417.064 739.484 416.722 740.168 416.038C740.852 415.342 741.194 414.496 741.194 413.5C741.194 412.504 740.852 411.664 740.168 410.98C739.484 410.284 738.644 409.936 737.648 409.936C736.652 409.936 735.812 410.284 735.128 410.98C734.444 411.664 734.102 412.504 734.102 413.5C734.102 414.496 734.444 415.342 735.128 416.038ZM753.178 409V418H751.99V410.818L748.84 415.93H748.696L745.546 410.818V418H744.358V409H745.726L748.768 413.932L751.81 409H753.178ZM763.436 409H764.624V418H763.436V416.236C762.608 417.556 761.396 418.216 759.8 418.216C758.516 418.216 757.418 417.76 756.506 416.848C755.606 415.936 755.156 414.82 755.156 413.5C755.156 412.18 755.606 411.064 756.506 410.152C757.418 409.24 758.516 408.784 759.8 408.784C761.396 408.784 762.608 409.444 763.436 410.764V409ZM757.37 416.038C758.054 416.722 758.894 417.064 759.89 417.064C760.886 417.064 761.726 416.722 762.41 416.038C763.094 415.342 763.436 414.496 763.436 413.5C763.436 412.504 763.094 411.664 762.41 410.98C761.726 410.284 760.886 409.936 759.89 409.936C758.894 409.936 758.054 410.284 757.37 410.98C756.686 411.664 756.344 412.504 756.344 413.5C756.344 414.496 756.686 415.342 757.37 416.038ZM774.519 416.848H775.959V420.412H774.771V418H767.139V409H768.327V416.848H773.331V409H774.519V416.848ZM784.308 409H785.316V418H784.128V411.07L778.764 418H777.756V409H778.944V415.93L784.308 409ZM794.38 409H795.388V418H794.2V411.07L788.836 418H787.828V409H789.016V415.93L794.38 409Z" fill="#D8D8D8"/>
<path d="M434.848 421.6H796.648V422.5H434.848V421.6Z" fill="#D8D8D8"/>
<defs>
<filter id="filter0_b_408_2" x="44" y="-30" width="708.599" height="138" filterUnits="userSpaceOnUse" color-interpolation-filters="sRGB">
<feFlood flood-opacity="0" result="BackgroundImageFix"/>
<feGaussianBlur in="BackgroundImageFix" stdDeviation="15"/>
<feComposite in2="SourceAlpha" operator="in" result="effect1_backgroundBlur_408_2"/>
<feBlend mode="normal" in="SourceGraphic" in2="effect1_backgroundBlur_408_2" result="shape"/>
</filter>
<filter id="filter1_b_408_2" x="44" y="68" width="708.599" height="138" filterUnits="userSpaceOnUse" color-interpolation-filters="sRGB">
<feFlood flood-opacity="0" result="BackgroundImageFix"/>
<feGaussianBlur in="BackgroundImageFix" stdDeviation="15"/>
<feComposite in2="SourceAlpha" operator="in" result="effect1_backgroundBlur_408_2"/>
<feBlend mode="normal" in="SourceGraphic" in2="effect1_backgroundBlur_408_2" result="shape"/>
</filter>
<filter id="filter2_b_408_2" x="44" y="166" width="708.599" height="138" filterUnits="userSpaceOnUse" color-interpolation-filters="sRGB">
<feFlood flood-opacity="0" result="BackgroundImageFix"/>
<feGaussianBlur in="BackgroundImageFix" stdDeviation="15"/>
<feComposite in2="SourceAlpha" operator="in" result="effect1_backgroundBlur_408_2"/>
<feBlend mode="normal" in="SourceGraphic" in2="effect1_backgroundBlur_408_2" result="shape"/>
</filter>
<filter id="filter3_d_408_2" x="53" y="290" width="695" height="128" filterUnits="userSpaceOnUse" color-interpolation-filters="sRGB">
<feFlood flood-opacity="0" result="BackgroundImageFix"/>
<feColorMatrix in="SourceAlpha" type="matrix" values="0 0 0 0 0 0 0 0 0 0 0 0 0 0 0 0 0 0 127 0" result="hardAlpha"/>
<feOffset dy="4"/>
<feGaussianBlur stdDeviation="12.5"/>
<feComposite in2="hardAlpha" operator="out"/>
<feColorMatrix type="matrix" values="0 0 0 0 0 0 0 0 0 0 0 0 0 0 0 0 0 0 0.15 0"/>
<feBlend mode="normal" in2="BackgroundImageFix" result="effect1_dropShadow_408_2"/>
<feBlend mode="normal" in="SourceGraphic" in2="effect1_dropShadow_408_2" result="shape"/>
</filter>
<linearGradient id="paint0_linear_408_2" x1="43.6353" y1="359.88" x2="86.5417" y2="191.807" gradientUnits="userSpaceOnUse">
<stop stop-color="#E4BBA5"/>
<stop offset="1" stop-color="#E4BBA5"/>
</linearGradient>
</defs>
</svg>
