<svg width="797" height="507" viewBox="0 0 797 507" fill="none" xmlns="http://www.w3.org/2000/svg">
<g filter="url(#filter0_b_402_7)">
<rect x="74" width="648.598" height="78" rx="39" fill="white" fill-opacity="0.2"/>
</g>
<g filter="url(#filter1_b_402_7)">
<rect x="74" y="98" width="648.598" height="78" rx="39" fill="white" fill-opacity="0.2"/>
</g>
<g filter="url(#filter2_b_402_7)">
<rect x="74" y="196" width="648.598" height="78" rx="39" fill="white" fill-opacity="0.2"/>
</g>
<rect x="70.5" y="6.5" width="647.598" height="77" rx="38.5" stroke="white"/>
<rect x="70.5" y="104.5" width="647.598" height="77" rx="38.5" stroke="white"/>
<rect x="70.5" y="202.5" width="647.598" height="77" rx="38.5" stroke="white"/>
<path d="M125.41 49V30.94L112.99 49H111.61V28H113.2V46.06L125.59 28H127V49H125.41ZM151.196 28V49H149.606V30.34L141.836 43.24H141.566L133.796 30.34V49H132.206V28H134.186L141.686 40.42L149.186 28H151.196ZM169.995 28V49H168.405V40.39H162.645L156.705 49H154.905L160.875 40.33C159.355 40.13 158.075 39.45 157.035 38.29C156.015 37.13 155.505 35.77 155.505 34.21C155.505 32.49 156.105 31.03 157.305 29.83C158.525 28.61 159.985 28 161.685 28H169.995ZM161.685 38.89H168.405V29.5H161.685C160.425 29.5 159.345 29.96 158.445 30.88C157.545 31.8 157.095 32.91 157.095 34.21C157.095 35.49 157.545 36.59 158.445 37.51C159.345 38.43 160.425 38.89 161.685 38.89Z" fill="white"/>
<path d="M124.51 126V127.5H117.91V147H116.29V127.5H109.69V126H124.51ZM129.401 145.5H139.901V147H127.811V126H139.751V127.5H129.401V135.66H139.001V137.16H129.401V145.5ZM141.737 147V145.59C143.217 145.77 144.337 145.3 145.097 144.18C145.877 143.04 146.267 141.01 146.267 138.09V126H159.557V147H157.937V127.5H147.857V138.12C147.857 141.48 147.337 143.85 146.297 145.23C145.277 146.59 143.757 147.18 141.737 147ZM166.345 145.5H176.845V147H164.755V126H176.695V127.5H166.345V135.66H175.945V137.16H166.345V145.5ZM198.421 130.65C200.321 132.05 201.271 134 201.271 136.5C201.271 139 200.321 140.96 198.421 142.38C196.541 143.78 194.071 144.53 191.011 144.63V147H189.391V144.63C186.331 144.53 183.851 143.78 181.951 142.38C180.071 140.96 179.131 139 179.131 136.5C179.131 134 180.071 132.05 181.951 130.65C183.851 129.23 186.331 128.47 189.391 128.37V126H191.011V128.37C194.071 128.47 196.541 129.23 198.421 130.65ZM183.061 131.7C181.521 132.84 180.751 134.44 180.751 136.5C180.751 138.56 181.521 140.16 183.061 141.3C184.621 142.44 186.731 143.06 189.391 143.16V129.84C186.731 129.94 184.621 130.56 183.061 131.7ZM191.011 143.16C193.671 143.06 195.771 142.44 197.311 141.3C198.871 140.16 199.651 138.56 199.651 136.5C199.651 134.44 198.871 132.84 197.311 131.7C195.771 130.56 193.671 129.94 191.011 129.84V143.16ZM222.172 144.18C220.072 146.28 217.512 147.33 214.492 147.33C211.472 147.33 208.912 146.28 206.812 144.18C204.712 142.06 203.662 139.5 203.662 136.5C203.662 133.5 204.712 130.95 206.812 128.85C208.912 126.73 211.472 125.67 214.492 125.67C217.512 125.67 220.072 126.73 222.172 128.85C224.272 130.95 225.322 133.5 225.322 136.5C225.322 139.5 224.272 142.06 222.172 144.18ZM207.922 143.1C209.722 144.9 211.912 145.8 214.492 145.8C217.072 145.8 219.252 144.9 221.032 143.1C222.832 141.28 223.732 139.08 223.732 136.5C223.732 133.92 222.832 131.73 221.032 129.93C219.252 128.11 217.072 127.2 214.492 127.2C211.912 127.2 209.722 128.11 207.922 129.93C206.142 131.73 205.252 133.92 205.252 136.5C205.252 139.08 206.142 141.28 207.922 143.1ZM243.154 126H244.744V147H243.154V136.95H230.944V147H229.354V126H230.944V135.45H243.154V126Z" fill="white"/>
<path d="M125.86 245H123.73L113.2 234.65V245H111.61V224H113.2V233.78L123.43 224H125.56L114.94 234.2L125.86 245ZM144.301 242.18C142.201 244.28 139.641 245.33 136.621 245.33C133.601 245.33 131.041 244.28 128.941 242.18C126.841 240.06 125.791 237.5 125.791 234.5C125.791 231.5 126.841 228.95 128.941 226.85C131.041 224.73 133.601 223.67 136.621 223.67C139.641 223.67 142.201 224.73 144.301 226.85C146.401 228.95 147.451 231.5 147.451 234.5C147.451 237.5 146.401 240.06 144.301 242.18ZM130.051 241.1C131.851 242.9 134.041 243.8 136.621 243.8C139.201 243.8 141.381 242.9 143.161 241.1C144.961 239.28 145.861 237.08 145.861 234.5C145.861 231.92 144.961 229.73 143.161 227.93C141.381 226.11 139.201 225.2 136.621 225.2C134.041 225.2 131.851 226.11 130.051 227.93C128.271 229.73 127.381 231.92 127.381 234.5C127.381 237.08 128.271 239.28 130.051 241.1ZM170.473 224V245H168.883V226.34L161.113 239.24H160.843L153.073 226.34V245H151.483V224H153.463L160.963 236.42L168.463 224H170.473ZM194.672 224V245H193.082V226.34L185.312 239.24H185.042L177.272 226.34V245H175.682V224H177.662L185.162 236.42L192.662 224H194.672ZM201.471 243.5H211.971V245H199.881V224H211.821V225.5H201.471V233.66H211.071V235.16H201.471V243.5ZM229.678 224H231.268V245H229.678V234.95H217.468V245H215.878V224H217.468V233.45H229.678V224ZM249.373 224V225.5H242.773V245H241.153V225.5H234.553V224H249.373ZM265.31 245L263.27 239.66H252.74L250.7 245H249.02L257.18 224H258.86L266.99 245H265.31ZM253.34 238.16H262.7L258.02 225.95L253.34 238.16ZM277.188 224C279.068 224 280.628 224.62 281.868 225.86C283.108 227.1 283.728 228.65 283.728 230.51C283.728 232.37 283.108 233.92 281.868 235.16C280.628 236.38 279.068 236.99 277.188 236.99H271.638V245H270.048V224H277.188ZM277.188 235.49C278.628 235.49 279.808 235.02 280.728 234.08C281.668 233.14 282.138 231.95 282.138 230.51C282.138 229.05 281.668 227.85 280.728 226.91C279.808 225.97 278.628 225.5 277.188 225.5H271.638V235.49H277.188ZM301.455 245V226.94L289.035 245H287.655V224H289.245V242.06L301.635 224H303.045V245H301.455ZM312.121 221.39V220.07H319.711V221.39H312.121ZM322.051 245V226.94L309.631 245H308.251V224H309.841V242.06L322.231 224H323.641V245H322.051Z" fill="white"/>
<g filter="url(#filter3_d_402_7)">
<rect x="78" y="310" width="645" height="78" rx="39" fill="url(#paint0_linear_402_7)"/>
<path d="M324.65 340.85V356.3C324.65 359.9 323.683 362.683 321.75 364.65C319.817 366.583 317.25 367.55 314.05 367.55H312.3C308.867 367.55 306.233 366.583 304.4 364.65C302.567 362.717 301.65 359.933 301.65 356.3V340.85C301.65 333.117 305.2 329.25 312.3 329.25H314C317.6 329.25 320.267 330.283 322 332.35C323.767 334.383 324.65 337.217 324.65 340.85ZM314.35 357.2V339.65C314.35 338.517 313.95 337.95 313.15 337.95C312.383 337.95 312 338.517 312 339.65V357.2C312 358.233 312.383 358.75 313.15 358.75C313.95 358.75 314.35 358.233 314.35 357.2ZM325.328 329.8H344.278V338.75H339.778V367H329.828V338.75H325.328V329.8ZM345.205 367V329.8H367.205V367H357.205V338.75H355.205V367H345.205ZM383.246 353.25H378.496V367H368.546V329.8H383.146C385.312 329.8 387.046 330.433 388.346 331.7C389.646 332.933 390.296 334.867 390.296 337.5V345.4C390.296 347.9 389.629 349.833 388.296 351.2C386.962 352.567 385.279 353.25 383.246 353.25ZM378.496 337.15V345.55H379.196C379.662 345.55 379.962 345.45 380.096 345.25C380.262 345.017 380.346 344.617 380.346 344.05V338.6C380.346 338.067 380.262 337.7 380.096 337.5C379.962 337.267 379.662 337.15 379.196 337.15H378.496ZM401.695 367L401.245 362.4H397.595L397.145 367H388.545L393.395 329.8H405.945L411.345 367H401.695ZM399.395 344.25L398.445 354.05H400.395L399.395 344.25ZM411.76 367V329.8H426.91C429.01 329.8 430.643 330.4 431.81 331.6C433.01 332.8 433.61 334.667 433.61 337.2V340.35C433.61 342.117 433.176 343.5 432.31 344.5C431.476 345.5 430.626 346.167 429.76 346.5C432.893 347.5 434.46 349.8 434.46 353.4V358.1C434.46 361 433.81 363.217 432.51 364.75C431.243 366.25 429.393 367 426.96 367H411.76ZM422.81 350.9H421.76V359.65H422.81C423.276 359.65 423.576 359.533 423.71 359.3C423.876 359.067 423.96 358.683 423.96 358.15V352.4C423.96 351.4 423.576 350.9 422.81 350.9ZM422.51 336.9H421.76V343.95H422.51C423.276 343.95 423.66 343.45 423.66 342.45V338.35C423.66 337.817 423.576 337.45 423.41 337.25C423.276 337.017 422.976 336.9 422.51 336.9ZM447.943 367V349.85L444.293 367H435.293V329.8H444.293V346.9L447.943 329.8H456.943V367H447.943ZM458.092 329.8H477.042V338.75H472.542V367H462.592V338.75H458.092V329.8ZM487.868 342.8H492.618C494.652 342.8 496.335 343.483 497.668 344.85C499.002 346.217 499.668 348.15 499.668 350.65V359.3C499.668 361.933 499.018 363.883 497.718 365.15C496.418 366.383 494.685 367 492.518 367H477.918V329.8H487.868V342.8ZM487.868 359.65H488.568C489.035 359.65 489.335 359.55 489.468 359.35C489.635 359.117 489.718 358.733 489.718 358.2V352C489.718 351.433 489.635 351.05 489.468 350.85C489.335 350.617 489.035 350.5 488.568 350.5H487.868V359.65Z" fill="white"/>
</g>
<path d="M7.632 429H8.82V438H7.632V434.076H2.448V438H1.26V429H2.448V432.924H7.632V429ZM19.0723 429H20.2603V438H19.0723V436.236C18.2443 437.556 17.0323 438.216 15.4363 438.216C14.1523 438.216 13.0543 437.76 12.1423 436.848C11.2423 435.936 10.7923 434.82 10.7923 433.5C10.7923 432.18 11.2423 431.064 12.1423 430.152C13.0543 429.24 14.1523 428.784 15.4363 428.784C17.0323 428.784 18.2443 429.444 19.0723 430.764V429ZM13.0063 436.038C13.6903 436.722 14.5303 437.064 15.5263 437.064C16.5223 437.064 17.3623 436.722 18.0463 436.038C18.7303 435.342 19.0723 434.496 19.0723 433.5C19.0723 432.504 18.7303 431.664 18.0463 430.98C17.3623 430.284 16.5223 429.936 15.5263 429.936C14.5303 429.936 13.6903 430.284 13.0063 430.98C12.3223 431.664 11.9803 432.504 11.9803 433.5C11.9803 434.496 12.3223 435.342 13.0063 436.038ZM33.2876 438H31.8476L28.1756 433.662V438H26.9876V433.662L23.3156 438H21.8756L25.9076 433.32L22.0556 429H23.4956L26.9876 432.996V429H28.1756V432.996L31.6676 429H33.1076L29.2556 433.32L33.2876 438ZM41.4565 429H42.4645V438H41.2765V431.07L35.9125 438H34.9045V429H36.0925V435.93L41.4565 429ZM53.7968 429V438H52.6088V430.818L49.4588 435.93H49.3148L46.1648 430.818V438H44.9768V429H46.3448L49.3868 433.932L52.4288 429H53.7968ZM64.0547 429H65.2427V438H64.0547V436.236C63.2267 437.556 62.0147 438.216 60.4187 438.216C59.1347 438.216 58.0367 437.76 57.1247 436.848C56.2247 435.936 55.7747 434.82 55.7747 433.5C55.7747 432.18 56.2247 431.064 57.1247 430.152C58.0367 429.24 59.1347 428.784 60.4187 428.784C62.0147 428.784 63.2267 429.444 64.0547 430.764V429ZM57.9887 436.038C58.6727 436.722 59.5127 437.064 60.5087 437.064C61.5047 437.064 62.3447 436.722 63.0287 436.038C63.7127 435.342 64.0547 434.496 64.0547 433.5C64.0547 432.504 63.7127 431.664 63.0287 430.98C62.3447 430.284 61.5047 429.936 60.5087 429.936C59.5127 429.936 58.6727 430.284 57.9887 430.98C57.3047 431.664 56.9627 432.504 56.9627 433.5C56.9627 434.496 57.3047 435.342 57.9887 436.038ZM74.238 429V438H73.05V434.544H71.502L68.73 438H67.218L70.062 434.508C69.342 434.4 68.748 434.1 68.28 433.608C67.812 433.116 67.578 432.51 67.578 431.79C67.578 430.974 67.866 430.308 68.442 429.792C69.03 429.264 69.744 429 70.584 429H74.238ZM70.584 433.428H73.05V430.152H70.584C70.08 430.152 69.648 430.302 69.288 430.602C68.94 430.902 68.766 431.298 68.766 431.79C68.766 432.282 68.94 432.678 69.288 432.978C69.648 433.278 70.08 433.428 70.584 433.428ZM88.53 438H86.946L82.446 433.662V438H81.258V429H82.446V432.978L86.73 429H88.35L83.706 433.32L88.53 438ZM96.5246 429H97.7126V438H96.5246V434.076H91.3406V438H90.1526V429H91.3406V432.924H96.5246V429ZM107.767 436.866C106.855 437.766 105.739 438.216 104.419 438.216C103.099 438.216 101.977 437.766 101.053 436.866C100.141 435.954 99.6848 434.832 99.6848 433.5C99.6848 432.168 100.141 431.052 101.053 430.152C101.977 429.24 103.099 428.784 104.419 428.784C105.739 428.784 106.855 429.24 107.767 430.152C108.691 431.052 109.153 432.168 109.153 433.5C109.153 434.832 108.691 435.954 107.767 436.866ZM101.899 436.038C102.583 436.722 103.423 437.064 104.419 437.064C105.415 437.064 106.255 436.722 106.939 436.038C107.623 435.342 107.965 434.496 107.965 433.5C107.965 432.504 107.623 431.664 106.939 430.98C106.255 430.284 105.415 429.936 104.419 429.936C103.423 429.936 102.583 430.284 101.899 430.98C101.215 431.664 100.873 432.504 100.873 433.5C100.873 434.496 101.215 435.342 101.899 436.038ZM118.701 429V438H117.513V430.152H112.329V438H111.141V429H118.701ZM128.485 438H126.901L122.401 433.662V438H121.213V429H122.401V432.978L126.685 429H128.305L123.661 433.32L128.485 438ZM136.236 429H137.496L133.644 438.828C133.296 439.716 132.798 440.412 132.15 440.916C131.514 441.432 130.8 441.66 130.008 441.6V440.484C131.088 440.604 131.91 439.98 132.474 438.612L132.708 438.054L128.676 429H129.936L133.32 436.542L136.236 429ZM146.888 429.198L144.908 432.438L146.888 435.678H145.412L143.432 432.438L145.412 429.198H146.888ZM149.768 429.198L147.788 432.438L149.768 435.678H148.292L146.312 432.438L148.292 429.198H149.768ZM159.288 436.866C158.376 437.766 157.26 438.216 155.94 438.216C154.62 438.216 153.498 437.766 152.574 436.866C151.662 435.954 151.206 434.832 151.206 433.5C151.206 432.168 151.662 431.052 152.574 430.152C153.498 429.24 154.62 428.784 155.94 428.784C157.26 428.784 158.376 429.24 159.288 430.152C160.212 431.052 160.674 432.168 160.674 433.5C160.674 434.832 160.212 435.954 159.288 436.866ZM153.42 436.038C154.104 436.722 154.944 437.064 155.94 437.064C156.936 437.064 157.776 436.722 158.46 436.038C159.144 435.342 159.486 434.496 159.486 433.5C159.486 432.504 159.144 431.664 158.46 430.98C157.776 430.284 156.936 429.936 155.94 429.936C154.944 429.936 154.104 430.284 153.42 430.98C152.736 431.664 152.394 432.504 152.394 433.5C152.394 434.496 152.736 435.342 153.42 436.038ZM166.856 438.216C165.5 438.216 164.372 437.766 163.472 436.866C162.572 435.954 162.122 434.832 162.122 433.5C162.122 432.168 162.572 431.052 163.472 430.152C164.372 429.24 165.5 428.784 166.856 428.784C167.744 428.784 168.542 429 169.25 429.432C169.958 429.852 170.474 430.422 170.798 431.142L169.826 431.7C169.586 431.16 169.196 430.734 168.656 430.422C168.128 430.098 167.528 429.936 166.856 429.936C165.86 429.936 165.02 430.284 164.336 430.98C163.652 431.664 163.31 432.504 163.31 433.5C163.31 434.496 163.652 435.342 164.336 436.038C165.02 436.722 165.86 437.064 166.856 437.064C167.528 437.064 168.128 436.908 168.656 436.596C169.184 436.272 169.598 435.84 169.898 435.3L170.888 435.876C170.516 436.596 169.97 437.166 169.25 437.586C168.53 438.006 167.732 438.216 166.856 438.216ZM178.898 429V430.152H175.712V438H174.524V430.152H171.338V429H178.898ZM187.734 429H188.922V438H187.734V436.236C186.906 437.556 185.694 438.216 184.098 438.216C182.814 438.216 181.716 437.76 180.804 436.848C179.904 435.936 179.454 434.82 179.454 433.5C179.454 432.18 179.904 431.064 180.804 430.152C181.716 429.24 182.814 428.784 184.098 428.784C185.694 428.784 186.906 429.444 187.734 430.764V429ZM181.668 436.038C182.352 436.722 183.192 437.064 184.188 437.064C185.184 437.064 186.024 436.722 186.708 436.038C187.392 435.342 187.734 434.496 187.734 433.5C187.734 432.504 187.392 431.664 186.708 430.98C186.024 430.284 185.184 429.936 184.188 429.936C183.192 429.936 182.352 430.284 181.668 430.98C180.984 431.664 180.642 432.504 180.642 433.5C180.642 434.496 180.984 435.342 181.668 436.038ZM197.162 433.374C198.146 433.734 198.638 434.436 198.638 435.48C198.638 436.212 198.392 436.818 197.9 437.298C197.42 437.766 196.724 438 195.812 438H191.438V429H195.452C196.328 429 197.006 429.228 197.486 429.684C197.966 430.128 198.206 430.704 198.206 431.412C198.206 432.312 197.858 432.966 197.162 433.374ZM195.452 430.152H192.626V432.888H195.452C196.496 432.888 197.018 432.42 197.018 431.484C197.018 431.064 196.88 430.74 196.604 430.512C196.34 430.272 195.956 430.152 195.452 430.152ZM195.812 436.848C196.34 436.848 196.742 436.722 197.018 436.47C197.306 436.218 197.45 435.864 197.45 435.408C197.45 434.988 197.306 434.658 197.018 434.418C196.742 434.166 196.34 434.04 195.812 434.04H192.626V436.848H195.812ZM206.99 429H207.998V438H206.81V431.07L201.446 438H200.438V429H201.626V435.93L206.99 429ZM216.99 429V430.152H213.804V438H212.616V430.152H209.43V429H216.99ZM222.092 432.42C222.932 432.42 223.64 432.684 224.216 433.212C224.804 433.728 225.098 434.394 225.098 435.21C225.098 436.026 224.804 436.698 224.216 437.226C223.64 437.742 222.932 438 222.092 438H218.438V429H219.626V432.42H222.092ZM222.092 436.848C222.596 436.848 223.022 436.698 223.37 436.398C223.73 436.098 223.91 435.702 223.91 435.21C223.91 434.718 223.73 434.322 223.37 434.022C223.022 433.722 222.596 433.572 222.092 433.572H219.626V436.848H222.092ZM236.037 433.374C237.081 433.77 237.603 434.49 237.603 435.534C237.603 436.278 237.309 436.914 236.721 437.442C236.145 437.958 235.317 438.216 234.237 438.216C232.425 438.216 231.237 437.496 230.673 436.056L231.681 435.462C232.053 436.53 232.905 437.064 234.237 437.064C234.933 437.064 235.467 436.914 235.839 436.614C236.223 436.314 236.415 435.93 236.415 435.462C236.415 435.042 236.259 434.7 235.947 434.436C235.635 434.172 235.215 434.04 234.687 434.04H233.373V432.888H234.327C234.843 432.888 235.245 432.762 235.533 432.51C235.833 432.246 235.983 431.886 235.983 431.43C235.983 430.998 235.809 430.644 235.461 430.368C235.113 430.08 234.645 429.936 234.057 429.936C232.929 429.936 232.179 430.386 231.807 431.286L230.817 430.71C231.417 429.426 232.497 428.784 234.057 428.784C235.005 428.784 235.761 429.036 236.325 429.54C236.889 430.032 237.171 430.638 237.171 431.358C237.171 432.282 236.793 432.954 236.037 433.374ZM247.148 429H248.336V438H247.148V436.236C246.32 437.556 245.108 438.216 243.512 438.216C242.228 438.216 241.13 437.76 240.218 436.848C239.318 435.936 238.868 434.82 238.868 433.5C238.868 432.18 239.318 431.064 240.218 430.152C241.13 429.24 242.228 428.784 243.512 428.784C245.108 428.784 246.32 429.444 247.148 430.764V429ZM241.082 436.038C241.766 436.722 242.606 437.064 243.602 437.064C244.598 437.064 245.438 436.722 246.122 436.038C246.806 435.342 247.148 434.496 247.148 433.5C247.148 432.504 246.806 431.664 246.122 430.98C245.438 430.284 244.598 429.936 243.602 429.936C242.606 429.936 241.766 430.284 241.082 430.98C240.398 431.664 240.056 432.504 240.056 433.5C240.056 434.496 240.398 435.342 241.082 436.038ZM257.332 429V438H256.144V434.544H254.596L251.824 438H250.312L253.156 434.508C252.436 434.4 251.842 434.1 251.374 433.608C250.906 433.116 250.672 432.51 250.672 431.79C250.672 430.974 250.96 430.308 251.536 429.792C252.124 429.264 252.838 429 253.678 429H257.332ZM253.678 433.428H256.144V430.152H253.678C253.174 430.152 252.742 430.302 252.382 430.602C252.034 430.902 251.86 431.298 251.86 431.79C251.86 432.282 252.034 432.678 252.382 432.978C252.742 433.278 253.174 433.428 253.678 433.428ZM265.576 433.374C266.56 433.734 267.052 434.436 267.052 435.48C267.052 436.212 266.806 436.818 266.314 437.298C265.834 437.766 265.138 438 264.226 438H259.852V429H263.866C264.742 429 265.42 429.228 265.9 429.684C266.38 430.128 266.62 430.704 266.62 431.412C266.62 432.312 266.272 432.966 265.576 433.374ZM263.866 430.152H261.04V432.888H263.866C264.91 432.888 265.432 432.42 265.432 431.484C265.432 431.064 265.294 430.74 265.018 430.512C264.754 430.272 264.37 430.152 263.866 430.152ZM264.226 436.848C264.754 436.848 265.156 436.722 265.432 436.47C265.72 436.218 265.864 435.864 265.864 435.408C265.864 434.988 265.72 434.658 265.432 434.418C265.156 434.166 264.754 434.04 264.226 434.04H261.04V436.848H264.226ZM276.124 438H274.54L270.04 433.662V438H268.852V429H270.04V432.978L274.324 429H275.944L271.3 433.32L276.124 438ZM283.875 429H285.135L281.283 438.828C280.935 439.716 280.437 440.412 279.789 440.916C279.153 441.432 278.439 441.66 277.647 441.6V440.484C278.727 440.604 279.549 439.98 280.113 438.612L280.347 438.054L276.315 429H277.575L280.959 436.542L283.875 429ZM287.502 429.198L289.482 432.438L287.502 435.678H286.026L288.006 432.438L286.026 429.198H287.502ZM290.382 429.198L292.362 432.438L290.382 435.678H288.906L290.886 432.438L288.906 429.198H290.382ZM296.865 436.47L295.785 440.52H294.705L295.425 436.47H296.865ZM309.433 433.374C310.417 433.734 310.909 434.436 310.909 435.48C310.909 436.212 310.663 436.818 310.171 437.298C309.691 437.766 308.995 438 308.083 438H303.709V429H307.723C308.599 429 309.277 429.228 309.757 429.684C310.237 430.128 310.477 430.704 310.477 431.412C310.477 432.312 310.129 432.966 309.433 433.374ZM307.723 430.152H304.897V432.888H307.723C308.767 432.888 309.289 432.42 309.289 431.484C309.289 431.064 309.151 430.74 308.875 430.512C308.611 430.272 308.227 430.152 307.723 430.152ZM308.083 436.848C308.611 436.848 309.013 436.722 309.289 436.47C309.577 436.218 309.721 435.864 309.721 435.408C309.721 434.988 309.577 434.658 309.289 434.418C309.013 434.166 308.611 434.04 308.083 434.04H304.897V436.848H308.083ZM316.363 432.42C317.203 432.42 317.911 432.684 318.487 433.212C319.075 433.728 319.369 434.394 319.369 435.21C319.369 436.026 319.075 436.698 318.487 437.226C317.911 437.742 317.203 438 316.363 438H312.709V429H313.897V432.42H316.363ZM320.629 429H321.817V438H320.629V429ZM316.363 436.848C316.867 436.848 317.293 436.698 317.641 436.398C318.001 436.098 318.181 435.702 318.181 435.21C318.181 434.718 318.001 434.322 317.641 434.022C317.293 433.722 316.867 433.572 316.363 433.572H313.897V436.848H316.363ZM336.406 429V438H335.218V430.152H330.034V438H328.846V429H336.406ZM343.742 428.784C345.026 428.784 346.118 429.24 347.018 430.152C347.93 431.064 348.386 432.18 348.386 433.5C348.386 434.82 347.93 435.936 347.018 436.848C346.118 437.76 345.026 438.216 343.742 438.216C342.146 438.216 340.934 437.556 340.106 436.236V441.6H338.918V429H340.106V430.764C340.934 429.444 342.146 428.784 343.742 428.784ZM341.132 436.038C341.816 436.722 342.656 437.064 343.652 437.064C344.648 437.064 345.488 436.722 346.172 436.038C346.856 435.342 347.198 434.496 347.198 433.5C347.198 432.504 346.856 431.664 346.172 430.98C345.488 430.284 344.648 429.936 343.652 429.936C342.656 429.936 341.816 430.284 341.132 430.98C340.448 431.664 340.106 432.504 340.106 433.5C340.106 434.496 340.448 435.342 341.132 436.038ZM356.914 429H357.922V438H356.734V431.07L351.37 438H350.362V429H351.55V435.93L356.914 429ZM366.806 429H367.994V438H366.806V434.076H361.622V438H360.434V429H361.622V432.924H366.806V429ZM377.058 429H378.066V438H376.878V431.07L371.514 438H370.506V429H371.694V435.93L377.058 429ZM389.398 429V438H388.21V430.818L385.06 435.93H384.916L381.766 430.818V438H380.578V429H381.946L384.988 433.932L388.03 429H389.398ZM399.656 429H400.844V438H399.656V436.236C398.828 437.556 397.616 438.216 396.02 438.216C394.736 438.216 393.638 437.76 392.726 436.848C391.826 435.936 391.376 434.82 391.376 433.5C391.376 432.18 391.826 431.064 392.726 430.152C393.638 429.24 394.736 428.784 396.02 428.784C397.616 428.784 398.828 429.444 399.656 430.764V429ZM393.59 436.038C394.274 436.722 395.114 437.064 396.11 437.064C397.106 437.064 397.946 436.722 398.63 436.038C399.314 435.342 399.656 434.496 399.656 433.5C399.656 432.504 399.314 431.664 398.63 430.98C397.946 430.284 397.106 429.936 396.11 429.936C395.114 429.936 394.274 430.284 393.59 430.98C392.906 431.664 392.564 432.504 392.564 433.5C392.564 434.496 392.906 435.342 393.59 436.038ZM407.518 428.784C408.85 428.784 409.924 429.258 410.74 430.206C411.568 431.142 411.982 432.252 411.982 433.536C411.982 433.668 411.97 433.854 411.946 434.094H404.044C404.164 435.006 404.548 435.732 405.196 436.272C405.856 436.8 406.666 437.064 407.626 437.064C408.31 437.064 408.898 436.926 409.39 436.65C409.894 436.362 410.272 435.99 410.524 435.534L411.568 436.146C411.172 436.782 410.632 437.286 409.948 437.658C409.264 438.03 408.484 438.216 407.608 438.216C406.192 438.216 405.04 437.772 404.152 436.884C403.264 435.996 402.82 434.868 402.82 433.5C402.82 432.156 403.258 431.034 404.134 430.134C405.01 429.234 406.138 428.784 407.518 428.784ZM407.518 429.936C406.582 429.936 405.796 430.218 405.16 430.782C404.536 431.334 404.164 432.054 404.044 432.942H410.758C410.638 431.994 410.272 431.256 409.66 430.728C409.048 430.2 408.334 429.936 407.518 429.936ZM420 429V430.152H416.814V438H415.626V430.152H412.44V429H420ZM425.254 428.784C426.586 428.784 427.66 429.258 428.476 430.206C429.304 431.142 429.718 432.252 429.718 433.536C429.718 433.668 429.706 433.854 429.682 434.094H421.78C421.9 435.006 422.284 435.732 422.932 436.272C423.592 436.8 424.402 437.064 425.362 437.064C426.046 437.064 426.634 436.926 427.126 436.65C427.63 436.362 428.008 435.99 428.26 435.534L429.304 436.146C428.908 436.782 428.368 437.286 427.684 437.658C427 438.03 426.22 438.216 425.344 438.216C423.928 438.216 422.776 437.772 421.888 436.884C421 435.996 420.556 434.868 420.556 433.5C420.556 432.156 420.994 431.034 421.87 430.134C422.746 429.234 423.874 428.784 425.254 428.784ZM425.254 429.936C424.318 429.936 423.532 430.218 422.896 430.782C422.272 431.334 421.9 432.054 421.78 432.942H428.494C428.374 431.994 428.008 431.256 427.396 430.728C426.784 430.2 426.07 429.936 425.254 429.936ZM442.588 429H443.848L439.996 438.828C439.648 439.716 439.15 440.412 438.502 440.916C437.866 441.432 437.152 441.66 436.36 441.6V440.484C437.44 440.604 438.262 439.98 438.826 438.612L439.06 438.054L435.028 429H436.288L439.672 436.542L442.588 429ZM449.126 438.216C447.77 438.216 446.642 437.766 445.742 436.866C444.842 435.954 444.392 434.832 444.392 433.5C444.392 432.168 444.842 431.052 445.742 430.152C446.642 429.24 447.77 428.784 449.126 428.784C450.014 428.784 450.812 429 451.52 429.432C452.228 429.852 452.744 430.422 453.068 431.142L452.096 431.7C451.856 431.16 451.466 430.734 450.926 430.422C450.398 430.098 449.798 429.936 449.126 429.936C448.13 429.936 447.29 430.284 446.606 430.98C445.922 431.664 445.58 432.504 445.58 433.5C445.58 434.496 445.922 435.342 446.606 436.038C447.29 436.722 448.13 437.064 449.126 437.064C449.798 437.064 450.398 436.908 450.926 436.596C451.454 436.272 451.868 435.84 452.168 435.3L453.158 435.876C452.786 436.596 452.24 437.166 451.52 437.586C450.8 438.006 450.002 438.216 449.126 438.216ZM462.068 429V438H460.88V430.152H456.812V434.166C456.812 435.666 456.524 436.698 455.948 437.262C455.384 437.826 454.604 438.072 453.608 438V436.884C454.292 436.956 454.796 436.794 455.12 436.398C455.456 436.002 455.624 435.258 455.624 434.166V429H462.068ZM472.126 436.866C471.214 437.766 470.098 438.216 468.778 438.216C467.458 438.216 466.336 437.766 465.412 436.866C464.5 435.954 464.044 434.832 464.044 433.5C464.044 432.168 464.5 431.052 465.412 430.152C466.336 429.24 467.458 428.784 468.778 428.784C470.098 428.784 471.214 429.24 472.126 430.152C473.05 431.052 473.512 432.168 473.512 433.5C473.512 434.832 473.05 435.954 472.126 436.866ZM466.258 436.038C466.942 436.722 467.782 437.064 468.778 437.064C469.774 437.064 470.614 436.722 471.298 436.038C471.982 435.342 472.324 434.496 472.324 433.5C472.324 432.504 471.982 431.664 471.298 430.98C470.614 430.284 469.774 429.936 468.778 429.936C467.782 429.936 466.942 430.284 466.258 430.98C465.574 431.664 465.232 432.504 465.232 433.5C465.232 434.496 465.574 435.342 466.258 436.038ZM481.224 433.374C482.208 433.734 482.7 434.436 482.7 435.48C482.7 436.212 482.454 436.818 481.962 437.298C481.482 437.766 480.786 438 479.874 438H475.5V429H479.514C480.39 429 481.068 429.228 481.548 429.684C482.028 430.128 482.268 430.704 482.268 431.412C482.268 432.312 481.92 432.966 481.224 433.374ZM479.514 430.152H476.688V432.888H479.514C480.558 432.888 481.08 432.42 481.08 431.484C481.08 431.064 480.942 430.74 480.666 430.512C480.402 430.272 480.018 430.152 479.514 430.152ZM479.874 436.848C480.402 436.848 480.804 436.722 481.08 436.47C481.368 436.218 481.512 435.864 481.512 435.408C481.512 434.988 481.368 434.658 481.08 434.418C480.804 434.166 480.402 434.04 479.874 434.04H476.688V436.848H479.874ZM491.052 429H492.06V438H490.872V431.07L485.508 438H484.5V429H485.688V435.93L491.052 429ZM501.053 429V438H499.865V434.544H498.317L495.545 438H494.033L496.877 434.508C496.157 434.4 495.563 434.1 495.095 433.608C494.627 433.116 494.393 432.51 494.393 431.79C494.393 430.974 494.681 430.308 495.257 429.792C495.845 429.264 496.559 429 497.399 429H501.053ZM497.399 433.428H499.865V430.152H497.399C496.895 430.152 496.463 430.302 496.103 430.602C495.755 430.902 495.581 431.298 495.581 431.79C495.581 432.282 495.755 432.678 496.103 432.978C496.463 433.278 496.895 433.428 497.399 433.428ZM515.633 429V438H514.445V430.152H509.261V438H508.073V429H515.633ZM522.303 428.784C523.635 428.784 524.709 429.258 525.525 430.206C526.353 431.142 526.767 432.252 526.767 433.536C526.767 433.668 526.755 433.854 526.731 434.094H518.829C518.949 435.006 519.333 435.732 519.981 436.272C520.641 436.8 521.451 437.064 522.411 437.064C523.095 437.064 523.683 436.926 524.175 436.65C524.679 436.362 525.057 435.99 525.309 435.534L526.353 436.146C525.957 436.782 525.417 437.286 524.733 437.658C524.049 438.03 523.269 438.216 522.393 438.216C520.977 438.216 519.825 437.772 518.937 436.884C518.049 435.996 517.605 434.868 517.605 433.5C517.605 432.156 518.043 431.034 518.919 430.134C519.795 429.234 520.923 428.784 522.303 428.784ZM522.303 429.936C521.367 429.936 520.581 430.218 519.945 430.782C519.321 431.334 518.949 432.054 518.829 432.942H525.543C525.423 431.994 525.057 431.256 524.445 430.728C523.833 430.2 523.119 429.936 522.303 429.936ZM533.48 428.784C534.764 428.784 535.856 429.24 536.756 430.152C537.668 431.064 538.124 432.18 538.124 433.5C538.124 434.82 537.668 435.936 536.756 436.848C535.856 437.76 534.764 438.216 533.48 438.216C531.884 438.216 530.672 437.556 529.844 436.236V441.6H528.656V429H529.844V430.764C530.672 429.444 531.884 428.784 533.48 428.784ZM530.87 436.038C531.554 436.722 532.394 437.064 533.39 437.064C534.386 437.064 535.226 436.722 535.91 436.038C536.594 435.342 536.936 434.496 536.936 433.5C536.936 432.504 536.594 431.664 535.91 430.98C535.226 430.284 534.386 429.936 533.39 429.936C532.394 429.936 531.554 430.284 530.87 430.98C530.186 431.664 529.844 432.504 529.844 433.5C529.844 434.496 530.186 435.342 530.87 436.038ZM544.258 428.784C545.59 428.784 546.664 429.258 547.48 430.206C548.308 431.142 548.722 432.252 548.722 433.536C548.722 433.668 548.71 433.854 548.686 434.094H540.784C540.904 435.006 541.288 435.732 541.936 436.272C542.596 436.8 543.406 437.064 544.366 437.064C545.05 437.064 545.638 436.926 546.13 436.65C546.634 436.362 547.012 435.99 547.264 435.534L548.308 436.146C547.912 436.782 547.372 437.286 546.688 437.658C546.004 438.03 545.224 438.216 544.348 438.216C542.932 438.216 541.78 437.772 540.892 436.884C540.004 435.996 539.56 434.868 539.56 433.5C539.56 432.156 539.998 431.034 540.874 430.134C541.75 429.234 542.878 428.784 544.258 428.784ZM544.258 429.936C543.322 429.936 542.536 430.218 541.9 430.782C541.276 431.334 540.904 432.054 540.784 432.942H547.498C547.378 431.994 547.012 431.256 546.4 430.728C545.788 430.2 545.074 429.936 544.258 429.936ZM557.82 436.848H559.08V440.412H557.892V438H550.548V440.412H549.36V436.848H550.458C551.07 436.044 551.376 434.91 551.376 433.446V429H557.82V436.848ZM551.898 436.848H556.632V430.152H552.564V433.446C552.564 434.826 552.342 435.96 551.898 436.848ZM568.266 429H569.454V438H568.266V436.236C567.438 437.556 566.226 438.216 564.63 438.216C563.346 438.216 562.248 437.76 561.336 436.848C560.436 435.936 559.986 434.82 559.986 433.5C559.986 432.18 560.436 431.064 561.336 430.152C562.248 429.24 563.346 428.784 564.63 428.784C566.226 428.784 567.438 429.444 568.266 430.764V429ZM562.2 436.038C562.884 436.722 563.724 437.064 564.72 437.064C565.716 437.064 566.556 436.722 567.24 436.038C567.924 435.342 568.266 434.496 568.266 433.5C568.266 432.504 567.924 431.664 567.24 430.98C566.556 430.284 565.716 429.936 564.72 429.936C563.724 429.936 562.884 430.284 562.2 430.98C561.516 431.664 561.174 432.504 561.174 433.5C561.174 434.496 561.516 435.342 562.2 436.038ZM577.801 429H578.989V438H577.801V434.58C577.105 434.94 576.247 435.12 575.227 435.12C574.051 435.12 573.151 434.85 572.527 434.31C571.915 433.758 571.609 432.948 571.609 431.88V429H572.797V431.88C572.797 432.636 572.995 433.182 573.391 433.518C573.787 433.842 574.387 434.004 575.191 434.004C576.127 434.004 576.997 433.83 577.801 433.482V429ZM588.066 429H589.074V438H587.886V431.07L582.522 438H581.514V429H582.702V435.93L588.066 429ZM602.566 429H603.826L599.974 438.828C599.626 439.716 599.128 440.412 598.48 440.916C597.844 441.432 597.13 441.66 596.338 441.6V440.484C597.418 440.604 598.24 439.98 598.804 438.612L599.038 438.054L595.006 429H596.266L599.65 436.542L602.566 429ZM612.534 438H610.95L606.45 433.662V438H605.262V429H606.45V432.978L610.734 429H612.354L607.71 433.32L612.534 438ZM621 429H622.188V438H621V436.236C620.172 437.556 618.96 438.216 617.364 438.216C616.08 438.216 614.982 437.76 614.07 436.848C613.17 435.936 612.72 434.82 612.72 433.5C612.72 432.18 613.17 431.064 614.07 430.152C614.982 429.24 616.08 428.784 617.364 428.784C618.96 428.784 620.172 429.444 621 430.764V429ZM614.934 436.038C615.618 436.722 616.458 437.064 617.454 437.064C618.45 437.064 619.29 436.722 619.974 436.038C620.658 435.342 621 434.496 621 433.5C621 432.504 620.658 431.664 619.974 430.98C619.29 430.284 618.45 429.936 617.454 429.936C616.458 429.936 615.618 430.284 614.934 430.98C614.25 431.664 613.908 432.504 613.908 433.5C613.908 434.496 614.25 435.342 614.934 436.038ZM629.347 433.374C630.391 433.77 630.913 434.49 630.913 435.534C630.913 436.278 630.619 436.914 630.031 437.442C629.455 437.958 628.627 438.216 627.547 438.216C625.735 438.216 624.547 437.496 623.983 436.056L624.991 435.462C625.363 436.53 626.215 437.064 627.547 437.064C628.243 437.064 628.777 436.914 629.149 436.614C629.533 436.314 629.725 435.93 629.725 435.462C629.725 435.042 629.569 434.7 629.257 434.436C628.945 434.172 628.525 434.04 627.997 434.04H626.683V432.888H627.637C628.153 432.888 628.555 432.762 628.843 432.51C629.143 432.246 629.293 431.886 629.293 431.43C629.293 430.998 629.119 430.644 628.771 430.368C628.423 430.08 627.955 429.936 627.367 429.936C626.239 429.936 625.489 430.386 625.117 431.286L624.127 430.71C624.727 429.426 625.807 428.784 627.367 428.784C628.315 428.784 629.071 429.036 629.635 429.54C630.199 430.032 630.481 430.638 630.481 431.358C630.481 432.282 630.103 432.954 629.347 433.374ZM640.459 429H641.647V438H640.459V436.236C639.631 437.556 638.419 438.216 636.823 438.216C635.539 438.216 634.441 437.76 633.529 436.848C632.629 435.936 632.179 434.82 632.179 433.5C632.179 432.18 632.629 431.064 633.529 430.152C634.441 429.24 635.539 428.784 636.823 428.784C638.419 428.784 639.631 429.444 640.459 430.764V429ZM634.393 436.038C635.077 436.722 635.917 437.064 636.913 437.064C637.909 437.064 638.749 436.722 639.433 436.038C640.117 435.342 640.459 434.496 640.459 433.5C640.459 432.504 640.117 431.664 639.433 430.98C638.749 430.284 637.909 429.936 636.913 429.936C635.917 429.936 635.077 430.284 634.393 430.98C633.709 431.664 633.367 432.504 633.367 433.5C633.367 434.496 633.709 435.342 634.393 436.038ZM650.534 429H651.722V438H650.534V434.076H645.35V438H644.162V429H645.35V432.924H650.534V429ZM660.607 429H661.795V438H660.607V434.076H655.423V438H654.235V429H655.423V432.924H660.607V429ZM671.849 436.866C670.937 437.766 669.821 438.216 668.501 438.216C667.181 438.216 666.059 437.766 665.135 436.866C664.223 435.954 663.767 434.832 663.767 433.5C663.767 432.168 664.223 431.052 665.135 430.152C666.059 429.24 667.181 428.784 668.501 428.784C669.821 428.784 670.937 429.24 671.849 430.152C672.773 431.052 673.235 432.168 673.235 433.5C673.235 434.832 672.773 435.954 671.849 436.866ZM665.981 436.038C666.665 436.722 667.505 437.064 668.501 437.064C669.497 437.064 670.337 436.722 671.021 436.038C671.705 435.342 672.047 434.496 672.047 433.5C672.047 432.504 671.705 431.664 671.021 430.98C670.337 430.284 669.497 429.936 668.501 429.936C667.505 429.936 666.665 430.284 665.981 430.98C665.297 431.664 664.955 432.504 664.955 433.5C664.955 434.496 665.297 435.342 665.981 436.038ZM676.663 427.56V426.516H681.343V427.56H676.663ZM681.775 429H682.783V438H681.595V431.07L676.231 438H675.223V429H676.411V435.93L681.775 429ZM696.347 429H697.355V438H696.167V431.07L690.803 438H689.795V429H690.983V435.93L696.347 429ZM706.239 429H707.427V438H706.239V434.076H701.055V438H699.867V429H701.055V432.924H706.239V429ZM718.724 430.296C719.588 431.172 720.02 432.24 720.02 433.5C720.02 434.76 719.588 435.828 718.724 436.704C717.86 437.58 716.72 438.078 715.304 438.198V441.6H714.116V438.198C712.7 438.078 711.56 437.58 710.696 436.704C709.832 435.828 709.4 434.76 709.4 433.5C709.4 432.24 709.832 431.172 710.696 430.296C711.56 429.42 712.7 428.922 714.116 428.802V425.4H715.304V428.802C716.72 428.922 717.86 429.42 718.724 430.296ZM711.542 431.124C710.906 431.772 710.588 432.564 710.588 433.5C710.588 434.436 710.906 435.234 711.542 435.894C712.178 436.542 713.036 436.92 714.116 437.028V429.972C713.036 430.08 712.178 430.464 711.542 431.124ZM715.304 437.028C716.384 436.92 717.242 436.542 717.878 435.894C718.514 435.234 718.832 434.436 718.832 433.5C718.832 432.564 718.514 431.772 717.878 431.124C717.242 430.464 716.384 430.08 715.304 429.972V437.028ZM729.54 436.866C728.628 437.766 727.512 438.216 726.192 438.216C724.872 438.216 723.75 437.766 722.826 436.866C721.914 435.954 721.458 434.832 721.458 433.5C721.458 432.168 721.914 431.052 722.826 430.152C723.75 429.24 724.872 428.784 726.192 428.784C727.512 428.784 728.628 429.24 729.54 430.152C730.464 431.052 730.926 432.168 730.926 433.5C730.926 434.832 730.464 435.954 729.54 436.866ZM723.672 436.038C724.356 436.722 725.196 437.064 726.192 437.064C727.188 437.064 728.028 436.722 728.712 436.038C729.396 435.342 729.738 434.496 729.738 433.5C729.738 432.504 729.396 431.664 728.712 430.98C728.028 430.284 727.188 429.936 726.192 429.936C725.196 429.936 724.356 430.284 723.672 430.98C722.988 431.664 722.646 432.504 722.646 433.5C722.646 434.496 722.988 435.342 723.672 436.038ZM737.738 428.784C739.022 428.784 740.114 429.24 741.014 430.152C741.926 431.064 742.382 432.18 742.382 433.5C742.382 434.82 741.926 435.936 741.014 436.848C740.114 437.76 739.022 438.216 737.738 438.216C736.142 438.216 734.93 437.556 734.102 436.236V441.6H732.914V429H734.102V430.764C734.93 429.444 736.142 428.784 737.738 428.784ZM735.128 436.038C735.812 436.722 736.652 437.064 737.648 437.064C738.644 437.064 739.484 436.722 740.168 436.038C740.852 435.342 741.194 434.496 741.194 433.5C741.194 432.504 740.852 431.664 740.168 430.98C739.484 430.284 738.644 429.936 737.648 429.936C736.652 429.936 735.812 430.284 735.128 430.98C734.444 431.664 734.102 432.504 734.102 433.5C734.102 434.496 734.444 435.342 735.128 436.038ZM753.178 429V438H751.99V430.818L748.84 435.93H748.696L745.546 430.818V438H744.358V429H745.726L748.768 433.932L751.81 429H753.178ZM763.436 429H764.624V438H763.436V436.236C762.608 437.556 761.396 438.216 759.8 438.216C758.516 438.216 757.418 437.76 756.506 436.848C755.606 435.936 755.156 434.82 755.156 433.5C755.156 432.18 755.606 431.064 756.506 430.152C757.418 429.24 758.516 428.784 759.8 428.784C761.396 428.784 762.608 429.444 763.436 430.764V429ZM757.37 436.038C758.054 436.722 758.894 437.064 759.89 437.064C760.886 437.064 761.726 436.722 762.41 436.038C763.094 435.342 763.436 434.496 763.436 433.5C763.436 432.504 763.094 431.664 762.41 430.98C761.726 430.284 760.886 429.936 759.89 429.936C758.894 429.936 758.054 430.284 757.37 430.98C756.686 431.664 756.344 432.504 756.344 433.5C756.344 434.496 756.686 435.342 757.37 436.038ZM774.519 436.848H775.959V440.412H774.771V438H767.139V429H768.327V436.848H773.331V429H774.519V436.848ZM784.308 429H785.316V438H784.128V431.07L778.764 438H777.756V429H778.944V435.93L784.308 429ZM794.38 429H795.388V438H794.2V431.07L788.836 438H787.828V429H789.016V435.93L794.38 429Z" fill="white"/>
<path d="M434.848 441.6H796.648V442.5H434.848V441.6Z" fill="white"/>
<defs>
<filter id="filter0_b_402_7" x="44" y="-30" width="708.599" height="138" filterUnits="userSpaceOnUse" color-interpolation-filters="sRGB">
<feFlood flood-opacity="0" result="BackgroundImageFix"/>
<feGaussianBlur in="BackgroundImageFix" stdDeviation="15"/>
<feComposite in2="SourceAlpha" operator="in" result="effect1_backgroundBlur_402_7"/>
<feBlend mode="normal" in="SourceGraphic" in2="effect1_backgroundBlur_402_7" result="shape"/>
</filter>
<filter id="filter1_b_402_7" x="44" y="68" width="708.599" height="138" filterUnits="userSpaceOnUse" color-interpolation-filters="sRGB">
<feFlood flood-opacity="0" result="BackgroundImageFix"/>
<feGaussianBlur in="BackgroundImageFix" stdDeviation="15"/>
<feComposite in2="SourceAlpha" operator="in" result="effect1_backgroundBlur_402_7"/>
<feBlend mode="normal" in="SourceGraphic" in2="effect1_backgroundBlur_402_7" result="shape"/>
</filter>
<filter id="filter2_b_402_7" x="44" y="166" width="708.599" height="138" filterUnits="userSpaceOnUse" color-interpolation-filters="sRGB">
<feFlood flood-opacity="0" result="BackgroundImageFix"/>
<feGaussianBlur in="BackgroundImageFix" stdDeviation="15"/>
<feComposite in2="SourceAlpha" operator="in" result="effect1_backgroundBlur_402_7"/>
<feBlend mode="normal" in="SourceGraphic" in2="effect1_backgroundBlur_402_7" result="shape"/>
</filter>
<filter id="filter3_d_402_7" x="28" y="260" width="745" height="178" filterUnits="userSpaceOnUse" color-interpolation-filters="sRGB">
<feFlood flood-opacity="0" result="BackgroundImageFix"/>
<feColorMatrix in="SourceAlpha" type="matrix" values="0 0 0 0 0 0 0 0 0 0 0 0 0 0 0 0 0 0 127 0" result="hardAlpha"/>
<feOffset/>
<feGaussianBlur stdDeviation="25"/>
<feComposite in2="hardAlpha" operator="out"/>
<feColorMatrix type="matrix" values="0 0 0 0 0 0 0 0 0 0 0 0 0 0 0 0 0 0 0.1 0"/>
<feBlend mode="normal" in2="BackgroundImageFix" result="effect1_dropShadow_402_7"/>
<feBlend mode="normal" in="SourceGraphic" in2="effect1_dropShadow_402_7" result="shape"/>
</filter>
<linearGradient id="paint0_linear_402_7" x1="43.6353" y1="358.88" x2="86.5417" y2="190.807" gradientUnits="userSpaceOnUse">
<stop stop-color="#E4BBA5"/>
<stop offset="1" stop-color="#E4BBA5"/>
</linearGradient>
</defs>
</svg>
