<svg width="152" height="146" viewBox="0 0 152 146" fill="none" xmlns="http://www.w3.org/2000/svg">
<g filter="url(#filter0_b_259_12)">
<circle cx="76.5" cy="71.5" r="68.5" fill="white" fill-opacity="0.6"/>
</g>
<circle cx="70" cy="70" r="69.5" transform="matrix(-1 0 0 1 140 0)" stroke="url(#paint0_linear_259_12)"/>
<circle cx="70" cy="70" r="69.5" transform="matrix(-1 0 0 1 152 6)" stroke="url(#paint1_linear_259_12)"/>
<rect width="59" height="2" rx="1" transform="matrix(-1 0 0 1 106 60)" fill="#E8D4B9"/>
<rect width="59" height="2" rx="1" transform="matrix(-1 0 0 1 106 71)" fill="#E8D4B9"/>
<rect width="44" height="2" rx="1" transform="matrix(-1 0 0 1 91 81)" fill="#E8D4B9"/>
<defs>
<filter id="filter0_b_259_12" x="-17" y="-22" width="187" height="187" filterUnits="userSpaceOnUse" color-interpolation-filters="sRGB">
<feFlood flood-opacity="0" result="BackgroundImageFix"/>
<feGaussianBlur in="BackgroundImageFix" stdDeviation="12.5"/>
<feComposite in2="SourceAlpha" operator="in" result="effect1_backgroundBlur_259_12"/>
<feBlend mode="normal" in="SourceGraphic" in2="effect1_backgroundBlur_259_12" result="shape"/>
</filter>
<linearGradient id="paint0_linear_259_12" x1="104.234" y1="6.13138" x2="70" y2="140" gradientUnits="userSpaceOnUse">
<stop stop-color="white"/>
<stop offset="1" stop-color="white"/>
</linearGradient>
<linearGradient id="paint1_linear_259_12" x1="104.234" y1="6.13138" x2="70" y2="140" gradientUnits="userSpaceOnUse">
<stop stop-color="white"/>
<stop offset="1" stop-color="white"/>
</linearGradient>
</defs>
</svg>
