<svg width="238" height="286" viewBox="0 0 238 286" fill="none" xmlns="http://www.w3.org/2000/svg">
<g filter="url(#filter0_bd_155_97)">
<path d="M178.074 107.804C178.014 101.514 175.903 92.0045 171.68 72.9851C168.696 59.5494 167.205 52.8315 165.172 47.9471C152.842 18.3235 119.388 3.64316 89.2397 14.6266C84.2688 16.4376 78.3152 19.8882 66.4079 26.7893L66.4074 26.7896C50.5037 36.007 42.5519 40.6157 37.9759 44.7033C9.74282 69.9231 11.635 114.666 41.8965 137.412C46.8013 141.099 55.1138 145.02 71.7389 152.862C89.3597 161.173 98.1701 165.329 104.292 166.774C142.196 175.722 178.447 146.748 178.074 107.804Z" fill="white" fill-opacity="0.3" shape-rendering="crispEdges"/>
</g>
<path d="M82.8359 69.2273H87.4844V109.227H84.0078V80.6336L80.8438 97.118H77.6797L74.4766 80.6336V109.227H71V69.2273H75.6484L79.2422 90.3211L82.8359 69.2273ZM98.0703 72.743H94.0859V83.4461H97.5625V86.8836H94.0859V105.751H98.0703V109.227H90.6094V69.2273H98.0703V72.743ZM107.719 69.2273H111.195V109.227H107.719V86.8055H104.75V109.227H101.234V69.2273H104.75V83.2898H107.719V69.2273ZM124.828 69.2273C125.74 69.2273 126.508 69.3836 127.133 69.6961C127.784 70.0086 128.305 70.3992 128.695 70.868C129.086 71.3107 129.372 71.8055 129.555 72.3523C129.737 72.8992 129.828 73.407 129.828 73.8758V104.618C129.828 104.696 129.815 104.852 129.789 105.087C129.763 105.321 129.711 105.595 129.633 105.907C129.555 106.193 129.424 106.506 129.242 106.845C129.086 107.183 128.852 107.509 128.539 107.821C128.201 108.186 127.745 108.524 127.172 108.837C126.599 109.123 125.818 109.266 124.828 109.266C123.969 109.266 123.227 109.11 122.602 108.798C122.003 108.485 121.508 108.108 121.117 107.665C120.727 107.196 120.44 106.688 120.258 106.141C120.076 105.595 119.971 105.087 119.945 104.618V86.8836H117.836V109.227H114.359V69.2273H117.836V83.407H119.945V73.8758C119.945 73.407 120.023 72.8992 120.18 72.3523C120.362 71.8055 120.635 71.3107 121 70.868C121.391 70.3992 121.898 70.0086 122.523 69.6961C123.148 69.3836 123.917 69.2273 124.828 69.2273ZM126 105.477C126.13 105.295 126.221 105.126 126.273 104.97C126.326 104.787 126.352 104.67 126.352 104.618V73.8758C126.326 73.5633 126.247 73.3289 126.117 73.1726C125.987 73.0164 125.844 72.8992 125.688 72.8211C125.531 72.743 125.362 72.7039 125.18 72.7039C125.023 72.6778 124.906 72.6648 124.828 72.6648C124.75 72.6648 124.633 72.6778 124.477 72.7039C124.346 72.7039 124.203 72.743 124.047 72.8211C123.891 72.8992 123.747 73.0164 123.617 73.1726C123.487 73.3289 123.409 73.5633 123.383 73.8758V104.54C123.435 104.983 123.565 105.308 123.773 105.516C124.008 105.699 124.359 105.79 124.828 105.79C125.036 105.79 125.245 105.777 125.453 105.751C125.688 105.699 125.87 105.608 126 105.477Z" fill="white"/>
<defs>
<filter id="filter0_bd_155_97" x="-32.0532" y="-35.0117" width="260.13" height="257.418" filterUnits="userSpaceOnUse" color-interpolation-filters="sRGB">
<feFlood flood-opacity="0" result="BackgroundImageFix"/>
<feGaussianBlur in="BackgroundImageFix" stdDeviation="5"/>
<feComposite in2="SourceAlpha" operator="in" result="effect1_backgroundBlur_155_97"/>
<feColorMatrix in="SourceAlpha" type="matrix" values="0 0 0 0 0 0 0 0 0 0 0 0 0 0 0 0 0 0 127 0" result="hardAlpha"/>
<feOffset dy="4"/>
<feGaussianBlur stdDeviation="25"/>
<feComposite in2="hardAlpha" operator="out"/>
<feColorMatrix type="matrix" values="0 0 0 0 0.48125 0 0 0 0 0.603167 0 0 0 0 0.641667 0 0 0 0.15 0"/>
<feBlend mode="normal" in2="effect1_backgroundBlur_155_97" result="effect2_dropShadow_155_97"/>
<feBlend mode="normal" in="SourceGraphic" in2="effect2_dropShadow_155_97" result="shape"/>
</filter>
</defs>
</svg>
