<svg width="1034" height="899" viewBox="0 0 1034 899" fill="none" xmlns="http://www.w3.org/2000/svg">
<g filter="url(#filter0_b_268_82)">
<ellipse cx="846.5" cy="188" rx="180.5" ry="180" fill="white" fill-opacity="0.4"/>
</g>
<g filter="url(#filter1_b_268_82)">
<ellipse cx="320" cy="600" rx="287" ry="286" fill="white" fill-opacity="0.4"/>
</g>
<g filter="url(#filter2_b_268_82)">
<ellipse cx="765.5" cy="504" rx="224.5" ry="224" fill="white" fill-opacity="0.4"/>
</g>
<circle cx="184" cy="184" r="183.5" transform="matrix(-1 0 0 1 1034 8)" stroke="url(#paint0_linear_268_82)"/>
<circle cx="184" cy="184" r="183.5" transform="matrix(-1 0 0 1 1013 0)" stroke="url(#paint1_linear_268_82)"/>
<circle cx="229" cy="229" r="228.5" transform="matrix(-1 0 0 1 999 280)" stroke="url(#paint2_linear_268_82)"/>
<circle cx="229" cy="229" r="228.5" transform="matrix(-1 0 0 1 973 270)" stroke="url(#paint3_linear_268_82)"/>
<circle cx="292.5" cy="292.5" r="292" transform="matrix(-1 0 0 1 618 314)" stroke="url(#paint4_linear_268_82)"/>
<circle cx="292.5" cy="292.5" r="292" transform="matrix(-1 0 0 1 585 301)" stroke="url(#paint5_linear_268_82)"/>
<g filter="url(#filter3_d_268_82)">
<path d="M179 562V548.8H198.6V562.7C198.6 568.167 196.933 572.767 193.6 576.5C190.333 580.233 185.367 582.1 178.7 582.1H175.4C161.333 582.1 154.3 574.8 154.3 560.2V526.9C154.3 520.3 156 515.1 159.4 511.3C162.8 507.433 168.1 505.5 175.3 505.5H178.6C185.267 505.5 190.267 507.133 193.6 510.4C196.933 513.667 198.6 518.2 198.6 524V535.9H179V524.8C179 522.8 178.333 521.8 177 521.8C175.667 521.8 175 522.8 175 524.8V562C175 564.2 175.667 565.3 177 565.3C178.333 565.3 179 564.2 179 562ZM200.687 581V506.6H244.687V581H224.687V524.5H220.687V581H200.687ZM272.569 581V546.7L265.269 581H247.269V506.6H265.269V540.8L272.569 506.6H290.569V581H272.569ZM317.867 562V548.8H337.467V562.7C337.467 568.167 335.801 572.767 332.467 576.5C329.201 580.233 324.234 582.1 317.567 582.1H314.267C300.201 582.1 293.167 574.8 293.167 560.2V526.9C293.167 520.3 294.867 515.1 298.267 511.3C301.667 507.433 306.967 505.5 314.167 505.5H317.467C324.134 505.5 329.134 507.133 332.467 510.4C335.801 513.667 337.467 518.2 337.467 524V535.9H317.867V524.8C317.867 522.8 317.201 521.8 315.867 521.8C314.534 521.8 313.867 522.8 313.867 524.8V562C313.867 564.2 314.534 565.3 315.867 565.3C317.201 565.3 317.867 564.2 317.867 562ZM385.554 528.7V559.6C385.554 566.8 383.621 572.367 379.754 576.3C375.887 580.167 370.754 582.1 364.354 582.1H360.854C353.987 582.1 348.721 580.167 345.054 576.3C341.387 572.433 339.554 566.867 339.554 559.6V528.7C339.554 513.233 346.654 505.5 360.854 505.5H364.254C371.454 505.5 376.787 507.567 380.254 511.7C383.787 515.767 385.554 521.433 385.554 528.7ZM364.954 561.4V526.3C364.954 524.033 364.154 522.9 362.554 522.9C361.021 522.9 360.254 524.033 360.254 526.3V561.4C360.254 563.467 361.021 564.5 362.554 564.5C364.154 564.5 364.954 563.467 364.954 561.4ZM413.596 581L407.796 553.7V581H387.796V506.6H407.796V530.5L414.396 506.6H434.296L424.796 539L434.396 581H413.596ZM179 673L178.1 663.8H170.8L169.9 673H152.7L162.4 598.6H187.5L198.3 673H179ZM174.4 627.5L172.5 647.1H176.4L174.4 627.5ZM218.929 644.5V673H198.929V598.6H218.929V624H223.229V598.6H243.229V673H223.229V644.5H218.929ZM270.504 673L269.604 663.8H262.304L261.404 673H244.204L253.904 598.6H279.004L289.804 673H270.504ZM265.904 627.5L264.004 647.1H267.904L265.904 627.5ZM316.133 673V616.5H312.133C312.133 636.233 311.966 648.733 311.633 654C311.099 661.467 309.466 666.5 306.733 669.1C303.999 671.7 299.233 673 292.433 673H289.633V654.5H290.433C291.699 654.5 292.566 654.133 293.033 653.4C293.499 652.667 293.799 651.367 293.933 649.5C294.399 640.5 294.633 623.533 294.633 598.6H336.133V673H316.133ZM364.073 673V638.7L356.773 673H338.773V598.6H356.773V632.8L364.073 598.6H382.073V673H364.073ZM403.571 614.9V622.9H384.471V613.2C384.471 608.533 386.138 604.767 389.471 601.9C392.804 599.033 397.704 597.6 404.171 597.6H407.071C413.471 597.6 418.371 598.967 421.771 601.7C425.171 604.433 426.871 608.233 426.871 613.1V619.5C426.871 623.9 425.038 627.367 421.371 629.9C423.171 630.633 424.704 631.933 425.971 633.8C427.238 635.667 427.871 637.9 427.871 640.5V656C427.871 661.867 426.038 666.367 422.371 669.5C418.704 672.567 413.704 674.1 407.371 674.1H404.771C397.438 674.1 392.138 672.533 388.871 669.4C385.671 666.2 384.071 662.367 384.071 657.9V645.1H403.671V655.2C403.671 656.4 404.271 657 405.471 657C406.671 657 407.271 656.4 407.271 655.2V644.5C407.271 643.767 407.138 643.267 406.871 643C406.604 642.733 406.138 642.6 405.471 642.6H396.371V625.5H404.871C406.204 625.5 406.871 624.867 406.871 623.6V614.9C406.871 613.567 406.304 612.9 405.171 612.9C404.104 612.9 403.571 613.567 403.571 614.9ZM475.788 620.7V651.6C475.788 658.8 473.855 664.367 469.988 668.3C466.122 672.167 460.988 674.1 454.588 674.1H451.088C444.222 674.1 438.955 672.167 435.288 668.3C431.622 664.433 429.788 658.867 429.788 651.6V620.7C429.788 605.233 436.888 597.5 451.088 597.5H454.488C461.688 597.5 467.022 599.567 470.488 603.7C474.022 607.767 475.788 613.433 475.788 620.7ZM455.188 653.4V618.3C455.188 616.033 454.388 614.9 452.788 614.9C451.255 614.9 450.488 616.033 450.488 618.3V653.4C450.488 655.467 451.255 656.5 452.788 656.5C454.388 656.5 455.188 655.467 455.188 653.4ZM478.23 673V598.6H508.53C512.73 598.6 515.997 599.8 518.33 602.2C520.73 604.6 521.93 608.333 521.93 613.4V619.7C521.93 623.233 521.064 626 519.33 628C517.664 630 515.964 631.333 514.23 632C520.497 634 523.63 638.6 523.63 645.8V655.2C523.63 661 522.33 665.433 519.73 668.5C517.197 671.5 513.497 673 508.63 673H478.23ZM500.33 640.8H498.23V658.3H500.33C501.264 658.3 501.864 658.067 502.13 657.6C502.464 657.133 502.63 656.367 502.63 655.3V643.8C502.63 641.8 501.864 640.8 500.33 640.8ZM499.73 612.8H498.23V626.9H499.73C501.264 626.9 502.03 625.9 502.03 623.9V615.7C502.03 614.633 501.864 613.9 501.53 613.5C501.264 613.033 500.664 612.8 499.73 612.8Z" fill="white"/>
</g>
<g filter="url(#filter4_d_268_82)">
<path d="M599.1 555L593.3 527.7V555H573.3V480.6H593.3V504.5L599.9 480.6H619.8L610.3 513L619.9 555H599.1ZM663.929 502.7V533.6C663.929 540.8 661.996 546.367 658.129 550.3C654.262 554.167 649.129 556.1 642.729 556.1H639.229C632.362 556.1 627.096 554.167 623.429 550.3C619.762 546.433 617.929 540.867 617.929 533.6V502.7C617.929 487.233 625.029 479.5 639.229 479.5H642.629C649.829 479.5 655.162 481.567 658.629 485.7C662.162 489.767 663.929 495.433 663.929 502.7ZM643.329 535.4V500.3C643.329 498.033 642.529 496.9 640.929 496.9C639.396 496.9 638.629 498.033 638.629 500.3V535.4C638.629 537.467 639.396 538.5 640.929 538.5C642.529 538.5 643.329 537.467 643.329 535.4ZM686.171 526.5V555H666.171V480.6H686.171V506H690.471V480.6H710.471V555H690.471V526.5H686.171ZM712.746 480.6H750.646V498.5H741.646V555H721.746V498.5H712.746V480.6ZM772.219 555L771.319 545.8H764.019L763.119 555H745.919L755.619 480.6H780.719L791.519 555H772.219ZM767.619 509.5L765.719 529.1H769.619L767.619 509.5ZM817.948 555L812.148 527.7V555H792.148V480.6H812.148V504.5L818.748 480.6H838.648L829.148 513L838.748 555H817.948ZM839.113 480.6H877.013V498.5H868.013V555H848.113V498.5H839.113V480.6ZM898.666 506.6H908.166C912.233 506.6 915.6 507.967 918.266 510.7C920.933 513.433 922.266 517.3 922.266 522.3V539.6C922.266 544.867 920.966 548.767 918.366 551.3C915.766 553.767 912.3 555 907.966 555H878.766V480.6H898.666V506.6ZM898.666 540.3H900.066C901 540.3 901.6 540.1 901.866 539.7C902.2 539.233 902.366 538.467 902.366 537.4V525C902.366 523.867 902.2 523.1 901.866 522.7C901.6 522.233 901 522 900.066 522H898.666V540.3ZM944.466 480.6V555H924.466V480.6H944.466Z" fill="white"/>
</g>
<g filter="url(#filter5_d_268_82)">
<path d="M780.5 214V139.6H814.3V157.5H800V166.4H811.6V184.7H800V214H780.5ZM836.934 214L836.034 204.8H828.734L827.834 214H810.634L820.334 139.6H845.434L856.234 214H836.934ZM832.334 168.5L830.434 188.1H834.334L832.334 168.5ZM902.084 161.7V192.6C902.084 198.6 900.784 203.433 898.184 207.1C895.584 210.7 891.917 213.1 887.184 214.3L893.584 229.5H872.384V214.7C867.117 213.767 863.05 211.4 860.184 207.6C857.384 203.8 855.984 198.8 855.984 192.6V161.7C855.984 146.233 863.084 138.5 877.284 138.5H880.684C887.884 138.5 893.25 140.567 896.784 144.7C900.317 148.767 902.084 154.433 902.084 161.7ZM881.384 194.4V159.3C881.384 157.033 880.584 155.9 878.984 155.9C877.45 155.9 876.684 157.033 876.684 159.3V194.4C876.684 196.467 877.45 197.5 878.984 197.5C880.584 197.5 881.384 196.467 881.384 194.4Z" fill="white"/>
</g>
<defs>
<filter id="filter0_b_268_82" x="662" y="4" width="369" height="368" filterUnits="userSpaceOnUse" color-interpolation-filters="sRGB">
<feFlood flood-opacity="0" result="BackgroundImageFix"/>
<feGaussianBlur in="BackgroundImageFix" stdDeviation="2"/>
<feComposite in2="SourceAlpha" operator="in" result="effect1_backgroundBlur_268_82"/>
<feBlend mode="normal" in="SourceGraphic" in2="effect1_backgroundBlur_268_82" result="shape"/>
</filter>
<filter id="filter1_b_268_82" x="29" y="310" width="582" height="580" filterUnits="userSpaceOnUse" color-interpolation-filters="sRGB">
<feFlood flood-opacity="0" result="BackgroundImageFix"/>
<feGaussianBlur in="BackgroundImageFix" stdDeviation="2"/>
<feComposite in2="SourceAlpha" operator="in" result="effect1_backgroundBlur_268_82"/>
<feBlend mode="normal" in="SourceGraphic" in2="effect1_backgroundBlur_268_82" result="shape"/>
</filter>
<filter id="filter2_b_268_82" x="537" y="276" width="457" height="456" filterUnits="userSpaceOnUse" color-interpolation-filters="sRGB">
<feFlood flood-opacity="0" result="BackgroundImageFix"/>
<feGaussianBlur in="BackgroundImageFix" stdDeviation="2"/>
<feComposite in2="SourceAlpha" operator="in" result="effect1_backgroundBlur_268_82"/>
<feBlend mode="normal" in="SourceGraphic" in2="effect1_backgroundBlur_268_82" result="shape"/>
</filter>
<filter id="filter3_d_268_82" x="127.7" y="480.5" width="420.931" height="218.6" filterUnits="userSpaceOnUse" color-interpolation-filters="sRGB">
<feFlood flood-opacity="0" result="BackgroundImageFix"/>
<feColorMatrix in="SourceAlpha" type="matrix" values="0 0 0 0 0 0 0 0 0 0 0 0 0 0 0 0 0 0 127 0" result="hardAlpha"/>
<feOffset/>
<feGaussianBlur stdDeviation="12.5"/>
<feComposite in2="hardAlpha" operator="out"/>
<feColorMatrix type="matrix" values="0 0 0 0 0.770833 0 0 0 0 0.6986 0 0 0 0 0.584549 0 0 0 1 0"/>
<feBlend mode="normal" in2="BackgroundImageFix" result="effect1_dropShadow_268_82"/>
<feBlend mode="normal" in="SourceGraphic" in2="effect1_dropShadow_268_82" result="shape"/>
</filter>
<filter id="filter4_d_268_82" x="548.3" y="454.5" width="421.167" height="126.6" filterUnits="userSpaceOnUse" color-interpolation-filters="sRGB">
<feFlood flood-opacity="0" result="BackgroundImageFix"/>
<feColorMatrix in="SourceAlpha" type="matrix" values="0 0 0 0 0 0 0 0 0 0 0 0 0 0 0 0 0 0 127 0" result="hardAlpha"/>
<feOffset/>
<feGaussianBlur stdDeviation="12.5"/>
<feComposite in2="hardAlpha" operator="out"/>
<feColorMatrix type="matrix" values="0 0 0 0 0.770833 0 0 0 0 0.6986 0 0 0 0 0.584549 0 0 0 1 0"/>
<feBlend mode="normal" in2="BackgroundImageFix" result="effect1_dropShadow_268_82"/>
<feBlend mode="normal" in="SourceGraphic" in2="effect1_dropShadow_268_82" result="shape"/>
</filter>
<filter id="filter5_d_268_82" x="755.5" y="113.5" width="171.584" height="141" filterUnits="userSpaceOnUse" color-interpolation-filters="sRGB">
<feFlood flood-opacity="0" result="BackgroundImageFix"/>
<feColorMatrix in="SourceAlpha" type="matrix" values="0 0 0 0 0 0 0 0 0 0 0 0 0 0 0 0 0 0 127 0" result="hardAlpha"/>
<feOffset/>
<feGaussianBlur stdDeviation="12.5"/>
<feComposite in2="hardAlpha" operator="out"/>
<feColorMatrix type="matrix" values="0 0 0 0 0.770833 0 0 0 0 0.6986 0 0 0 0 0.584549 0 0 0 1 0"/>
<feBlend mode="normal" in2="BackgroundImageFix" result="effect1_dropShadow_268_82"/>
<feBlend mode="normal" in="SourceGraphic" in2="effect1_dropShadow_268_82" result="shape"/>
</filter>
<linearGradient id="paint0_linear_268_82" x1="273.985" y1="16.1168" x2="184" y2="368" gradientUnits="userSpaceOnUse">
<stop stop-color="#F3E9DD"/>
<stop offset="1" stop-color="white"/>
</linearGradient>
<linearGradient id="paint1_linear_268_82" x1="273.985" y1="16.1168" x2="184" y2="368" gradientUnits="userSpaceOnUse">
<stop stop-color="#F3E9DD"/>
<stop offset="1" stop-color="white"/>
</linearGradient>
<linearGradient id="paint2_linear_268_82" x1="340.993" y1="20.0584" x2="229" y2="458" gradientUnits="userSpaceOnUse">
<stop stop-color="#F3E9DD"/>
<stop offset="1" stop-color="white"/>
</linearGradient>
<linearGradient id="paint3_linear_268_82" x1="340.993" y1="20.0584" x2="229" y2="458" gradientUnits="userSpaceOnUse">
<stop stop-color="#F3E9DD"/>
<stop offset="1" stop-color="white"/>
</linearGradient>
<linearGradient id="paint4_linear_268_82" x1="435.547" y1="25.6204" x2="292.5" y2="585" gradientUnits="userSpaceOnUse">
<stop stop-color="#F3E9DD"/>
<stop offset="1" stop-color="white"/>
</linearGradient>
<linearGradient id="paint5_linear_268_82" x1="435.547" y1="25.6204" x2="292.5" y2="585" gradientUnits="userSpaceOnUse">
<stop stop-color="#F3E9DD"/>
<stop offset="1" stop-color="white"/>
</linearGradient>
</defs>
</svg>
