<svg width="1347" height="1182" viewBox="0 0 1347 1182" fill="none" xmlns="http://www.w3.org/2000/svg">
<g filter="url(#filter0_b_155_66)">
<path d="M1016.26 508.178L965.306 489.887C909.798 469.961 882.043 459.997 862.239 458.747C783.311 453.764 715.926 515.1 713.484 594.147C712.872 613.981 720.188 642.547 734.821 699.68L749.449 756.796C763.673 812.332 770.785 840.1 780.667 857.014C820 924.335 906.752 946.551 973.602 906.422C990.397 896.34 1009.98 875.409 1049.15 833.545L1085.47 794.72C1118.93 758.959 1135.66 741.078 1144.26 725.148C1178.24 662.194 1159.29 583.749 1100.32 543.247C1085.4 532.998 1062.35 524.725 1016.26 508.178Z" fill="white" fill-opacity="0.5"/>
</g>
<g filter="url(#filter1_b_155_66)">
<path d="M468.694 554.566L396.925 580.284C330.994 603.911 298.029 615.724 281.028 628.539C212.752 680.004 206.151 780.115 267.079 840.1C282.25 855.036 313.379 871.075 375.637 903.153L375.637 903.153L435.881 934.193C474.398 954.039 493.657 963.962 510.072 967.906C574.593 983.406 641.133 951.481 669.418 891.454C676.614 876.183 680.925 854.951 689.548 812.488L701.073 755.73C712.212 700.875 717.782 673.447 716.337 654.13C710.594 577.327 643.893 519.586 567.059 524.905C547.734 526.242 521.388 535.684 468.695 554.566L468.694 554.566Z" fill="white" fill-opacity="0.5"/>
</g>
<g filter="url(#filter2_b_155_66)">
<path d="M1134.76 433.312L1134.76 433.311C1151.89 416.497 1160.45 408.089 1165.47 401.894C1227.86 324.849 1192.61 209.145 1097.86 179.978C1090.24 177.633 1078.44 175.427 1054.85 171.017L1054.85 171.016C1033.57 167.037 1022.93 165.047 1015.35 164.468C921.825 157.316 847.862 242.351 867.906 333.979C869.531 341.406 872.976 351.67 879.867 372.197L879.867 372.198C886.39 391.627 889.651 401.342 892.731 408.067C930.564 490.682 1035.85 515.926 1107.03 459.448C1112.83 454.851 1120.14 447.671 1134.76 433.312Z" fill="white" fill-opacity="0.5"/>
</g>
<path d="M331 704V690.8H350.6V704.7C350.6 710.167 348.933 714.767 345.6 718.5C342.333 722.233 337.367 724.1 330.7 724.1H327.4C313.333 724.1 306.3 716.8 306.3 702.2V668.9C306.3 662.3 308 657.1 311.4 653.3C314.8 649.433 320.1 647.5 327.3 647.5H330.6C337.267 647.5 342.267 649.133 345.6 652.4C348.933 655.667 350.6 660.2 350.6 666V677.9H331V666.8C331 664.8 330.333 663.8 329 663.8C327.667 663.8 327 664.8 327 666.8V704C327 706.2 327.667 707.3 329 707.3C330.333 707.3 331 706.2 331 704ZM352.687 723V648.6H396.687V723H376.687V666.5H372.687V723H352.687ZM424.569 723V688.7L417.269 723H399.269V648.6H417.269V682.8L424.569 648.6H442.569V723H424.569ZM469.867 704V690.8H489.467V704.7C489.467 710.167 487.801 714.767 484.467 718.5C481.201 722.233 476.234 724.1 469.567 724.1H466.267C452.201 724.1 445.167 716.8 445.167 702.2V668.9C445.167 662.3 446.867 657.1 450.267 653.3C453.667 649.433 458.967 647.5 466.167 647.5H469.467C476.134 647.5 481.134 649.133 484.467 652.4C487.801 655.667 489.467 660.2 489.467 666V677.9H469.867V666.8C469.867 664.8 469.201 663.8 467.867 663.8C466.534 663.8 465.867 664.8 465.867 666.8V704C465.867 706.2 466.534 707.3 467.867 707.3C469.201 707.3 469.867 706.2 469.867 704ZM537.554 670.7V701.6C537.554 708.8 535.621 714.367 531.754 718.3C527.887 722.167 522.754 724.1 516.354 724.1H512.854C505.987 724.1 500.721 722.167 497.054 718.3C493.387 714.433 491.554 708.867 491.554 701.6V670.7C491.554 655.233 498.654 647.5 512.854 647.5H516.254C523.454 647.5 528.787 649.567 532.254 653.7C535.787 657.767 537.554 663.433 537.554 670.7ZM516.954 703.4V668.3C516.954 666.033 516.154 664.9 514.554 664.9C513.021 664.9 512.254 666.033 512.254 668.3V703.4C512.254 705.467 513.021 706.5 514.554 706.5C516.154 706.5 516.954 705.467 516.954 703.4ZM565.596 723L559.796 695.7V723H539.796V648.6H559.796V672.5L566.396 648.6H586.296L576.796 681L586.396 723H565.596ZM331 815L330.1 805.8H322.8L321.9 815H304.7L314.4 740.6H339.5L350.3 815H331ZM326.4 769.5L324.5 789.1H328.4L326.4 769.5ZM370.929 786.5V815H350.929V740.6H370.929V766H375.229V740.6H395.229V815H375.229V786.5H370.929ZM422.504 815L421.604 805.8H414.304L413.404 815H396.204L405.904 740.6H431.004L441.804 815H422.504ZM417.904 769.5L416.004 789.1H419.904L417.904 769.5ZM468.133 815V758.5H464.133C464.133 778.233 463.966 790.733 463.633 796C463.099 803.467 461.466 808.5 458.733 811.1C455.999 813.7 451.233 815 444.433 815H441.633V796.5H442.433C443.699 796.5 444.566 796.133 445.033 795.4C445.499 794.667 445.799 793.367 445.933 791.5C446.399 782.5 446.633 765.533 446.633 740.6H488.133V815H468.133ZM516.073 815V780.7L508.773 815H490.773V740.6H508.773V774.8L516.073 740.6H534.073V815H516.073ZM555.571 756.9V764.9H536.471V755.2C536.471 750.533 538.138 746.767 541.471 743.9C544.804 741.033 549.704 739.6 556.171 739.6H559.071C565.471 739.6 570.371 740.967 573.771 743.7C577.171 746.433 578.871 750.233 578.871 755.1V761.5C578.871 765.9 577.038 769.367 573.371 771.9C575.171 772.633 576.704 773.933 577.971 775.8C579.238 777.667 579.871 779.9 579.871 782.5V798C579.871 803.867 578.038 808.367 574.371 811.5C570.704 814.567 565.704 816.1 559.371 816.1H556.771C549.438 816.1 544.138 814.533 540.871 811.4C537.671 808.2 536.071 804.367 536.071 799.9V787.1H555.671V797.2C555.671 798.4 556.271 799 557.471 799C558.671 799 559.271 798.4 559.271 797.2V786.5C559.271 785.767 559.138 785.267 558.871 785C558.604 784.733 558.138 784.6 557.471 784.6H548.371V767.5H556.871C558.204 767.5 558.871 766.867 558.871 765.6V756.9C558.871 755.567 558.304 754.9 557.171 754.9C556.104 754.9 555.571 755.567 555.571 756.9ZM627.788 762.7V793.6C627.788 800.8 625.855 806.367 621.988 810.3C618.122 814.167 612.988 816.1 606.588 816.1H603.088C596.222 816.1 590.955 814.167 587.288 810.3C583.622 806.433 581.788 800.867 581.788 793.6V762.7C581.788 747.233 588.888 739.5 603.088 739.5H606.488C613.688 739.5 619.022 741.567 622.488 745.7C626.022 749.767 627.788 755.433 627.788 762.7ZM607.188 795.4V760.3C607.188 758.033 606.388 756.9 604.788 756.9C603.255 756.9 602.488 758.033 602.488 760.3V795.4C602.488 797.467 603.255 798.5 604.788 798.5C606.388 798.5 607.188 797.467 607.188 795.4ZM630.23 815V740.6H660.53C664.73 740.6 667.997 741.8 670.33 744.2C672.73 746.6 673.93 750.333 673.93 755.4V761.7C673.93 765.233 673.064 768 671.33 770C669.664 772 667.964 773.333 666.23 774C672.497 776 675.63 780.6 675.63 787.8V797.2C675.63 803 674.33 807.433 671.73 810.5C669.197 813.5 665.497 815 660.63 815H630.23ZM652.33 782.8H650.23V800.3H652.33C653.264 800.3 653.864 800.067 654.13 799.6C654.464 799.133 654.63 798.367 654.63 797.3V785.8C654.63 783.8 653.864 782.8 652.33 782.8ZM651.73 754.8H650.23V768.9H651.73C653.264 768.9 654.03 767.9 654.03 765.9V757.7C654.03 756.633 653.864 755.9 653.53 755.5C653.264 755.033 652.664 754.8 651.73 754.8Z" fill="white"/>
<path d="M784.1 697L778.3 669.7V697H758.3V622.6H778.3V646.5L784.9 622.6H804.8L795.3 655L804.9 697H784.1ZM848.929 644.7V675.6C848.929 682.8 846.996 688.367 843.129 692.3C839.262 696.167 834.129 698.1 827.729 698.1H824.229C817.362 698.1 812.096 696.167 808.429 692.3C804.762 688.433 802.929 682.867 802.929 675.6V644.7C802.929 629.233 810.029 621.5 824.229 621.5H827.629C834.829 621.5 840.162 623.567 843.629 627.7C847.162 631.767 848.929 637.433 848.929 644.7ZM828.329 677.4V642.3C828.329 640.033 827.529 638.9 825.929 638.9C824.396 638.9 823.629 640.033 823.629 642.3V677.4C823.629 679.467 824.396 680.5 825.929 680.5C827.529 680.5 828.329 679.467 828.329 677.4ZM871.171 668.5V697H851.171V622.6H871.171V648H875.471V622.6H895.471V697H875.471V668.5H871.171ZM897.746 622.6H935.646V640.5H926.646V697H906.746V640.5H897.746V622.6ZM957.219 697L956.319 687.8H949.019L948.119 697H930.919L940.619 622.6H965.719L976.519 697H957.219ZM952.619 651.5L950.719 671.1H954.619L952.619 651.5ZM1002.95 697L997.148 669.7V697H977.148V622.6H997.148V646.5L1003.75 622.6H1023.65L1014.15 655L1023.75 697H1002.95ZM1024.11 622.6H1062.01V640.5H1053.01V697H1033.11V640.5H1024.11V622.6ZM1083.67 648.6H1093.17C1097.23 648.6 1100.6 649.967 1103.27 652.7C1105.93 655.433 1107.27 659.3 1107.27 664.3V681.6C1107.27 686.867 1105.97 690.767 1103.37 693.3C1100.77 695.767 1097.3 697 1092.97 697H1063.77V622.6H1083.67V648.6ZM1083.67 682.3H1085.07C1086 682.3 1086.6 682.1 1086.87 681.7C1087.2 681.233 1087.37 680.467 1087.37 679.4V667C1087.37 665.867 1087.2 665.1 1086.87 664.7C1086.6 664.233 1086 664 1085.07 664H1083.67V682.3ZM1129.47 622.6V697H1109.47V622.6H1129.47Z" fill="white"/>
<path d="M965.5 356V281.6H999.3V299.5H985V308.4H996.6V326.7H985V356H965.5ZM1021.93 356L1021.03 346.8H1013.73L1012.83 356H995.634L1005.33 281.6H1030.43L1041.23 356H1021.93ZM1017.33 310.5L1015.43 330.1H1019.33L1017.33 310.5ZM1087.08 303.7V334.6C1087.08 340.6 1085.78 345.433 1083.18 349.1C1080.58 352.7 1076.92 355.1 1072.18 356.3L1078.58 371.5H1057.38V356.7C1052.12 355.767 1048.05 353.4 1045.18 349.6C1042.38 345.8 1040.98 340.8 1040.98 334.6V303.7C1040.98 288.233 1048.08 280.5 1062.28 280.5H1065.68C1072.88 280.5 1078.25 282.567 1081.78 286.7C1085.32 290.767 1087.08 296.433 1087.08 303.7ZM1066.38 336.4V301.3C1066.38 299.033 1065.58 297.9 1063.98 297.9C1062.45 297.9 1061.68 299.033 1061.68 301.3V336.4C1061.68 338.467 1062.45 339.5 1063.98 339.5C1065.58 339.5 1066.38 338.467 1066.38 336.4Z" fill="white"/>
<defs>
<filter id="filter0_b_155_66" x="663.449" y="408.464" width="547.623" height="567.947" filterUnits="userSpaceOnUse" color-interpolation-filters="sRGB">
<feFlood flood-opacity="0" result="BackgroundImageFix"/>
<feGaussianBlur in="BackgroundImageFix" stdDeviation="25"/>
<feComposite in2="SourceAlpha" operator="in" result="effect1_backgroundBlur_155_66"/>
<feBlend mode="normal" in="SourceGraphic" in2="effect1_backgroundBlur_155_66" result="shape"/>
</filter>
<filter id="filter1_b_155_66" x="175.296" y="474.564" width="591.266" height="547.229" filterUnits="userSpaceOnUse" color-interpolation-filters="sRGB">
<feFlood flood-opacity="0" result="BackgroundImageFix"/>
<feGaussianBlur in="BackgroundImageFix" stdDeviation="25"/>
<feComposite in2="SourceAlpha" operator="in" result="effect1_backgroundBlur_155_66"/>
<feBlend mode="normal" in="SourceGraphic" in2="effect1_backgroundBlur_155_66" result="shape"/>
</filter>
<filter id="filter2_b_155_66" x="814.604" y="114.047" width="432.145" height="425.767" filterUnits="userSpaceOnUse" color-interpolation-filters="sRGB">
<feFlood flood-opacity="0" result="BackgroundImageFix"/>
<feGaussianBlur in="BackgroundImageFix" stdDeviation="25"/>
<feComposite in2="SourceAlpha" operator="in" result="effect1_backgroundBlur_155_66"/>
<feBlend mode="normal" in="SourceGraphic" in2="effect1_backgroundBlur_155_66" result="shape"/>
</filter>
</defs>
</svg>
