<svg width="148" height="143" viewBox="0 0 148 143" fill="none" xmlns="http://www.w3.org/2000/svg">
<g filter="url(#filter0_b_259_8)">
<circle cx="76.5" cy="71.5" r="68.5" fill="white" fill-opacity="0.5"/>
</g>
<circle cx="70" cy="70" r="69.5" transform="matrix(-1 0 0 1 148 3)" stroke="url(#paint0_linear_259_8)"/>
<circle cx="70" cy="70" r="69.5" transform="matrix(-1 0 0 1 140 0)" stroke="url(#paint1_linear_259_8)"/>
<path fill-rule="evenodd" clip-rule="evenodd" d="M55.531 52.4444C55.2433 52.446 54.9679 52.561 54.7645 52.7645C54.561 52.9679 54.446 53.2433 54.4444 53.531C54.4444 74.5337 71.4663 91.5556 92.469 91.5556C92.7567 91.554 93.0321 91.439 93.2355 91.2355C93.439 91.0321 93.554 90.7567 93.5556 90.469V82.4133C93.554 82.1257 93.439 81.8502 93.2355 81.6468C93.0321 81.4434 92.7567 81.3284 92.469 81.3268C89.4758 81.3268 86.5534 80.844 83.8438 79.9493L83.8316 79.9444C83.6426 79.8825 83.4401 79.8742 83.2468 79.9206C83.0534 79.967 82.8767 80.0663 82.7364 80.2072L77.0287 85.915L76.2367 85.5092C69.4766 82.0454 63.9326 76.5283 60.4908 69.7621L60.0874 68.9713L65.7952 63.2636C65.9402 63.1214 66.0427 62.9418 66.0915 62.7448C66.1403 62.5477 66.1334 62.341 66.0714 62.1477C65.157 59.3671 64.6932 56.4581 64.6977 53.531C64.6961 53.2433 64.5811 52.9679 64.3776 52.7645C64.1742 52.561 63.8988 52.446 63.6111 52.4444H55.531ZM52 53.531C52.0016 52.595 52.3741 51.6978 53.036 51.036C53.6978 50.3741 54.595 50.0016 55.531 50H63.6111C64.5471 50.0016 65.4443 50.3741 66.1061 51.036C66.768 51.6978 67.1405 52.595 67.1421 53.531C67.1421 56.2859 67.5821 58.9271 68.3961 61.3899L68.3986 61.3972L68.401 61.4058C68.5988 62.0265 68.6215 62.6897 68.4664 63.3225C68.3114 63.9552 67.9846 64.5329 67.5222 64.9918L63.0807 69.4346C66.1869 75.1316 70.869 79.8129 76.5667 82.9181L81.0082 78.4778C81.4712 78.0144 82.0543 77.6894 82.692 77.5396C83.3297 77.3897 83.9965 77.4209 84.6174 77.6296C87.1516 78.461 89.802 78.8835 92.469 78.8811C93.405 78.8827 94.3022 79.2553 94.964 79.9171C95.6259 80.5789 95.9984 81.4761 96 82.4121V90.469C95.9984 91.405 95.6259 92.3022 94.964 92.964C94.3022 93.6259 93.405 93.9984 92.469 94C70.1158 94 52 75.8842 52 53.531Z" fill="#E8D4B9"/>
<defs>
<filter id="filter0_b_259_8" x="-17" y="-22" width="187" height="187" filterUnits="userSpaceOnUse" color-interpolation-filters="sRGB">
<feFlood flood-opacity="0" result="BackgroundImageFix"/>
<feGaussianBlur in="BackgroundImageFix" stdDeviation="12.5"/>
<feComposite in2="SourceAlpha" operator="in" result="effect1_backgroundBlur_259_8"/>
<feBlend mode="normal" in="SourceGraphic" in2="effect1_backgroundBlur_259_8" result="shape"/>
</filter>
<linearGradient id="paint0_linear_259_8" x1="104.234" y1="6.13138" x2="70" y2="140" gradientUnits="userSpaceOnUse">
<stop stop-color="#F3E9DD"/>
<stop offset="1" stop-color="white"/>
</linearGradient>
<linearGradient id="paint1_linear_259_8" x1="104.234" y1="6.13138" x2="70" y2="140" gradientUnits="userSpaceOnUse">
<stop stop-color="#F3E9DD"/>
<stop offset="1" stop-color="white"/>
</linearGradient>
</defs>
</svg>
