<svg width="326" height="304" viewBox="0 0 326 304" fill="none" xmlns="http://www.w3.org/2000/svg">
<g filter="url(#filter0_bd_155_93)">
<path d="M288.329 158.067L283.302 129.069L283.302 129.068C279.288 105.913 277.281 94.336 273.75 86.9127C259.725 57.425 224.694 44.567 194.922 57.9792C187.427 61.3556 178.407 68.8856 160.366 83.9456L131.265 108.238C108.564 127.189 97.213 136.664 92.2783 144.278C72.473 174.837 84.2351 215.85 117.226 231.267C125.446 235.109 140.093 237.128 169.387 241.166L169.387 241.166L203.515 245.871L203.516 245.871C222.479 248.486 231.961 249.793 239.285 249.004C268.112 245.898 290.594 222.623 292.699 193.706C293.234 186.359 291.599 176.928 288.329 158.067L288.329 158.067Z" fill="white" fill-opacity="0.3" shape-rendering="crispEdges"/>
</g>
<path d="M147.06 189.76C147.833 190.053 148.433 190.5 148.86 191.1C149.287 191.7 149.5 192.407 149.5 193.22C149.5 194.393 149.06 195.36 148.18 196.12C147.313 196.867 146.14 197.24 144.66 197.24C143.327 197.24 142.26 196.94 141.46 196.34C140.66 195.74 140.107 194.987 139.8 194.08L141 193.4C141.173 194.107 141.547 194.707 142.12 195.2C142.707 195.68 143.553 195.92 144.66 195.92C145.753 195.92 146.6 195.673 147.2 195.18C147.8 194.673 148.1 194.02 148.1 193.22C148.1 192.42 147.82 191.773 147.26 191.28C146.713 190.773 145.953 190.52 144.98 190.52H143.38V189.2H144.48C145.427 189.2 146.18 188.96 146.74 188.48C147.3 188 147.58 187.38 147.58 186.62C147.58 185.873 147.307 185.267 146.76 184.8C146.227 184.32 145.493 184.08 144.56 184.08C142.84 184.08 141.707 184.813 141.16 186.28L140 185.6C140.347 184.747 140.893 184.06 141.64 183.54C142.4 183.02 143.373 182.76 144.56 182.76C145.88 182.76 146.947 183.133 147.76 183.88C148.573 184.613 148.98 185.533 148.98 186.64C148.98 188.04 148.34 189.08 147.06 189.76ZM163.229 197L161.929 193.56H155.289L153.989 197H152.509L157.889 183H159.329L164.709 197H163.229ZM155.789 192.24H161.429L158.609 184.74L155.789 192.24ZM178.506 183V197H177.106V184.32H169.906V197H168.506V183H178.506ZM192.709 197V185.6L184.909 197H183.709V183H185.109V194.4L192.909 183H194.109V197H192.709ZM205.843 197.24C203.723 197.24 201.97 196.54 200.583 195.14C199.196 193.74 198.503 192.027 198.503 190C198.503 187.973 199.196 186.26 200.583 184.86C201.97 183.46 203.723 182.76 205.843 182.76C207.136 182.76 208.323 183.073 209.403 183.7C210.483 184.313 211.316 185.147 211.903 186.2L210.663 186.92C210.223 186.067 209.57 185.387 208.703 184.88C207.836 184.373 206.883 184.12 205.843 184.12C204.096 184.12 202.67 184.687 201.563 185.82C200.456 186.953 199.903 188.347 199.903 190C199.903 191.653 200.456 193.047 201.563 194.18C202.67 195.313 204.096 195.88 205.843 195.88C206.883 195.88 207.836 195.627 208.703 195.12C209.57 194.613 210.223 193.933 210.663 193.08L211.903 193.78C211.33 194.833 210.496 195.673 209.403 196.3C208.323 196.927 207.136 197.24 205.843 197.24ZM221.205 188.2C222.459 188.2 223.505 188.62 224.345 189.46C225.185 190.3 225.605 191.347 225.605 192.6C225.605 193.853 225.185 194.9 224.345 195.74C223.505 196.58 222.459 197 221.205 197H216.205V183H217.605V188.2H221.205ZM221.205 195.68C222.072 195.68 222.785 195.393 223.345 194.82C223.919 194.233 224.205 193.493 224.205 192.6C224.205 191.707 223.919 190.973 223.345 190.4C222.785 189.813 222.072 189.52 221.205 189.52H217.605V195.68H221.205Z" fill="white"/>
<path d="M145.25 176C144.143 176 143.183 175.805 142.369 175.414C141.588 175.023 140.953 174.535 140.465 173.949C139.977 173.363 139.618 172.745 139.391 172.094C139.163 171.41 139.033 170.775 139 170.189V131.713C139 131.127 139.114 130.508 139.342 129.857C139.57 129.206 139.928 128.588 140.416 128.002C140.904 127.416 141.539 126.944 142.32 126.586C143.134 126.195 144.111 126 145.25 126C146.357 126 147.301 126.195 148.082 126.586C148.896 126.944 149.531 127.416 149.986 128.002C150.475 128.588 150.816 129.206 151.012 129.857C151.24 130.508 151.354 131.127 151.354 131.713V170.189C151.354 170.287 151.337 170.482 151.305 170.775C151.305 171.068 151.256 171.394 151.158 171.752C151.061 172.11 150.898 172.517 150.67 172.973C150.475 173.428 150.182 173.852 149.791 174.242C149.433 174.665 148.863 175.072 148.082 175.463C147.333 175.821 146.389 176 145.25 176ZM143.346 170.092C143.443 171.133 144.078 171.654 145.25 171.654C145.445 171.654 145.673 171.622 145.934 171.557C146.227 171.492 146.487 171.378 146.715 171.215C146.878 171.02 146.959 170.824 146.959 170.629C146.992 170.401 147.008 170.255 147.008 170.189V131.713C146.975 131.387 146.878 131.127 146.715 130.932C146.585 130.736 146.422 130.606 146.227 130.541C146.031 130.443 145.836 130.395 145.641 130.395C145.478 130.362 145.348 130.346 145.25 130.346C145.152 130.346 144.99 130.362 144.762 130.395C144.566 130.395 144.371 130.443 144.176 130.541C143.98 130.606 143.801 130.736 143.639 130.932C143.476 131.127 143.378 131.387 143.346 131.713V170.092ZM155.309 126H159.703V137.67L164.977 146.508V126H169.322V176H164.977V152.855L159.703 144.066V176H155.309V126ZM173.277 156.908V152.611H194.957V156.908H173.277ZM198.863 126H203.209V171.654H211.754V176H198.863V126ZM225.768 176H215.66V171.508H218.639V130.346H215.66V126H225.768V130.346H222.984V171.508H225.768V176ZM229.723 126H234.117V137.67L239.391 146.508V126H243.736V176H239.391V152.855L234.117 144.066V176H229.723V126ZM257.018 130.395H252.037V143.773H256.383V148.07H252.037V171.654H257.018V176H247.691V126H257.018V130.395Z" fill="white"/>
<defs>
<filter id="filter0_bd_155_93" x="32.6123" y="6.67072" width="310.187" height="296.561" filterUnits="userSpaceOnUse" color-interpolation-filters="sRGB">
<feFlood flood-opacity="0" result="BackgroundImageFix"/>
<feGaussianBlur in="BackgroundImageFix" stdDeviation="5"/>
<feComposite in2="SourceAlpha" operator="in" result="effect1_backgroundBlur_155_93"/>
<feColorMatrix in="SourceAlpha" type="matrix" values="0 0 0 0 0 0 0 0 0 0 0 0 0 0 0 0 0 0 127 0" result="hardAlpha"/>
<feOffset dy="4"/>
<feGaussianBlur stdDeviation="25"/>
<feComposite in2="hardAlpha" operator="out"/>
<feColorMatrix type="matrix" values="0 0 0 0 0.48125 0 0 0 0 0.603167 0 0 0 0 0.641667 0 0 0 0.15 0"/>
<feBlend mode="normal" in2="effect1_backgroundBlur_155_93" result="effect2_dropShadow_155_93"/>
<feBlend mode="normal" in="SourceGraphic" in2="effect2_dropShadow_155_93" result="shape"/>
</filter>
</defs>
</svg>
