<svg width="148" height="143" viewBox="0 0 148 143" fill="none" xmlns="http://www.w3.org/2000/svg">
<g filter="url(#filter0_b_259_8)">
<circle cx="76.5" cy="71.5" r="68.5" fill="white" fill-opacity="0.1"/>
</g>
<circle cx="70" cy="70" r="69.5" transform="matrix(-1 0 0 1 148 3)" stroke="url(#paint0_linear_259_8)"/>
<circle cx="70" cy="70" r="69.5" transform="matrix(-1 0 0 1 140 0)" stroke="url(#paint1_linear_259_8)"/>
<path fill-rule="evenodd" clip-rule="evenodd" d="M51.531 50.4444C51.2433 50.446 50.9679 50.561 50.7645 50.7645C50.561 50.9679 50.446 51.2433 50.4444 51.531C50.4444 72.5337 67.4663 89.5556 88.469 89.5556C88.7567 89.554 89.0321 89.439 89.2355 89.2355C89.439 89.0321 89.554 88.7567 89.5556 88.469V80.4133C89.554 80.1257 89.439 79.8502 89.2355 79.6468C89.0321 79.4434 88.7567 79.3284 88.469 79.3268C85.4758 79.3268 82.5534 78.844 79.8438 77.9493L79.8316 77.9444C79.6426 77.8825 79.4401 77.8742 79.2468 77.9206C79.0534 77.967 78.8767 78.0663 78.7364 78.2072L73.0287 83.915L72.2367 83.5092C65.4766 80.0454 59.9326 74.5283 56.4908 67.7621L56.0874 66.9713L61.7952 61.2636C61.9402 61.1214 62.0427 60.9418 62.0915 60.7448C62.1403 60.5477 62.1334 60.341 62.0714 60.1477C61.157 57.3671 60.6932 54.4581 60.6977 51.531C60.6961 51.2433 60.5811 50.9679 60.3776 50.7645C60.1742 50.561 59.8988 50.446 59.6111 50.4444H51.531ZM48 51.531C48.0016 50.595 48.3741 49.6978 49.036 49.036C49.6978 48.3741 50.595 48.0016 51.531 48H59.6111C60.5471 48.0016 61.4443 48.3741 62.1061 49.036C62.768 49.6978 63.1405 50.595 63.1421 51.531C63.1421 54.2859 63.5821 56.9271 64.3961 59.3899L64.3986 59.3972L64.401 59.4058C64.5988 60.0265 64.6215 60.6897 64.4664 61.3225C64.3114 61.9552 63.9846 62.5329 63.5222 62.9918L59.0807 67.4346C62.1869 73.1316 66.869 77.8129 72.5667 80.9181L77.0082 76.4778C77.4712 76.0144 78.0543 75.6894 78.692 75.5396C79.3297 75.3897 79.9965 75.4209 80.6174 75.6296C83.1516 76.461 85.802 76.8835 88.469 76.8811C89.405 76.8827 90.3022 77.2553 90.964 77.9171C91.6259 78.5789 91.9984 79.4761 92 80.4121V88.469C91.9984 89.405 91.6259 90.3022 90.964 90.964C90.3022 91.6259 89.405 91.9984 88.469 92C66.1158 92 48 73.8842 48 51.531Z" fill="white"/>
<defs>
<filter id="filter0_b_259_8" x="4" y="-1" width="145" height="145" filterUnits="userSpaceOnUse" color-interpolation-filters="sRGB">
<feFlood flood-opacity="0" result="BackgroundImageFix"/>
<feGaussianBlur in="BackgroundImageFix" stdDeviation="2"/>
<feComposite in2="SourceAlpha" operator="in" result="effect1_backgroundBlur_259_8"/>
<feBlend mode="normal" in="SourceGraphic" in2="effect1_backgroundBlur_259_8" result="shape"/>
</filter>
<linearGradient id="paint0_linear_259_8" x1="104.234" y1="6.13138" x2="70" y2="140" gradientUnits="userSpaceOnUse">
<stop stop-color="#F3E9DD"/>
<stop offset="1" stop-color="white"/>
</linearGradient>
<linearGradient id="paint1_linear_259_8" x1="104.234" y1="6.13138" x2="70" y2="140" gradientUnits="userSpaceOnUse">
<stop stop-color="#F3E9DD"/>
<stop offset="1" stop-color="white"/>
</linearGradient>
</defs>
</svg>
