<svg width="44" height="44" viewBox="0 0 44 44" fill="none" xmlns="http://www.w3.org/2000/svg">
<path fill-rule="evenodd" clip-rule="evenodd" d="M3.531 2.44444C3.24332 2.44605 2.96788 2.56104 2.76446 2.76446C2.56104 2.96788 2.44605 3.24332 2.44444 3.531C2.44444 24.5337 19.4663 41.5556 40.469 41.5556C40.7567 41.554 41.0321 41.439 41.2355 41.2355C41.439 41.0321 41.554 40.7567 41.5556 40.469V32.4133C41.554 32.1257 41.439 31.8502 41.2355 31.6468C41.0321 31.4434 40.7567 31.3284 40.469 31.3268C37.4758 31.3268 34.5534 30.844 31.8438 29.9493L31.8316 29.9444C31.6426 29.8825 31.4401 29.8742 31.2468 29.9206C31.0534 29.967 30.8767 30.0663 30.7364 30.2072L25.0287 35.915L24.2367 35.5092C17.4766 32.0454 11.9326 26.5283 8.49078 19.7621L8.08744 18.9713L13.7952 13.2636C13.9402 13.1214 14.0427 12.9418 14.0915 12.7448C14.1403 12.5477 14.1334 12.341 14.0714 12.1477C13.157 9.36707 12.6932 6.4581 12.6977 3.531C12.6961 3.24332 12.5811 2.96788 12.3776 2.76446C12.1742 2.56104 11.8988 2.44605 11.6111 2.44444H3.531ZM0 3.531C0.00161572 2.59502 0.374149 1.69783 1.03599 1.03599C1.69783 0.374149 2.59502 0.00161572 3.531 0H11.6111C12.5471 0.00161572 13.4443 0.374149 14.1061 1.03599C14.768 1.69783 15.1405 2.59502 15.1421 3.531C15.1421 6.28589 15.5821 8.92711 16.3961 11.3899L16.3986 11.3972L16.401 11.4058C16.5988 12.0265 16.6215 12.6897 16.4664 13.3225C16.3114 13.9552 15.9846 14.5329 15.5222 14.9918L11.0807 19.4346C14.1869 25.1316 18.869 29.8129 24.5667 32.9181L29.0082 28.4778C29.4712 28.0144 30.0543 27.6894 30.692 27.5396C31.3297 27.3897 31.9965 27.4209 32.6174 27.6296C35.1516 28.461 37.802 28.8835 40.469 28.8811C41.405 28.8827 42.3022 29.2553 42.964 29.9171C43.6259 30.5789 43.9984 31.4761 44 32.4121V40.469C43.9984 41.405 43.6259 42.3022 42.964 42.964C42.3022 43.6259 41.405 43.9984 40.469 44C18.1158 44 0 25.8842 0 3.531Z" fill="#E8D4B9"/>
</svg>
