<svg width="20" height="20" viewBox="0 0 20 20" fill="none" xmlns="http://www.w3.org/2000/svg">
<g clip-path="url(#clip0_201_720)">
<path d="M1.86376 14.4552C1.00581 11.0234 0.576839 9.30753 1.47767 8.15376C2.3785 7 4.14721 7 7.68462 7H12.3153C15.8527 7 17.6214 7 18.5222 8.15376C19.4231 9.30753 18.9941 11.0234 18.1362 14.4552C17.5905 16.6379 17.3176 17.7292 16.5039 18.3646C15.6901 19 14.5652 19 12.3153 19H7.68462C5.43476 19 4.30983 19 3.49605 18.3646C2.68227 17.7292 2.40943 16.6379 1.86376 14.4552Z" stroke="#083542"/>
<path d="M17.5 7.5L16.7896 4.89465C16.5157 3.89005 16.3787 3.38775 16.0978 3.00946C15.818 2.63273 15.4378 2.34234 15.0008 2.17152C14.5619 2 14.0413 2 13 2M2.5 7.5L3.2104 4.89465C3.48432 3.89005 3.62128 3.38775 3.90221 3.00946C4.18199 2.63273 4.56216 2.34234 4.99922 2.17152C5.43808 2 5.95872 2 7 2" stroke="#083542"/>
<path d="M7 2C7 1.44772 7.44772 1 8 1H12C12.5523 1 13 1.44772 13 2C13 2.55228 12.5523 3 12 3H8C7.44772 3 7 2.55228 7 2Z" stroke="#083542"/>
<path d="M6 11V15" stroke="#083542" stroke-linecap="round" stroke-linejoin="round"/>
<path d="M14 11V15" stroke="#083542" stroke-linecap="round" stroke-linejoin="round"/>
<path d="M10 11V15" stroke="#083542" stroke-linecap="round" stroke-linejoin="round"/>
</g>
<defs>
<clipPath id="clip0_201_720">
<rect width="20" height="20" fill="white"/>
</clipPath>
</defs>
</svg>
