<svg width="18" height="16" viewBox="0 0 18 16" fill="none" xmlns="http://www.w3.org/2000/svg">
<g clip-path="url(#clip0_201_727)">
<path d="M6.56939 13.7077L6.88206 13.3175L6.56939 13.7077ZM9 2.80191L8.63693 3.14568C8.73136 3.24542 8.86265 3.30191 9 3.30191C9.13735 3.30191 9.26864 3.24542 9.36307 3.14568L9 2.80191ZM11.4306 13.7077L11.1179 13.3175L11.4306 13.7077ZM6.88206 13.3175C5.67567 12.3507 4.33842 11.3934 3.27855 10.1802C2.23576 8.98651 1.5 7.58323 1.5 5.75923H0.5C0.5 7.88996 1.37201 9.51776 2.52545 10.8381C3.66182 12.1388 5.10926 13.1783 6.25671 14.0978L6.88206 13.3175ZM1.5 5.75923C1.5 3.9644 2.49783 2.45853 3.86075 1.82522C5.18983 1.20764 6.96408 1.37889 8.63693 3.14568L9.36307 2.45814C7.43605 0.4229 5.2103 0.0954421 3.43935 0.918346C1.70224 1.72553 0.5 3.59933 0.5 5.75923H1.5ZM6.25671 14.0978C6.66738 14.4269 7.10192 14.7726 7.54082 15.0333C7.97935 15.2938 8.47098 15.5 9 15.5V14.5C8.72902 14.5 8.42065 14.3928 8.05153 14.1736C7.68277 13.9545 7.30201 13.654 6.88206 13.3175L6.25671 14.0978ZM11.7433 14.0978C12.8907 13.1783 14.3382 12.1388 15.4745 10.8381C16.628 9.51776 17.5 7.88996 17.5 5.75923H16.5C16.5 7.58323 15.7642 8.98651 14.7215 10.1802C13.6616 11.3934 12.3243 12.3507 11.1179 13.3175L11.7433 14.0978ZM17.5 5.75923C17.5 3.59933 16.2978 1.72553 14.5607 0.918346C12.7897 0.0954421 10.564 0.4229 8.63693 2.45814L9.36307 3.14568C11.0359 1.37889 12.8102 1.20764 14.1393 1.82522C15.5022 2.45853 16.5 3.9644 16.5 5.75923H17.5ZM11.1179 13.3175C10.698 13.654 10.3172 13.9545 9.94847 14.1736C9.57935 14.3928 9.27098 14.5 9 14.5V15.5C9.52902 15.5 10.0207 15.2938 10.4592 15.0333C10.8981 14.7726 11.3326 14.4269 11.7433 14.0978L11.1179 13.3175Z" fill="#083542"/>
</g>
<defs>
<clipPath id="clip0_201_727">
<rect width="18" height="16" fill="white"/>
</clipPath>
</defs>
</svg>
