<svg width="837" height="154" viewBox="0 0 837 154" fill="none" xmlns="http://www.w3.org/2000/svg">
<g opacity="0.1">
<path d="M185.59 63.4437L200.422 0H256.329L185.59 63.4437Z" fill="#C130D5"/>
<path d="M559.07 30.3921C538.533 30.3921 533.208 35.3308 530.546 45.2083C527.884 55.0857 508.107 126.127 508.107 126.887C506.586 131.826 507.727 136.765 510.389 140.944C515.713 148.162 527.123 151.581 544.237 151.581H656.051L661.756 128.787H565.915C560.971 129.167 556.408 127.647 553.365 123.848C551.463 120.809 550.703 117.01 551.844 113.591L556.408 97.6348H664.038L669.362 78.2598H561.732L567.056 60.7843C567.056 60.4044 570.86 49.7671 588.735 49.7671H680.771L689.138 30.0122H559.07V30.3921Z" fill="white"/>
<path d="M523.696 30.3924H464.746L432.8 68.0027L415.685 30.3924H364.723L401.613 101.814L388.683 152.341H439.265L452.576 100.674L523.696 30.3924Z" fill="white"/>
<path d="M816.54 37.2303C809.314 33.8112 801.708 31.9117 793.721 30.772C775.846 28.1127 757.591 28.1127 740.097 31.1519C731.73 32.6715 723.743 34.9509 716.137 38.3701C709.671 41.0294 703.966 45.2083 699.403 50.5269C695.219 55.0857 692.937 61.1642 693.317 67.2426C693.317 71.4215 694.458 75.9804 696.74 79.3995C699.403 82.8186 702.445 85.8578 706.248 88.1372C710.432 90.7966 714.996 92.6961 719.559 94.2157C724.504 95.7353 729.828 97.2549 735.152 98.3946C741.998 99.9142 747.703 101.054 752.267 101.814C758.352 102.953 762.535 104.093 765.958 104.853C769.381 105.613 772.424 106.752 775.466 108.652C777.748 110.172 779.269 112.451 779.269 115.49C779.269 117.77 778.128 120.049 776.607 121.949C774.705 123.468 772.804 124.988 770.522 125.748C767.86 126.887 765.198 127.647 762.535 128.027C759.873 128.407 756.831 128.787 754.168 128.787C750.365 128.787 746.182 128.787 742.378 128.407C739.336 128.027 735.913 127.267 733.251 125.748C730.969 124.228 728.687 121.949 727.546 119.669C726.405 117.39 726.025 114.73 725.644 112.451H675.443C675.062 118.529 676.964 124.988 680.387 129.926C684.57 135.625 689.895 140.184 696.36 143.223C703.966 147.022 712.333 149.301 720.7 150.821C730.208 152.341 740.097 153.48 749.985 153.1C759.493 153.1 769.381 152.341 778.889 150.441C787.636 148.922 796.384 146.262 804.37 142.463C811.216 139.424 817.301 135.245 822.626 129.926C827.189 124.988 829.471 118.529 829.471 111.691C829.471 104.473 826.048 98.0147 820.724 93.4559C814.639 87.7573 803.99 83.1985 788.777 79.7794C784.213 78.6397 779.269 77.8799 774.705 77.1201C769.001 76.3603 764.057 75.6005 760.253 74.4608C756.45 73.701 752.647 72.5612 748.844 71.0416C745.801 70.2818 743.519 67.2426 743.519 64.2034C743.519 61.924 744.28 59.6446 745.801 58.125C747.323 56.6054 749.224 55.4656 751.506 54.7058C753.788 53.946 756.45 53.1862 758.732 53.1862C761.394 52.8063 763.676 52.8063 766.338 52.8063C769.381 52.8063 772.424 53.1862 775.466 53.5661C778.128 53.946 780.791 54.7058 783.072 55.8455C784.974 56.9853 786.876 58.5049 788.397 60.4044C789.538 61.924 790.299 63.8235 790.299 66.1029H836.697C836.697 60.4044 834.796 54.7058 831.753 49.7671C827.57 44.0686 822.626 39.8897 816.54 37.2303Z" fill="white"/>
<path d="M158.593 44.7941L164.297 22H6.4654L0 44.7941H57.8083L31.1861 151.547H77.9652L104.207 44.7941H158.593Z" fill="white"/>
<path d="M243.782 30.3924L187.115 81.2993L174.564 127.267C173.423 132.206 174.184 137.145 176.846 141.324C182.171 148.542 193.58 151.961 210.694 151.961H322.508L328.213 129.167H232.753C227.809 129.547 223.245 128.027 220.202 124.228C218.301 121.189 217.54 117.39 218.681 113.971L223.245 98.015H330.875L336.199 78.64H228.569L233.894 61.1645C233.894 60.7846 237.697 50.1473 255.572 50.1473H347.609L356.356 30.3924H243.782Z" fill="white"/>
</g>
</svg>
