<svg width="786" height="92" viewBox="0 0 786 92" fill="none" xmlns="http://www.w3.org/2000/svg">
<g filter="url(#filter0_b_242_62)">
<path fill-rule="evenodd" clip-rule="evenodd" d="M775.512 0.746582C775.568 0.628884 775.482 0.493164 775.352 0.493164H3.31374C3.18331 0.493164 3.1081 0.641273 3.18505 0.746582V0.746582C3.26199 0.851891 3.18678 1 3.05635 1H1C0.447715 1 0 1.44771 0 2V40C0 40.5523 0.447713 41 0.999997 41V41C20.8483 41 39.52 50.474 51.2299 66.5V66.5C62.9398 82.5259 81.5959 91.9999 101.444 91.9999H704.008C721.244 91.9999 736.939 82.0732 744.325 66.5V66.5C751.712 50.9267 767.407 41 784.643 41H785C785.552 41 786 40.5523 786 40V2C786 1.44772 785.552 1 785 1H775.673C775.542 1 775.457 0.86428 775.512 0.746582V0.746582Z" fill="#050913" fill-opacity="0.8"/>
</g>
<defs>
<filter id="filter0_b_242_62" x="-20" y="-19.5068" width="826" height="131.507" filterUnits="userSpaceOnUse" color-interpolation-filters="sRGB">
<feFlood flood-opacity="0" result="BackgroundImageFix"/>
<feGaussianBlur in="BackgroundImageFix" stdDeviation="10"/>
<feComposite in2="SourceAlpha" operator="in" result="effect1_backgroundBlur_242_62"/>
<feBlend mode="normal" in="SourceGraphic" in2="effect1_backgroundBlur_242_62" result="shape"/>
</filter>
</defs>
</svg>
