<svg width="15" height="17" viewBox="0 0 15 17" fill="none" xmlns="http://www.w3.org/2000/svg">
<path d="M13.1875 10.7377C13.714 9.50366 14 8.18857 14 6.95133C14 3.5916 11.0902 0.870743 7.5 0.870743C3.90983 0.870743 1 3.59266 1 6.95026C1 10.2823 3.07458 14.17 6.31158 15.5597C6.68664 15.72 7.09114 15.8027 7.5 15.8027C7.90886 15.8027 8.31337 15.72 8.68842 15.5597C9.72192 15.116 10.6384 14.4174 11.4043 13.5631" stroke="#FBA225" stroke-linecap="round"/>
<path d="M7.4987 9.4034C8.69532 9.4034 9.66536 8.44835 9.66536 7.27024C9.66536 6.09212 8.69532 5.13707 7.4987 5.13707C6.30208 5.13707 5.33203 6.09212 5.33203 7.27024C5.33203 8.44835 6.30208 9.4034 7.4987 9.4034Z" stroke="#FBA225"/>
</svg>
