<svg width="29" height="25" viewBox="0 0 29 25" fill="none" xmlns="http://www.w3.org/2000/svg">
<path d="M20.8947 9.52675L18.0524 1M6.68342 9.52675L9.52567 1M13.789 23.738H7.03018C6.0118 23.738 5.02707 23.3734 4.25419 22.7102C3.48131 22.0471 2.97133 21.1292 2.81654 20.1227L1.03303 9.95878C0.970735 9.55373 0.996771 9.14001 1.10935 8.74597C1.22192 8.35193 1.41838 7.98689 1.68524 7.67588C1.95211 7.36488 2.28307 7.11526 2.65544 6.94414C3.02781 6.77302 3.43278 6.68445 3.84259 6.6845H23.7369C24.1467 6.68445 24.5517 6.77302 24.9241 6.94414C25.2964 7.11526 25.6274 7.36488 25.8943 7.67588C26.1611 7.98689 26.3576 8.35193 26.4702 8.74597C26.5827 9.14001 26.6088 9.55373 26.5465 9.95878L26.0377 12.8579" stroke="#C628DC" stroke-width="2" stroke-linecap="round" stroke-linejoin="round"/>
<path d="M27.9995 18.0535L23.7361 22.3169L20.9191 19.5" stroke="#C628DC" stroke-width="2" stroke-linecap="round" stroke-linejoin="round"/>
</svg>
