<svg width="227" height="42" viewBox="0 0 227 42" fill="none" xmlns="http://www.w3.org/2000/svg">
<path d="M50.29 17.1912L54.3091 0H69.458L50.29 17.1912Z" fill="#C130D5"/>
<path d="M151.489 8.23527C145.924 8.23527 144.481 9.5735 143.76 12.25C143.039 14.9264 137.68 34.1764 137.68 34.3823C137.268 35.7206 137.577 37.0588 138.298 38.1911C139.741 40.147 142.832 41.0735 147.47 41.0735H177.768L179.313 34.897H153.344C152.004 35 150.768 34.5882 149.943 33.5588C149.428 32.7353 149.222 31.7058 149.531 30.7794L150.768 26.4558H179.932L181.375 21.2059H152.21L153.653 16.4706C153.653 16.3676 154.684 13.4853 159.527 13.4853H184.466L186.733 8.13232H151.489V8.23527Z" fill="white"/>
<path d="M141.906 8.23535H125.932L117.276 18.4265L112.638 8.23535H98.8291L108.825 27.5883L105.321 41.2795H119.028L122.635 27.2795L141.906 8.23535Z" fill="white"/>
<path d="M221.256 10.0882C219.298 9.16174 217.237 8.64704 215.072 8.33822C210.229 7.61763 205.282 7.61763 200.542 8.44116C198.275 8.85292 196.111 9.47057 194.05 10.397C192.298 11.1176 190.752 12.25 189.515 13.6912C188.382 14.9264 187.763 16.5735 187.866 18.2206C187.866 19.3529 188.175 20.5882 188.794 21.5147C189.515 22.4412 190.34 23.2647 191.37 23.8823C192.504 24.6029 193.74 25.1176 194.977 25.5294C196.317 25.9412 197.759 26.3529 199.202 26.6617C201.057 27.0735 202.603 27.3823 203.84 27.5882C205.488 27.897 206.622 28.2059 207.55 28.4117C208.477 28.6176 209.301 28.9264 210.126 29.4412C210.744 29.8529 211.156 30.4706 211.156 31.2941C211.156 31.9117 210.847 32.5294 210.435 33.0441C209.92 33.4559 209.405 33.8676 208.786 34.0735C208.065 34.3823 207.343 34.5882 206.622 34.6911C205.901 34.7941 205.076 34.897 204.355 34.897C203.324 34.897 202.191 34.897 201.16 34.7941C200.336 34.6911 199.408 34.4853 198.687 34.0735C198.069 33.6617 197.45 33.0441 197.141 32.4264C196.832 31.8088 196.729 31.0882 196.626 30.4706H183.023C182.92 32.1176 183.435 33.8676 184.362 35.2059C185.496 36.75 186.939 37.9853 188.691 38.8088C190.752 39.8382 193.019 40.4559 195.286 40.8676C197.863 41.2794 200.542 41.5882 203.221 41.4853C205.798 41.4853 208.477 41.2794 211.053 40.7647C213.424 40.3529 215.794 39.6323 217.958 38.6029C219.813 37.7794 221.462 36.647 222.905 35.2059C224.141 33.8676 224.76 32.1176 224.76 30.2647C224.76 28.3088 223.832 26.5588 222.389 25.3235C220.74 23.7794 217.855 22.5441 213.733 21.6176C212.496 21.3088 211.156 21.1029 209.92 20.897C208.374 20.6912 207.034 20.4853 206.004 20.1764C204.973 19.9706 203.943 19.6617 202.912 19.25C202.088 19.0441 201.469 18.2206 201.469 17.397C201.469 16.7794 201.676 16.1617 202.088 15.75C202.5 15.3382 203.015 15.0294 203.634 14.8235C204.252 14.6176 204.973 14.4117 205.592 14.4117C206.313 14.3088 206.931 14.3088 207.653 14.3088C208.477 14.3088 209.301 14.4117 210.126 14.5147C210.847 14.6176 211.569 14.8235 212.187 15.1323C212.702 15.4412 213.218 15.8529 213.63 16.3676C213.939 16.7794 214.145 17.2941 214.145 17.9117H226.718C226.718 16.3676 226.202 14.8235 225.378 13.4853C224.244 11.9412 222.905 10.8088 221.256 10.0882Z" fill="white"/>
<path d="M42.9734 13.0735L44.5192 6.89703H1.75191L0 13.0735H15.6642L8.45041 42H21.126L28.2367 13.0735H42.9734Z" fill="white"/>
<path d="M66.057 8.23535L50.702 22.0295L47.3012 34.4853C46.9921 35.8236 47.1982 37.1618 47.9196 38.2942C49.3623 40.25 52.4539 41.1765 57.0913 41.1765H87.3892L88.935 35H63.0685C61.7288 35.103 60.4921 34.6912 59.6677 33.6618C59.1524 32.8383 58.9463 31.8089 59.2555 30.8824L60.4921 26.5589H89.6563L91.0991 21.3089H61.9349L63.3776 16.5736C63.3776 16.4706 64.4082 13.5883 69.2517 13.5883H94.1907L96.561 8.23535H66.057Z" fill="white"/>
</svg>
