<svg width="97" height="68" viewBox="0 0 97 68" fill="none" xmlns="http://www.w3.org/2000/svg">
<path fill-rule="evenodd" clip-rule="evenodd" d="M0 22.4446H38.2349L43.2113 29.6243L48.8509 22.4446H88.4155V46.0688H50.908L42.2158 34.9001L33.7893 46.0688H0V22.4446Z" fill="black"/>
<path d="M16.9316 36.4233H10.5789V30.8708H9.22754V37.6419H16.9316V36.4233ZM31.286 30.8708H29.9342V36.4233H23.1761V30.8708H21.8247V36.4233C21.8247 36.4233 21.8247 37.6419 23.0412 37.6419H30.0694C31.3264 37.6419 31.286 36.4233 31.286 36.4233V30.8708ZM61.9945 30.8708H54.9663C53.7498 30.8708 53.7498 32.0894 53.7498 32.0894V37.6419H55.1011V35.4751H61.8592V37.6419H63.211V32.0894C63.211 32.0894 63.211 30.8708 61.9945 30.8708ZM55.1011 32.0894H61.8592V34.2562H55.1011V32.0894ZM79.1868 37.6419L77.5649 35.4751C78.9167 35.4751 78.9167 34.2562 78.9167 34.2562V32.0894C78.9167 32.0894 78.9167 30.8708 77.5649 30.8708H69.4554V37.6419H70.8068V35.4751H76.0783L77.7002 37.6419H79.1868ZM77.5649 34.2562H70.8068V32.0894H77.5649V34.2562Z" fill="#FEFEFE"/>
<path d="M96.9878 44.3626C96.9878 44.6521 96.9478 44.917 96.8677 45.1582C96.7872 45.3994 96.6249 45.5943 96.3801 45.7429C96.1358 45.8915 95.7647 45.966 95.2674 45.966H91.2369C90.8037 45.966 90.4727 45.8858 90.2443 45.7249C90.0154 45.5639 89.8593 45.3453 89.7747 45.0677C89.6905 44.7905 89.6484 44.4711 89.6484 44.1096C89.6484 43.7476 89.6926 43.4283 89.7808 43.1511C89.8691 42.8739 90.0256 42.6548 90.25 42.4939C90.4747 42.3334 90.8037 42.2531 91.2369 42.2531H92.1751V43.1572H91.2128C90.932 43.1572 90.7216 43.1973 90.581 43.2776C90.4408 43.3578 90.3485 43.4684 90.3043 43.6092C90.2602 43.7497 90.2381 43.9126 90.2381 44.0973C90.2381 44.2824 90.2602 44.4449 90.3043 44.5858C90.3485 44.7262 90.4408 44.8368 90.581 44.917C90.7216 44.9977 90.932 45.0378 91.2128 45.0378H95.448C95.7365 45.0378 95.9511 44.9977 96.0916 44.917C96.2318 44.8368 96.3242 44.7262 96.3683 44.5858C96.4124 44.4449 96.4345 44.2824 96.4345 44.0973C96.4345 43.8242 96.3503 43.599 96.182 43.4221C96.0132 43.2456 95.7688 43.1572 95.448 43.1572H93.992V43.9888H93.4387V42.2531H96.8554V42.9521L96.2057 43.0004C96.2539 43.0245 96.3001 43.0507 96.3442 43.0786C96.3883 43.1068 96.4263 43.133 96.4586 43.1572C96.611 43.2616 96.7373 43.4102 96.8374 43.6031C96.938 43.7959 96.9878 44.049 96.9878 44.3626ZM96.8554 41.0231H89.7449V38.6848C89.7449 38.2585 89.843 37.9232 90.0395 37.6779C90.2361 37.4331 90.5348 37.3102 90.9361 37.3102H92.0668C92.4759 37.3102 92.7967 37.4269 93.0296 37.6599C93.2621 37.8929 93.3864 38.2184 93.4023 38.6364C93.4187 38.3711 93.5069 38.1762 93.6671 38.0517C93.8277 37.9273 94.0762 37.8167 94.4133 37.7201L96.8554 37.0089V38.0214L94.4734 38.6364C94.3287 38.6766 94.1926 38.7249 94.0643 38.781C93.936 38.8375 93.8334 38.9054 93.7574 38.9861C93.681 39.0664 93.643 39.1749 93.643 39.3116V40.0589H96.8554V41.0231ZM92.9933 40.0589V39.1188C92.9933 38.8211 92.9213 38.5984 92.7767 38.4497C92.6324 38.3007 92.3839 38.2266 92.0309 38.2266H91.0922C90.8037 38.2266 90.5953 38.297 90.4666 38.4374C90.3382 38.5783 90.2741 38.749 90.2741 38.9497V40.0589H92.9933ZM97.0001 34.2725C97.0001 34.6341 96.958 34.9514 96.8734 35.2249C96.7892 35.498 96.6147 35.715 96.3503 35.8759C96.0855 36.0364 95.6883 36.1167 95.1591 36.1167H91.2369C90.7955 36.1167 90.4608 36.0364 90.232 35.8759C90.0036 35.715 89.8491 35.4959 89.769 35.2187C89.6885 34.9415 89.6484 34.6222 89.6484 34.2602C89.6484 33.8987 89.6905 33.5793 89.7747 33.3021C89.8593 33.0245 90.0134 32.8058 90.2381 32.6449C90.4629 32.4844 90.7955 32.4038 91.2369 32.4038H95.1591C95.6965 32.4038 96.0957 32.4844 96.356 32.6449C96.6168 32.8058 96.7892 33.0265 96.8734 33.3078C96.958 33.5891 97.0001 33.9106 97.0001 34.2725ZM96.4345 34.2725C96.4345 34.0874 96.4104 33.9249 96.3622 33.784C96.3139 33.6436 96.22 33.533 96.0794 33.4528C95.9392 33.3721 95.7288 33.332 95.448 33.332H91.2128C90.9402 33.332 90.7334 33.3721 90.5932 33.4528C90.4527 33.533 90.3583 33.6436 90.3105 33.784C90.2622 33.9249 90.2381 34.0874 90.2381 34.2725C90.2381 34.4572 90.2622 34.6181 90.3105 34.7544C90.3583 34.8912 90.4527 34.9997 90.5932 35.0799C90.7334 35.1606 90.9402 35.2007 91.2128 35.2007H95.448C95.7288 35.2007 95.9392 35.1606 96.0794 35.0799C96.22 34.9997 96.3139 34.8912 96.3622 34.7544C96.4104 34.6181 96.4345 34.4572 96.4345 34.2725ZM97.0001 29.3419C97.0001 29.599 96.9801 29.8402 96.9396 30.065C96.8995 30.2902 96.8215 30.4851 96.705 30.6497C96.589 30.8147 96.4165 30.9453 96.1877 31.0415C95.9592 31.1382 95.6523 31.1865 95.2674 31.1865H89.7449V30.246H95.484C95.7406 30.246 95.9351 30.2038 96.0675 30.1194C96.1999 30.0351 96.2898 29.9245 96.3381 29.7878C96.3863 29.6514 96.4104 29.5024 96.4104 29.3419C96.4104 29.181 96.3863 29.0303 96.3381 28.8899C96.2898 28.749 96.1999 28.6368 96.0675 28.5521C95.9351 28.4677 95.7406 28.4255 95.484 28.4255H89.7449V27.5096H95.2674C95.6442 27.5096 95.949 27.5559 96.182 27.648C96.4145 27.7405 96.589 27.8691 96.705 28.0337C96.8215 28.1987 96.8995 28.3936 96.9396 28.6184C96.9801 28.8436 97.0001 29.0848 97.0001 29.3419ZM96.8554 26.1711H89.7449V23.8687C89.7449 23.4429 89.843 23.1072 90.0395 22.8623C90.2361 22.6171 90.5348 22.4946 90.9361 22.4946H92.2233C92.5041 22.4946 92.7689 22.5327 93.0174 22.6089C93.2662 22.6854 93.4665 22.832 93.6189 23.049C93.7713 23.266 93.8477 23.5793 93.8477 23.9891V25.195H96.8554V26.1711ZM93.3063 25.195V24.2909C93.3063 24.0014 93.2098 23.7844 93.0174 23.6399C92.8249 23.4949 92.52 23.4229 92.1032 23.4229H91.3088C90.948 23.4229 90.6852 23.4892 90.5209 23.6214C90.3566 23.7541 90.2741 23.9212 90.2741 24.1218V25.195H93.3063Z" fill="#6B8C9E"/>
<mask id="mask0_195_816" style="mask-type:alpha" maskUnits="userSpaceOnUse" x="18" y="0" width="48" height="68">
<path fill-rule="evenodd" clip-rule="evenodd" d="M42.3175 37.1466L18.0234 67.7551L39.5425 33.014L28.3694 16.3772H35.3727L43.2942 28.1727L65.6546 0L45.8486 31.9761L59.3444 52.0715H52.3411L42.3175 37.1466Z" fill="#62D8D8"/>
</mask>
<g mask="url(#mask0_195_816)">
<path d="M11.0283 -3.01367H70.0785V72.794H11.0283V-3.01367Z" fill="#62D6D6"/>
<path fill-rule="evenodd" clip-rule="evenodd" d="M35.2659 78.9059L9.90039 62.4845L25.678 38.0168L51.0432 54.4383L35.2659 78.9059Z" fill="url(#paint0_linear_195_816)"/>
<path fill-rule="evenodd" clip-rule="evenodd" d="M56.163 -9.6498L80.0387 8.87119L62.2357 31.907L38.3604 13.386L56.163 -9.6498Z" fill="url(#paint1_linear_195_816)"/>
<path fill-rule="evenodd" clip-rule="evenodd" d="M77.0927 46.6379L58.979 70.8241L35.6448 53.4139L53.7585 29.2282L77.0927 46.6379Z" fill="url(#paint2_linear_195_816)"/>
<path fill-rule="evenodd" clip-rule="evenodd" d="M6.78391 15.4952L30.3127 -3.46454L48.6208 19.172L25.0921 38.1313L6.78391 15.4952Z" fill="url(#paint3_linear_195_816)"/>
</g>
<defs>
<linearGradient id="paint0_linear_195_816" x1="22.5834" y1="70.6952" x2="38.4048" y2="46.2562" gradientUnits="userSpaceOnUse">
<stop/>
<stop offset="0.164706"/>
<stop offset="0.258824"/>
<stop offset="1" stop-color="#62D8D8"/>
</linearGradient>
<linearGradient id="paint1_linear_195_816" x1="68.1007" y1="-0.389321" x2="50.2565" y2="22.6143" gradientUnits="userSpaceOnUse">
<stop/>
<stop offset="0.164706"/>
<stop offset="0.258824"/>
<stop offset="1" stop-color="#62D8D8"/>
</linearGradient>
<linearGradient id="paint2_linear_195_816" x1="68.0358" y1="58.7308" x2="44.7332" y2="41.279" gradientUnits="userSpaceOnUse">
<stop/>
<stop offset="0.164706"/>
<stop offset="0.258824"/>
<stop offset="1" stop-color="#62D8D8"/>
</linearGradient>
<linearGradient id="paint3_linear_195_816" x1="18.5482" y1="6.01552" x2="36.8155" y2="28.6846" gradientUnits="userSpaceOnUse">
<stop/>
<stop offset="0.164706"/>
<stop offset="0.258824"/>
<stop offset="1" stop-color="#62D8D8"/>
</linearGradient>
</defs>
</svg>
